<svg width="44" height="44" viewBox="0 0 44 44" fill="none" xmlns="http://www.w3.org/2000/svg">
<path d="M41.1964 27.9111L40.9613 27.9111L40.9613 19.3943C40.9613 19.0052 40.7708 18.4408 40.5364 18.1321L36.6403 13.0095C36.4052 12.7015 35.8999 12.4506 35.5108 12.4506L29.1782 12.4506L29.1782 9.51288C29.1782 9.12376 28.864 8.80957 28.4749 8.80957L10.899 8.80957C9.34452 8.80957 8.08571 10.0684 8.08571 11.6221L8.08571 13.3409L3.49115 13.3409C2.73215 13.3409 2.11615 13.9569 2.11615 14.7159C2.11615 15.4749 2.73215 16.0909 3.49115 16.0909L3.56609 16.0909L8.08571 16.0909L11.4723 16.0909C12.2313 16.0909 12.8473 16.7069 12.8473 17.4659C12.8473 18.2249 12.2313 18.8409 11.4723 18.8409L8.08571 18.8409L5.29446 18.8409C4.53546 18.8409 3.91946 19.4569 3.91946 20.2159C3.91946 20.9611 4.51415 21.5648 5.2539 21.5868L11.4717 21.5868C12.2306 21.5868 12.8467 22.2028 12.8467 22.9618C12.8467 23.7208 12.2306 24.3368 11.4717 24.3368L8.08502 24.3368L8.08502 27.9118L7.7179 27.9118C7.3384 27.9118 7.0304 28.2191 7.0304 28.5993L7.0304 31.0584C7.0304 31.4462 7.34527 31.7618 7.73303 31.7618L10.1338 31.7618C10.1338 29.1121 12.2891 26.9561 14.938 26.9561C17.5877 26.9561 19.743 29.1121 19.743 31.7618L29.3982 31.7618C29.3982 29.1121 31.5535 26.9561 34.2025 26.9561C36.8521 26.9561 39.0074 29.1121 39.0074 31.7618L41.1778 31.7618C41.567 31.7618 41.8811 31.4462 41.8811 31.0584L41.8811 28.5993C41.8839 28.2184 41.5766 27.9111 41.1964 27.9111ZM30.963 19.219L30.963 15.1098L33.8903 15.1098C34.2602 15.1098 34.7401 15.3504 34.9615 15.6468L37.5788 19.2183L30.963 19.219Z" fill="#263238"/>
<path d="M14.9393 28.3301C13.0446 28.3301 11.5101 29.866 11.5101 31.7607C11.5101 33.6555 13.0446 35.19 14.9393 35.19C16.8348 35.19 18.3693 33.6555 18.3693 31.7607C18.3699 29.8666 16.8348 28.3301 14.9393 28.3301ZM14.9393 32.9006C14.3109 32.9006 13.8001 32.3905 13.8001 31.7614C13.8001 31.131 14.3109 30.6208 14.9393 30.6208C15.5698 30.6208 16.0806 31.131 16.0806 31.7614C16.0813 32.3905 15.5698 32.9006 14.9393 32.9006Z" fill="#263238"/>
<path d="M34.2045 28.3301C32.3104 28.3301 30.7752 29.866 30.7752 31.7607C30.7752 33.6555 32.3104 35.19 34.2045 35.19C36.0999 35.19 37.6344 33.6555 37.6344 31.7607C37.6344 29.8666 36.0999 28.3301 34.2045 28.3301ZM34.2045 32.9006C33.5754 32.9006 33.0646 32.3905 33.0646 31.7614C33.0646 31.131 33.5754 30.6208 34.2045 30.6208C34.8342 30.6208 35.345 31.131 35.345 31.7614C35.345 32.3905 34.8342 32.9006 34.2045 32.9006Z" fill="#263238"/>
</svg>
