<svg width="44" height="44" viewBox="0 0 44 44" fill="none" xmlns="http://www.w3.org/2000/svg">
<g clip-path="url(#clip0_108_14067)">
<path d="M39.6 21.714L39.6 44L4.40002 44L4.40002 21.714C6.62811 22.2539 8.97691 21.9564 11 20.878L11 30.8L33 30.8L33 20.9C35.0266 21.969 37.3745 22.2585 39.6 21.714ZM6.60002 0L15.4 0L13.926 13.266C13.685 15.0499 12.8141 16.6889 11.4707 17.8871C10.1273 19.0853 8.39978 19.7637 6.60002 19.8C2.94802 19.8 0.924016 17.006 2.09002 13.53L6.60002 0ZM17.6 0L26.4 0L27.94 13.86C28.314 17.16 25.938 19.8 22.616 19.8L21.384 19.8C20.6256 19.8197 19.872 19.6743 19.1753 19.3739C18.4786 19.0736 17.8555 18.6254 17.3492 18.0605C16.8428 17.4955 16.4653 16.8273 16.2427 16.102C16.0201 15.3767 15.9578 14.6117 16.06 13.86L17.6 0ZM28.6 0L37.4 0L41.91 13.53C43.076 17.006 41.03 19.8 37.4 19.8C35.5989 19.7682 33.869 19.0913 32.5247 17.8923C31.1803 16.6933 30.3108 15.0517 30.074 13.266L28.6 0Z" fill="#601124"/>
</g>
<defs>
<clipPath id="clip0_108_14067">
<rect width="44" height="44" fill="white"/>
</clipPath>
</defs>
</svg>
