<svg width="350" height="232" viewBox="0 0 350 232" fill="none" xmlns="http://www.w3.org/2000/svg">
<path fill-rule="evenodd" clip-rule="evenodd" d="M165.491 65.8214H179.645V32.0372H165.491V65.8214ZM165.212 66.3678H179.925C180.08 66.3678 180.205 66.2455 180.205 66.0949V31.7643C180.205 31.6137 180.08 31.4914 179.925 31.4914H165.212C165.056 31.4914 164.932 31.6137 164.932 31.7643V66.0949C164.932 66.2455 165.056 66.3678 165.212 66.3678ZM176.037 63.7071H177.846V62.6728H176.037V63.7071ZM178.126 62.1276H175.757C175.602 62.1276 175.477 62.2493 175.477 62.4004V63.98C175.477 64.1311 175.602 64.2529 175.757 64.2529H178.126C178.28 64.2529 178.405 64.1311 178.405 63.98V62.4004C178.405 62.2493 178.28 62.1276 178.126 62.1276ZM167.291 51.9988H174.067V50.9646H167.291V51.9988ZM174.347 50.4188H167.011C166.856 50.4188 166.731 50.541 166.731 50.6917V52.2717C166.731 52.4224 166.856 52.5446 167.011 52.5446H174.347C174.502 52.5446 174.627 52.4224 174.627 52.2717V50.6917C174.627 50.541 174.502 50.4188 174.347 50.4188ZM167.291 55.9012H174.067V54.8669H167.291V55.9012ZM174.347 54.3217H167.011C166.856 54.3217 166.731 54.444 166.731 54.5946V56.1741C166.731 56.3253 166.856 56.447 167.011 56.447H174.347C174.502 56.447 174.627 56.3253 174.627 56.1741V54.5946C174.627 54.444 174.502 54.3217 174.347 54.3217ZM167.291 48.0959H174.067V47.0616H167.291V48.0959ZM174.347 46.5159H167.011C166.856 46.5159 166.731 46.6381 166.731 46.7887V48.3688C166.731 48.5194 166.856 48.6417 167.011 48.6417H174.347C174.502 48.6417 174.627 48.5194 174.627 48.3688V46.7887C174.627 46.6381 174.502 46.5159 174.347 46.5159ZM176.037 51.9988H177.846V50.9646H176.037V51.9988ZM178.126 50.4188H175.757C175.602 50.4188 175.477 50.541 175.477 50.6917V52.2717C175.477 52.4224 175.602 52.5446 175.757 52.5446H178.126C178.28 52.5446 178.405 52.4224 178.405 52.2717V50.6917C178.405 50.541 178.28 50.4188 178.126 50.4188ZM176.037 59.8041H177.846V58.7699H176.037V59.8041ZM178.126 58.2246H175.757C175.602 58.2246 175.477 58.3463 175.477 58.4975V60.077C175.477 60.2282 175.602 60.3499 175.757 60.3499H178.126C178.28 60.3499 178.405 60.2282 178.405 60.077V58.4975C178.405 58.3463 178.28 58.2246 178.126 58.2246ZM167.291 43.9179H177.846V34.0626H167.291V43.9179ZM178.126 33.5168H167.011C166.856 33.5168 166.731 33.6391 166.731 33.7897V44.1908C166.731 44.3414 166.856 44.4637 167.011 44.4637H178.126C178.28 44.4637 178.405 44.3414 178.405 44.1908V33.7897C178.405 33.6391 178.28 33.5168 178.126 33.5168ZM176.037 55.9012H177.846V54.8669H176.037V55.9012ZM178.126 54.3217H175.757C175.602 54.3217 175.477 54.444 175.477 54.5946V56.1741C175.477 56.3253 175.602 56.447 175.757 56.447H178.126C178.28 56.447 178.405 56.3253 178.405 56.1741V54.5946C178.405 54.444 178.28 54.3217 178.126 54.3217ZM18.4168 72.515H28.8124V79.3996C28.8124 79.5507 28.9372 79.6725 29.0923 79.6725C29.2468 79.6725 29.3722 79.5507 29.3722 79.3996V72.515H48.8417C48.9962 72.515 49.1216 72.3927 49.1216 72.2421C49.1216 72.0915 48.9962 71.9692 48.8417 71.9692H38.9801V62.4004C38.9801 62.2493 38.8547 62.1276 38.7002 62.1276C38.5457 62.1276 38.4204 62.2493 38.4204 62.4004V71.9692H18.4168C18.2618 71.9692 18.1369 72.0915 18.1369 72.2421C18.1369 72.3927 18.2618 72.515 18.4168 72.515ZM201.309 170.912H281.35V0.545788H201.309V170.912ZM201.029 171.458H281.63C281.785 171.458 281.909 171.336 281.909 171.185V0.272894C281.909 0.122256 281.785 0 281.63 0H201.029C200.875 0 200.749 0.122256 200.749 0.272894V171.185C200.749 171.336 200.875 171.458 201.029 171.458ZM288.52 27.5677H318.945C319.1 27.5677 319.225 27.4455 319.225 27.2948C319.225 27.1442 319.1 27.0219 318.945 27.0219H309.083V17.7255H318.945C319.1 17.7255 319.225 17.6038 319.225 17.4527C319.225 17.302 319.1 17.1798 318.945 17.1798H297.385C297.231 17.1798 297.106 17.302 297.106 17.4527C297.106 17.6038 297.231 17.7255 297.385 17.7255H308.523V27.0219H288.52C288.365 27.0219 288.24 27.1442 288.24 27.2948C288.24 27.4455 288.365 27.5677 288.52 27.5677ZM167.291 59.8041H174.067V58.7699H167.291V59.8041ZM174.347 58.2246H167.011C166.856 58.2246 166.731 58.3463 166.731 58.4975V60.077C166.731 60.2282 166.856 60.3499 167.011 60.3499H174.347C174.502 60.3499 174.627 60.2282 174.627 60.077V58.4975C174.627 58.3463 174.502 58.2246 174.347 58.2246ZM205.989 165.978H276.67V5.4808H205.989V165.978ZM276.95 4.93447H205.709C205.555 4.93447 205.429 5.05672 205.429 5.20736V166.251C205.429 166.401 205.555 166.524 205.709 166.524H276.95C277.104 166.524 277.23 166.401 277.23 166.251V5.20736C277.23 5.05672 277.104 4.93447 276.95 4.93447ZM176.037 48.0959H177.846V47.0616H176.037V48.0959ZM178.126 46.5159H175.757C175.602 46.5159 175.477 46.6381 175.477 46.7887V48.3688C175.477 48.5194 175.602 48.6417 175.757 48.6417H178.126C178.28 48.6417 178.405 48.5194 178.405 48.3688V46.7887C178.405 46.6381 178.28 46.5159 178.126 46.5159ZM167.291 63.7071H174.067V62.6728H167.291V63.7071ZM174.347 62.1276H167.011C166.856 62.1276 166.731 62.2493 166.731 62.4004V63.98C166.731 64.1311 166.856 64.2529 167.011 64.2529H174.347C174.502 64.2529 174.627 64.1311 174.627 63.98V62.4004C174.627 62.2493 174.502 62.1276 174.347 62.1276ZM119.702 231.122H213.841V214.628H119.702V231.122ZM103.369 214.082H197.508V197.589H103.369V214.082ZM87.8367 197.043H181.976V180.549H87.8367V197.043ZM87.8367 180.003H158.792V8.01653H87.8367V180.003ZM87.2769 7.74364V180.003H80.5445V0.805582H185.518V180.003H159.352V7.74364C159.352 7.59245 159.226 7.47074 159.072 7.47074H87.5568C87.4023 7.47074 87.2769 7.59245 87.2769 7.74364ZM349.473 231.122H214.401V214.355C214.401 214.204 214.275 214.082 214.121 214.082H198.068V197.316C198.068 197.165 197.942 197.043 197.788 197.043H182.535V180.549H349.473C349.628 180.549 349.753 180.426 349.753 180.276C349.753 180.125 349.628 180.003 349.473 180.003H186.078V0.532688C186.078 0.381504 185.953 0.259794 185.798 0.259794H80.2646C80.1101 0.259794 79.9847 0.381504 79.9847 0.532688V180.003H12.692C12.5375 180.003 12.4121 180.125 12.4121 180.276C12.4121 180.426 12.5375 180.549 12.692 180.549H87.2769V197.316C87.2769 197.467 87.4023 197.589 87.5568 197.589H102.809V214.355C102.809 214.506 102.934 214.628 103.089 214.628H119.142V231.122H12.692C12.5375 231.122 12.4121 231.244 12.4121 231.395C12.4121 231.546 12.5375 231.668 12.692 231.668H349.473C349.628 231.668 349.753 231.546 349.753 231.395C349.753 231.244 349.628 231.122 349.473 231.122Z" fill="black"/>
<path fill-rule="evenodd" clip-rule="evenodd" d="M64.087 116.841C64.3579 115.525 64.4671 114.153 64.3926 112.745C63.9644 104.657 56.4802 97.4828 48.0724 97.0991C41.822 96.8142 36.2623 99.7457 33.0262 104.322C30.8974 107.332 27.4744 109.229 23.6942 109.391C23.6276 109.394 23.5621 109.397 23.4961 109.401C14.6443 109.875 7.52194 116.886 7.21535 125.411C7.20684 125.639 7.20349 125.865 7.20461 126.091C7.234 131.25 6.02903 136.373 3.26105 140.792C1.21032 144.066 0.103811 147.949 0.305777 152.093C0.812653 162.512 9.73843 170.91 20.5757 171.181C27.7873 171.362 34.1933 168.014 38.0765 162.807C41.4223 164.932 45.4387 166.159 49.7573 166.118C61.0093 166.012 70.488 156.718 70.3968 145.891C70.3665 142.342 69.3774 139.012 67.6667 136.13C64.19 130.272 62.7239 123.458 64.087 116.841Z" fill="#409B81"/>
<path fill-rule="evenodd" clip-rule="evenodd" d="M42.6144 164.967L40.9099 176.72C40.873 176.978 40.8036 177.23 40.7039 177.472C39.7506 179.797 36.5554 180.287 34.8979 178.363L34.1658 177.513C33.7387 177.016 33.4722 176.409 33.4005 175.768L32.5217 167.921C30.2764 169.335 27.7312 170.34 24.9961 170.834L30.0296 230.666H38.5829L45.6462 165.753C44.6061 165.563 43.5935 165.3 42.6144 164.967Z" fill="#8B4500"/>
<path fill-rule="evenodd" clip-rule="evenodd" d="M49.7544 165.846C45.6529 165.874 41.6567 164.755 38.2331 162.58C38.106 162.5 37.9358 162.529 37.8468 162.648C33.8624 167.991 27.4065 171.079 20.5834 170.909C9.87216 170.641 1.08957 162.37 0.588351 152.079C0.396572 148.137 1.40467 144.283 3.50343 140.933C6.14076 136.722 7.51881 131.588 7.48774 126.089C7.48657 125.867 7.48998 125.644 7.49849 125.42C7.79887 117.055 14.8334 110.137 23.5116 109.672L23.7069 109.663C27.5638 109.497 31.0456 107.606 33.26 104.474C36.4424 99.9753 41.6192 97.3523 47.2343 97.3523C47.508 97.3523 47.7845 97.3588 48.0599 97.3714C56.339 97.7491 63.6894 104.795 64.1103 112.758C64.1825 114.116 64.0812 115.472 63.8103 116.788C62.4892 123.198 63.7717 130.115 67.4214 136.265C69.1539 139.185 70.0848 142.513 70.1139 145.893C70.2046 156.604 60.8816 165.741 49.7544 165.846ZM32.8217 168.059C34.852 166.76 36.6607 165.118 38.1474 163.176C39.4612 163.987 40.8545 164.649 42.3015 165.157L40.6295 176.683C40.5964 176.917 40.5326 177.15 40.4414 177.373C40.0305 178.374 39.1254 179.073 38.0209 179.242C36.9204 179.411 35.8305 179.018 35.1157 178.189L34.3841 177.34C33.9911 176.883 33.7482 176.329 33.6815 175.739L32.8217 168.059ZM38.3282 230.395H30.2904L25.2984 171.051C27.7854 170.569 30.1505 169.662 32.2888 168.38L33.1195 175.797C33.1968 176.494 33.4845 177.148 33.9491 177.687L34.6807 178.537C35.5232 179.515 36.8034 179.981 38.1094 179.78C39.4142 179.58 40.4823 178.755 40.9681 177.573C41.0756 177.309 41.1501 177.034 41.1898 176.758L42.8473 165.328C43.6635 165.591 44.493 165.813 45.3377 165.977L38.3282 230.395ZM67.9134 135.995C64.3309 129.96 63.0703 123.175 64.3645 116.894C64.6455 115.534 64.7496 114.133 64.6752 112.73C64.2396 104.5 56.6435 97.218 48.0862 96.8278C41.969 96.5505 36.2408 99.292 32.7932 104.168C30.6789 107.157 27.3583 108.961 23.6817 109.119L23.4802 109.129C14.5121 109.61 7.2439 116.758 6.93278 125.401C6.92427 125.633 6.92086 125.863 6.92204 126.092C6.95254 131.492 5.60276 136.526 3.01918 140.651C0.86214 144.095 -0.173669 148.055 0.0237633 152.105C0.537972 162.679 9.56271 171.178 20.5688 171.453C20.753 171.458 20.9366 171.46 21.1213 171.46C22.345 171.46 23.5552 171.356 24.7403 171.158L29.748 230.688C29.7592 230.83 29.8818 230.939 30.0296 230.939H38.5829C38.7279 230.939 38.8494 230.833 38.8639 230.695L45.8964 166.071C47.1648 166.284 48.4551 166.4 49.7605 166.39C61.1934 166.283 70.7728 156.894 70.6798 145.889C70.6502 142.417 69.693 138.995 67.9134 135.995Z" fill="black"/>
<path fill-rule="evenodd" clip-rule="evenodd" d="M59.5799 204.532L52.4187 230.567H49.668L55.1101 203.306H57.7573C58.4693 203.306 59.1276 203.554 59.4355 203.938C59.5877 204.129 59.6364 204.329 59.5799 204.532ZM12.2314 204.532C12.1748 204.329 12.2241 204.129 12.3763 203.938C12.6842 203.554 13.3425 203.306 14.0534 203.306H16.7017L22.1438 230.567H19.3926L12.2314 204.532ZM48.8216 203.306H54.5335L49.0914 230.567H45.0728L48.8216 203.306ZM42.7144 203.306H48.2506L44.5018 230.567H40.4787L42.7144 203.306ZM36.1886 203.306H42.1474L39.9117 230.567H36.1886V203.306ZM29.6639 203.306H35.6227V230.567H31.899L29.6639 203.306ZM26.739 230.567H22.7204L17.2783 203.306H22.9897L26.739 230.567ZM23.5601 203.306H29.0968L31.332 230.567H27.31L23.5601 203.306ZM59.8833 203.606C59.4668 203.085 58.6518 202.762 57.7573 202.762H14.0534C13.1595 202.762 12.3444 203.085 11.928 203.606C11.6708 203.929 11.5837 204.306 11.6844 204.671L18.9016 230.909C18.9341 231.029 19.0472 231.112 19.1748 231.112H52.6364C52.7646 231.112 52.8771 231.029 52.9096 230.909L60.1273 204.671C60.2281 204.306 60.1408 203.929 59.8833 203.606Z" fill="black"/>
<path fill-rule="evenodd" clip-rule="evenodd" d="M80.849 222.232L84.2362 195.773L103.302 197.101L98.6772 223.666C98.1997 228.108 94.3591 231.481 89.7791 231.481C84.6258 231.481 80.5383 227.247 80.849 222.232ZM149.478 222.232L147.893 196.642H128.747L131.651 223.667C132.128 228.108 135.968 231.481 140.548 231.481C145.702 231.481 149.79 227.247 149.478 222.232Z" fill="#D96E05"/>
<path fill-rule="evenodd" clip-rule="evenodd" d="M147.629 196.915L149.199 222.249C149.345 224.598 148.514 226.837 146.859 228.55C145.204 230.265 142.963 231.208 140.549 231.208C136.098 231.208 132.393 227.954 131.929 223.638L129.058 196.915H147.629ZM140.549 231.754C143.119 231.754 145.505 230.749 147.266 228.924C149.028 227.1 149.913 224.717 149.758 222.215L148.172 196.626C148.163 196.482 148.041 196.369 147.893 196.369H128.747C128.668 196.369 128.592 196.402 128.539 196.46C128.487 196.517 128.461 196.593 128.469 196.67L131.372 223.696C131.866 228.29 135.811 231.754 140.549 231.754Z" fill="black"/>
<path fill-rule="evenodd" clip-rule="evenodd" d="M149.297 219.293L149.478 222.232C149.79 227.247 145.702 231.481 140.548 231.481C135.968 231.481 132.128 228.108 131.651 223.667L131.181 219.293H149.297Z" fill="#FCBD21"/>
<path fill-rule="evenodd" clip-rule="evenodd" d="M149.033 219.565L149.199 222.248C149.345 224.597 148.514 226.835 146.859 228.55C145.204 230.264 142.963 231.208 140.549 231.208C136.098 231.208 132.393 227.954 131.929 223.637L131.491 219.565H149.033ZM140.549 231.753C143.119 231.753 145.505 230.749 147.266 228.923C149.028 227.099 149.913 224.716 149.758 222.215L149.576 219.276C149.567 219.132 149.445 219.02 149.297 219.02H131.181C131.101 219.02 131.026 219.052 130.973 219.11C130.92 219.167 130.894 219.244 130.903 219.321L131.372 223.695C131.866 228.289 135.811 231.753 140.549 231.753Z" fill="black"/>
<path fill-rule="evenodd" clip-rule="evenodd" d="M143.768 122.094H98.8846L75.0623 195.061L110.407 197.522L120.866 141.962L124.653 196.643H156.03L143.768 122.094Z" fill="#FF5613"/>
<path fill-rule="evenodd" clip-rule="evenodd" d="M120.59 141.912L110.176 197.232L75.4338 194.812L99.0899 122.366H143.529L155.701 196.369H124.914L121.144 141.942C121.135 141.805 121.022 141.696 120.881 141.689C120.876 141.688 120.871 141.688 120.865 141.688C120.731 141.688 120.614 141.781 120.59 141.912ZM110.681 197.571L120.737 144.156L124.373 196.661C124.383 196.804 124.505 196.915 124.652 196.915H156.03C156.111 196.915 156.189 196.88 156.242 196.819C156.295 196.759 156.319 196.678 156.306 196.599L144.043 122.05C144.022 121.917 143.904 121.82 143.767 121.82H98.8839C98.7613 121.82 98.6533 121.898 98.6163 122.012L74.7945 194.979C74.7688 195.058 74.7822 195.145 74.8304 195.213C74.8785 195.283 74.9563 195.326 75.0414 195.332L110.386 197.793C110.393 197.794 110.4 197.795 110.406 197.795C110.54 197.795 110.657 197.701 110.681 197.571Z" fill="black"/>
<path fill-rule="evenodd" clip-rule="evenodd" d="M102.975 197.352L98.4021 223.621C97.9358 227.954 94.2301 231.208 89.7799 231.208C87.3656 231.208 85.1248 230.264 83.4696 228.55C81.8149 226.836 80.9836 224.598 81.1292 222.248L84.4822 196.064L102.975 197.352ZM89.7799 231.753C94.5179 231.753 98.4626 228.289 98.9563 223.695L103.579 197.147C103.592 197.071 103.572 196.993 103.524 196.933C103.474 196.872 103.401 196.834 103.323 196.829L84.2572 195.501C84.1083 195.488 83.9779 195.595 83.9594 195.739L80.5722 222.198C80.4155 224.717 81.3005 227.099 83.0621 228.924C84.8242 230.749 87.2094 231.753 89.7799 231.753Z" fill="black"/>
<path fill-rule="evenodd" clip-rule="evenodd" d="M81.1053 219.293L80.8489 222.232C80.5382 227.247 84.6263 231.481 89.7796 231.481C94.3596 231.481 98.2003 228.108 98.6772 223.667L99.4385 219.293H81.1053Z" fill="#FCBD21"/>
<path fill-rule="evenodd" clip-rule="evenodd" d="M99.1074 219.565L98.4015 223.621C97.9352 227.954 94.2295 231.208 89.7793 231.208C87.365 231.208 85.1236 230.264 83.4689 228.55C81.8143 226.835 80.983 224.597 81.1285 222.248L81.3625 219.565H99.1074ZM89.7793 231.753C94.5172 231.753 98.462 228.289 98.9557 223.695L99.7147 219.338C99.7287 219.259 99.7058 219.178 99.6526 219.116C99.5994 219.055 99.521 219.02 99.4388 219.02H81.1056C80.96 219.02 80.8391 219.128 80.8268 219.27L80.5704 222.208C80.4148 224.716 81.2998 227.099 83.0614 228.923C84.823 230.749 87.2088 231.753 89.7793 231.753Z" fill="black"/>
<path fill-rule="evenodd" clip-rule="evenodd" d="M146.851 222.353C143 221.854 139.098 221.854 135.247 222.353C129.524 223.095 124.575 226.613 122.101 231.7H159.997C157.523 226.613 152.575 223.095 146.851 222.353ZM83.4776 222.353C87.3283 221.854 91.2299 221.854 95.0811 222.353C100.805 223.095 105.753 226.613 108.227 231.7H70.3313C72.8055 226.613 77.7533 223.095 83.4776 222.353Z" fill="#4B69FD"/>
<path fill-rule="evenodd" clip-rule="evenodd" d="M159.549 231.429H122.551C125.051 226.617 129.779 223.338 135.285 222.624C139.111 222.128 142.99 222.128 146.815 222.624C152.32 223.338 157.049 226.617 159.549 231.429ZM122.102 231.974H159.998C160.093 231.974 160.183 231.926 160.234 231.847C160.285 231.769 160.291 231.669 160.251 231.585C157.725 226.393 152.731 222.841 146.889 222.084C143.014 221.582 139.085 221.582 135.211 222.084C129.369 222.841 124.374 226.393 121.849 231.585C121.808 231.669 121.814 231.769 121.865 231.847C121.917 231.926 122.006 231.974 122.102 231.974Z" fill="black"/>
<path fill-rule="evenodd" clip-rule="evenodd" d="M158.528 229.258C159.081 230.024 159.577 230.838 159.997 231.701H122.101C122.521 230.838 123.017 230.024 123.57 229.258H158.528Z" fill="#EFF2F7"/>
<path fill-rule="evenodd" clip-rule="evenodd" d="M159.548 231.427H122.551C122.887 230.785 123.278 230.149 123.717 229.53H158.383C158.821 230.149 159.212 230.785 159.548 231.427ZM122.102 231.973H159.998C160.093 231.973 160.183 231.925 160.234 231.846C160.285 231.767 160.291 231.668 160.251 231.583C159.84 230.74 159.338 229.905 158.757 229.1C158.705 229.028 158.619 228.984 158.528 228.984H123.571C123.48 228.984 123.394 229.028 123.342 229.1C122.761 229.905 122.259 230.74 121.849 231.583C121.808 231.668 121.814 231.767 121.865 231.846C121.917 231.925 122.006 231.973 122.102 231.973Z" fill="black"/>
<path fill-rule="evenodd" clip-rule="evenodd" d="M107.779 231.429H70.7813C73.2812 226.617 78.0097 223.338 83.5151 222.624C87.34 222.129 91.2192 222.129 95.0453 222.624C100.551 223.338 105.279 226.617 107.779 231.429ZM70.3324 231.974H108.228C108.324 231.974 108.413 231.926 108.465 231.847C108.516 231.769 108.522 231.669 108.481 231.585C105.956 226.393 100.961 222.841 95.1192 222.084C91.2444 221.582 87.3154 221.582 83.4412 222.084C77.5994 222.841 72.6045 226.393 70.0793 231.585C70.0385 231.669 70.0446 231.769 70.0956 231.847C70.1471 231.926 70.2361 231.974 70.3324 231.974Z" fill="black"/>
<path fill-rule="evenodd" clip-rule="evenodd" d="M71.8008 229.258C71.2472 230.024 70.7512 230.838 70.3314 231.701H108.228C107.808 230.838 107.312 230.024 106.758 229.258H71.8008Z" fill="#EFF2F7"/>
<path fill-rule="evenodd" clip-rule="evenodd" d="M107.778 231.427H70.7819C71.1177 230.785 71.5084 230.149 71.9473 229.53H106.613C107.052 230.149 107.443 230.785 107.778 231.427ZM70.3324 231.973H108.228C108.324 231.973 108.413 231.925 108.465 231.846C108.516 231.767 108.522 231.668 108.481 231.583C108.071 230.74 107.569 229.905 106.988 229.1C106.935 229.028 106.85 228.984 106.759 228.984H71.8012C71.7105 228.984 71.6249 229.028 71.5723 229.1C70.9918 229.905 70.4897 230.74 70.0793 231.583C70.0385 231.668 70.0446 231.767 70.0956 231.846C70.1471 231.925 70.2361 231.973 70.3324 231.973Z" fill="black"/>
<path fill-rule="evenodd" clip-rule="evenodd" d="M126.412 83.4704C126.412 83.4704 124.434 82.0639 124.786 76.2551C124.786 76.2551 121.657 77.8485 118.243 75.1543L117.456 83.4033C117.456 83.4033 119.822 86.3286 122.304 86.0449C124.786 85.7612 126.412 83.4704 126.412 83.4704Z" fill="#D96E05"/>
<path fill-rule="evenodd" clip-rule="evenodd" d="M124.667 75.5135C122.68 76.568 120.606 76.2044 118.408 74.3969C118.234 74.2535 117.987 74.3774 117.965 74.6198L117.178 83.2158C117.17 83.3033 117.194 83.3905 117.246 83.4566C118.878 85.5596 120.578 86.5245 122.334 86.3153C124.066 86.109 125.504 85.1697 126.634 83.5109C126.734 83.3652 126.702 83.1549 126.566 83.0541C125.357 82.1585 124.837 79.7519 125.065 75.8201C125.079 75.58 124.86 75.4111 124.667 75.5135ZM117.818 83.2585L118.547 75.4275L118.696 75.5361C120.691 76.9573 122.636 77.2912 124.509 76.5224L124.592 76.4873L124.579 76.8121C124.467 80.158 124.96 82.3765 126.098 83.4586L126.133 83.4895L126.056 83.5911C125.099 84.8228 123.938 85.5387 122.561 85.7481L122.372 85.7735C120.81 85.9562 119.268 85.0962 117.736 83.1579L117.818 83.2585Z" fill="black"/>
<path fill-rule="evenodd" clip-rule="evenodd" d="M122.376 76.7399C126.152 76.7399 129.214 73.5743 129.214 69.6697C129.214 65.7652 126.152 62.5996 122.376 62.5996C118.6 62.5996 115.539 65.7652 115.539 69.6697C115.539 73.5743 118.6 76.7399 122.376 76.7399Z" fill="#D96E05"/>
<path fill-rule="evenodd" clip-rule="evenodd" d="M122.376 62.871C125.994 62.871 128.936 65.9208 128.936 69.6704C128.936 73.4199 125.994 76.4698 122.376 76.4698C118.759 76.4698 115.816 73.4199 115.816 69.6704C115.816 65.9208 118.759 62.871 122.376 62.871ZM122.376 77.0107C126.299 77.0107 129.491 73.7179 129.491 69.6704C129.491 65.6228 126.299 62.3301 122.376 62.3301C118.454 62.3301 115.262 65.6228 115.262 69.6704C115.262 73.7179 118.454 77.0107 122.376 77.0107Z" fill="black"/>
<path fill-rule="evenodd" clip-rule="evenodd" d="M124.292 71.939C124.303 71.939 124.314 71.9384 124.326 71.9373L125.469 71.802C125.549 71.7921 125.621 71.7496 125.666 71.6841C125.712 71.6191 125.726 71.5378 125.706 71.4614L125.359 70.1777C125.319 70.0325 125.166 69.9457 125.017 69.9834C124.868 70.0222 124.779 70.1712 124.818 70.3169L125.083 71.2977L124.258 71.3948C124.105 71.4134 123.995 71.5493 124.014 71.6988C124.031 71.8374 124.152 71.939 124.292 71.939Z" fill="black"/>
<path fill-rule="evenodd" clip-rule="evenodd" d="M122.377 69.5154C122.377 69.8445 122.548 70.1108 122.761 70.1108C122.973 70.1108 123.145 69.8445 123.145 69.5154C123.145 69.1863 122.973 68.9199 122.761 68.9199C122.548 68.9199 122.377 69.1863 122.377 69.5154Z" fill="black"/>
<path fill-rule="evenodd" clip-rule="evenodd" d="M126.104 69.5154C126.104 69.8445 126.276 70.1108 126.489 70.1108C126.701 70.1108 126.873 69.8445 126.873 69.5154C126.873 69.1863 126.701 68.9199 126.489 68.9199C126.276 68.9199 126.104 69.1863 126.104 69.5154Z" fill="black"/>
<path fill-rule="evenodd" clip-rule="evenodd" d="M121.803 68.1895C121.868 68.1895 121.932 68.1676 121.985 68.1234C122.518 67.677 123.134 67.683 123.139 67.6786C123.298 67.6742 123.421 67.5613 123.424 67.4112C123.426 67.2611 123.305 67.1366 123.151 67.1328C123.114 67.1339 122.322 67.1219 121.62 67.7097C121.503 67.808 121.49 67.9799 121.591 68.0945C121.646 68.1573 121.724 68.1895 121.803 68.1895Z" fill="black"/>
<path fill-rule="evenodd" clip-rule="evenodd" d="M127.447 68.1895C127.526 68.1895 127.604 68.1573 127.659 68.0946C127.76 67.98 127.746 67.8075 127.629 67.7098C126.927 67.122 126.131 67.1323 126.098 67.1329C125.943 67.1367 125.821 67.2617 125.825 67.4123C125.828 67.5608 125.953 67.6787 126.105 67.6787C126.107 67.6787 126.109 67.6781 126.111 67.6787C126.14 67.6787 126.74 67.6852 127.264 68.1235C127.317 68.1677 127.382 68.1895 127.447 68.1895Z" fill="black"/>
<path fill-rule="evenodd" clip-rule="evenodd" d="M124.281 74.9521C124.543 74.9521 124.835 74.9024 125.154 74.8025C125.301 74.7567 125.383 74.6028 125.335 74.4592C125.288 74.3162 125.132 74.2371 124.983 74.2829C124.404 74.4641 123.969 74.4456 123.693 74.2284C123.434 74.0248 123.334 73.6766 123.297 73.3889C124.234 73.8349 125.175 73.5178 125.591 73.2454C125.72 73.1614 125.753 72.9916 125.668 72.8666C125.581 72.7422 125.408 72.7083 125.28 72.7919C125.235 72.8208 124.198 73.4719 123.182 72.6718C123.102 72.609 122.993 72.5937 122.898 72.6325C122.803 72.6712 122.738 72.7575 122.727 72.8573C122.722 72.9065 122.611 74.0766 123.339 74.6514C123.593 74.8517 123.908 74.9521 124.281 74.9521Z" fill="black"/>
<path fill-rule="evenodd" clip-rule="evenodd" d="M113.334 69.2931C113.666 72.2693 115.388 75.1369 118.205 75.1369L118.349 72.0106C118.307 72.015 118.266 72.0232 118.223 72.0232C117.504 72.0232 116.921 71.4577 116.915 70.7586C116.913 70.4895 117.04 70.2303 117.218 70.0261C117.701 69.4743 118.103 69.4312 118.465 69.4978L118.818 66.4911C118.894 65.8367 119.463 65.3422 120.138 65.3422H128.007C128.007 65.3422 129.609 56.7182 127.776 57.0233C125.943 57.3284 126.099 58.5264 124.623 56.9654C123.148 55.4039 121.895 56.263 121.046 57.3529C120.197 58.4423 118.321 55.1108 116.987 56.3285C115.335 57.836 116.135 59.0138 113.274 58.5488C111.588 58.2753 113.296 69.1103 113.334 69.2931Z" fill="#EE7A08"/>
<path fill-rule="evenodd" clip-rule="evenodd" d="M118.057 72.2885L117.939 74.8554C115.377 74.6725 113.904 71.8721 113.612 69.2643C113.612 69.2567 113.61 69.249 113.609 69.2414C113.369 67.9921 112.254 59.748 113.16 58.8469C113.194 58.813 113.21 58.8158 113.229 58.8185C115.252 59.1492 115.633 58.6924 116.183 57.7908C116.411 57.4164 116.67 56.9928 117.178 56.5289C117.679 56.0721 118.29 56.464 119.167 57.1124C119.887 57.6439 120.702 58.246 121.269 57.5184C121.835 56.7936 122.398 56.4132 122.944 56.3881C123.415 56.3646 123.919 56.6228 124.418 57.1511C125.424 58.2154 125.824 58.1575 126.56 57.7564C126.857 57.5943 127.226 57.3923 127.823 57.293C127.9 57.2805 127.951 57.2968 128.006 57.3509C128.725 58.0593 128.258 62.3645 127.773 65.0699H120.139C119.32 65.0699 118.633 65.6681 118.54 66.4611L118.219 69.2021C117.884 69.2037 117.462 69.3282 117.006 69.8499C116.765 70.1256 116.634 70.4492 116.635 70.7609C116.642 71.5533 117.265 72.2077 118.057 72.2885ZM118.206 75.4104C118.355 75.4104 118.478 75.2958 118.485 75.1501L118.629 72.0238C118.633 71.9452 118.601 71.8683 118.543 71.8137C118.484 71.7597 118.403 71.7324 118.323 71.74L118.223 71.7515C117.66 71.7515 117.2 71.305 117.195 70.757C117.194 70.5764 117.278 70.3799 117.432 70.2036C117.861 69.7124 118.164 69.7206 118.414 69.7664C118.489 69.7812 118.569 69.7632 118.632 69.7184C118.694 69.6731 118.735 69.6049 118.744 69.5296L119.096 66.5228C119.157 66.0054 119.605 65.6157 120.139 65.6157H128.008C128.143 65.6157 128.259 65.5213 128.284 65.3914C128.421 64.6519 129.59 58.1352 128.404 56.9672C128.22 56.786 127.985 56.7123 127.729 56.7554C127.037 56.87 126.603 57.1074 126.287 57.2799C125.774 57.5604 125.637 57.6352 124.829 56.7811C124.213 56.1283 123.571 55.8101 122.917 55.8428C122.198 55.8761 121.494 56.3286 120.824 57.1882C120.629 57.4371 120.31 57.2723 119.505 56.6774C118.69 56.0748 117.676 55.326 116.796 56.1299C116.229 56.6473 115.937 57.1265 115.702 57.5119C115.249 58.2552 115.061 58.5641 113.32 58.2803C113.111 58.247 112.911 58.3136 112.757 58.4681C111.508 59.725 112.979 68.8752 113.056 69.3304C113.386 72.2601 115.137 75.4104 118.206 75.4104Z" fill="black"/>
<path fill-rule="evenodd" clip-rule="evenodd" d="M162.447 89.9964L170.271 89.4823L163.952 89.1237C163.025 89.0659 162.303 88.3159 162.303 87.4105C162.303 86.4794 163.065 85.718 164.02 85.6945L171.641 85.5062C171.641 85.5062 170.562 83.6445 169.133 82.7216C168.457 82.2855 168.081 81.5231 168.217 80.7431L168.24 80.6094C168.471 79.2772 169.996 78.5594 171.194 79.239C173.502 80.5472 177.911 84.1254 177.911 89.5396C177.911 98.1248 174.012 103.196 169.809 103.196C167.474 103.196 166.048 102.974 165.21 102.755C164.572 102.588 164.136 102.014 164.136 101.369C164.136 100.699 164.607 100.118 165.276 99.9674C166.781 99.629 170.4 99.7382 170.211 98.0675L164.267 98.3628C163.201 98.4212 162.303 97.5943 162.303 96.553C162.303 95.6159 163.036 94.8332 163.993 94.7481L170.005 94.2645L162.382 93.5146C161.463 93.4169 160.767 92.6599 160.767 91.7588C160.767 90.8326 161.5 90.0641 162.447 89.9964ZM85.1033 103.682H100.341C100.341 103.682 94.7354 112.61 100.325 115.687C105.916 118.764 131.177 110.627 131.177 110.627C131.177 110.627 138.03 108.429 138.571 111.242C138.631 111.553 138.629 111.831 138.579 112.081C138.579 112.081 140.622 111.627 141.603 110.44H150.8C150.8 110.44 152.389 114.561 137.545 118.55C137.545 118.55 132.102 120.297 129.802 121.484C127.503 122.671 101.897 134.517 88.9803 125.22C76.0641 115.924 85.1033 103.682 85.1033 103.682Z" fill="#D96E05"/>
<path fill-rule="evenodd" clip-rule="evenodd" d="M169.654 83.1094C169.825 83.2529 169.988 83.4057 170.144 83.5629V85.5425L164.019 85.6931C163.064 85.7171 162.303 86.4785 162.303 87.4096C162.303 88.3151 163.024 89.065 163.951 89.1229L170.144 89.4738V89.4891L162.447 89.9956C161.5 90.0627 160.766 90.8317 160.766 91.7574C160.766 92.659 161.462 93.4155 162.381 93.5132L170.004 94.2636L163.993 94.7467C163.036 94.8323 162.303 95.615 162.303 96.5516C162.303 97.5935 163.2 98.4204 164.266 98.3614L170.144 98.07V98.5301C169.657 99.7155 166.623 99.6637 165.275 99.9666C164.606 100.117 164.135 100.698 164.135 101.368C164.135 102.013 164.57 102.587 165.21 102.754C166.048 102.973 167.473 103.194 169.808 103.194C169.92 103.194 170.032 103.176 170.144 103.169V110.626H131.553V83.1094H169.654Z" fill="#FCBD21"/>
<path fill-rule="evenodd" clip-rule="evenodd" d="M101.081 103.68H82.5335L87.891 96.062C94.0183 87.3485 104.158 82.1406 114.994 82.1406H117.623C118.329 83.5908 120.081 84.6201 122.135 84.6201C124.189 84.6201 125.941 83.5908 126.647 82.1406L131.983 83.1088H131.553V110.513C131.317 110.581 131.177 110.625 131.177 110.625C131.177 110.625 105.915 118.762 100.325 115.685L102.298 101.307L101.081 103.68ZM138.571 111.241C138.524 110.999 138.429 110.797 138.298 110.625H141.432C140.404 111.673 138.578 112.08 138.578 112.08C138.628 111.83 138.631 111.551 138.571 111.241ZM137.545 118.548C140.323 117.802 142.524 117.051 144.269 116.323L145.288 122.142H128.415C129.092 121.835 129.569 121.603 129.802 121.483C132.101 120.296 137.545 118.548 137.545 118.548Z" fill="#4B69FD"/>
<path fill-rule="evenodd" clip-rule="evenodd" d="M123.747 84.3984L122.135 90.1298L120.523 84.3984C120.523 84.3984 122.086 84.9164 123.747 84.3984Z" fill="#FBEFE3"/>
<mask id="mask0_478_7118" style="mask-type:alpha" maskUnits="userSpaceOnUse" x="81" y="103" width="71" height="27">
<path fill-rule="evenodd" clip-rule="evenodd" d="M151.13 103.41H81.78V129.01H151.13V103.41Z" fill="white"/>
</mask>
<g mask="url(#mask0_478_7118)">
<path fill-rule="evenodd" clip-rule="evenodd" d="M84.8756 103.524C84.9282 103.452 85.0127 103.41 85.1029 103.41H100.34C100.442 103.41 100.535 103.464 100.585 103.549C100.634 103.636 100.632 103.741 100.58 103.826C100.546 103.877 97.3306 109.065 98.3107 112.746C98.6248 113.928 99.3491 114.838 100.463 115.451C105.882 118.434 130.838 110.45 131.089 110.369C131.098 110.366 131.126 110.357 131.149 110.35C131.467 110.502 131.837 110.595 132.258 110.612C131.668 110.76 131.278 110.883 131.265 110.887C130.229 111.221 105.821 119.027 100.187 115.926C98.936 115.237 98.1227 114.213 97.7683 112.882C96.8856 109.562 99.0888 105.297 99.8552 103.956H85.2484C84.3253 105.272 77.1143 116.342 89.1461 125.002C102.433 134.565 129.405 121.381 129.671 121.244C131.965 120.06 137.234 118.364 137.471 118.288C146.936 115.744 149.55 113.156 150.265 111.84C150.552 111.313 150.582 110.925 150.567 110.714H148.001C148.002 110.759 148.01 110.798 148.003 110.849C147.904 111.554 146.906 112.364 145.039 113.258C141.409 114.995 136.893 116.327 136.848 116.34C136.821 116.348 136.794 116.351 136.767 116.351C136.647 116.351 136.536 116.275 136.499 116.157C136.455 116.013 136.538 115.861 136.687 115.817C136.731 115.804 141.205 114.485 144.793 112.768C147.036 111.694 147.394 111.034 147.444 110.801C147.452 110.762 147.448 110.738 147.445 110.714H141.732C140.836 111.709 139.295 112.178 138.799 112.309C138.199 114.336 134.765 114.499 134.628 114.504L132.058 114.724C132.049 114.725 132.042 114.725 132.033 114.725C131.89 114.725 131.767 114.618 131.755 114.476C131.741 114.326 131.855 114.193 132.009 114.18L134.592 113.96C134.626 113.959 137.943 113.809 138.303 112.03C138.349 111.805 138.346 111.557 138.295 111.294C138.246 111.036 138.128 110.826 137.948 110.653C138.105 110.677 138.267 110.694 138.441 110.694C138.515 110.694 138.585 110.688 138.655 110.683C138.74 110.84 138.81 111.006 138.846 111.193C138.88 111.371 138.897 111.544 138.896 111.712C139.511 111.524 140.723 111.071 141.384 110.27C141.437 110.206 141.518 110.169 141.603 110.169H150.799C150.916 110.169 151.02 110.239 151.061 110.345C151.088 110.414 151.307 111.05 150.79 112.04C149.893 113.757 146.88 116.326 137.633 118.811C137.578 118.828 132.185 120.564 129.933 121.727C129.735 121.828 115.04 129.01 101.863 129.01C97.0507 129.009 92.4404 128.051 88.8136 125.441C75.8252 116.093 84.7838 103.648 84.8756 103.524Z" fill="black"/>
</g>
<mask id="mask1_478_7118" style="mask-type:alpha" maskUnits="userSpaceOnUse" x="81" y="78" width="98" height="52">
<path fill-rule="evenodd" clip-rule="evenodd" d="M178.19 129.008H81.7793V78.7031H178.19V129.008Z" fill="white"/>
</mask>
<g mask="url(#mask1_478_7118)">
<path fill-rule="evenodd" clip-rule="evenodd" d="M160.767 110.44H140.93V106.494H160.767V110.44Z" fill="#EFF2F7"/>
<path fill-rule="evenodd" clip-rule="evenodd" d="M161.442 87.0543H141.606V83.1094H161.442V87.0543Z" fill="#EFF2F7"/>
<path fill-rule="evenodd" clip-rule="evenodd" d="M170.211 79.25C170.501 79.25 170.79 79.3253 171.053 79.4743C174.087 81.1947 177.631 84.8629 177.631 89.5392C177.631 96.027 174.889 102.922 169.808 102.922C167.433 102.922 166.036 102.688 165.283 102.491C164.772 102.358 164.415 101.896 164.415 101.369C164.415 100.822 164.795 100.355 165.339 100.233C165.681 100.156 166.156 100.101 166.66 100.043C168.443 99.8366 170.663 99.5801 170.49 98.0371C170.473 97.8936 170.345 97.7861 170.197 97.7942L164.253 98.0895C163.813 98.1184 163.396 97.9656 163.078 97.6714C162.759 97.3773 162.583 96.9799 162.583 96.5526C162.583 95.7514 163.2 95.0921 164.019 95.0195L170.027 94.5359C170.171 94.5244 170.282 94.4076 170.284 94.2663C170.285 94.1255 170.176 94.0065 170.032 93.9923L162.41 93.2424C161.633 93.16 161.047 92.5214 161.047 91.7578C161.047 90.9795 161.67 90.3251 162.467 90.2678L170.289 89.7542C170.436 89.7444 170.551 89.6244 170.55 89.4803C170.55 89.3362 170.434 89.2177 170.286 89.2096L163.968 88.851C163.192 88.8024 162.583 88.1698 162.583 87.4101C162.583 86.6209 163.217 85.9867 164.026 85.967L171.647 85.7787C171.746 85.7765 171.835 85.7236 171.884 85.6401C171.932 85.5571 171.932 85.4551 171.884 85.3716C171.839 85.293 170.756 83.4422 169.287 82.4936C168.691 82.1094 168.379 81.4397 168.492 80.788L168.515 80.6543C168.61 80.1102 168.973 79.6446 169.487 79.4099C169.72 79.303 169.966 79.25 170.211 79.25ZM169.808 103.468C173.974 103.468 178.19 98.6833 178.19 89.5392C178.19 83.2103 172.479 79.6517 171.334 79.0022C170.689 78.636 169.929 78.6049 169.249 78.9155C168.569 79.2266 168.089 79.8422 167.964 80.5637L167.94 80.6974C167.79 81.5614 168.198 82.4451 168.978 82.9488C169.944 83.5727 170.754 84.662 171.145 85.245L164.012 85.4212C162.897 85.4485 162.024 86.3223 162.024 87.4101C162.024 88.4569 162.863 89.3291 163.934 89.3957L165.803 89.5021L162.428 89.7237C161.339 89.8012 160.487 90.6946 160.487 91.7578C160.487 92.8008 161.289 93.6719 162.352 93.7854L166.939 94.2368L163.97 94.4753C162.859 94.5746 162.024 95.467 162.024 96.5526C162.024 97.1317 162.261 97.6704 162.693 98.0682C163.125 98.4661 163.691 98.6675 164.283 98.6348L169.915 98.3548C169.697 99.1423 167.99 99.3394 166.594 99.5009C166.075 99.561 165.585 99.6172 165.213 99.7012C164.414 99.8808 163.855 100.566 163.855 101.369C163.855 102.143 164.382 102.821 165.138 103.018C166.281 103.317 167.853 103.468 169.808 103.468Z" fill="black"/>
<path fill-rule="evenodd" clip-rule="evenodd" d="M101.87 102.415H83.6153V101.869H101.87V102.415Z" fill="black"/>
<path fill-rule="evenodd" clip-rule="evenodd" d="M129.006 121.869H144.956L144.004 116.429C144.185 116.355 144.361 116.282 144.533 116.209L145.563 122.096C145.577 122.175 145.554 122.256 145.501 122.317C145.448 122.379 145.37 122.415 145.287 122.415H127.805C128.278 122.206 128.681 122.022 129.006 121.869Z" fill="black"/>
<path fill-rule="evenodd" clip-rule="evenodd" d="M126.47 82.9454C126.433 82.9929 126.392 83.0371 126.353 83.0835C126.279 83.1708 126.201 83.256 126.119 83.3384C126.054 83.4039 125.99 83.4688 125.921 83.5311C125.881 83.5665 125.837 83.5987 125.796 83.6337C125.626 83.775 125.446 83.9055 125.255 84.025C125.23 84.0403 125.206 84.0556 125.18 84.0708C124.818 84.2897 124.422 84.4682 123.998 84.6019C123.991 84.6041 123.985 84.6068 123.979 84.609L122.569 89.6204L127.253 87.2091L126.021 86.785C125.795 86.707 125.65 86.498 125.661 86.2644C125.672 86.0308 125.835 85.8354 126.068 85.7775L129.19 85.0314L126.714 82.5956C126.64 82.7162 126.558 82.8325 126.47 82.9454ZM120.921 84.7798L122.135 89.0981L123.349 84.7842C122.355 84.9916 121.451 84.8852 120.921 84.7798ZM120.292 84.609C120.284 84.6063 120.277 84.603 120.269 84.6003C119.845 84.466 119.449 84.2881 119.087 84.0692C119.062 84.0534 119.036 84.0376 119.011 84.0217C118.828 83.9066 118.655 83.7816 118.492 83.6468C118.441 83.6047 118.389 83.5644 118.34 83.5212C118.27 83.4574 118.203 83.3919 118.138 83.3253C118.051 83.2374 117.97 83.1463 117.892 83.0524C117.856 83.0098 117.818 82.9689 117.784 82.9247C117.702 82.8183 117.626 82.7086 117.556 82.5956L115.105 85.008L118.203 85.7775C118.436 85.8354 118.599 86.0308 118.61 86.2644C118.621 86.498 118.476 86.707 118.25 86.785L117.021 87.1747L121.701 89.6161L120.292 84.609ZM131.554 83.31L127.477 82.5699L129.588 84.6472C129.725 84.7831 129.777 84.9747 129.724 85.1591C129.672 85.3431 129.527 85.4812 129.337 85.5286L126.208 86.2698L127.439 86.6944C127.644 86.7649 127.782 86.9401 127.799 87.1513C127.815 87.3625 127.706 87.5557 127.514 87.6556L122.415 90.3163V113.165C122.23 113.214 122.043 113.263 121.855 113.313V90.3163L116.756 87.6556C116.565 87.5557 116.456 87.3625 116.473 87.1513C116.489 86.9401 116.627 86.7649 116.831 86.6944L118.065 86.3064L114.934 85.5286C114.744 85.4812 114.599 85.3431 114.547 85.1591C114.494 84.9747 114.545 84.7831 114.684 84.6472L116.952 82.4149H114.994C104.246 82.4149 94.2003 87.5748 88.1223 96.2179L83.0647 103.409H100.909L102.048 101.186C102.11 101.067 102.25 101.009 102.381 101.047C102.512 101.086 102.594 101.212 102.576 101.344L100.59 115.817C100.498 115.776 100.409 115.733 100.325 115.687C100.233 115.636 100.152 115.579 100.066 115.525L101.799 102.893L101.332 103.804C101.284 103.896 101.187 103.954 101.082 103.954H100.179C100.279 103.781 100.342 103.682 100.342 103.682H85.1034C85.1034 103.682 85.0334 103.777 84.9153 103.954H82.5335C82.4299 103.954 82.3348 103.899 82.286 103.809C82.2379 103.719 82.2441 103.611 82.3028 103.527L87.6604 95.909C93.8432 87.118 104.061 81.8691 114.994 81.8691H117.623C117.631 81.8691 117.636 81.8746 117.644 81.8751C117.653 81.8757 117.662 81.8713 117.671 81.873C117.696 81.8773 117.716 81.8915 117.738 81.9013C117.753 81.9079 117.767 81.9106 117.78 81.9194C117.821 81.9461 117.855 81.9805 117.877 82.0247C117.878 82.0274 117.88 82.0301 117.881 82.0329C117.955 82.1851 118.047 82.3303 118.145 82.4711C118.172 82.5099 118.201 82.5476 118.229 82.5847C118.319 82.7031 118.416 82.8166 118.521 82.9247C118.543 82.9465 118.561 82.9694 118.583 82.9907C118.713 83.1179 118.853 83.2374 119.003 83.3493C119.033 83.3722 119.066 83.393 119.097 83.4148C119.218 83.501 119.345 83.5807 119.476 83.6555C119.526 83.6844 119.575 83.7128 119.626 83.7401C119.762 83.811 119.903 83.8755 120.048 83.9349C120.13 83.9688 120.214 83.9999 120.299 84.0294C120.87 84.2313 121.491 84.3487 122.135 84.3487C122.781 84.3487 123.403 84.2308 123.975 84.0283C124.058 83.9993 124.14 83.9693 124.22 83.9366C124.366 83.8765 124.509 83.811 124.645 83.7396C124.696 83.7128 124.744 83.6844 124.794 83.6566C124.926 83.5813 125.054 83.5005 125.175 83.4137C125.206 83.3924 125.238 83.3722 125.267 83.3499C125.417 83.2374 125.559 83.1174 125.689 82.9896C125.709 82.9694 125.727 82.9482 125.746 82.9285C125.853 82.8183 125.952 82.7026 126.044 82.5825C126.071 82.5465 126.098 82.5104 126.125 82.4733C126.226 82.3292 126.318 82.1813 126.395 82.0247C126.419 81.975 126.46 81.9395 126.507 81.9123C126.52 81.9046 126.532 81.9008 126.546 81.8959C126.565 81.8882 126.58 81.8762 126.6 81.873C126.624 81.8691 126.646 81.8762 126.669 81.8779C126.68 81.8784 126.688 81.8719 126.699 81.8735L133.513 83.1103H131.554V83.31Z" fill="black"/>
<path fill-rule="evenodd" clip-rule="evenodd" d="M169.864 94.2751V94.25L170.004 94.2636L169.864 94.2751Z" fill="black"/>
<path fill-rule="evenodd" clip-rule="evenodd" d="M160.487 110.168H141.211V106.768H160.487V110.168ZM161.163 86.7828H141.887V83.3837H161.163V86.7828ZM131.554 82.8379H169.299C169.713 83.1321 170.095 83.4961 170.424 83.8629V85.5368L169.864 85.5505V83.3837H161.723V87.0557C161.723 87.2069 161.598 87.3286 161.443 87.3286H141.607C141.452 87.3286 141.327 87.2069 141.327 87.0557V83.3837H131.834V110.354H140.651V106.495C140.651 106.344 140.776 106.222 140.93 106.222H160.767C160.922 106.222 161.047 106.344 161.047 106.495V110.354H169.864V103.192C170.052 103.19 170.238 103.172 170.424 103.15V110.627C170.424 110.778 170.298 110.9 170.144 110.9H131.554C131.399 110.9 131.274 110.778 131.274 110.627V83.1108C131.274 82.9601 131.399 82.8379 131.554 82.8379Z" fill="black"/>
<path fill-rule="evenodd" clip-rule="evenodd" d="M169.864 89.5086V89.459L170.271 89.4819L169.864 89.5086Z" fill="black"/>
<path fill-rule="evenodd" clip-rule="evenodd" d="M169.864 98.9091V98.0833L170.211 98.0664C170.251 98.4217 170.111 98.693 169.864 98.9091Z" fill="black"/>
</g>
<path fill-rule="evenodd" clip-rule="evenodd" d="M183.142 231.418H254.233V198.125H183.142V231.418Z" fill="#FCBD21"/>
<path fill-rule="evenodd" clip-rule="evenodd" d="M200.306 231.141L236.65 231.009L236.789 224.109H200.247L200.306 231.141Z" fill="#EEF2F8"/>
<path fill-rule="evenodd" clip-rule="evenodd" d="M200.495 205.766H236.88V198.125H200.495V205.766Z" fill="#EEF2F8"/>
<path fill-rule="evenodd" clip-rule="evenodd" d="M183.122 231.436H253.694V198.109H236.88V205.491C236.88 205.643 236.76 205.767 236.611 205.767H200.204C200.055 205.767 199.935 205.643 199.935 205.491V198.109H183.122V231.436ZM200.204 197.58H236.611H253.963C254.113 197.58 254.233 197.699 254.233 197.844V231.701C254.233 231.846 254.113 231.965 253.963 231.965H182.852C182.703 231.965 182.582 231.846 182.582 231.701V197.844C182.582 197.699 182.703 197.58 182.852 197.58H200.204ZM200.495 230.873H236.32V224.324H200.495V230.873ZM236.611 231.419H200.204C200.055 231.419 199.935 231.304 199.935 231.161V224.036C199.935 223.893 200.055 223.778 200.204 223.778H236.611C236.76 223.778 236.88 223.893 236.88 224.036V231.161C236.88 231.304 236.76 231.419 236.611 231.419ZM236.32 205.221H200.495V198.126H236.32V205.221Z" fill="black"/>
<path fill-rule="evenodd" clip-rule="evenodd" d="M189.3 198.124H240.239V174.109H189.3V198.124Z" fill="#FCBD21"/>
<path fill-rule="evenodd" clip-rule="evenodd" d="M201.614 197.58H227.924V192.668H201.614V197.58Z" fill="#EEF2F8"/>
<path fill-rule="evenodd" clip-rule="evenodd" d="M201.614 179.021H227.924V174.109H201.614V179.021Z" fill="#EEF2F8"/>
<path fill-rule="evenodd" clip-rule="evenodd" d="M189.837 197.598H201.615V192.398C201.615 192.245 201.734 192.121 201.882 192.121H227.657C227.804 192.121 227.924 192.245 227.924 192.398V197.598H239.702V174.092H227.993V179.012C227.993 179.158 227.872 179.275 227.724 179.275H201.816C201.667 179.275 201.547 179.158 201.547 179.012V174.092H189.837V197.598ZM201.816 173.564H227.724H239.971C240.119 173.564 240.239 173.683 240.239 173.828V197.861C240.239 198.007 240.119 198.125 239.971 198.125H227.657H201.882H189.568C189.42 198.125 189.3 198.007 189.3 197.861V173.828C189.3 173.683 189.42 173.564 189.568 173.564H201.816ZM202.085 174.092V178.748H227.455V174.092H202.085ZM202.175 197.579H227.364V192.667H202.175V197.579Z" fill="black"/>
<path fill-rule="evenodd" clip-rule="evenodd" d="M306.356 231.592H264.75L264.855 231.306C266.197 227.665 269.438 225.004 273.346 224.334L277.318 223.654C279.353 223.305 281.248 222.404 282.785 221.056L282.872 220.98H306.356V231.592Z" fill="#EFF2F7"/>
<path fill-rule="evenodd" clip-rule="evenodd" d="M265.148 231.318H306.075V221.253L282.972 221.258C281.394 222.643 279.456 223.564 277.365 223.922L273.394 224.602C269.623 225.249 266.471 227.819 265.148 231.318ZM306.355 231.864H264.75C264.659 231.864 264.573 231.821 264.521 231.748C264.468 231.676 264.455 231.582 264.486 231.499L264.591 231.213C265.964 227.489 269.3 224.75 273.298 224.065L277.269 223.384C279.255 223.044 281.098 222.169 282.598 220.853L282.683 220.777C282.735 220.732 282.801 220.707 282.871 220.707H306.355C306.51 220.707 306.635 220.829 306.635 220.98V231.591C306.635 231.742 306.51 231.864 306.355 231.864Z" fill="black"/>
<path fill-rule="evenodd" clip-rule="evenodd" d="M304.674 226.285C304.674 226.995 304.084 227.571 303.355 227.571C302.627 227.571 302.037 226.995 302.037 226.285C302.037 225.575 302.627 225 303.355 225C304.084 225 304.674 225.575 304.674 226.285Z" fill="#FF5613"/>
<path fill-rule="evenodd" clip-rule="evenodd" d="M303.356 225.272C302.783 225.272 302.317 225.727 302.317 226.285C302.317 226.844 302.783 227.298 303.356 227.298C303.928 227.298 304.394 226.844 304.394 226.285C304.394 225.727 303.928 225.272 303.356 225.272ZM303.356 227.844C302.474 227.844 301.757 227.144 301.757 226.285C301.757 225.426 302.474 224.727 303.356 224.727C304.237 224.727 304.954 225.426 304.954 226.285C304.954 227.144 304.237 227.844 303.356 227.844Z" fill="black"/>
<path fill-rule="evenodd" clip-rule="evenodd" d="M280.181 225.612C280.096 225.612 280.012 225.575 279.957 225.504C278.799 224.012 277.675 223.9 277.664 223.899C277.511 223.886 277.396 223.755 277.408 223.605C277.42 223.456 277.555 223.34 277.706 223.355C277.761 223.359 279.08 223.469 280.403 225.175C280.497 225.295 280.472 225.466 280.349 225.557C280.299 225.594 280.239 225.612 280.181 225.612Z" fill="black"/>
<path fill-rule="evenodd" clip-rule="evenodd" d="M282.676 224.757C282.591 224.757 282.507 224.719 282.452 224.648C281.294 223.156 280.17 223.044 280.159 223.043C280.006 223.03 279.891 222.899 279.903 222.75C279.915 222.6 280.05 222.486 280.201 222.499C280.256 222.503 281.575 222.613 282.899 224.319C282.992 224.439 282.967 224.61 282.844 224.701C282.794 224.739 282.735 224.757 282.676 224.757Z" fill="black"/>
<path fill-rule="evenodd" clip-rule="evenodd" d="M265.148 231.319H306.075V229.458H266.079C265.702 230.056 265.39 230.682 265.148 231.319ZM306.355 231.865H264.75C264.659 231.865 264.573 231.822 264.521 231.749C264.468 231.677 264.455 231.583 264.486 231.5L264.591 231.215C264.867 230.466 265.236 229.734 265.687 229.039C265.739 228.96 265.828 228.912 265.924 228.912H306.355C306.51 228.912 306.635 229.034 306.635 229.185V231.592C306.635 231.743 306.51 231.865 306.355 231.865Z" fill="black"/>
<path fill-rule="evenodd" clip-rule="evenodd" d="M266.448 228.912H276.298C276.249 227.024 275.983 225.455 275.506 224.241L273.395 224.603C270.563 225.088 268.082 226.638 266.448 228.912ZM265.646 229.911C265.599 229.911 265.552 229.9 265.508 229.876C265.374 229.801 265.327 229.635 265.403 229.504C265.403 229.504 265.403 229.504 265.403 229.503C265.428 229.459 265.455 229.415 265.48 229.372C265.548 229.259 265.616 229.148 265.688 229.038C265.691 229.033 265.695 229.028 265.698 229.023C267.406 226.4 270.146 224.605 273.298 224.065L275.633 223.664C275.763 223.642 275.89 223.71 275.94 223.829C276.521 225.19 276.832 226.99 276.863 229.181C276.864 229.254 276.835 229.324 276.782 229.376C276.73 229.428 276.658 229.457 276.583 229.457H266.081C266.041 229.52 266.002 229.584 265.964 229.648C265.938 229.69 265.914 229.731 265.889 229.774C265.838 229.862 265.743 229.911 265.646 229.911Z" fill="black"/>
<path fill-rule="evenodd" clip-rule="evenodd" d="M265.366 230.422C265.324 230.422 265.281 230.412 265.241 230.393C265.103 230.326 265.047 230.162 265.115 230.027V230.027L265.116 230.026C265.143 229.974 265.17 229.922 265.198 229.87C265.244 229.784 265.292 229.697 265.34 229.611C265.415 229.48 265.585 229.432 265.72 229.505C265.855 229.578 265.905 229.744 265.83 229.876L265.83 229.876C265.784 229.957 265.739 230.039 265.695 230.12C265.668 230.171 265.642 230.22 265.616 230.271C265.567 230.367 265.468 230.422 265.366 230.422Z" fill="black"/>
<path fill-rule="evenodd" clip-rule="evenodd" d="M265.1 230.978C265.063 230.978 265.026 230.971 264.989 230.955C264.884 230.911 264.82 230.81 264.82 230.705C264.82 230.669 264.828 230.632 264.843 230.597C264.844 230.596 264.844 230.594 264.845 230.593C264.889 230.493 264.937 230.396 264.984 230.297C264.985 230.296 264.986 230.294 264.987 230.292L264.995 230.275L264.996 230.275C265.069 230.154 265.23 230.094 265.362 230.155C265.502 230.219 265.568 230.369 265.503 230.505L265.466 230.582C265.429 230.659 265.392 230.735 265.357 230.813C265.312 230.916 265.209 230.978 265.1 230.978Z" fill="black"/>
<path fill-rule="evenodd" clip-rule="evenodd" d="M282.872 220.982H306.356V218.277H282.872V220.982Z" fill="#FF5613"/>
<path fill-rule="evenodd" clip-rule="evenodd" d="M283.152 220.708H306.076V218.549H283.152V220.708ZM306.356 221.254H282.872C282.717 221.254 282.592 221.131 282.592 220.981V218.277C282.592 218.126 282.717 218.004 282.872 218.004H306.356C306.511 218.004 306.636 218.126 306.636 218.277V220.981C306.636 221.131 306.511 221.254 306.356 221.254Z" fill="black"/>
<path fill-rule="evenodd" clip-rule="evenodd" d="M305.797 212.27L306.356 218.276H282.872L282.183 212.27H305.797Z" fill="#FBEFE3"/>
<path fill-rule="evenodd" clip-rule="evenodd" d="M283.122 218.003H306.049L305.541 212.542H282.495L283.122 218.003ZM306.356 218.549H282.871C282.729 218.549 282.609 218.445 282.593 218.306L281.904 212.299C281.895 212.222 281.92 212.145 281.974 212.087C282.027 212.029 282.103 211.996 282.182 211.996H305.797C305.941 211.996 306.062 212.104 306.076 212.244L306.634 218.251C306.642 218.328 306.615 218.403 306.562 218.46C306.51 218.517 306.434 218.549 306.356 218.549Z" fill="black"/>
<path fill-rule="evenodd" clip-rule="evenodd" d="M278.937 182.523C277.725 176.813 276.755 171.9 276.705 170.599L278.235 170.163L278.937 182.523ZM318.864 121.984H274.541L276.57 147.127L267.654 149.3C258.606 151.505 252.585 159.835 253.484 168.886C254.634 180.442 256.68 196.052 260.069 207.654L282.163 204.962L283.888 210.094L285.741 212.27H307.812L300.475 163.818L303.202 163.04C317.942 158.834 326.424 143.802 322.176 129.411L318.864 121.984Z" fill="#FCBD21"/>
<path fill-rule="evenodd" clip-rule="evenodd" d="M276.999 170.8C277.089 171.876 277.574 174.561 278.446 178.807L277.976 170.521L276.999 170.8ZM278.938 182.795C278.807 182.795 278.691 182.705 278.663 182.578C277.223 175.788 276.47 171.761 276.426 170.609C276.421 170.484 276.504 170.372 276.627 170.337L278.157 169.901C278.239 169.878 278.328 169.891 278.397 169.939C278.467 169.987 278.51 170.064 278.515 170.147L279.217 182.507C279.226 182.65 279.119 182.774 278.974 182.793C278.962 182.794 278.95 182.795 278.938 182.795ZM285.873 211.996H307.488L300.199 163.857C300.178 163.722 300.263 163.594 300.397 163.555L303.123 162.777C317.674 158.626 326.1 143.692 321.908 129.486L318.654 122.257H274.844L276.849 147.105C276.86 147.238 276.771 147.359 276.638 147.391L267.723 149.564C258.741 151.754 252.87 159.868 253.764 168.859C254.871 179.997 256.897 195.683 260.274 207.354L282.129 204.69C282.263 204.673 282.388 204.752 282.429 204.876L284.138 209.959L285.873 211.996ZM285.741 212.542C285.658 212.542 285.579 212.506 285.526 212.443L283.673 210.268C283.651 210.242 283.634 210.211 283.623 210.178L281.969 205.26L260.105 207.925C259.968 207.94 259.838 207.858 259.801 207.729C256.373 195.996 254.323 180.143 253.207 168.912C252.286 159.65 258.334 151.29 267.587 149.035L276.273 146.918L274.263 122.005C274.256 121.929 274.283 121.854 274.336 121.798C274.389 121.743 274.464 121.711 274.542 121.711H318.865C318.99 121.711 319.099 121.791 319.134 121.908L322.446 129.336C326.723 143.828 318.126 159.066 303.281 163.301L300.788 164.012L308.089 212.229C308.101 212.308 308.077 212.388 308.024 212.448C307.971 212.507 307.894 212.542 307.813 212.542H285.741Z" fill="black"/>
<path fill-rule="evenodd" clip-rule="evenodd" d="M270.754 172.323C270.632 172.323 270.52 172.245 270.485 172.125C270.443 171.98 270.529 171.829 270.678 171.788L300.399 163.556C300.548 163.514 300.702 163.599 300.745 163.743C300.787 163.888 300.701 164.039 300.552 164.08L270.831 172.313C270.805 172.32 270.78 172.323 270.754 172.323Z" fill="black"/>
<path fill-rule="evenodd" clip-rule="evenodd" d="M276.57 147.399C276.443 147.399 276.329 147.316 276.298 147.191C276.262 147.044 276.354 146.897 276.504 146.861L297.197 141.982C297.346 141.947 297.499 142.036 297.535 142.183C297.571 142.329 297.479 142.477 297.328 142.512L276.636 147.392C276.614 147.397 276.592 147.399 276.57 147.399Z" fill="black"/>
<path fill-rule="evenodd" clip-rule="evenodd" d="M283.888 210.093L282.163 204.961L263.71 207.21L266.399 218.276L283.888 210.093Z" fill="#FBEFE3"/>
<path fill-rule="evenodd" clip-rule="evenodd" d="M264.054 207.443L266.591 217.883L283.545 209.95L281.968 205.26L264.054 207.443ZM266.399 218.548C266.357 218.548 266.317 218.54 266.278 218.522C266.202 218.486 266.146 218.419 266.126 218.338L263.437 207.272C263.419 207.197 263.434 207.117 263.48 207.054C263.525 206.99 263.596 206.948 263.675 206.939L282.128 204.69C282.262 204.673 282.387 204.751 282.429 204.875L284.154 210.008C284.197 210.138 284.136 210.28 284.009 210.339L266.52 218.522C266.482 218.54 266.44 218.548 266.399 218.548Z" fill="black"/>
<path fill-rule="evenodd" clip-rule="evenodd" d="M283.888 210.094L291.114 218.58L270.392 231.592H252.276L252.476 230.799C253.369 227.251 256.648 224.767 260.395 224.8L262.364 224.817C262.908 224.822 263.444 224.679 263.911 224.406L264.743 223.92C265.574 223.433 266.108 222.58 266.172 221.637L266.399 218.277L283.888 210.094Z" fill="#EFF2F7"/>
<path fill-rule="evenodd" clip-rule="evenodd" d="M252.634 231.318H270.31L290.697 218.516L283.813 210.431L266.668 218.453L266.452 221.654C266.383 222.687 265.798 223.621 264.888 224.153L264.056 224.64C263.544 224.939 262.97 225.085 262.362 225.089L260.393 225.072C256.766 225.053 253.615 227.422 252.749 230.864L252.634 231.318ZM270.393 231.864H252.277C252.191 231.864 252.11 231.825 252.057 231.76C252.004 231.693 251.985 231.608 252.005 231.526L252.205 230.733C253.134 227.044 256.51 224.492 260.398 224.527L262.367 224.544C262.853 224.534 263.344 224.419 263.768 224.172L264.6 223.685C265.352 223.245 265.836 222.472 265.893 221.619L266.121 218.258C266.127 218.16 266.187 218.073 266.278 218.03L283.767 209.847C283.884 209.793 284.022 209.823 284.104 209.919L291.329 218.405C291.381 218.465 291.403 218.544 291.391 218.621C291.379 218.698 291.333 218.766 291.266 218.809L270.544 231.821C270.499 231.849 270.446 231.864 270.393 231.864Z" fill="black"/>
<path fill-rule="evenodd" clip-rule="evenodd" d="M266.173 221.637L285.741 212.269L283.889 210.094L266.4 218.276L266.173 221.637Z" fill="#FF5613"/>
<path fill-rule="evenodd" clip-rule="evenodd" d="M266.668 218.453L266.484 221.183L285.298 212.177L283.813 210.432L266.668 218.453ZM266.173 221.91C266.118 221.91 266.064 221.894 266.017 221.863C265.934 221.809 265.886 221.716 265.893 221.619L266.12 218.258C266.127 218.16 266.187 218.073 266.278 218.03L283.767 209.847C283.883 209.793 284.022 209.823 284.104 209.919L285.957 212.095C286.011 212.159 286.033 212.244 286.015 212.326C285.997 212.408 285.942 212.477 285.864 212.514L266.296 221.881C266.257 221.9 266.215 221.91 266.173 221.91Z" fill="black"/>
<path fill-rule="evenodd" clip-rule="evenodd" d="M252.615 231.318H270.31L290.697 218.516L289.345 216.929L271.169 228.462C270.144 229.112 268.957 229.456 267.734 229.456H253.253C252.911 230.088 252.708 230.885 252.615 231.318ZM270.392 231.864H252.277C252.195 231.864 252.118 231.829 252.064 231.768C252.011 231.708 251.988 231.628 252.001 231.549C252.01 231.488 252.243 230.052 252.847 229.045C252.897 228.961 252.989 228.91 253.089 228.91H267.734C268.848 228.91 269.93 228.597 270.864 228.005L289.249 216.339C289.368 216.264 289.527 216.287 289.617 216.393L291.33 218.405C291.381 218.465 291.403 218.543 291.391 218.62C291.378 218.698 291.333 218.766 291.266 218.809L270.544 231.82C270.499 231.849 270.446 231.864 270.392 231.864Z" fill="black"/>
<path fill-rule="evenodd" clip-rule="evenodd" d="M253.554 228.911H263.638C264.221 226.527 263.245 225.345 262.932 225.04C262.731 225.075 262.542 225.086 262.361 225.09L260.393 225.073C257.56 225.047 254.944 226.542 253.554 228.911ZM263.857 229.457H253.088C252.992 229.457 252.901 229.409 252.85 229.329C252.799 229.248 252.793 229.149 252.837 229.064C254.249 226.28 257.218 224.489 260.398 224.527L262.366 224.544C262.551 224.545 262.742 224.524 262.957 224.479C263.038 224.462 263.125 224.481 263.191 224.532C263.266 224.59 265.021 225.989 264.127 229.254C264.095 229.374 263.983 229.457 263.857 229.457Z" fill="black"/>
<path fill-rule="evenodd" clip-rule="evenodd" d="M286.871 216.104C286.871 216.814 286.281 217.39 285.553 217.39C284.824 217.39 284.234 216.814 284.234 216.104C284.234 215.394 284.824 214.818 285.553 214.818C286.281 214.818 286.871 215.394 286.871 216.104Z" fill="#FF5613"/>
<path fill-rule="evenodd" clip-rule="evenodd" d="M285.553 215.091C284.98 215.091 284.514 215.545 284.514 216.103C284.514 216.662 284.98 217.116 285.553 217.116C286.125 217.116 286.592 216.662 286.592 216.103C286.592 215.545 286.125 215.091 285.553 215.091ZM285.553 217.662C284.671 217.662 283.954 216.963 283.954 216.103C283.954 215.244 284.671 214.545 285.553 214.545C286.434 214.545 287.152 215.244 287.152 216.103C287.152 216.963 286.434 217.662 285.553 217.662Z" fill="black"/>
<path fill-rule="evenodd" clip-rule="evenodd" d="M269.312 223.707C269.308 223.707 269.304 223.707 269.3 223.707C267.019 223.618 265.76 223.082 265.708 223.059C265.567 222.997 265.504 222.836 265.566 222.699C265.629 222.561 265.794 222.5 265.936 222.56C265.947 222.565 267.159 223.078 269.323 223.162C269.477 223.168 269.597 223.295 269.591 223.445C269.585 223.592 269.461 223.707 269.312 223.707Z" fill="black"/>
<path fill-rule="evenodd" clip-rule="evenodd" d="M267.238 225.905C267.154 225.905 267.07 225.868 267.015 225.797C265.857 224.305 264.732 224.192 264.721 224.192C264.568 224.178 264.453 224.047 264.466 223.898C264.478 223.748 264.612 223.635 264.764 223.647C264.819 223.651 266.137 223.761 267.461 225.467C267.555 225.587 267.53 225.759 267.407 225.85C267.356 225.887 267.297 225.905 267.238 225.905Z" fill="black"/>
<path fill-rule="evenodd" clip-rule="evenodd" d="M260.069 207.927C259.931 207.927 259.81 207.826 259.792 207.688C259.773 207.539 259.882 207.402 260.035 207.384L283.533 204.52C282.769 201.187 276.555 174.009 276.425 170.61C276.42 170.459 276.54 170.332 276.695 170.327C276.853 170.315 276.979 170.439 276.985 170.589C277.118 174.084 284.076 204.388 284.146 204.694C284.164 204.769 284.148 204.847 284.102 204.91C284.057 204.973 283.986 205.015 283.908 205.024L260.105 207.925C260.093 207.927 260.081 207.927 260.069 207.927Z" fill="black"/>
<path fill-rule="evenodd" clip-rule="evenodd" d="M292.019 83.3649C292.019 83.3649 293.997 81.9584 293.645 76.1496C293.645 76.1496 296.774 77.7431 300.188 75.0488L300.975 83.2979C300.975 83.2979 298.608 86.2232 296.127 85.9395C293.645 85.6558 292.019 83.3649 292.019 83.3649Z" fill="#FBEFE3"/>
<path fill-rule="evenodd" clip-rule="evenodd" d="M293.765 75.408C295.752 76.4626 297.826 76.099 300.023 74.2914C300.198 74.148 300.444 74.2719 300.467 74.5143L301.254 83.1104C301.262 83.1978 301.237 83.285 301.186 83.3511C299.553 85.4542 297.854 86.419 296.098 86.2098C294.366 86.0035 292.928 85.0642 291.797 83.4054C291.698 83.2597 291.729 83.0495 291.866 82.9486C293.074 82.0531 293.595 79.6465 293.366 75.7146C293.353 75.4745 293.572 75.3056 293.765 75.408ZM300.614 83.153L299.884 75.322L299.736 75.4307C297.741 76.8518 295.796 77.1857 293.923 76.4169L293.84 76.3818L293.853 76.7066C293.965 80.0525 293.471 82.271 292.333 83.3531L292.299 83.384L292.376 83.4857C293.333 84.7173 294.494 85.4332 295.87 85.6426L296.059 85.668C297.622 85.8508 299.164 84.9908 300.696 83.0525L300.614 83.153Z" fill="black"/>
<path fill-rule="evenodd" clip-rule="evenodd" d="M296.055 76.6324C292.279 76.6324 289.218 73.4669 289.218 69.5623C289.218 65.6577 292.279 62.4922 296.055 62.4922C299.832 62.4922 302.892 65.6577 302.892 69.5623C302.892 73.4669 299.832 76.6324 296.055 76.6324Z" fill="#FBEFE3"/>
<path fill-rule="evenodd" clip-rule="evenodd" d="M296.055 62.7635C292.438 62.7635 289.495 65.8134 289.495 69.563C289.495 73.3125 292.438 76.3624 296.055 76.3624C299.672 76.3624 302.615 73.3125 302.615 69.563C302.615 65.8134 299.672 62.7635 296.055 62.7635ZM296.055 76.9033C292.132 76.9033 288.94 73.6105 288.94 69.563C288.94 65.5154 292.132 62.2227 296.055 62.2227C299.978 62.2227 303.17 65.5154 303.17 69.563C303.17 73.6105 299.978 76.9033 296.055 76.9033Z" fill="black"/>
<path fill-rule="evenodd" clip-rule="evenodd" d="M294.139 71.8315C294.128 71.8315 294.117 71.831 294.105 71.8299L292.962 71.6945C292.882 71.6847 292.81 71.6421 292.764 71.5767C292.719 71.5117 292.704 71.4304 292.725 71.354L293.072 70.0703C293.111 69.9251 293.265 69.8383 293.414 69.876C293.562 69.9147 293.652 70.0637 293.613 70.2095L293.348 71.1902L294.173 71.2874C294.326 71.3059 294.435 71.4418 294.417 71.5914C294.399 71.73 294.279 71.8315 294.139 71.8315Z" fill="black"/>
<path fill-rule="evenodd" clip-rule="evenodd" d="M296.055 69.408C296.055 69.7371 295.883 70.0034 295.671 70.0034C295.459 70.0034 295.287 69.7371 295.287 69.408C295.287 69.0788 295.459 68.8125 295.671 68.8125C295.883 68.8125 296.055 69.0788 296.055 69.408Z" fill="black"/>
<path fill-rule="evenodd" clip-rule="evenodd" d="M292.326 69.408C292.326 69.7371 292.154 70.0034 291.942 70.0034C291.73 70.0034 291.558 69.7371 291.558 69.408C291.558 69.0788 291.73 68.8125 291.942 68.8125C292.154 68.8125 292.326 69.0788 292.326 69.408Z" fill="black"/>
<path fill-rule="evenodd" clip-rule="evenodd" d="M296.629 68.082C296.564 68.082 296.5 68.0602 296.446 68.016C295.914 67.5695 295.298 67.5755 295.292 67.5712C295.133 67.5668 295.011 67.4538 295.008 67.3037C295.006 67.1537 295.127 67.0292 295.28 67.0254C295.318 67.0265 296.109 67.0145 296.811 67.6023C296.928 67.7005 296.942 67.8725 296.841 67.9871C296.786 68.0498 296.708 68.082 296.629 68.082Z" fill="black"/>
<path fill-rule="evenodd" clip-rule="evenodd" d="M290.985 68.0821C290.906 68.0821 290.828 68.0499 290.773 67.9871C290.672 67.8725 290.685 67.7001 290.802 67.6024C291.504 67.0146 292.3 67.0249 292.333 67.0255C292.488 67.0293 292.61 67.1543 292.607 67.3049C292.603 67.4534 292.478 67.5713 292.327 67.5713C292.325 67.5713 292.323 67.5707 292.32 67.5713C292.291 67.5713 291.691 67.5778 291.167 68.0161C291.114 68.0603 291.05 68.0821 290.985 68.0821Z" fill="black"/>
<path fill-rule="evenodd" clip-rule="evenodd" d="M294.15 74.8447C293.887 74.8447 293.596 74.795 293.276 74.6951C293.129 74.6493 293.048 74.4954 293.096 74.3518C293.143 74.2088 293.299 74.1297 293.448 74.1755C294.027 74.3567 294.461 74.3382 294.738 74.1209C294.997 73.9174 295.097 73.5692 295.133 73.2815C294.197 73.7274 293.255 73.4103 292.84 73.138C292.711 73.0539 292.677 72.8842 292.763 72.7592C292.849 72.6348 293.023 72.6009 293.151 72.6844C293.196 72.7134 294.233 73.3645 295.249 72.5644C295.329 72.5016 295.438 72.4863 295.533 72.5251C295.628 72.5638 295.693 72.65 295.704 72.7499C295.709 72.799 295.82 73.9692 295.092 74.5439C294.838 74.7442 294.523 74.8447 294.15 74.8447Z" fill="black"/>
<path fill-rule="evenodd" clip-rule="evenodd" d="M304.076 72.5966C303.239 74.109 301.927 75.1798 300.205 75.1798L300.061 72.0536C300.103 72.0579 300.144 72.0661 300.187 72.0661C300.906 72.0661 301.49 71.5007 301.495 70.801C301.497 70.5325 301.37 70.2732 301.192 70.0685C300.709 69.5167 300.307 69.4742 299.945 69.5408L299.593 66.534C299.516 65.8791 298.948 65.3851 298.272 65.3851H291.706C290.222 65.3851 289.07 64.1265 289.236 62.6884C289.58 59.6822 291.232 55.7613 298.123 59.9605C301.584 62.0689 303.754 64.2755 304.511 66.5187C305.188 68.525 305.103 70.7382 304.076 72.5966Z" fill="#4B69FD"/>
<path fill-rule="evenodd" clip-rule="evenodd" d="M300.354 72.3303L300.473 74.8972C301.828 74.7978 303.013 73.9442 303.83 72.4668C304.774 70.7585 304.926 68.6217 304.245 66.6039C303.516 64.4393 301.406 62.2818 297.975 60.1915C295.228 58.517 293.106 58.0127 291.671 58.6895C290.19 59.3886 289.68 61.2661 289.514 62.7185C289.444 63.3276 289.644 63.9389 290.063 64.3951C290.481 64.8503 291.08 65.1118 291.707 65.1118H298.272C299.091 65.1118 299.778 65.7099 299.871 66.503L300.192 69.2439C300.638 69.245 301.021 69.4519 301.405 69.8912C301.646 70.1679 301.777 70.491 301.775 70.8027C301.769 71.5952 301.146 72.249 300.354 72.3303ZM300.206 75.4522C300.056 75.4522 299.933 75.3376 299.926 75.1919L299.782 72.0656C299.778 71.9865 299.81 71.9101 299.869 71.8555C299.927 71.8009 300.007 71.7742 300.089 71.7818L300.188 71.7933C300.751 71.7933 301.212 71.3468 301.215 70.7989C301.217 70.6182 301.133 70.4217 300.979 70.2454C300.55 69.7548 300.248 69.763 299.997 69.8083C299.921 69.8235 299.842 69.8055 299.779 69.7602C299.716 69.7149 299.676 69.6467 299.667 69.5714L299.316 66.5646C299.255 66.0478 298.806 65.6575 298.272 65.6575H291.707C290.921 65.6575 290.169 65.3301 289.645 64.7586C289.121 64.1872 288.87 63.4209 288.957 62.6579C289.218 60.3792 290.073 58.8368 291.427 58.1983C293.048 57.4342 295.351 57.9488 298.272 59.7286C301.816 61.8889 304.005 64.1446 304.777 66.4331C305.506 68.5928 305.34 70.8862 304.322 72.726C303.35 74.484 301.888 75.4522 300.206 75.4522Z" fill="black"/>
<path fill-rule="evenodd" clip-rule="evenodd" d="M326.513 95.0368C326.823 95.2459 327.139 95.4391 327.46 95.6061C328.837 96.3189 329.229 100.267 329.229 100.267L329.546 108.208C329.546 108.208 329.289 101.822 326.513 95.0368ZM342.561 82.9744C340.367 81.4625 338.083 86.6797 338.083 86.6797C338.083 86.6797 341.056 79.4568 338.731 78.0339C336.252 76.5166 334.899 79.2461 334.899 79.2461C334.899 79.2461 335.55 75.4687 332.48 75.0218C329.714 74.619 329.113 78.5093 329.113 78.5093C329.113 78.5093 328.631 75.6657 326.263 76.1619C323.895 76.6569 323.403 79.9185 324.946 83.5262C326.489 87.1338 326.614 87.8057 326.68 88.9398C326.68 88.9398 324.84 83.4901 322.355 83.7281C320.543 83.9011 319.504 84.9299 319.705 86.4172C316.263 84.2046 312.926 83.6435 312.926 83.6435C311.63 94.5358 314.815 101.927 314.815 101.927C314.815 101.927 319.109 123.983 332.185 124.448C344.479 124.885 338.887 97.1005 338.91 96.9629C340.095 89.9736 345.066 84.6991 342.561 82.9744ZM261.87 107.806L262.622 99.8932C262.622 99.8932 263.23 95.9707 264.644 95.331C264.975 95.1809 265.3 95.0046 265.621 94.812C262.476 101.442 261.87 107.806 261.87 107.806ZM272.892 86.5597C273.175 85.0855 272.193 84.0037 270.394 83.7363C267.926 83.369 265.789 88.715 265.789 88.715C265.918 87.5863 266.079 86.9215 267.818 83.3995C269.556 79.8781 269.245 76.5947 266.907 75.9768C264.57 75.3579 263.933 78.1725 263.933 78.1725C263.933 78.1725 263.545 74.256 260.762 74.5142C257.672 74.8002 258.115 78.6059 258.115 78.6059C258.115 78.6059 256.914 75.8098 254.354 77.1956C251.954 78.4945 254.526 85.8627 254.526 85.8627C254.526 85.8627 252.532 80.5342 250.258 81.9292C247.663 83.5202 252.337 89.0468 253.136 96.088C253.152 96.2266 246.042 123.68 258.342 123.885C271.425 124.103 276.924 102.303 276.924 102.303C276.924 102.303 280.51 95.0881 279.814 84.144C279.814 84.144 276.45 84.5304 272.892 86.5597Z" fill="#FBEFE3"/>
<path fill-rule="evenodd" clip-rule="evenodd" d="M330.727 87.7237C330.597 87.805 330.56 87.9742 330.644 88.1008C330.727 88.2274 330.901 88.264 331.03 88.1821C332.91 87 335.407 88.949 335.431 88.9681C335.483 89.009 335.546 89.0297 335.608 89.0297C335.689 89.0297 335.77 88.9954 335.825 88.9288C335.923 88.812 335.905 88.6406 335.785 88.5451C335.671 88.4539 332.949 86.3243 330.727 87.7237ZM327.081 95.7135C327.165 95.7604 327.247 95.8046 327.329 95.8472C328.348 96.375 328.846 99.236 328.95 100.278L329.038 102.491C328.628 100.492 328.01 98.1379 327.081 95.7135ZM338.634 96.918C338.625 96.9715 338.625 96.9715 338.683 97.3072C341.782 115.134 338.061 120.927 336.846 122.279C335.653 123.604 334.089 124.242 332.195 124.176C319.493 123.724 315.133 102.095 315.09 101.877C315.086 101.858 315.081 101.84 315.073 101.822C315.041 101.749 311.988 94.5078 313.17 83.9714C314.037 84.1608 316.71 84.8474 319.444 86.5781C319.545 87.1522 319.809 87.7663 320.231 88.3928C321.916 90.8985 323.925 93.6035 326.286 95.2195C328.601 100.916 329.136 106.372 329.242 107.834C329.306 109.597 329.377 111.61 329.41 112.753C329.414 112.901 329.539 113.019 329.69 113.019H329.697C329.853 113.014 329.974 112.889 329.97 112.739C329.94 111.685 329.877 109.898 329.817 108.246C329.82 108.229 329.826 108.214 329.825 108.197L329.679 104.533C329.676 104.441 329.673 104.387 329.673 104.382L329.673 104.381L329.508 100.241C329.466 99.8221 329.059 96.125 327.592 95.3653C327.3 95.2141 326.999 95.0334 326.672 94.8124C326.67 94.8113 326.668 94.8118 326.666 94.8102C324.358 93.2536 322.369 90.5765 320.698 88.0932C320.287 87.4819 320.05 86.8957 319.982 86.3641C319.965 86.232 319.959 86.1038 319.963 85.9804C319.963 85.9712 319.963 85.9613 319.964 85.9521C319.983 85.5585 320.111 85.212 320.347 84.9172C320.354 84.9085 320.361 84.9009 320.368 84.8921C320.563 84.6574 320.823 84.467 321.137 84.3201C321.163 84.3087 321.187 84.2961 321.212 84.2852C321.362 84.2203 321.524 84.1651 321.697 84.1204C321.732 84.1117 321.768 84.104 321.804 84.0964C321.987 84.0538 322.177 84.0194 322.382 83.9998C324.244 83.8289 325.921 87.567 326.414 89.0254C326.415 89.0292 326.418 89.0314 326.419 89.0352C326.407 89.1847 326.521 89.3163 326.674 89.3288C326.744 89.3354 328.38 89.4953 329.475 91.4208C329.526 91.5109 329.622 91.5617 329.72 91.5617C329.766 91.5617 329.813 91.5507 329.855 91.5278C329.991 91.4547 330.04 91.2882 329.965 91.1567C328.957 89.384 327.513 88.9321 326.952 88.8207C326.878 87.6806 326.684 86.8821 325.204 83.4212C324.22 81.1186 324.061 78.9436 324.781 77.6037C325.123 76.9662 325.641 76.5705 326.321 76.4286C326.862 76.3156 327.334 76.3893 327.725 76.648C328.599 77.2271 328.835 78.5413 328.837 78.5544C328.84 78.573 328.849 78.5894 328.856 78.6068C328.856 78.6183 328.851 78.6287 328.851 78.6401C328.865 78.8994 329.185 84.9936 329.344 86.2795C329.362 86.4176 329.482 86.5197 329.622 86.5197C329.633 86.5197 329.644 86.5191 329.656 86.518C329.809 86.4995 329.919 86.3636 329.9 86.214C329.743 84.9473 329.414 78.6756 329.41 78.6128C329.409 78.5872 329.399 78.5643 329.391 78.5413C329.424 78.3378 330.005 74.9379 332.439 75.2916C333.144 75.3943 333.691 75.7 334.064 76.1999C334.925 77.3537 334.626 79.1832 334.623 79.2012C334.615 79.2465 334.623 79.2902 334.637 79.3322C334.547 79.7672 333.384 85.3801 333.292 86.2348C333.277 86.3843 333.388 86.5186 333.542 86.5344C333.552 86.5355 333.562 86.536 333.571 86.536C333.713 86.536 333.834 86.4313 333.849 86.291C333.939 85.4467 335.179 79.4779 335.191 79.4173C335.2 79.3769 335.197 79.3371 335.187 79.2994C335.326 79.0544 335.882 78.1664 336.784 77.9148C337.344 77.7592 337.948 77.8766 338.582 78.2652C340.326 79.3322 338.626 84.628 337.823 86.5786C337.8 86.6354 337.802 86.6943 337.817 86.7489L337.19 88.1532C337.128 88.2913 337.192 88.4518 337.334 88.5123C337.371 88.5276 337.409 88.5347 337.446 88.5347C337.554 88.5347 337.657 88.4736 337.703 88.371L338.358 86.9061C338.384 86.8471 338.383 86.7855 338.367 86.7276C338.567 86.2915 339.93 83.4261 341.409 83.0179C341.76 82.9224 342.084 82.9802 342.4 83.1975C343.62 84.0374 342.707 86.0377 341.445 88.8065C340.427 91.041 339.159 93.8212 338.634 96.918ZM342.723 82.7521C342.267 82.4372 341.773 82.3509 341.256 82.4928C340.516 82.6975 339.828 83.3688 339.266 84.11C339.927 81.8112 340.437 78.7558 338.879 77.8029C338.104 77.3281 337.346 77.19 336.626 77.3914C336.029 77.5589 335.564 77.9344 335.236 78.2936C335.221 77.5857 335.078 76.6322 334.518 75.8812C334.054 75.2572 333.382 74.8773 332.522 74.7518C330.603 74.4712 329.539 76.0924 329.076 77.4896C328.872 77.0399 328.546 76.5334 328.042 76.1983C327.519 75.8517 326.901 75.7502 326.204 75.8948C325.365 76.07 324.702 76.5738 324.285 77.3504C323.489 78.8328 323.64 81.1808 324.688 83.6314C325.149 84.7115 325.482 85.5258 325.724 86.1649C324.909 84.7459 323.733 83.3219 322.328 83.4567C322.088 83.4796 321.864 83.5211 321.649 83.5724C321.607 83.5822 321.563 83.5915 321.522 83.6024C321.316 83.6576 321.122 83.7247 320.943 83.8049C320.916 83.8164 320.892 83.83 320.866 83.8426C320.488 84.0227 320.175 84.2596 319.936 84.5472C319.93 84.5537 319.922 84.5587 319.917 84.5652C319.91 84.5739 319.905 84.5838 319.898 84.5925C319.837 84.6694 319.782 84.7497 319.732 84.8337C319.721 84.8517 319.709 84.8703 319.699 84.8889C319.677 84.9271 319.651 84.9625 319.632 85.0018C319.608 85.051 319.593 85.1033 319.573 85.1541C319.564 85.1765 319.555 85.1989 319.547 85.2218C319.512 85.3162 319.483 85.4134 319.461 85.5127C319.458 85.5312 319.454 85.5504 319.45 85.5689C319.43 85.6721 319.415 85.7769 319.408 85.8844C319.408 85.892 319.406 85.8986 319.405 85.9062C316.125 83.9217 313.106 83.3967 312.974 83.3743C312.898 83.3607 312.82 83.3803 312.759 83.4251C312.697 83.4698 312.657 83.5375 312.648 83.6117C311.398 94.1192 314.336 101.498 314.546 102.006C314.633 102.436 315.749 107.792 318.344 113.131C321.935 120.519 326.717 124.527 332.174 124.721C332.273 124.724 332.371 124.726 332.468 124.726C334.407 124.726 336.021 124.025 337.267 122.638C342.098 117.264 340.253 103.069 339.235 97.216C339.215 97.0965 339.2 97.0135 339.193 96.9688C339.71 93.956 340.955 91.2249 341.957 89.0287C343.327 86.0219 344.317 83.8497 342.723 82.7521ZM265.017 95.4575C263.956 97.83 263.209 100.149 262.691 102.124L262.9 99.9264C263.065 98.8692 263.717 96.0513 264.761 95.5787C264.846 95.5404 264.93 95.5001 265.017 95.4575ZM276.672 102.185C276.663 102.202 276.657 102.22 276.652 102.238C276.598 102.454 271.081 123.835 258.347 123.612C256.452 123.581 254.924 122.861 253.807 121.475C249.303 115.887 252.314 100.902 253.344 96.4432C253.42 96.1119 253.42 96.1119 253.414 96.0584C253.06 92.9381 251.947 90.0957 251.052 87.8115C249.944 84.9805 249.143 82.9349 250.407 82.1605C250.615 82.0327 250.822 81.9694 251.034 81.9694C251.157 81.9694 251.28 81.9907 251.406 82.0328C252.861 82.5174 254.065 85.4516 254.24 85.8964C254.221 85.9526 254.217 86.0148 254.24 86.0749L254.814 87.5714C254.856 87.6811 254.962 87.7488 255.076 87.7488C255.108 87.7488 255.141 87.7433 255.174 87.7319C255.319 87.6789 255.392 87.5217 255.338 87.3809L254.788 85.946C254.806 85.892 254.811 85.8331 254.791 85.7752C254.097 83.7858 252.69 78.4087 254.49 77.4339C255.144 77.0803 255.755 76.9935 256.305 77.1785C257.191 77.4765 257.698 78.3918 257.824 78.644C257.812 78.6816 257.807 78.7209 257.813 78.7618C257.822 78.8224 258.732 84.8474 258.776 85.6961C258.784 85.8418 258.907 85.9553 259.055 85.9553C259.059 85.9553 259.065 85.9553 259.069 85.9548C259.224 85.9471 259.343 85.8194 259.335 85.6688C259.291 84.8108 258.438 79.1499 258.37 78.7056C258.387 78.6652 258.398 78.6216 258.392 78.5757C258.39 78.5572 258.192 76.7151 259.115 75.6077C259.515 75.1278 260.078 74.8517 260.788 74.7856C263.229 74.5613 263.63 77.9743 263.652 78.1882C263.643 78.2111 263.633 78.2341 263.63 78.2603C263.623 78.323 262.949 84.5679 262.723 85.8249C262.697 85.9733 262.798 86.1147 262.95 86.1409C262.967 86.1436 262.983 86.1447 262.999 86.1447C263.133 86.1447 263.251 86.0519 263.275 85.9193C263.504 84.6433 264.159 78.5746 264.186 78.317C264.188 78.305 264.184 78.2941 264.183 78.2821C264.191 78.2652 264.202 78.2499 264.206 78.2313C264.209 78.2182 264.511 76.9231 265.419 76.3871C265.824 76.1481 266.301 76.0995 266.834 76.2398C267.505 76.4177 268.001 76.8396 268.308 77.4934C268.953 78.8694 268.675 81.0334 267.566 83.2815C265.898 86.6594 265.66 87.4464 265.524 88.5811C264.958 88.6635 263.491 89.0396 262.387 90.7572C262.305 90.8849 262.345 91.0535 262.476 91.1332C262.522 91.1616 262.573 91.1747 262.624 91.1747C262.717 91.1747 262.808 91.1294 262.861 91.047C264.058 89.1848 265.697 89.1062 265.773 89.104C265.927 89.0996 266.049 88.9746 266.045 88.824V88.8229C266.046 88.8196 266.049 88.8174 266.05 88.8142C266.623 87.3842 268.508 83.7334 270.352 84.0058C270.556 84.0363 270.744 84.0811 270.925 84.1324C270.959 84.1422 270.995 84.152 271.029 84.163C271.2 84.2164 271.359 84.2792 271.505 84.3518C271.53 84.3644 271.553 84.378 271.577 84.3911C271.883 84.5543 272.133 84.7579 272.314 85.0024C272.321 85.0111 272.327 85.0198 272.334 85.0286C272.553 85.3353 272.663 85.6884 272.66 86.083C272.66 86.0912 272.659 86.0994 272.659 86.1081C272.657 86.2331 272.644 86.3614 272.619 86.4946C272.521 87.0212 272.253 87.5932 271.809 88.1816C270.004 90.5743 267.87 93.1444 265.48 94.5782C265.478 94.5793 265.476 94.5788 265.474 94.5799C265.305 94.6808 265.144 94.7731 264.987 94.856C264.834 94.9363 264.681 95.0132 264.526 95.0831C263.019 95.7653 262.409 99.4363 262.345 99.8527C262.344 99.8576 262.343 99.8631 262.343 99.868L261.952 103.978L261.952 103.981L261.591 107.78L261.591 107.78V107.781C261.589 107.798 261.595 107.814 261.596 107.83C261.446 109.477 261.285 111.258 261.197 112.308C261.185 112.458 261.3 112.59 261.454 112.602C261.461 112.602 261.469 112.603 261.477 112.603C261.621 112.603 261.744 112.495 261.755 112.352C261.851 111.212 262.032 109.21 262.193 107.454C262.377 106.008 263.208 100.585 265.838 95.0061C268.284 93.5156 270.439 90.9193 272.26 88.5052C272.715 87.9016 273.012 87.3018 273.145 86.7342C275.97 85.1492 278.676 84.6023 279.552 84.4588C280.153 95.0323 276.708 102.113 276.672 102.185ZM279.993 83.9348C279.934 83.8862 279.857 83.865 279.781 83.8731C279.647 83.8884 276.605 84.2546 273.22 86.065C273.22 86.0579 273.218 86.0508 273.218 86.0437C273.217 85.9357 273.208 85.8298 273.194 85.725C273.191 85.7064 273.189 85.6884 273.186 85.6699C273.169 85.5689 273.146 85.4701 273.117 85.373C273.109 85.3506 273.102 85.3288 273.094 85.3064C273.077 85.2545 273.065 85.201 273.044 85.1503C273.026 85.1094 273.002 85.0722 272.982 85.0324C272.973 85.0144 272.964 84.9969 272.954 84.9789C272.907 84.891 272.856 84.8064 272.798 84.7246C272.792 84.7164 272.789 84.7077 272.782 84.6995C272.773 84.6864 272.761 84.6744 272.751 84.6613C272.703 84.599 272.654 84.5379 272.6 84.4795C272.581 84.4588 272.56 84.4397 272.539 84.4195C272.428 84.307 272.304 84.2023 272.168 84.1073C272.149 84.0936 272.131 84.0784 272.112 84.0653C272.066 84.0352 272.015 84.008 271.967 83.9796C271.907 83.9446 271.848 83.9097 271.784 83.8775C271.737 83.8535 271.687 83.8317 271.637 83.8093C271.566 83.7771 271.493 83.7465 271.418 83.7181C271.369 83.6996 271.32 83.6816 271.269 83.6647C271.183 83.6363 271.094 83.6106 271.003 83.5866C270.958 83.5746 270.914 83.5615 270.867 83.5506C270.73 83.5178 270.589 83.49 270.442 83.4676C270.44 83.4676 270.438 83.4671 270.436 83.4665C269.043 83.2548 267.788 84.6198 266.895 85.9952C267.172 85.3691 267.55 84.5734 268.07 83.5178C269.251 81.1256 269.53 78.7886 268.817 77.2669C268.443 76.4695 267.808 75.9325 266.98 75.7136C266.294 75.5319 265.67 75.6012 265.129 75.9205C264.607 76.2283 264.254 76.7173 264.025 77.1556C263.64 75.7365 262.675 74.0575 260.735 74.2426C259.869 74.3228 259.177 74.6666 258.679 75.2654C258.079 75.9865 257.884 76.9313 257.83 77.6375C257.522 77.2615 257.079 76.8625 256.491 76.6638C255.784 76.4242 255.019 76.523 254.218 76.9569C252.611 77.8269 252.953 80.9046 253.486 83.2346C252.965 82.4656 252.316 81.7593 251.588 81.5159C251.079 81.3461 250.582 81.4078 250.109 81.6982C248.456 82.7112 249.326 84.932 250.53 88.0058C251.409 90.2512 252.502 93.044 252.853 96.0797C252.844 96.1233 252.825 96.2058 252.798 96.3231C251.46 102.115 248.837 116.193 253.367 121.812C254.594 123.334 256.266 124.123 258.337 124.158C258.402 124.159 258.467 124.16 258.532 124.16C263.916 124.159 268.841 120.411 272.785 113.306C275.67 108.11 277.078 102.821 277.189 102.396C277.426 101.9 280.765 94.6852 280.093 84.1275C280.089 84.0522 280.052 83.9828 279.993 83.9348ZM261.877 87.6702C261.968 87.5485 261.94 87.3776 261.815 87.2892C259.672 85.7774 256.838 87.7602 256.719 87.8454C256.594 87.9344 256.567 88.1052 256.657 88.2269C256.712 88.3 256.797 88.3388 256.884 88.3388C256.941 88.3388 256.999 88.3219 257.049 88.2864C257.075 88.2673 259.67 86.4487 261.486 87.7313C261.612 87.8192 261.787 87.7919 261.877 87.6702Z" fill="black"/>
<path fill-rule="evenodd" clip-rule="evenodd" d="M320.045 118.141C318.596 113.539 317.859 108.751 317.859 103.937V101.352C317.859 101.352 318.223 85.2555 315.929 84.3626C315.184 84.0727 314.424 83.8173 313.657 83.5804C313.638 83.5734 313.62 83.5597 313.601 83.5537C313.483 83.5177 313.363 83.4866 313.244 83.4516C313.086 83.4053 312.928 83.36 312.77 83.3157C312.452 83.2273 301.118 82.0801 301.118 82.0801C301.117 82.0817 301.116 82.0828 301.115 82.0844L301.093 82.0801C300.828 82.6231 300.417 83.1067 299.9 83.4997C299.036 84.1546 297.874 84.5563 296.594 84.559C295.313 84.5563 294.151 84.1546 293.288 83.4997C292.769 83.1067 292.358 82.6231 292.094 82.0801L292.071 82.0844C292.071 82.0828 292.069 82.0817 292.069 82.0801C292.069 82.0801 280.735 83.2273 280.417 83.3157C280.259 83.36 278.003 84.0727 277.257 84.3626C274.964 85.2555 275.328 101.352 275.328 101.352V103.937C275.328 108.751 274.591 113.539 273.142 118.141L271.901 122.081H321.285L320.045 118.141Z" fill="#FF5613"/>
<path fill-rule="evenodd" clip-rule="evenodd" d="M279.632 83.5544C279.612 83.5604 279.594 83.574 279.575 83.5811C278.808 83.8174 278.048 84.0734 277.303 84.3632C275.01 85.2561 275.374 101.353 275.374 101.353C276.868 92.6434 280.463 83.3164 280.463 83.3164C280.304 83.3606 280.146 83.4059 279.988 83.4523C279.87 83.4872 279.75 83.5183 279.632 83.5544ZM315.928 84.3632C315.183 84.0734 312.927 83.3606 312.769 83.3164C312.769 83.3164 316.363 92.6434 317.858 101.353C317.858 101.353 318.222 85.2561 315.928 84.3632Z" fill="#409B81"/>
<path fill-rule="evenodd" clip-rule="evenodd" d="M272.28 121.808L273.409 118.221C274.868 113.588 275.607 108.781 275.607 103.936V101.5C275.628 101.469 275.644 101.435 275.65 101.397C277.025 93.3863 280.222 84.7443 280.672 83.5528C281.82 83.4038 287.789 82.7876 291.93 82.3679C292.209 82.8739 292.616 83.3362 293.115 83.7144C294.062 84.4321 295.297 84.8289 296.594 84.8316C297.889 84.8289 299.124 84.4321 300.071 83.7144C300.57 83.3362 300.977 82.8739 301.256 82.3679C305.464 82.7947 311.562 83.424 312.563 83.5578C313.018 84.7667 316.204 93.3814 317.578 101.376V103.936C317.578 108.781 318.318 113.588 319.777 118.221L320.906 121.808H272.28ZM280.01 83.7297C279.337 85.551 277.043 91.9722 275.627 98.5811C275.637 92.5911 276.083 85.1313 277.408 84.6155C277.742 84.4856 278.093 84.3573 278.467 84.2285C278.791 84.1205 279.13 84.0097 279.44 83.9098C279.518 83.8852 279.593 83.8612 279.673 83.8361C279.677 83.8345 279.68 83.8328 279.684 83.8317C279.777 83.8017 279.865 83.7739 279.946 83.7482L280.01 83.7297ZM315.825 84.6155C315.87 84.6335 315.914 84.6602 315.957 84.6941C315.971 84.7045 315.984 84.7192 315.998 84.7317C316.027 84.7579 316.056 84.7852 316.083 84.8185C316.099 84.8365 316.114 84.8578 316.129 84.878C316.155 84.9118 316.18 84.9479 316.205 84.9883C316.22 85.0128 316.235 85.0379 316.25 85.0647C316.274 85.1078 316.298 85.1547 316.322 85.2033C316.336 85.2322 316.35 85.2606 316.363 85.2912C316.388 85.3468 316.412 85.4069 316.435 85.4686C316.447 85.498 316.459 85.5259 316.47 85.5564C316.502 85.6448 316.534 85.7382 316.564 85.837C316.566 85.8441 316.569 85.8501 316.571 85.8572C316.604 85.9663 316.636 86.0815 316.668 86.2021C316.675 86.2316 316.683 86.2638 316.69 86.2943C316.714 86.386 316.736 86.4794 316.758 86.577C316.768 86.6207 316.777 86.666 316.787 86.7108C316.806 86.8014 316.826 86.8931 316.844 86.988C316.854 87.0371 316.864 87.0868 316.873 87.1376C316.891 87.2342 316.909 87.3335 316.926 87.435C316.935 87.4847 316.943 87.5338 316.951 87.584C316.97 87.6981 316.988 87.8149 317.006 87.9339C317.012 87.9743 317.019 88.0147 317.025 88.0561C317.048 88.215 317.07 88.3771 317.092 88.5435C317.092 88.5468 317.093 88.549 317.093 88.5523C317.116 88.7291 317.138 88.9103 317.159 89.0948C317.161 89.1171 317.164 89.1406 317.166 89.163C317.184 89.3202 317.202 89.479 317.218 89.6411C317.223 89.6886 317.227 89.7372 317.232 89.7852C317.246 89.926 317.26 90.069 317.273 90.2136C317.277 90.266 317.282 90.3195 317.287 90.3725C317.3 90.5176 317.312 90.6645 317.324 90.8124C317.328 90.8631 317.332 90.9144 317.336 90.9652C317.348 91.1256 317.361 91.2877 317.372 91.4509C317.375 91.4897 317.377 91.5284 317.38 91.5677C317.423 92.1916 317.459 92.835 317.489 93.4878C317.491 93.514 317.492 93.5408 317.493 93.5664C317.502 93.7531 317.51 93.9397 317.517 94.1275C317.519 94.1728 317.52 94.2186 317.522 94.2639C317.529 94.4397 317.535 94.616 317.541 94.7917C317.543 94.8343 317.544 94.8768 317.545 94.9189C317.552 95.1077 317.557 95.2955 317.562 95.4843C317.563 95.5127 317.563 95.5416 317.564 95.57C317.582 96.2353 317.594 96.8995 317.6 97.5523C317.6 97.5785 317.6 97.6047 317.6 97.6309C317.602 97.8154 317.604 97.9987 317.605 98.181C317.605 98.228 317.605 98.2744 317.605 98.3213C317.605 98.4075 317.605 98.4932 317.606 98.5789C316.192 91.9891 313.909 85.587 313.228 83.7455C313.977 83.9829 315.296 84.4097 315.825 84.6155ZM321.552 122.001L320.312 118.061C318.869 113.479 318.138 108.727 318.138 103.936V101.358C318.18 99.5373 318.276 92.8367 317.629 88.3301C317.178 85.0161 316.534 84.3044 316.033 84.109H316.032C315.925 84.0675 315.785 84.0162 315.626 83.9605C315.05 83.7466 314.441 83.5359 313.766 83.3291C313.75 83.3198 313.703 83.2985 313.684 83.293C313.614 83.2718 313.542 83.2516 313.471 83.2319L313.324 83.1904C313.166 83.1435 313.006 83.0976 312.846 83.0529C312.521 82.9628 303.043 82.0001 301.146 81.808C301.132 81.8069 301.119 81.8063 301.106 81.8069C300.986 81.8025 300.888 81.8625 300.839 81.963C300.598 82.458 300.214 82.9148 299.727 83.2838C298.878 83.9272 297.765 84.2836 296.594 84.2858C295.421 84.2836 294.308 83.9272 293.459 83.2838C292.972 82.9148 292.588 82.458 292.347 81.963C292.312 81.8915 292.239 81.8418 292.158 81.8211C292.121 81.809 292.082 81.8047 292.039 81.808C290.143 82.0001 280.665 82.9628 280.339 83.0534C280.289 83.0676 280.082 83.1315 279.799 83.221L279.759 83.2325C279.689 83.2521 279.618 83.2718 279.55 83.293C279.514 83.3034 279.49 83.3165 279.493 83.3187C279.431 83.3383 279.368 83.3591 279.302 83.3798C278.939 83.4939 278.591 83.6069 278.263 83.7204C277.814 83.8699 277.399 84.0129 277.153 84.109C274.799 85.0254 274.986 98.6384 275.047 101.352V103.936C275.047 108.727 274.316 113.479 272.874 118.061L271.633 122.001C271.607 122.084 271.623 122.173 271.676 122.243C271.729 122.313 271.812 122.354 271.901 122.354H321.285C321.374 122.354 321.457 122.313 321.51 122.243C321.563 122.173 321.579 122.084 321.552 122.001Z" fill="black"/>
</svg>
