<svg width="332" height="332" viewBox="0 0 332 332" fill="none" xmlns="http://www.w3.org/2000/svg">
<path d="M203.935 163.527C201.394 158.768 196.859 155.134 192.406 152.125C189.68 156.342 186.122 159.958 181.949 162.752C164.875 175.947 142.619 177.098 134.042 157.537C133.092 155.576 132.286 153.549 131.629 151.472C130.529 149.31 129.597 142.899 129.268 139.06C129.334 137.951 128.262 137.351 127.212 137.007C126.702 136.925 126.163 137.039 125.639 136.956C122.717 136.746 123.306 132.494 126.196 132.058C125.214 131.931 124.624 132.21 123.737 131.609C123.431 131.337 123.241 130.958 123.207 130.55C123.173 130.143 123.297 129.738 123.554 129.419C116.426 123.999 109.426 118.544 105.5 113.145C105.453 113.114 105.413 113.073 105.385 113.025C105.356 112.976 105.339 112.922 105.335 112.866C105.317 112.819 105.309 112.769 105.31 112.719C105.312 112.669 105.324 112.62 105.344 112.575C105.53 111.088 105.647 110.043 105.794 108.505C105.339 108.339 104.802 108.409 104.726 108.029C99.7424 105.793 94.7287 103.617 89.6521 101.605C80.9023 110.857 72.8199 120.717 65.4658 131.113C59.4444 139.242 54.2167 147.93 49.8545 157.057C50.6808 158.431 51.5533 159.771 52.4754 161.088C60.4511 172.26 69.9771 182.239 80.7665 190.726C93.1687 200.659 100.83 204.404 107.473 208.87C109.476 210.219 136.189 232.212 150.843 233.427C158.551 233.128 167.084 225.738 172.602 220.347C177.461 215.684 181.951 210.65 186.03 205.291C190.447 199.761 194.568 194.003 198.378 188.039C200.322 184.973 201.996 181.744 203.382 178.388C205.366 173.457 206.465 168.194 203.935 163.527ZM67.9661 148.388C68.003 147.867 68.187 147.366 68.4967 146.945C68.8065 146.523 69.2292 146.198 69.7161 146.007C70.7589 145.676 71.6116 146.643 71.7752 147.593C72.2461 150.223 68.5478 151.368 68.0025 148.858C67.9706 148.703 67.9583 148.546 67.9661 148.388ZM71.3422 162.821C66.2581 158.004 61.7678 152.597 57.9667 146.714C57.6147 146.169 58.484 145.667 58.8343 146.207C62.5911 152.016 67.0294 157.356 72.0544 162.111C72.5221 162.557 71.8115 163.264 71.3422 162.821ZM92.0995 184.172C87.3466 180.305 82.9498 176.02 78.962 171.368C78.5422 170.872 79.2495 170.167 79.6709 170.658C83.6599 175.31 88.0578 179.595 92.8117 183.461C93.3124 183.87 92.5986 184.575 92.0995 184.172ZM94.7121 172.074C94.5376 172.272 94.3256 172.434 94.0884 172.551C93.8512 172.667 93.5933 172.735 93.3296 172.752C93.0659 172.768 92.8015 172.733 92.5516 172.647C92.3017 172.561 92.0711 172.427 91.8731 172.252C91.8521 172.235 91.8322 172.217 91.8136 172.198C89.8785 170.226 92.3226 167.009 94.4841 168.534C94.6548 168.654 94.8058 168.799 94.9319 168.965C95.2729 169.424 95.4382 169.99 95.3979 170.56C95.3576 171.131 95.1143 171.668 94.7121 172.074ZM99.278 107.158C99.7292 106.695 100.435 107.407 99.987 107.869C94.4229 113.566 102.861 125.195 108.995 130.804C113.566 134.847 118.446 138.528 123.59 141.811C124.124 142.17 123.62 143.039 123.083 142.677C120.085 140.661 117.094 138.63 114.215 136.446C104.826 129.738 91.9194 114.69 99.278 107.158ZM123.763 206.19C118.301 203.521 113.273 200.043 108.848 195.873C108.375 195.431 109.087 194.717 109.557 195.163C113.923 199.27 118.884 202.695 124.272 205.323C124.854 205.605 124.343 206.471 123.763 206.19ZM125.528 194.084C125.492 194.612 125.248 195.105 124.849 195.453C124.451 195.802 123.93 195.978 123.402 195.943C123.338 195.939 123.274 195.932 123.211 195.921C122.605 195.896 122.027 195.657 121.581 195.246C121.134 194.835 120.848 194.279 120.772 193.677C120.76 193.601 120.77 193.522 120.799 193.451C120.956 192.886 121.287 192.384 121.745 192.017C122.203 191.65 122.764 191.437 123.35 191.407C124.727 191.317 125.637 192.838 125.528 194.084ZM150.331 220.028C144.919 218.802 139.935 216.148 135.898 212.342C135.427 211.898 136.137 211.186 136.608 211.632C140.522 215.315 145.353 217.88 150.597 219.058C151.23 219.194 150.961 220.164 150.331 220.022V220.028ZM151.446 210.989C150.815 210.927 150.232 210.625 149.816 210.146C149.4 209.667 149.184 209.046 149.212 208.413C149.347 207.789 149.722 207.243 150.255 206.893C150.789 206.542 151.438 206.415 152.064 206.539C155.067 207.21 154.148 211.809 151.446 210.982V210.989ZM166.778 223.979C165.501 223.712 159.93 222.092 160.631 220.987C160.699 220.88 160.806 220.803 160.929 220.773C161.052 220.742 161.182 220.759 161.292 220.822C163.079 221.856 165.021 222.598 167.043 223.019C167.677 223.138 167.415 224.107 166.778 223.973V223.979ZM187.02 167.247C183.355 168.684 179.504 169.596 175.583 169.955C174.939 170.015 174.945 169.012 175.583 168.951C184.191 168.139 196.663 164.043 195.066 155.81C194.944 155.177 195.912 154.909 196.035 155.542C197.063 161.233 192.388 165.115 187.02 167.24V167.247Z" fill="#FFD35C"/>
<path d="M106.233 100.513C107.688 99.8425 106.299 97.5108 105.11 98.6361C104.436 99.3963 105.119 101.115 106.233 100.513Z" fill="#DCBEFF"/>
<path d="M115.323 94.2328C116.511 94.2047 115.387 89.8139 115.082 88.9216C114.586 87.6276 114.533 87.9301 102.627 88.2407C101.582 88.2672 100.52 88.2407 99.4786 88.3432C95.3308 88.4803 96.4562 93.3768 96.433 94.5071C96.4082 95.7746 96.9767 94.8508 115.323 94.2328ZM99.3795 89.3595C99.8917 89.2967 112.482 88.986 112.317 88.9893C114.424 88.6753 114.229 89.1678 114.607 91.2434C114.731 91.9058 114.798 92.5774 114.809 93.2512C100.987 93.7684 98.0426 94.3931 97.5006 93.9551C97.5006 93.9551 97.4609 92.6331 97.4576 92.2795C97.4378 90.0552 98.1186 89.3826 99.3795 89.3595Z" fill="black"/>
<path d="M114.607 91.243C114.229 89.1674 114.424 88.675 112.317 88.989C112.188 88.989 99.885 89.298 99.381 89.3591C98.1119 89.3823 97.4376 90.0549 97.4575 92.2791C97.4575 92.6328 97.5004 93.9565 97.5004 93.9565C98.0424 94.3927 100.987 93.7681 114.809 93.2508C114.798 92.5771 114.731 91.9055 114.607 91.243ZM98.8191 95.0868C98.9579 97.5259 99.2091 101.545 99.4074 104.686L104.861 107C104.973 106.835 106.018 100.909 111.848 101.687C112.314 101.702 113.5 101.841 115.098 102.05C114.878 99.454 114.674 96.8562 114.487 94.2572C105.647 94.5728 101.126 94.9496 98.8191 95.0868Z" fill="#DCBEFF"/>
<path d="M104.2 100.723C105.639 103.036 109.126 100.5 107.445 98.2901C107.29 98.0139 107.067 97.7814 106.798 97.6144C106.528 97.4473 106.221 97.3511 105.904 97.3346C105.588 97.3181 105.272 97.3819 104.987 97.5201C104.702 97.6582 104.456 97.8663 104.273 98.1249C104.004 98.5008 103.854 98.9483 103.841 99.4102C103.828 99.872 103.953 100.327 104.2 100.718M106.722 99.0024C106.795 99.1318 106.84 99.2749 106.855 99.4227C106.87 99.5706 106.854 99.7199 106.808 99.8612C106.762 100.003 106.687 100.133 106.589 100.244C106.49 100.355 106.369 100.444 106.234 100.506C105.119 101.103 104.436 99.389 105.112 98.6289C105.715 98.0571 106.327 98.343 106.722 99.0024Z" fill="black"/>
<path d="M255.958 254.997C232.686 248.057 234.218 248.387 233.91 248.66C233.532 248.84 233.723 249.382 233.718 249.215C234.756 251.451 236.719 257.519 235.414 259.611C232.834 261.865 221.617 263.07 211.9 256.909C202.289 250.836 193.557 240.802 187.256 231.233C183.97 226.278 181.078 221.074 178.605 215.667C178.341 215.955 178.081 216.243 177.815 216.527C178.731 218.522 179.707 220.488 180.742 222.425C183.294 227.175 186.169 231.745 189.347 236.101C198.369 248.562 210.94 261.756 226.348 262.526C229.144 262.634 235.364 262.149 236.673 259.535C237.422 256.792 236.151 252.429 235.121 249.896L254.393 255.64C260.507 257.458 267.05 260.085 273.03 257.458C272.723 257.205 272.409 256.962 272.103 256.704C266.908 258.687 261.021 256.504 255.958 254.996M221.12 179.986C227.477 181.368 233.675 183.398 239.618 186.044C251.559 191.258 266.767 203.789 264.265 212.614C262.943 217.292 255.307 217.571 250.738 215.742C250.065 215.543 249.836 216.52 250.457 216.768C253.12 217.742 255.537 219.287 257.538 221.296C268.673 231.327 274.048 235.698 276.677 241.49C279.287 246.857 278.398 253.675 273.124 256.257C273.417 256.5 273.714 256.734 274.009 256.974C278.862 254.303 280.062 248.369 278.558 243.532C276.472 236.251 270.515 231.722 258.843 221.048C252.585 215.14 254.084 219.599 261.175 217.067C265.605 215.608 266.43 210.632 264.832 206.899C262.942 202.332 259.954 198.302 256.133 195.166C243.523 184.26 225.382 178.525 208.519 176.906C207.381 176.796 206.242 176.709 205.1 176.646C204.98 177.007 204.857 177.364 204.727 177.719C210.244 178.018 215.727 178.775 221.12 179.98" fill="#B26EE6"/>
<path d="M245.248 228.11C243.632 216.035 234.217 206.044 223.154 200.551C214.854 196.727 206.217 193.68 197.355 191.449C197.158 191.74 196.968 192.034 196.77 192.323C195.418 194.306 194.017 196.265 192.597 198.205C210.583 207.206 213.953 218.845 204.52 213.847C199.058 210.65 194.063 206.714 189.679 202.149C187.591 204.951 185.434 207.701 183.211 210.397C182.993 210.661 182.773 210.923 182.55 211.185C188.223 218.556 194.882 225.113 202.339 230.673C226.892 249.049 247.428 241.175 245.243 228.11" fill="#B26EE6"/>
<path d="M105.654 108.455L105.779 108.511V108.478L105.65 108.455" fill="black"/>
<path d="M135.011 100.713C133.613 101.477 132.28 102.354 131.023 103.334L133.431 104.732C133.982 104.811 134.533 104.892 135.084 104.975C135.094 103.555 135.024 102.131 135.011 100.713Z" fill="#FF9F48"/>
<path d="M163.866 91.8968C161.387 84.6555 154.329 78.8155 146.544 79.4087C142.666 79.77 138.989 81.3031 136.003 83.8044C133.124 81.6376 129.681 80.3457 126.088 80.083C121.783 79.8202 118.816 83.9465 119.122 85.6437C119.048 86.5493 119.725 85.4338 129.842 90.6012C131.364 91.3812 158.56 104.368 159.15 103.754C160.336 102.101 162.95 95.5373 159.493 93.4105C158.219 92.6933 158.075 97.1948 156.623 97.1783C155.084 97.1601 157.243 88.7372 154.238 88.8529C150.913 88.9867 149.5 94.3772 146.392 93.8104C145.822 89.1173 149.32 88.1357 148.392 87.2516C148.302 87.1671 148.184 87.1179 148.061 87.1128C143.52 86.9293 143.503 91.5746 141.121 90.9037C140.559 90.674 140.597 89.932 140.593 89.4279C140.577 87.863 140.734 86.6054 142.15 86.3576C142.277 86.3223 142.385 86.238 142.449 86.1234C142.514 86.0087 142.531 85.873 142.495 85.7461C142.46 85.6193 142.376 85.5116 142.261 85.4468C142.147 85.382 142.011 85.3655 141.884 85.4008V85.3892C141.117 85.5082 136.804 86.0866 136.487 85.371C136.302 84.8753 136.555 84.6555 136.54 84.4059C139.118 82.4842 142.102 81.1779 145.263 80.587C156.752 78.5643 169.39 91.6588 161.057 110.155C159.37 109.823 157.702 109.408 156.056 108.913C155.94 109.228 155.82 109.542 155.704 109.856C157.521 110.406 159.366 110.859 161.23 111.215C161.358 111.242 161.492 111.221 161.606 111.156C161.72 111.091 161.806 110.987 161.848 110.863C164.302 104.977 166.011 98.1516 163.866 91.8968ZM137.183 86.7063C138.172 86.7498 139.163 86.7172 140.147 86.6087C139.333 88.0018 139.073 91.3019 140.845 91.872C143.586 92.7578 144.011 88.8975 146.888 88.2266C146.251 89.1036 145.796 90.0995 145.549 91.1553C145.303 92.2111 145.271 93.3055 145.455 94.3739C145.478 94.4579 145.522 94.5345 145.583 94.596C145.645 94.6575 145.721 94.7017 145.805 94.7243C149.849 96.038 151.779 89.5089 154.385 89.8907C154.769 90.003 154.881 91.5118 154.937 92.067C155.21 94.9275 154.329 98.2871 156.694 98.1813C158.842 97.8806 158.731 95.648 159.361 94.5673C159.834 95.1039 160.148 95.762 160.267 96.4673C160.387 97.1726 160.307 97.8973 160.037 98.5598C159.832 99.3997 159.595 100.232 159.326 101.053C159.158 101.656 158.918 102.237 158.612 102.784C144.341 96.7932 125.979 87.1574 120.201 85.3247C121.672 79.0336 130.201 80.7159 135.446 84.6389C135.371 84.8953 135.361 85.1661 135.417 85.4273C135.472 85.6884 135.59 85.932 135.762 86.1364C135.934 86.3408 136.153 86.4997 136.401 86.5991C136.649 86.6985 136.917 86.7353 137.183 86.7063Z" fill="black"/>
<path d="M137.183 86.7052C136.918 86.7342 136.65 86.6974 136.402 86.598C136.154 86.4986 135.935 86.3397 135.763 86.1353C135.591 85.9309 135.473 85.6873 135.417 85.4262C135.362 85.165 135.372 84.8942 135.447 84.6379C130.127 80.6603 121.658 79.0953 120.202 85.3237C125.636 87.0472 144.884 97.0202 158.613 102.783C158.919 102.236 159.159 101.655 159.327 101.052C159.6 100.226 159.823 99.3998 160.038 98.5587C160.308 97.8962 160.387 97.1716 160.268 96.4663C160.149 95.761 159.835 95.103 159.362 94.5662C158.736 95.6403 158.84 97.8795 156.695 98.1803C154.051 98.2992 155.52 94.5447 154.712 90.4299C154.66 90.1887 154.649 89.9639 154.394 89.8896C154.166 89.8558 153.932 89.8885 153.722 89.9838C151.243 90.81 149.439 95.9014 145.815 94.7232C144.833 94.4522 145.23 90.5208 146.897 88.2255C144.033 88.8865 143.592 92.7534 140.854 91.8709C139.082 91.3008 139.342 88.0007 140.156 86.6077C139.169 86.7165 138.175 86.7491 137.183 86.7052Z" fill="#FF9F48"/>
<path d="M106.695 109.396C106.59 110.469 106.463 111.544 106.331 112.609C110.479 118.09 116.803 123.067 124.292 128.75C125.385 128.257 126.537 127.908 127.72 127.713C134.315 126.032 140.852 126.721 143.369 133.139C143.832 134.167 144.22 135.227 144.66 136.264C145.633 129.071 146.54 121.871 147.457 114.671C107.351 110.705 106.923 107.059 106.695 109.396ZM127.516 124.103C127.509 124.156 127.492 124.207 127.465 124.254C127.438 124.3 127.402 124.34 127.36 124.373C127.317 124.405 127.269 124.429 127.217 124.442C127.165 124.456 127.112 124.459 127.059 124.452C126.966 124.46 126.872 124.442 126.789 124.399C125.491 123.847 124.082 123.601 122.673 123.682C120.615 123.847 121.212 122.221 121.556 118.725C121.562 118.595 121.616 118.473 121.708 118.381C121.8 118.289 121.922 118.235 122.051 118.229C123.512 118.116 127.525 118.437 128.166 119.658C128.319 120.223 128.267 120.144 127.525 124.107" fill="#E59E70"/>
<path d="M127.014 121.359C127.149 120.979 127.223 120.581 127.235 120.178C127.151 119.869 126.612 119.811 126.334 119.725C125.099 119.339 123.808 119.165 122.515 119.209C122.464 119.809 122.416 120.409 122.375 121.009C122.251 122.848 122.084 122.648 122.765 122.68C124.085 122.66 125.4 122.853 126.66 123.25L127.014 121.359ZM105.775 107.461C119.954 110.167 134.438 112.427 148.638 113.784C149.087 112.469 149.153 111.054 148.83 109.702C148.08 107.265 146.467 107.661 122.853 104.181L117.156 103.342C111.738 102.324 106.58 101.854 105.775 107.461Z" fill="#E59E70"/>
<path d="M128.16 119.646C127.52 118.423 123.533 118.103 122.045 118.217C121.916 118.222 121.792 118.276 121.701 118.368C121.609 118.46 121.555 118.583 121.55 118.713C121.199 122.254 120.647 123.827 122.665 123.67C124.074 123.589 125.483 123.834 126.781 124.387C126.864 124.43 126.958 124.448 127.051 124.44C127.158 124.456 127.268 124.429 127.355 124.364C127.443 124.3 127.501 124.204 127.518 124.096C127.923 122.643 128.139 121.143 128.16 119.635M122.764 122.667C122.116 122.637 122.173 123.112 122.515 119.197C124.146 119.142 127.094 119.65 127.233 120.163C127.112 121.2 126.92 122.227 126.659 123.237C125.4 122.839 124.085 122.647 122.764 122.667Z" fill="black"/>
<path d="M133.431 104.73L135.084 104.973C135.084 103.555 135.024 102.132 135.011 100.713C133.613 101.477 132.279 102.353 131.023 103.334L133.431 104.73Z" fill="#FF9F48"/>
<path d="M130.749 104.337L129.887 103.842C129.853 103.82 129.822 103.796 129.792 103.769C129.697 103.674 129.644 103.545 129.644 103.41C129.644 103.276 129.697 103.147 129.792 103.052C131.544 101.612 133.451 100.374 135.479 99.3599C135.546 99.3573 135.614 99.368 135.677 99.3915C135.741 99.415 135.799 99.4508 135.849 99.4969C135.898 99.543 135.938 99.5984 135.966 99.6599C135.994 99.7215 136.01 99.788 136.013 99.8557C135.989 101.611 136.107 103.374 136.089 105.131C145.607 106.287 149.49 106.512 149.958 110.154C150.133 111.608 149.975 113.082 149.494 114.466C149.352 114.951 148.892 114.823 148.456 114.778C147.579 121.704 147.134 125.214 146.691 128.633C146.816 128.69 146.944 128.739 147.074 128.781C147.172 128.792 147.27 128.775 147.358 128.732C147.446 128.689 147.519 128.622 147.57 128.538C151.652 120.492 155.103 112.141 157.894 103.561C157.581 103.428 157.268 103.293 156.957 103.156C138.756 95.2765 126.069 88.412 121.054 86.6934C119.059 91.6509 116.372 98.1949 114.801 102.024C119.355 102.612 127.566 103.856 130.749 104.337Z" fill="#FF9F48"/>
<path d="M235.557 128.803C230.018 120.02 221.842 113.435 213.709 107.168C208.917 103.283 205.207 100.679 201.021 100.213C199.006 100.206 197.011 100.63 195.173 101.457C193.472 102.162 191.859 103.062 190.366 104.139C183.242 106.707 179.537 114.44 181.608 120.509C177.99 125.632 175.316 128.124 176.062 130.738C177.742 134.714 187.107 143.521 193.529 136.983C194.22 136.284 194.865 135.541 195.459 134.757C196.761 133.078 197.928 131.287 199.171 129.558C199.447 129.464 199.716 129.358 199.982 129.239C200.147 129.405 200.663 129.864 200.876 130.066C204.941 133.751 212.394 139.279 216.41 140.953C216.886 141.164 217.418 141.217 217.927 141.105C218.436 140.993 218.896 140.72 219.239 140.328C219.987 139.307 219.274 137.849 218.872 136.828C218.583 136.102 218.257 135.392 217.894 134.701C220.868 136.329 223.276 139.037 226.745 139.683C228.081 139.933 230.835 140.044 231.241 138.299C231.482 135.602 228.848 131.297 227.275 129.122C229.128 130.307 231.06 131.363 233.059 132.28C234.963 133.168 237.405 131.819 235.557 128.803ZM180.778 134.863C174.499 129.78 176.753 128.889 182.09 121.565C184.551 125.928 191.248 131.186 197.654 129.968C193.165 136.413 189.373 142.671 180.778 134.863ZM204.531 128.002C203.256 126.311 204.378 125.705 203.386 125.316C202.624 125.25 201.625 128.385 197.331 129.021C190.48 130.079 183.386 123.48 182.234 119.258C180.535 111.447 187.839 103.045 196.973 104.531C205.016 105.841 209.487 113.369 205.354 122.803C205.222 123.105 205.364 123.609 205.787 123.558C206.797 123.437 207.493 124.355 207.686 125.257C208.258 127.491 205.86 129.477 204.531 128.002Z" fill="black"/>
<path d="M188.847 110.709C188.912 110.508 189.028 110.328 189.184 110.186C189.34 110.043 189.53 109.944 189.736 109.898C189.865 109.862 189.974 109.777 190.039 109.661C190.105 109.545 190.122 109.408 190.087 109.28C190.051 109.151 189.966 109.042 189.85 108.977C189.734 108.911 189.597 108.894 189.469 108.929C189.097 109.025 188.755 109.215 188.477 109.48C188.199 109.745 187.993 110.076 187.879 110.443C187.671 111.056 188.641 111.319 188.847 110.709ZM201.198 120.485C201.511 119.894 201.926 119.362 202.423 118.914C202.9 118.478 202.19 117.769 201.712 118.203C199.086 120.588 200.864 121.115 201.198 120.485ZM196.414 120.053C196.112 119.705 191.224 118.542 189.036 115.019C188.013 113.366 185.324 119.387 189.604 121.981C193.332 123.905 197.389 120.824 196.439 120.069L196.414 120.053ZM190.777 106.92C190.143 107.037 190.412 108.006 191.045 107.89C191.355 107.842 191.672 107.913 191.931 108.089C192.191 108.265 192.374 108.533 192.443 108.839C192.462 108.902 192.493 108.961 192.535 109.013C192.577 109.064 192.629 109.106 192.688 109.137C192.747 109.168 192.811 109.186 192.877 109.192C192.943 109.197 193.01 109.19 193.073 109.169C194.074 108.853 192.75 106.525 190.777 106.92ZM202.016 115.883C202.175 115.86 202.336 115.875 202.488 115.926C202.64 115.977 202.778 116.063 202.89 116.177C203.003 116.291 203.087 116.43 203.136 116.582C203.185 116.735 203.198 116.897 203.173 117.055C203.094 117.694 204.098 117.688 204.178 117.055C204.219 116.52 204.046 115.99 203.698 115.582C203.349 115.174 202.852 114.922 202.317 114.88C202.129 114.867 201.94 114.879 201.755 114.915C201.122 115.044 201.39 116.012 202.023 115.883" fill="black"/>
<path d="M39.8735 124.428C38.3333 134.367 42.5538 146.386 47.2867 155.235C50.9437 162.055 46.7066 156.689 65.4644 131.108C73.0536 120.402 81.398 110.253 90.4339 100.736C90.5313 100.636 90.5848 100.5 90.5826 100.36C90.5804 100.22 90.5228 100.087 90.4224 99.9894C90.3905 99.9587 90.355 99.932 90.3166 99.9101C90.2794 99.878 90.2383 99.8508 90.1943 99.8291C84.5035 97.3933 78.3062 96.3763 72.1354 96.8657C65.9646 97.3551 60.005 99.3361 54.7693 102.638C50.9071 105.035 47.5875 108.211 45.0226 111.964C42.4577 115.716 40.704 119.963 39.8735 124.432M53.6125 104.721C58.806 101.069 64.8351 98.784 71.1441 98.0758C79.6694 97.0545 83.1496 98.2708 89.1152 100.579C83.5859 106.626 78.0797 112.704 73.0131 119.145C70.4533 122.401 68.0092 125.755 65.5767 129.102C63.1194 132.476 60.7457 135.909 58.4577 139.4C54.9057 144.75 51.7656 150.362 49.0648 156.188C38.4176 137.553 36.1107 117.295 53.6075 104.721" fill="#B26EE6"/>
<path d="M192.893 151.277C192.738 151.566 192.563 151.847 192.397 152.132C196.848 155.134 201.382 158.768 203.925 163.526C206.464 168.204 205.355 173.469 203.377 178.388C197.193 193.349 167.753 232.756 150.838 233.427C136.944 232.271 112.121 212.002 107.468 208.871C97.7493 202.333 73.0623 189.938 52.4703 161.087C51.5504 159.771 50.6762 158.429 49.8478 157.059C49.6561 157.476 49.5734 157.902 49.1289 157.904C52.3992 162.926 56.0096 167.718 59.9347 172.246C73.5102 187.78 86.9352 197.275 102.542 206.911C112.787 213.233 140.384 236.64 153.251 234.133C168.619 229.836 185.011 208.57 192.591 198.204C210.519 173.715 211.37 163.689 192.893 151.277ZM89.6355 101.612C94.7136 103.624 99.7257 105.8 104.711 108.036C104.786 108.353 105.305 108.436 105.784 108.479C105.645 109.824 105.6 110.389 105.329 112.582C105.288 112.674 105.285 112.778 105.32 112.873C105.324 112.929 105.341 112.983 105.369 113.032C105.398 113.08 105.437 113.121 105.485 113.152C109.451 118.595 115.877 123.586 123.539 129.426C123.282 129.745 123.158 130.15 123.192 130.557C123.226 130.965 123.416 131.344 123.722 131.616C124.623 132.224 125.179 131.931 126.181 132.067C125.791 132.129 125.417 132.269 125.082 132.479C124.746 132.688 124.457 132.963 124.23 133.287C124.003 133.61 123.844 133.977 123.761 134.363C123.679 134.75 123.675 135.149 123.75 135.537C124.401 137.394 126.475 136.902 127.197 137.024C130.998 138.265 127.784 139.763 131.575 151.426C132.3 153.602 136.022 145.295 146.133 140.817C151.036 147.133 159.37 150.578 168.005 145.216C168.061 145.182 168.111 145.138 168.151 145.085C168.191 145.033 168.22 144.973 168.237 144.909C168.253 144.845 168.257 144.778 168.248 144.713C168.239 144.648 168.217 144.585 168.184 144.528C168.15 144.471 168.106 144.421 168.053 144.381C168.001 144.341 167.941 144.312 167.877 144.295C167.813 144.279 167.746 144.275 167.681 144.284C167.615 144.293 167.553 144.315 167.496 144.348C164.97 146.032 162 146.923 158.965 146.908C156.55 146.699 154.208 145.973 152.098 144.779C149.988 143.585 148.16 141.952 146.737 139.989C146.692 139.824 146.241 139.363 145.444 137.884C146.414 130.9 147.442 122.671 148.444 114.78C148.88 114.824 149.339 114.953 149.481 114.467C149.962 113.084 150.121 111.61 149.946 110.156C149.478 106.52 145.595 106.297 136.076 105.132C136.094 103.376 135.977 101.612 136 99.8575C135.998 99.7898 135.982 99.7233 135.954 99.6617C135.926 99.6002 135.886 99.5448 135.836 99.4987C135.787 99.4526 135.729 99.4168 135.665 99.3933C135.602 99.3698 135.534 99.3591 135.466 99.3617C135.389 99.3648 135.313 99.3852 135.245 99.4212C133.303 100.442 131.472 101.66 129.78 103.057C129.685 103.152 129.632 103.281 129.632 103.415C129.632 103.55 129.685 103.679 129.78 103.774C129.809 103.801 129.841 103.825 129.874 103.847L130.737 104.342C126.548 103.708 113.648 101.755 111.832 101.698C106.004 100.92 104.958 106.844 104.845 107.011C104.703 106.947 93.5883 102.219 90.3312 100.846L89.6355 101.612ZM145.562 139.984C140.505 142.517 135.996 146.018 132.289 150.289C129.015 139.61 131.902 136.895 127.116 136.001C126.44 135.975 125.642 136.157 125.046 135.719C124.449 135.281 124.699 134.375 125.075 133.868C126.178 132.344 127.738 133.537 127.738 132.51C127.528 130.665 125.391 131.112 124.763 130.999C123.696 130.808 124.181 129.454 125.893 129.224C130.284 128.043 134.068 127.076 138.236 128.881C140.145 129.859 141.634 131.497 142.427 133.49C143.234 135.761 144.285 137.939 145.562 139.984ZM147.457 114.677C146.54 121.877 145.639 129.077 144.659 136.271C144.22 135.233 143.833 134.174 143.37 133.144C140.85 126.731 134.32 126.038 127.721 127.719C126.539 127.921 125.387 128.269 124.292 128.757C117.137 123.338 110.543 118.181 106.331 112.615C106.587 110.556 106.651 109.85 106.767 108.669C131.322 113.296 146.011 114.504 147.464 114.677L147.457 114.677ZM135.009 100.722C135.022 102.141 135.09 103.564 135.081 104.982L133.429 104.739L131.023 103.343C132.278 102.359 133.611 101.48 135.009 100.713V100.722ZM111.745 102.705C115.473 102.999 119.182 103.496 122.856 104.192C146.652 107.601 148.107 107.36 148.832 109.715C149.156 111.065 149.09 112.48 148.642 113.795C134.465 112.44 119.581 110.121 105.777 107.472C105.851 106.765 106.065 106.08 106.406 105.456C106.747 104.832 107.208 104.282 107.763 103.838C108.318 103.393 108.956 103.063 109.639 102.867C110.323 102.671 111.038 102.612 111.745 102.695V102.705Z" fill="black"/>
<path d="M58.8337 146.207C58.4833 145.667 57.6141 146.169 57.9661 146.715C61.7673 152.597 66.2576 158.004 71.3416 162.822C71.8093 163.266 72.5215 162.557 72.0522 162.111C67.0272 157.356 62.589 152.017 58.832 146.207M79.6653 170.658C79.2456 170.162 78.5367 170.879 78.9564 171.368C82.9444 176.02 87.3418 180.305 92.0956 184.171C92.5913 184.577 93.3069 183.87 92.8062 183.462C88.0514 179.596 83.6535 175.311 79.6653 170.658ZM124.272 205.323C118.886 202.696 113.928 199.271 109.564 195.165C109.093 194.72 108.381 195.429 108.854 195.874C113.278 200.043 118.307 203.52 123.769 206.189C124.349 206.471 124.858 205.605 124.278 205.323M150.596 219.054C145.352 217.874 140.521 215.309 136.606 211.625C136.139 211.183 135.426 211.892 135.897 212.336C139.934 216.143 144.919 218.797 150.33 220.022C150.96 220.162 151.228 219.196 150.596 219.054ZM167.044 223.006C165.022 222.585 163.08 221.841 161.293 220.805C161.235 220.773 161.171 220.753 161.105 220.746C161.04 220.739 160.973 220.745 160.909 220.764C160.846 220.783 160.787 220.815 160.736 220.857C160.685 220.899 160.643 220.951 160.612 221.01C160.019 222.119 165.55 223.715 166.778 223.973C167.407 224.105 167.677 223.137 167.044 223.006ZM71.7746 147.594C71.6093 146.643 70.7583 145.683 69.7155 146.007C69.2289 146.199 68.8063 146.524 68.4966 146.945C68.1869 147.367 68.0028 147.867 67.9655 148.389C67.9514 148.661 68.0002 148.933 68.1081 149.184C68.216 149.435 68.3801 149.657 68.5878 149.834C68.7955 150.012 69.0411 150.139 69.3057 150.206C69.5703 150.273 69.8468 150.278 70.1138 150.221C70.6659 150.066 71.1407 149.711 71.4461 149.226C71.7514 148.74 71.8655 148.159 71.7663 147.594M94.9313 168.966C93.021 166.47 89.6036 169.946 91.8114 172.198C92.0021 172.381 92.227 172.524 92.4732 172.62C92.7195 172.716 92.9822 172.762 93.2464 172.756C93.5105 172.751 93.771 172.693 94.0127 172.586C94.2545 172.48 94.4729 172.326 94.6553 172.135C94.6749 172.116 94.6937 172.095 94.7115 172.074C95.1137 171.668 95.357 171.131 95.3973 170.561C95.4376 169.99 95.2723 169.425 94.9313 168.966ZM123.35 191.407C122.764 191.438 122.203 191.653 121.745 192.019C121.287 192.386 120.955 192.886 120.797 193.451C120.769 193.523 120.76 193.601 120.772 193.677C120.847 194.279 121.134 194.835 121.58 195.246C122.027 195.657 122.605 195.896 123.211 195.922C123.47 195.964 123.735 195.955 123.991 195.894C124.246 195.834 124.488 195.724 124.701 195.571C124.914 195.417 125.095 195.223 125.233 195C125.371 194.777 125.464 194.528 125.506 194.269C125.516 194.205 125.523 194.142 125.528 194.077C125.637 192.833 124.725 191.313 123.35 191.402M152.064 206.532C151.736 206.468 151.399 206.472 151.073 206.544C150.747 206.616 150.439 206.754 150.168 206.95C149.898 207.146 149.671 207.395 149.501 207.683C149.332 207.97 149.223 208.29 149.182 208.621C149.359 211.247 153.207 211.999 153.82 209.634C153.925 209.315 153.962 208.978 153.929 208.644C153.896 208.31 153.793 207.987 153.628 207.695C153.463 207.403 153.238 207.149 152.969 206.948C152.699 206.748 152.391 206.607 152.064 206.532ZM123.082 142.677C123.619 143.039 124.123 142.17 123.589 141.811C118.444 138.528 113.564 134.847 108.994 130.802C102.989 125.314 94.386 113.601 99.9913 107.869C100.444 107.406 99.7335 106.695 99.2807 107.158C91.9749 114.644 104.665 129.632 114.22 136.446C117.098 138.63 120.089 140.661 123.087 142.677M175.582 168.944C174.945 169.005 174.938 170.008 175.582 169.947C179.504 169.589 183.354 168.678 187.02 167.24C192.397 165.112 197.06 161.222 196.034 155.536C195.912 154.903 194.943 155.17 195.067 155.803C196.675 164.094 184.065 168.144 175.582 168.944Z" fill="black"/>
<path d="M71.5137 77.9524C69.4448 77.3129 67.4254 76.5312 65.4077 75.7512C64.7808 73.1964 64.1022 70.6554 63.3718 68.1282C63.2429 67.6853 62.491 67.6159 62.4034 68.1282C62.1935 69.4254 60.7509 75.7595 59.614 76.1842C59.3495 76.3148 59.0802 76.4403 58.8075 76.5527C57.0437 77.2037 55.2313 77.7148 53.3873 78.0813C53.2707 78.1149 53.1701 78.1893 53.1038 78.2909C53.0375 78.3925 53.01 78.5146 53.0262 78.6348C53.0424 78.7551 53.1014 78.8654 53.1922 78.9459C53.2831 79.0263 53.3998 79.0713 53.5211 79.0728C55.6663 79.2983 57.7831 79.7412 59.8387 80.3948C63.6511 87.4808 62.7818 91.7328 65.6754 80.7385C67.5348 79.9663 69.46 79.3634 71.4278 78.9373C71.5016 78.9353 71.5734 78.9136 71.636 78.8745C71.7229 78.8369 71.7934 78.7693 71.8347 78.6841C71.8759 78.5989 71.8852 78.5016 71.8608 78.4101C71.861 78.3062 71.8273 78.205 71.7646 78.122C71.7019 78.0391 71.6138 77.9806 71.5137 77.9524ZM28.7036 57.3818C26.5476 57.031 24.4222 56.5133 22.3463 55.8334C21.9547 53.2026 21.3218 50.6131 20.9467 47.979C20.9183 47.8856 20.8635 47.8023 20.789 47.7392C20.7145 47.6762 20.6233 47.6359 20.5265 47.6234C20.4297 47.6108 20.3313 47.6264 20.2431 47.6684C20.155 47.7104 20.0808 47.7769 20.0295 47.86C18.729 50.3214 17.7255 52.9287 17.0401 55.6269C14.5261 56.3672 11.9994 57.0563 9.45999 57.6942C8.93119 57.8247 9.0386 58.4874 9.45999 58.6609C11.7248 59.5163 14.0749 60.1257 16.47 60.4787C16.8418 61.7428 18.8595 66.8623 19.6858 67.1532C19.7339 67.1883 19.7892 67.2123 19.8477 67.2235C19.9061 67.2347 19.9664 67.2328 20.0241 67.218C20.0817 67.2031 20.1354 67.1757 20.1812 67.1376C20.227 67.0996 20.2638 67.0518 20.289 66.9979C20.289 66.9863 20.3038 66.9813 20.3104 66.9681L20.3204 66.9433C20.3486 66.9 20.3688 66.8518 20.3798 66.8012C21.2951 64.838 22.0018 62.7843 22.4885 60.6737C24.4757 59.6897 26.5582 58.9112 28.7036 58.3502C28.8076 58.3189 28.8988 58.2549 28.9636 58.1677C29.0284 58.0805 29.0634 57.9747 29.0634 57.866C29.0634 57.7574 29.0284 57.6516 28.9636 57.5644C28.8988 57.4772 28.8076 57.4132 28.7036 57.3818ZM48.4016 195.807C46.1872 195.146 43.9481 194.587 41.6841 194.129C40.9339 191.116 40.1809 188.105 39.4251 185.095C39.3929 184.992 39.3285 184.902 39.2414 184.838C39.1543 184.774 39.049 184.739 38.9409 184.739C38.8328 184.739 38.7276 184.774 38.6405 184.838C38.5534 184.902 38.489 184.992 38.4567 185.095C37.6536 187.837 36.8042 190.567 35.8672 193.265C34.5225 193.88 33.1152 194.348 31.6699 194.66L26.8775 196.03C26.4347 196.155 26.3669 196.914 26.8775 196.997C30.0173 197.514 33.0216 198.702 36.2011 198.94C37.0158 203.113 38.2287 210.517 39.3772 206.228C41.7899 199.543 41.195 199.497 41.6709 199.33C48.1686 196.653 48.9932 196.947 48.7305 196.136C48.7053 196.058 48.6622 195.988 48.6048 195.931C48.5474 195.873 48.4772 195.83 48.4 195.805" fill="#B26EE6"/>
<path d="M27.755 134.735C27.8062 135.376 28.8109 135.381 28.7581 134.735C28.3288 128.859 29.4493 122.973 32.0076 117.667C34.5659 112.36 38.4724 107.817 43.3366 104.494C43.8703 104.135 43.368 103.266 42.8293 103.626C38.9272 106.288 35.6075 109.716 33.0722 113.701C30.537 117.687 28.8392 122.147 28.0822 126.809C27.6543 129.43 27.5433 132.093 27.7517 134.741M32.7671 99.8549C33.2165 99.3889 32.5076 98.6783 32.0565 99.1443C25.0448 106.396 19.2974 114.866 19.0479 124.99C19.0479 125.123 19.1008 125.251 19.195 125.345C19.2892 125.439 19.417 125.492 19.5502 125.492C19.6835 125.492 19.8112 125.439 19.9054 125.345C19.9997 125.251 20.0526 125.123 20.0526 124.99C20.2757 115.24 25.9488 106.906 32.7671 99.8549ZM73.8305 206.857C76.1143 208.853 78.4581 210.777 80.862 212.629C81.3726 213.024 81.8733 212.152 81.3693 211.762C70.555 203.402 60.9692 193.563 52.8931 182.535C52.5147 182.018 51.6421 182.519 52.0255 183.041C58.4008 191.756 65.7159 199.743 73.8388 206.857M103.26 245.617C103.829 245.926 104.336 245.06 103.768 244.751C95.4534 240.224 88.0475 234.2 81.9229 226.982C81.5048 226.486 80.7959 227.201 81.2123 227.692C87.3977 234.971 94.8718 241.048 103.26 245.617ZM138.347 253.612C138.882 253.977 139.384 253.108 138.854 252.744C129.147 246.093 120.04 238.605 111.638 230.366C111.176 229.915 110.465 230.624 110.928 231.076C117.53 237.544 124.563 243.555 131.979 249.069C134.073 250.622 136.195 252.137 138.347 253.612ZM170.45 281.262C170.356 281.168 170.228 281.115 170.095 281.115C169.961 281.115 169.834 281.168 169.739 281.262C169.645 281.356 169.592 281.484 169.592 281.617C169.592 281.75 169.645 281.878 169.739 281.972C176.166 288.434 183.83 293.533 192.273 296.964C192.871 297.209 193.131 296.239 192.539 295.996C184.263 292.615 176.751 287.605 170.45 281.262ZM203.694 278.148C196.305 275.574 189.625 271.298 184.194 265.665C183.745 265.199 183.037 265.91 183.485 266.374C189.043 272.129 195.877 276.495 203.436 279.117C204.047 279.33 204.31 278.36 203.702 278.148M268.558 252.333C268.078 251.903 267.365 252.61 267.848 253.043C273.089 257.714 278.614 262.055 284.393 266.04C284.927 266.407 285.429 265.545 284.898 265.175C279.197 261.228 273.741 256.94 268.558 252.333ZM283.41 291.572C269.51 284.645 266.827 278.21 265.706 279.408C265.62 279.501 265.572 279.624 265.572 279.751C265.572 279.878 265.62 280 265.706 280.094C270.743 285.1 276.548 289.267 282.902 292.438C283.479 292.725 283.99 291.861 283.41 291.572ZM298.436 278.598C301.297 281.102 304.437 283.267 307.794 285.051C308.364 285.353 308.872 284.488 308.301 284.184C305.018 282.444 301.946 280.332 299.147 277.887C298.661 277.464 297.948 278.172 298.436 278.598ZM280.647 223.313C286.348 227.378 292.512 230.75 299.009 233.359C299.609 233.6 299.869 232.628 299.277 232.39C292.863 229.804 286.779 226.467 281.152 222.447C280.625 222.07 280.124 222.943 280.647 223.313ZM322.827 257.363C320.163 255.993 317.68 254.296 315.437 252.31C314.955 251.882 314.244 252.589 314.726 253.019C317.03 255.066 319.581 256.817 322.32 258.231C322.895 258.526 323.402 257.661 322.827 257.363Z" fill="black"/>
<path d="M107.478 42.3943C105.906 41.4936 104.194 40.8646 102.413 40.5336C101.965 38.6316 101.281 36.794 100.861 34.8836C100.822 34.755 100.733 34.6472 100.615 34.5837C100.496 34.5202 100.357 34.5062 100.228 34.5449C100.11 34.5807 100.008 34.659 99.9439 34.7647C99.0353 36.671 98.2622 38.6391 97.6304 40.6542C95.6573 41.1665 93.7701 41.9763 91.7904 42.4538C91.1955 42.5993 91.3988 43.3759 91.9226 43.4453C93.8098 43.6767 95.6573 44.0518 97.5213 44.4071C97.7725 45.4135 99.43 50.8238 100.349 50.6784C100.454 50.686 100.559 50.654 100.642 50.5886C100.725 50.5232 100.781 50.4291 100.798 50.3248C101.215 48.4211 101.585 46.5091 101.996 44.6054C104.662 43.7263 108.048 43.8122 107.701 42.6819C107.666 42.5647 107.589 42.4647 107.484 42.401" fill="#B26EE6"/>
<path d="M233.91 151.634C238.091 155.098 242.397 158.403 246.828 161.55C247.357 161.925 247.857 161.054 247.333 160.682C242.975 157.592 238.738 154.342 234.621 150.932C234.125 150.522 233.413 151.23 233.91 151.641M286.599 198.389C287.146 198.738 287.65 197.87 287.106 197.523C280.593 193.36 274.744 188.241 269.755 182.337C269.337 181.841 268.629 182.556 269.044 183.045C274.094 189.013 280.014 194.186 286.606 198.389M242.556 174.566C242.11 174.099 241.399 174.809 241.845 175.277C245.71 179.3 249.869 183.03 254.287 186.435C254.798 186.828 255.299 185.957 254.795 185.567C250.447 182.21 246.356 178.532 242.556 174.566Z" fill="black"/>
<path d="M146.685 128.623C146.66 128.812 146.035 133.654 145.45 137.878C146.442 139.737 146.67 139.713 146.743 139.983C148.17 141.941 150 143.571 152.109 144.764C154.218 145.957 156.558 146.686 158.971 146.902C165.654 146.937 167.457 143.384 168.166 144.517C168.809 145.532 163.772 147.237 162.828 147.507C156.549 149.138 149.957 145.729 146.138 140.811C141.279 143.125 136.969 146.449 133.496 150.561C133.992 151.914 137.566 161.674 143.608 165.972C149.407 170.103 161.536 171.619 174.573 164.03C177.958 162.021 181.167 159.731 184.167 157.182C186.886 155.055 189.213 152.471 191.045 149.546C193.481 145.4 196.146 141.417 193.524 136.987C187.628 142.989 178.091 135.567 176.058 130.742C175.936 129.98 175.981 129.201 176.192 128.459C176.402 127.717 176.772 127.029 177.276 126.445C167.617 123.872 165.284 129.103 159.213 126.389C158.429 126.04 157.744 125.504 157.217 124.827C156.69 124.151 156.337 123.355 156.19 122.511C155.694 119.206 158.074 116.834 160.635 111.1C158.969 110.765 157.319 110.351 155.693 109.857C153.355 116.237 150.641 122.472 147.566 128.531C147.31 128.952 146.878 128.703 146.685 128.623Z" fill="#ACEAC7"/>
</svg>
