<svg width="560" height="521" viewBox="0 0 560 521" fill="none" xmlns="http://www.w3.org/2000/svg">
<path d="M22.4004 53.6298C26.0012 49.0792 16.316 51.3389 240.338 40.6992C245.378 40.4571 255.579 38.1272 260.123 40.6211C263.483 42.4721 262.73 46.5931 262.736 49.7639V119.816C262.736 131.898 264.57 145.373 262.736 157.322C262.408 159.472 261.112 161.31 255.374 162.38C238.714 165.483 198.476 164.913 197.577 164.239C196.252 163.229 192.696 146.333 196.919 136.295C197.728 134.374 200.178 133.59 201.9 132.473C207.931 128.82 212.224 123.155 213.895 116.645C214.477 113.349 214.242 109.973 213.205 106.775C212.169 103.577 210.361 100.642 207.917 98.1931C203.807 94.1111 196.854 96.0948 191.708 96.4254C184.243 96.9045 175.818 97.3783 168.614 95.2514C149.392 89.5944 130.718 97.1153 122.671 111.392C118.06 119.577 116.195 130.62 120.249 139.054C122.274 143.272 129.576 156.913 121.862 161.901C119.153 164.167 116.216 166.186 113.092 167.93C110.343 168.537 107.504 168.713 104.692 168.451C97.0764 168.769 53.654 170.919 39.5448 171.372C37.1452 171.447 35.0508 172.015 34.11 169.529C33.6312 168.245 19.438 57.3708 22.4004 53.6298Z" fill="#FF9F48"/>
<path d="M262.638 184.213C260.54 182.391 187.102 186.592 184.798 186.795C182.493 186.998 181.552 194.113 168.241 191.645C166.861 191.385 163.238 188.243 161.88 188.136C159.883 187.977 156.898 195.339 156.616 195.964C156.18 197.248 156.008 198.597 156.109 199.939C158.122 198.729 160.06 197.414 161.913 196.001C163.438 201.24 163.647 206.734 162.524 212.06C160.913 215.864 158.934 219.524 156.61 222.994C156.411 223.242 154.818 260.614 157.282 264.572C158.763 266.956 186.755 283.836 230.429 283.628C234.719 283.609 250.48 282.459 251.928 283.57C252.812 284.247 251.071 285.637 252.045 286.174C253.445 286.955 256.629 286.322 258.205 286.353C260.42 286.393 262.626 286.627 264.794 287.054C265.354 284.075 264.704 188.964 263.654 185.762C263.467 185.171 263.117 184.637 262.638 184.213Z" fill="#FF9F48"/>
<path d="M72.0846 192.135L36.6226 193.819L40.6434 228.531C42.0574 226.868 62.3294 201.47 72.0846 192.135Z" fill="#FF9F48"/>
<path d="M143.403 321.602C143.403 321.602 264.29 314.64 266.684 317.978C269.078 321.315 269.588 367.782 269.588 367.782H142.188L143.403 321.602Z" fill="#FF9F48"/>
<path d="M530.948 27.0713C528.129 26.3606 294.684 36.3104 289.63 41.0979C288.565 42.2073 287.748 43.5034 287.228 44.9103C286.708 46.3171 286.496 47.8063 286.604 49.2905C286.59 56.4053 285.643 150.468 286.83 156.205C287.799 160.876 289.07 160.446 293.419 160.204C301.144 159.772 355.71 157.983 355.691 157.645C355.36 151.748 348.411 148.828 344.936 143.111C338.776 137.678 341.265 122.253 350.071 120.004C353.804 117.662 358.115 116.239 362.601 115.87C411.094 115.544 418.601 145.516 417.523 154.456C417.73 152.748 497.833 150.707 499.681 150.731C499.39 150.313 499.076 149.91 498.74 149.523C497.9 148.554 499.25 147.214 500.238 148.132C501.158 148.975 502.031 149.86 502.853 150.785C509.997 151.292 517.181 150.834 524.184 149.426C531.945 147.463 535.067 46.1118 535.431 39.7129C535.739 34.4569 537.839 28.8051 530.948 27.0713ZM381.787 110.843C379.189 108.8 375.969 107.564 372.578 107.308C370.621 107.379 368.717 107.918 367.05 108.872C365.382 109.827 364.007 111.164 363.058 112.756C362.456 113.746 360.932 112.871 361.439 111.876C366.616 101.617 379.919 103.408 382.966 109.752C383.282 110.416 382.574 111.314 381.787 110.843ZM470.648 102.478C470.545 102.786 470.339 103.056 470.06 103.247C469.781 103.438 469.443 103.541 469.096 103.541C468.75 103.541 468.412 103.438 468.133 103.247C467.854 103.056 467.648 102.786 467.545 102.478C466.708 98.4392 465.234 94.5371 463.169 90.899C455.239 79.5902 436.434 80.7279 427.642 95.4912C427.158 96.3086 425.654 95.7515 426.01 94.8482C430.081 84.4038 440.662 77.1692 452.89 78.8978C463.712 80.4389 475.114 91.7034 470.648 102.478Z" fill="#FF9F48"/>
<path d="M526.894 170.892C524.556 166.852 514.776 169.023 511.01 169.252L505.3 169.598C504.174 171.482 502.57 173.081 500.627 174.258C499.269 175.075 498.107 173.532 498.631 172.402C499.003 171.605 499.37 170.783 499.714 169.939C480.495 171.111 443.549 173.362 427.704 174.323C429.269 177.22 430.848 180.256 432.164 183.377C445.492 183.945 457.364 189.886 469.48 194.808C475.856 197.396 507.412 223.283 524.206 250.027C524.788 239.385 527.801 172.428 526.894 170.892Z" fill="#FF9F48"/>
<path d="M387.184 274.65C383.009 279.92 378.243 284.762 372.966 289.093L404.746 286.797C398.062 284.845 387.335 274.963 387.184 274.65Z" fill="#FF9F48"/>
<path d="M353.125 243.88C353.125 243.88 362.43 219.886 379.764 206.692C379.179 206.494 369.813 202.006 367.405 197.377C365.43 193.363 364.121 189.094 363.522 184.715C363.342 183.58 359.823 181.135 358.23 180.727C356.947 180.401 354.59 180.313 353.646 179.342C342.942 179.974 287.846 179.061 286.051 184.127C284.256 189.193 285.598 265.024 285.906 282.95C293.582 283.59 301.294 283.797 308.997 283.57C329.303 286.254 350.896 247.317 353.125 243.88Z" fill="#FF9F48"/>
<path d="M288.644 317.083C289.923 315.563 318.52 315.748 418.177 308.539L424.096 339.974L423.338 367.931L291.203 369.063C291.203 369.063 286.135 320.061 288.644 317.083Z" fill="#FF9F48"/>
<path d="M166.969 173.116C164.449 176.261 172.009 184.248 178.071 181.137C178.25 181.031 178.393 180.879 178.483 180.7C178.573 180.521 178.606 180.322 178.579 180.125C178.552 179.929 178.465 179.745 178.329 179.593C178.193 179.441 178.013 179.328 177.811 179.268C174.171 178.64 171.606 178.596 169.741 175.126C169.302 174.324 169.206 173.512 168.422 172.944C168.321 172.855 168.199 172.787 168.065 172.747C167.932 172.706 167.791 172.694 167.652 172.71C167.513 172.727 167.38 172.772 167.261 172.842C167.143 172.912 167.044 173.006 166.969 173.116Z" fill="#191919"/>
<path d="M178.722 148.191C180.164 149.321 181.795 150.223 183.552 150.859C183.824 150.999 184.104 151.122 184.392 151.229C184.482 151.252 184.975 151.336 184.852 151.317L184.969 151.336C185.199 151.388 185.44 151.377 185.663 151.304C185.887 151.231 186.083 151.1 186.227 150.926C186.372 150.751 186.459 150.542 186.478 150.323C186.497 150.104 186.448 149.884 186.336 149.69C185.521 148.105 181.55 146.764 180.456 146.085C179.114 145.218 177.521 147.152 178.722 148.191Z" fill="#191919"/>
<path d="M278.32 292.995C277.983 292.818 277.585 292.77 277.21 292.862C276.836 292.954 276.515 293.178 276.315 293.487C272.905 298.667 268.097 300.581 262.153 302.38C262.037 302.413 261.937 302.483 261.871 302.578C261.805 302.674 261.778 302.788 261.795 302.9C261.811 303.012 261.87 303.115 261.961 303.191C262.052 303.266 262.169 303.309 262.29 303.312C268.363 303.905 274.224 300.294 277.928 295.994C280.293 297.703 282.999 298.96 285.889 299.693C286.07 299.734 286.26 299.719 286.432 299.651C286.603 299.583 286.746 299.466 286.841 299.316C286.935 299.167 286.975 298.993 286.955 298.821C286.934 298.649 286.855 298.487 286.729 298.36C284.299 296.113 281.45 294.295 278.32 292.995Z" fill="#191919"/>
<path d="M377.081 191.099C379.726 191.151 382.306 190.329 384.361 188.777C385.473 188.077 386.424 187.177 387.156 186.129C387.888 185.081 388.387 183.908 388.622 182.678C388.617 182.502 388.558 182.332 388.451 182.188C388.344 182.043 388.195 181.931 388.02 181.864C387.846 181.797 387.654 181.778 387.469 181.81C387.284 181.843 387.112 181.924 386.976 182.045C385.823 183.737 384.548 185.355 383.159 186.887C381.355 188.39 379.24 189.534 376.943 190.251C376.838 190.282 376.747 190.348 376.689 190.435C376.63 190.523 376.607 190.627 376.624 190.729C376.64 190.831 376.695 190.925 376.779 190.992C376.863 191.06 376.97 191.098 377.081 191.099Z" fill="#191919"/>
<path d="M365.295 162.358C365.424 163.194 365.561 164.009 365.774 164.832C365.811 165.273 365.95 165.702 366.181 166.09C366.412 166.477 366.73 166.815 367.113 167.078C367.442 167.25 367.831 167.296 368.197 167.207C368.562 167.117 368.876 166.9 369.073 166.599C369.277 166.189 369.385 165.744 369.391 165.292C369.397 164.84 369.3 164.392 369.106 163.978C368.885 163.167 368.621 162.367 368.317 161.58C368.185 161.23 367.916 160.939 367.562 160.767C367.209 160.594 366.798 160.554 366.414 160.653C366.029 160.752 365.699 160.983 365.492 161.3C365.284 161.617 365.214 161.995 365.295 162.358Z" fill="#191919"/>
<path d="M462.316 252.238C484.259 268.336 500.699 290.015 509.636 314.639C512.279 322.561 513.335 330.767 515.547 338.775C515.827 339.735 517.633 339.871 517.787 338.775C519.965 323.881 510.952 303 502.157 289.312C492.074 274.177 478.842 261.065 463.237 250.747C462.28 250.088 461.389 251.574 462.316 252.238Z" fill="#191919"/>
<path d="M216.789 388.278C209.764 382.103 204.276 375.803 202.229 375.722C192.129 375.556 181.87 376.355 171.762 376.149C166.823 376.048 146.736 374.561 141.64 374.9C140.987 374.944 140.951 375.459 141.701 376.321C146.092 381.369 150.888 386.057 155.094 391.251C158.84 395.877 161.791 401.388 165.916 405.689C166.554 406.353 167.982 405.65 167.596 404.775C164.707 399.44 161.065 394.486 156.768 390.046C152.788 385.249 148.462 380.709 143.821 376.456C152.705 377.943 202.702 378.539 202.901 378.458C206.656 382.723 210.461 385.776 221.381 395.716C222.781 396.973 224.091 398.363 225.547 399.589C222.123 399.85 180.299 404.226 170.947 405.249C170.387 405.306 170.365 406.072 170.947 406.072C181.226 406.014 228.375 401.995 229.313 401.485C229.481 401.297 229.573 401.062 229.573 400.818C229.573 400.575 229.481 400.339 229.313 400.152C225.371 395.987 221.19 392.024 216.789 388.278Z" fill="#191919"/>
<path d="M162.354 385.112C168.962 385.221 188.554 385.203 191.737 385.164C194.791 385.38 197.863 385.219 200.871 384.685C201.062 384.63 201.229 384.521 201.348 384.371C201.467 384.222 201.531 384.041 201.531 383.856C201.531 383.67 201.467 383.489 201.348 383.34C201.229 383.19 201.062 383.081 200.871 383.026C198.075 382.625 195.233 382.578 192.423 382.886C182.397 383.241 172.374 383.66 162.354 384.143C162.216 384.143 162.084 384.194 161.986 384.285C161.888 384.376 161.833 384.499 161.833 384.627C161.833 384.756 161.888 384.879 161.986 384.97C162.084 385.061 162.216 385.112 162.354 385.112Z" fill="#191919"/>
<path d="M168.918 392.782C179.421 391.412 185.211 392.782 189.997 392.592C190.223 392.586 190.44 392.506 190.609 392.366C190.778 392.225 190.888 392.033 190.918 391.824C190.949 391.615 190.899 391.403 190.776 391.226C190.654 391.048 190.468 390.917 190.251 390.855C183.5 388.819 175.313 390.134 168.56 391.582C167.697 391.766 168.086 392.891 168.918 392.782Z" fill="#191919"/>
<path d="M180.962 399.117C184.447 399.174 187.921 398.735 191.264 397.815C191.88 397.605 192.087 396.55 191.264 396.443C187.715 396.176 184.144 396.417 180.674 397.157C179.478 397.344 179.758 399.169 180.962 399.117Z" fill="#191919"/>
<path d="M242.608 379.373C242.614 379.374 242.62 379.374 242.626 379.373C242.631 379.372 242.637 379.37 242.642 379.366C242.646 379.363 242.65 379.359 242.653 379.354C242.655 379.349 242.657 379.344 242.657 379.338C242.657 379.333 242.655 379.327 242.653 379.323C242.65 379.318 242.646 379.313 242.642 379.31C242.637 379.307 242.631 379.304 242.626 379.303C242.62 379.302 242.614 379.303 242.608 379.304C242.603 379.303 242.597 379.302 242.591 379.303C242.585 379.304 242.58 379.307 242.575 379.31C242.57 379.313 242.567 379.318 242.564 379.323C242.561 379.327 242.56 379.333 242.56 379.338C242.56 379.344 242.561 379.349 242.564 379.354C242.567 379.359 242.57 379.363 242.575 379.366C242.58 379.37 242.585 379.372 242.591 379.373C242.597 379.374 242.603 379.374 242.608 379.373Z" fill="#191919"/>
<path d="M334.205 392.523C327.98 386.322 320.031 374.836 318.166 374.646C312.054 373.943 256.466 373.16 244.246 374.045C244.162 374.045 243.264 374.334 243.045 374.87C241.645 378.306 238.509 391.469 236.958 398.258C236.882 398.589 236.58 399.539 237.776 399.75C242.788 400.653 313.157 401.517 325.976 398.87C326.275 398.768 326.529 398.575 326.694 398.321C326.859 398.067 326.926 397.769 326.884 397.475C326.842 397.181 326.693 396.909 326.462 396.705C326.231 396.5 325.932 396.375 325.614 396.35C318.334 396.49 289.315 397.99 282.108 397.912C256.709 397.61 249.099 396.938 240.231 397.706C242.104 390.479 243.779 383.167 244.952 375.818C281.582 374.841 311.746 377.661 317.716 377.08C321.505 383.557 326.264 389.5 331.85 394.733C333.32 396.183 335.672 393.983 334.205 392.523Z" fill="#191919"/>
<path d="M254.613 380.633C253.787 382.939 253.141 385.297 252.678 387.688C251.996 389.795 251.631 391.979 251.594 394.178C251.664 395.129 253.201 395.74 253.714 394.715C254.595 392.501 255.136 390.183 255.321 387.829C255.785 385.52 256.076 383.183 256.192 380.837C256.189 380.657 256.117 380.485 255.99 380.351C255.862 380.217 255.687 380.129 255.496 380.105C255.305 380.08 255.111 380.12 254.949 380.217C254.787 380.314 254.668 380.462 254.613 380.633Z" fill="#191919"/>
<path d="M261.721 382.306C261.514 389.46 261.295 389.794 261.81 390.965C261.878 391.162 262.01 391.333 262.189 391.455C262.368 391.577 262.584 391.642 262.806 391.642C263.028 391.642 263.244 391.577 263.423 391.455C263.602 391.333 263.734 391.162 263.801 390.965C264.297 389.856 264.12 389.533 263.891 382.306C263.877 382.048 263.756 381.804 263.554 381.626C263.352 381.447 263.084 381.348 262.806 381.348C262.527 381.348 262.259 381.447 262.057 381.626C261.855 381.804 261.735 382.048 261.721 382.306Z" fill="#191919"/>
<path d="M273.794 381.32C272.824 385.46 272.535 389.713 272.937 393.933C273.004 394.136 273.14 394.314 273.324 394.44C273.508 394.566 273.73 394.634 273.959 394.634C274.187 394.634 274.41 394.566 274.594 394.44C274.778 394.314 274.913 394.136 274.981 393.933C275.725 389.762 275.794 385.51 275.185 381.32C275.174 381.156 275.096 381.001 274.966 380.888C274.837 380.776 274.667 380.713 274.489 380.713C274.312 380.713 274.141 380.776 274.012 380.888C273.883 381.001 273.805 381.156 273.794 381.32Z" fill="#191919"/>
<path d="M302.326 381.329C306.103 391.375 305.947 391.635 307.053 393.004C307.658 393.752 309.27 393.634 309.175 392.468C309.029 390.646 308.674 390.419 304.465 380.774C303.945 379.574 301.842 380.048 302.326 381.329Z" fill="#191919"/>
<path d="M294.87 384.507C295.463 387.37 295.544 388.503 296.298 389.305C296.412 389.41 296.554 389.485 296.71 389.524C296.865 389.563 297.029 389.563 297.185 389.525C297.34 389.487 297.483 389.412 297.598 389.307C297.713 389.202 297.796 389.071 297.84 388.927C298.09 388.055 297.84 387.454 296.804 384.015C296.734 383.776 296.565 383.573 296.334 383.451C296.103 383.328 295.829 383.296 295.572 383.361C295.316 383.426 295.098 383.584 294.966 383.799C294.834 384.013 294.799 384.268 294.87 384.507Z" fill="#191919"/>
<path d="M488.645 339.598C485.302 335.724 477.79 330.966 481.825 325.204C483.547 322.75 486.251 320.904 488.083 318.48C492.812 312.232 493.403 303.532 485.563 299.169C484.319 298.479 482.861 300.145 483.986 301.069C486.447 303.092 488.953 305.102 489.124 308.405C489.485 315.083 483.804 319.73 481.004 323.106C475.925 329.211 481.738 337.333 487.976 340.426C488.095 340.492 488.236 340.515 488.371 340.49C488.507 340.465 488.628 340.395 488.712 340.292C488.795 340.189 488.834 340.061 488.822 339.933C488.809 339.805 488.747 339.686 488.645 339.598Z" fill="#191919"/>
<path d="M496.588 335.853C491.388 329.004 496.495 327.449 498.447 324.273C499.276 323.095 499.765 321.738 499.868 320.333C499.971 318.928 499.684 317.522 499.035 316.25C498.91 316.063 498.724 315.919 498.504 315.839C498.283 315.759 498.041 315.748 497.813 315.806C497.586 315.865 497.384 315.991 497.239 316.164C497.095 316.338 497.015 316.551 497.011 316.771C497.546 319.35 497.118 322.021 495.798 324.344C494.621 325.589 493.572 326.932 492.662 328.358C491.139 331.758 493.623 334.106 496.036 336.262C496.313 336.491 496.823 336.165 496.588 335.853Z" fill="#191919"/>
<path d="M529.411 378.569C533.321 378.437 537.148 379.641 540.168 381.953C544.141 385.897 539.888 390.024 535.968 391.804C525.048 396.75 500.341 397.623 488.136 397.271C478.137 396.982 466.203 396.704 457.235 392.156C450.333 388.665 448.871 385.983 455.773 382.016C459.511 379.961 463.575 378.467 467.813 377.59C467.983 377.543 468.128 377.442 468.224 377.304C468.319 377.166 468.359 377.001 468.335 376.838C468.311 376.675 468.225 376.526 468.093 376.417C467.961 376.308 467.791 376.247 467.614 376.244C461.659 375.953 446.335 380.285 448.465 388.131C449.625 392.38 455.969 395.16 459.895 396.566C465.998 398.477 472.345 399.635 478.772 400.01C491.418 401.176 504.168 400.962 516.76 399.372C524.6 398.409 535.047 397.029 541.101 391.786C542.722 390.527 543.76 388.736 543.999 386.784C544.238 384.833 543.659 382.87 542.383 381.305C539.241 377.72 533.93 377.66 529.419 377.921C529.326 377.92 529.237 377.953 529.171 378.013C529.105 378.073 529.067 378.155 529.066 378.241C529.065 378.327 529.101 378.41 529.165 378.471C529.23 378.533 529.318 378.568 529.411 378.569Z" fill="#191919"/>
<path d="M84.124 340.414C90.2504 337.368 95.8588 329.644 91.5216 323.368C89.1472 319.934 84.9528 317.994 83.48 313.962C81.5704 308.755 84.0064 304.475 88.1028 301.057C89.2088 300.138 87.7808 298.454 86.5264 299.154C83.4802 301.066 81.3466 303.998 80.5717 307.338C79.7968 310.677 80.4406 314.167 82.3684 317.075C84.5076 320.304 88.632 322.066 90.4884 325.422C93.8148 331.409 86.8652 335.616 83.4324 339.584C83.314 339.669 83.2368 339.794 83.2179 339.932C83.199 340.071 83.2399 340.21 83.3316 340.32C83.4233 340.43 83.5584 340.502 83.707 340.52C83.8556 340.537 84.0056 340.499 84.124 340.414Z" fill="#191919"/>
<path d="M76.0556 336.244C78.4972 334.047 80.9052 331.766 79.4324 328.34C78.7268 327.117 77.8399 325.992 76.7976 324.998C74.5576 322.316 74.986 319.893 75.0728 316.753C75.0689 316.533 74.9886 316.321 74.8439 316.147C74.6992 315.973 74.4979 315.847 74.27 315.789C74.0422 315.73 73.8001 315.742 73.5799 315.822C73.3597 315.902 73.1732 316.046 73.0484 316.232C72.4001 317.505 72.114 318.912 72.2174 320.317C72.3209 321.722 72.8104 323.079 73.6392 324.258C75.5376 327.333 80.7092 329.087 75.4984 335.838C75.2716 336.161 75.7784 336.491 76.0556 336.244Z" fill="#191919"/>
<path d="M42.8922 378.012C37.8214 377.788 31.1322 378.119 27.5678 382.081C26.7152 383.1 26.2839 384.37 26.3522 385.659C26.4206 386.949 26.984 388.173 27.9402 389.11C32.2298 394.366 45.4542 397.859 52.4514 399.031C68.7827 401.523 85.4477 401.453 101.754 398.823C107.838 398.309 113.699 396.433 118.834 393.356C130.261 385.405 116.812 375.653 104.492 376.257C103.697 376.296 103.448 377.418 104.293 377.603C109.187 378.339 113.817 380.163 117.789 382.919C119.749 384.507 121.194 386.446 119.576 388.756C117.748 390.865 115.299 392.432 112.528 393.267C104.635 395.674 96.3981 396.965 88.0926 397.094C55.0666 399.125 30.6506 392.317 28.825 385.801C27.425 380.774 39.381 378.756 42.8922 378.676C42.9869 378.676 43.0777 378.641 43.1447 378.578C43.2116 378.516 43.2492 378.432 43.2492 378.344C43.2492 378.256 43.2116 378.171 43.1447 378.109C43.0777 378.047 42.9869 378.012 42.8922 378.012Z" fill="#191919"/>
<path d="M53.1345 446.041C50.0545 443.373 251.682 437.971 391.654 433.564C465.18 431.242 521.227 427.214 522.641 428.274C525.237 430.226 493.446 450.113 490.637 454.63C487.829 459.146 99.3205 495.952 94.5381 493.515C88.7421 490.555 53.4005 446.273 53.1345 446.041Z" fill="#191919"/>
<path d="M534.881 361.813C534.321 358.832 533.595 354.672 530.104 353.482C528.75 353.154 527.318 353.244 526.024 353.739C524.73 354.235 523.645 355.109 522.933 356.229C522.93 354.474 522.875 352.72 522.768 350.968C522.657 350.049 522.325 349.166 521.797 348.383C521.269 347.6 520.557 346.938 519.716 346.446C515.488 343.605 507.48 341.999 496.834 342.439C490.674 342.7 479.581 343.275 476.184 347.646C473.93 350.535 474.524 360.597 474.689 365.705C474.668 369.467 474.931 373.226 475.476 376.954C477.436 387.557 492.015 390.09 501.723 389.496C510.053 388.976 522.219 386.721 522.625 377.037C522.67 375.902 522.969 365.385 522.941 357.614C525.643 356.263 529.561 353.709 531.215 357.788C531.88 359.622 532.279 361.529 532.403 363.461C532.67 364.646 532.663 365.87 532.382 367.052C532.102 368.234 531.554 369.347 530.776 370.318C528.847 372.078 526.741 371.052 524.403 371.416C524.194 371.472 524.007 371.583 523.865 371.735C523.723 371.888 523.631 372.075 523.602 372.275C523.572 372.475 523.605 372.679 523.698 372.862C523.791 373.044 523.938 373.198 524.123 373.304C525.57 374.006 527.224 374.252 528.834 374.004C530.444 373.755 531.924 373.026 533.049 371.927C534.102 370.455 534.81 368.794 535.125 367.051C535.441 365.309 535.357 363.524 534.881 361.813ZM486.861 380.122C486.855 380.329 486.784 380.53 486.658 380.7C486.532 380.87 486.356 381.003 486.15 381.082C485.944 381.161 485.719 381.183 485.5 381.145C485.281 381.108 485.079 381.012 484.917 380.869C479.443 375.316 480.619 365.538 482.064 358.741C482.168 358.43 482.387 358.163 482.682 357.988C482.977 357.813 483.329 357.74 483.676 357.784C484.024 357.827 484.343 357.983 484.578 358.225C484.813 358.466 484.948 358.777 484.959 359.103C484.156 369.664 487.309 375.035 486.861 380.122ZM509.073 354.558C502.146 355.932 486.012 356.609 480.233 352.803C479.113 352.071 477.565 350.2 478.998 349.301C486.903 344.324 500.634 344.217 510.014 345.917C511.694 346.224 519.601 348.599 519.814 350.71C519.99 352.688 510.677 354.24 509.073 354.565V354.558Z" fill="#191919"/>
<path d="M96.1286 348.281C94.6222 344.542 87.7286 344.144 84.1278 343.535C75.4435 342.541 66.6473 342.78 58.0402 344.243C56.4646 344.424 54.9445 344.898 53.5702 345.637C52.1958 346.376 50.9955 347.365 50.0406 348.544C49.3039 350.783 48.759 353.073 48.411 355.393C47.6138 354.451 46.5045 353.781 45.2554 353.486C44.0063 353.19 42.6873 353.287 41.5034 353.761C35.9034 356.445 35.2314 370.37 41.2598 373.6C42.3569 374.005 43.53 374.203 44.7103 374.182C45.8906 374.16 47.0544 373.92 48.1338 373.475C49.7382 383.706 55.4782 389.306 68.9098 389.457C90.8814 389.717 95.1822 384.334 95.7198 381.457C97.481 372.015 98.2958 353.657 96.1286 348.281ZM47.8398 371.156C45.7622 371.187 42.6318 371.937 41.2206 370.521C39.2914 368.553 38.8686 359.865 41.6602 356.505C43.6202 354.143 46.0086 355.778 48.1786 356.999C47.5493 361.695 47.4358 366.439 47.8398 371.156ZM61.5402 380.486C61.5338 380.698 61.4685 380.906 61.3507 381.088C61.2329 381.27 61.0665 381.42 60.8677 381.525C60.6689 381.63 60.4444 381.685 60.2158 381.686C59.9873 381.686 59.7626 381.631 59.5634 381.527C55.9962 379.322 55.019 374.275 54.445 370.594C53.5792 366.577 53.9748 362.413 55.5846 358.6C55.6954 358.433 55.856 358.299 56.0471 358.214C56.2382 358.13 56.4515 358.099 56.6612 358.124C56.8709 358.15 57.068 358.232 57.2288 358.36C57.3895 358.488 57.507 358.656 57.567 358.845C58.155 362.581 57.847 366.34 58.6562 370.083C59.3842 373.468 61.697 377.055 61.5402 380.486ZM92.4998 351.764C90.5874 353.654 84.0522 354.661 71.8526 355.093C66.0818 355.299 54.9658 354.385 52.1658 351.077C49.7774 348.249 60.115 343.178 80.891 345.906C84.1859 346.266 87.4414 346.89 90.621 347.77C92.7686 348.416 94.8546 349.442 92.4998 351.764Z" fill="#191919"/>
<path d="M542.586 303.215C532.601 244.846 500.639 208.036 467.291 192.072C477.955 193.899 488.97 192.055 498.278 186.884C507.966 181.245 515.823 171.631 516.621 160.77C516.884 158.221 516.572 155.648 515.704 153.217C514.836 150.786 513.432 148.55 511.581 146.653C507.79 142.956 492.457 143.68 484.119 126.652C481.198 120.664 489.968 96.5001 467.708 78.5556C454.988 68.2986 431.263 70.7457 419.131 88.0342C415.211 93.6052 414.371 100.061 413.004 106.421C411.758 105.154 410.189 104.199 408.442 103.643C406.694 103.088 404.825 102.951 403.005 103.244C401.185 103.537 399.474 104.251 398.029 105.32C396.584 106.39 395.452 107.78 394.737 109.363C392.193 106.022 388.884 103.247 385.048 101.238C381.212 99.229 376.944 98.0358 372.553 97.7445C363.282 97.242 350.212 102.951 352.785 113.044C349.313 114.204 346.181 116.104 343.64 118.59C341.098 121.077 339.217 124.082 338.148 127.365C337.078 130.648 336.85 134.118 337.48 137.497C338.11 140.877 339.582 144.073 341.778 146.83C344.831 150.597 349.178 153.278 354.098 154.429C353.236 158.768 353.58 161.846 352.27 174.417C351.786 176.052 351.773 177.776 352.23 179.418C353.252 181.3 355.338 180.688 357.156 180.943C365.259 182.06 362.056 195.183 369.369 202.642C371.419 204.771 374.181 206.193 377.209 206.68C361.367 216.572 348.761 256.119 329.657 273.465C317.278 284.708 306.002 283.209 288.92 281.558C284.02 281.087 277.459 278.83 272.876 281.451C270.132 283.013 268.93 286.598 267.536 289.113C265.136 293.432 262.776 297.769 260.374 302.09C260.024 302.715 261.012 303.257 261.39 302.645C263.538 299.13 265.685 295.616 267.886 292.117C269.686 289.28 271.434 283.99 275.018 282.842C278.288 281.8 281.119 283.05 291.238 284.034C295.406 284.475 299.596 284.72 303.79 284.768C306.239 287.979 308.089 291.551 309.264 295.332C309.798 299.286 309.544 303.298 308.517 307.167C307.495 307.034 306.47 306.881 305.437 306.714C305.313 306.682 305.18 306.698 305.069 306.757C304.957 306.817 304.876 306.915 304.842 307.03C304.808 307.146 304.825 307.269 304.889 307.372C304.952 307.476 305.058 307.552 305.182 307.583C326.095 315.039 352.396 307.141 370.422 294.236C374.754 291.128 383.761 283.672 386.572 278.77C390.901 283.045 399.111 287.176 410.675 288.366C412.302 294.447 414.922 300.385 416.616 306.459C418.56 313.446 423.499 334.889 422.496 347.609C421.914 353.634 421.684 359.685 421.808 365.733C391.4 365.421 198.244 365.934 143.488 366.215C143.748 363.593 143.594 361.008 143.829 350.842C146.153 351.072 149.132 347.281 150.983 344.631C155.922 337.55 153.876 339.164 156.723 313.415C178.122 317.247 200.236 315.667 220.754 308.838C220.219 309.497 219.698 310.161 219.216 310.848C219.079 311.073 219.007 311.328 219.007 311.587C219.007 311.846 219.081 312.101 219.219 312.326C219.357 312.551 219.557 312.738 219.797 312.87C220.037 313.001 220.31 313.073 220.588 313.076C225.009 313.158 229.425 312.764 233.748 311.902C234.737 311.673 234.415 310.455 233.522 310.359C230.275 310.093 227.015 310.006 223.758 310.098C226.833 304.893 229.454 299.468 231.598 293.874C232.276 291.948 234.412 284.318 234.485 284.011C238.59 283.987 242.7 284.026 246.782 283.719C249.412 283.526 252.287 284.437 249.053 291.446C245.94 298.188 243.002 304.626 239.48 311.14C239.178 311.702 239.967 312.371 240.468 311.848C241.741 310.53 242.911 309.129 243.968 307.656C243.991 307.699 244.02 307.739 244.052 307.776C251.03 314.43 262.49 315.823 272.052 315.846C277.11 315.882 282.098 314.745 286.565 312.539C291.032 310.334 294.838 307.128 297.639 303.212C298.056 302.585 297.227 301.695 296.519 302.171C289.953 306.469 286.386 313.222 272.075 313.394C262.756 313.509 252.475 312.813 245.094 306.854C244.983 306.76 244.841 306.704 244.691 306.696C247.871 301.856 250.321 296.633 251.971 291.172C252.273 290.222 252.968 288.683 253.46 287.09C255.168 287.153 256.857 287.002 258.573 287.148C260.29 287.293 262.896 287.996 264.59 288.111C264.762 288.106 264.927 288.05 265.062 287.951C265.196 287.853 265.293 287.716 265.338 287.562C265.382 287.408 265.372 287.245 265.309 287.097C265.246 286.948 265.134 286.823 264.988 286.739C261.485 285.284 257.574 284.907 253.824 285.661C254.042 285.031 254.096 284.361 253.982 283.708C253.867 283.054 253.588 282.435 253.166 281.902C252.178 280.978 233.712 279.944 231.928 281.743C221.33 282.17 210.714 281.466 200.288 279.645C186.496 276.992 173.318 272.086 161.368 265.155C160.89 256.697 159.386 237.674 158.596 231.554C157.947 226.493 155.332 213.224 153.775 211.795C153.172 211.322 152.465 210.976 151.704 210.782C150.943 210.588 150.146 210.551 149.368 210.673C148.334 223.689 146.075 239.528 143.902 252.758C128.347 239.331 116.723 222.443 110.126 203.686C110.08 203.571 109.989 203.476 109.872 203.421C109.754 203.365 109.619 203.352 109.492 203.385C109.365 203.418 109.256 203.493 109.186 203.597C109.116 203.701 109.091 203.826 109.115 203.946C114.642 222.986 125.538 240.307 140.676 254.12C155.815 267.932 174.647 277.735 195.226 282.514C206.669 285.334 218.519 286.454 230.338 285.83C230.341 289.028 229.562 292.185 228.059 295.062C227.448 296.465 225.281 301.671 224.699 303.061C206.999 309.53 187.917 312.058 168.979 310.444C142.575 308.005 110.481 293.804 94.9048 279.765C86.0714 271.83 78.5258 262.743 72.5048 252.789C72.1044 252.125 71.0572 252.714 71.4128 253.383C84.1999 277.221 105.726 296.028 132.111 306.412C132.839 320.105 129.902 330.571 132.45 337.49C134.29 342.496 137.731 344.373 140.931 348.164C140.578 354.187 140.556 360.223 140.867 366.249C124.529 366.335 112.077 366.444 106.287 366.577C106.094 366.61 105.919 366.705 105.794 366.845C105.668 366.986 105.6 367.162 105.6 367.345C105.6 367.527 105.668 367.704 105.794 367.844C105.919 367.985 106.094 368.08 106.287 368.113C152.652 370.044 199.247 369.18 245.643 368.982C295.36 368.771 444.891 368.298 469.945 367.852C470.072 367.828 470.186 367.765 470.267 367.672C470.349 367.579 470.394 367.462 470.394 367.342C470.394 367.222 470.349 367.106 470.267 367.013C470.186 366.92 470.072 366.856 469.945 366.832C454.764 366.284 439.575 365.937 424.384 365.791C430.023 348.026 422.144 303.744 413.464 288.624C422.602 289.091 431.759 288.103 440.54 285.703C440.741 285.645 440.914 285.523 441.028 285.357C441.141 285.192 441.188 284.995 441.159 284.8C441.13 284.606 441.027 284.428 440.87 284.297C440.712 284.167 440.51 284.093 440.299 284.089C423.857 284.164 405.019 288.543 390.907 277.919C382.823 271.832 385.405 262.468 386.46 254.083C388.033 245.168 388.948 236.164 389.199 227.134C389.197 226.974 389.134 226.821 389.02 226.701C388.907 226.582 388.751 226.504 388.581 226.483C388.411 226.461 388.239 226.497 388.095 226.584C387.951 226.671 387.846 226.803 387.799 226.957C386.248 232.015 383.358 252.43 382.624 257.311C381.619 264.017 380.821 270.65 384.4 276.141C379.169 281.436 354.532 311.934 311.205 307.495C312.763 303.652 313.123 299.478 312.243 295.453C311.363 291.428 309.278 287.716 306.229 284.745C323.004 284.224 333.232 277.583 347.353 254.971C361.706 232.004 367.815 214.896 382.227 206.706C387.778 205.464 392.843 202.801 396.848 199.018C396.813 202.987 397.169 206.95 397.912 210.858C397.926 211.107 398.043 211.342 398.237 211.514C398.432 211.685 398.69 211.781 398.958 211.781C399.227 211.781 399.485 211.685 399.679 211.514C399.874 211.342 399.99 211.107 400.004 210.858C400.423 206.194 400.14 201.498 399.164 196.907C402.45 194.002 405 190.454 406.629 186.52C407.116 185.007 404.949 184.408 404.07 185.512C401.25 189.723 397.981 193.658 394.312 197.258C380.169 209.168 369.61 205.219 366.337 190.138C365.306 185.403 363.797 179.342 357.676 178.603C357.066 178.527 355.117 178.928 354.63 178.577C353.42 177.723 354.89 171.689 355.022 170.155C355.425 165.154 356.257 159.888 356.128 154.832C366.802 156.472 379.06 151.836 387.67 145.747C392.287 152.471 399.018 152.159 401.751 152.708C402.527 152.842 403.254 153.157 403.862 153.625C404.471 154.092 404.941 154.696 405.229 155.379C405.352 155.725 405.472 156.3 405.646 157.061C404.879 155.737 403.579 154.75 402.031 154.316C400.483 153.882 398.812 154.036 397.386 154.744C396.34 155.455 395.558 156.451 395.148 157.593C394.737 158.736 394.719 159.969 395.096 161.122C395.216 161.997 396.613 162.067 396.624 161.122C396.666 157.907 399.388 154.96 402.348 157.959C406.332 161.997 403.678 166.844 401.482 170.801C401.315 171.079 401.262 171.404 401.331 171.716C401.4 172.028 401.588 172.306 401.859 172.5C402.131 172.694 402.468 172.791 402.81 172.773C403.152 172.755 403.476 172.623 403.722 172.402C405.089 171.184 406.142 169.696 406.802 168.047C407.463 166.397 407.713 164.631 407.536 162.879C411.809 172.537 422.396 180.123 429.452 181.511C429.48 183.14 429.753 184.758 430.264 186.317C434.427 206.117 422.648 219.772 410.062 221.347C406.63 221.848 403.121 221.117 400.248 219.302C397.374 217.487 395.35 214.725 394.586 211.574C394.382 210.553 392.716 210.827 392.693 211.811C392.788 214.933 394.045 217.928 396.25 220.285C398.455 222.642 401.471 224.215 404.784 224.736C412.624 226.272 420.553 222.476 425.994 217.447C434.816 209.296 436.572 196.272 434.441 184.851C500.762 194.941 534.222 261.799 540.054 324.755C540.841 333.374 540.939 342.03 541.858 350.639C541.858 351.045 542.031 351.435 542.34 351.722C542.649 352.009 543.067 352.17 543.504 352.17C543.941 352.17 544.359 352.009 544.668 351.722C544.977 351.435 545.15 351.045 545.15 350.639C547.197 335.069 545.226 318.647 542.586 303.215ZM500.241 148.131C502.335 149.782 504.049 151.809 505.28 154.09C506.51 156.372 507.233 158.861 507.404 161.408C507.558 163.913 507.015 166.412 505.827 168.664C504.64 170.917 502.848 172.847 500.625 174.268C499.267 175.086 498.105 173.542 498.628 172.412C501.941 165.318 504.62 156.319 498.743 149.535C497.906 148.561 499.253 147.22 500.241 148.131ZM353.499 122.333C346.793 123.999 345.76 132.652 347.605 137.286C348.305 139.035 349.635 140.41 350.282 142.154C350.959 144.005 348.655 145.052 347.09 144.432C337.466 140.616 340.865 118.735 353.121 119.761C353.454 119.772 353.773 119.892 354.021 120.1C354.268 120.308 354.429 120.591 354.474 120.899C354.519 121.206 354.446 121.519 354.268 121.781C354.089 122.043 353.817 122.239 353.499 122.333ZM381.779 110.849C379.181 108.807 375.961 107.571 372.57 107.314C370.613 107.386 368.709 107.925 367.042 108.879C365.374 109.833 363.999 111.171 363.05 112.763C362.448 113.752 360.924 112.877 361.431 111.883C366.608 101.623 379.911 103.414 382.958 109.759C383.28 110.423 382.571 111.321 381.784 110.849H381.779ZM433.982 183.016C433.699 182.055 433.189 181.166 432.49 180.412C431.434 168.396 433.799 156.334 439.347 145.437C443.457 136.846 438.49 127.154 432.212 120.018C435.658 122.17 438.514 125.041 440.553 128.402C442.592 131.764 443.756 135.522 443.953 139.376C445.003 151.307 438.353 163.225 443.356 174.945C445.32 179.583 448.669 183.603 453.008 186.53C446.844 184.641 440.455 183.461 433.982 183.016ZM427.64 95.503C427.156 96.3205 425.652 95.7634 426.008 94.86C430.079 84.4156 440.66 77.181 452.888 78.9096C463.718 80.4482 475.12 91.7152 470.654 102.49C470.551 102.798 470.345 103.068 470.066 103.259C469.787 103.45 469.449 103.553 469.102 103.553C468.756 103.553 468.418 103.45 468.139 103.259C467.86 103.068 467.654 102.798 467.551 102.49C466.714 98.451 465.24 94.549 463.175 90.9108C455.237 79.5969 436.432 80.7345 427.64 95.4978V95.503Z" fill="#191919"/>
<path d="M163.163 195.616C163.119 195.485 163.04 195.366 162.933 195.271C162.827 195.176 162.696 195.108 162.553 195.073C162.41 195.039 162.26 195.038 162.117 195.072C161.974 195.106 161.843 195.173 161.735 195.267C160.138 196.327 158.625 197.493 157.207 198.755C157.153 198.623 157.069 198.503 156.961 198.404C155.548 198.333 154.134 198.526 152.803 198.971C150.675 199.752 148.645 205.862 148.754 207.203C148.768 207.849 149.031 208.468 149.493 208.95C150.524 209.934 153.041 209.34 154.085 208.689C156.398 207.226 157.625 201.879 157.426 199.669C158.943 198.966 160.388 198.135 161.743 197.188C164.017 208.955 160.537 213.883 157.776 220.774C157.496 221.482 158.49 221.794 158.985 221.43C162.463 218.897 163.404 213.456 163.863 209.629C164.742 204.967 164.503 200.182 163.163 195.616Z" fill="#191919"/>
<path d="M210.431 97.3764C206.736 94.2587 201.863 92.6282 196.879 92.8414C192.578 93.1018 188.479 94.7288 184.172 95.01C177.603 95.4369 171.326 92.7087 164.852 91.6934C148.727 89.1786 129.06 97.7539 120.971 110.999C117.687 116.406 115.929 122.499 115.862 128.708C115.795 134.917 117.42 141.041 120.587 146.508C122.219 149.2 124.314 152.014 123.866 155.076C123.228 157.17 122.31 159.182 121.133 161.063C118.593 162.964 115.987 164.784 113.383 166.603C111.789 167.72 107.878 169.436 107.15 171.222C106.874 172.065 106.814 172.956 106.973 173.825C97.4731 173.031 84.1787 180.854 77.1227 186.768C46.3423 212.541 26.4091 241.326 17.3315 283.681C15.3279 291.005 14.2205 298.515 14.0303 306.07C14.0419 306.461 14.2028 306.836 14.4842 307.127C14.7656 307.418 15.1492 307.607 15.5665 307.66C15.9837 307.712 16.4075 307.625 16.7621 307.414C17.1167 307.203 17.379 306.882 17.5023 306.507C19.8963 297.802 18.9023 290.671 24.5499 270.488C32.4655 242.19 46.7987 217.985 73.7991 193.758C82.7115 185.758 94.1019 176.787 107.091 175.957C107.196 175.953 107.3 175.933 107.399 175.9C108.896 180.796 110.784 185.582 113.047 190.218C119.19 202.576 129.222 215.634 142.561 221.926C142.684 221.985 142.824 222.007 142.96 221.988C143.097 221.97 143.224 221.911 143.322 221.821C143.421 221.731 143.487 221.615 143.51 221.488C143.533 221.362 143.513 221.232 143.452 221.116C144.048 220.408 143.329 214.028 144.454 209.841C145.47 206.031 147.393 202.481 150.082 199.454C152.459 196.815 141.926 196.575 131.686 182.364C127.739 176.794 125.111 170.506 123.978 163.919C125.311 162.599 126.344 161.043 127.016 159.343C127.687 157.643 127.982 155.835 127.884 154.027C127.562 149.081 124.311 144.801 122.301 140.229C120.566 136.202 119.757 131.881 119.927 127.545C120.097 123.21 121.241 118.955 123.286 115.055C130.787 100.998 150.023 93.1877 163.539 95.4812C169.044 96.4132 174.21 98.9644 179.796 99.2326C187.473 99.6022 195.364 95.6478 202.596 98.0663C211.481 101.037 215.826 112.447 208.143 123.839C200.46 135.231 186.631 138.339 177.029 133.13C176.077 132.609 174.943 131.992 173.949 132.414C172.804 132.898 172.687 134.322 172.46 135.47C171.513 140.185 165.824 143.127 160.686 142.713C157.494 142.004 154.239 141.569 150.961 141.411C148.785 141.662 146.766 142.601 145.245 144.07C143.723 145.539 142.791 147.449 142.603 149.481C142.63 150.306 142.554 151.131 142.377 151.939C141.685 154.134 136.497 158.968 129.628 160.366C126.299 161.045 126.548 163.563 129.477 162.943C134.953 161.768 139.867 158.966 143.477 154.961C143.917 156.486 144.798 157.87 146.023 158.963C147.249 160.056 148.772 160.817 150.429 161.162C151.698 161.423 153.593 160.678 153.036 159.6C152.563 158.689 147.747 157.408 145.851 153.118C145.306 151.992 145.075 150.756 145.179 149.525C145.284 148.294 145.721 147.107 146.45 146.075C147.178 145.042 148.176 144.197 149.349 143.618C150.523 143.039 151.834 142.745 153.162 142.762C155.242 143.092 157.28 143.622 159.241 144.345C162.567 145.086 166.07 144.69 169.108 143.229C172.146 141.769 174.519 139.341 175.792 136.389C181.629 138.935 188.244 139.484 194.473 137.938C192.648 143.913 192.349 150.201 193.6 156.302C194.387 160.595 196.809 165.096 196.173 167.34C195.218 170.701 190.744 169.605 188.151 168.928C187.949 168.878 187.736 168.872 187.531 168.91C187.325 168.948 187.132 169.029 186.965 169.147C186.798 169.265 186.663 169.417 186.569 169.591C186.475 169.765 186.425 169.957 186.423 170.152C187.2 174.946 186.318 179.846 183.903 184.144C182.7 186.17 180.951 187.871 178.829 189.08C176.706 190.289 174.282 190.965 171.793 191.04C168.21 190.544 164.874 189.042 162.234 186.735C159.997 184.721 158.023 182.468 156.354 180.023C156.271 179.901 156.153 179.803 156.012 179.741C155.871 179.68 155.714 179.657 155.56 179.675C155.405 179.694 155.26 179.753 155.141 179.846C155.022 179.939 154.934 180.062 154.887 180.2C153.966 182.822 156.424 185.495 158.695 187.385C157.472 188.522 156.546 189.906 155.99 191.428C152.896 197.887 155.859 198.559 156.662 197.343C157.501 195.788 158.203 194.173 158.762 192.514C159.3 191.309 160.199 190.14 160.63 188.882C163.863 191.569 167.973 193.168 172.3 193.425C184.281 193.131 189.873 181.538 189.305 171.745C190.745 172.155 192.276 172.202 193.741 171.882C195.207 171.562 196.556 170.886 197.649 169.923C198.475 169.17 199.067 168.224 199.363 167.184C199.659 166.144 199.647 165.05 199.329 164.016C197.033 154.868 194.227 152.72 198.108 136.819C214.824 130.425 223.193 107.995 210.431 97.3764ZM147.487 199.152C143.186 204.807 139.473 213.265 141.887 220.046C127.831 210.974 117.322 195.508 111.792 180.534C111.208 178.979 110.716 177.397 110.317 175.793C109.939 174.215 109.286 172.692 110.524 171.537C114.074 168.207 118.476 166.124 121.822 162.631C122.816 177.053 133.162 193.045 147.487 199.152Z" fill="#191919"/>
</svg>
