<svg width="11" height="11" viewBox="0 0 11 11" fill="none" xmlns="http://www.w3.org/2000/svg">
<g clip-path="url(#clip0_2516_8103)">
<path d="M8.25 1.13437C7.45937 0.635937 6.51406 0.34375 5.5 0.34375C4.48594 0.34375 3.54062 0.635937 2.75 1.13437V9.84844C3.54062 10.3469 4.48594 10.6391 5.5 10.6391C6.51406 10.6391 7.45937 10.3469 8.25 9.84844V1.13437Z" fill="#F9F9F9"/>
<path d="M8.25 1.13428V9.84834C9.69375 8.95459 10.6562 7.30459 10.6562 5.48271C10.6562 3.66084 9.69375 2.04521 8.25 1.13428ZM2.75 1.13428C1.30625 2.04521 0.34375 3.69521 0.34375 5.4999C0.34375 7.30459 1.30625 8.95459 2.75 9.86553V1.13428ZM7.37344 5.43115C7.30469 5.39678 7.2875 5.32803 7.30469 5.29365L7.47656 4.6749L6.875 4.79521C6.85781 4.79521 6.78906 4.79521 6.77188 4.6749L6.72031 4.46865L6.30781 4.9499C6.30781 4.9499 6.03281 5.24209 6.11875 4.79521L6.29062 3.8499L5.96406 4.02178C5.94688 4.02178 5.87813 4.03896 5.79219 3.86709L5.5 3.26553L5.19063 3.83271C5.10469 4.00459 5.03594 3.9874 5.01875 3.9874L4.69219 3.81553L4.86406 4.76084C4.95 5.20772 4.675 4.91553 4.675 4.91553L4.2625 4.43428L4.21094 4.64053C4.17656 4.76084 4.125 4.76084 4.10781 4.76084L3.50625 4.64053L3.67812 5.25928C3.67812 5.31084 3.67812 5.3624 3.60938 5.39678L3.4375 5.4999C3.4375 5.4999 4.125 6.0499 4.34844 6.23896C4.4 6.27334 4.50313 6.37646 4.46875 6.49678L4.38281 6.7374L5.32812 6.5999C5.37969 6.5999 5.48281 6.5999 5.46562 6.75459L5.41406 7.73428H5.58594L5.53438 6.75459C5.53438 6.5999 5.6375 6.5999 5.67188 6.5999L6.61719 6.7374L6.53125 6.49678C6.49687 6.37646 6.6 6.27334 6.65156 6.23896C6.875 6.0499 7.5625 5.4999 7.5625 5.4999L7.37344 5.43115Z" fill="#EC1D31"/>
</g>
<defs>
<clipPath id="clip0_2516_8103">
<rect width="11" height="11" fill="white"/>
</clipPath>
</defs>
</svg>
