<svg width="338" height="189" viewBox="0 0 338 189" fill="none" xmlns="http://www.w3.org/2000/svg">
<path d="M167.495 100.826L210.575 101.228L210.577 102.082C210.581 103.834 209.93 105.509 208.768 106.737C207.605 107.965 206.027 108.647 204.379 108.631L162.091 108.236L162.087 106.538C162.085 105.781 162.224 105.033 162.494 104.336C162.765 103.639 163.163 103.007 163.665 102.476C164.167 101.946 164.764 101.527 165.421 101.244C166.078 100.96 166.783 100.818 167.495 100.826Z" fill="#A74602"/>
<path d="M303.542 181.196C312.948 181.289 320.554 172.901 320.53 162.461C320.506 152.02 312.86 143.482 303.454 143.389C294.047 143.297 286.442 151.685 286.466 162.125C286.49 172.566 294.135 181.104 303.542 181.196Z" fill="#A74602"/>
<path d="M289.782 173.296C287.291 169.495 286.147 164.821 286.572 160.177C286.997 155.532 288.959 151.247 292.081 148.148C295.202 145.05 299.261 143.358 303.474 143.399C307.686 143.44 311.753 145.212 314.889 148.372L289.782 173.296Z" fill="black"/>
<path d="M303.509 167.712C306.203 167.739 308.381 165.336 308.375 162.346C308.368 159.356 306.178 156.911 303.484 156.884C300.79 156.858 298.611 159.26 298.618 162.25C298.625 165.24 300.815 167.686 303.509 167.712Z" stroke="white" stroke-width="0.512292" stroke-miterlimit="10"/>
<path d="M148.249 181.011C157.655 181.103 165.261 172.715 165.237 162.275C165.213 151.835 157.567 143.296 148.161 143.204C138.754 143.111 131.149 151.5 131.173 161.94C131.197 172.38 138.842 180.918 148.249 181.011Z" fill="#A74602"/>
<path d="M132.073 155.822C133.351 151.616 135.948 148.064 139.401 145.802C142.854 143.539 146.939 142.712 150.925 143.469C154.911 144.226 158.54 146.517 161.163 149.934C163.786 153.35 165.234 157.669 165.246 162.121L132.073 155.822Z" fill="black"/>
<path d="M148.235 167.527C150.93 167.553 153.108 165.151 153.101 162.161C153.094 159.171 150.904 156.725 148.21 156.699C145.516 156.672 143.338 159.075 143.345 162.065C143.352 165.055 145.541 167.5 148.235 167.527Z" stroke="white" stroke-width="0.512292" stroke-miterlimit="10"/>
<path d="M279.203 71.0884C279.208 73.227 278.527 75.2892 277.281 76.9057C276.034 78.5223 274.305 79.5878 272.401 79.9114C270.498 80.235 268.545 79.7957 266.892 78.6721C265.239 77.5485 263.994 75.8139 263.38 73.7788L277.068 64.999C278.439 66.6697 279.201 68.8426 279.203 71.0884Z" fill="#3F3D56"/>
<path d="M277.067 64.9722L263.382 73.7411C262.788 71.7795 262.82 69.6595 263.47 67.736C264.12 65.8125 265.349 64.2023 266.953 63.1751C268.556 62.1478 270.436 61.7657 272.277 62.0929C274.118 62.42 275.809 63.4365 277.067 64.9722Z" fill="white" stroke="black" stroke-width="0.512292" stroke-miterlimit="10" stroke-linecap="round"/>
<path d="M197.01 159.434L196.892 108.636L165.021 108.325C141.902 108.1 122.71 127.489 120.949 152.858L160.762 153.247C163.441 153.273 166.09 153.92 168.539 155.145C170.988 156.371 173.181 158.147 174.976 160.359L180.784 167.516C181.936 168.937 183.344 170.078 184.917 170.865C186.489 171.651 188.19 172.067 189.91 172.083L269.545 172.86C272.702 172.89 275.8 171.993 278.519 170.26L321.498 142.863C321.498 142.863 316.788 126.231 297.387 130.485L263.98 70.2153C263.37 69.116 262.517 68.2043 261.5 67.5675C260.484 66.9307 259.339 66.5902 258.176 66.5785L251.994 66.5183L252.001 69.8L254.612 69.8255C255.919 69.8378 257.2 70.265 258.3 71.056C259.4 71.8469 260.274 72.9679 260.816 74.2847L281.244 123.954C289.654 144.398 276.19 167.344 255.901 167.146L203.504 166.635C202.653 166.627 201.81 166.434 201.023 166.068C200.236 165.701 199.521 165.168 198.918 164.5C198.315 163.831 197.836 163.039 197.508 162.17C197.181 161.301 197.012 160.371 197.01 159.434Z" fill="white" stroke="black" stroke-width="0.512292" stroke-miterlimit="10" stroke-linecap="round"/>
<path d="M124.906 153.82C126.71 141.403 136.479 131.999 148.281 132.114C161.388 132.242 172.041 144.058 172.075 158.506" stroke="black" stroke-width="0.512292" stroke-miterlimit="10"/>
<path d="M297.523 129.976C292.784 131.446 288.884 134.837 286.694 139.268" stroke="black" stroke-width="0.512292" stroke-miterlimit="10"/>
<path d="M252.382 69.4475C254.255 69.4659 255.77 67.7954 255.765 65.7164C255.761 63.6373 254.238 61.9369 252.365 61.9185C250.491 61.9001 248.977 63.5705 248.981 65.6496C248.986 67.7287 250.509 69.429 252.382 69.4475Z" fill="black"/>
<path d="M255.624 40.0506C257.93 36.5695 258.835 32.9389 257.646 31.9416C256.457 30.9443 253.623 32.9578 251.317 36.4389C249.01 39.92 248.105 43.5505 249.294 44.5479C250.484 45.5452 253.317 43.5317 255.624 40.0506Z" fill="#3F3D56"/>
<path d="M254.783 39.2514C257.163 35.6593 258.096 31.9126 256.869 30.8831C255.641 29.8536 252.716 31.931 250.336 35.5232C247.957 39.1153 247.023 42.8619 248.25 43.8915C249.478 44.921 252.403 42.8436 254.783 39.2514Z" stroke="black" stroke-width="0.512292" stroke-miterlimit="10" stroke-linecap="round"/>
<path d="M261.937 66.61L261.903 52.0553C261.898 50.0718 261.234 48.1523 260.037 46.6669L252.637 37.486" stroke="black" stroke-width="0.512292" stroke-miterlimit="10" stroke-linecap="round"/>
<path d="M196.923 108.965L196.942 117.13L162.078 108.752L162.078 108.744C163.064 108.68 164.059 108.653 165.063 108.664L196.923 108.965Z" fill="black"/>
<path d="M148.223 181.157L337.143 181.383" stroke="black" stroke-width="0.512292" stroke-miterlimit="10"/>
<path d="M212.801 187.934L321.411 188.064" stroke="black" stroke-width="0.512292" stroke-miterlimit="10"/>
<path d="M119.382 162.212C118.375 157.474 115.931 153.223 112.45 150.151C108.969 147.08 104.656 145.371 100.217 145.304C96.4606 145.246 92.7746 144.053 89.5687 141.857C86.3628 139.66 83.7625 136.547 82.0569 132.862L76.5078 120.87C73.8615 115.152 69.542 110.543 64.2468 107.786C58.9515 105.028 52.9897 104.284 47.3238 105.674C41.6579 107.063 36.6187 110.505 33.0198 115.444C29.421 120.382 27.4725 126.529 27.489 132.892L27.5011 137.393C30.5616 137.668 33.5179 138.803 36.0814 140.688C38.6449 142.573 40.7279 145.144 42.127 148.149C40.4618 145.849 38.3487 143.981 35.9455 142.683C33.5423 141.386 30.9108 140.692 28.2474 140.654C28.0008 140.651 27.7542 140.653 27.5098 140.66C22.9377 140.795 18.6204 142.856 15.461 146.412C12.3016 149.968 10.5449 154.743 10.5582 159.739C10.5716 164.734 12.354 169.564 15.5326 173.216C18.7113 176.869 23.0399 179.062 27.6132 179.337L145.638 181.156C129.314 180.903 121.7 173.098 119.382 162.212ZM25.2712 152.949C24.822 152.942 24.3824 152.79 24.0082 152.512C23.6339 152.234 23.3417 151.842 23.1686 151.387C22.9954 150.931 22.9491 150.432 23.0355 149.952C23.1218 149.472 23.337 149.034 23.6537 148.692C23.9705 148.35 24.3746 148.12 24.815 148.031C25.2553 147.942 25.7122 147.998 26.1278 148.192C26.5433 148.386 26.8989 148.71 27.1496 149.121C27.4003 149.533 27.5348 150.014 27.5361 150.504C27.5379 151.162 27.3002 151.789 26.8755 152.248C26.4508 152.706 25.8737 152.959 25.2712 152.949Z" fill="#98C8DB"/>
<path d="M4.41488 180.382C6.64365 180.416 8.44508 178.449 8.43849 175.988C8.4319 173.526 6.61978 171.503 4.39101 171.469C2.16224 171.434 0.360813 173.401 0.367406 175.863C0.373998 178.324 2.18612 180.347 4.41488 180.382Z" fill="#98C8DB"/>
<path d="M253.958 158.234C241.661 161.752 229.157 158.918 225.864 158.044C225.875 158.016 225.886 157.987 225.898 157.958L252.994 96.4038L253.174 154.782C253.179 155.979 253.448 157.164 253.958 158.234Z" fill="black"/>
<path d="M258.899 166.58L258.902 167.62L230.766 166.972C226.676 166.878 223.935 162.472 225.572 158.666C228.863 159.48 241.342 162.117 253.619 158.838C254.073 159.728 254.708 160.509 255.478 161.127L256.788 162.184C257.441 162.707 257.971 163.377 258.338 164.14C258.704 164.902 258.896 165.738 258.899 166.58Z" fill="#A74602" stroke="black" stroke-width="0.512292" stroke-miterlimit="10"/>
<path d="M251.372 102.024L227.666 155.392C227.242 156.35 227.166 157.457 227.454 158.493C227.454 158.493 212.155 164.896 197.902 162.523C197.405 161.551 197.117 160.471 197.063 159.369C197.008 158.267 197.188 157.173 197.588 156.173L217.324 106.263C217.548 105.695 217.639 105.071 217.588 104.446C217.536 103.822 217.345 103.218 217.03 102.687C216.714 102.157 216.286 101.717 215.783 101.408C215.279 101.098 214.717 100.929 214.146 100.914L185.603 100.2C183.036 100.136 180.496 99.4708 178.155 98.2495C175.814 97.0281 173.726 95.2789 172.03 93.1192L210.524 75.022L236.427 75.6699C248.617 75.9736 256.649 90.1374 251.372 102.024Z" fill="white" stroke="black" stroke-width="0.512292" stroke-miterlimit="10" stroke-linecap="round"/>
<path d="M220.173 82.0323C232.384 82.338 240.433 96.6984 235.147 108.747L211.404 162.866" stroke="black" stroke-width="0.512292" stroke-miterlimit="10" stroke-linecap="round" stroke-dasharray="2.05 2.05"/>
<path d="M231.878 167.588L203.516 166.941C202.352 166.919 201.208 166.577 200.202 165.952C199.197 165.326 198.366 164.44 197.799 163.385C212.041 165.59 227.33 159.602 227.33 159.602C227.533 160.292 227.912 160.918 228.428 161.415L229.818 162.76C230.465 163.383 230.982 164.134 231.337 164.965C231.691 165.796 231.875 166.689 231.878 167.588Z" fill="white" stroke="black" stroke-width="0.512292" stroke-miterlimit="10"/>
<path d="M217.391 17.6712L214.023 22.7615C211.946 21.1777 209.486 20.2998 206.972 20.2441L201.741 20.1191C201.459 20.1124 201.178 20.1105 200.897 20.1133L208.256 13.0517L217.391 17.6712Z" fill="white" stroke="black" stroke-width="0.512292" stroke-miterlimit="10" stroke-linecap="round"/>
<path d="M219.996 8.01932L220.837 13.5921C220.87 13.8976 220.802 14.2031 220.643 14.4516C220.485 14.7001 220.248 14.8746 219.977 14.9425L219.908 14.959C219.637 15.0248 219.393 15.1792 219.208 15.4019C219.023 15.6246 218.905 15.9052 218.869 16.2069L218.654 18.0471C218.609 18.4271 218.428 18.7682 218.15 18.9959C217.873 19.2236 217.522 19.3194 217.174 19.2624C215.274 18.9384 211.894 17.858 210.948 14.2458C209.611 9.13746 214.531 7.8824 214.531 7.8824L219.996 8.01932Z" fill="white" stroke="black" stroke-width="0.512292" stroke-miterlimit="10" stroke-linecap="round"/>
<path d="M215.783 9.69874C215.783 9.69874 216.855 9.0643 217.803 9.06885" stroke="black" stroke-width="0.512292" stroke-miterlimit="10" stroke-linecap="round"/>
<path d="M217.226 12.1459C217.416 12.1506 217.568 11.8532 217.567 11.4816C217.566 11.1101 217.412 10.8051 217.222 10.8004C217.033 10.7958 216.88 11.0932 216.881 11.4647C216.882 11.8363 217.037 12.1413 217.226 12.1459Z" fill="black"/>
<path d="M218.829 16.2596C217.539 16.2283 217.262 14.8541 217.262 14.8541" stroke="black" stroke-width="0.512292" stroke-miterlimit="10" stroke-linecap="round"/>
<path d="M207.62 11.9869L207.468 11.6205C206.731 9.86202 206.656 7.87369 207.258 6.09218C207.861 4.31067 209.091 2.88163 210.681 2.11891L211.528 1.71171C212.282 1.349 213.105 1.17184 213.937 1.19246C214.77 1.21307 215.593 1.43097 216.35 1.8311C217.107 2.23124 217.78 2.80407 218.321 3.51002C218.863 4.21598 219.262 5.03823 219.489 5.91998L220.013 7.9516L215.842 7.84953C215.305 7.83638 214.79 8.05711 214.412 8.46316C214.033 8.86921 213.821 9.42733 213.823 10.0147L213.825 10.7522C213.828 11.633 213.51 12.4699 212.942 13.0787C212.374 13.6876 211.603 14.0185 210.797 13.9988L210.387 13.9888C209.806 13.9747 209.236 13.7786 208.746 13.4237C208.255 13.0689 207.865 12.5702 207.62 11.9869Z" fill="black"/>
<path d="M215.899 20.4099C215.869 20.4089 215.839 20.4061 215.809 20.4016C215.132 20.2927 213.629 19.8032 212.289 18.6577C210.663 17.2662 209.859 15.4 209.961 13.2626C209.972 13.0537 210.057 12.8599 210.199 12.7238C210.341 12.5877 210.528 12.5205 210.719 12.537C210.909 12.5534 211.088 12.6522 211.216 12.8115C211.344 12.9708 211.41 13.1777 211.4 13.3866C211.215 17.2374 215.028 18.6924 215.983 18.8373C216.174 18.8547 216.353 18.9544 216.48 19.1144C216.607 19.2744 216.672 19.4816 216.661 19.6904C216.65 19.8993 216.564 20.0927 216.421 20.2281C216.279 20.3635 216.092 20.4297 215.901 20.4123L215.899 20.4099Z" fill="black"/>
<path d="M210.721 13.2362C211.707 13.2605 212.504 12.4039 212.501 11.3229C212.498 10.242 211.695 9.34607 210.708 9.32179C209.722 9.29751 208.925 10.1541 208.928 11.235C208.931 12.3159 209.734 13.2119 210.721 13.2362Z" stroke="white" stroke-width="0.512292" stroke-miterlimit="10"/>
<path d="M214.956 7.91754C214.096 8.06667 216.739 6.92344 218.599 5.89173C218.485 5.55524 218.426 5.20113 218.425 4.8457C218.42 3.0932 219.784 1.70624 221.47 1.74689C223.157 1.78753 224.53 3.24046 224.535 4.99296C224.541 6.74545 223.177 8.13122 221.489 8.09055L214.956 7.91754Z" fill="#3F3D56"/>
<path d="M226.454 5.83012C227.047 5.84445 227.527 5.32847 227.525 4.67763C227.523 4.0268 227.04 3.48757 226.446 3.47323C225.853 3.45889 225.373 3.97487 225.375 4.62571C225.377 5.27654 225.86 5.81578 226.454 5.83012Z" fill="#3F3D56"/>
<path d="M240.656 74.9584C240.656 74.9584 212.872 91.4456 197.884 80.109C197.884 80.109 183.648 90.5726 172.158 92.5367L172.079 62.8452C172.062 56.5965 174.568 47.3165 177.326 39.0064C179.163 33.4774 182.503 28.7331 186.895 25.4144C191.287 22.0957 196.519 20.3623 201.885 20.4485L207.123 20.5313C210.43 20.5835 213.606 22.0836 215.951 24.7015C218.297 27.3194 219.62 30.8407 219.63 34.4907L219.672 50.2694C219.673 50.7513 219.771 51.2287 219.958 51.6676C220.145 52.1065 220.416 52.4961 220.753 52.8087C221.091 53.1212 221.485 53.349 221.908 53.4757C222.331 53.6024 222.773 53.6249 223.201 53.5416L239.828 50.3118C238.468 51.7556 237.472 56.9992 237.487 62.6655C237.502 69.3489 238.922 74.931 240.656 74.9584Z" fill="#3F3D56"/>
<path d="M243.171 62.3333C243.189 69.0832 241.794 74.6761 240.055 74.6486C238.316 74.6211 236.891 68.9836 236.873 62.2338C236.855 55.4839 238.25 49.9502 239.989 49.9777C241.728 50.0052 243.153 55.5835 243.171 62.3333Z" fill="white" stroke="#3F3D56" stroke-width="0.512292" stroke-miterlimit="10"/>
<path d="M259.24 55.975L259.272 67.9567L257.737 67.9327C257.221 67.9246 256.726 67.6905 256.36 67.2819C255.994 66.8734 255.787 66.3238 255.786 65.7541C255.783 64.7609 255.423 63.8028 254.786 63.0904C254.148 62.3779 253.285 61.9694 252.385 61.9546C251.486 61.9415 250.625 62.323 249.991 63.0154C249.356 63.7078 249.002 64.6545 249.004 65.6477C249.007 66.8177 248.802 67.973 248.399 69.0477C247.997 70.1223 247.405 71.0952 246.658 71.9108C245.911 72.7263 245.023 73.3686 244.046 73.8008C243.068 74.233 242.019 74.4468 240.959 74.4298L240.606 74.4243L240.523 74.423C238.828 74.2217 237.452 68.7104 237.434 62.1282C237.426 59.1138 237.705 56.3446 238.171 54.215L242.315 52.1491L244.63 50.9954C245.822 50.4015 247.163 50.2549 248.451 50.5776L256.838 52.6763C257.515 52.8465 258.123 53.2667 258.56 53.867C258.997 54.4673 259.237 55.2113 259.24 55.975Z" fill="white" stroke="black" stroke-width="0.512292" stroke-miterlimit="10" stroke-linecap="round"/>
<path d="M251.355 55.923L256.83 57.2962C257.508 57.4668 258.116 57.8891 258.554 58.4923C258.991 59.0955 259.231 59.8432 259.233 60.6104L259.252 67.7433" stroke="black" stroke-width="0.512292" stroke-miterlimit="10" stroke-linecap="round"/>
<path d="M243.721 62.3383C243.739 69.087 242.345 74.6767 240.607 74.6492L240.523 74.6479C238.823 74.4447 237.444 68.8839 237.426 62.2425C237.418 59.201 237.697 56.407 238.164 54.2582L242.319 52.1738C243.156 54.4073 243.71 58.1466 243.721 62.3383Z" fill="black"/>
<path d="M199.719 82.0652C194.434 78.1619 189.368 71.8198 190.814 52.9395" stroke="white" stroke-width="0.512292" stroke-miterlimit="10" stroke-linecap="round"/>
<path d="M199.313 82.2095C190.215 93.2237 172.123 93.1355 172.123 93.1355L172.066 71.8985C172.804 86.0719 192.195 78.9519 194.797 77.9389C196.124 79.7096 197.748 81.0548 199.313 82.2095Z" fill="black"/>
<path d="M201.709 20.06L201.71 20.4412C195.617 20.6984 189.8 23.155 185.146 27.4369C180.492 31.7189 177.255 37.5918 175.928 44.1616L172.124 62.999L172.008 19.5917L201.709 20.06Z" fill="black"/>
<path d="M172.036 20.5789L172.232 93.531L140.672 93.0325C136.021 92.9591 132.118 89.0118 131.159 83.8109C131.009 83.0037 130.932 82.1831 130.931 81.3618L130.797 31.4433C130.797 31.4175 130.796 31.3905 130.796 31.3635C130.798 30.1065 130.975 28.8607 131.321 27.6703C132.628 23.1878 136.227 20.0134 140.473 20.0804L172.036 20.5789Z" fill="white" stroke="black" stroke-width="0.512292" stroke-miterlimit="10" stroke-linecap="round"/>
<path d="M172.107 81.7538L172.115 84.983L131.144 84.4338C130.995 83.7766 130.919 83.1071 130.917 82.4366L130.914 81.2017L172.107 81.7538Z" fill="black"/>
<path d="M172.079 28.2776L172.087 31.5068L130.903 30.9548C130.905 29.8582 131.082 28.7714 131.428 27.7327L172.079 28.2776Z" fill="black"/>
<path d="M171.733 32.8982L131.223 32.5936L131.223 32.9561L171.734 33.2607L171.733 32.8982Z" fill="#98C8DB"/>
<path d="M153.743 67.1364L153.689 47.1846C153.689 46.9957 153.757 46.8156 153.878 46.6839C153.999 46.5522 154.164 46.4797 154.335 46.4824C154.507 46.4851 154.672 46.5627 154.794 46.6982C154.916 46.8337 154.985 47.016 154.985 47.2049L155.007 55.5477" stroke="#98C8DB" stroke-width="0.512292" stroke-miterlimit="10"/>
<path d="M153.742 67.1125L153.711 55.5319L156.59 55.5775L156.607 61.7008C156.61 62.8127 156.346 63.9004 155.843 64.8516C155.339 65.8029 154.614 66.5833 153.742 67.1125Z" stroke="#98C8DB" stroke-width="0.512292" stroke-miterlimit="10"/>
<path d="M150.362 46.523L150.67 50.4322C150.694 50.7434 150.66 51.0556 150.57 51.3492C150.479 51.6429 150.334 51.9115 150.145 52.138C149.955 52.3646 149.724 52.5443 149.466 52.6656C149.209 52.787 148.931 52.8474 148.649 52.8431C148.367 52.8387 148.089 52.7696 147.831 52.6402C147.572 52.5108 147.34 52.3238 147.149 52.0912C146.958 51.8585 146.812 51.5853 146.72 51.2887C146.628 50.9921 146.592 50.6787 146.615 50.3683L146.9 46.4683" stroke="#3F3D56" stroke-width="0.512292" stroke-miterlimit="10" stroke-linecap="round"/>
<path d="M148.625 46.466L148.629 56.2148" stroke="#3F3D56" stroke-width="0.512292" stroke-miterlimit="10" stroke-linecap="round"/>
<path d="M148.866 56.3867L148.422 56.3797C148.15 56.3754 147.93 56.6164 147.931 56.918L147.957 66.5849C147.958 66.8864 148.179 67.1344 148.451 67.1387L148.895 67.1457C149.167 67.15 149.386 66.909 149.386 66.6074L149.36 56.9405C149.359 56.639 149.138 56.391 148.866 56.3867Z" stroke="#3F3D56" stroke-width="0.512292" stroke-miterlimit="10" stroke-linecap="round"/>
</svg>
