<svg width="25" height="25" viewBox="0 0 25 25" fill="none" xmlns="http://www.w3.org/2000/svg">
<path d="M25 18.75C25 19.4867 24.7073 20.1933 24.1864 20.7142C23.6655 21.2351 22.9589 21.5278 22.2222 21.5278H2.77778C2.04107 21.5278 1.33453 21.2351 0.813592 20.7142C0.292658 20.1933 0 19.4867 0 18.75V6.25001C0 5.51329 0.292658 4.80676 0.813592 4.28582C1.33453 3.76489 2.04107 3.47223 2.77778 3.47223H22.2222C22.9589 3.47223 23.6655 3.76489 24.1864 4.28582C24.7073 4.80676 25 5.51329 25 6.25001V18.75Z" fill="#DE2910"/>
<path d="M7.73328 6.23403L8.24439 6.48125L8.65342 6.0882L8.57633 6.6507L9.07633 6.91875L8.518 7.01875L8.418 7.57708L8.14995 7.07708L7.58745 7.15417L7.9805 6.74514L7.73328 6.23403ZM10.9729 8.27639L10.7256 8.78681L11.1187 9.19653L10.5569 9.11875L10.2888 9.61945L10.1888 9.06042L9.62981 8.96042L10.1305 8.69236L10.0527 8.13056L10.4624 8.52361L10.9729 8.27639ZM10.3083 10.9007L10.4944 11.4368L11.0618 11.4486L10.6097 11.791L10.7743 12.3347L10.3083 12.0104L9.84231 12.3347L10.0062 11.791L9.55411 11.4486L10.1215 11.4368L10.3083 10.9007ZM7.73328 13.1785L8.24439 13.4257L8.65342 13.0326L8.57633 13.5951L9.07633 13.8632L8.518 13.9632L8.418 14.5215L8.14995 14.0215L7.58745 14.0986L7.9805 13.6896L7.73328 13.1785ZM4.86106 7.60486L5.5062 9.45972L7.4687 9.5L5.90411 10.6861L6.47286 12.5653L4.86106 11.4438L3.24925 12.5653L3.818 10.6861L2.25342 9.5L4.21592 9.45972L4.86106 7.60486Z" fill="#FFDE02"/>
</svg>
