<svg width="25" height="25" viewBox="0 0 25 25" fill="none" xmlns="http://www.w3.org/2000/svg">
<g clip-path="url(#clip0_75_7730)">
<path d="M2.77778 21.5278H22.2222C22.9589 21.5278 23.6655 21.2351 24.1864 20.7142C24.7073 20.1933 25 19.4867 25 18.75V7.81251L2.23264 21.4729C2.40903 21.5076 2.59097 21.5278 2.77778 21.5278ZM22.2222 3.47223H2.77778C2.04107 3.47223 1.33453 3.76489 0.813592 4.28582C0.292658 4.80676 0 5.51329 0 6.25001L0 17.1875L22.7674 3.52709C22.5879 3.49114 22.4053 3.47277 22.2222 3.47223ZM6.6875 11.125L4.5625 9.50001L2.4375 11.125L3.25 8.50001L1.125 6.87501H3.75L4.5625 4.25001L5.375 6.87501H8L5.875 8.50001L6.6875 11.125Z" fill="#007FFF"/>
<path d="M5.375 6.87499L4.5625 4.24999L3.75 6.87499H1.125L3.25 8.49999L2.4375 11.125L4.5625 9.49999L6.6875 11.125L5.875 8.49999L8 6.87499H5.375ZM2.23264 21.4729L25 7.81249V6.87499L1.30069 21.0944C1.58264 21.2722 1.89514 21.4055 2.23264 21.4729ZM22.7674 3.52707L0 17.1875V18.125L23.6993 3.90554C23.4145 3.72337 23.0986 3.59509 22.7674 3.52707Z" fill="#F7D618"/>
<path d="M23.6993 3.90555L0 18.125V18.75C0 19.7396 0.521528 20.6028 1.30069 21.0944L25 6.87499V6.24999C24.9995 5.78104 24.8799 5.3199 24.6523 4.90983C24.4248 4.49976 24.0969 4.1542 23.6993 3.90555Z" fill="#CE1021"/>
</g>
<defs>
<clipPath id="clip0_75_7730">
<rect width="25" height="25" fill="white"/>
</clipPath>
</defs>
</svg>
