<svg width="310" height="310" viewBox="0 0 310 310" fill="none" xmlns="http://www.w3.org/2000/svg">
<path d="M85.0387 78.2187C74.9045 90.6057 96.3179 119.344 96.3179 119.344C121.657 78.7826 95.1853 65.8255 85.0387 78.2187ZM94.9041 92.3053C93.4846 92.3053 92.1233 91.7414 91.1196 90.7377C90.1158 89.7339 89.5519 88.3726 89.5519 86.9531C89.5519 82.1448 96.0691 80.0002 99.0944 83.6821C99.8576 84.5988 100.264 85.7605 100.238 86.9531C100.213 88.3617 99.6441 89.7062 98.6496 90.7041C97.6551 91.702 96.3127 92.2759 94.9041 92.3053Z" fill="#F55555"/>
<path d="M248.741 274.135C243.709 274.324 238.673 274.413 233.639 274.49C226.71 274.594 219.78 274.663 212.849 274.699C204.563 274.751 196.276 274.78 187.988 274.787C178.858 274.799 169.728 274.799 160.6 274.787C151.261 274.772 141.923 274.746 132.586 274.711C123.556 274.677 114.527 274.637 105.497 274.589C97.3009 274.546 89.1037 274.499 80.9054 274.447C74.1657 274.404 67.4255 274.358 60.6848 274.308C55.9043 274.274 51.1243 274.238 46.3448 274.2C44.1245 274.181 41.8965 274.109 39.6762 274.144H39.3903C39.2309 274.144 39.078 274.208 38.9653 274.32C38.8526 274.433 38.7893 274.586 38.7893 274.745C38.7893 274.905 38.8526 275.058 38.9653 275.17C39.078 275.283 39.2309 275.346 39.3903 275.346L43.9839 275.384C48.1824 275.419 52.3794 275.452 56.5748 275.482C62.8829 275.529 69.191 275.573 75.4991 275.615C83.3987 275.668 91.2987 275.716 99.1993 275.759C108.068 275.808 116.937 275.852 125.807 275.889C135.119 275.928 144.432 275.958 153.747 275.978C162.99 275.998 172.232 276.006 181.472 276.003C190.007 276.003 198.543 275.982 207.078 275.94C214.418 275.904 221.759 275.845 229.1 275.762C234.628 275.694 240.158 275.608 245.685 275.453C246.704 275.423 247.722 275.39 248.741 275.353C249.512 275.308 249.515 274.107 248.741 274.135ZM42.8328 278.96C41.3363 279.316 39.8038 279.499 38.2655 279.504C36.0112 279.611 33.7523 279.612 31.498 279.585C27.1817 279.518 22.8673 279.359 18.5578 279.107C17.6308 279.055 16.7037 279.002 15.7767 278.939C15.0041 278.888 15.0041 280.088 15.7767 280.139C18.3771 280.314 20.9805 280.448 23.584 280.555C28.2657 280.754 32.9674 280.91 37.6521 280.731C39.5045 280.741 41.3516 280.534 43.1557 280.113C43.2957 280.06 43.4107 279.956 43.478 279.822C43.5454 279.688 43.5604 279.534 43.5199 279.389C43.4795 279.245 43.3866 279.121 43.2595 279.042C43.1324 278.962 42.9802 278.933 42.8328 278.96ZM301.059 214.493C297.969 214.68 294.879 214.771 291.797 214.847C287.546 214.952 283.299 215.012 279.043 215.055C273.96 215.108 268.877 215.137 263.793 215.144C258.194 215.157 252.594 215.157 246.993 215.144C241.266 215.128 235.538 215.102 229.809 215.066C224.271 215.032 218.733 214.992 213.195 214.944C208.166 214.903 203.137 214.856 198.108 214.802C193.975 214.759 189.841 214.713 185.706 214.665C182.773 214.63 179.841 214.593 176.91 214.555C175.548 214.538 174.181 214.481 172.818 214.499H172.644C172.49 214.507 172.345 214.574 172.239 214.685C172.132 214.797 172.073 214.945 172.073 215.099C172.073 215.254 172.132 215.402 172.239 215.514C172.345 215.625 172.49 215.692 172.644 215.7L175.462 215.738C178.037 215.772 180.612 215.805 183.187 215.836C187.057 215.884 190.927 215.929 194.796 215.97C199.637 216.021 204.483 216.068 209.333 216.114C214.774 216.162 220.214 216.205 225.654 216.242C231.368 216.28 237.081 216.31 242.794 216.332C248.459 216.352 254.128 216.361 259.799 216.358C265.036 216.358 270.272 216.337 275.507 216.295C280.009 216.259 284.513 216.208 289.015 216.117C292.407 216.047 295.8 215.962 299.188 215.8C299.812 215.77 300.437 215.737 301.062 215.7C301.827 215.647 301.833 214.445 301.059 214.493ZM301.059 234.507C297.969 234.694 294.879 234.785 291.797 234.862C287.546 234.967 283.299 235.026 279.043 235.071C273.96 235.122 268.877 235.151 263.793 235.159C258.194 235.171 252.594 235.171 246.993 235.159C241.266 235.143 235.538 235.118 229.809 235.083C224.271 235.049 218.733 235.008 213.195 234.961C208.166 234.918 203.137 234.87 198.108 234.819C193.975 234.775 189.841 234.729 185.706 234.68C182.773 234.646 179.841 234.61 176.91 234.571C175.548 234.553 174.181 234.497 172.818 234.516H172.644C172.484 234.516 172.331 234.579 172.219 234.692C172.106 234.805 172.043 234.958 172.043 235.117C172.043 235.276 172.106 235.429 172.219 235.542C172.331 235.655 172.484 235.718 172.644 235.718L175.462 235.755C178.037 235.791 180.612 235.824 183.187 235.854C187.057 235.9 190.927 235.945 194.796 235.987C199.637 236.039 204.483 236.087 209.333 236.13C214.774 236.18 220.214 236.223 225.654 236.26C231.368 236.298 237.081 236.328 242.794 236.35C248.459 236.37 254.128 236.379 259.799 236.375C265.036 236.375 270.272 236.354 275.507 236.311C280.009 236.276 284.513 236.225 289.015 236.134C292.407 236.066 295.8 235.979 299.188 235.825C299.812 235.795 300.437 235.761 301.062 235.724C301.827 235.661 301.833 234.46 301.059 234.507ZM301.059 252.521C297.112 252.961 293.11 253.008 289.142 253.083C283.36 253.191 277.577 253.194 271.794 253.165C265.683 253.135 259.572 253.069 253.46 252.967C248.503 252.89 243.546 252.796 238.588 252.686C236.271 252.637 233.937 252.482 231.621 252.522H231.529C231.375 252.53 231.23 252.597 231.123 252.709C231.017 252.82 230.958 252.968 230.958 253.123C230.958 253.277 231.017 253.425 231.123 253.537C231.23 253.648 231.375 253.715 231.529 253.723C233.43 253.772 235.332 253.818 237.233 253.859C241.95 253.962 246.667 254.054 251.385 254.135C257.435 254.238 263.486 254.312 269.536 254.355C275.437 254.393 281.339 254.403 287.24 254.316C291.509 254.254 295.798 254.2 300.052 253.823C300.389 253.792 300.724 253.76 301.059 253.723C301.815 253.636 301.827 252.434 301.059 252.521ZM184.906 211.336L184.935 211.366C184.989 211.417 185.052 211.457 185.121 211.483C185.19 211.51 185.264 211.522 185.338 211.52L194.419 211.55C201.788 211.571 209.156 211.591 216.524 211.608C225.606 211.63 234.688 211.645 243.77 211.655C252.129 211.664 260.488 211.661 268.846 211.647C273.855 211.636 278.869 211.656 283.876 211.542C284.133 211.542 284.389 211.53 284.649 211.52C284.807 211.516 284.957 211.451 285.069 211.339C285.181 211.228 285.246 211.077 285.25 210.919L285.329 206.378C285.398 202.296 285.468 198.213 285.54 194.13L285.849 175.898L286.231 153.803L286.653 129.445L287.076 105.023L287.477 82.1064L287.81 62.8623L288.051 48.9287C288.088 46.7439 288.172 44.5545 288.164 42.3698V42.0839C288.162 41.9254 288.098 41.7739 287.986 41.6617C287.874 41.5494 287.723 41.4853 287.565 41.4829H197.895C193.777 41.4829 189.635 41.35 185.519 41.4829H185.341C185.183 41.4853 185.031 41.5494 184.919 41.6617C184.807 41.7739 184.744 41.9254 184.742 42.0839V204.071C184.742 206.259 184.702 208.452 184.742 210.638V210.925C184.739 211.002 184.752 211.077 184.781 211.148C184.809 211.219 184.851 211.283 184.906 211.336ZM185.942 206.378V44.6318C185.942 43.9937 185.986 43.3308 185.958 42.6865H286.03C286.322 42.6865 286.648 42.7159 286.957 42.7159L286.889 46.628C286.82 50.7102 286.75 54.7923 286.678 58.8744L286.369 77.1065L285.987 99.2013L285.565 123.56L285.143 147.981L284.746 170.909L284.413 190.153L284.172 204.087L284.097 208.39C284.087 209.033 284.032 209.699 284.049 210.346C279.824 210.477 275.589 210.439 271.361 210.453C263.273 210.477 255.184 210.483 247.092 210.47C237.969 210.463 228.846 210.45 219.723 210.428C211.997 210.41 204.277 210.39 196.563 210.368L189.074 210.344C188.041 210.344 186.987 210.286 185.948 210.318L185.942 206.378Z" fill="#ACEAC7"/>
<path d="M267.01 136.609C267.935 137.281 269.033 137.673 270.174 137.741C271.316 137.809 272.452 137.548 273.45 136.99C274.478 136.424 275.323 135.574 275.883 134.543C276.444 133.511 276.697 132.341 276.613 131.17C276.459 128.466 274.657 125.526 271.769 125.209C271.678 125.193 271.583 125.204 271.498 125.241C271.413 125.278 271.34 125.339 271.289 125.416C271.266 125.28 271.2 125.154 271.1 125.059C271 124.963 270.871 124.903 270.734 124.886C267.964 124.535 265.685 127.261 264.954 129.657C264.562 130.889 264.548 132.21 264.915 133.449C265.281 134.688 266.011 135.789 267.01 136.609ZM265.895 130.932C266.193 128.676 268.163 125.762 270.734 126.087C270.824 126.105 270.918 126.096 271.003 126.06C271.088 126.025 271.16 125.966 271.211 125.889C271.234 126.025 271.301 126.15 271.402 126.244C271.503 126.338 271.632 126.396 271.769 126.41C273.804 126.634 275.127 128.896 275.374 130.736C275.523 131.648 275.419 132.584 275.073 133.442C274.728 134.3 274.154 135.046 273.415 135.601C272.688 136.127 271.832 136.446 270.938 136.524C270.045 136.603 269.147 136.438 268.339 136.048C267.471 135.533 266.775 134.772 266.34 133.861C265.905 132.95 265.75 131.931 265.895 130.932Z" fill="#ACEAC7"/>
<path d="M301.06 29.8809H172.646C172.487 29.8825 172.335 29.9463 172.223 30.0587C172.11 30.1711 172.047 30.323 172.045 30.4819L172.158 35.2578L172.467 48.2582L172.916 67.4065L173.466 90.759L174.069 116.428L174.679 142.339L175.246 166.495L175.725 186.834L176.068 201.468C176.124 203.786 176.143 206.103 176.232 208.421V208.718C176.24 208.871 176.307 209.017 176.418 209.123C176.53 209.229 176.678 209.288 176.832 209.288C176.987 209.288 177.135 209.229 177.246 209.123C177.358 209.017 177.425 208.871 177.433 208.718L177.32 203.94L177.011 190.94L176.56 171.791L176.011 148.439C175.805 139.883 175.604 131.327 175.407 122.772C175.201 114.135 174.998 105.498 174.798 96.8606L174.23 72.7046L173.752 52.365L173.419 37.733L173.31 33.1611C173.295 32.4797 173.33 31.7705 173.278 31.0768H299.056C299.498 31.0768 299.983 31.1231 300.437 31.1077L300.266 35.3551L299.73 48.5703L298.939 68.1003L297.97 92.009L296.916 118.018L295.845 144.448C295.513 152.634 295.181 160.82 294.85 169.007L294.008 189.762C293.807 194.753 293.606 199.743 293.403 204.733C293.307 207.078 293.157 209.43 293.117 211.778C293.117 211.88 293.117 211.984 293.104 212.087C293.074 212.86 294.274 212.86 294.305 212.087L294.503 207.21L295.039 193.994C295.302 187.483 295.565 180.973 295.83 174.464L296.799 150.554L297.853 124.547L298.923 98.1168L299.918 73.5498L300.759 52.793L301.366 37.8242C301.46 35.4772 301.612 33.1256 301.652 30.7786C301.652 30.675 301.66 30.5731 301.664 30.4695C301.659 30.3124 301.593 30.1633 301.481 30.0536C301.368 29.9439 301.217 29.882 301.06 29.8809Z" fill="#ACEAC7"/>
<path d="M126.602 254.386C125.673 253.61 124.53 253.139 123.325 253.034C122.12 252.929 120.912 253.197 119.864 253.8C117.581 254.947 115.743 256.817 114.635 259.118C112.262 263.977 113.399 269.429 117.161 271.27C118.026 271.696 118.978 271.917 119.942 271.916C120.714 271.912 121.48 271.779 122.207 271.522C124.894 270.46 127.072 268.409 128.294 265.791C129.183 263.939 129.498 261.862 129.196 259.829C128.895 257.796 127.991 255.9 126.602 254.386ZM216.668 254.386C215.74 253.61 214.596 253.139 213.391 253.034C212.186 252.929 210.978 253.197 209.93 253.8C207.648 254.947 205.809 256.817 204.701 259.118C202.327 263.977 203.465 269.429 207.228 271.27C208.093 271.696 209.045 271.917 210.009 271.916C210.781 271.912 211.546 271.779 212.274 271.522C214.961 270.461 217.138 268.41 218.359 265.791C218.561 265.374 218.734 264.943 218.876 264.501C219.461 262.774 219.565 260.919 219.176 259.137C218.787 257.355 217.92 255.712 216.668 254.386Z" fill="#7D4AB4"/>
<path d="M102.28 94.9813C101.165 97.0737 100.542 99.3925 100.457 101.762C100.373 104.131 100.829 106.488 101.792 108.655C102.754 110.821 104.198 112.74 106.013 114.265C107.827 115.791 109.966 116.882 112.266 117.458C114.566 118.033 116.967 118.077 119.286 117.585C121.605 117.094 123.782 116.081 125.651 114.623C127.521 113.165 129.033 111.3 130.074 109.17C131.115 107.04 131.656 104.701 131.658 102.33C131.658 86.6332 109.726 81.0585 102.28 94.9813Z" fill="#6DD3A8"/>
<path d="M37.2957 182.821L37.3822 181.988C37.461 181.216 36.2605 181.225 36.1817 181.988C35.7923 185.785 35.3381 189.573 34.8962 193.363C34.1854 199.462 33.4644 205.559 32.7331 211.653C31.9389 218.329 31.1401 225.005 30.3366 231.678C29.6691 237.222 28.9996 242.766 28.328 248.308L27.6837 253.634C27.6003 254.32 27.4643 255.025 27.4087 255.726C25.4065 256.046 23.3809 256.196 21.3534 256.174C21.4431 250.785 21.5543 245.396 21.6872 240.008C21.8427 233.331 22.0106 226.655 22.1909 219.981C22.3629 213.491 22.5406 207.002 22.7239 200.512C22.8661 195.481 23.0108 190.449 23.1581 185.417C23.2215 183.254 23.3698 181.081 23.3605 178.927C24.1342 178.768 24.8903 178.532 25.6179 178.224C27.746 177.353 29.6518 176.015 31.1957 174.311C32.3728 172.993 33.3419 171.503 34.0696 169.893C34.3894 169.195 33.3542 168.585 33.0328 169.288C32.1731 171.299 30.8758 173.094 29.2352 174.541C27.5947 175.989 25.6522 177.052 23.549 177.654C23.4888 177.67 23.4254 177.681 23.3652 177.696V169.591C23.3573 169.437 23.2907 169.292 23.179 169.185C23.0673 169.079 22.919 169.02 22.7649 169.02C22.6108 169.02 22.4625 169.079 22.3508 169.185C22.2391 169.292 22.1724 169.437 22.1646 169.591V178.427L21.9978 184.034C21.8587 188.794 21.7217 193.554 21.5868 198.315C21.4055 204.692 21.2293 211.07 21.0583 217.448C20.877 224.17 20.7055 230.893 20.5438 237.616C20.4048 243.41 20.2806 249.204 20.1715 254.999L20.1514 256.164C19.6971 256.148 19.2413 256.13 18.7871 256.102C17.5341 256.038 16.2852 255.912 15.0448 255.723C14.6529 254.035 14.3716 252.323 14.2028 250.598C13.8706 247.764 13.6465 244.918 13.4534 242.072C13.2191 238.547 13.028 235.019 12.8802 231.488C12.7071 227.51 12.5655 223.53 12.4553 219.548C12.3347 215.398 12.2359 211.246 12.1586 207.093C12.0803 203.038 12.0165 198.981 11.967 194.922C11.9207 191.226 11.8846 187.53 11.8589 183.833C11.8372 180.774 11.8213 177.716 11.811 174.658C11.8048 172.477 11.8012 170.295 11.8001 168.113C11.8001 167.091 11.828 166.065 11.8001 165.043V164.91C11.7923 164.756 11.7257 164.611 11.614 164.505C11.5023 164.399 11.354 164.34 11.1999 164.34C11.0457 164.34 10.8975 164.399 10.7858 164.505C10.6741 164.611 10.6074 164.756 10.5996 164.91V172.78C10.6078 175.674 10.6207 178.568 10.6382 181.461C10.6599 185.035 10.6903 188.607 10.7294 192.18C10.7737 196.177 10.8303 200.174 10.8994 204.168C10.9725 208.321 11.0621 212.475 11.1682 216.628C11.2712 220.673 11.402 224.717 11.5607 228.761C11.7059 232.446 11.8774 236.131 12.103 239.813C12.2868 242.842 12.5032 245.87 12.8106 248.889C13.0004 251.06 13.3052 253.219 13.7238 255.357C13.7979 255.711 13.8783 256.063 13.9756 256.412C14.0022 256.513 14.055 256.605 14.1285 256.678C14.2021 256.752 14.2938 256.804 14.3944 256.831C18.9361 257.623 23.5807 257.623 28.1225 256.831C28.2478 256.794 28.3581 256.718 28.4375 256.614C28.5169 256.51 28.5613 256.384 28.5644 256.253L29.3462 249.784C29.9828 244.531 30.6173 239.272 31.2498 234.007C32.047 227.381 32.8412 220.753 33.6323 214.125C34.3812 207.841 35.1254 201.552 35.865 195.256C36.3687 191.106 36.8584 186.965 37.2957 182.821ZM47.8023 167.977L47.6849 170.202L47.3651 176.258L46.8907 185.219C46.6991 188.862 46.5065 192.505 46.3129 196.148C46.1069 200.137 45.8962 204.127 45.6809 208.117L45.0413 220.202C44.8435 223.959 44.6447 227.716 44.4449 231.471L43.9412 240.998L43.5796 247.852C43.5271 248.841 43.4251 249.849 43.4112 250.842C41.5223 251.571 39.5016 251.895 37.4796 251.794C36.4959 251.78 35.5159 251.671 34.5532 251.468C33.8007 251.295 33.4716 252.454 34.2333 252.625C37.5969 253.403 41.1199 253.102 44.3027 251.765C44.3937 251.712 44.4691 251.636 44.5215 251.545C44.5738 251.454 44.6012 251.351 44.6009 251.246L44.7183 249.021L45.0382 242.967L45.5125 234.005L46.0904 223.078L46.7208 211.107L47.3604 199.021L47.9568 187.752C48.1237 184.576 48.2916 181.401 48.4605 178.226L48.8221 171.372C48.8793 170.29 48.9766 169.209 48.9951 168.12V167.977C49.0384 167.206 47.8379 167.208 47.8023 167.977Z" fill="#59679C"/>
<path d="M134.501 122.293L135.461 206.304C133.169 206.695 130.854 206.933 128.531 207.017L142.99 207.509V123.849L134.501 122.293Z" fill="#E59E70"/>
<path d="M134.502 122.291C134.502 122.291 88.9106 120.437 58.8554 122.291L58.6685 130.325L58.3687 143.092C59.1504 143.203 59.9244 143.362 60.6864 143.568C60.7867 143.596 60.8781 143.65 60.9518 143.723C61.0254 143.797 61.0788 143.888 61.1066 143.989C61.3362 144.97 61.4911 145.967 61.5702 146.972L63.1153 146.862L64.9956 146.731C65.7311 146.679 67.0923 146.825 67.4678 146.003C67.7022 145.199 67.8366 144.369 67.868 143.531C68.0243 142.598 68.2463 141.677 68.5324 140.775C68.8091 139.909 69.1414 139.061 69.5274 138.238C69.824 137.428 70.2836 136.687 70.8778 136.062C71.0098 135.928 71.1672 135.821 71.3408 135.749C71.5144 135.676 71.7008 135.638 71.8891 135.638C72.0773 135.638 72.2637 135.676 72.4373 135.749C72.6109 135.821 72.7683 135.928 72.9003 136.062C73.3319 136.724 73.5428 137.506 73.5029 138.295C73.6449 139.869 73.619 141.454 73.4257 143.023C74.3921 142.267 75.2887 141.426 76.1048 140.511C77.0499 139.425 78.2212 138.559 79.5365 137.974C80.1928 137.653 80.9375 137.561 81.6519 137.714C82.3663 137.866 83.0092 138.253 83.478 138.813C84.4715 140.416 82.8337 142.049 81.7645 143.091C80.7266 143.896 79.8956 144.938 79.3403 146.129C81.0399 146.189 82.6097 144.829 84.0667 144.146C85.3739 143.528 87.6065 143.173 88.2014 144.953C88.7761 146.675 86.9313 148.043 85.7169 148.871C84.9799 149.373 84.2089 149.827 83.4981 150.367C83.101 150.668 81.851 151.538 82.0936 152.151C82.2991 152.672 83.2524 152.697 83.699 152.675C84.4107 152.576 85.1339 152.596 85.8389 152.735C86.1889 152.844 86.5037 153.043 86.7509 153.313C86.9981 153.584 87.1688 153.915 87.2455 154.273C87.3221 154.631 87.3019 155.004 87.1869 155.351C87.072 155.699 86.8664 156.01 86.5914 156.252C85.9707 156.813 85.1942 157.172 84.3649 157.281C83.3282 157.485 82.2821 157.644 81.2423 157.823L74.8657 158.923L62.2284 161.104L62.25 163.125C62.308 163.537 62.2253 163.957 62.0152 164.317C61.8731 164.476 61.6967 164.6 61.4993 164.681C61.302 164.761 61.089 164.795 60.8764 164.781C59.869 164.855 58.8678 164.921 57.8558 164.988L56.9287 204.292C56.9287 204.292 106.763 208.132 128.524 207.016C130.847 206.932 133.162 206.694 135.453 206.304L134.502 122.291Z" fill="#E59E70"/>
<path d="M55.5793 142.97C56.4253 142.834 57.2898 142.864 58.1241 143.06C58.206 143.07 58.2786 143.089 58.3682 143.1L58.668 130.333C54.6793 129.339 51.01 127.344 48.0068 124.537C49.6824 130.486 50.6797 136.605 50.9796 142.778C52.16 143.23 53.3513 143.658 54.558 144.045C54.5856 144.055 54.6124 144.066 54.6384 144.079C54.6795 143.826 54.7888 143.589 54.9546 143.394C55.1204 143.198 55.3364 143.052 55.5793 142.97Z" fill="#FFD35C"/>
<path d="M54.2346 145.204C53.116 144.845 52.0071 144.458 50.908 144.042L50.3703 143.839C48.7222 143.203 47.0968 142.505 45.494 141.747C45.1541 141.593 44.8157 141.424 44.4789 141.257C39.005 138.606 33.9286 135.203 29.3973 131.146C25.2889 127.399 21.7429 122.729 20.6119 117.18C20.4574 116.425 21.6162 116.099 21.7707 116.86C22.4183 119.84 23.6941 122.647 25.5129 125.094C29.0109 129.589 33.3126 133.397 38.1997 136.322C40.1207 137.558 42.0969 138.696 44.1282 139.735C45.9596 140.673 47.8302 141.526 49.7399 142.294C49.5769 139.649 49.2943 137.012 48.8932 134.393C48.3343 130.69 47.5007 127.035 46.3995 123.456C46.3191 123.198 46.2326 122.942 46.1476 122.684C45.9164 121.965 45.667 121.253 45.3998 120.547C45.3024 120.293 45.2025 120.04 45.1 119.788L45.0861 119.754L45.0645 119.705L45.0367 119.643C44.9728 119.499 44.9641 119.336 45.0122 119.186C45.0603 119.036 45.162 118.909 45.2978 118.829C43.6934 115.596 41.5418 112.666 38.9382 110.167C33.8 110.612 28.6283 109.872 23.821 108.004C21.3735 109.507 19.3035 111.551 17.7704 113.98C11.3089 123.948 9.75605 137.209 8.74711 148.78C8.38865 152.887 8.20942 156.997 8.09663 161.116C7.92358 164.95 15.6089 165.12 17.9852 165.461C22.9419 166.171 27.9248 166.645 32.934 166.883C36.4918 167.051 40.0527 167.099 43.6167 167.028C45.2082 166.996 49.7214 167.924 50.891 166.606C50.907 166.588 50.9215 166.569 50.9343 166.549C51.186 165.492 51.2071 164.392 50.9961 163.326C47.3348 162.869 43.7295 162.041 40.2361 160.854C34.1677 158.635 28.6109 155.211 23.8998 150.789C19.1789 146.373 15.2408 141.189 12.2529 135.457C11.8929 134.773 12.9297 134.167 13.2897 134.85C14.9327 137.993 16.8625 140.978 19.0544 143.767C22.9356 148.739 27.7025 152.951 33.1148 156.191C35.8804 157.833 38.8216 159.159 41.8832 160.145C44.2416 160.877 46.6493 161.44 49.0879 161.829C49.6936 161.932 50.2998 162.025 50.9065 162.108C51.7058 162.224 52.5051 162.33 53.3045 162.428C53.3891 162.438 53.471 162.464 53.5455 162.505L53.7757 158.36C53.9488 155.27 54.1239 152.18 54.3011 149.089L54.4077 147.198C54.4447 146.542 54.4741 145.882 54.5174 145.225C54.4228 145.241 54.3256 145.234 54.2346 145.204ZM61.05 163.224V162.634L61.0191 159.686L60.9326 157.923L60.69 152.944L60.5958 151.126C60.5618 150.449 60.5386 149.769 60.5077 149.091C60.4814 148.473 60.4459 147.855 60.3934 147.237C60.3243 146.366 60.1994 145.501 60.0194 144.646C59.4648 144.504 58.9054 144.383 58.3399 144.295C57.676 144.191 57.0061 144.13 56.3344 144.111C56.166 144.111 55.9528 144.066 55.8384 144.202C55.7739 144.339 55.7437 144.489 55.7504 144.64C55.7504 144.691 55.7426 144.743 55.738 144.794C55.6051 146.217 55.5618 147.659 55.4908 149.089L55.4661 149.59L55.1771 154.672L54.7136 162.96L54.6564 163.993L57.8826 163.777L59.78 163.65L60.5757 163.596C60.7306 163.606 60.8861 163.597 61.0392 163.572V163.542C61.0496 163.436 61.0533 163.33 61.05 163.224ZM221.78 204.089C220.127 201.392 216.681 198.653 213.404 199.891C213.196 199.968 212.995 200.059 212.8 200.164C211.743 200.825 210.924 201.806 210.464 202.964C210.004 204.123 209.926 205.398 210.241 206.604C210.642 209.233 212.033 211.61 214.128 213.248C215.343 214.143 216.844 214.563 218.347 214.428C219.509 214.306 220.592 213.783 221.412 212.95C223.822 210.532 223.396 206.809 221.78 204.089Z" fill="#FFD35C"/>
<path d="M159.226 213.062C155.722 210.834 151.783 209.379 147.672 208.796C143.562 208.212 139.373 208.513 135.388 209.678C130.435 211.237 125.928 214.866 122.219 218.414C118.508 221.951 115.361 226.037 112.89 230.529C111.445 233.173 110.248 235.945 109.315 238.809C109.081 239.525 107.566 246.09 107.212 248.128H176.101C175.809 245.552 173.725 235.501 173.524 234.821C171.037 226.447 166.696 218.008 159.226 213.062ZM195.537 233.074C193.582 234.936 191.925 237.087 190.625 239.453C189.864 240.845 189.234 242.304 188.743 243.812C188.637 244.135 188.036 246.72 187.748 248.128H223.822C223.513 246.239 222.643 242.031 222.548 241.712C221.24 237.304 218.955 232.861 215.021 230.257C214.725 230.063 214.422 229.882 214.111 229.713C215.895 225.163 217.251 220.456 218.159 215.653C216.161 215.716 214.217 215.001 212.737 213.658C210.44 211.54 209.07 208.602 208.924 205.48C208.811 204.163 209.09 202.842 209.726 201.683C210.361 200.524 211.325 199.579 212.496 198.966C210.341 196.841 208.056 194.851 205.654 193.01L207.32 183.883L216.768 175.624L215.687 172.988L206.433 177.892C205.817 176.189 205.42 174.414 205.25 172.611C205.166 171.556 205.121 169.957 206.022 169.288C206.795 168.781 207.603 168.332 208.44 167.942C209.358 167.454 210.281 166.976 211.211 166.508C211.674 166.273 212.138 166.045 212.601 165.808C212.737 166.201 212.907 166.58 213.111 166.942C215.501 171.082 221.073 170.805 222.536 166.099C223.772 162.115 221.257 155.83 216.745 156.287C213.354 156.63 211.801 160.377 212.141 163.786C212.171 164.075 212.213 164.36 212.267 164.642C211.846 164.85 211.421 165.056 210.999 165.267C210.016 165.762 209.038 166.265 208.063 166.777C207.196 167.24 206.286 167.673 205.466 168.212C204.93 168.658 204.515 169.231 204.259 169.879C204.003 170.527 203.915 171.229 204.003 171.921C204.071 173.563 204.351 175.19 204.837 176.761C204.996 177.329 205.17 177.892 205.361 178.452L198.527 182.073L186.012 185.001V184.978C185.171 182.286 183.801 179.79 181.982 177.634C181.414 176.973 180.727 176.424 179.956 176.017C179.185 175.645 178.322 175.505 177.472 175.613C175.065 175.847 172.665 176.174 170.27 176.511C168.756 176.724 167.243 176.947 165.731 177.18L165.576 176.899C163.804 173.963 160.323 171.894 157.396 173.654C153.511 175.99 155.26 182.532 158.633 184.98C162.628 187.874 167.253 184.754 166.689 180.008C166.615 179.426 166.471 178.855 166.259 178.308C169.603 177.79 172.957 177.308 176.321 176.936C177.157 176.752 178.021 176.73 178.866 176.871C179.575 177.109 180.215 177.518 180.729 178.062C181.93 179.327 182.909 180.785 183.623 182.376C184.094 183.316 184.502 184.285 184.847 185.278L167.464 189.346L168.518 192.833L189.643 188.408L202.706 195.398L202.805 195.341L206.232 227.862C204.955 227.896 203.688 228.104 202.467 228.48C199.845 229.479 197.478 231.048 195.537 233.074Z" fill="#F55555"/>
<path d="M23.2349 98.4834C23.275 98.4834 23.3198 98.468 23.2349 98.4834V98.4834Z" fill="#B26EE6"/>
<path d="M24.5101 96.6297C24.4867 96.5248 24.4562 96.4216 24.4189 96.3207C24.4081 96.3022 24.3587 96.1925 24.3509 96.177L24.2922 96.0781L24.2304 95.987L24.215 95.9684C24.1748 95.9252 24.1377 95.8819 24.0944 95.8417C23.9631 95.717 23.8082 95.6198 23.6386 95.5559C23.5253 95.5222 23.4109 95.4923 23.2956 95.4663H23.2555L23.172 95.4586H22.8383L22.7409 95.4709C22.6114 95.494 22.4838 95.5271 22.3593 95.5698L22.2697 95.6069C22.1427 95.6679 22.0212 95.7398 21.9066 95.8217L21.8942 95.834C21.8185 95.9066 21.7397 95.9793 21.6733 96.0565L21.6578 96.0735C21.6312 96.1107 21.6059 96.1488 21.5821 96.1878C21.543 96.2528 21.5074 96.3199 21.4755 96.3887C21.4755 96.4119 21.4323 96.5139 21.4276 96.5293C21.4122 96.5818 21.4029 96.6359 21.389 96.6838V96.7194C21.389 96.7673 21.3797 96.8136 21.3782 96.8615C21.3759 96.9497 21.379 97.0379 21.3874 97.1257C21.3874 97.1504 21.3983 97.203 21.3998 97.2122C21.4091 97.2617 21.4214 97.3111 21.4338 97.3668C21.4462 97.4224 21.4616 97.461 21.4786 97.5074C21.4786 97.5213 21.5033 97.563 21.5141 97.5846C21.541 97.6418 21.5709 97.6975 21.6038 97.7515C21.6269 97.7917 21.6547 97.8303 21.681 97.8689L21.6887 97.8813L21.7011 97.8952C21.7536 97.9508 21.8031 98.008 21.8556 98.062C21.9081 98.1161 21.9329 98.1316 21.973 98.164H21.9823C22.0596 98.2135 22.1368 98.2644 22.2156 98.3077C22.245 98.3232 22.3701 98.3757 22.3701 98.3803C22.4335 98.402 22.4953 98.4251 22.5586 98.4437C22.622 98.4622 22.7131 98.4792 22.7966 98.4931L22.9619 98.507H23.2338C23.2709 98.507 23.308 98.4947 23.3466 98.4854C23.4362 98.4653 23.5212 98.436 23.6093 98.4081H23.6232L23.6356 98.4004C23.6695 98.3819 23.7051 98.3664 23.7391 98.3463C23.8025 98.3107 23.8639 98.2715 23.9229 98.2289C23.9229 98.2196 24.0388 98.13 24.0574 98.1115C24.3608 97.7997 24.5323 97.383 24.5363 96.948C24.5363 96.8816 24.5363 96.8167 24.5255 96.7518C24.5216 96.711 24.5165 96.6703 24.5101 96.6297ZM29.0696 90.7383C32.0161 89.5161 34.958 88.2816 37.8581 86.9559C39.0561 86.4079 40.2448 85.8414 41.4242 85.2563C41.4033 84.1996 41.2953 83.1464 41.1013 82.1074C40.8139 82.1847 40.5265 82.2619 40.2438 82.3562C35.6701 83.7902 31.7262 86.7487 29.0696 90.7383Z" fill="#B26EE6"/>
<path d="M44.2754 102.193C43.9747 102.285 43.6805 102.396 43.3947 102.527C43.2095 102.61 43.019 102.68 42.8246 102.738C38.2758 104.168 30.1548 100.092 29.3823 99.3254C28.7318 98.6733 28.483 94.018 28.4135 92.2983L27.9639 92.4852C27.403 92.717 27.094 92.0526 27.3273 91.6138C27.3055 91.539 27.2996 91.4606 27.31 91.3834C27.3204 91.3062 27.3468 91.2321 27.3876 91.1657C29.0153 88.3578 31.2499 85.949 33.9279 84.1155C36.0289 82.6651 38.365 81.5893 40.8329 80.9357C40.2902 78.7899 39.1268 76.8517 37.4884 75.3636C35.8499 73.8754 33.8091 72.9034 31.6211 72.569C28.5878 72.1588 25.5 72.5366 22.655 73.6658C19.8101 74.7951 17.3038 76.6379 15.3776 79.0167C7.8406 87.8608 11.606 100.68 20.9785 106.538C21.8861 107.102 22.8367 107.593 23.8215 108.007C28.6288 109.875 33.8005 110.615 38.9387 110.17C43.4951 109.826 46.9191 108.678 47.1864 107.471C47.7333 104.996 47.7889 101.141 44.2754 102.193ZM23.2807 99.6869C22.8006 99.7335 22.3165 99.6589 21.8728 99.4699C21.429 99.281 21.0397 98.9837 20.7406 98.6053C20.4011 98.1682 20.2043 97.6373 20.1766 97.0846C20.149 96.5318 20.2919 95.984 20.5861 95.5152C20.9181 95.0413 21.3818 94.675 21.9197 94.4616C22.4576 94.2483 23.0463 94.1972 23.6129 94.3146C24.1964 94.4309 24.7231 94.7419 25.1068 95.1967C25.4906 95.6514 25.7085 96.2229 25.725 96.8177C25.7326 96.8569 25.7362 96.8967 25.7359 96.9367C25.7364 97.6167 25.4863 98.2732 25.0334 98.7805C24.5804 99.2879 23.9565 99.6105 23.2807 99.6869ZM46.094 105.459C44.3528 105.982 42.5576 106.305 40.7433 106.422C38.4425 106.57 36.133 106.332 33.9109 105.717C33.0008 105.483 32.1197 105.148 31.2843 104.718C30.6044 104.347 31.2117 103.31 31.89 103.681C31.9595 103.718 32.029 103.754 32.1001 103.788L32.338 103.897C32.5234 103.981 32.4369 103.944 32.5976 104.007C36.8345 105.572 41.473 105.676 45.7757 104.302C45.9259 104.27 46.0828 104.296 46.2142 104.375C46.3457 104.455 46.4416 104.582 46.4823 104.73C46.5231 104.878 46.5056 105.036 46.4333 105.172C46.3611 105.308 46.2397 105.411 46.094 105.459Z" fill="#B26EE6"/>
<path d="M225.364 248.129H105.993C105.839 248.137 105.694 248.203 105.588 248.315C105.482 248.427 105.423 248.575 105.423 248.729C105.423 248.883 105.482 249.032 105.588 249.143C105.694 249.255 105.839 249.322 105.993 249.33H225.364C225.518 249.322 225.663 249.255 225.769 249.143C225.875 249.032 225.934 248.883 225.934 248.729C225.934 248.575 225.875 248.427 225.769 248.315C225.663 248.203 225.518 248.137 225.364 248.129ZM212.737 213.663C214.218 215.006 216.162 215.721 218.159 215.657C219.348 215.597 220.493 215.189 221.452 214.483C222.862 213.439 223.831 211.906 224.17 210.185C224.564 207.861 224.082 205.473 222.819 203.484C220.965 200.457 217.411 197.671 213.655 198.566C213.256 198.66 212.867 198.795 212.496 198.97C211.325 199.584 210.362 200.529 209.726 201.688C209.091 202.847 208.812 204.168 208.924 205.484C209.07 208.606 210.44 211.544 212.737 213.663ZM221.781 204.083C223.397 206.804 223.823 210.526 221.413 212.941C220.593 213.774 219.51 214.297 218.348 214.42C216.845 214.554 215.344 214.135 214.13 213.239C212.034 211.601 210.643 209.225 210.242 206.595C209.927 205.389 210.005 204.114 210.465 202.956C210.925 201.797 211.744 200.816 212.801 200.155C212.996 200.051 213.198 199.959 213.405 199.882C216.682 198.654 220.128 201.388 221.781 204.089V204.083ZM34.9344 98.6475C36.1973 99.4594 37.7075 99.7963 39.1957 99.5982C40.6839 99.4001 42.0534 98.6799 43.06 97.566C43.573 96.9896 42.7263 96.1383 42.2102 96.7162C41.3927 97.6441 40.2672 98.2451 39.0414 98.4084C37.8155 98.5717 36.572 98.2862 35.5401 97.6046C34.8911 97.1874 34.2885 98.2273 34.9344 98.6475Z" fill="black"/>
<path d="M47.6624 81.3235C47.5137 81.0135 47.2819 80.751 46.9927 80.5652C46.7034 80.3793 46.3683 80.2776 46.0246 80.2713C44.6068 80.2005 43.1864 80.3464 41.8126 80.7039C41.4851 80.7734 41.1575 80.8584 40.833 80.9372C38.3655 81.5911 36.0295 82.6663 33.928 84.1155C31.2505 85.9492 29.0165 88.358 27.3892 91.1657C27.3484 91.2321 27.322 91.3062 27.3116 91.3834C27.3013 91.4606 27.3072 91.539 27.3289 91.6138C27.0956 92.0526 27.4046 92.717 27.9655 92.4852L28.4151 92.2983C29.5987 91.808 30.7833 91.3151 31.9689 90.8196C31.5176 91.5845 31.2831 92.4578 31.2906 93.3459C31.2906 93.4248 31.3061 93.5029 31.3363 93.5759C31.3665 93.6488 31.4108 93.715 31.4666 93.7708C31.5224 93.8267 31.5887 93.8709 31.6616 93.9011C31.7345 93.9313 31.8127 93.9469 31.8916 93.9469C31.9705 93.9469 32.0487 93.9313 32.1216 93.9011C32.1945 93.8709 32.2608 93.8267 32.3166 93.7708C32.3724 93.715 32.4167 93.6488 32.4469 93.5759C32.4771 93.5029 32.4926 93.4248 32.4926 93.3459C32.4903 93.1788 32.4965 93.0117 32.5112 92.8452V92.8128L32.5344 92.6753C32.5498 92.5934 32.5668 92.5115 32.5869 92.4296C32.629 92.2671 32.6806 92.1071 32.7414 91.9506L32.7862 91.8363L32.797 91.81C32.8372 91.7251 32.8774 91.6416 32.9206 91.5597C32.999 91.4114 33.0862 91.268 33.1817 91.1302L33.2451 91.039L33.2652 91.0097L33.4197 90.8181C33.5388 90.6874 33.6663 90.5645 33.8013 90.4503L33.8863 90.3777L33.9342 90.3406C34.0037 90.2897 34.0748 90.2402 34.1474 90.1939C34.2915 90.0981 34.3928 89.9502 34.4302 89.7813C35.6354 89.2637 36.8374 88.7399 38.0318 88.1991C39.0423 87.7408 40.0471 87.2685 41.0463 86.7823C41.6063 87.7331 42.0765 88.734 42.4508 89.7721C43.3994 92.2165 43.8714 94.82 43.8413 97.4419C43.8004 99.2559 43.4546 101.05 42.8185 102.749C43.013 102.691 43.2034 102.621 43.3886 102.538C43.6744 102.407 43.9686 102.295 44.2693 102.204C45.6415 97.1921 45.0629 91.8464 42.6501 87.2443C42.4871 86.9073 42.3108 86.5769 42.1217 86.2539C42.3905 86.1195 42.6624 85.9912 42.9313 85.8552C43.7553 85.4432 44.5727 85.0163 45.3833 84.5744C46.0837 84.2684 46.7208 83.8345 47.2622 83.295C47.5013 83.0335 47.6649 82.712 47.7354 82.3647C47.8059 82.0174 47.7806 81.6575 47.6624 81.3235ZM46.3181 82.5596C45.7624 83.0457 45.1302 83.4367 44.447 83.7168C43.7476 84.0918 43.0425 84.4585 42.3318 84.8169C42.0228 84.9715 41.7277 85.1136 41.4248 85.2635C40.2444 85.8455 39.0557 86.412 37.8587 86.9631C34.9586 88.2888 32.0167 89.5233 29.0703 90.7455C31.7268 86.7558 35.6707 83.7974 40.2444 82.3633C40.5271 82.2737 40.8145 82.1918 41.1019 82.1146C42.0436 81.8594 43.0032 81.676 43.9727 81.5661C44.6053 81.4686 45.2461 81.435 45.8855 81.4656C46.006 81.4599 46.1262 81.4809 46.2376 81.5271C46.349 81.5733 46.4488 81.6436 46.5298 81.7329C46.6982 81.9925 46.4989 82.351 46.3181 82.5534V82.5596Z" fill="black"/>
<path d="M35.3877 93.773C35.3877 94.1049 35.4932 94.4233 35.6809 94.658C35.8687 94.8927 36.1234 95.0245 36.3889 95.0245C36.6545 95.0245 36.9091 94.8927 37.0969 94.658C37.2846 94.4233 37.3901 94.1049 37.3901 93.773C37.3901 93.4411 37.2846 93.1228 37.0969 92.888C36.9091 92.6533 36.6545 92.5215 36.3889 92.5215C36.1234 92.5215 35.8687 92.6533 35.6809 92.888C35.4932 93.1228 35.3877 93.4411 35.3877 93.773Z" fill="black"/>
<path d="M23.6141 94.3136C23.0475 94.1962 22.4588 94.2473 21.9209 94.4606C21.383 94.674 20.9194 95.0402 20.5873 95.5141C20.2931 95.9829 20.1502 96.5308 20.1778 97.0836C20.2055 97.6363 20.4023 98.1672 20.7418 98.6043C21.0409 98.9827 21.4302 99.28 21.874 99.4689C22.3177 99.6579 22.8018 99.7325 23.2819 99.6859C23.9596 99.6097 24.5852 99.2858 25.0386 98.7765C25.4921 98.2672 25.7414 97.6083 25.7386 96.9264C25.739 96.8864 25.7354 96.8466 25.7278 96.8074C25.7091 96.214 25.49 95.6445 25.1062 95.1916C24.7223 94.7387 24.1964 94.4292 23.6141 94.3136ZM24.0575 98.0991C24.039 98.1176 23.9293 98.2072 23.9231 98.2165C23.8641 98.2591 23.8027 98.2983 23.7393 98.3339C23.7053 98.354 23.6697 98.3695 23.6357 98.388L23.6234 98.3957H23.6095C23.5214 98.4235 23.4364 98.4529 23.3468 98.473C23.3082 98.4823 23.2711 98.4884 23.234 98.4946H23.2124C23.1289 98.4946 23.0471 98.5039 22.9621 98.4946L22.7967 98.4807C22.7164 98.4668 22.6422 98.4529 22.5588 98.4313C22.4754 98.4096 22.4337 98.3896 22.3703 98.3679C22.3703 98.3679 22.2436 98.3108 22.2158 98.2953C22.1355 98.252 22.0613 98.2011 21.9825 98.1516H21.9732C21.8735 98.0716 21.7824 97.9815 21.7013 97.8828L21.6905 97.8673L21.6827 97.855C21.6565 97.8163 21.6287 97.7777 21.6055 97.7375C21.5726 97.6836 21.5427 97.6279 21.5159 97.5707C21.4808 97.5014 21.4538 97.4283 21.4355 97.3528C21.421 97.302 21.4097 97.2504 21.4015 97.1983L21.3892 97.1118C21.3807 97.024 21.3776 96.9357 21.3799 96.8476C21.3799 96.7997 21.3799 96.7533 21.3907 96.7054V96.6699C21.4046 96.6173 21.4139 96.5633 21.4293 96.5154C21.4293 96.4999 21.4711 96.3979 21.4772 96.3748C21.5091 96.3059 21.5447 96.2389 21.5839 96.1739C21.607 96.1353 21.6333 96.0966 21.6596 96.0596L21.675 96.0426C21.7461 95.9653 21.8203 95.888 21.896 95.8201L21.9083 95.8077C22.0226 95.7253 22.1441 95.6534 22.2714 95.5929L22.361 95.5559C22.4842 95.509 22.6122 95.4758 22.7427 95.457L22.84 95.4446H23.1738L23.2572 95.4523H23.2974C23.4132 95.4786 23.526 95.508 23.6404 95.5419C23.8095 95.6058 23.9644 95.7024 24.0962 95.8262C24.1394 95.868 24.1765 95.9112 24.2167 95.9545L24.2321 95.973L24.2939 96.0642L24.3527 96.1631C24.3527 96.1785 24.4098 96.2882 24.4206 96.3068C24.4579 96.4076 24.4884 96.5109 24.5118 96.6158L24.5273 96.7239C24.5273 96.7888 24.5365 96.8537 24.5381 96.9202C24.5356 97.3581 24.3634 97.7779 24.0575 98.0914V98.0991ZM45.7738 104.303C41.4711 105.677 36.8326 105.573 32.5957 104.008C32.4412 103.944 32.5216 103.981 32.3361 103.898L32.0982 103.788C32.0274 103.754 31.9573 103.719 31.8881 103.681C31.2098 103.311 30.6026 104.347 31.2824 104.718C32.1178 105.149 32.9989 105.484 33.9091 105.718C36.1312 106.333 38.4406 106.571 40.7414 106.422C42.5558 106.306 44.3509 105.983 46.0921 105.46C46.2378 105.411 46.3592 105.308 46.4314 105.173C46.5037 105.037 46.5212 104.879 46.4805 104.731C46.4397 104.583 46.3438 104.456 46.2123 104.376C46.0809 104.296 45.924 104.27 45.7738 104.303ZM153.275 244.56C152.8 241.091 151.355 237.826 149.106 235.142C146.857 232.457 143.896 230.463 140.564 229.387C136.875 228.286 132.969 228.138 129.208 228.956C125.447 229.774 121.954 231.531 119.056 234.064C115.954 236.726 113.469 240.032 111.776 243.752C111.456 244.45 112.489 245.061 112.814 244.359C114.194 241.185 116.212 238.328 118.743 235.967C121.274 233.605 124.264 231.79 127.526 230.632C130.909 229.456 134.552 229.238 138.051 230.004C141.549 230.77 144.768 232.49 147.35 234.973C149.938 237.561 151.599 240.931 152.075 244.56C152.163 245.319 153.365 245.328 153.275 244.56ZM96.0372 175.585C95.7179 174.967 95.3965 174.355 95.0731 173.748C94.8287 173.203 94.5206 172.69 94.1553 172.217C93.2885 171.236 92.1822 171.599 91.1918 172.154C86.4072 174.855 81.6627 177.626 76.9584 180.468C74.2699 182.089 71.5918 183.731 68.9239 185.392C68.2688 185.8 68.8714 186.84 69.5296 186.429L69.5574 186.412C69.5423 186.544 69.5777 186.677 69.6563 186.784L75.7254 195.713C75.809 195.847 75.9408 195.944 76.0937 195.984C76.2465 196.024 76.4089 196.004 76.5474 195.928L94.5168 186.556L99.6249 183.893C99.759 183.81 99.856 183.678 99.8959 183.525C99.9359 183.372 99.9157 183.21 99.8397 183.071C98.5984 180.56 97.331 178.065 96.0372 175.585ZM81.0498 192.228L76.4408 194.632L70.6946 186.179C70.6132 186.055 70.4888 185.966 70.3454 185.928C74.5192 183.334 78.7234 180.788 82.958 178.292C85.2128 176.966 87.4789 175.653 89.7564 174.356L91.3757 173.428C91.7774 173.2 92.5268 172.586 93.0212 172.81C93.4075 172.984 93.6269 173.569 93.8092 173.914C94.1337 174.526 94.4561 175.138 94.7764 175.751C96.0547 178.192 97.3047 180.647 98.5264 183.116L81.0498 192.228ZM134.028 148.987C131.609 145.108 128.771 141.507 125.565 138.248C125.451 138.14 125.299 138.08 125.141 138.08C124.984 138.08 124.832 138.14 124.717 138.248C121.541 140.785 118.573 143.571 115.841 146.579C115.773 146.654 115.724 146.745 115.699 146.843C115.675 146.941 115.674 147.044 115.698 147.142C115.722 147.24 115.77 147.331 115.838 147.406C115.905 147.482 115.99 147.539 116.085 147.574C115.666 147.9 115.766 148.715 116.405 148.647L120.292 148.228C120.223 150.947 120.43 153.666 120.91 156.343C121.011 156.902 121.131 157.486 121.749 157.675C122.092 157.745 122.444 157.77 122.794 157.749L123.962 157.778L128.442 157.894C128.534 157.891 128.623 157.867 128.704 157.825C128.786 157.783 128.857 157.724 128.912 157.651C128.967 157.578 129.006 157.494 129.025 157.405C129.044 157.315 129.043 157.223 129.022 157.134L127.94 149.563L133.503 149.889C133.608 149.889 133.712 149.861 133.803 149.808C133.894 149.755 133.97 149.679 134.023 149.588C134.076 149.497 134.105 149.393 134.106 149.288C134.106 149.183 134.08 149.079 134.028 148.987ZM122.605 156.542C122.2 156.531 122.185 156.609 122.109 156.213C122.049 155.904 121.996 155.581 121.945 155.264C121.544 152.718 121.399 150.138 121.511 147.562C121.511 147.403 121.447 147.251 121.335 147.138C121.223 147.026 121.071 146.962 120.912 146.961L116.704 147.414C119.295 144.563 122.098 141.912 125.09 139.486C127.802 142.291 130.239 145.351 132.367 148.622L127.256 148.322C127.164 148.324 127.073 148.346 126.991 148.388C126.909 148.429 126.838 148.489 126.782 148.562C126.726 148.635 126.688 148.72 126.669 148.81C126.651 148.9 126.653 148.993 126.676 149.082L127.758 156.675L124.553 156.593L122.605 156.542ZM85.8381 152.73C85.1331 152.591 84.4098 152.571 83.6981 152.67C83.2516 152.692 82.2982 152.67 82.0928 152.146C81.8502 151.528 83.1002 150.663 83.4972 150.362C84.208 149.823 84.979 149.368 85.716 148.866C86.9304 148.041 88.7753 146.671 88.2005 144.948C87.6056 143.168 85.373 143.528 84.0658 144.141C82.6088 144.824 81.0344 146.184 79.3394 146.124C79.8947 144.933 80.7257 143.892 81.7636 143.086C82.8328 142.045 84.4706 140.411 83.4772 138.808C83.0083 138.248 82.3654 137.861 81.651 137.709C80.9366 137.557 80.1919 137.648 79.5356 137.969C78.2197 138.556 77.0484 139.424 76.104 140.512C75.2847 141.435 74.3839 142.282 73.4124 143.043C73.6058 141.473 73.6317 139.888 73.4897 138.313C73.5293 137.525 73.3184 136.744 72.8871 136.082C72.7551 135.948 72.5977 135.841 72.4241 135.768C72.2504 135.696 72.0641 135.658 71.8758 135.658C71.6876 135.658 71.5012 135.696 71.3276 135.768C71.154 135.841 70.9966 135.948 70.8646 136.082C70.2703 136.707 69.8107 137.448 69.5142 138.258C69.1282 139.081 68.7958 139.928 68.5191 140.795C68.2331 141.697 68.0111 142.618 67.8547 143.551C67.8234 144.388 67.689 145.219 67.4545 146.023C67.0853 146.845 65.724 146.698 64.9824 146.751L63.102 146.882L61.5569 146.992C61.4779 145.987 61.3229 144.99 61.0934 144.008C61.0655 143.908 61.0122 143.817 60.9385 143.743C60.8649 143.669 60.7735 143.616 60.6731 143.588C59.9111 143.382 59.1371 143.223 58.3555 143.112C58.2736 143.101 58.201 143.083 58.1114 143.072C57.2771 142.877 56.4126 142.846 55.5666 142.982C55.3231 143.064 55.1065 143.21 54.9401 143.406C54.7737 143.601 54.6639 143.838 54.6226 144.092C54.5966 144.079 54.5698 144.067 54.5422 144.058C53.338 143.669 52.1447 143.246 50.9638 142.791C50.6687 136.615 49.6756 130.492 48.0034 124.539C47.5914 123.146 47.1335 121.772 46.6298 120.416C46.4552 119.953 46.276 119.489 46.0751 119.04C46.046 118.968 46.0006 118.904 45.9426 118.852C45.8846 118.801 45.8155 118.764 45.7406 118.744C45.6658 118.723 45.5873 118.721 45.5113 118.736C45.4353 118.751 45.3639 118.784 45.3026 118.831C45.1667 118.911 45.0651 119.038 45.017 119.189C44.9688 119.339 44.9775 119.501 45.0414 119.645L45.0693 119.707L45.0909 119.757L45.1048 119.791C45.4883 120.743 45.8377 121.709 46.1524 122.686C46.2373 122.943 46.3239 123.199 46.4042 123.459C47.5055 127.037 48.339 130.693 48.898 134.395C49.3044 137.021 49.5763 139.648 49.7447 142.296C47.8319 141.525 45.9597 140.673 44.1283 139.739C42.1001 138.699 40.1239 137.561 38.1998 136.326C33.3128 133.4 29.011 129.593 25.513 125.098C23.6942 122.651 22.4184 119.844 21.7708 116.864C21.6163 116.109 20.459 116.429 20.612 117.184C21.743 122.732 25.289 127.403 29.3974 131.15C33.9287 135.207 39.0051 138.61 44.479 141.261C44.8159 141.428 45.1542 141.59 45.4942 141.751C47.0928 142.508 48.7182 143.205 50.3705 143.843L50.9082 144.045C52.0062 144.457 53.1151 144.845 54.2347 145.207C54.3237 145.237 54.4186 145.245 54.5113 145.231C54.468 145.887 54.4387 146.547 54.4016 147.204L54.2919 149.092C54.1147 152.182 53.9396 155.272 53.7666 158.362L53.5364 162.508C53.4618 162.466 53.38 162.44 53.2953 162.431C52.497 162.334 51.6977 162.227 50.8973 162.111C50.2896 162.024 49.6834 161.931 49.0788 161.831C46.6401 161.442 44.2324 160.879 41.874 160.147C38.8124 159.161 35.8712 157.835 33.1056 156.193C27.6933 152.953 22.9265 148.741 19.0453 143.769C16.8534 140.98 14.9236 137.996 13.2805 134.852C12.9205 134.168 11.8899 134.775 12.2438 135.459C15.2316 141.192 19.1697 146.376 23.8907 150.791C28.6031 155.216 34.1622 158.641 40.2331 160.861C43.7266 162.048 47.3318 162.876 50.9931 163.333C51.758 163.439 52.5243 163.543 53.2891 163.642C53.3486 163.651 53.4089 163.651 53.4684 163.642L53.4112 164.657C53.412 164.816 53.4756 164.969 53.5881 165.081C53.7007 165.194 53.8531 165.257 54.0122 165.258L57.8456 165.006C58.853 164.94 59.8542 164.873 60.8663 164.799C61.0788 164.814 61.2919 164.779 61.4892 164.699C61.6865 164.619 61.8629 164.494 62.005 164.336C62.2151 163.976 62.2979 163.556 62.2399 163.143L62.2182 161.122L74.8555 158.942L81.2321 157.842C82.272 157.662 83.318 157.503 84.3548 157.299C85.1841 157.19 85.9606 156.831 86.5812 156.27C86.8624 156.03 87.0738 155.718 87.193 155.368C87.3123 155.018 87.3351 154.642 87.2591 154.28C87.1831 153.918 87.0111 153.583 86.761 153.31C86.511 153.038 86.1922 152.837 85.8381 152.73ZM61.044 163.574C60.8909 163.6 60.7354 163.608 60.5804 163.599L59.7847 163.653L57.8873 163.779L54.6612 163.996L54.7183 162.962L55.1819 154.674L55.4708 149.592L55.4955 149.092C55.5666 147.661 55.6099 146.219 55.7428 144.796C55.7428 144.744 55.7505 144.691 55.7551 144.642C55.7484 144.491 55.7787 144.341 55.8432 144.205C55.9575 144.069 56.1707 144.109 56.3392 144.113C57.0107 144.135 57.6804 144.197 58.3447 144.297C58.9102 144.385 59.4695 144.506 60.0242 144.648C60.2042 145.503 60.3291 146.368 60.3981 147.239C60.4506 147.857 60.4846 148.475 60.5124 149.093C60.5434 149.772 60.5665 150.451 60.6005 151.128L60.6886 152.941L60.9312 157.919L61.0177 159.682L61.0486 162.63V163.546L61.044 163.574ZM86.0173 154.98C85.7083 155.725 84.8384 155.955 84.123 156.102C83.1959 156.292 82.2504 156.431 81.314 156.593L75.3299 157.625L62.4933 159.841C62.2872 157.541 62.0843 155.24 61.8845 152.939L61.6975 149.092V148.965L61.6558 148.176L62.9243 148.086L64.3149 147.989C65.1307 147.931 65.9651 147.917 66.7732 147.782C67.122 147.74 67.4567 147.619 67.7514 147.428C68.0461 147.237 68.2929 146.98 68.4728 146.678C68.7517 146.014 68.9022 145.303 68.9162 144.583C69.1288 142.874 69.57 141.2 70.228 139.608C70.5264 138.837 70.893 138.095 71.3235 137.389C71.4239 137.235 71.753 136.723 71.9894 136.862C72.1949 136.983 72.2119 137.538 72.2351 137.731C72.4903 139.826 72.4356 141.947 72.0728 144.025C72.0451 144.14 72.0512 144.26 72.0903 144.371C72.1295 144.482 72.2 144.58 72.2934 144.651C72.3868 144.723 72.499 144.766 72.6165 144.776C72.7339 144.785 72.8516 144.76 72.9551 144.704C75.4071 143.56 76.7251 141.053 78.9454 139.605C79.8323 139.032 81.4006 138.384 82.3183 139.26C83.3845 140.274 81.0684 142.085 80.4101 142.724C79.1871 143.71 78.3456 145.09 78.0307 146.629C78.0305 146.76 78.0735 146.888 78.1531 146.992C78.2326 147.097 78.3444 147.172 78.4711 147.207C80.033 147.424 81.6189 147.037 82.9055 146.125C83.6007 145.69 84.3298 145.311 85.0856 144.993C85.3529 144.866 85.6444 144.798 85.9401 144.795C86.2359 144.792 86.5289 144.852 86.7991 144.973C87.4697 145.418 86.8887 146.303 86.4901 146.718C85.9097 147.277 85.2662 147.767 84.5726 148.177C83.8742 148.641 83.1728 149.082 82.5207 149.603C81.8678 150.051 81.341 150.659 80.9911 151.369C80.4163 152.866 81.929 153.752 83.2052 153.852C83.9407 153.923 86.6832 153.375 86.0173 154.98Z" fill="black"/>
<path d="M24.4463 117.103C25.5272 118.487 26.7339 119.768 28.051 120.929C28.6994 121.518 29.3831 122.066 30.0983 122.571C31.0114 123.199 31.6758 122.697 32.3726 122.045C33.84 120.659 35.1908 119.155 36.4115 117.548L40.2001 121.331C40.2655 121.395 40.3446 121.443 40.4314 121.472C40.5182 121.501 40.6104 121.51 40.7012 121.499C40.792 121.487 40.879 121.455 40.9557 121.405C41.0324 121.355 41.0968 121.289 41.1441 121.21C42.794 118.353 43.4971 115.047 43.1527 111.765C43.0708 111.005 41.8688 110.993 41.9522 111.765C42.2571 114.565 41.7423 117.393 40.4705 119.906L36.7777 116.22C36.7113 116.158 36.632 116.111 36.5456 116.083C36.4591 116.055 36.3675 116.046 36.2773 116.058C36.1872 116.069 36.1007 116.101 36.024 116.149C35.9473 116.198 35.8823 116.263 35.8336 116.34C34.7619 117.797 33.5795 119.17 32.2969 120.445C31.9982 120.742 31.6954 121.033 31.3884 121.318C31.2818 121.417 31.1103 121.66 30.9589 121.661C30.7796 121.661 30.5232 121.406 30.381 121.298C29.763 120.835 29.1712 120.333 28.5995 119.813C26.2513 117.681 24.2808 115.167 22.7714 112.377C21.9088 110.785 21.2054 109.112 20.6716 107.382C20.443 106.646 19.2811 106.96 19.5128 107.701C20.5732 111.109 22.2449 114.295 24.4463 117.103Z" fill="black"/>
<path d="M39.1027 126.142L38.2312 121.246C38.1876 121.093 38.0857 120.964 37.9476 120.885C37.8095 120.807 37.6461 120.786 37.4927 120.827C37.3415 120.873 37.2137 120.975 37.1355 121.112C37.0573 121.25 37.0348 121.412 37.0724 121.565L37.9439 126.46C37.9872 126.613 38.0889 126.743 38.2271 126.822C38.3652 126.9 38.5288 126.921 38.6824 126.881C38.8336 126.835 38.9614 126.732 39.0396 126.595C39.1178 126.458 39.1403 126.296 39.1027 126.142ZM40.1348 133.616C40.286 133.57 40.4138 133.467 40.492 133.33C40.5702 133.193 40.5927 133.031 40.5551 132.877C40.2277 131.735 40.0945 130.545 40.1611 129.359C40.1603 129.2 40.0967 129.047 39.9841 128.935C39.8716 128.822 39.7192 128.759 39.56 128.758C39.402 128.762 39.2516 128.827 39.1398 128.939C39.028 129.05 38.9633 129.201 38.959 129.359C38.8968 130.653 39.0444 131.949 39.3962 133.195C39.4423 133.347 39.5445 133.474 39.6818 133.553C39.8192 133.631 39.9813 133.653 40.1348 133.616ZM158.609 207.179C158.583 206.33 158.536 205.482 158.469 204.634C158.465 203.814 158.37 202.996 158.186 202.196C158.088 201.887 157.896 201.616 157.637 201.42C157.379 201.225 157.066 201.114 156.741 201.104C155.029 200.904 153.296 200.822 151.576 200.683L146.334 200.262L140.495 199.798L137.625 199.566C137.177 199.531 136.719 199.399 136.416 199.809C136.307 199.96 136.245 200.14 136.236 200.325C136.227 200.511 136.272 200.696 136.366 200.856C136.402 200.935 136.455 201.004 136.521 201.059L136.757 206.913H110.491C110.428 206.845 110.352 206.79 110.267 206.752C110.182 206.714 110.09 206.695 109.997 206.695C109.904 206.695 109.812 206.714 109.727 206.752C109.642 206.79 109.566 206.845 109.503 206.913H84.258C84.0986 206.913 83.9457 206.977 83.833 207.089C83.7203 207.202 83.6569 207.355 83.6569 207.514C83.6569 207.674 83.7203 207.827 83.833 207.939C83.9457 208.052 84.0986 208.115 84.258 208.115H109.916C113.013 212.127 116.368 215.934 119.959 219.51C120.073 219.614 120.223 219.67 120.377 219.667C120.532 219.663 120.679 219.6 120.788 219.491C120.897 219.382 120.961 219.235 120.964 219.081C120.968 218.926 120.912 218.776 120.809 218.662C117.467 215.339 114.329 211.817 111.413 208.115H137.041C137.142 208.187 137.26 208.231 137.383 208.245C140.869 208.624 144.366 208.876 147.874 208.999C149.625 209.061 151.376 209.089 153.127 209.084C153.988 209.084 154.849 209.074 155.708 209.055C156.411 209.116 157.119 209.044 157.795 208.843C158.095 208.694 158.337 208.45 158.484 208.149C158.631 207.848 158.675 207.507 158.609 207.179ZM157.404 207.672C157.271 207.87 156.809 207.826 156.607 207.826C153.63 207.911 150.652 207.897 147.676 207.785C144.534 207.671 141.398 207.452 138.268 207.126C138.194 207.023 138.084 206.951 137.959 206.924L137.709 200.767L155.144 202.171L156.133 202.25C156.391 202.272 156.831 202.222 157.009 202.453C157.115 202.711 157.163 202.989 157.151 203.268C157.197 203.723 157.238 204.178 157.273 204.634C157.328 205.355 157.371 206.073 157.4 206.788C157.403 206.989 157.512 207.51 157.404 207.672ZM122.992 95.954C122.971 95.9692 122.952 95.9857 122.933 96.0034C122.822 96.0529 122.732 96.1399 122.678 96.2491C122.524 96.4361 122.382 96.6477 122.249 96.8146C122.009 97.1164 121.768 97.4162 121.527 97.7139C121.003 98.3607 120.475 99.004 119.943 99.6437C118.878 100.923 117.797 102.186 116.699 103.434C116.149 104.058 115.595 104.676 115.036 105.288L114.264 106.138L114.06 106.359C113.953 106.243 113.762 106.059 113.735 106.028L110.352 102.125C109.845 101.54 108.998 102.392 109.502 102.973L111.323 105.076C111.927 105.772 112.501 106.521 113.145 107.178C113.24 107.312 113.364 107.423 113.508 107.502C113.652 107.582 113.812 107.628 113.976 107.637C114.14 107.646 114.305 107.617 114.456 107.554C114.608 107.49 114.743 107.393 114.852 107.27C115.506 106.617 116.109 105.898 116.725 105.209C117.919 103.87 119.093 102.516 120.246 101.147C120.822 100.461 121.393 99.7709 121.96 99.0766C122.244 98.7295 122.526 98.3813 122.805 98.0321L123.225 97.5068C123.299 97.4126 123.428 97.1823 123.534 97.0557C123.698 96.9633 123.82 96.811 123.874 96.6307C123.902 96.5162 123.896 96.396 123.857 96.2848C123.818 96.1735 123.748 96.0761 123.654 96.0043C123.56 95.9326 123.448 95.8896 123.33 95.8807C123.213 95.8717 123.095 95.8972 122.992 95.954ZM43.1354 270.534C38.7069 267.568 34.0581 264.946 29.2295 262.69C26.2226 261.107 22.9587 260.071 19.5897 259.629C18.0344 259.466 16.4709 259.848 15.1661 260.71C13.9923 261.602 13.1741 262.882 12.8577 264.321C12.3548 266.579 12.4079 268.924 13.0123 271.157C13.0084 271.277 13.0513 271.394 13.1321 271.483C13.2128 271.572 13.3249 271.626 13.4449 271.634C17.88 272.169 22.3506 272.351 26.8146 272.179C31.2412 272.138 35.6664 271.994 40.0884 271.792C41.0031 271.75 41.9194 271.707 42.8341 271.656C42.9647 271.652 43.0907 271.607 43.1933 271.526C43.2959 271.445 43.3697 271.333 43.4036 271.207C43.4375 271.081 43.4297 270.947 43.3813 270.826C43.333 270.705 43.2467 270.602 43.1354 270.534Z" fill="black"/>
<path d="M63.6358 269.339C62.2556 268.27 60.8502 267.233 59.4208 266.23C56.4654 264.116 53.4003 262.159 50.2383 260.368C48.6207 259.454 46.9518 258.633 45.2399 257.91C43.8153 257.28 42.3148 256.838 40.7762 256.595C39.2324 256.334 37.6461 256.625 36.2954 257.417C35.0766 258.256 34.1896 259.495 33.7877 260.92C33.3966 262.237 33.2172 263.607 33.2562 264.98C33.2449 265.85 33.3168 266.719 33.471 267.574C33.471 267.618 33.4833 267.661 33.4926 267.704V267.717C33.4977 267.74 33.5044 267.762 33.5127 267.785C33.5402 267.885 33.5995 267.973 33.6817 268.037C33.7639 268.1 33.8646 268.136 33.9685 268.137C35.8876 268.545 37.8282 268.844 39.7811 269.033C42.2533 269.308 44.7331 269.497 47.213 269.671C51.6304 269.966 56.0556 270.158 60.4807 270.289C61.3912 270.317 62.3018 270.34 63.2124 270.36C63.6899 270.373 64.0592 269.668 63.6358 269.339Z" fill="black"/>
<path d="M108.642 229.211L107.805 232.61L108.287 232.578L116.442 232.023V229.212H108.642V229.211Z" fill="#FFD35C"/>
<path d="M117.041 233.179C117.199 233.175 117.349 233.111 117.461 232.999C117.573 232.888 117.638 232.738 117.642 232.58V228.609C117.645 228.534 117.633 228.46 117.606 228.39C117.58 228.32 117.54 228.257 117.488 228.203L117.469 228.183L117.457 228.172C117.403 228.118 117.34 228.076 117.269 228.047C117.199 228.019 117.123 228.006 117.047 228.008H108.179C108.048 228.011 107.921 228.055 107.817 228.135C107.713 228.214 107.637 228.324 107.599 228.45C107.217 229.995 106.835 231.546 106.453 233.102C106.43 233.191 106.427 233.284 106.445 233.375C106.463 233.465 106.502 233.55 106.557 233.623C106.613 233.696 106.685 233.755 106.767 233.797C106.85 233.838 106.94 233.86 107.032 233.861L115.788 233.266L117.041 233.179ZM108.642 229.21H116.442V232.021L108.287 232.575L107.805 232.608C108.085 231.476 108.364 230.343 108.642 229.21Z" fill="black"/>
</svg>
