<svg width="19" height="22" viewBox="0 0 19 22" fill="none" xmlns="http://www.w3.org/2000/svg">
<path d="M5.7 9.53333C5.76333 9.53333 5.82667 9.53333 5.89 9.53333C6.01667 9.75333 6.14333 9.97333 6.27 10.1933C6.39667 11 6.52333 11.66 6.77667 12.4667C7.09333 13.5667 7.53667 14.6667 9.5 14.6667C11.4633 14.6667 11.9067 13.5667 12.2233 12.4667C12.4767 11.66 12.6033 11 12.73 10.1933C12.8567 9.97333 12.9833 9.75333 13.11 9.53333C13.1733 9.53333 13.2367 9.53333 13.3 9.53333C13.8067 9.53333 14.5667 8.36 14.5667 7.33333C14.5667 6.16 14.44 5.5 13.9333 5.28C13.8067 2.27333 12.6667 0 9.5 0C6.33333 0 5.19333 2.27333 5.06667 5.28C4.56 5.5 4.43333 6.16 4.43333 7.33333C4.43333 8.36 5.19333 9.53333 5.7 9.53333ZM17.7333 16.1333C16.8467 15.0333 15.6433 15.0333 14.5667 14.6667C14.06 14.52 13.5533 14.2267 13.0467 13.9333C12.6033 14.96 11.6533 16.1333 9.5 16.1333C7.34667 16.1333 6.39667 14.96 5.95333 13.9333C5.51 14.2267 5.00333 14.52 4.43333 14.6667C3.35667 15.0333 2.15333 15.0333 1.26667 16.1333C0.126667 17.5267 0 19.58 0 20.5333C0 21.2667 0.506667 22 1.26667 22H17.7333C18.4933 22 19 21.2667 19 20.5333C19 19.58 18.8733 17.5267 17.7333 16.1333Z" fill="#601124"/>
</svg>
