<svg width="64" height="64" viewBox="0 0 64 64" fill="none" xmlns="http://www.w3.org/2000/svg">
<path d="M10.7988 10.8C2.09882 19.5 -0.101176 32.2 4.09882 43L42.9988 4.10004C32.1988 -0.0999548 19.4988 2.10005 10.7988 10.8ZM53.1988 53.2C61.8988 44.5 64.0988 31.8 59.8988 21L20.9988 59.9C31.7988 64.1 44.4988 61.9 53.1988 53.2Z" fill="#42ADE2"/>
<path d="M53.1984 10.8C51.1984 8.80002 49.0984 7.20002 46.7984 5.90002L5.89844 46.8C7.19844 49.1 8.79844 51.3 10.7984 53.2C12.7984 55.2 14.8984 56.8 17.1984 58.1L58.0984 17.2C56.7984 14.9 55.1984 12.7 53.1984 10.8Z" fill="#C94747"/>
<path d="M17.2016 58.1C17.8016 58.4 18.4016 58.8 19.1016 59.1C19.7016 59.4 20.4016 59.7 21.1016 60L59.9016 21C59.6016 20.3 59.4016 19.7 59.0016 19C58.7016 18.4 58.4016 17.8 58.0016 17.1L17.2016 58.1ZM44.9016 4.9C44.2016 4.6 43.6016 4.3 42.9016 4L4.10156 43C4.40156 43.7 4.60156 44.3 5.00156 45C5.30156 45.6 5.60156 46.2 6.00156 46.9L46.8016 5.9C46.2016 5.5 45.6016 5.2 44.9016 4.9ZM18.0016 19.2L21.7016 22L20.3016 17.4L24.0016 14.5H19.4016L18.0016 10L16.6016 14.5H12.0016L15.7016 17.4L14.3016 22L18.0016 19.2Z" fill="#FFCE31"/>
</svg>
