<svg width="64" height="64" viewBox="0 0 64 64" fill="none" xmlns="http://www.w3.org/2000/svg">
<path d="M32 62C48.5685 62 62 48.5685 62 32C62 15.4315 48.5685 2 32 2C15.4315 2 2 15.4315 2 32C2 48.5685 15.4315 62 32 62Z" fill="#F5F5F5"/>
<path d="M23.4017 33.7C26.2017 35.6 30.1017 34.8 32.0017 32C33.9017 29.2 37.7017 28.4 40.6017 30.3C43.3017 32.1 44.1017 35.6 42.6017 38.3C45.9017 32.7 44.4017 25.4 38.8017 21.7C33.1017 17.9 25.4017 19.4 21.6017 25.1C21.5017 25.3 21.4017 25.5 21.3017 25.6C19.9017 28.5 20.8017 31.9 23.4017 33.7Z" fill="#ED4C5C"/>
<path d="M40.6005 30.2999C37.8005 28.3999 33.9005 29.2 32.0005 32C30.1005 34.8 26.3005 35.6 23.4005 33.7C20.7005 31.9 19.9005 28.4 21.4005 25.7C18.0005 31.3 19.6005 38.5999 25.2005 42.2999C30.9005 46.0999 38.6005 44.6 42.4005 38.9C42.5005 38.7 42.6005 38.5 42.7005 38.4C44.1005 35.5 43.2005 32.0999 40.6005 30.2999Z" fill="#428BC1"/>
<path d="M7.79844 23.3L14.6984 13L13.9984 12.5L13.2984 12.1L6.39844 22.4L7.09844 22.8L7.79844 23.3ZM9.69844 24.6L10.3984 25L17.1984 14.7L16.5984 14.3L15.8984 13.8L8.99844 24.1L9.69844 24.6ZM18.3984 15.5L11.5984 25.8L12.2984 26.3L12.9984 26.7L19.7984 16.4L19.0984 16L18.3984 15.5ZM48.4984 42.5L49.1984 43L52.3984 38.2L51.6984 37.7L50.9984 37.3L47.7984 42.1L48.4984 42.5ZM56.1984 40.7L52.9984 45.5L53.6984 46L54.3984 46.4L57.5984 41.6L56.8984 41.2L56.1984 40.7ZM51.7984 44.7L54.9984 39.9L54.2984 39.4L53.5984 39L50.3984 43.8L51.0984 44.2L51.7984 44.7ZM48.0984 43.2L47.3984 42.8L44.1984 47.6L44.8984 48L45.5984 48.5L48.7984 43.7L48.0984 43.2ZM50.5984 44.9L49.9984 44.5L46.7984 49.3L47.3984 49.7L48.0984 50.2L51.2984 45.4L50.5984 44.9ZM52.4984 46.2L49.2984 51L49.9984 51.5L50.6984 51.9L53.8984 47.1L53.1984 46.6L52.4984 46.2ZM7.09844 41.2L6.39844 41.6L13.2984 51.9L13.9984 51.5L14.6984 51L7.79844 40.7L7.09844 41.2ZM13.3984 44.9L12.6984 45.4L15.8984 50.2L16.5984 49.7L17.1984 49.3L13.9984 44.5L13.3984 44.9ZM12.2984 37.7L11.5984 38.2L18.3984 48.5L19.0984 48L19.7984 47.6L12.9984 37.3L12.2984 37.7ZM8.99844 39.9L12.1984 44.7L12.8984 44.2L13.5984 43.8L10.3984 39L9.69844 39.4L8.99844 39.9ZM53.1984 17.4L53.8984 16.9L50.6984 12.1L49.9984 12.5L49.2984 13L52.4984 17.8L53.1984 17.4ZM48.0984 20.8L48.7984 20.3L45.5984 15.5L44.8984 16L44.1984 16.4L47.3984 21.2L48.0984 20.8ZM52.9984 18.5L56.1984 23.3L56.8984 22.8L57.5984 22.4L54.3984 17.6L53.6984 18L52.9984 18.5ZM54.2984 24.6L54.9984 24.1L48.0984 13.8L47.3984 14.3L46.7984 14.7L53.5984 25L54.2984 24.6ZM51.6984 26.3L52.3984 25.8L49.1984 21L48.4984 21.5L47.7984 21.9L50.9984 26.7L51.6984 26.3Z" fill="#3E4347"/>
</svg>
