<svg width="68" height="68" viewBox="0 0 68 68" fill="none" xmlns="http://www.w3.org/2000/svg">
<path d="M2.125 34C2.125 47.9188 11.05 59.7125 23.375 64.0688V3.93127C11.05 8.28752 2.125 20.0813 2.125 34ZM65.875 34C65.875 20.0813 57.0563 8.28752 44.625 3.93127V64.0688C57.0563 59.7125 65.875 47.9188 65.875 34Z" fill="#83BF4F"/>
<path d="M23.375 64.0687C26.6687 65.2375 30.2812 65.875 34 65.875C37.7188 65.875 41.3312 65.2375 44.625 64.0687V3.93125C41.3312 2.7625 37.7188 2.125 34 2.125C30.2812 2.125 26.6687 2.7625 23.375 3.93125V64.0687Z" fill="#F9F9F9"/>
</svg>
