<svg width="64" height="64" viewBox="0 0 64 64" fill="none" xmlns="http://www.w3.org/2000/svg">
<path d="M60.0008 42C54.5008 42 50.0008 37.5 50.0008 32H10.8008V53.2C16.2008 58.6 23.7008 62 32.0008 62C45.1008 62 56.2008 53.6 60.3008 42H60.0008Z" fill="#3E4347"/>
<path d="M60.0008 22H60.3008C56.2008 10.4 45.1008 2 32.0008 2C23.7008 2 16.2008 5.4 10.8008 10.8V32H50.0008C50.0008 26.5 54.5008 22 60.0008 22Z" fill="#ED4C5C"/>
<path d="M60.3008 22H10.8008V42H60.3008C61.4008 38.9 62.0008 35.5 62.0008 32C62.0008 28.5 61.4008 25.1 60.3008 22Z" fill="#F9F9F9"/>
<path d="M10.8 10.8C5.4 16.2 2 23.7 2 32C2 40.3 5.4 47.8 10.8 53.2001L32 32L10.8 10.8Z" fill="#699635"/>
</svg>
