<svg viewBox="0 0 64 64" fill="none" xmlns="http://www.w3.org/2000/svg">
<path d="M31.9992 2C18.8992 2 7.79922 10.3 3.69922 22H60.2992C56.1992 10.3 45.0992 2 31.9992 2Z" fill="#C94747"/>
<path d="M31.9992 62C45.0992 62 56.1992 53.7 60.2992 42H3.69922C7.79922 53.7 18.8992 62 31.9992 62Z" fill="#699635"/>
<path d="M3.7 22C2.6 25.1 2 28.5 2 32C2 35.5 2.6 38.9 3.7 42H60.3C61.4 38.9 62 35.5 62 32C62 28.5 61.4 25.1 60.3 22H3.7Z" fill="#FFCE31"/>
<path d="M32 37.3L38.2 42L35.8 34.4L42 29.5H34.4L32 22L29.7 29.5H22L28.2 34.4L25.8 42L32 37.3Z" fill="#3E4347"/>
</svg>
