<svg width="64" height="64" viewBox="0 0 64 64" fill="none" xmlns="http://www.w3.org/2000/svg">
<path d="M32 2C19.7 2 9.1 9.4 4.5 20H59.5C54.9 9.4 44.3 2 32 2Z" fill="#3E4347"/>
<path d="M32 62C44.3 62 54.9 54.6 59.5 44H4.5C9.1 54.6 19.7 62 32 62Z" fill="#75A843"/>
<path d="M62 32C62 29.2 61.6 26.5 60.9 24H3.1C2.4 26.5 2 29.2 2 32C2 34.8 2.4 37.5 3.1 40H60.9C61.6 37.5 62 34.8 62 32Z" fill="#C94747"/>
<path d="M3.70156 42C3.90156 42.7 4.20156 43.3 4.50156 44H59.5016C59.8016 43.3 60.1016 42.7 60.3016 42C60.5016 41.3 60.7016 40.7 60.9016 40H3.10156C3.30156 40.7 3.50156 41.3 3.70156 42ZM60.3016 22C60.1016 21.3 59.8016 20.7 59.5016 20H4.50156C4.20156 20.7 3.90156 21.3 3.70156 22C3.50156 22.7 3.30156 23.3 3.10156 24H60.9016C60.7016 23.3 60.5016 22.7 60.3016 22Z" fill="white"/>
<path d="M20.2031 52.3L20.9031 52.7L40.2031 19.3C41.3031 19 41.9031 17.9 42.6031 16.9C43.0031 16.2 44.7031 13.3 45.4031 9.59998C42.5031 12.1 40.9031 14.9 40.5031 15.7C39.9031 16.8 39.3031 17.8 39.6031 19L20.2031 52.3Z" fill="white"/>
<path d="M43.8016 52.3L43.1016 52.7L23.8016 19.3C22.7016 19 22.1016 17.9 21.4016 16.9C21.0016 16.2 19.3016 13.3 18.6016 9.59998C21.5016 12.1 23.1016 14.9 23.5016 15.7C24.1016 16.8 24.7016 17.8 24.4016 19L43.8016 52.3Z" fill="white"/>
<path d="M40 32C40 43 32 52 32 52C32 52 24 43 24 32C24 21 32 12 32 12C32 12 40 21 40 32Z" fill="#C94747"/>
<path d="M26.1 40C27.8 38.3 29 35.4 29 32C29 28.6 27.9 25.7 26.1 24C25.4 26.3 25 29.1 25 32C25 34.9 25.4 37.7 26.1 40ZM37.9 24C36.2 25.7 35 28.6 35 32C35 35.4 36.1 38.3 37.9 40C38.6 37.7 39 34.9 39 32C39 29.1 38.6 26.3 37.9 24Z" fill="#3E4347"/>
<path d="M31.9984 34.4C32.8821 34.4 33.5984 33.3255 33.5984 32C33.5984 30.6745 32.8821 29.6 31.9984 29.6C31.1148 29.6 30.3984 30.6745 30.3984 32C30.3984 33.3255 31.1148 34.4 31.9984 34.4Z" fill="white"/>
<path d="M31.3984 12.7C30.7984 14.4 30.3984 17.6 30.3984 21.1C30.3984 24.7 30.7984 27.8 31.3984 29.5C31.5984 27 31.7984 24.2 31.7984 21.1C31.7984 18.1 31.6984 15.2 31.3984 12.7ZM32.5984 12.7C33.1984 14.4 33.5984 17.6 33.5984 21.1C33.5984 24.7 33.1984 27.8 32.5984 29.5C32.3984 27 32.1984 24.2 32.1984 21.1C32.1984 18.1 32.2984 15.2 32.5984 12.7ZM31.3984 34.4C30.7984 36.1 30.3984 39.2999 30.3984 42.7999C30.3984 46.3999 30.7984 49.5 31.3984 51.2C31.5984 48.7 31.7984 45.8999 31.7984 42.7999C31.7984 39.7999 31.6984 36.9 31.3984 34.4ZM32.5984 34.4C33.1984 36.1 33.5984 39.2999 33.5984 42.7999C33.5984 46.3999 33.1984 49.5 32.5984 51.2C32.3984 48.7 32.1984 45.8999 32.1984 42.7999C32.1984 39.7999 32.2984 36.9 32.5984 34.4Z" fill="white"/>
</svg>
