<svg width="64" height="64" viewBox="0 0 64 64" fill="none" xmlns="http://www.w3.org/2000/svg">
<path d="M32 62C48.6 62 62 48.6 62 32H2C2 48.6 15.4 62 32 62Z" fill="#F42F4C"/>
<path d="M32 2C15.4 2 2 15.4 2 32H62C62 15.4 48.6 2 32 2Z" fill="#2A5F9E"/>
<path d="M20 22V39.4C20.3 39.2 43.7 39.4 44 39.5V22H20Z" fill="white"/>
<path d="M39.2 37.5H24.7L20 39.4V42H44V39.5L39.2 37.5ZM37.4 40.6C37.4 40.6 35.5 41.3 31.9 41.3C28.4 41.3 26.4 40.6 26.4 40.6V39.8C26.4 39.8 27.9 40.5 31.9 40.5C35.9 40.5 37.4 39.8 37.4 39.8V40.6Z" fill="#699635"/>
<path d="M31.5 35.4C31.5 35.1 31.5 34.9 31.4 34.6L29.4 32.4C28.8 32.5 29.1 33.4 29.3 33.8L31.5 35.4ZM28.7 33.6C28.1 33.8 28.3 34.6 28.5 35.1L31.1 36.6C31.2 36.5 31.4 36.5 31.6 36.5C31.6 36.4 31.6 36.2 31.5 35.9L28.7 33.6ZM30.9 36.8L28.3 35.3C28 35.4 28 35.6 28 35.9L29.2 37.7L30.8 38.2L30.9 36.8ZM34.6 33.8C34.8 33.4 35.1 32.5 34.5 32.4L32.5 34.7C32.5 35 32.5 35.2 32.4 35.5L34.6 33.8ZM35.5 35.1C35.7 34.6 36 33.8 35.3 33.6L32.3 35.9C32.3 36.1 32.3 36.3 32.2 36.4C32.4 36.4 32.6 36.5 32.8 36.6L35.5 35.1ZM36 35.9C36 35.6 35.9 35.4 35.7 35.4L33 36.8L33.1 38.2L34.7 37.7L36 35.9Z" fill="#F42F4C"/>
<path d="M32.2984 27.7999V28.1999C32.4984 28.6999 32.6984 29.0999 33.0984 29.3999C33.2984 29.0999 33.2984 28.1999 33.0984 27.3999C33.3984 27.7999 33.8984 28.0999 34.2984 28.1999C34.2984 27.8999 34.0984 27.3999 33.7984 26.9999C34.3984 27.2999 35.0984 27.4999 35.8984 27.3999C35.6984 27.0999 35.1984 26.7999 34.6984 26.4999C35.5984 26.6999 36.4984 26.9999 36.5984 26.9999C36.4984 26.0999 36.0984 26.0999 35.3984 25.7999H37.1984C36.7984 24.9999 35.2984 24.9999 34.0984 25.1999C34.7984 24.9999 35.7984 24.6999 35.8984 24.6999C35.5984 24.4999 34.1984 23.5999 32.4984 24.9999C32.4984 25.4999 32.2984 25.9999 31.9984 25.9999C31.6984 25.9999 31.4984 25.5999 31.4984 24.9999C29.7984 23.6999 28.4984 24.4999 28.1984 24.7999C28.2984 24.7999 29.2984 25.0999 29.9984 25.2999C28.7984 25.0999 27.2984 25.1999 26.8984 25.8999H28.6984C27.9984 26.2999 27.5984 26.2999 27.4984 27.0999C27.4984 27.0999 28.4984 26.7999 29.3984 26.5999C28.8984 26.8999 28.3984 27.1999 28.1984 27.4999C28.9984 27.5999 29.7984 27.2999 30.2984 27.0999C29.9984 27.4999 29.6984 27.9999 29.7984 28.2999C30.1984 28.1999 30.5984 27.8999 30.9984 27.4999C30.7984 28.2999 30.7984 29.0999 30.9984 29.4999C31.2984 29.2999 31.4984 28.9999 31.5984 28.5999V27.8999H32.2984V27.7999Z" fill="#699635"/>
<path d="M26.5 39.8V40.6C26.5 40.6 28.5 41.3 32 41.3C35.5 41.3 37.5 40.6 37.5 40.6V39.8C37.5 39.8 36 40.5 32 40.5C28 40.5 26.5 39.8 26.5 39.8Z" fill="white"/>
<path d="M29.5001 32.4L27.1001 29.7C26.4001 30.3 26.4001 31.2 26.4001 31.5L29.4001 33.7C29.2001 33.4 28.8001 32.5 29.5001 32.4ZM28.7001 33.5999L25.1001 30.7999C24.6001 31.3999 24.9001 32.9 25.0001 33.2L28.5001 35.0999C28.3001 34.6999 28.0001 33.7999 28.7001 33.5999ZM23.9001 34.2999C23.9001 34.5999 23.8001 34.9 24.0001 35.5L27.9001 35.9C27.9001 35.6 28.0001 35.4 28.2001 35.4L23.7001 32.9C23.5001 33.4 23.8001 34.1999 23.9001 34.2999ZM37.6001 31.5C37.6001 31.2 37.6001 30.3 36.9001 29.7L34.5001 32.4C35.1001 32.5 34.8001 33.4 34.6001 33.7999L37.6001 31.5ZM39.0001 33.2999C39.1001 32.9 39.4001 31.4999 38.9001 30.9L35.3001 33.7C35.9001 33.9 35.7001 34.7 35.5001 35.2L39.0001 33.2999ZM40.2001 32.7999L35.7001 35.2999C35.9001 35.4 36.0001 35.5999 36.0001 35.7999L39.9001 35.4C40.1001 34.8 40.0001 34.5 40.0001 34.2C40.2001 34.2 40.5001 33.4 40.2001 32.7999ZM31.9001 25.7999C32.2001 25.7999 32.4001 25.3999 32.4001 24.7999V24.7C32.4001 24.1 32.2001 23.7 31.9001 23.7C31.6001 23.7 31.4001 24.2 31.4001 24.7C31.4001 25.4 31.7001 25.7999 31.9001 25.7999Z" fill="#2A5F9E"/>
<path d="M40.3008 36.3L40.2008 35.5L38.5008 35.7C38.3008 35.6 38.0008 35.5 37.7008 35.5C37.3008 35.5 36.9008 35.7 36.6008 35.9L34.6008 36.1L34.8008 36.9L35.4008 36.8L34.9008 37.7L33.3008 38.2V37H31.0008V38.2L29.4008 37.7L28.9008 36.9L28.8008 36.8L29.4008 36.9L29.6008 36.1L27.6008 35.9C27.3008 35.6 26.9008 35.5 26.5008 35.5C26.2008 35.5 25.9008 35.6 25.7008 35.7L23.9008 35.5L23.8008 36.3L25.0008 36.4C24.9008 36.6 24.8008 36.9 24.8008 37.2C24.8008 38.2 25.6008 39 26.6008 39C27.4008 39 28.1008 38.4 28.3008 37.7L28.6008 38.1L31.1008 38.8C31.1008 39 31.6008 39.2 32.3008 39.2C32.9008 39.2 33.5008 39 33.5008 38.8L36.0008 38.1L36.3008 37.7C36.5008 38.5 37.2008 39 38.0008 39C39.0008 39 39.8008 38.2 39.8008 37.2C39.8008 36.9 39.7008 36.6 39.6008 36.4L40.3008 36.3Z" fill="#FFE62E"/>
<path d="M24.6 30.5C24.6 30.6 24.5 30.6999 24.5 30.7999L24.9 31L25.1 30.7999L31.6 35.9L31.7 36.4H32.4L32.5 35.9L39.1 30.7999L39.3 31L39.7 30.7999C39.6 30.6999 39.6 30.6 39.5 30.5H39.8L40.4 29.7L39.4 30.1V30.2999H39.3L39.1 30.1L38.8 30.4L39 30.6L32.6 35.2999L32.7 34.5999L37.3 29.5L37.5 29.7L37.9 29.4C37.8 29.3 37.8 29.2 37.7 29.2L38 29.1L38.4 28.2L37.5 28.7999V29.1C37.4 29 37.3 29 37.2 28.9L36.9 29.2999L37.1 29.5L34.3 32.4L34.8 31.2999L34.5 31.2L33.2 33.5L34.2 30.7H33.8L32.7 33.7L33.4 30.7999H33L32.5 32.7C32.5 31.7 32.3 27.7 32.3 27.7H31.4C31.4 27.7 31.3 31.3 31.3 32.4L31 30.7999H30.6L31.3 33.7L30.2 30.7H29.8L30.8 33.5L29.5 31.2L29.2 31.2999L29.7 32.4L26.9 29.5L27.1 29.2999L27 28.9C26.9 29 26.8 29 26.7 29.1V28.7999L25.8 28.2L26.2 29.1L26.5 29.2L26.3 29.4L26.7 29.7L26.9 29.5L31.4 34.5999L31.5 35.2999L25.2 30.6L25.4 30.4L25 30.1C24.9 30.2 24.8 30.1999 24.8 30.2999H24.7V30.1L23.7 29.7L24.3 30.5H24.6ZM23.6 33L23.7 32.7999L30.8 36.7999L31.4 36.5999L23.8 32.5999L23.9 32.4L23.5 32.0999C23.4 32.1999 23.4 32.2999 23.3 32.2999H23.2L23.1 32.0999L22 31.7999L22.7 32.5H23.1C23 32.6 23 32.6999 23 32.7999L23.6 33ZM41 32.5999L41.7 31.9L40.6 32.2L40.5 32.4H40.4C40.3 32.3 40.3 32.2 40.2 32.2L40 32.4L40.1 32.5999L32.6 36.5999L33.1 36.7999L35.7 35.2999L40.2 32.7999L40.3 33L40.8 32.9C40.8 32.8 40.7 32.6999 40.7 32.5999H41Z" fill="#FFE62E"/>
<path d="M32.0008 37.6C32.6635 37.6 33.2008 37.3314 33.2008 37C33.2008 36.6687 32.6635 36.4 32.0008 36.4C31.338 36.4 30.8008 36.6687 30.8008 37C30.8008 37.3314 31.338 37.6 32.0008 37.6Z" fill="#2A5F9E"/>
</svg>
