<svg viewBox="0 0 64 64" fill="none" xmlns="http://www.w3.org/2000/svg">
<path d="M53.1008 10.7C41.4008 -0.9 22.5008 -0.9 10.8008 10.7L32.0008 27L53.1008 10.7ZM10.9008 53.3C22.6008 64.9 41.5008 64.9 53.2008 53.3L32.0008 37L10.9008 53.3Z" fill="#699635"/>
<path d="M57.9984 47C63.2984 37.8 63.2984 26.3 57.9984 17.1L38.5984 32L57.9984 47ZM5.99844 17C0.698437 26.3 0.698437 37.7 5.99844 47L25.4984 32L5.99844 17Z" fill="#3E4347"/>
<path d="M53.1 10.7L32 27L10.9 10.7C9 12.6 7.3 14.7 6 17L25.4 32L6 47C7.3 49.2999 9 51.5 10.9 53.2999L32 37L53.1 53.2999C55 51.3999 56.6 49.2999 58 47L38.6 32L58 17C56.7 14.7 55 12.6 53.1 10.7Z" fill="#FFE62E"/>
</svg>
