<svg width="47" height="49" viewBox="0 0 47 49" fill="none" xmlns="http://www.w3.org/2000/svg">
<path d="M9.07956 30.8613C9.07956 30.8613 5.89781 33.4402 5.69578 40.5264C5.69107 40.7185 5.72425 40.9096 5.79334 41.0883C5.86242 41.267 5.966 41.4296 6.09787 41.5665C6.22975 41.7033 6.38722 41.8115 6.56089 41.8847C6.73455 41.9579 6.92085 41.9945 7.10865 41.9923C13.8087 41.8646 16.554 38.5099 16.554 38.5099C17.5115 37.4776 18.0453 36.1087 18.0453 34.6856C18.0453 33.2624 17.5115 31.8935 16.554 30.8613C14.4901 28.7491 11.4306 28.8518 9.07956 30.8613Z" fill="#FDC323"/>
<path d="M23.8707 33.3849C24.8179 34.6619 25.3966 36.1847 25.5415 37.7809C25.6836 40.2774 25.4681 42.7817 24.9018 45.2144C24.8568 45.4159 24.8694 45.6264 24.938 45.8208C25.0066 46.0152 25.1284 46.1854 25.2888 46.311C25.4492 46.4367 25.6415 46.5125 25.8428 46.5295C26.0442 46.5465 26.246 46.5039 26.4244 46.4069C32.0745 43.3605 36.74 37.4734 33.7633 29.7939C30.7709 31.7353 27.3898 32.9627 23.8707 33.3849Z" fill="#FDC323"/>
<path d="M9.78913 21.6613C11.3509 21.8099 12.8405 22.4037 14.089 23.3751C14.496 19.7718 15.6956 16.3098 17.5978 13.249C10.091 10.2 4.3375 14.9766 1.35733 20.7586C1.26316 20.9396 1.22194 21.1445 1.2386 21.3488C1.25525 21.5532 1.32909 21.7482 1.45126 21.9108C1.57296 22.0767 1.73885 22.2031 1.92902 22.275C2.1192 22.3468 2.32559 22.361 2.52345 22.3158C4.90129 21.7369 7.34901 21.5164 9.78913 21.6613Z" fill="#FDC323"/>
<path d="M44.3695 4.01984C44.308 3.61317 44.1216 3.2371 43.8372 2.94614C43.5528 2.65518 43.1853 2.46445 42.7878 2.40159C40.4763 2.04553 38.1264 2.03563 35.8121 2.37221C36.0865 4.60402 37.0795 6.67875 38.6344 8.26878C40.1894 9.85881 42.2176 10.8736 44.3989 11.1528C44.7271 8.78625 44.7172 6.38346 44.3695 4.01984Z" fill="#FDC323"/>
<path d="M33.8645 2.74219C30.3903 3.55963 27.1868 5.29641 24.5747 7.77873C16.0012 15.9016 16.032 24.137 16.032 24.137L23.1282 31.3982C23.1282 31.3982 31.177 31.4298 39.1147 22.6574C41.5416 19.9833 43.2393 16.7036 44.0377 13.1469C41.463 12.7904 39.0737 11.5796 37.2361 9.70021C35.3986 7.8208 34.2141 5.37653 33.8645 2.74219ZM30.5955 20.7282C29.7763 20.7282 28.9755 20.4796 28.2944 20.0139C27.6133 19.5482 27.0824 18.8863 26.7689 18.1118C26.4554 17.3374 26.3734 16.4853 26.5332 15.6631C26.693 14.841 27.0875 14.0858 27.6668 13.4931C28.246 12.9004 28.984 12.4967 29.7875 12.3332C30.5909 12.1697 31.4237 12.2536 32.1805 12.5744C32.9374 12.8951 33.5842 13.4384 34.0394 14.1353C34.4945 14.8323 34.7374 15.6517 34.7374 16.49C34.7374 17.0465 34.6303 17.5976 34.4221 18.1118C34.214 18.626 33.9089 19.0933 33.5243 19.4868C33.1396 19.8804 32.6831 20.1925 32.1805 20.4055C31.678 20.6185 31.1394 20.7282 30.5955 20.7282Z" fill="#FDC323"/>
</svg>
