<svg width="25" height="25" viewBox="0 0 25 25" fill="none" xmlns="http://www.w3.org/2000/svg">
<g clip-path="url(#clip0_75_7791)">
<path d="M22.2222 3.47223H2.77778C2.04107 3.47223 1.33453 3.76489 0.813592 4.28582C0.292658 4.80676 0 5.51329 0 6.25001L0 9.72223H25V6.25001C25 5.51329 24.7073 4.80676 24.1864 4.28582C23.6655 3.76489 22.9589 3.47223 22.2222 3.47223Z" fill="#CC212D"/>
<path d="M10.7104 15.2778H14.3111L12.5111 13.9695L10.7104 15.2778ZM13.2014 11.8465H15.434L13.6278 13.1583L14.316 15.2778H25V9.72223H12.5111L13.2014 11.8465ZM11.3944 13.1583L9.58819 11.8465H11.8208L12.5111 9.72223H0V15.2778H10.7056L11.3944 13.1583Z" fill="#FBD116"/>
<path d="M14.3174 15.2819L14.3111 15.2778H10.7097L10.7035 15.2819L10.7056 15.2778H0V18.75C0 19.4867 0.292658 20.1932 0.813592 20.7142C1.33453 21.2351 2.04107 21.5278 2.77778 21.5278H22.2222C22.9589 21.5278 23.6655 21.2351 24.1864 20.7142C24.7073 20.1932 25 19.4867 25 18.75V15.2778H14.316L14.3174 15.2819Z" fill="#288541"/>
<path d="M9.58813 11.8465L11.3944 13.1583L10.7055 15.2778L10.7041 15.282L10.7104 15.2778L12.5111 13.9695L14.3111 15.2778L14.3173 15.282L14.3159 15.2778L13.6277 13.1583L15.434 11.8465H13.2013L12.5111 9.72223L11.8208 11.8465H9.58813Z" fill="black"/>
</g>
<defs>
<clipPath id="clip0_75_7791">
<rect width="25" height="25" fill="white"/>
</clipPath>
</defs>
</svg>
