<svg width="245" height="243" viewBox="0 0 245 243" fill="none" xmlns="http://www.w3.org/2000/svg">
<path d="M54.8615 64.7748C54.8585 64.8563 54.8321 64.9351 54.7854 65.0021C54.7386 65.0691 54.6735 65.1214 54.5977 65.1528C54.522 65.1843 54.4387 65.1935 54.3578 65.1795C54.2769 65.1655 54.2017 65.1288 54.1412 65.0737C52.9947 64.0602 52.0404 62.8512 51.3237 61.5041C50.5372 61.5737 49.7532 61.6515 48.9717 61.7373C49.0825 63.9265 49.3693 66.1034 49.8292 68.2473C53.0987 67.8221 55.1494 67.9946 58.1825 67.7115C57.9375 65.578 58.2817 63.3776 57.8419 61.272C56.9556 61.2453 56.0687 61.2453 55.1824 61.272C54.9111 62.419 54.803 63.5981 54.8615 64.7748Z" fill="#FFCEB6"/>
<path d="M97.02 131.739C96.2848 131.135 95.6785 130.392 95.2365 129.552C85.1241 127.196 78.7835 125.59 69.0815 120.169C67.9116 119.515 65.5608 118.131 64.696 117.544C63.9352 117.029 62.9454 103.554 61.8429 94.9538C61.8404 94.8799 61.8585 94.8068 61.8953 94.7425C61.932 94.6781 61.986 94.6251 62.0512 94.5893C70.8896 90.286 80.1329 86.8546 89.648 84.3444C89.755 84.3166 89.8687 84.3312 89.965 84.3852C90.0613 84.4392 90.1326 84.5283 90.1637 84.6336C92.0968 91.4899 95.5501 92.0427 100.873 105.012C101.817 106.642 101.51 106.778 101.363 113.536C103.127 112.004 104.528 111.05 105.439 108.477C106.291 104.493 104.975 103.08 104.48 97.5138C104.359 95.0238 104.764 92.5361 105.669 90.2104C106.574 87.8846 107.959 85.7721 109.735 84.0083C111.511 82.2445 113.639 80.8684 115.983 79.9682C118.327 79.068 120.835 78.6636 123.345 78.781C125.11 77.4803 127.225 76.7315 129.421 76.6304C133.869 76.3753 138.731 77.2732 142.209 80.115C146.917 84.1136 148.525 91.0598 147.654 96.9306C147.352 99.2918 146.856 101.625 146.172 103.906C143.889 109.938 147.622 110.893 150.469 114.402C153.459 117.948 154.501 122.664 151.779 126.712C160.117 129.463 166.92 131.03 172.383 137.673C172.482 137.631 172.593 137.625 172.696 137.656C172.799 137.686 172.888 137.752 172.948 137.841C174.386 139.696 175.489 141.784 176.208 144.013C191.201 144.077 189.587 144.638 188.569 143.67C188.18 143.3 188.774 142.712 189.162 143.082C189.606 143.497 190.077 143.881 190.572 144.234C191.074 144.234 191.578 144.249 192.081 144.252C193.447 142.768 195.191 141.677 197.13 141.093C196.946 139.954 196.898 138.798 196.987 137.648C197.031 137.118 197.871 137.114 197.827 137.648C197.742 138.729 197.783 139.816 197.949 140.888C199.522 140.53 201.172 140.723 202.617 141.434L204.413 138.601C204.701 138.15 205.425 138.567 205.137 139.022C203.104 142.222 203.3 141.826 203.462 141.949C204.291 142.594 205.004 143.375 205.569 144.257C209.973 144.231 214.376 144.175 218.778 144.09C217.97 134.383 217.417 125.622 217.168 114.649C216.992 106.767 215.474 35.8489 215.277 20.122C159.124 20.9725 116.219 15.234 43.8134 21.6954C43.2082 92.9114 44.5312 133.797 44.7419 144.96C54.9315 145.772 85.4597 145.523 85.5247 145.369C87.9734 139.835 91.9608 135.107 97.02 131.739ZM206.002 56.8757C206.138 55.4999 206.351 54.1325 206.639 52.78C206.763 52.5706 206.939 52.3965 207.15 52.2745C207.304 51.9374 207.564 51.6585 207.89 51.479C208.217 51.2996 208.593 51.2292 208.963 51.2782C209.027 41.9632 209.192 32.6482 209.459 23.3332C209.463 23.2229 209.511 23.1187 209.593 23.0435C209.674 22.9683 209.783 22.9283 209.894 22.9323C210.732 22.9614 210.017 22.5678 209.795 51.5018C210.291 51.8528 210.698 52.3128 210.986 52.8458C211.273 53.3788 211.432 53.9704 211.451 54.5745C212.541 61.5 211.948 69.762 211.036 71.949C210.921 72.1939 210.755 72.4115 210.548 72.587C210.341 72.7625 210.098 72.8917 209.836 72.966C210.074 94.8032 210.874 116.868 212.398 140.066C212.433 140.6 211.593 140.597 211.559 140.066C210.087 117.737 209.236 95.3726 209.006 72.9976C208.434 72.8146 207.928 72.4681 207.554 72.0014C207.18 71.5347 206.952 70.9686 206.901 70.3744C205.842 65.9565 205.539 61.3932 206.007 56.8757L206.002 56.8757ZM154.29 59.9387C155.706 58.1077 174.836 39.4174 176.12 38.5207C176.443 38.3579 177.728 38.8281 178.005 38.9338C178.25 39.0249 177.822 39.7637 181.241 32.2234C181.984 30.3567 182.988 28.6032 184.224 27.0147C184.921 26.1906 185.768 25.5046 186.722 24.9929C186.983 24.863 187.279 24.8171 187.568 24.8616C187.857 24.9061 188.125 25.0387 188.335 25.2412C188.544 25.4436 188.685 25.7057 188.737 25.9911C188.789 26.2765 188.751 26.571 188.627 26.8336C188.43 27.2516 188.445 27.2164 182.493 39.0626C185.507 34.4189 189.353 30.0595 194.621 28.2321C194.866 28.1506 195.131 28.1442 195.38 28.2136C195.63 28.2831 195.852 28.4253 196.019 28.6217C196.186 28.8181 196.289 29.0598 196.316 29.3153C196.343 29.5708 196.292 29.8283 196.169 30.0546C194.515 33.148 190.737 33.6316 185.287 39.7102C194.094 31.8455 205.148 33.9633 202.103 36.0385C197.448 39.2242 191.8 40.5486 186.293 41.8109C189.853 41.1548 195.144 40.9325 198.421 42.5727C198.673 42.7071 198.875 42.9195 198.995 43.1776C199.114 43.4357 199.146 43.7256 199.085 44.0033C199.024 44.281 198.874 44.5314 198.656 44.7166C198.439 44.9017 198.166 45.0116 197.88 45.0295C194.139 45.2725 188.256 45.411 184.116 45.3028C185.341 47.9576 185.033 47.9455 185.069 47.824C185.052 47.8851 185.016 47.9392 184.965 47.9783C184.843 48.0913 183.577 48.6842 183.7 48.6247C180.384 55.0423 176.829 62.5644 173.036 68.6041C171.712 70.7085 169.838 70.4424 170.225 67.931C171.064 62.9429 172.377 58.0445 174.145 53.3012C155.533 62.4137 157.24 61.6397 156.224 61.9921C154.854 62.4878 153.505 61.1683 154.295 59.9387L154.29 59.9387ZM170.415 89.3126C170.415 84.0638 175.14 79.7469 180.298 78.7202C200.854 73.9817 203.399 96.0741 191.936 99.4238C193.896 100.724 195.82 102.097 197.67 103.555C200.006 105.4 202.377 107.595 202.93 110.505C203.123 111.874 202.97 113.269 202.485 114.564C202.001 115.86 201.199 117.017 200.153 117.929C198.179 119.957 195.494 121.152 192.655 121.268C177.703 120.771 166.968 107.103 153.851 99.9426C147.735 96.3389 154.74 85.1281 170.42 89.3126L170.415 89.3126ZM140.998 58.3957C142.607 57.9522 148.715 57.1455 149.92 58.1223C150.112 58.3155 150.043 57.8465 150.288 65.371C150.271 66.4499 148.498 64.817 141.759 66.0709C141.007 66.2397 141.252 65.3868 140.686 58.7966C140.687 58.7053 140.718 58.6166 140.774 58.5442C140.83 58.4718 140.909 58.4196 140.998 58.3957ZM49.0931 68.8265C48.5431 66.3738 48.2123 63.8779 48.1046 61.3676C48.1077 61.2576 48.1536 61.1532 48.2326 61.0759C48.3115 60.9987 48.4175 60.9548 48.5284 60.9533C49.3331 60.8605 50.1388 60.7762 50.9453 60.7005C50.8522 60.4928 50.7457 60.2935 50.6624 60.0821C50.4664 59.5815 51.2749 59.3689 51.4709 59.861C51.575 60.1271 51.7061 60.3737 51.8273 60.6301C52.7265 60.556 53.6305 60.5086 54.5321 60.4673C54.7941 59.5514 55.1521 58.6653 55.6003 57.8234C55.8551 57.3508 56.5803 57.7736 56.3243 58.2462C55.952 58.9451 55.6472 59.6774 55.4141 60.4332C56.339 60.4114 57.2602 60.4089 58.1863 60.4454C59.3047 60.4612 58.6212 65.3528 59.0438 67.9711C59.3501 69.1995 54.9303 68.3028 49.6113 69.1132C49.2842 69.1521 49.1225 69.0124 49.0931 68.8265ZM61.0124 127.964C61.021 128.179 60.8813 128.282 60.7061 128.365C57.6994 129.231 54.5189 129.319 51.4684 128.619C51.3812 128.593 51.3046 128.54 51.2496 128.468C51.1946 128.396 51.164 128.308 51.1622 128.218C50.8077 125.453 50.6322 122.669 50.6366 119.882C50.6428 119.332 51.0789 119.463 53.6379 119.466C53.4027 118.996 53.1687 118.519 52.9274 118.052C52.6861 117.586 53.4051 117.159 53.6514 117.635C53.9625 118.243 54.2639 118.85 54.5689 119.465L57.4366 119.465C57.9752 117.586 58.4249 115.682 58.7841 113.761C58.8809 113.233 59.6882 113.457 59.5926 113.98C59.2497 115.826 58.8238 117.657 58.3162 119.466L60.5947 119.466C60.7052 119.467 60.8109 119.511 60.889 119.589C60.9671 119.666 61.0114 119.771 61.0124 119.881L61.0124 127.964ZM57.3594 46.3781C51.5064 42.4561 53.7739 37.3142 57.3594 37.6362C60.2021 37.8433 62.9437 38.7703 65.3219 40.3286C62.981 33.6461 66.6915 28.7533 70.7266 29.0486C73.9349 29.2819 75.5801 32.1274 76.6495 34.8466C77.4182 31.8985 79.1806 29.2999 81.6439 27.4824C82.2406 26.9761 82.9388 26.6009 83.6924 26.3816C84.446 26.1623 85.2379 26.104 86.0159 26.2103C88.7427 26.8446 88.8334 30.7885 88.6178 33.555C92.7093 27.2492 100.133 32.1213 93.7836 37.7711C92.0539 39.5012 91.1891 40.6676 92.1066 42.9202C96.6856 58.9777 96.9086 58.4018 96.4112 58.6338C96.274 58.742 96.5006 58.5852 90.3168 60.8014C83.6038 63.3658 76.7292 65.493 69.7368 67.1692C69.6297 67.1964 69.5161 67.1813 69.42 67.1271C69.3238 67.073 69.2525 66.984 69.2211 66.8788C67.2611 60.7139 66.422 52.9452 61.1851 49.0523C59.9417 48.1229 58.593 47.3331 57.3594 46.3781Z" fill="#FFCEB6"/>
<path d="M149.441 64.8802L149.243 58.6764C148.121 58.1734 143.478 58.7116 141.558 59.1101C141.727 61.1319 141.87 63.1561 142.037 65.1766C144.482 64.7615 146.971 64.6618 149.441 64.8802ZM54.015 63.7636C54.0372 62.9368 54.1373 62.1139 54.3139 61.3056C53.623 61.3356 52.9329 61.3761 52.2436 61.4271C52.7357 62.2748 53.3305 63.0594 54.015 63.7636ZM56.0375 124.245C55.3625 122.934 54.7096 121.615 54.053 120.295L51.4805 120.295C51.4926 122.824 51.6521 125.351 51.9582 127.862C54.6721 128.441 57.4861 128.367 60.1657 127.648L60.1657 120.295L58.0587 120.295C57.68 121.592 57.2588 122.877 56.7957 124.147C56.7713 124.222 56.7256 124.29 56.6641 124.341C56.6025 124.392 56.5276 124.424 56.4481 124.434C56.3686 124.445 56.2878 124.432 56.215 124.399C56.1423 124.365 56.0807 124.312 56.0375 124.245Z" fill="#FFCEB6"/>
<path d="M56.324 122.956C56.6327 122.074 56.9231 121.188 57.1913 120.293L54.9863 120.293C55.429 121.186 55.8749 122.073 56.324 122.956Z" fill="#FFCEB6"/>
<path d="M191.485 144.848C191.673 144.638 191.878 144.45 192.076 144.251C191.572 144.251 191.069 144.237 190.566 144.232C190.865 144.449 191.17 144.658 191.485 144.848Z" fill="black"/>
<path d="M100.749 106.921C100.67 106.668 99.4011 103.66 99.3436 103.539C94.7229 92.8465 91.2965 91.4481 89.4651 85.2734C80.2514 87.7323 71.2955 91.0587 62.7197 95.2073C63.6348 102.427 64.1309 109.695 65.2273 116.893C76.2401 123.912 83.6023 125.98 94.816 128.608C92.7727 123.107 96.1046 118.211 100.485 114.306C100.678 105.514 100.803 108.077 100.749 106.921ZM85.7277 97.8693C85.7951 97.3445 86.6342 97.3396 86.5656 97.8693C86.4337 98.8674 86.5227 99.882 86.8265 100.842C86.9882 101.356 86.1785 101.571 86.018 101.064C85.6881 100.03 85.589 98.9383 85.7277 97.8633V97.8693ZM78.7452 94.0664L79.0625 95.6046C79.169 96.1282 78.3618 96.3494 78.254 95.8257L77.9367 94.2875C77.8313 93.7748 78.6447 93.5367 78.7489 94.0603L78.7452 94.0664ZM69.8713 103.835L69.2588 101.985C69.0897 101.474 69.8995 101.256 70.0673 101.763L70.6798 103.614C70.8513 104.118 70.0428 104.334 69.875 103.829L69.8713 103.835ZM70.4556 113.086C70.1248 112.013 70.0452 110.88 70.2229 109.771C70.3037 109.243 71.111 109.47 71.0314 109.993C70.8894 110.955 70.969 111.936 71.2641 112.864C71.427 113.372 70.6161 113.59 70.4593 113.08L70.4556 113.086ZM80.0265 111.109C80.0265 111.219 79.9824 111.325 79.9038 111.403C79.8252 111.481 79.7187 111.525 79.6076 111.525C79.4965 111.525 79.3899 111.481 79.3113 111.403C79.2328 111.325 79.1886 111.219 79.1886 111.109L79.1886 108.948C79.1905 108.893 79.2033 108.839 79.2263 108.789C79.2493 108.739 79.2819 108.694 79.3224 108.657C79.363 108.619 79.4105 108.59 79.4624 108.571C79.5143 108.552 79.5694 108.543 79.6247 108.546C80.1662 108.564 80.0645 109.024 80.0302 111.103L80.0265 111.109ZM85.0993 118.652C84.9363 119.161 84.1266 118.941 84.292 118.431C84.5363 117.697 84.5902 116.915 84.4488 116.155C84.3496 115.63 85.1581 115.409 85.2573 115.934C85.4359 116.836 85.3828 117.769 85.1029 118.646L85.0993 118.652ZM90.5848 113.266C90.579 113.372 90.5323 113.473 90.4542 113.546C90.3762 113.619 90.2727 113.66 90.1652 113.66C90.0577 113.66 89.9543 113.619 89.8763 113.546C89.7982 113.473 89.7515 113.372 89.7457 113.266L89.7457 110.796C89.7476 110.741 89.7603 110.687 89.7832 110.637C89.8061 110.588 89.8387 110.543 89.8791 110.506C89.9195 110.468 89.967 110.439 90.0187 110.42C90.0704 110.401 90.1254 110.393 90.1805 110.395C90.7122 110.415 90.6338 110.788 90.5885 113.26L90.5848 113.266ZM100.093 107.286C87.3338 105.303 74.8986 101.638 63.1179 96.3883C62.6279 96.172 63.0517 95.4564 63.5405 95.669C75.2555 100.89 87.6241 104.527 100.315 106.482C100.848 106.57 100.621 107.371 100.093 107.286Z" fill="#FFD35C"/>
<path d="M65.2242 116.893C64.1291 109.696 63.6317 102.427 62.7166 95.208C71.2937 91.0577 80.2507 87.7293 89.4657 85.2681C91.476 92.0453 95.0909 92.7488 100.368 105.975C100.948 107.089 100.676 105.949 100.491 114.307C101.887 113.068 101.14 114.631 101.58 107.171C101.503 106.411 101.265 105.676 100.882 105.013C95.5687 92.0672 92.1191 91.535 90.1775 84.6448C90.1463 84.5395 90.075 84.4504 89.9787 84.3964C89.8825 84.3424 89.7687 84.3278 89.6617 84.3556C80.1465 86.8653 70.9031 90.2968 62.0649 94.6005C61.9997 94.6363 61.9457 94.6893 61.909 94.7536C61.8722 94.8179 61.8541 94.8911 61.8567 94.965C62.7693 102.084 63.236 109.002 64.281 116.175C64.4868 117.564 64.0752 117.191 66.2263 118.503C78.0389 125.725 86.2991 127.477 95.2502 129.56C95.0879 129.252 94.9447 128.935 94.8214 128.61C83.9055 126.054 76.15 123.855 65.2242 116.893Z" fill="black"/>
<path d="M161.274 130.862C157.564 129.454 153.763 128.249 150.004 126.981C148.311 126.41 146.594 125.888 144.927 125.243C143.593 124.728 142.282 124.149 140.965 123.587C139.545 122.979 138.117 122.388 136.656 121.886C136.214 121.734 135.77 121.592 135.322 121.46L135.302 121.487C134.766 122.483 133.924 123.283 132.897 123.77C131.599 124.288 130.2 124.507 128.805 124.412C127.24 124.375 125.69 124.11 124.203 123.624C123.598 123.484 123.028 123.221 122.528 122.854C122.029 122.486 121.61 122.021 121.299 121.487C121.26 121.412 121.233 121.333 121.199 121.254C119.195 121.704 117.229 122.306 115.319 123.055C108.959 125.601 102.888 128.807 97.2093 132.621C92.0858 136.076 88.1421 140.994 85.9014 146.723C86.5763 146.556 87.2489 146.387 87.9238 146.237C88.8472 146.037 89.7846 145.909 90.7279 145.853C92.5331 145.704 94.3474 145.699 96.1534 145.838C97.8766 146.009 99.5742 146.376 101.213 146.932C102.065 147.234 102.947 147.446 103.844 147.566C104.752 147.637 105.666 147.602 106.566 147.464C107.844 147.302 109.111 147.071 110.363 146.771C110.328 145.74 110.297 144.706 110.278 143.673C110.279 143.583 110.31 143.495 110.365 143.423C110.421 143.351 110.498 143.299 110.585 143.273C110.728 143.21 110.875 143.157 111.026 143.115C111.297 143.106 111.568 143.123 111.836 143.165C112.611 143.11 113.375 142.955 114.109 142.704C115.582 142.354 117.075 142.098 118.581 141.937C119.69 141.8 120.798 141.664 121.905 141.53C121.796 141.532 121.689 141.491 121.61 141.417C121.53 141.342 121.483 141.239 121.479 141.13L121.186 135.359C121.159 134.824 121.997 134.827 122.024 135.359L122.317 141.13C122.326 141.223 122.298 141.315 122.239 141.388C122.18 141.46 122.095 141.507 122.002 141.518C122.896 141.412 123.789 141.31 124.681 141.212C124.666 141.161 124.662 141.108 124.668 141.056C124.674 141.004 124.691 140.953 124.718 140.908L127.29 136.291C127.551 135.822 128.27 136.241 128.014 136.71L125.553 141.123C128.659 140.808 131.775 140.583 134.898 140.576C137.587 140.558 140.273 140.746 142.934 141.136C144.255 141.302 145.562 141.569 146.841 141.934C147.331 142.104 147.765 142.403 148.095 142.8C148.426 143.196 148.641 143.675 148.717 144.183C148.857 144.701 148.972 145.226 149.084 145.751C150.219 145.716 151.349 145.751 152.481 145.79C151.551 144.365 150.671 142.908 149.844 141.422C149.582 140.951 150.308 140.534 150.567 141.001C151.476 142.64 152.447 144.241 153.482 145.804V145.82C153.85 145.83 154.209 145.837 154.574 145.836C156.324 145.852 158.061 145.517 159.677 144.849C161.16 144.175 162.572 143.357 163.892 142.407C166.313 140.736 168.687 138.841 171.514 137.925C171.158 137.508 170.794 137.099 170.412 136.71C167.818 134.141 164.703 132.148 161.274 130.862ZM108.646 142.113C107.601 143.541 106.793 145.127 106.255 146.809C106.092 147.318 105.283 147.099 105.446 146.588C106.002 144.835 106.838 143.182 107.922 141.693C108.236 141.264 108.963 141.679 108.646 142.113ZM119.103 141.141L115.458 134.629C115.196 134.16 115.92 133.74 116.182 134.209C117.396 136.38 118.611 138.551 119.827 140.722C120.09 141.184 119.365 141.604 119.103 141.136V141.141Z" fill="#DCBEFF"/>
<path d="M116.181 134.202C115.919 133.733 115.194 134.152 115.457 134.621L119.102 141.134C119.364 141.602 120.089 141.182 119.826 140.715C118.612 138.544 117.397 136.373 116.181 134.202ZM122.31 141.125C122.169 139.204 122.115 137.279 122.017 135.354C121.99 134.822 121.152 134.819 121.179 135.354L121.472 141.125C121.492 141.673 122.348 141.633 122.31 141.125ZM153.18 119.88C151.202 111.083 143.082 112.115 146.166 103.904C150.788 88.5158 145.431 75.7547 129.415 76.6283C127.218 76.7268 125.102 77.4759 123.339 78.7788C120.829 78.6626 118.321 79.0678 115.978 79.9684C113.635 80.8689 111.507 82.2451 109.731 84.0087C107.955 85.7722 106.57 87.8843 105.665 90.2095C104.759 92.5348 104.354 95.022 104.474 97.5117C104.802 102.552 106.325 104.324 105.433 108.475C104.474 111.191 102.9 112.206 100.48 114.307C97.3531 117.072 94.478 120.532 94.233 124.685C94.1134 125.996 94.3035 127.315 94.7881 128.54C95.2727 129.765 96.0385 130.861 97.0248 131.741C101.333 128.582 113.217 122.122 120.94 120.48C121.131 121.255 121.538 121.961 122.115 122.518C122.691 123.074 123.414 123.458 124.2 123.627C128.452 125.01 134.245 125.034 135.64 120.687C141.41 122.522 140.833 123.108 150.904 126.421C151.829 126.729 151.761 126.752 151.812 126.652C152.488 125.673 152.957 124.568 153.192 123.405C153.427 122.241 153.423 121.042 153.18 119.88ZM135.676 111.06C134.669 112.129 133.378 112.894 131.953 113.268C130.527 113.642 129.023 113.61 127.615 113.174C125.021 112.739 122.532 111.824 120.279 110.477C119.185 109.73 118.283 108.74 117.642 107.587C117.002 106.433 116.642 105.147 116.59 103.831C116.517 100.952 116.914 98.0793 117.766 95.3259C119.696 88.1246 129.281 86.8659 134.979 91.5594C136.382 92.7531 137.521 94.2224 138.323 95.8745C139.125 97.5266 139.573 99.3257 139.638 101.158C139.704 102.991 139.385 104.817 138.703 106.521C138.021 108.225 136.991 109.771 135.676 111.06ZM135.003 119.893C134.735 120.995 134.082 121.967 133.16 122.636C132.238 123.305 131.107 123.629 129.967 123.55C127.81 123.678 123.482 123.215 122.25 121.461C121.695 120.325 121.462 119.061 121.576 117.803C121.489 115.896 121.44 114 121.429 112.093C124.111 113.272 126.964 114.022 129.882 114.316C131.688 114.41 133.468 113.863 134.904 112.773C135.117 119.225 135.142 119.155 135.003 119.893ZM128.012 136.709C128.273 136.24 127.549 135.821 127.288 136.29C124.492 141.303 124.613 140.987 124.679 141.207C124.969 141.176 125.261 141.151 125.551 141.122C126.368 139.65 127.188 138.179 128.012 136.709Z" fill="black"/>
<path d="M205.432 144.058C204.863 143.211 204.151 142.468 203.326 141.861L202.65 142.926C202.364 143.379 201.638 142.96 201.926 142.506C202.156 142.147 202.384 141.788 202.61 141.43C201.164 140.72 199.514 140.527 197.941 140.884C198.025 141.465 198.145 142.04 198.3 142.606C198.322 142.71 198.303 142.818 198.248 142.908C198.192 142.999 198.104 143.065 198.001 143.093C197.898 143.121 197.788 143.109 197.693 143.06C197.599 143.011 197.527 142.927 197.492 142.827C197.334 142.256 197.212 141.676 197.124 141.09C194.918 141.774 192.96 143.081 191.489 144.85C192.186 145.275 192.922 145.634 193.687 145.919C194.189 146.105 193.97 146.907 193.464 146.722C192.592 146.4 191.755 145.993 190.964 145.507C184.998 153.44 185.443 162.592 186.453 172.54L188.45 172.54C188.561 172.54 188.668 172.584 188.746 172.662C188.825 172.74 188.869 172.845 188.869 172.956C188.869 173.066 188.825 173.171 188.746 173.249C188.668 173.327 188.561 173.371 188.45 173.371L186.539 173.371C187.264 179.265 188.874 185.019 191.316 190.441L203.466 189.811C202.745 183.948 204.676 177.758 206.337 171.801C205.773 171.647 205.218 171.458 204.676 171.236C204.186 171.032 204.402 170.228 204.899 170.434C205.44 170.658 205.994 170.848 206.559 171.002C207.666 167.222 208.394 163.343 208.734 159.422L206.881 161.163C206.491 161.527 205.901 160.944 206.29 160.575C207.126 159.785 207.964 158.996 208.803 158.208C209.036 153.113 208.289 148.23 205.432 144.058ZM194.255 163.012L189.431 156.627C189.108 156.198 189.835 155.784 190.155 156.208L194.978 162.592C195.303 163.023 194.574 163.437 194.254 163.014L194.255 163.012ZM203.529 146.936C202.304 147.488 201.285 148.408 200.616 149.565C199.947 150.723 199.662 152.06 199.801 153.387C199.847 153.923 199.008 153.918 198.963 153.387C198.822 151.878 199.167 150.364 199.947 149.061C200.727 147.758 201.903 146.734 203.306 146.134C203.809 145.941 204.023 146.747 203.527 146.939L203.529 146.936Z" fill="#6DD3A8"/>
<path d="M204.676 171.232C206.954 172.168 209.441 172.487 211.883 172.154C212.416 172.082 212.188 171.282 211.659 171.352C209.363 171.647 207.03 171.329 204.899 170.43C204.403 170.22 204.185 171.029 204.676 171.232ZM120.471 101.518C120.716 102.131 120.808 102.794 120.741 103.451C120.682 103.982 121.52 103.978 121.579 103.451C121.651 102.719 121.548 101.981 121.276 101.296C121.086 100.803 120.274 101.018 120.471 101.518ZM133.998 100.94L133.998 103.249C134.003 103.355 134.05 103.456 134.128 103.529C134.206 103.602 134.31 103.643 134.417 103.643C134.525 103.643 134.628 103.602 134.706 103.529C134.784 103.456 134.831 103.355 134.837 103.249L134.837 100.94C134.831 100.834 134.784 100.734 134.706 100.66C134.628 100.587 134.525 100.546 134.417 100.546C134.31 100.546 134.206 100.587 134.128 100.66C134.05 100.734 134.003 100.834 133.998 100.94ZM132.506 104.697C129.916 106.115 126.325 105.632 123.736 104.454C122.266 103.664 123.356 108.561 127.69 109.347C130.14 109.598 132.383 107.281 133.122 105.165C133.141 105.086 133.136 105.003 133.108 104.926C133.081 104.85 133.032 104.783 132.966 104.733C132.901 104.684 132.823 104.654 132.741 104.648C132.66 104.641 132.578 104.658 132.506 104.697ZM127.682 108.516C126.881 108.351 126.136 107.988 125.515 107.462C124.894 106.935 124.417 106.261 124.129 105.503C126.588 106.515 129.325 106.649 131.872 105.883C131.01 107.36 129.378 108.741 127.682 108.516ZM121.94 96.9066C120.995 96.7236 120.015 96.8366 119.137 97.23C118.259 97.6233 117.526 98.2775 117.04 99.1021C116.991 99.1968 116.981 99.3064 117.011 99.4085C117.041 99.5105 117.11 99.5973 117.202 99.651C117.295 99.7047 117.404 99.7213 117.509 99.6974C117.613 99.6735 117.704 99.611 117.764 99.5225C118.155 98.8534 118.744 98.3202 119.451 97.9955C120.159 97.6709 120.95 97.5707 121.717 97.7085C122.244 97.8057 122.47 97.0099 121.94 96.9066ZM132.073 96.5336C131.998 96.6122 131.957 96.7169 131.958 96.8252C131.96 96.9336 132.004 97.037 132.081 97.1136C132.159 97.1901 132.263 97.2337 132.372 97.2349C132.482 97.2362 132.587 97.1951 132.666 97.1204C132.876 96.9255 133.126 96.7782 133.399 96.6888C133.672 96.5994 133.962 96.5699 134.247 96.6025C134.533 96.6351 134.808 96.729 135.053 96.8776C135.299 97.0262 135.509 97.226 135.669 97.4631C135.949 97.9199 136.675 97.502 136.394 97.0439C136.168 96.6987 135.868 96.407 135.515 96.1895C135.163 95.972 134.766 95.834 134.354 95.7853C133.942 95.7366 133.524 95.7784 133.13 95.9077C132.735 96.037 132.375 96.2507 132.073 96.5336ZM206.881 161.158C207.494 160.577 210.647 157.615 211.603 156.715C211.995 156.35 211.403 155.76 211.011 156.128L206.29 160.57C205.897 160.94 206.491 161.526 206.881 161.158ZM190.155 156.208C189.836 155.784 189.107 156.199 189.431 156.627C191.039 158.756 192.647 160.884 194.255 163.012C194.575 163.435 195.303 163.021 194.978 162.592C193.373 160.463 191.766 158.335 190.155 156.208ZM203.306 146.135C201.896 146.725 200.714 147.748 199.932 149.053C199.151 150.358 198.811 151.877 198.963 153.387C199.01 153.916 199.848 153.922 199.801 153.387C199.662 152.06 199.947 150.723 200.616 149.566C201.285 148.408 202.304 147.489 203.529 146.937C204.025 146.745 203.807 145.931 203.306 146.135ZM197.821 137.642C197.862 137.109 197.025 137.112 196.982 137.642C196.857 139.386 197.029 141.138 197.492 142.825C197.508 142.877 197.535 142.926 197.57 142.968C197.605 143.01 197.649 143.044 197.697 143.07C197.746 143.095 197.8 143.11 197.855 143.115C197.91 143.12 197.965 143.114 198.017 143.097C198.847 142.842 197.514 141.638 197.821 137.642ZM204.406 138.596L201.926 142.504C201.638 142.959 202.365 143.377 202.65 142.924L205.13 139.016C205.418 138.562 204.699 138.144 204.406 138.596ZM193.683 145.92C192.003 145.274 190.466 144.31 189.157 143.083C188.767 142.712 188.177 143.3 188.564 143.671C189.984 144.992 191.648 146.028 193.464 146.723C193.968 146.905 194.184 146.103 193.683 145.92ZM188.446 172.535L182.857 172.535C182.746 172.535 182.639 172.579 182.561 172.657C182.482 172.735 182.438 172.841 182.438 172.951C182.438 173.061 182.482 173.167 182.561 173.245C182.639 173.323 182.746 173.367 182.857 173.367L188.446 173.367C188.558 173.367 188.664 173.323 188.743 173.245C188.821 173.167 188.865 173.061 188.865 172.951C188.865 172.841 188.821 172.735 188.743 172.657C188.664 172.579 188.558 172.535 188.446 172.535Z" fill="black"/>
<path d="M238.768 113.067C238.627 104.111 238.364 95.156 237.979 86.2038C237.6 77.2359 234.427 29.891 234.341 28.7344C234.137 26.0936 232.927 23.629 230.957 21.8414C228.986 20.0538 226.404 19.0773 223.734 19.1103C221.082 19.1322 218.428 19.2416 215.777 19.2853C215.761 19.2874 215.744 19.2906 215.728 19.295L215.679 19.2853C193.239 19.6389 170.804 18.8515 148.373 18.2756C125.942 17.6997 103.498 17.4968 81.0629 18.4178C68.4863 18.9346 55.928 19.7616 43.388 20.8988C43.3746 20.8988 43.3611 20.9073 43.3488 20.9098L43.3243 20.9098L39.4117 21.2743C38.2911 21.3442 37.1752 21.474 36.0687 21.6631C34.3836 22.0173 32.8123 22.7772 31.4931 23.8758C30.174 24.9744 29.1476 26.378 28.5043 27.9628C27.8562 29.8876 27.5831 31.9171 27.6995 33.9431C27.5361 44.3848 27.4953 54.8281 27.577 65.2731C27.6586 75.718 27.8452 86.1573 28.1368 96.5909C28.4308 107.031 29.5002 133.116 29.6999 135.714C29.8268 137.42 30.377 139.069 31.3015 140.514C32.2261 141.958 33.4963 143.154 34.9992 143.994C36.6542 144.838 38.4727 145.32 40.3317 145.406C41.6302 145.531 42.9291 145.648 44.2284 145.756L44.2639 145.749C44.2826 145.755 44.3019 145.759 44.3215 145.762C49.8818 146.213 55.4224 146.226 60.9962 146.248C66.8321 146.271 82.9359 146.329 85.1507 146.324C85.2487 146.052 85.3516 145.784 85.4582 145.515C80.1074 145.549 57.8749 145.48 52.1162 145.373C49.6515 145.327 47.1892 145.154 44.7331 144.959C44.5003 132.631 43.7911 23.1186 43.8045 21.6946C65.9452 19.6794 88.1491 18.6414 110.416 18.5806C132.898 18.4846 155.364 19.3691 177.834 19.8746C190.311 20.1552 202.79 20.3095 215.268 20.1176C215.465 35.8458 216.983 106.763 217.159 114.645C217.357 123.474 217.81 132.291 218.52 141.096L218.765 144.085C214.363 144.175 209.959 144.231 205.556 144.253C205.742 144.525 205.923 144.801 206.089 145.083C207.654 145.072 216.407 144.969 219.218 144.909C219.235 144.908 219.252 144.904 219.269 144.899L219.312 144.908C221.605 144.859 223.895 144.813 226.189 144.753C227.992 144.822 229.796 144.632 231.544 144.19C232.978 143.728 234.295 142.968 235.409 141.961C236.523 140.955 237.408 139.724 238.005 138.352C238.608 136.842 238.897 135.226 238.854 133.602C238.875 131.296 238.839 117.602 238.768 113.067ZM43.7984 144.882C42.6812 144.789 41.5652 144.689 40.4505 144.583C39.4517 144.524 38.4605 144.373 37.4897 144.133C35.8132 143.654 34.2988 142.734 33.1072 141.471C31.9157 140.207 31.0917 138.647 30.7228 136.956C30.5377 135.887 30.4411 134.805 30.4337 133.72C30.3736 132.483 28.5594 79.6744 28.4516 69.6021C28.3438 59.5297 28.5214 34.3489 28.5741 31.8314C28.5939 30.0572 29.0958 28.3212 30.027 26.8062C30.9409 25.3447 32.2321 24.1522 33.7669 23.3519C35.6259 22.5437 37.6284 22.1104 39.6579 22.0774C40.74 21.9737 41.8217 21.8737 42.9029 21.7773C42.8282 26.0881 43.7065 140.009 43.7984 144.882ZM238.006 134.62C237.92 136.96 236.975 139.187 235.348 140.883C233.722 142.58 231.526 143.628 229.175 143.831C227.008 144.01 224.803 143.967 222.631 144.016L219.701 144.077C219.038 136.093 218.499 128.097 218.216 120.089C217.93 111.964 218.008 103.835 217.904 95.7064C217.801 87.6096 216.324 29.0794 216.204 20.1127C218.49 20.0746 220.774 20.0256 223.055 19.9657C224.802 19.8625 226.547 20.1941 228.132 20.9304C229.626 21.6678 230.904 22.7731 231.844 24.1404C232.785 25.5078 233.356 27.0916 233.503 28.7404C234.208 37.6379 236.529 72.9786 236.944 81.7533C237.347 90.4867 237.644 99.2234 237.835 107.963C237.929 112.397 237.991 116.832 238.021 121.266C238.052 125.703 238.165 130.172 238.006 134.62Z" fill="black"/>
<path d="M63.8817 50.4588C67.4943 54.9956 68.2636 60.8908 69.9185 66.2733C79.351 64.1786 86.5455 61.1702 95.6778 58.0331C94.9122 55.6213 91.0228 42.6342 90.8832 41.3694C90.7607 38.8823 93.3087 37.4255 94.5839 35.6309C94.9698 35.2179 95.2324 34.7066 95.3423 34.1541C95.4522 33.6017 95.4051 33.0298 95.2062 32.5023C94.9599 32.1274 94.6131 31.8279 94.2049 31.6373C93.7966 31.4468 93.3429 31.3727 92.8946 31.4234C90.55 31.5157 89.3005 33.8935 88.3499 35.7014C88.1122 36.1534 87.5144 35.8108 87.5843 35.3807C87.9387 33.4134 87.9598 31.4013 87.6467 29.4272C86.9828 23.8831 78.3269 28.4552 77.1718 36.4742C77.1081 36.9164 76.4833 36.8192 76.3633 36.4742C75.8864 34.6977 75.0489 33.0365 73.9022 31.5923C73.4696 31.0391 72.9094 30.5969 72.2687 30.303C71.628 30.0092 70.9255 29.8721 70.2204 29.9034C69.5152 29.9347 68.8279 30.1335 68.2162 30.483C67.6046 30.8325 67.0864 31.3225 66.7054 31.9118C64.6229 34.6468 65.451 38.3088 66.5253 41.2673C66.6478 41.593 66.1982 41.9526 65.9128 41.7375C63.4628 39.8834 58.8715 37.9237 56.1434 38.6174C53.4827 39.7777 54.6085 43.3219 56.9568 44.9804C59.19 46.8843 62.0332 48.1357 63.8817 50.4588ZM84.8207 40.5796C84.9152 42.5886 85.4348 44.5553 86.3458 46.3521C87.1355 48.2726 87.9881 50.1668 88.9036 52.0347C89.1376 52.5207 88.4136 52.9362 88.1796 52.4538C87.2364 50.522 86.3552 48.5618 85.5361 46.5732C84.5985 44.7061 84.0688 42.6637 83.9815 40.5796C83.9999 40.039 84.8378 40.039 84.8207 40.5796ZM80.0738 49.7407C81.3878 53.2043 82.703 56.6675 84.0195 60.1302C84.2106 60.632 83.3984 60.8471 83.211 60.3513L79.2641 49.9619C79.0742 49.4601 79.8851 49.245 80.0738 49.7407ZM73.4294 43.2381C75.0721 48.5318 78.2841 53.2302 79.536 58.6564C79.6585 59.1789 78.8476 59.3988 78.7275 58.8775C77.4756 53.4514 74.2599 48.7529 72.6209 43.4592C72.4616 42.9465 73.2714 42.729 73.4294 43.2381ZM67.9879 46.8891C69.7029 52.7066 73.1966 57.8825 74.2881 63.8894C74.3837 64.4131 73.5752 64.6366 73.4796 64.1105C72.3869 58.1048 68.7695 52.9617 67.1794 47.1091C67.15 47.0027 67.1644 46.8891 67.2194 46.7933C67.2745 46.6975 67.3656 46.6273 67.4728 46.5981C67.58 46.569 67.6945 46.5833 67.7911 46.6378C67.8877 46.6924 67.9585 46.7828 67.9879 46.8891Z" fill="#6DD3A8"/>
<path d="M66.3041 56.7274C67.4972 60.0456 68.1612 63.5217 69.2269 66.8788C69.2583 66.9839 69.3296 67.0729 69.4258 67.1271C69.5219 67.1812 69.6355 67.1963 69.7426 67.1692C81.8138 64.2738 87.9033 61.568 96.3068 58.6957C96.361 58.6831 96.4119 58.6595 96.4565 58.6264C96.5011 58.5933 96.5383 58.5514 96.5658 58.5034C96.5932 58.4554 96.6104 58.4022 96.6162 58.3473C96.6221 58.2924 96.6164 58.2369 96.5995 58.1842C94.996 53.1578 93.5591 48.0098 92.1075 42.9202C91.1899 40.6639 92.0572 39.4963 93.7845 37.771C100.07 32.182 92.7726 27.1483 88.6187 33.555C88.8404 30.7775 88.7412 26.8409 86.0168 26.2103C85.2388 26.1034 84.4467 26.1615 83.6931 26.3808C82.9394 26.6001 82.2412 26.9755 81.6447 27.4824C79.1815 29.2999 77.4191 31.8984 76.6504 34.8465C75.581 32.1273 73.9358 29.2818 70.7275 29.0485C66.6667 28.7533 62.9929 33.6765 65.3228 40.3286C62.9453 38.7688 60.2034 37.8417 57.3603 37.6361C53.7233 37.3093 51.5502 42.484 57.3603 46.3841C60.5821 48.8749 63.7156 49.5286 66.3041 56.7274ZM56.9524 44.9881C54.5722 43.3041 53.504 39.7745 56.139 38.6252C58.8573 37.9338 63.4008 39.8523 65.9084 41.7453C66.1975 41.9603 66.6434 41.6019 66.5209 41.2751C65.4466 38.3129 64.6209 34.6509 66.701 31.9196C67.082 31.3302 67.6002 30.8402 68.2118 30.4907C68.8235 30.1412 69.5108 29.9425 70.216 29.9112C70.9212 29.8799 71.6236 30.0169 72.2643 30.3108C72.905 30.6047 73.4652 31.0468 73.8978 31.6C75.0443 33.0444 75.8817 34.7056 76.3589 36.4819C76.4814 36.8282 77.1037 36.9242 77.1674 36.4819C78.3213 28.4629 86.9674 23.8909 87.6423 29.4349C87.9554 31.409 87.9343 33.4211 87.5799 35.3884C87.5113 35.8173 88.1066 36.1611 88.3455 35.7092C89.2961 33.9012 90.5505 31.5235 92.8902 31.4311C93.3385 31.3804 93.7922 31.4545 94.2005 31.6451C94.6088 31.8356 94.9555 32.1351 95.2018 32.5101C95.4007 33.0375 95.4478 33.6094 95.3379 34.1619C95.228 34.7144 94.9654 35.2257 94.5795 35.6387C93.308 37.4223 90.7649 38.8803 90.8825 41.3711C91.0233 42.5861 95.4627 57.358 95.6771 58.0348C86.6881 61.1221 79.2707 64.2082 69.9178 66.2749C68.2628 60.8912 67.4935 54.9973 63.881 50.4605C62.0325 48.1374 59.1893 46.8847 56.9524 44.9881ZM59.0447 67.9698C58.6184 65.2968 59.3363 60.466 58.1872 60.4441C57.2685 60.4259 56.3338 60.4077 55.415 60.432C55.6493 59.6765 55.954 58.9444 56.3252 58.245C56.5825 57.7711 55.8585 57.3483 55.6012 57.8222C55.1548 58.6648 54.7968 59.5507 54.533 60.466C53.6253 60.5024 52.7347 60.5559 51.8282 60.6288C51.7057 60.3724 51.5832 60.127 51.4718 59.8597C51.2758 59.3628 50.4673 59.5827 50.6633 60.0808C50.749 60.2874 50.8605 60.4927 50.9462 60.6993C50.1377 60.7722 49.3256 60.8548 48.5293 60.952C48.4182 60.9529 48.3119 60.9967 48.2328 61.074C48.1537 61.1513 48.108 61.2562 48.1055 61.3663C48.2138 63.8765 48.5446 66.3725 49.094 68.8252C49.23 69.4995 50.074 68.7657 54.0675 68.7657C58.0059 68.5457 59.3044 68.7268 59.0447 67.9698ZM54.315 61.3068C54.1423 62.1157 54.0423 62.9383 54.0161 63.7647C53.3301 63.0623 52.7351 62.2778 52.2447 61.4295C52.9418 61.3809 53.629 61.3311 54.315 61.3068ZM49.8303 68.2456C49.3679 66.1021 49.0811 63.925 48.9728 61.7357C49.7568 61.6494 50.5408 61.5753 51.3248 61.5024C52.0393 62.851 52.9938 64.0604 54.1423 65.0721C54.203 65.1266 54.2781 65.1629 54.3588 65.1766C54.4396 65.1903 54.5226 65.181 54.5982 65.1496C54.6738 65.1183 54.7388 65.0662 54.7856 64.9995C54.8324 64.9329 54.8591 64.8544 54.8626 64.7732C54.8027 63.5968 54.9108 62.4179 55.1835 61.2715C56.0655 61.2472 56.961 61.2472 57.843 61.2715C58.284 63.3735 57.9385 65.5714 58.1835 67.711C55.197 67.9929 52.7286 67.8605 49.829 68.2456H49.8303Z" fill="black"/>
<path d="M73.4801 64.1135C73.5769 64.6396 74.3842 64.416 74.2886 63.8924C73.1959 57.8854 69.5797 52.7423 67.9885 46.8921C67.9739 46.8394 67.949 46.7901 67.9153 46.747C67.8815 46.7039 67.8395 46.6678 67.7917 46.6408C67.7438 46.6138 67.6911 46.5963 67.6365 46.5895C67.5819 46.5827 67.5264 46.5867 67.4734 46.6011C67.4203 46.6155 67.3706 46.6402 67.3271 46.6737C67.2836 46.7072 67.2472 46.7488 67.22 46.7963C67.1927 46.8437 67.1752 46.896 67.1683 46.9502C67.1615 47.0044 67.1654 47.0593 67.18 47.112C68.7712 52.9647 72.3874 58.1077 73.4801 64.1135ZM78.7268 58.8805C78.8493 59.4017 79.6554 59.1818 79.5353 58.6594C78.2834 53.2332 75.0677 48.5348 73.4287 43.241C73.2707 42.7307 72.4609 42.9494 72.6202 43.4621C74.2592 48.7571 77.4749 53.4616 78.7268 58.8805ZM83.2103 60.3543C83.3977 60.85 84.2099 60.6362 84.0188 60.1332L80.0731 49.7437C79.8844 49.2468 79.0735 49.463 79.2634 49.9648L83.2103 60.3543ZM88.1789 52.4507C88.4141 52.9367 89.1369 52.5102 88.9029 52.0315C87.9899 50.1629 87.1373 48.2687 86.3451 46.349C85.4335 44.5546 84.9138 42.5897 84.82 40.5826C84.8371 40.048 83.9992 40.048 83.9808 40.5826C84.0681 42.6667 84.5978 44.7091 85.5354 46.5762C86.3537 48.5599 87.2349 50.518 88.1789 52.4507ZM100.315 106.488C87.6244 104.531 75.2559 100.894 63.5405 95.6743C63.0505 95.4617 62.6242 96.1773 63.1179 96.3936C74.8982 101.643 87.3336 105.307 100.093 107.286C100.621 107.371 100.848 106.57 100.315 106.488Z" fill="black"/>
<path d="M174.151 53.2957C172.383 58.0391 171.07 62.9374 170.231 67.9255C169.847 70.4211 171.712 70.72 173.042 68.5986C176.839 62.5588 180.392 55.0368 183.706 48.6191L174.151 53.2957Z" fill="#FF9F48"/>
<path d="M60.5941 119.468L58.3156 119.468C58.8178 117.657 59.249 115.823 59.592 113.981C59.69 113.458 58.8815 113.24 58.7835 113.762C58.4404 115.687 57.9905 117.591 57.436 119.466C56.4805 119.454 55.525 119.466 54.5683 119.466C54.5683 119.345 54.8268 119.944 53.6508 117.637C53.4058 117.162 52.6818 117.58 52.9268 118.053C52.9893 118.175 53.6042 119.344 53.6373 119.468C52.7757 119.456 51.9141 119.456 51.0525 119.468C50.9976 119.467 50.9432 119.478 50.8925 119.499C50.8417 119.519 50.7956 119.55 50.7569 119.588C50.7181 119.627 50.6875 119.673 50.6667 119.723C50.646 119.774 50.6355 119.828 50.636 119.882C50.6276 122.669 50.8032 125.454 51.1616 128.218C51.1632 128.309 51.1937 128.396 51.2487 128.468C51.3038 128.54 51.3805 128.593 51.4678 128.619C54.5183 129.319 57.6988 129.231 60.7055 128.365C61.1024 127.962 61.0118 129.659 61.0118 119.882C61.0105 119.773 60.9661 119.668 60.888 119.59C60.81 119.513 60.7045 119.469 60.5941 119.468ZM57.191 120.296C56.9215 121.195 56.641 122.085 56.3237 122.96C55.8827 122.073 55.427 121.183 54.986 120.296L57.191 120.296ZM60.1702 127.65C57.4898 128.363 54.6771 128.436 51.9627 127.863C51.6574 125.352 51.4979 122.826 51.485 120.296C52.3425 120.284 53.2 120.296 54.0575 120.296C54.7108 121.621 55.3723 122.937 56.042 124.246C56.0854 124.314 56.1473 124.368 56.2205 124.402C56.2936 124.435 56.375 124.448 56.4551 124.438C56.5351 124.427 56.6106 124.395 56.6726 124.343C56.7346 124.292 56.7805 124.224 56.8051 124.148C57.2829 122.884 57.6884 121.596 58.0681 120.296L60.1751 120.296L60.1702 127.65Z" fill="black"/>
<path d="M184.118 45.2952C188.257 45.4033 194.142 45.2587 197.882 45.0218C198.168 45.0039 198.44 44.8941 198.658 44.7089C198.875 44.5237 199.026 44.2733 199.087 43.9957C199.148 43.718 199.116 43.4281 198.996 43.1699C198.876 42.9118 198.675 42.6995 198.422 42.5651C195.142 40.9224 189.834 41.152 186.295 41.8033C191.807 40.5397 197.454 39.2153 202.104 36.0308C205.199 33.9119 193.981 31.9363 185.289 39.7025C190.871 33.4757 194.476 33.2254 196.171 30.0469C196.294 29.8207 196.346 29.5629 196.319 29.3071C196.293 29.0513 196.189 28.8093 196.022 28.6127C195.855 28.416 195.632 28.2738 195.382 28.2046C195.133 28.1353 194.868 28.1423 194.622 28.2244C189.355 30.0469 185.52 34.3918 182.495 39.055C184.544 34.9809 186.588 30.9045 188.628 26.826C188.753 26.5633 188.792 26.2685 188.74 25.9827C188.688 25.6969 188.548 25.4344 188.338 25.2317C188.128 25.029 187.86 24.8964 187.57 24.8522C187.281 24.808 186.985 24.8545 186.723 24.9853C183.395 26.7737 182.42 29.6241 178.168 38.9978C180.914 40.2318 183.054 42.4969 184.118 45.2952Z" fill="#6DD3A8"/>
<path d="M155.27 61.2069C155.902 61.4414 155.547 61.4779 166.585 56.0723C166.463 56.0274 166.573 56.1039 164.612 54.3616C164.209 54.0044 164.804 53.4188 165.206 53.7736C167.145 55.4964 167.262 55.4989 167.166 55.7905L184.136 47.4823C182.788 43.5773 180.495 40.2701 176.461 39.3418C172.124 43.2833 165.363 49.9208 161.238 54.0433C161.728 54.3051 162.193 54.6084 162.63 54.9497C163.017 55.3239 162.424 55.9107 162.037 55.5377C161.599 55.1966 161.133 54.893 160.643 54.6301C158.772 56.4952 156.87 58.331 155.225 60.1365C154.928 60.4488 154.691 60.9931 155.27 61.2069ZM178.652 41.9176C179.184 43.5214 180.694 43.0111 180.44 43.8106C180.18 44.6428 178.299 43.5554 177.843 42.1387C177.673 41.6248 178.483 41.4097 178.652 41.9176ZM178.05 46.9404C178.495 47.6644 179.041 48.3221 179.672 48.8941C180.071 49.2586 179.477 49.8418 179.079 49.4834C178.395 48.8629 177.804 48.1475 177.326 47.3596C177.27 47.2644 177.254 47.1508 177.282 47.044C177.31 46.9371 177.38 46.8457 177.476 46.7897C177.572 46.7338 177.686 46.718 177.794 46.7458C177.902 46.7736 177.994 46.8428 178.05 46.938V46.9404ZM172.041 45.9891C172.35 46.5582 172.777 47.0553 173.295 47.4471C173.722 47.7642 173.304 48.4859 172.872 48.1651C172.231 47.6999 171.7 47.101 171.317 46.4107C171.059 45.9356 171.785 45.5164 172.041 45.9866V45.9891ZM167.754 51.0119L169.125 52.4249C169.492 52.8113 168.905 53.3969 168.532 53.013L167.162 51.5999C166.789 51.2123 167.382 50.6231 167.755 51.0094L167.754 51.0119Z" fill="#FF9F48"/>
<path d="M156.23 61.9861C157.057 61.6908 184.99 48.112 185.07 47.818L185.079 47.7912C185.088 47.7189 185.083 47.6456 185.065 47.575C183.669 43.868 181.854 40.3955 178.01 38.9339C177.732 38.8257 176.452 38.3568 176.125 38.5208C174.831 39.4272 155.713 58.1054 154.295 59.9388C153.508 61.1635 154.841 62.483 156.23 61.9861ZM160.64 54.6244C160.52 54.5465 160.407 54.4587 160.303 54.362C159.916 53.9877 160.509 53.4009 160.896 53.7739C161.001 53.8715 161.114 53.9598 161.235 54.0375C165.564 49.7316 172.009 43.3832 176.458 39.336C180.493 40.2667 182.79 43.5752 184.133 47.4765L167.163 55.7847C167.144 55.8412 167.115 55.8934 167.076 55.9382C167.036 55.9831 166.989 56.0198 166.935 56.0461C166.881 56.0723 166.823 56.0877 166.763 56.0912C166.703 56.0947 166.644 56.0864 166.587 56.0666C155.184 61.6556 155.872 61.4223 155.272 61.2012C154.063 60.7565 155.835 59.437 160.639 54.6244L160.64 54.6244ZM141.324 65.8838C141.371 65.9557 141.438 66.012 141.517 66.0454C141.597 66.0787 141.684 66.0876 141.769 66.0709C148.629 64.7939 150.297 66.467 150.297 65.3711C150.052 57.8381 150.112 58.3095 149.93 58.1224C148.705 57.1249 142.58 57.979 141.007 58.3958C140.919 58.4205 140.841 58.473 140.785 58.5453C140.73 58.6176 140.7 58.7058 140.699 58.7967C141.32 66.0794 141.183 65.6906 141.324 65.8838ZM149.244 58.6825L149.442 64.8863C146.972 64.6585 144.482 64.7582 142.038 65.1827C141.87 63.1622 141.728 61.138 141.559 59.1162C143.266 58.7214 148.156 58.1989 149.244 58.6849V58.6825Z" fill="black"/>
<path d="M162.625 54.9431C161.683 54.2056 161.31 54.157 160.894 53.773C160.507 53.4 159.914 53.9869 160.301 54.3611C160.623 54.6612 161.125 54.824 162.032 55.5311C162.419 55.9041 163.012 55.3161 162.625 54.9431ZM167.051 55.4096C166.423 54.8775 165.826 54.3161 165.206 53.773C164.804 53.4182 164.209 54.0039 164.612 54.3611C166.572 56.1022 166.466 56.0269 166.585 56.0718C167.032 56.2334 167.373 55.683 167.051 55.4096ZM168.533 53.01C168.906 53.3964 169.499 52.8083 169.126 52.4219L167.755 51.0089C167.381 50.6225 166.788 51.2118 167.163 51.597C167.619 52.0684 168.075 52.5394 168.533 53.01ZM172.872 48.1609C173.305 48.4793 173.722 47.76 173.294 47.4429C172.775 47.0524 172.348 46.555 172.041 45.9849C171.783 45.5147 171.061 45.9351 171.317 46.4053C171.702 47.0948 172.232 47.6937 172.872 48.1609ZM179.079 49.4804C179.477 49.8449 180.07 49.2532 179.672 48.8912C179.038 48.3219 178.491 47.6637 178.05 46.9374C177.994 46.8422 177.902 46.773 177.794 46.745C177.687 46.7169 177.573 46.7324 177.477 46.788C177.381 46.8436 177.311 46.9347 177.282 47.0414C177.254 47.148 177.27 47.2614 177.326 47.3566C177.803 48.1451 178.394 48.8605 179.079 49.4804Z" fill="black"/>
<path d="M191.72 98.6081C196.553 97.3822 199.11 91.1589 197.33 86.1884C196.973 86.5216 196.531 86.7504 196.052 86.8493C195.572 86.9482 195.074 86.9133 194.614 86.7485C193.988 86.504 193.298 86.4749 192.654 86.6659C192.245 86.9323 191.855 87.2275 191.489 87.5492C191.186 87.7702 190.815 87.8803 190.439 87.8608C190.064 87.8413 189.707 87.6934 189.428 87.4422C188.872 86.9842 188.381 85.9842 187.543 86.4204C186.831 86.9687 185.986 87.3211 185.093 87.4422C184.403 87.5216 183.703 87.4434 183.048 87.2136C182.393 86.9839 181.799 86.6087 181.313 86.1167C180.945 85.7242 180.656 85.2844 180.05 85.4253C179.158 85.7846 178.345 86.3129 177.657 86.9805C175.479 88.8286 173.691 87.2491 172.029 86.3014C171.981 86.2724 171.94 86.2349 171.906 86.1908C171.463 87.2521 171.247 88.3932 171.271 89.5418C178.205 91.7156 184.811 94.8108 190.907 98.743C191.182 98.7236 191.454 98.6785 191.72 98.6081Z" fill="#FFD35C"/>
<path d="M174.324 86.6447C174.806 86.9433 175.384 87.0516 175.943 86.9484C176.839 86.591 177.658 86.0659 178.354 85.4017C178.672 85.1012 179.054 84.8753 179.472 84.7405C179.89 84.6057 180.333 84.5655 180.768 84.6229C181.222 84.8211 181.615 85.1351 181.906 85.533C182.201 85.8421 182.552 86.0946 182.939 86.2778C183.729 86.6492 184.624 86.7422 185.475 86.5414C185.94 86.4156 186.379 86.2073 186.77 85.9266C187.079 85.6849 187.446 85.5252 187.835 85.4625C188.628 85.3884 189.145 85.9789 189.641 86.4965C189.836 86.7627 190.114 86.9578 190.432 87.0517C190.833 87.1027 191.167 86.754 191.453 86.5195C191.769 86.2103 192.155 85.9796 192.578 85.8464C193.002 85.7131 193.451 85.6811 193.889 85.7529C194.667 85.8744 196.094 86.4819 196.697 85.6678C196.739 85.6111 196.795 85.5657 196.859 85.5358C196.923 85.5059 196.994 85.4924 197.065 85.4965C196.211 83.5439 194.785 81.8907 192.973 80.7507C190.728 79.4782 188.167 78.8592 185.584 78.9647C185.11 78.9647 184.63 78.9938 184.155 79.0206C184.163 79.0779 184.157 79.1361 184.14 79.1914C184.123 79.2467 184.095 79.2978 184.056 79.3413L182.723 80.9342C182.377 81.3461 181.79 80.7568 182.132 80.3473L183.174 79.0983C181.558 79.2428 179.968 79.5978 178.446 80.1542C176.229 80.9459 174.307 82.3864 172.933 84.2852C172.658 84.6858 172.412 85.1056 172.198 85.5415C172.287 85.5269 172.377 85.5437 172.454 85.5889C173.073 85.94 173.688 86.3142 174.324 86.6447ZM189.283 80.8613C189.445 80.9599 189.633 81.0079 189.823 80.999C190.013 80.9901 190.196 80.9248 190.348 80.8115C190.768 80.4846 191.366 81.0703 190.941 81.3995C190.655 81.6387 190.301 81.7844 189.928 81.8165C189.555 81.8487 189.182 81.7659 188.858 81.5793C188.762 81.5238 188.692 81.4326 188.664 81.326C188.636 81.2193 188.652 81.106 188.708 81.0107C188.764 80.9155 188.855 80.8463 188.963 80.8182C189.071 80.7902 189.185 80.8057 189.281 80.8613L189.283 80.8613ZM187.251 81.4396C187.453 82.1568 187.798 82.8262 188.267 83.4079C188.606 83.8186 188.015 84.4091 187.674 83.996C187.104 83.312 186.686 82.5162 186.449 81.6608C186.427 81.557 186.446 81.4489 186.501 81.3584C186.557 81.268 186.645 81.202 186.748 81.1738C186.851 81.1456 186.961 81.1574 187.056 81.2068C187.15 81.2562 187.222 81.3394 187.257 81.4396L187.251 81.4396ZM178.627 80.8054C178.943 81.1079 179.249 81.4129 179.562 81.7252C179.64 81.8031 179.685 81.9089 179.685 82.0192C179.685 82.1295 179.64 82.2352 179.562 82.3132C179.483 82.3912 179.376 82.435 179.265 82.435C179.154 82.435 179.047 82.3912 178.969 82.3132L178.033 81.3935C177.96 81.3141 177.922 81.2102 177.924 81.1032C177.927 80.9962 177.971 80.8944 178.048 80.8188C178.124 80.7432 178.227 80.6996 178.335 80.6971C178.442 80.6947 178.547 80.7334 178.627 80.8054Z" fill="#FFD35C"/>
<path d="M179.943 44.0881C180.047 44.1098 180.156 44.0911 180.247 44.0359C180.339 43.9807 180.405 43.8931 180.434 43.7909C180.462 43.6888 180.45 43.5797 180.4 43.4859C180.351 43.3922 180.267 43.3207 180.166 43.2862C179.816 43.2059 179.492 43.0375 179.227 42.7972C178.962 42.5569 178.764 42.2529 178.651 41.9144C178.484 41.409 177.671 41.6253 177.843 42.1356C177.995 42.6122 178.268 43.0422 178.635 43.3841C179.003 43.726 179.453 43.9684 179.943 44.0881Z" fill="black"/>
<path d="M153.851 99.9403C166.845 107.311 177.705 120.769 192.661 121.266C195.5 121.15 198.185 119.954 200.159 117.927C201.206 117.014 202.007 115.858 202.492 114.562C202.977 113.266 203.129 111.871 202.936 110.502C202.384 107.592 200.012 105.399 197.676 103.553C189.803 97.3321 180.854 92.585 171.267 89.5436C154.493 84.7638 147.813 96.514 153.851 99.9403ZM188.666 108.698C191.525 106.544 194.885 105.139 198.435 104.613C198.965 104.534 199.19 105.336 198.658 105.415C195.18 105.927 191.888 107.303 189.09 109.416C188.66 109.741 188.242 109.018 188.666 108.698ZM178.131 100.266C181.207 98.94 184.426 97.9666 187.725 97.3645C188.253 97.2685 188.477 98.0692 187.948 98.1652C184.719 98.748 181.568 99.6937 178.555 100.984C178.064 101.194 177.639 100.479 178.132 100.266L178.131 100.266ZM169.816 95.5044C172.133 94.6004 174.481 93.7803 176.859 93.044C177.378 92.8836 177.594 93.6867 177.082 93.8459C174.705 94.5814 172.357 95.4015 170.037 96.3063C169.54 96.5019 169.321 95.6976 169.817 95.5044L169.816 95.5044Z" fill="#FF9F48"/>
<path d="M189.09 109.419C191.889 107.307 195.18 105.931 198.658 105.418C199.191 105.339 198.966 104.538 198.435 104.616C194.885 105.142 191.525 106.547 188.666 108.701C188.242 109.02 188.66 109.743 189.09 109.419ZM178.556 100.986C181.569 99.6957 184.72 98.7499 187.949 98.1677C188.479 98.0717 188.255 97.271 187.727 97.367C184.428 97.969 181.209 98.9425 178.132 100.268C177.64 100.481 178.065 101.197 178.556 100.986ZM170.039 96.3087C172.358 95.4048 174.706 94.5846 177.084 93.8483C177.598 93.6892 177.379 92.8861 176.861 93.0465C174.483 93.7827 172.135 94.6029 169.817 95.5068C169.321 95.7012 169.54 96.5043 170.039 96.3087Z" fill="black"/>
<path d="M198.715 88.8758C198.585 86.7585 197.851 84.7213 196.6 83.0008C195.349 81.2803 193.631 79.9471 191.647 79.1558C189.817 78.4667 187.873 78.1206 185.915 78.1352C184.027 78.0984 182.142 78.2947 180.303 78.7196C178.562 79.0655 176.909 79.7585 175.446 80.7566C173.983 81.7547 172.739 83.0371 171.79 84.5261C170.931 85.9455 170.459 87.5614 170.419 89.216L170.419 89.312C170.701 89.3849 170.985 89.4578 171.267 89.5429C171.249 88.3949 171.465 87.2552 171.901 86.1919C171.932 86.2381 171.974 86.276 172.024 86.3024C173.005 87.0428 174.136 87.5641 175.34 87.8309C176.188 87.8289 177.008 87.5274 177.653 86.9804C178.341 86.3133 179.154 85.7851 180.045 85.4252C180.657 85.2916 180.94 85.7278 181.308 86.1166C181.626 86.4454 181.994 86.724 182.397 86.9428C183.227 87.3675 184.164 87.5412 185.092 87.4421C185.51 87.3996 185.92 87.2968 186.308 87.1372C186.762 86.9549 187.117 86.6378 187.544 86.4203C188.377 85.9817 188.866 86.9926 189.43 87.4421C189.708 87.6929 190.065 87.8405 190.441 87.8599C190.816 87.8794 191.187 87.7696 191.49 87.549C191.856 87.227 192.246 86.9318 192.655 86.6657C193.3 86.4801 193.988 86.5091 194.615 86.7484C195.076 86.9147 195.574 86.9504 196.053 86.8514C196.533 86.7525 196.976 86.5228 197.331 86.1882L197.441 86.4811C198.715 90.6728 197.246 95.9216 193.167 98.06C192.71 98.3011 192.224 98.4851 191.722 98.608C191.493 98.6696 191.259 98.7139 191.023 98.7404L190.901 98.7404C191.256 98.9713 191.598 99.1887 191.94 99.4196C192.119 99.3753 192.295 99.318 192.466 99.2483C193.245 98.9829 193.976 98.5975 194.634 98.1062C196.018 97.0114 197.113 95.599 197.824 93.9909C198.535 92.3829 198.841 90.6274 198.715 88.8758ZM196.698 85.667C196.097 86.4811 194.674 85.8614 193.89 85.7521C193.452 85.6793 193.002 85.7108 192.579 85.8441C192.155 85.9774 191.769 86.2086 191.453 86.5187C191.172 86.7496 190.825 87.0995 190.433 87.0509C190.115 86.9564 189.837 86.7614 189.642 86.4956C189.152 85.9853 188.62 85.3888 187.836 85.4617C187.447 85.5261 187.081 85.6856 186.77 85.9258C186.38 86.2079 185.941 86.4163 185.475 86.5406C184.624 86.7402 183.73 86.6473 182.94 86.2769C182.554 86.0906 182.205 85.8385 181.907 85.5321C181.617 85.1331 181.224 84.8188 180.769 84.6221C180.333 84.5632 179.89 84.6027 179.472 84.7375C179.054 84.8724 178.672 85.0992 178.354 85.4009C177.66 86.0673 176.841 86.5926 175.944 86.9476C175.385 87.0578 174.804 86.9489 174.324 86.6439C173.687 86.3158 173.077 85.9367 172.451 85.5844C172.372 85.5444 172.283 85.5279 172.195 85.537C172.41 85.1014 172.655 84.6816 172.93 84.2807C174.29 82.369 176.217 80.9251 178.443 80.1497C179.965 79.5923 181.555 79.2373 183.171 79.0939L182.129 80.3429C181.786 80.756 182.374 81.3428 182.72 80.9297L184.053 79.3369C184.128 79.2471 184.163 79.1318 184.152 79.0161C184.63 78.9796 185.103 78.9687 185.581 78.9602C188.164 78.8578 190.724 79.4766 192.97 80.7463C194.798 81.8679 196.228 83.5268 197.061 85.492C196.991 85.4857 196.919 85.4986 196.855 85.5294C196.791 85.5602 196.737 85.6078 196.698 85.667Z" fill="black"/>
<path d="M187.67 83.9943C188.013 84.4062 188.602 83.8169 188.263 83.4062C187.788 82.8283 187.442 82.1576 187.247 81.4379C187.212 81.3377 187.14 81.2545 187.046 81.2051C186.951 81.1557 186.841 81.1439 186.738 81.1721C186.635 81.2002 186.547 81.2663 186.491 81.3567C186.436 81.4472 186.417 81.5553 186.439 81.659C186.68 82.5142 187.099 83.3098 187.67 83.9943ZM190.941 81.4039C191.364 81.0746 190.768 80.4902 190.348 80.8158C189.577 81.3942 189.059 80.4015 188.716 81.0333C188.352 81.687 189.932 82.2398 190.941 81.4039ZM178.972 82.3115C179.053 82.3811 179.156 82.4179 179.263 82.4144C179.37 82.4108 179.471 82.3673 179.546 82.2925C179.621 82.2178 179.665 82.1174 179.669 82.0117C179.672 81.9061 179.635 81.803 179.565 81.7234L178.631 80.8037C178.551 80.7317 178.446 80.6929 178.338 80.6954C178.23 80.6979 178.127 80.7415 178.051 80.8171C177.975 80.8927 177.931 80.9945 177.928 81.1015C177.925 81.2085 177.964 81.3124 178.036 81.3917C178.345 81.6979 178.651 82.0114 178.972 82.3115Z" fill="black"/>
<path d="M77.8301 210.211C77.7493 207.285 77.5171 204.366 77.1343 201.463C75.5614 189.262 74.1711 190.205 74.3046 189.168C74.7569 185.372 74.5443 181.527 73.6762 177.802C73.3677 176.077 72.6001 174.464 71.4528 173.131C71.4007 171.73 71.1194 170.346 70.6198 169.035C69.8456 168.001 68.857 170.056 68.1563 171.378C64.645 170.907 61.0712 171.276 57.7328 172.454C57.4424 171.74 57.1061 171.044 56.7258 170.373C56.4073 169.634 55.4874 169.392 55.0831 170.107C54.6789 170.821 54.3052 172.998 53.5666 175.659C50.8642 179.631 50.4685 183.456 49.921 187.628C47.8997 190.186 46.0579 192.879 44.4085 195.687C41.5689 200.236 38.9278 204.914 37.8755 210.21C23.4205 210.656 13.3584 210.034 7.77852 215.497C6.01207 217.088 5.37507 219.95 7.36324 221.504C9.40164 222.998 15.3159 223.041 69.5736 220.677C71.2264 220.759 72.8742 220.439 74.3744 219.747C78.0323 217.688 77.9845 214.124 77.8301 210.211ZM54.3359 176.01C54.3959 175.926 55.2362 172.455 55.5094 171.424C55.812 170.33 55.7201 170.227 56.2175 171.192C56.5556 171.844 56.8532 172.518 57.1472 173.192C57.2046 173.285 57.2963 173.353 57.403 173.38C57.5098 173.408 57.6232 173.394 57.7193 173.34C61.0831 172.085 64.7152 171.709 68.2678 172.246C68.8497 172.397 68.9734 171.305 70.0391 169.845C70.6516 171.425 70.3466 172.883 70.8574 173.71C73.7019 176.857 74.0143 184.925 73.463 189.17C68.073 195.157 54.108 194.243 50.7258 188.508C50.8446 187.961 50.8189 180.806 54.3359 176.01ZM76.9481 214.448C76.8109 215.95 76.0982 217.342 74.9569 218.338C73.8156 219.334 72.3326 219.858 70.8133 219.803C10.9023 222.298 7.18317 222.823 6.98227 219.098C6.84262 216.566 9.68584 214.837 11.6679 213.862C16.2629 211.743 20.456 211.603 26.4402 211.397C39.1128 210.963 38.4856 211.193 38.6216 210.731C39.8343 204.229 43.7065 198.165 47.5873 192.252C48.3355 191.104 49.1325 189.987 49.9761 188.905C53.3363 194.76 67.2314 196.33 73.7337 190.112C76.2217 195.85 77.3548 209.069 76.9481 214.448Z" fill="#FFD35C"/>
<path d="M56.4511 178.526C56.5601 179.049 57.3686 178.827 57.2596 178.306C57.2596 177.698 57.463 177.518 57.1898 176.956C56.9779 176.47 56.2551 176.889 56.4658 177.376C56.6091 177.709 56.3752 178.16 56.4511 178.526ZM70.0939 178.553C70.1148 178.202 70.5619 177.637 70.0364 176.803C69.7791 176.334 69.0564 176.753 69.3124 177.224C69.5819 177.716 69.2842 178.047 69.256 178.553C69.2242 179.091 70.0694 179.091 70.0939 178.553ZM66.1066 178.709C66.4839 178.326 65.8873 177.737 65.5137 178.121C64.9871 178.648 64.2732 178.948 63.5255 178.958C62.7778 178.968 62.0559 178.687 61.5153 178.174C61.435 178.105 61.3311 178.068 61.2246 178.072C61.1181 178.075 61.0169 178.119 60.9415 178.193C60.8661 178.268 60.8222 178.368 60.8186 178.474C60.8151 178.58 60.8522 178.683 60.9224 178.762C61.6198 179.432 62.5551 179.802 63.5255 179.791C64.496 179.781 65.4233 179.393 66.1066 178.709Z" fill="black"/>
<path d="M86.5387 168.343C85.5918 167.744 84.5211 168.941 85.1385 169.893C85.2639 170.084 85.427 170.247 85.6179 170.373C85.8089 170.499 86.0237 170.585 86.2492 170.626C86.4748 170.667 86.7063 170.662 86.9299 170.611C87.1534 170.56 87.3642 170.465 87.5493 170.331C87.4314 169.579 87.0778 168.884 86.5387 168.343ZM170.294 167.74C170.947 168.039 171.834 167.241 171.726 165.698C171.677 164.304 170.52 164.493 170.158 165.738C169.971 166.44 169.838 167.155 169.763 167.876C169.822 167.796 169.907 167.739 170.004 167.714C170.101 167.689 170.204 167.699 170.294 167.74ZM133.668 184.098C131.852 184.888 129.868 185.226 127.89 185.082C125.912 184.938 123.999 184.316 122.319 183.272C126.515 212.648 126.606 211.443 126.049 214.187L133.119 214.175C131.354 207.985 132.912 194.185 133.668 184.098Z" fill="#FFD35C"/>
<path d="M107.923 204.64C105.512 196.365 103.574 187.961 102.119 179.469C101.717 177.208 101.35 174.813 102.201 172.679C103.067 170.673 104.593 169.018 106.529 167.983C106.002 166.538 105.698 165.022 105.629 163.487C104.31 163.719 102.982 163.894 101.649 164.012C95.1966 164.453 89.0961 161.656 86.248 158.288C84.6488 159.079 83.2623 160.236 82.203 161.663C81.1437 163.09 80.4421 164.747 80.1561 166.497C79.7302 169.588 79.8604 172.73 80.5407 175.777C82.9001 188.163 90.2182 208.025 93.0357 213.733C93.5502 214.876 93.734 214.804 94.4788 214.838C97.7863 214.987 109.844 215.014 113.128 215.019C110.591 212.262 108.99 208.22 107.923 204.64ZM93.0921 165.517C99.6447 178.614 103.95 192.703 105.832 207.204C105.901 207.734 105.062 207.728 104.994 207.204C103.113 192.852 98.8497 178.908 92.3767 165.938C92.1292 165.465 92.8556 165.044 93.0921 165.522V165.517ZM87.0896 167.714C87.7413 168.326 88.1863 169.123 88.3636 169.996C88.4238 170.017 88.478 170.052 88.5215 170.098C88.5651 170.144 88.5967 170.2 88.6135 170.261C88.6304 170.322 88.6321 170.386 88.6184 170.448C88.6048 170.51 88.5761 170.567 88.5351 170.616C88.9806 172.153 89.2989 173.725 89.4869 175.314C89.5506 175.845 88.7115 175.838 88.6478 175.314C88.4813 173.899 88.1965 172.499 87.7964 171.131C85.7065 172.335 83.2014 170.199 84.4497 168.2C84.5868 167.99 84.7658 167.81 84.9755 167.672C85.1852 167.533 85.4213 167.438 85.6693 167.393C85.9173 167.348 86.1719 167.354 86.4176 167.41C86.6633 167.466 86.8949 167.571 87.0981 167.719L87.0896 167.714ZM126.053 214.189C125.975 214.475 125.873 214.753 125.749 215.023L133.413 215.009C133.3 214.738 133.203 214.46 133.124 214.177C130.766 214.184 128.409 214.188 126.053 214.189ZM175.28 159.216C174.531 158.53 173.584 158.094 172.573 157.97C171.301 157.767 170.01 157.715 168.726 157.816C163.6 160.157 158.059 161.474 152.42 161.691C152.089 167.224 151.059 168.149 148.055 168.929C149.425 169.854 150.597 171.039 151.504 172.415C155.821 179.206 148.995 203.433 146.911 211.099C146.577 212.431 146.078 213.717 145.425 214.928C147.08 214.886 162.589 214.181 162.589 214.181C162.663 214.182 162.736 214.163 162.8 214.127C162.865 214.091 162.919 214.039 162.956 213.975C169.188 200.166 173.728 183.531 176.254 169.049C176.784 165.875 177.651 161.84 175.28 159.216ZM169.871 168.46C169.804 168.429 169.747 168.379 169.708 168.316C169.547 169.736 169.401 170.852 169.291 172.773C169.259 173.307 168.421 173.308 168.452 172.773C168.557 171 168.74 169.234 169 167.476C169.188 166.22 169.291 164.168 170.92 163.928C173.638 163.525 172.748 169.77 169.871 168.46ZM160.668 168.765C161.692 166.273 163.186 163.998 165.071 162.062C165.456 161.688 166.051 162.276 165.665 162.65C163.586 164.831 161.979 167.411 160.944 170.232C156.52 181.225 153.882 192.845 153.126 204.657C153.091 205.19 152.253 205.191 152.288 204.657C153.066 192.317 155.898 180.189 160.668 168.765Z" fill="#FFD35C"/>
<path d="M123.049 220.677C118.329 218.976 103.558 219.569 104.193 224.665C104.204 224.772 104.252 224.871 104.329 224.947C104.405 225.023 104.505 225.07 104.613 225.082C111.05 225.483 117.513 225.093 123.854 223.92C125.388 223.483 124.95 221.355 123.049 220.677ZM154.241 221.011C150.963 219.001 142.252 218.703 138.392 218.993C136.171 219.06 134.008 219.707 132.119 220.868C130.705 221.883 130.832 223.158 133.117 223.596C134.317 223.807 133.472 223.734 149.41 224.203C151.054 224.426 152.728 224.198 154.25 223.542C154.686 223.274 155.247 222.847 155.289 222.293C155.337 221.675 154.7 221.292 154.241 221.011ZM98.6644 215.859C98.8083 216.438 98.8053 217.044 98.6556 217.622C98.506 218.2 98.2144 218.732 97.8069 219.171C96.8636 220.111 95.5345 217.944 95.9877 215.748C96.0269 215.215 95.189 215.217 95.1486 215.748C94.7039 218.057 96.049 221.028 98.0727 220.028C98.6889 219.494 99.145 218.802 99.3911 218.028C99.6371 217.253 99.6638 216.427 99.468 215.639C99.2756 215.145 98.4647 215.362 98.6644 215.859ZM162.01 214.78C162.243 216.224 162.01 217.704 161.345 219.009C161.19 219.172 160.996 219.294 160.78 219.362C160.565 219.43 160.335 219.443 160.113 219.399C159.892 219.356 159.685 219.256 159.512 219.111C159.339 218.966 159.207 218.78 159.127 218.57C158.855 217.417 158.754 216.23 158.828 215.047C158.858 214.511 158.021 214.514 157.99 215.047C157.888 216.451 158.042 217.861 158.444 219.211C158.676 219.555 158.995 219.832 159.37 220.013C159.745 220.195 160.162 220.274 160.578 220.242C162.693 220.214 163.066 216.874 162.848 214.786C162.849 214.731 162.838 214.677 162.818 214.627C162.797 214.576 162.766 214.53 162.728 214.491C162.689 214.452 162.643 214.421 162.592 214.4C162.542 214.379 162.487 214.368 162.432 214.367C162.321 214.366 162.214 214.409 162.135 214.487C162.056 214.564 162.011 214.669 162.01 214.78Z" fill="black"/>
<path d="M146.911 211.097C148.899 203.605 155.834 179.23 151.504 172.413C150.597 171.037 149.425 169.852 148.055 168.927C138.084 171.183 115.308 171.139 108.795 169.605C108.325 169.504 107.881 169.307 107.491 169.027C107.101 168.748 106.773 168.391 106.529 167.98C104.593 169.016 103.068 170.671 102.201 172.676C101.351 174.811 101.717 177.207 102.119 179.467C103.574 187.959 105.511 196.363 107.923 204.638C109.727 210.69 113.024 217.921 119.384 218.003C124.795 217.929 125.696 215.152 125.632 215.273C126.996 212.736 126.244 210.753 122.324 183.266C124.005 184.311 125.917 184.932 127.895 185.076C129.874 185.22 131.857 184.883 133.674 184.093C132.152 204.292 130.431 216.833 136.968 218.048C138.664 218.121 140.362 217.972 142.02 217.606C144.935 216.977 146.11 214.112 146.911 211.097Z" fill="#B26EE6"/>
<path d="M153.126 204.657C153.883 192.844 156.521 181.225 160.943 170.231C161.979 167.411 163.586 164.83 165.665 162.649C166.049 162.275 165.456 161.687 165.071 162.061C163.186 163.997 161.691 166.272 160.668 168.764C155.899 180.189 153.067 192.316 152.288 204.657C152.253 205.19 153.091 205.189 153.126 204.657ZM93.092 165.522C92.847 165.043 92.1291 165.464 92.368 165.942C98.8407 178.913 103.104 192.857 104.985 207.208C105.054 207.732 105.893 207.738 105.823 207.208C103.944 192.708 99.6412 178.619 93.092 165.522ZM169.296 172.774C169.395 171.067 169.527 169.916 169.713 168.316C169.752 168.379 169.809 168.43 169.876 168.461C172.728 169.758 173.654 163.524 170.925 163.929C169.296 164.172 169.193 166.22 169.005 167.477C168.744 169.233 168.561 170.999 168.456 172.774C168.42 173.307 169.259 173.306 169.296 172.774ZM170.164 165.74C170.508 164.507 171.682 164.296 171.732 165.7C171.84 167.248 170.951 168.038 170.3 167.743C170.209 167.701 170.107 167.691 170.01 167.716C169.913 167.741 169.827 167.798 169.768 167.879C169.838 167.156 169.969 166.44 170.159 165.739L170.164 165.74ZM88.5386 170.62C88.5797 170.571 88.6083 170.514 88.622 170.452C88.6357 170.39 88.634 170.326 88.6171 170.265C88.6002 170.204 88.5687 170.148 88.5251 170.102C88.4816 170.056 88.4274 170.021 88.3671 170C88.1895 169.128 87.7446 168.331 87.0931 167.718C86.6961 167.432 86.2008 167.314 85.7161 167.39C85.2314 167.467 84.797 167.73 84.5084 168.124C83.1327 170.034 85.6109 172.392 87.8 171.135C88.1999 172.504 88.4847 173.903 88.6513 175.318C88.715 175.842 89.5542 175.849 89.4905 175.318C89.3006 173.729 88.9823 172.158 88.5386 170.62ZM85.1393 169.891C84.5182 168.95 85.5876 167.739 86.5394 168.34C87.0781 168.881 87.4316 169.577 87.5501 170.328C87.365 170.462 87.1543 170.558 86.9309 170.609C86.7074 170.66 86.4758 170.665 86.2502 170.625C86.0245 170.584 85.8096 170.499 85.6184 170.373C85.4272 170.247 85.2638 170.085 85.138 169.894L85.1393 169.891Z" fill="black"/>
<path d="M146.633 161.436C145.801 161.954 144.878 162.312 143.913 162.491C136.649 163.726 129.28 164.255 121.913 164.071C119.421 163.951 116.941 163.664 114.488 163.212C113.624 163.151 112.817 162.763 112.234 162.128C110.196 162.602 107.702 163.14 105.634 163.488C105.879 166.353 106.113 169.017 108.8 169.606C112.222 170.413 125.541 171.435 139.36 170.105C151.151 168.97 152.007 168.702 152.425 161.691C150.491 161.743 148.555 161.658 146.633 161.436Z" fill="#DCBEFF"/>
<path d="M36.6683 73.6857C36.4538 73.3518 36.1194 73.1111 35.7329 73.0123C35.3463 72.9135 34.9363 72.964 34.5858 73.1535C32.8904 74.0915 34.2183 76.338 34.2183 82.1372C34.1423 83.1683 34.2079 84.2048 34.4131 85.2184C34.4857 85.3636 34.587 85.4927 34.7111 85.5981C34.8352 85.7036 34.9794 85.7831 35.1351 85.832C35.2909 85.8809 35.4549 85.8981 35.6176 85.8827C35.7802 85.8672 35.938 85.8194 36.0816 85.7421C36.7173 85.3776 36.7749 84.6595 36.9048 83.2659C37.1988 80.9331 37.4854 75.4231 36.6683 73.6857ZM35.6589 85.024C34.5993 85.5513 35.5193 81.9112 34.5785 75.8058C34.4842 75.2323 34.4352 73.9056 35.2461 73.795C35.9162 73.7051 36.0473 74.3381 36.1281 74.8399C36.6769 78.7194 36.095 84.8053 35.6589 85.024ZM226.404 79.3828C225.6 79.3655 224.812 79.6091 224.161 80.0765C223.509 80.5439 223.03 81.2096 222.795 81.9723C222.56 82.735 222.583 83.5528 222.86 84.3015C223.136 85.0502 223.652 85.6888 224.329 86.12C227.789 88.5427 232.324 84.8211 231.034 82.1882C230.557 81.3771 229.884 80.6961 229.076 80.2065C228.267 79.7169 227.349 79.4338 226.404 79.3828ZM230.292 83.8333C229.883 84.7256 229.142 85.4264 228.223 85.7887C227.305 86.1511 226.281 86.147 225.366 85.7773C224.785 85.5126 224.296 85.0843 223.959 84.5457C223.622 84.007 223.452 83.382 223.471 82.7483C223.545 82.0359 223.888 81.3779 224.433 80.9077C224.978 80.4375 225.682 80.1904 226.404 80.2163C228.44 80.3997 231.035 82.1153 230.292 83.8333ZM150.559 141C150.299 140.533 149.579 140.95 149.836 141.421C150.664 142.907 151.543 144.364 152.474 145.789L153.478 145.819C153.429 145.649 152.409 144.34 150.559 141ZM107.923 141.69C106.838 143.18 106.002 144.832 105.447 146.586C105.284 147.097 106.094 147.315 106.256 146.807C106.794 145.124 107.601 143.539 108.647 142.111C108.963 141.676 108.235 141.262 107.923 141.69ZM147.915 146.295L147.902 146.283V146.21C147.9 146.239 147.904 146.268 147.915 146.295Z" fill="black"/>
<path d="M190.298 145.057C189.919 144.79 189.554 144.509 189.195 144.218C187.492 144.193 178.819 144.026 176.198 144.012C175.478 141.784 174.375 139.696 172.938 137.84C172.913 137.813 172.885 137.789 172.855 137.768C172.807 137.714 172.745 137.674 172.676 137.652C172.607 137.631 172.533 137.629 172.463 137.647C172.435 137.661 172.404 137.669 172.373 137.671C172.081 137.744 171.8 137.827 171.506 137.924C168.676 138.835 166.31 140.729 163.884 142.406C162.57 143.365 161.157 144.184 159.669 144.848C158.059 145.535 156.318 145.872 154.566 145.835C154.21 145.835 152.814 145.801 152.47 145.789C151.344 145.752 150.201 145.713 149.073 145.75C148.962 145.227 148.84 144.705 148.705 144.182C148.627 143.674 148.412 143.196 148.081 142.8C147.751 142.404 147.318 142.104 146.83 141.933C145.549 141.571 144.243 141.304 142.922 141.135C140.261 140.749 137.575 140.562 134.886 140.575C131.762 140.587 128.653 140.806 125.542 141.122C125.248 141.158 124.963 141.184 124.669 141.207C123.775 141.305 119.671 141.786 118.569 141.936C117.063 142.094 115.569 142.35 114.098 142.702C113.363 142.954 112.599 143.109 111.824 143.164C111.556 143.123 111.285 143.106 111.014 143.114C110.862 143.151 110.714 143.203 110.573 143.272C110.485 143.297 110.407 143.349 110.352 143.421C110.296 143.493 110.266 143.581 110.266 143.672C110.29 144.705 110.315 145.738 110.352 146.77C109.102 147.062 107.827 147.293 106.554 147.463C105.654 147.6 104.74 147.634 103.832 147.565C102.935 147.447 102.053 147.234 101.201 146.931C99.5629 146.373 97.8651 146.006 96.1416 145.837C94.3355 145.702 92.5215 145.707 90.7161 145.852C89.7728 145.907 88.8352 146.036 87.9121 146.236C87.2383 146.381 86.5646 146.555 85.8896 146.722C85.5711 146.808 85.2514 146.878 84.9341 146.951C84.8627 146.968 84.7973 147.005 84.7453 147.056C84.6932 147.107 84.6564 147.172 84.6389 147.243C83.8399 149.644 83.7259 152.217 84.3093 154.679C84.6595 156.015 85.3221 157.251 86.2436 158.286C86.4396 158.517 86.6393 158.736 86.8561 158.947C87.364 159.451 87.909 159.918 88.4866 160.342C92.3145 163.034 96.9631 164.33 101.644 164.01C102.98 163.901 104.301 163.704 105.624 163.485C105.906 163.436 106.177 163.39 106.446 163.342C107.757 163.099 109.051 162.83 110.349 162.551C110.974 162.418 111.6 162.271 112.225 162.125C112.807 162.762 113.614 163.15 114.479 163.209C116.931 163.66 119.412 163.947 121.903 164.068C126.891 164.256 131.886 164.042 136.839 163.428C139.191 163.173 141.588 162.952 143.903 162.49C144.869 162.311 145.792 161.953 146.624 161.434C148.265 161.634 149.918 161.723 151.572 161.7C151.853 161.693 152.134 161.688 152.416 161.688L152.591 161.688C157.144 161.539 161.638 160.623 165.881 158.979C165.905 158.966 165.918 158.954 165.942 158.954C166.812 158.614 167.684 158.241 168.529 157.828C169.697 157.282 170.829 156.664 171.92 155.979C173.782 154.897 175.253 153.26 176.123 151.301C176.905 149.222 177.007 146.953 176.417 144.813C181.055 144.838 185.668 144.984 190.298 145.057ZM125.57 155.919C125.436 156.247 125.205 156.526 124.908 156.721C124.542 157.013 124.148 157.269 123.732 157.487C122.59 158.085 121.402 158.592 120.18 159.005C117.068 160.074 113.893 160.95 110.673 161.63C107.901 162.28 105.096 162.779 102.269 163.124C98.2551 163.511 94.2176 162.676 90.694 160.731C88.3402 159.612 86.464 157.7 85.4008 155.336C84.5954 152.856 84.5916 150.188 85.3898 147.706C87.0178 147.241 88.6811 146.908 90.3633 146.71C92.171 146.533 93.9905 146.508 95.8023 146.637C97.5675 146.794 99.3073 147.161 100.984 147.73C101.806 148.024 102.655 148.236 103.519 148.362C104.41 148.47 105.313 148.457 106.201 148.325C107.984 148.129 109.75 147.795 111.481 147.329C111.495 147.56 111.495 147.803 111.495 148.046C111.495 148.362 111.397 148.872 111.629 149.127C112.151 149.512 112.793 149.701 113.442 149.662C114.939 149.483 116.385 149.008 117.693 148.265C118.825 147.791 120.062 147.619 121.281 147.767C121.625 147.815 122.164 147.864 121.796 148.313C121.53 148.58 121.219 148.799 120.877 148.957C120.509 149.164 118.219 150.5 117.447 150.95C117.352 151.01 117.285 151.105 117.26 151.214C117.234 151.323 117.253 151.438 117.312 151.533C117.348 151.592 117.398 151.64 117.458 151.675C117.518 151.709 117.586 151.727 117.655 151.727C118.83 151.691 122.358 151.557 122.947 151.533C123.315 151.521 124.135 151.351 124.429 151.655C125.36 152.614 120.436 154.716 119.848 154.959C119.442 155.117 119.442 155.81 119.957 155.773L124.527 155.433C124.897 155.421 125.685 155.36 125.57 155.919ZM175.77 149.492C175.401 151.414 174.339 153.137 172.783 154.34C171.135 155.597 169.332 156.638 167.417 157.438C159.711 160.889 151.086 161.775 142.83 159.965C141.668 159.71 140.516 159.406 139.389 159.042C138.818 158.876 138.258 158.677 137.711 158.446C137.318 158.264 136.89 158.033 136.951 157.547C136.969 157.379 137.045 157.223 137.165 157.103C137.285 156.984 137.443 156.909 137.613 156.891C138.213 156.83 138.849 156.903 139.461 156.855C140.769 156.761 142.06 156.512 143.308 156.114C143.738 155.98 143.701 155.251 143.199 155.3C141.878 155.529 140.525 155.496 139.218 155.202C138.69 155.039 138.187 154.806 137.722 154.51C137.367 154.279 136.657 153.939 136.719 153.441C136.78 152.942 137.209 152.918 137.601 152.942C138.225 152.991 138.849 153.003 139.475 152.991C140.647 152.994 141.814 152.855 142.953 152.578C143.007 152.564 143.058 152.539 143.102 152.505C143.146 152.47 143.182 152.427 143.209 152.378C143.235 152.329 143.251 152.275 143.255 152.219C143.26 152.164 143.253 152.108 143.234 152.056C143.215 151.991 143.178 151.932 143.129 151.885C143.08 151.838 143.019 151.805 142.953 151.788C141.308 151.158 139.733 150.364 138.25 149.419C137.673 149.054 136.461 148.471 137.134 147.657C137.722 146.953 138.708 147.193 139.45 147.475C140.979 148.096 142.551 148.608 144.153 149.006C145.723 149.339 147.358 149.182 148.834 148.556C148.94 148.527 149.031 148.456 149.086 148.361C149.141 148.265 149.155 148.152 149.127 148.046C149.03 147.56 148.932 147.074 148.82 146.588C152.264 146.442 155.731 147.098 159.061 145.968C162.199 144.899 164.77 142.724 167.477 140.914C168.979 139.854 170.647 139.05 172.415 138.533C174.706 141.631 176.522 145.58 175.77 149.492Z" fill="black"/>
<path d="M150.716 150.637C149.899 150.69 149.079 150.671 148.266 150.58C147.73 150.52 147.734 151.353 148.266 151.411C149.079 151.502 149.899 151.521 150.716 151.468C151.253 151.433 151.256 150.602 150.716 150.637ZM148.389 154.944L150.252 154.944C150.363 154.944 150.469 154.9 150.548 154.822C150.627 154.744 150.671 154.639 150.671 154.529C150.671 154.418 150.627 154.313 150.548 154.235C150.469 154.157 150.363 154.113 150.252 154.113L148.389 154.113C148.277 154.113 148.171 154.157 148.092 154.235C148.014 154.313 147.97 154.418 147.97 154.529C147.97 154.639 148.014 154.744 148.092 154.822C148.171 154.9 148.277 154.944 148.389 154.944ZM150.142 157.138C149.564 157.244 148.974 157.273 148.389 157.226C147.851 157.186 147.855 158.017 148.389 158.057C149.05 158.103 149.714 158.062 150.365 157.935C150.895 157.842 150.674 157.042 150.142 157.138ZM173.842 146.674C173.881 147.205 174.719 147.208 174.681 146.674C174.632 145.934 174.487 145.203 174.25 144.5C174.078 143.997 173.27 144.213 173.441 144.722C173.659 145.353 173.794 146.009 173.842 146.674ZM112.622 152.698L113.91 152.136C114.4 151.921 113.976 151.203 113.486 151.417L112.2 151.979C111.706 152.195 112.133 152.91 112.622 152.698ZM115.064 155.462C115.471 155.228 115.908 155.05 116.363 154.933C116.464 154.899 116.548 154.827 116.598 154.733C116.648 154.64 116.66 154.531 116.631 154.428C116.603 154.326 116.536 154.239 116.445 154.183C116.354 154.128 116.245 154.11 116.14 154.131C115.613 154.261 115.108 154.468 114.641 154.745C114.55 154.803 114.485 154.893 114.459 154.998C114.434 155.102 114.45 155.212 114.505 155.305C114.56 155.397 114.648 155.465 114.752 155.495C114.857 155.524 114.968 155.512 115.064 155.462ZM116.365 157.815C116.704 157.997 117.085 158.09 117.471 158.085C117.857 158.079 118.236 157.975 118.57 157.784C118.663 157.724 118.73 157.631 118.754 157.523C118.778 157.416 118.759 157.303 118.699 157.21C118.326 156.623 117.81 157.639 116.793 157.097C116.311 156.849 115.884 157.564 116.365 157.815ZM86.8813 148.619C86.5336 148.935 86.2987 149.355 86.2121 149.815C86.1255 150.275 86.1919 150.751 86.4011 151.17C86.6302 151.656 87.353 151.232 87.1263 150.751C87.0077 150.491 86.9775 150.2 87.0403 149.921C87.103 149.642 87.2553 149.391 87.4742 149.206C87.8748 148.847 87.2795 148.259 86.8813 148.619ZM209.842 72.968C210.104 72.8942 210.347 72.765 210.554 72.5895C210.761 72.414 210.927 72.1962 211.041 71.9511C212.094 69.4433 212.468 61.0076 211.456 54.5766C211.437 53.9726 211.278 53.3811 210.991 52.8481C210.703 52.3152 210.296 51.8552 209.8 51.5039C210.018 22.7084 210.762 22.9028 209.869 22.9344C209.763 22.9385 209.663 22.9821 209.588 23.0564C209.513 23.1307 209.469 23.2303 209.465 23.3353C209.19 32.6503 209.025 41.9653 208.969 51.2803C208.598 51.2305 208.222 51.3005 207.895 51.4801C207.569 51.6596 207.309 51.939 207.156 52.2766C206.945 52.3991 206.769 52.5731 206.645 52.782C206.356 54.1346 206.144 55.5019 206.008 56.8778C205.541 61.3979 205.845 65.9637 206.907 70.3837C207.04 71.1521 207.388 71.8678 207.911 72.4492C210.218 74.6593 207.963 65.0207 210.153 114.517C210.534 123.041 211.004 131.559 211.564 140.071C211.599 140.603 212.438 140.606 212.403 140.071C210.932 117.731 210.078 95.3548 209.842 72.968ZM71.0347 109.987C71.1131 109.463 70.3059 109.237 70.2262 109.766C70.0486 110.874 70.1282 112.007 70.459 113.08C70.617 113.59 71.4267 113.373 71.2675 112.858C70.9716 111.931 70.892 110.949 71.0347 109.987ZM79.192 108.948L79.192 111.103C79.192 111.213 79.2362 111.319 79.3147 111.397C79.3933 111.475 79.4999 111.519 79.611 111.519C79.7221 111.519 79.8286 111.475 79.9072 111.397C79.9858 111.319 80.0299 111.213 80.0299 111.103L80.0299 108.948C80.0299 108.838 79.9858 108.732 79.9072 108.654C79.8286 108.576 79.7221 108.532 79.611 108.532C79.4999 108.532 79.3933 108.576 79.3147 108.654C79.2362 108.732 79.192 108.838 79.192 108.948ZM89.7491 110.796L89.7491 113.26C89.7549 113.366 89.8016 113.467 89.8797 113.54C89.9577 113.613 90.0611 113.654 90.1686 113.654C90.2761 113.654 90.3796 113.613 90.4576 113.54C90.5357 113.467 90.5824 113.366 90.5882 113.26L90.5882 110.796C90.5824 110.689 90.5357 110.589 90.4576 110.516C90.3796 110.442 90.2761 110.402 90.1686 110.402C90.0611 110.402 89.9577 110.442 89.8797 110.516C89.8016 110.589 89.7549 110.689 89.7491 110.796ZM84.4522 116.155C84.5936 116.915 84.5397 117.697 84.2954 118.431C84.13 118.942 84.9385 119.16 85.1026 118.652C85.3842 117.774 85.4385 116.839 85.2607 115.934C85.1614 115.403 84.3542 115.625 84.4522 116.155ZM70.6819 103.608C70.4761 102.991 70.272 102.374 70.0694 101.757C69.9016 101.251 69.0894 101.468 69.2609 101.979L69.8734 103.829C70.0425 104.334 70.8522 104.118 70.6819 103.608ZM78.2573 95.8198C78.3651 96.3434 79.1736 96.1211 79.0658 95.5986L78.7486 94.0604C78.6395 93.5356 77.831 93.7579 77.9401 94.2816C78.0491 94.8052 78.1544 95.307 78.2573 95.8198ZM86.8262 100.836C86.5222 99.8761 86.4331 98.8615 86.5653 97.8634C86.6327 97.3337 85.7948 97.3385 85.7274 97.8634C85.5902 98.9364 85.6893 100.026 86.0177 101.058C86.1782 101.567 86.9879 101.35 86.8262 100.836ZM212.987 189.649C212.961 189.443 212.815 189.212 212.57 189.236C209.4 189.557 185.664 190.709 181.529 191.047C180.476 191.101 181.727 192.218 182.925 201.921C185.366 218.784 185.483 219.794 186.147 219.794C192.614 219.307 199.083 218.724 205.575 218.712C211.626 218.712 212.19 219.06 212.19 218.53C213.149 211.697 213.72 195.989 212.987 189.649ZM211.419 217.995C203.093 217.805 194.764 218.117 186.478 218.931C184.998 212.836 183.523 198.011 182.043 191.848C183.451 191.739 184.861 191.642 186.282 191.557C186.487 193.064 186.609 194.581 186.649 196.101C186.649 196.212 186.694 196.319 186.773 196.397C186.852 196.476 186.96 196.52 187.072 196.52C187.184 196.52 187.291 196.476 187.37 196.397C187.45 196.319 187.494 196.212 187.494 196.101C187.468 194.563 187.336 193.029 187.101 191.508C189.469 191.363 191.834 191.233 194.195 191.119C194.378 192.772 194.575 194.436 194.757 196.101C194.82 196.623 195.665 196.636 195.603 196.101C195.408 194.424 195.212 192.748 195.028 191.071C198.359 190.901 201.679 190.731 205.012 190.548C205.12 192.087 205.231 193.631 205.343 195.178C205.379 195.7 206.223 195.712 206.188 195.178C206.078 193.622 205.955 192.067 205.845 190.512C207.824 190.408 210.207 190.284 212.189 190.099C212.694 199.403 212.436 208.733 211.419 217.995Z" fill="black"/>
</svg>
