<svg width="25" height="25" viewBox="0 0 25 25" fill="none" xmlns="http://www.w3.org/2000/svg">
<g clip-path="url(#clip0_75_7722)">
<path d="M22.2222 3.47223H2.77778C2.04107 3.47223 1.33453 3.76489 0.813592 4.28582C0.292658 4.80676 0 5.51329 0 6.25001L0 18.75C0 19.4867 0.292658 20.1933 0.813592 20.7142C1.33453 21.2351 2.04107 21.5278 2.77778 21.5278H22.2222C22.9589 21.5278 23.6655 21.2351 24.1864 20.7142C24.7073 20.1933 25 19.4867 25 18.75V6.25001C25 5.51329 24.7073 4.80676 24.1864 4.28582C23.6655 3.76489 22.9589 3.47223 22.2222 3.47223Z" fill="#CE1126"/>
<path d="M2.43066 5.90277H22.5696V19.0972H2.43066V5.90277Z" fill="#007A5E"/>
<path d="M2.43066 5.90277H22.5696L2.43066 19.0972H22.5696L2.43066 5.90277Z" fill="#FCD116"/>
<path d="M12.4999 14.9306C13.8423 14.9306 14.9304 13.8424 14.9304 12.5C14.9304 11.1577 13.8423 10.0695 12.4999 10.0695C11.1575 10.0695 10.0693 11.1577 10.0693 12.5C10.0693 13.8424 11.1575 14.9306 12.4999 14.9306Z" fill="#CE1126"/>
<path d="M12.5 10.2764L12.9993 11.8132H14.6146L13.3077 12.7625L13.807 14.2986L12.5 13.3493L11.1931 14.2986L11.6924 12.7625L10.3854 11.8132H12.0007L12.5 10.2764ZM12.5 3.5986L12.7681 4.4236H13.6354L12.9341 4.93332L13.2021 5.75832L12.5 5.2486L11.7979 5.75832L12.066 4.93332L11.3646 4.4236H12.232L12.5 3.5986ZM18.0695 3.5986L18.3375 4.4236H19.2049L18.5035 4.93332L18.7716 5.75832L18.0695 5.2486L17.3681 5.75832L17.6361 4.93332L16.9341 4.4236H17.8014L18.0695 3.5986ZM6.93058 3.5986L7.19864 4.4236H8.066L7.36392 4.93332L7.63197 5.75832L6.93058 5.2486L6.2285 5.75832L6.49655 4.93332L5.79517 4.4236H6.66253L6.93058 3.5986ZM12.5 19.2236L12.7681 20.0486H13.6354L12.9341 20.5583L13.2021 21.3833L12.5 20.8736L11.7979 21.3833L12.066 20.5583L11.3646 20.0486H12.232L12.5 19.2236ZM18.0695 19.2236L18.3375 20.0486H19.2049L18.5035 20.5583L18.7716 21.3833L18.0695 20.8736L17.3681 21.3833L17.6361 20.5583L16.9341 20.0486H17.8014L18.0695 19.2236ZM6.93058 19.2236L7.19864 20.0486H8.066L7.36392 20.5583L7.63197 21.3833L6.93058 20.8736L6.2285 21.3833L6.49655 20.5583L5.79517 20.0486H6.66253L6.93058 19.2236Z" fill="#FCD116"/>
<path d="M4.24857 13.241C4.45968 13.4597 4.69649 13.6431 4.91662 13.7354C4.91453 13.4658 4.87622 13.1976 4.80274 12.9382C4.61662 12.7639 4.40551 12.616 4.19996 12.5375C4.1701 12.7583 4.19162 13.0049 4.24857 13.241Z" fill="#CE1126"/>
<path d="M5.30767 13.5854C5.8653 11.5604 3.87711 11.684 3.36114 11.0368C3.71669 11.7785 2.43822 13.5486 4.56878 13.9632C4.41707 13.7451 4.30863 13.4999 4.24933 13.241C4.19057 13.0114 4.1741 12.773 4.20072 12.5375C4.40697 12.616 4.61739 12.7639 4.8035 12.9382C5.02086 13.1417 5.20489 13.3806 5.30767 13.5854Z" fill="#FCD116"/>
</g>
<defs>
<clipPath id="clip0_75_7722">
<rect width="25" height="25" fill="white"/>
</clipPath>
</defs>
</svg>
