<svg width="181" height="122" viewBox="0 0 181 122" fill="none" xmlns="http://www.w3.org/2000/svg">
<g clip-path="url(#clip0_478_2990)">
<path fill-rule="evenodd" clip-rule="evenodd" d="M13.2434 119.891C13.2434 119.891 10.3187 110.558 4.44025 102.014C-1.4382 93.4692 -0.580671 87.6502 4.44025 86.1513C9.46118 84.6523 17.6203 89.0772 20.1448 95.1226C21.7772 99.0317 24.5508 111.395 17.7087 119.891C15.754 119.836 13.2434 119.891 13.2434 119.891Z" fill="#017C7F"/>
<path fill-rule="evenodd" clip-rule="evenodd" d="M12.01 87.4886C8.41134 70.774 14.6409 68.4806 21.5655 70.5045C28.4901 72.5283 33.1585 81.3352 32.1023 89.7487C30.4902 102.59 21.0372 119.891 21.0372 119.891H15.6087C15.6087 109.432 14.4091 98.6316 12.01 87.4886Z" fill="#009BA0"/>
<path d="M19.7065 75.9883C19.8006 75.9449 19.9108 75.9846 19.958 76.077L19.9643 76.0904L19.9939 76.16L20.0309 76.2496C20.0452 76.285 20.0605 76.323 20.0766 76.3638L20.1014 76.4269C20.21 76.7048 20.3308 77.0359 20.4608 77.4194C20.8314 78.513 21.2017 79.8088 21.5471 81.3014C22.3641 84.8313 22.9145 88.894 23.0762 93.4633C23.2211 97.5586 22.9519 101.493 22.2622 105.866L22.2374 106.022C21.638 109.778 20.7889 113.647 19.2463 119.911C19.2202 120.017 19.1148 120.081 19.0109 120.054C18.907 120.028 18.844 119.92 18.8702 119.814L19.0069 119.258C20.4609 113.329 21.2753 109.588 21.8546 105.959C22.5587 101.547 22.8343 97.5944 22.6886 93.4776C22.5279 88.9347 21.9809 84.8978 21.1697 81.3926L21.1249 81.2007C20.7954 79.802 20.4447 78.5832 20.0943 77.5491L20.0542 77.4315C19.9414 77.1035 19.8364 76.8174 19.7412 76.5738L19.7056 76.4834C19.6942 76.4548 19.6832 76.4276 19.6728 76.402L19.6373 76.3159L19.6094 76.2504C19.5654 76.1506 19.6089 76.0333 19.7065 75.9883Z" fill="#090E2B"/>
<path fill-rule="evenodd" clip-rule="evenodd" d="M38.4335 88.5521C48.8309 88.011 49.4918 96.8308 48.143 100.462C46.5518 104.747 41.7776 107.603 37.9634 109.299C28.9904 113.29 26.706 119.891 26.706 119.891H18.8496C18.8496 119.891 20.3488 89.4934 38.4335 88.5521Z" fill="#FFB201"/>
<path d="M39.9824 95.3037C40.0816 95.2625 40.1947 95.3112 40.2351 95.4126C40.2755 95.514 40.2278 95.6296 40.1286 95.6708C31.051 99.4446 25.402 107.511 23.1777 119.897C23.1583 120.005 23.0573 120.076 22.9519 120.056C22.8466 120.036 22.7769 119.933 22.7962 119.825C25.043 107.315 30.7729 99.1324 39.9824 95.3037Z" fill="#090E2B"/>
<path d="M179.48 119.625C179.605 119.625 179.706 119.729 179.706 119.856C179.706 119.98 179.612 120.08 179.493 120.087L179.48 120.087H8.43523C8.31028 120.087 8.20898 119.984 8.20898 119.856C8.20898 119.733 8.30364 119.632 8.42282 119.625L8.43523 119.625H179.48Z" fill="#090E2B"/>
<path d="M129.996 63.6758H79.8979C77.613 63.6758 75.7607 65.5685 75.7607 67.9033V103.309C75.7607 105.644 77.613 107.536 79.8979 107.536H129.996C132.281 107.536 134.133 105.644 134.133 103.309V67.9033C134.133 65.5685 132.281 63.6758 129.996 63.6758Z" fill="#090E2B"/>
<path d="M127.087 61.4951H76.9887C74.7038 61.4951 72.8516 63.3878 72.8516 65.7226V101.128C72.8516 103.463 74.7038 105.356 76.9887 105.356H127.087C129.372 105.356 131.224 103.463 131.224 101.128V65.7226C131.224 63.3878 129.372 61.4951 127.087 61.4951Z" fill="white"/>
<path d="M127.087 61.2979H76.9893C74.5973 61.2979 72.6582 63.2793 72.6582 65.7235V101.129C72.6582 103.573 74.5973 105.555 76.9893 105.555H127.087C129.479 105.555 131.419 103.573 131.419 101.129V65.7235C131.419 63.2793 129.479 61.2979 127.087 61.2979ZM76.9893 61.6942H127.087C129.265 61.6942 131.031 63.4982 131.031 65.7235V101.129C131.031 103.354 129.265 105.158 127.087 105.158H76.9893C74.8115 105.158 73.0461 103.354 73.0461 101.129V65.7235C73.0461 63.4982 74.8115 61.6942 76.9893 61.6942Z" fill="#090E2B"/>
<path d="M116.205 74.2483C119.525 73.4152 122.605 77.2122 125.562 85.4694C125.635 85.675 125.532 85.9026 125.331 85.9778C125.129 86.053 124.907 85.9474 124.833 85.7418C122.004 77.8433 119.151 74.3252 116.39 75.0181C114.872 75.399 113.612 76.3789 112.446 77.9774L112.366 78.0886C111.541 79.2366 110.929 80.3813 109.747 82.8523L109.344 83.6953C108.14 86.2063 107.513 87.3568 106.615 88.5754C105.33 90.3185 103.901 91.3999 102.151 91.7969C100.902 92.0801 99.8845 91.5659 99.0256 90.3817L98.9997 90.3457C98.3754 89.4718 97.9273 88.4785 97.1382 86.4077L96.8937 85.7649C96.1405 83.7919 95.6985 82.8093 95.1107 81.9483C94.3689 80.8618 93.569 80.3518 92.5894 80.4123C88.9863 80.6349 85.1051 84.7847 81.0191 92.9126C80.9212 93.1073 80.6874 93.1841 80.4968 93.0841C80.3063 92.9841 80.2312 92.7452 80.3291 92.5505C84.5306 84.1929 88.5773 79.8661 92.5426 79.6211C93.8157 79.5424 94.8435 80.1888 95.7204 81.4562L95.7469 81.4948C96.3686 82.4055 96.8212 83.4015 97.5683 85.3511L97.9064 86.2387C98.6343 88.142 99.0585 89.0766 99.6089 89.854L99.6262 89.8783C100.324 90.855 101.058 91.2327 101.983 91.0231C103.532 90.6716 104.813 89.7024 105.995 88.0985L106.077 87.9869C106.904 86.8465 107.518 85.7048 108.689 83.2608L109.091 82.4192C110.294 79.9086 110.917 78.7539 111.796 77.5423L111.824 77.5036C113.09 75.7691 114.492 74.6781 116.205 74.2483Z" fill="#FFB201"/>
<path d="M123.174 75.0618C123.228 74.85 123.44 74.7232 123.648 74.7786C123.855 74.834 123.979 75.0506 123.925 75.2623C121.52 84.6573 118.429 89.0683 114.539 88.3078C112.854 87.9785 111.677 88.0394 110.803 88.4336C110.13 88.7372 109.659 89.1912 108.998 90.0904L108.922 90.1953L108.528 90.7448C108.358 90.9805 108.222 91.1644 108.083 91.3439C107.501 92.0927 106.927 92.6668 106.209 93.1628C105.34 93.7628 104.3 94.2088 103.02 94.4993C101.839 94.767 100.827 94.6305 99.8923 94.1331C99.1962 93.7628 98.6436 93.2845 97.7761 92.3788L97.3704 91.9515C96.4961 91.0303 95.9895 90.5689 95.3532 90.1795C94.5443 89.6844 93.6832 89.4573 92.6605 89.5204C88.9679 89.7486 85.0545 91.6117 80.9221 95.1249C80.7574 95.2649 80.5128 95.242 80.3758 95.0737C80.2388 94.9055 80.2613 94.6556 80.4259 94.5156C84.6758 90.9025 88.7378 88.9687 92.6136 88.7292C93.7961 88.6562 94.8117 88.9241 95.7518 89.4995L95.8151 89.5386C96.475 89.9517 97.0022 90.4298 97.8459 91.3142L98.2525 91.7426L98.3274 91.8211C99.142 92.6718 99.6464 93.1087 100.25 93.43C101.024 93.8414 101.85 93.9528 102.852 93.7255C104.039 93.456 104.989 93.0489 105.775 92.5061C106.42 92.0602 106.939 91.5411 107.475 90.8511L107.545 90.7599C107.639 90.637 107.735 90.5071 107.846 90.354L108.285 89.7412L108.313 89.7024C109.08 88.6459 109.644 88.09 110.49 87.7084C111.527 87.241 112.858 87.1722 114.684 87.5292C117.997 88.1768 120.865 84.0836 123.174 75.0618Z" fill="#009BA0"/>
<path d="M117.229 76.2262C118.14 76.2262 118.878 75.4721 118.878 74.5418C118.878 73.6116 118.14 72.8574 117.229 72.8574C116.319 72.8574 115.581 73.6116 115.581 74.5418C115.581 75.4721 116.319 76.2262 117.229 76.2262Z" fill="#FF0057"/>
<path d="M124.502 97.3633H78.6699V97.4954H124.502V97.3633Z" fill="#C7D2F2"/>
<path fill-rule="evenodd" clip-rule="evenodd" d="M137.259 54.5242H72.372C71.5468 54.5242 70.8779 53.8407 70.8779 52.9975V6.18409C70.8779 5.3409 71.5468 4.65723 72.372 4.65723H137.259C138.084 4.65723 138.753 5.3409 138.753 6.18409V52.9975C138.753 53.8407 138.084 54.5242 137.259 54.5242Z" fill="#090E2B"/>
<path fill-rule="evenodd" clip-rule="evenodd" d="M134.513 52.1795H69.6259C68.8007 52.1795 68.1318 51.496 68.1318 50.6528V3.83936C68.1318 2.99617 68.8007 2.3125 69.6259 2.3125H134.513C135.338 2.3125 136.007 2.99617 136.007 3.83936V50.6528C136.007 51.496 135.338 52.1795 134.513 52.1795Z" fill="white"/>
<path d="M134.512 2.11426H69.6255C68.6932 2.11426 67.9375 2.88662 67.9375 3.83928V50.6527C67.9375 51.6054 68.6932 52.3776 69.6255 52.3776H134.512C135.444 52.3776 136.2 51.6054 136.2 50.6527V3.83928C136.2 2.88662 135.444 2.11426 134.512 2.11426ZM69.6255 2.51059H134.512C135.23 2.51059 135.812 3.10549 135.812 3.83928V50.6527C135.812 51.3865 135.23 51.9812 134.512 51.9812H69.6255C68.9074 51.9812 68.3254 51.3865 68.3254 50.6527V3.83928C68.3254 3.10549 68.9074 2.51059 69.6255 2.51059Z" fill="#090E2B"/>
<path fill-rule="evenodd" clip-rule="evenodd" d="M107.833 26.6902H80.7225C78.3203 26.6902 76.373 24.7005 76.373 22.2458C76.373 19.7915 78.3203 17.8018 80.7225 17.8018H107.833C110.235 17.8018 112.183 19.7915 112.183 22.2458C112.183 24.7005 110.235 26.6902 107.833 26.6902Z" fill="#FFB201"/>
<path fill-rule="evenodd" clip-rule="evenodd" d="M123.167 26.5682C120.765 26.5682 118.817 24.5784 118.817 22.1237C118.817 19.6695 120.765 17.6797 123.167 17.6797C125.569 17.6797 127.516 19.6695 127.516 22.1237C127.516 24.5784 125.569 26.5682 123.167 26.5682Z" fill="#C7D2F2"/>
<path d="M131.894 5.74429C132.008 5.62821 132.192 5.62821 132.305 5.74429C132.415 5.85674 132.419 6.03688 132.316 6.15357L132.305 6.16466L129.59 8.93897C129.477 9.05505 129.293 9.05505 129.179 8.93897C129.069 8.82651 129.065 8.64637 129.169 8.52968L129.179 8.51859L131.894 5.74429Z" fill="black"/>
<path d="M129.179 5.74429C129.289 5.63183 129.465 5.62832 129.579 5.73375L129.59 5.74429L132.305 8.51859C132.419 8.63468 132.419 8.82288 132.305 8.93897C132.195 9.05142 132.019 9.05493 131.905 8.94951L131.894 8.93897L129.179 6.16466C129.065 6.04858 129.065 5.86037 129.179 5.74429Z" fill="black"/>
<path d="M114.949 32.334C115.591 32.334 116.112 32.8663 116.112 33.523C116.112 34.1723 115.603 34.7001 114.97 34.7118L114.949 34.712H77.5366C76.894 34.712 76.373 34.1796 76.373 33.523C76.373 32.8736 76.8825 32.3458 77.5152 32.3342L77.5366 32.334H114.949Z" fill="#C7D2F2"/>
<path d="M98.9044 39.4023C99.5471 39.4023 100.068 39.9347 100.068 40.5913C100.068 41.2407 99.5586 41.7685 98.9258 41.7801L98.9044 41.7803H77.5366C76.894 41.7803 76.373 41.248 76.373 40.5913C76.373 39.942 76.8825 39.4142 77.5152 39.4025L77.5366 39.4023H98.9044Z" fill="#C7D2F2"/>
<path fill-rule="evenodd" clip-rule="evenodd" d="M37.0882 105.689C36.5219 106.828 36.3271 115.604 36.3271 115.604L38.7788 115.927L41.9511 105.606C41.9511 105.606 37.6545 104.55 37.0882 105.689Z" fill="#FF8282"/>
<path fill-rule="evenodd" clip-rule="evenodd" d="M33.9222 118.547C33.9222 118.547 33.4669 119.929 34.0006 119.929C35.676 119.929 38.0227 119.941 39.4845 119.941C39.7091 119.941 39.9021 119.432 39.8428 119.032C39.7835 118.632 39.6723 118.378 39.6723 118.378L33.9222 118.547Z" fill="#FFB201"/>
<path fill-rule="evenodd" clip-rule="evenodd" d="M38.973 115.284C39.0351 115.333 38.8953 116.197 39.1284 116.792C39.3615 117.388 39.7591 118.296 39.6814 118.693C39.6037 119.09 38.4442 119.802 36.6173 118.851C35.9878 118.523 34.244 119.482 33.9332 119.045C33.6223 118.608 34.4659 117.626 35.2818 116.753C36.0977 115.879 36.292 115.076 36.3637 115.086C36.4353 115.096 36.3465 115.567 36.6885 115.392C37.0509 115.206 37.1663 115.02 37.4188 115.006C37.8842 114.978 38.2713 115.682 38.4733 115.801C38.5892 115.87 38.9107 115.234 38.973 115.284Z" fill="#090E2B"/>
<path fill-rule="evenodd" clip-rule="evenodd" d="M36.5243 116.173C36.64 116.084 36.7609 116.031 36.8936 115.996C37.0249 115.962 37.1631 115.952 37.2983 115.967C37.3323 115.969 37.3652 115.979 37.3986 115.984L37.4486 115.994L37.497 116.01C37.5291 116.02 37.5618 116.029 37.5932 116.041C37.624 116.055 37.6547 116.069 37.6851 116.083C37.7002 116.09 37.7157 116.097 37.7304 116.105L37.7733 116.131L37.8587 116.183C37.9125 116.222 37.9638 116.264 38.0149 116.306C38.0487 116.333 38.0542 116.384 38.0272 116.418C38.0025 116.45 37.9592 116.457 37.9262 116.437L37.9176 116.432C37.8659 116.401 37.8174 116.366 37.7661 116.336L37.6878 116.294L37.6489 116.273C37.6356 116.267 37.6219 116.262 37.6084 116.256C37.5023 116.206 37.3895 116.179 37.2765 116.163C37.1631 116.147 37.0481 116.157 36.9358 116.18C36.8251 116.202 36.7103 116.247 36.6188 116.302L36.6112 116.306C36.5737 116.329 36.5256 116.316 36.5038 116.277C36.4836 116.242 36.493 116.197 36.5243 116.173Z" fill="#FF0057"/>
<path fill-rule="evenodd" clip-rule="evenodd" d="M36.4823 116.711C36.5746 116.638 36.6691 116.596 36.7744 116.567C36.8781 116.538 36.988 116.53 37.0953 116.543C37.1223 116.544 37.1487 116.551 37.1753 116.555C37.2021 116.559 37.228 116.566 37.2533 116.575C37.2787 116.584 37.3046 116.591 37.3295 116.601L37.4023 116.634C37.4515 116.655 37.4933 116.688 37.5386 116.715C37.5808 116.746 37.6203 116.78 37.6595 116.814C37.692 116.842 37.6961 116.892 37.6686 116.925C37.6445 116.954 37.6042 116.961 37.5728 116.943L37.5639 116.938C37.5233 116.916 37.4853 116.89 37.4458 116.867C37.405 116.848 37.3668 116.823 37.3248 116.809C37.2444 116.77 37.1585 116.752 37.0737 116.738C36.988 116.725 36.9013 116.733 36.8159 116.748C36.7323 116.764 36.6436 116.798 36.5751 116.837L36.5668 116.842C36.5295 116.863 36.4826 116.849 36.4619 116.811C36.4431 116.777 36.4524 116.734 36.4823 116.711Z" fill="#FF0057"/>
<path fill-rule="evenodd" clip-rule="evenodd" d="M49.3001 105.864C49.0454 106.472 49.9985 115.204 49.9985 115.204L49.6391 116.072C49.6391 116.072 50.3042 117.269 50.8251 117.844C51.346 118.419 54.3087 116.949 53.8084 116.627C53.6544 116.528 53.1636 115.392 53.1707 115.078C53.2444 111.826 54.0404 105.574 54.0404 105.574C54.0404 105.574 49.5548 105.257 49.3001 105.864Z" fill="#FF8282"/>
<path fill-rule="evenodd" clip-rule="evenodd" d="M60.2711 119.89H49.6493C49.551 119.557 49.4651 119.207 49.4803 118.931L60.1273 119.177C60.1909 119.384 60.2395 119.629 60.2711 119.89Z" fill="#FFB201"/>
<path fill-rule="evenodd" clip-rule="evenodd" d="M49.8303 115.531C49.8303 115.531 50.5729 116.053 50.7971 116.562C51.3204 116.69 53.2788 116.727 53.1598 116.57C52.7797 116.067 53.279 115.575 53.578 115.575C53.877 115.575 55.9635 117.081 56.2376 117.081C56.5117 117.081 59.3091 118.223 59.658 118.453C60.0069 118.682 60.1466 119.243 60.1466 119.243H49.4794C49.4794 119.243 49.1076 116.368 49.8303 115.531Z" fill="#090E2B"/>
<path fill-rule="evenodd" clip-rule="evenodd" d="M54.649 116.582C54.6647 116.523 54.6876 116.477 54.7213 116.429C54.7543 116.382 54.7995 116.339 54.8569 116.311C54.9133 116.281 54.9827 116.271 55.0426 116.282C55.074 116.285 55.1006 116.297 55.128 116.307C55.1538 116.319 55.1769 116.334 55.1996 116.35C55.2353 116.374 55.2451 116.423 55.2215 116.459C55.2036 116.487 55.1716 116.499 55.1417 116.493L55.1281 116.49C55.0891 116.482 55.0538 116.472 55.023 116.473C54.9917 116.471 54.966 116.477 54.9398 116.489C54.9138 116.501 54.8877 116.521 54.8622 116.547C54.8381 116.572 54.8128 116.608 54.7946 116.636L54.7879 116.646C54.7645 116.683 54.7165 116.693 54.681 116.669C54.6525 116.65 54.6406 116.614 54.649 116.582Z" fill="#FF0057"/>
<path fill-rule="evenodd" clip-rule="evenodd" d="M55.2047 116.941C55.2204 116.881 55.2432 116.835 55.2769 116.788C55.3099 116.741 55.3552 116.698 55.4125 116.669C55.4689 116.64 55.5382 116.629 55.5982 116.64C55.6296 116.643 55.6562 116.655 55.6836 116.665C55.7095 116.678 55.7325 116.693 55.7553 116.708C55.7909 116.732 55.8006 116.781 55.7771 116.817C55.7593 116.845 55.7272 116.857 55.6973 116.851L55.6837 116.848C55.6447 116.84 55.6094 116.831 55.5786 116.832C55.5473 116.83 55.5216 116.836 55.4954 116.847C55.4694 116.86 55.4433 116.879 55.4179 116.905C55.3938 116.931 55.3685 116.966 55.3502 116.995L55.3436 117.005C55.3201 117.041 55.2722 117.051 55.2366 117.027C55.2081 117.008 55.1963 116.973 55.2047 116.941Z" fill="#FF0057"/>
<path fill-rule="evenodd" clip-rule="evenodd" d="M56.5327 62.3652H48.6465C48.6465 62.3652 47.431 62.3652 45.0001 62.3652C43.3842 64.1487 40.727 69.9879 40.6682 76.0155C40.6376 79.1535 41.0221 82.8828 39.8953 88.459C39.3176 91.318 35.8723 95.1799 34.8359 106.293C36.4647 107.657 43.3493 107.685 43.9998 106.854C45.0063 99.5783 46.9291 91.7179 48.9351 83.6722C49.0918 87.5546 48.7113 89.5533 48.3105 91.8531C47.0883 98.8663 46.4436 102.606 46.3677 107.001C47.8975 108.452 51.9947 107.815 54.7179 106.546C54.7179 106.546 55.4761 98.8799 55.742 94.9328C56.0833 89.8671 58.1292 80.0777 57.9948 73.5979C57.8717 67.6585 56.5327 62.3652 56.5327 62.3652Z" fill="#FFB201"/>
<path fill-rule="evenodd" clip-rule="evenodd" d="M52.6624 71.4805C52.435 71.5516 52.1331 71.6417 52.0462 71.8763C52.0162 71.9549 51.9672 72.1253 51.9419 72.2086C50.9503 75.8514 49.9517 79.9631 48.971 83.6053C48.9608 83.6491 48.9231 83.7026 48.9349 83.6559C49.1656 82.5916 49.3872 81.5191 49.6396 80.4602C50.3053 77.7236 50.9735 74.8581 51.7411 72.1471C51.8073 71.947 51.8513 71.6785 52.0388 71.5584C52.0937 71.4603 52.8032 71.3171 52.6624 71.4805Z" fill="#090E2B"/>
<path fill-rule="evenodd" clip-rule="evenodd" d="M54.042 40.4941C54.9404 41.0174 56.3113 42.1046 57.1266 44.6458C57.812 46.7814 59.3796 49.8649 59.4303 50.1749C60.2403 50.4848 63.4798 52.1363 63.4798 52.1363C63.4798 52.1363 61.2473 55.8189 61.0633 55.8189C60.8794 55.8189 59.7904 55.7616 58.7358 55.6768C55.2927 55.4 55.116 52.989 54.9452 52.0056C54.3926 48.8229 54.2999 40.8362 54.042 40.4941Z" fill="#FF0057"/>
<path fill-rule="evenodd" clip-rule="evenodd" d="M48.7198 35.5391C48.7198 35.5391 49.4664 39.3243 48.9644 39.7175C48.7138 39.9137 47.6416 40.2029 47.6416 40.2029C47.6416 40.2029 50.2819 42.3513 51.896 42.4066C53.51 42.4619 54.5885 41.4582 54.4098 41.0943C54.1423 40.5498 52.2515 40.0637 52.1809 39.5791C52.1004 39.0264 52.1356 36.6074 52.1356 36.6074L48.7198 35.5391Z" fill="#FF8282"/>
<path fill-rule="evenodd" clip-rule="evenodd" d="M48.3525 40.4325C48.3525 40.4325 51.2706 42.3581 52.1657 42.1251C52.7784 41.9656 52.7045 40.6664 52.773 40.0967C53.3371 40.1527 54.4835 40.7479 54.8891 41.6109C55.4272 42.7558 55.4846 45.2882 55.8691 47.3238C56.7282 51.8713 55.8216 61.5647 55.8216 61.5647C55.8216 61.5647 51.0086 63.9056 49.7208 62.7755C49.0587 62.1946 50.7407 59.1229 50.8727 54.1805C51.0047 49.238 51.167 47.6854 50.6713 46.0323C50.1757 44.3791 48.3525 40.4325 48.3525 40.4325Z" fill="white"/>
<path fill-rule="evenodd" clip-rule="evenodd" d="M47.7233 40.0967C46.6844 40.3119 43.8228 41.0627 43.7356 41.8586C43.6593 42.5558 42.9131 51.2282 43.9208 52.5275C45.1276 54.0834 43.2265 58.8403 42.4585 60.1093C41.1226 62.3168 38.8643 64.1397 41.4739 64.0918C44.1922 64.0421 51.2452 67.8354 51.2452 62.7065C51.2452 57.1447 51.967 51.7606 51.9728 49.6426C51.9921 42.4073 48.8104 40.6016 47.7233 40.0967Z" fill="#FF0057"/>
<path fill-rule="evenodd" clip-rule="evenodd" d="M54.1435 40.5608C54.9813 41.0901 57.1881 44.5181 56.7602 47.7512C56.4915 49.7825 56.253 56.4704 56.8055 58.7439C57.3582 61.0173 58.3195 62.9201 58.3072 64.1729C58.3016 64.7437 56.1166 65.031 55.4788 64.7704C53.9654 64.1519 54.1071 62.6913 54.3243 59.7772C54.8359 52.9156 54.8211 41.2165 52.748 40.0967C53.246 40.1157 53.9117 40.4144 54.1435 40.5608Z" fill="#FF0057"/>
<path fill-rule="evenodd" clip-rule="evenodd" d="M55.3795 43.3029C56.0046 44.5323 56.6768 45.8279 56.7383 47.2238C56.8159 48.985 56.6187 50.9974 56.5585 52.7625C56.5407 53.2235 56.5241 53.6847 56.5232 54.1456C56.524 54.1724 56.479 54.1747 56.4793 54.146C56.4362 51.9988 56.6985 49.3799 56.6029 47.2298C56.5417 45.8555 55.8794 44.5249 55.3353 43.2732C55.3259 43.2555 55.3698 43.2836 55.3795 43.3029Z" fill="#090E2B"/>
<path fill-rule="evenodd" clip-rule="evenodd" d="M61.4349 53.167L53.7015 53.8361C53.5696 53.8472 53.155 54.0242 53.1407 54.1586C53.1407 54.1586 53.0795 54.5051 53.4365 54.5051H61.4349V53.167Z" fill="white"/>
<path fill-rule="evenodd" clip-rule="evenodd" d="M71.9759 54.506H59.8682L63.2088 45.4395C63.4116 44.9277 63.841 44.416 64.5185 44.416L74.6411 44.4238C75.7291 44.4158 75.8657 44.8283 75.6317 45.4784C74.9578 47.3504 73.2245 52.592 72.6287 54.0607C72.5192 54.3304 72.2617 54.506 71.9759 54.506Z" fill="white"/>
<path fill-rule="evenodd" clip-rule="evenodd" d="M74.5877 44.3554C71.7927 44.3486 67.9147 44.3428 65.1127 44.3356C64.1361 44.2735 63.53 44.4425 63.1254 45.4283C62.2229 47.8854 61.1787 50.7539 60.3036 53.2305L54.0957 53.803C54.6851 53.7547 60.3374 53.3385 60.3539 53.2854C61.348 50.7527 62.3927 47.7807 63.3854 45.256C63.7917 44.4906 64.3531 44.4664 65.1127 44.4976L67.2183 44.4965C68.5958 44.5034 72.2053 44.4831 73.5353 44.493C74.0137 44.5498 75.5212 44.2786 75.6524 44.9047C75.6767 45.4997 75.32 46.0937 75.1501 46.6631C74.9966 47.1776 74.4567 48.6949 74.4567 48.6949C73.9045 50.2864 73.2838 52.1996 72.6966 53.762C72.4757 54.4757 72.1827 54.4827 71.5259 54.4657C71.1937 54.4683 70.3286 54.5054 69.9869 54.5084C69.9458 54.509 69.9046 54.5377 69.9467 54.5389C70.5514 54.5309 71.4608 54.5639 72.0566 54.544C72.4551 54.5211 72.675 54.1451 72.782 53.7963C73.4167 52.1236 73.9875 50.4268 74.5704 48.7354C74.7962 48.0362 75.3693 46.3526 75.6238 45.6938C76.0316 44.6382 75.5516 44.3233 74.5877 44.3554Z" fill="#090E2B"/>
<path fill-rule="evenodd" clip-rule="evenodd" d="M52.2841 53.9336C52.2601 53.9356 52.2458 53.9368 52.2451 53.9371L52.2841 53.9336Z" fill="black"/>
<path fill-rule="evenodd" clip-rule="evenodd" d="M66 54.4823H68.1554C68.9197 54.4967 68.5198 52.8992 69.3549 53.0546C70.0679 53.1872 70.0357 53.6145 69.9617 54.476C70.1061 54.2915 70.3804 54.2308 70.4743 54.2935C70.6086 54.3831 70.4583 54.4097 70.2316 54.781C69.9694 55.2102 69.2243 55.6116 68.3362 55.6879C68.0689 55.7108 66.5332 55.9504 66.5332 55.9504L66 54.4823Z" fill="#FF8282"/>
<path fill-rule="evenodd" clip-rule="evenodd" d="M53.4261 53.6902C53.4261 53.6902 54.0251 53.2541 54.5389 53.3158C55.2243 53.3978 55.2789 53.082 55.4542 53.3573C55.4928 53.4178 55.3718 53.6118 55.0544 53.684C54.6259 53.7812 54.8054 54.0513 54.8054 54.0513C54.8054 54.0513 56.2937 54.414 56.503 54.4522C56.6185 54.4733 56.6497 54.8094 55.7758 55.0744C55.32 55.2127 54.6687 55.2163 53.9008 55.2427C53.6873 55.2501 51.2311 56.0165 51.2311 56.0165L51.0797 54.7659L51.0029 53.4664L53.4261 53.6902Z" fill="#FF8282"/>
<path fill-rule="evenodd" clip-rule="evenodd" d="M61.0879 55.8198C61.0879 55.8198 67.2554 56.0745 67.6396 56.004C68.0237 55.9335 67.2453 54.4971 67.2453 54.4971H61.6726L61.0879 55.8198Z" fill="#FF0057"/>
<path fill-rule="evenodd" clip-rule="evenodd" d="M68.2719 49.6105H68.271C67.9953 49.6105 67.8743 49.4921 67.8266 49.4215C67.7912 49.3689 67.8041 49.2969 67.8556 49.2607C67.907 49.2245 67.9775 49.2378 68.0129 49.2902C68.0511 49.3469 68.1452 49.3793 68.271 49.3793H68.2719C68.4652 49.3793 68.6 49.3049 68.6633 49.2606C68.7149 49.2243 68.7852 49.2379 68.8205 49.2904C68.8559 49.3431 68.8428 49.415 68.7913 49.4512C68.6449 49.5539 68.4604 49.6105 68.2719 49.6105Z" fill="#090E2B"/>
<path fill-rule="evenodd" clip-rule="evenodd" d="M67.4934 49.7937C67.3399 50.203 66.8925 50.5348 66.4942 50.5348C66.0959 50.5348 65.8974 50.203 66.0509 49.7937C66.2044 49.3845 66.6517 49.0527 67.0501 49.0527C67.4485 49.0527 67.6469 49.3845 67.4934 49.7937Z" fill="#FF00A4"/>
<path fill-rule="evenodd" clip-rule="evenodd" d="M70.3284 49.7937C70.1749 50.203 69.7275 50.5348 69.3292 50.5348C68.9308 50.5348 68.7324 50.203 68.8859 49.7937C69.0394 49.3845 69.4867 49.0527 69.8851 49.0527C70.2835 49.0527 70.4819 49.3845 70.3284 49.7937Z" fill="#FF00A4"/>
<path fill-rule="evenodd" clip-rule="evenodd" d="M67.7399 48.8131C67.6995 48.9208 67.5818 49.0081 67.477 49.0081C67.3722 49.0081 67.3199 48.9208 67.3603 48.8131C67.4007 48.7054 67.5185 48.6182 67.6232 48.6182C67.728 48.6182 67.7803 48.7054 67.7399 48.8131Z" fill="#090E2B"/>
<path fill-rule="evenodd" clip-rule="evenodd" d="M69.7409 48.8131C69.7005 48.9208 69.5828 49.0081 69.478 49.0081C69.3731 49.0081 69.3209 48.9208 69.3613 48.8131C69.4017 48.7054 69.5194 48.6182 69.6242 48.6182C69.729 48.6182 69.7812 48.7054 69.7409 48.8131Z" fill="#090E2B"/>
<path fill-rule="evenodd" clip-rule="evenodd" d="M47.643 47.9691C47.0942 49.4475 44.046 52.7486 44.046 52.7486C44.046 52.7486 51.1767 53.5047 52.23 53.5046C52.2545 53.883 51.9443 56.7552 51.9443 56.7552C48.8411 57.2044 38.9895 58.5036 38.2093 55.8429C36.5839 50.2995 42.9619 42.7352 43.7808 41.7123C44.9279 40.2795 48.377 45.9919 47.643 47.9691Z" fill="#FF0057"/>
<path fill-rule="evenodd" clip-rule="evenodd" d="M52.213 53.4686C49.4751 53.3357 46.9805 52.8716 44.2362 52.6251C45.2029 51.5675 46.1423 50.4788 46.9487 49.2883C47.2252 48.8684 47.4762 48.4513 47.6408 47.9706C47.6458 47.9553 47.6852 47.8307 47.6702 47.8252C47.0295 49.1596 45.9769 50.4393 44.9806 51.5498C44.6461 51.9189 44.3051 52.2837 43.9576 52.6383C43.9001 52.6935 43.8211 52.7924 44.0202 52.8059C46.1243 52.9493 48.2313 53.2174 50.3309 53.4175C51.0345 53.4699 51.4033 53.5033 52.111 53.5059C52.2248 53.5064 52.256 53.4675 52.213 53.4686Z" fill="#090E2B"/>
<path fill-rule="evenodd" clip-rule="evenodd" d="M51.9737 56.7432C49.1873 57.1361 46.4709 57.5194 43.6558 57.4309C43.6063 57.4258 43.6527 57.4738 43.7069 57.4792C45.6429 57.6937 49.8487 57.2382 50.4812 57.1136C51.6605 56.8812 51.9231 56.8244 51.9737 56.7432Z" fill="#090E2B"/>
<path fill-rule="evenodd" clip-rule="evenodd" d="M54.7749 40.0689C55.885 39.9224 57.5123 37.217 57.146 33.899C56.7796 30.5811 57.5123 30.5811 56.7578 27.916C56.1314 25.7037 52.342 27.7523 50.8194 28.4466C49.0154 29.2691 47.4503 32.4889 47.5526 34.7292C47.5526 37.3634 51.2773 40.5304 54.7749 40.0689Z" fill="#FF8282"/>
<path fill-rule="evenodd" clip-rule="evenodd" d="M54.4018 24.7682C51.5978 23.4685 48.72 24.8471 48.72 24.8471C49.5545 20.5436 44.349 20.2891 43.0091 24.4642C42.0971 26.8551 44.2946 28.9593 45.4428 27.9168C44.4473 29.2066 44.6223 32.649 45.7282 34.6729C46.1839 35.507 46.9712 36.1178 47.6394 36.2448C48.8591 36.4767 47.6306 35.3001 47.5102 34.9396C47.5588 33.8971 48.769 32.0675 48.9948 34.3426C49.0889 34.9189 48.794 37.2124 48.8313 37.7525C48.8578 38.1358 48.8806 38.3427 49.1119 38.7824C49.3339 39.2044 49.1948 40.0674 49.2195 40.1613C49.2533 39.9268 49.3313 39.5024 49.2538 39.0122C49.2216 38.8082 49.1434 38.6011 49.0542 38.3784C48.8673 37.9116 49.2681 36.8446 49.4615 34.3696C49.5941 32.6741 48.7578 31.7862 49.7546 31.1455C51.79 29.8373 55.2128 31.3425 57.175 29.6705C58.0608 28.9158 57.219 26.0741 54.4018 24.7682Z" fill="#001386"/>
<path fill-rule="evenodd" clip-rule="evenodd" d="M48.8701 33.76C49.0425 34.4571 49.1095 35.0347 48.5083 35.3297C47.9071 35.6248 46.8548 35.1408 46.5501 34.4927C46.2454 33.8445 46.4067 32.8435 46.9982 32.5286C47.9201 32.0381 48.6478 32.8606 48.8701 33.76Z" fill="#FF8282"/>
<path fill-rule="evenodd" clip-rule="evenodd" d="M48.8062 24.0315C48.9158 24.1651 48.7833 24.4284 48.7136 24.2696C48.3712 23.9602 47.2906 24.5722 47.0147 24.8585C46.0575 25.7482 45.5422 26.6904 45.4431 27.9128C45.4438 27.907 45.453 27.8854 45.4569 27.8736C45.9546 26.403 47.0995 24.8997 48.7117 24.7582C48.7691 24.7534 48.7848 24.8433 48.7279 24.8575C47.1523 25.2652 46.1775 26.5715 45.4597 27.8844C45.4542 27.8943 45.4456 27.9151 45.4433 27.9144L45.4431 27.9134C45.443 27.914 45.443 27.9146 45.4429 27.9153C45.4426 27.9194 45.4415 27.9068 45.4413 27.9026C45.3609 26.451 46.2965 24.9992 47.4568 24.2648C47.8281 24.0297 48.4805 23.6345 48.8062 24.0315Z" fill="#FFB201"/>
<path fill-rule="evenodd" clip-rule="evenodd" d="M48.3779 34.2949C48.3442 34.0447 48.2877 33.8207 48.1286 33.631C47.8915 33.3609 47.5439 33.1914 47.1899 33.2104C47.1632 33.2118 47.104 33.2503 47.0999 33.2783C47.0948 33.3132 47.1551 33.3468 47.189 33.3488C47.5692 33.3992 47.9405 33.6162 48.1225 33.968C47.9074 33.887 47.4133 34.1428 47.4519 34.3151C47.4794 34.4383 47.8879 34.0435 48.2142 34.1659C48.2531 34.262 48.2926 34.418 48.3225 34.574C48.3279 34.6019 48.3454 34.6351 48.3697 34.6189C48.4094 34.5925 48.3906 34.3891 48.3779 34.2949Z" fill="#090E2B"/>
<path fill-rule="evenodd" clip-rule="evenodd" d="M50.4396 38.907C50.7784 39.0855 51.3507 39.3894 51.8461 39.6118C52.0059 39.6836 52.1695 39.7513 52.3356 39.8094C52.3516 39.8148 52.3324 39.8746 52.2173 39.8473C51.8749 39.7663 51.5404 39.6261 51.1954 39.4472C50.9073 39.2979 50.5334 39.0658 50.3753 38.9429C50.2478 38.8439 50.2837 38.8249 50.4396 38.907Z" fill="black"/>
<path fill-rule="evenodd" clip-rule="evenodd" d="M51.0208 32.8137C51.1001 32.2813 52.5957 31.9879 53.2865 32.3454C53.5253 32.4675 53.977 32.8175 53.6137 33.0524C53.5171 33.1038 53.4173 33.0656 53.3318 33.0178C52.3843 32.444 50.9655 33.1849 51.0208 32.8137Z" fill="#090E2B"/>
<path fill-rule="evenodd" clip-rule="evenodd" d="M52.3098 33.6785C51.9752 33.802 51.7014 34.1026 51.6898 34.3361C51.6828 34.4772 52.2443 34.7738 52.7657 34.762C53.4517 34.7465 53.7709 34.3442 53.7616 34.2237C53.6911 33.8622 53.2411 33.335 52.3098 33.6785Z" fill="white"/>
<path fill-rule="evenodd" clip-rule="evenodd" d="M53.3815 33.8077C52.8289 33.4418 52.0329 33.7643 51.6904 34.3341C51.6706 34.3638 51.6721 34.2926 51.685 34.2593C51.8416 33.8555 52.1591 33.6472 52.5361 33.539C52.763 33.4739 52.9773 33.4543 53.2087 33.5403C53.2981 33.5734 53.4595 33.6826 53.5871 33.81C53.6866 33.9093 53.7767 34.0855 53.6654 34.029C53.5784 33.9847 53.4548 33.8562 53.3815 33.8077Z" fill="#090E2B"/>
<path fill-rule="evenodd" clip-rule="evenodd" d="M52.7448 34.548C53.0371 34.5268 53.2592 34.2892 53.241 34.0175C53.2227 33.7458 52.9709 33.5427 52.6786 33.564C52.3864 33.5853 52.1642 33.8229 52.1825 34.0946C52.2008 34.3663 52.4525 34.5693 52.7448 34.548Z" fill="#090E2B"/>
<path fill-rule="evenodd" clip-rule="evenodd" d="M56.4633 32.4247C56.6801 32.523 56.9687 32.8492 56.7284 32.8492C56.4882 32.8492 55.9677 32.7795 55.6189 32.9266C55.497 32.9585 55.4045 33.0194 55.2822 33.0342C55.0037 33.0897 54.8524 32.7488 55.0493 32.5428C55.2717 32.31 56.0227 32.1997 56.4633 32.4247Z" fill="#090E2B"/>
<path fill-rule="evenodd" clip-rule="evenodd" d="M56.2181 34.5622C56.5653 34.4797 56.8249 34.158 56.7956 33.9176C56.7383 33.5991 56.1381 33.3957 55.8019 33.5697C55.4689 33.7419 55.2606 34.1266 55.2875 34.2786C55.3263 34.3837 55.8633 34.6466 56.2181 34.5622Z" fill="white"/>
<path fill-rule="evenodd" clip-rule="evenodd" d="M55.9298 34.3896C56.1585 34.3896 56.3439 34.2077 56.3439 33.9833C56.3439 33.7589 56.2133 33.5469 55.9298 33.5771C55.7023 33.6013 55.5156 33.7589 55.5156 33.9833C55.5156 34.2077 55.7011 34.3896 55.9298 34.3896Z" fill="#090E2B"/>
<path fill-rule="evenodd" clip-rule="evenodd" d="M55.2998 34.0618C55.4309 33.5615 56.0231 33.3043 56.4915 33.5411C56.5574 33.5763 56.6644 33.6551 56.7446 33.7504C56.8183 33.8382 56.8087 33.8843 56.7786 33.8752C56.7287 33.86 56.6231 33.7632 56.5373 33.7216C56.1036 33.5113 55.6523 33.6293 55.3219 34.1227C55.3057 34.1482 55.2903 34.0907 55.2998 34.0618Z" fill="#090E2B"/>
<path fill-rule="evenodd" clip-rule="evenodd" d="M55.2696 36.0236C55.2065 36.3485 54.8158 36.3801 54.5614 36.3065C54.3545 36.2466 54.3009 36.1235 54.3709 36.084C54.4848 36.0197 54.8501 36.1987 54.985 36.0278C55.2254 35.7232 54.4876 34.6032 54.722 34.7831C55.0318 35.021 55.3116 35.8068 55.2696 36.0236Z" fill="#090E2B"/>
<path fill-rule="evenodd" clip-rule="evenodd" d="M55.0239 37.5003C54.8018 37.6137 54.4859 37.7307 54.122 37.6775C53.7582 37.6244 53.5621 37.4068 53.4825 37.2472C53.3461 36.9742 53.5048 36.7691 53.7127 36.8374C53.9206 36.9058 54.0398 37.1998 54.2439 37.2509C54.4945 37.3136 54.9084 37.1173 55.1448 37.054C55.3927 36.9876 55.8039 36.9629 55.8039 37.3875C55.8039 37.6251 55.6657 37.5769 55.555 37.4357C55.4444 37.2945 55.2459 37.3868 55.0239 37.5003Z" fill="#090E2B"/>
<path fill-rule="evenodd" clip-rule="evenodd" d="M54.9114 37.9619C54.6256 37.9198 54.3552 37.9566 54.3708 38.1512C54.3862 38.3459 54.8777 38.5122 55.0967 38.2144C55.1431 38.1513 55.1971 38.0039 54.9114 37.9619Z" fill="#090E2B"/>
<path fill-rule="evenodd" clip-rule="evenodd" d="M54.1696 33.7247C54.1696 34.728 53.3737 35.5412 52.392 35.5412C51.4102 35.5412 50.6143 34.728 50.6143 33.7247C50.6143 32.7215 51.4102 31.9082 52.392 31.9082C53.3737 31.9082 54.1696 32.7215 54.1696 33.7247Z" fill="#090E2B"/>
<path fill-rule="evenodd" clip-rule="evenodd" d="M57.789 33.3611C57.789 34.2001 57.1234 34.8803 56.3022 34.8803C55.4811 34.8803 54.8154 34.2001 54.8154 33.3611C54.8154 32.522 55.4811 31.8418 56.3022 31.8418C57.1234 31.8418 57.789 32.522 57.789 33.3611Z" fill="#090E2B"/>
<path fill-rule="evenodd" clip-rule="evenodd" d="M54.123 32.7942C54.4154 32.7087 54.7239 32.6744 55.0275 32.7213C55.0982 32.7323 55.1474 32.8041 55.1375 32.8819C55.1275 32.9596 55.0621 33.0137 54.9914 33.0028C54.7263 32.9618 54.4511 32.9924 54.1895 33.0689C54.1371 33.0842 54.0889 33.1004 54.0454 33.1167L54.0095 33.1306L53.9765 33.1443L53.9617 33.1509C53.8962 33.182 53.8201 33.1488 53.7918 33.0767C53.7636 33.0046 53.7938 32.921 53.8594 32.8899L53.8697 32.8852L53.8928 32.8749L53.9195 32.8638L53.9495 32.8521C53.9547 32.8501 53.9601 32.848 53.9657 32.846L54.0005 32.8335C54.0065 32.8313 54.0127 32.8292 54.019 32.827L54.0584 32.814L54.1008 32.8008C54.1081 32.7986 54.1155 32.7964 54.123 32.7942Z" fill="#090E2B"/>
<path fill-rule="evenodd" clip-rule="evenodd" d="M48.5818 33.0967C49.1919 33.1112 50.5919 33.315 50.6719 33.3397C50.7238 33.3558 50.7546 33.417 50.7406 33.4765C50.7265 33.536 50.6731 33.5712 50.6211 33.5552C50.5322 33.5277 49.2539 33.3397 48.576 33.3198C48.522 33.3182 48.4799 33.2665 48.4815 33.2049C48.4831 33.1433 48.5276 33.0954 48.5818 33.0967Z" fill="#090E2B"/>
<path fill-rule="evenodd" clip-rule="evenodd" d="M51.1318 33.6379C51.1318 33.1148 51.7209 32.4379 52.0916 32.5068C52.1332 32.5146 52.0513 32.501 51.6926 32.9248C51.4335 33.2308 51.3585 33.7245 51.3073 33.7785C51.216 33.8748 51.1318 33.8091 51.1318 33.6379Z" fill="white"/>
<path fill-rule="evenodd" clip-rule="evenodd" d="M55.2063 33.2917C55.239 32.9011 55.4684 32.5492 55.6946 32.3429C55.8504 32.2008 56.0435 32.1453 56.0435 32.1857C56.0435 32.2075 55.9477 32.1663 55.6946 32.5058C55.4527 32.8304 55.3629 33.4781 55.3133 33.5319C55.2249 33.6278 55.1921 33.4609 55.2063 33.2917Z" fill="white"/>
<path fill-rule="evenodd" clip-rule="evenodd" d="M169.485 106.682C169.485 106.682 169.656 112.352 169.268 113.788C168.881 115.224 167.989 116.445 167.26 117.294C167.025 117.566 166.41 118.04 166.345 118.265C166.279 118.491 167.884 119.134 168.984 118.653C169.663 118.356 170.839 117.2 171.736 116.249C172.357 115.589 172.681 115.579 172.704 115.157C172.727 114.736 171.885 114.382 171.982 113.144C172.078 111.907 173.629 107.352 173.629 106.708C173.629 106.064 169.485 106.682 169.485 106.682Z" fill="#CA8F67"/>
<path fill-rule="evenodd" clip-rule="evenodd" d="M169.218 113.656C169.387 114.058 170.742 113.791 171.3 113.641C171.531 113.571 171.758 113.493 171.98 113.396C172.063 113.363 172.022 113.214 171.939 113.244C171.143 113.536 169.362 113.665 169.362 113.375C169.362 113.246 169.161 113.52 169.218 113.656Z" fill="#090E2B"/>
<path fill-rule="evenodd" clip-rule="evenodd" d="M166.747 117.785C166.747 117.785 166.41 118.491 167.558 118.459C168.618 118.43 169.997 117.578 170.662 116.946C172.172 115.509 172.561 115.222 172.636 114.909C172.985 115.072 173.761 116.629 172.261 119.818H171.144L170.928 118.161C170.928 118.161 169.244 119.818 168.513 119.818H165.401C165.05 119.818 164.864 119.301 165.529 118.621C165.791 118.353 166.177 118.102 166.747 117.785Z" fill="#090E2B"/>
<path fill-rule="evenodd" clip-rule="evenodd" d="M154.269 105.587C154.269 105.587 153.486 111.484 153.112 113.12C152.739 114.756 151.715 116.812 150.544 117.868C149.971 118.385 149.428 118.806 149.909 118.806C150.389 118.806 151.504 118.959 152.251 118.686C152.999 118.414 153.523 118.017 154.75 116.763C155.978 115.508 156.133 115.653 155.92 114.835C155.706 114.017 155.45 114.037 155.859 112.585C156.143 111.577 159.522 105.959 159.522 105.195C159.522 104.432 154.269 105.587 154.269 105.587Z" fill="#CA8F67"/>
<path fill-rule="evenodd" clip-rule="evenodd" d="M150.062 118.286C150.062 118.286 149.931 118.706 150.616 118.724C151.105 118.737 151.939 118.72 152.512 118.306C153.085 117.892 155.977 115.404 155.977 115.105C155.977 114.924 156.231 115.424 156.336 115.795C156.806 117.453 155.701 119.438 155.687 119.823H154.738C154.738 119.823 154.521 118.346 154.465 118.217C154.409 118.089 152.707 119.823 151.783 119.823H148.474C148.005 119.823 148.453 118.69 150.062 118.286Z" fill="#090E2B"/>
<path fill-rule="evenodd" clip-rule="evenodd" d="M153.012 113.193C153.47 113.885 154.5 113.616 155.125 113.483C155.276 113.452 155.94 113.214 155.751 113.048C155.736 113.036 155.664 113.123 155.562 113.143C154.572 113.333 153.267 113.27 153.173 112.867C153.149 112.764 152.94 113.039 153.012 113.193Z" fill="#090E2B"/>
<path fill-rule="evenodd" clip-rule="evenodd" d="M164.097 90.8376C164.011 93.5226 163.796 101.554 167.429 105.715C169.003 107.517 170.955 108.163 174.556 107.269C183.273 105.102 179.886 86.2287 179.576 84.8193C176.758 72.0029 174.142 66.9651 172.877 62.3545C168.983 62.3545 165.536 62.3545 165.536 62.3545C165.536 62.3545 164.397 81.4007 164.097 90.8376Z" fill="#FFB201"/>
<path fill-rule="evenodd" clip-rule="evenodd" d="M161.457 62.3545C161.457 62.3545 158.949 66.549 155.823 73.0904C154.274 76.3344 145.016 94.4567 152.944 105.095C154.029 106.551 158.65 106.074 158.65 106.074C158.65 106.074 162.482 106.396 165.596 98.686C168.71 90.9765 170.138 62.3545 170.138 62.3545H161.457Z" fill="#FFB201"/>
<path fill-rule="evenodd" clip-rule="evenodd" d="M162.961 85.9199C162.723 81.1181 162.889 76.393 163.254 71.6026C163.318 70.9655 163.417 70.0948 163.502 69.4595C163.51 69.4119 163.477 69.3766 163.421 69.5966C163.302 70.0611 163.192 70.9488 163.12 71.5881C162.254 79.8952 162.138 88.1293 163.915 96.3269C164.164 97.5703 164.421 98.8836 164.7 100.123C164.75 100.346 164.849 100.367 164.836 100.312C163.849 95.612 163.192 90.7233 162.961 85.9199Z" fill="#090E2B"/>
<path fill-rule="evenodd" clip-rule="evenodd" d="M150.887 29.1214C151.05 28.2916 151.354 27.4227 151.225 27.35C151.097 27.2772 150.657 27.3166 150.484 27.8646C149.833 26.0095 149.643 25.164 148.956 25.4408C148.511 25.6201 147.81 26.4498 147.774 26.8906C147.621 28.7673 148.984 29.2935 149.053 30.2241C149.14 31.3905 148.956 35.9368 148.956 35.9368C148.956 35.9368 153.638 37.4164 153.258 35.2797C152.091 32.7454 150.766 29.7344 150.887 29.1214Z" fill="#CA8F67"/>
<path fill-rule="evenodd" clip-rule="evenodd" d="M168.375 36.7891C168.375 36.7891 168.467 39.1008 168.519 39.87C168.563 40.5064 168.972 42.4391 168.972 42.4391C168.972 42.4391 167.671 43.9711 165.622 43.2828C164.406 42.8741 165.437 42.1168 165.426 41.3577C165.403 39.7823 165.381 37.9061 165.381 37.9061L168.375 36.7891Z" fill="#CA8F67"/>
<path fill-rule="evenodd" clip-rule="evenodd" d="M168.066 42.2715C168.066 42.2715 167.226 42.8486 166.47 43.0682C165.628 43.3128 165.145 42.5633 165.058 42.4345C164.865 43.3171 160.984 64.4461 161.524 65.3845C163.023 66.4584 169.488 68.0883 169.488 66.7139L168.066 42.2715Z" fill="white"/>
<path fill-rule="evenodd" clip-rule="evenodd" d="M168.827 40.4229C168.827 40.4229 166.443 42.7394 166.476 44.4163C166.508 46.0932 163.495 68.0092 166.702 68.7852C167.829 69.0577 172.988 70.0434 174.307 69.06C175.626 68.0766 174.612 61.1314 174.612 61.1314C174.612 61.1314 171.731 43.2704 168.827 40.4229Z" fill="#FF00A4"/>
<path fill-rule="evenodd" clip-rule="evenodd" d="M156.177 41.4227C154.876 39.8808 154.057 33.3994 152.233 33.6943C148.377 34.3179 147.38 36.8016 147.79 39.1105C148.285 41.9045 151.653 45.9161 153.157 46.8903C154.67 47.871 161.212 50.4865 162.013 49.7338C164.797 47.1173 165.425 41.8109 164.667 41.4227C161.834 41.2797 157.402 42.8739 156.177 41.4227Z" fill="#FF00A4"/>
<path fill-rule="evenodd" clip-rule="evenodd" d="M164.14 42.4439C163.783 42.8628 160.808 48.1487 160.721 50.1208C160.561 53.7359 159.792 62.0337 158.008 65.5946C157.621 66.367 158.538 66.9789 159.524 67.5393C162.691 69.3379 161.795 66.6331 162.374 61.7668C163.19 54.9215 164.976 44.8719 164.964 43.8886C164.951 42.9053 164.496 42.025 164.14 42.4439Z" fill="#FF00A4"/>
<path fill-rule="evenodd" clip-rule="evenodd" d="M168.972 67.8629L168.912 67.5641C168.89 67.4573 168.977 67.3603 169.083 67.3732L180.462 68.764C180.53 68.7723 180.585 68.8254 180.597 68.8947L182.027 77.1268C182.038 77.1909 182.003 77.2541 181.944 77.2772L181.08 77.6106L169.626 76.8573C169.566 76.8534 169.517 76.8092 169.505 76.7494L167.748 67.9917C167.719 67.8512 167.834 67.7237 167.973 67.7408L168.972 67.8629Z" fill="#0067D3"/>
<path fill-rule="evenodd" clip-rule="evenodd" d="M178.409 67.7061C178.409 67.7061 177.177 73.1977 177.308 74.2162C177.438 75.2348 177.932 77.4569 176.905 77.6109C175.086 77.8834 174.404 77.2378 174.404 77.2378C174.404 77.2378 174.351 77.4221 174.073 77.4495C173.751 77.4813 173.232 77.4465 173.656 77.0915C174.056 76.7556 174.18 75.4881 174.836 74.8235C175.54 74.1114 174.084 68.959 174.133 67.3468C174.182 65.7347 178.409 67.7061 178.409 67.7061Z" fill="#CA8F67"/>
<path fill-rule="evenodd" clip-rule="evenodd" d="M169.734 41.1494C169.734 41.1494 172.947 42.3411 174.498 44.592C175.696 46.3298 177.389 52.127 177.888 54.5216C179.005 59.882 183.865 64.8562 179.398 68.3037C178.125 69.2857 172.075 72.1173 171.916 62.8439C171.862 59.6678 171.064 53.0667 170.387 49.8748C170.022 48.1499 168.518 43.0783 168.518 43.0783L169.734 41.1494Z" fill="#FF00A4"/>
<path fill-rule="evenodd" clip-rule="evenodd" d="M168.577 40.2236C168.577 40.2236 166.976 41.3826 166.625 42.4062C166.322 43.2927 166.188 44.175 166.496 44.4511C169.244 44.2861 170.006 41.248 170.006 41.248L168.577 40.2236Z" fill="#FFB201"/>
<path fill-rule="evenodd" clip-rule="evenodd" d="M165.443 40.4893C165.443 40.4893 164.468 41.1483 164.264 41.6262C164.197 41.7846 164.434 43.9296 165.065 44.0533C165.455 44.1298 165.534 42.7034 165.545 42.1073C165.556 41.5112 165.443 40.4893 165.443 40.4893Z" fill="#FFB201"/>
<path fill-rule="evenodd" clip-rule="evenodd" d="M173.029 67.6912C172.322 66.52 172.139 65.2521 172.083 63.914C172.052 62.5779 172.028 61.125 171.95 59.799C171.791 57.0581 171.417 54.322 170.854 51.6386C170.599 50.3088 170.183 48.9732 170.092 47.6132C170.046 46.9257 170.2 46.2866 170.174 46.2385C170.141 46.1792 170.006 46.9788 170.006 47.6163C170.006 48.7585 170.341 49.8889 170.552 51.002C170.957 53.0125 171.256 55.0502 171.476 57.0881C171.719 59.3395 171.841 61.652 171.93 63.9201C172.013 65.2796 172.267 66.7175 173.102 67.8293C173.13 67.8656 173.059 67.7279 173.029 67.6912Z" fill="#090E2B"/>
<path fill-rule="evenodd" clip-rule="evenodd" d="M162.367 45.2224C161.468 46.5407 160.902 48.028 160.764 49.6413C160.76 49.6799 160.767 49.7657 160.776 49.7264C161.03 48.5547 161.408 47.3977 161.897 46.3088C162.058 45.9463 162.348 45.3555 162.42 45.2387C162.492 45.122 162.377 45.2092 162.367 45.2224Z" fill="#090E2B"/>
<path fill-rule="evenodd" clip-rule="evenodd" d="M170.523 76.4884H169.917L168.261 67.7717L168.941 67.7031L170.523 76.4884Z" fill="#E9EFFF"/>
<path fill-rule="evenodd" clip-rule="evenodd" d="M162.309 29.6319C162.309 29.6319 162.181 29.0146 161.239 29.0846C159.717 29.1978 159.442 30.7161 159.791 32.2038C160.037 33.2516 160.366 34.0773 160.262 34.6578C160.064 35.7698 159.502 35.822 159.068 37.0417C158.379 38.9785 160.113 39.1197 160.129 39.4673C160.21 41.1515 160.75 41.9263 161.699 42.2948C163.098 42.8381 164.567 42.1262 165.31 40.8015C165.931 39.6923 165.31 38.4755 165.31 38.4755L161.903 35.1214L162.309 29.6319Z" fill="#090E2B"/>
<path fill-rule="evenodd" clip-rule="evenodd" d="M162.526 28.9433C162.526 28.9433 161.529 29.4446 161.058 30.8489C160.793 31.6385 160.894 32.6082 160.747 33.9746C160.381 37.3669 161.36 40.0138 163.179 39.9504C165.339 39.875 167.209 38.5566 168.246 37.7901C169.283 37.0235 169.473 36.0661 169.483 34.5503C169.494 33.0344 169.44 29.7765 168.482 29.6806C167.525 29.5848 164.467 27.4394 162.526 28.9433Z" fill="#CA8F67"/>
<path fill-rule="evenodd" clip-rule="evenodd" d="M168.906 35.2494C168.904 35.7706 166.869 37.1519 167.951 39.0992C167.216 39.8799 167.423 42.9542 170.583 42.5174C171.969 44.4124 174.909 43.6363 174.569 41.6066C175.438 41.4341 175.863 39.9845 175.741 39.1652C175.427 37.0423 173.448 36.778 173.448 36.778C173.696 34.339 171.519 34.9175 171.822 33.2385C172.121 31.5784 171.794 29.2762 170.085 29.006C169.852 26.62 166.837 25.5444 164.719 26.6789C164.219 26.2111 160.806 25.6626 160.878 28.8585C160.902 29.9437 161.727 31.3971 162.928 31.6452C163.775 31.8204 165.278 31.5151 165.794 32.1614C166.499 33.0455 166.619 33.2626 167.689 33.8207C168.104 34.037 168.398 33.8207 168.398 33.8207C168.398 33.8207 168.909 33.9706 168.906 35.2494Z" fill="#090E2B"/>
<path fill-rule="evenodd" clip-rule="evenodd" d="M168.413 35.779C168.873 36.054 169.501 35.71 169.865 35.4592C170.655 34.9158 170.624 34.0351 169.99 33.56C169.527 33.213 168.881 33.2829 168.295 33.7888C167.79 34.2248 167.894 35.4683 168.413 35.779Z" fill="#CA8F67"/>
<path fill-rule="evenodd" clip-rule="evenodd" d="M169.62 34.0281C169.291 33.9666 168.923 34.0108 168.689 34.3634C168.583 34.5245 168.581 34.708 168.526 34.8926C168.52 34.9127 168.583 34.9605 168.673 34.7386C168.79 34.4501 169.001 34.2682 169.185 34.1892C169.424 34.0865 169.712 34.1559 169.755 34.1131C169.8 34.0685 169.657 34.0349 169.62 34.0281Z" fill="black"/>
<path fill-rule="evenodd" clip-rule="evenodd" d="M168.722 34.6499C168.888 34.5624 169.204 34.7188 169.217 34.6853C169.257 34.5816 168.831 34.4007 168.69 34.5173C168.588 34.6029 168.603 34.712 168.722 34.6499Z" fill="black"/>
<path fill-rule="evenodd" clip-rule="evenodd" d="M167.201 38.491C167.144 38.5164 166.84 38.6952 166.707 38.7679C166.461 38.9014 166.215 39.0332 165.965 39.1535C165.836 39.2159 165.527 39.3263 165.568 39.3634C165.648 39.4345 166.345 39.1687 166.785 38.8719C167.019 38.7141 167.298 38.4478 167.201 38.491Z" fill="#090E2B"/>
<path fill-rule="evenodd" clip-rule="evenodd" d="M166.695 32.8098C166.616 32.2774 165.12 31.984 164.429 32.3415C164.191 32.4635 163.739 32.8136 164.102 33.0485C164.199 33.0999 164.299 33.0617 164.384 33.0139C165.331 32.4401 166.75 33.1809 166.695 32.8098Z" fill="#090E2B"/>
<path fill-rule="evenodd" clip-rule="evenodd" d="M165.406 33.6736C165.741 33.7971 166.014 34.0978 166.026 34.3312C166.033 34.4723 165.472 34.7689 164.95 34.7571C164.264 34.7416 163.945 34.3393 163.954 34.2188C164.025 33.8574 164.475 33.3301 165.406 33.6736Z" fill="white"/>
<path fill-rule="evenodd" clip-rule="evenodd" d="M164.334 33.8038C164.887 33.4379 165.683 33.7604 166.025 34.3302C166.045 34.3599 166.044 34.2887 166.031 34.2554C165.874 33.8516 165.557 33.6433 165.18 33.5351C164.953 33.47 164.739 33.4504 164.507 33.5364C164.418 33.5695 164.256 33.6787 164.129 33.8061C164.029 33.9054 163.939 34.0815 164.05 34.025C164.137 33.9808 164.261 33.8523 164.334 33.8038Z" fill="#090E2B"/>
<path fill-rule="evenodd" clip-rule="evenodd" d="M164.971 34.5451C164.679 34.5238 164.457 34.2863 164.475 34.0145C164.493 33.7428 164.745 33.5398 165.037 33.5611C165.329 33.5823 165.552 33.8199 165.533 34.0916C165.515 34.3634 165.263 34.5664 164.971 34.5451Z" fill="#090E2B"/>
<path fill-rule="evenodd" clip-rule="evenodd" d="M161.252 32.4218C161.035 32.52 160.746 32.8462 160.986 32.8462C161.227 32.8462 161.747 32.7766 162.096 32.9237C162.218 32.9555 162.31 33.0165 162.433 33.0313C162.711 33.0867 162.862 32.7459 162.666 32.5399C162.443 32.3071 161.692 32.1967 161.252 32.4218Z" fill="#090E2B"/>
<path fill-rule="evenodd" clip-rule="evenodd" d="M161.498 34.5593C161.151 34.4768 160.891 34.1551 160.92 33.9147C160.977 33.5962 161.578 33.3928 161.914 33.5667C162.247 33.7389 162.455 34.1237 162.428 34.2756C162.389 34.3808 161.853 34.6436 161.498 34.5593Z" fill="white"/>
<path fill-rule="evenodd" clip-rule="evenodd" d="M161.785 34.3866C161.556 34.3866 161.371 34.2047 161.371 33.9804C161.371 33.756 161.502 33.544 161.785 33.5742C162.013 33.5983 162.199 33.756 162.199 33.9804C162.199 34.2047 162.014 34.3866 161.785 34.3866Z" fill="#090E2B"/>
<path fill-rule="evenodd" clip-rule="evenodd" d="M162.415 34.0589C162.284 33.5586 161.692 33.3013 161.223 33.5382C161.157 33.5733 161.05 33.6522 160.97 33.7475C160.896 33.8353 160.906 33.8814 160.936 33.8722C160.986 33.857 161.092 33.7603 161.177 33.7187C161.611 33.5084 162.063 33.6264 162.393 34.1197C162.409 34.1453 162.425 34.0878 162.415 34.0589Z" fill="#090E2B"/>
<path fill-rule="evenodd" clip-rule="evenodd" d="M162.446 36.0207C162.509 36.3456 162.9 36.3772 163.154 36.3036C163.361 36.2437 163.415 36.1206 163.345 36.0811C163.231 36.0168 162.866 36.1957 162.731 36.0249C162.49 35.7203 163.228 34.6002 162.994 34.7802C162.684 35.018 162.404 35.8038 162.446 36.0207Z" fill="#090E2B"/>
<path fill-rule="evenodd" clip-rule="evenodd" d="M162.691 37.4984C162.913 37.6118 163.229 37.7288 163.593 37.6756C163.957 37.6225 164.153 37.4048 164.232 37.2452C164.369 36.9723 164.21 36.7672 164.002 36.8355C163.794 36.9039 163.675 37.1979 163.471 37.2489C163.22 37.3116 162.806 37.1153 162.57 37.052C162.322 36.9856 161.911 36.9609 161.911 37.3855C161.911 37.6232 162.049 37.575 162.16 37.4337C162.27 37.2925 162.469 37.3849 162.691 37.4984Z" fill="#090E2B"/>
<path fill-rule="evenodd" clip-rule="evenodd" d="M162.803 37.9599C163.089 37.9178 163.36 37.9547 163.344 38.1493C163.329 38.3439 162.837 38.5102 162.618 38.2124C162.572 38.1493 162.518 38.002 162.803 37.9599Z" fill="#090E2B"/>
<path fill-rule="evenodd" clip-rule="evenodd" d="M163.542 33.7179C163.542 34.7212 164.338 35.5344 165.32 35.5344C166.302 35.5344 167.098 34.7212 167.098 33.7179C167.098 32.7146 166.302 31.9014 165.32 31.9014C164.338 31.9014 163.542 32.7146 163.542 33.7179Z" fill="#090E2B"/>
<path fill-rule="evenodd" clip-rule="evenodd" d="M159.922 33.3552C159.922 34.1943 160.588 34.8745 161.409 34.8745C162.23 34.8745 162.896 34.1943 162.896 33.3552C162.896 32.5161 162.23 31.8359 161.409 31.8359C160.588 31.8359 159.922 32.5161 159.922 33.3552Z" fill="#090E2B"/>
<path fill-rule="evenodd" clip-rule="evenodd" d="M163.589 32.7884C163.297 32.7029 162.988 32.6685 162.684 32.7155C162.614 32.7264 162.564 32.7983 162.574 32.876C162.584 32.9537 162.65 33.0079 162.72 32.9969C162.986 32.9559 163.261 32.9865 163.522 33.063C163.575 33.0784 163.623 33.0946 163.666 33.1108L163.702 33.1248L163.735 33.1384L163.75 33.1451C163.816 33.1761 163.892 33.1429 163.92 33.0708C163.948 32.9988 163.918 32.9151 163.853 32.8841L163.842 32.8793L163.819 32.869L163.792 32.858L163.762 32.8462C163.757 32.8442 163.752 32.8422 163.746 32.8401L163.711 32.8276C163.705 32.8255 163.699 32.8233 163.693 32.8212L163.653 32.8082L163.611 32.795C163.604 32.7928 163.596 32.7906 163.589 32.7884Z" fill="#090E2B"/>
<path fill-rule="evenodd" clip-rule="evenodd" d="M169.131 33.0908C168.521 33.1053 167.121 33.3092 167.041 33.3339C166.989 33.3499 166.958 33.4111 166.972 33.4706C166.986 33.5301 167.04 33.5654 167.092 33.5493C167.181 33.5219 168.459 33.3339 169.137 33.3139C169.191 33.3123 169.233 33.2607 169.231 33.1991C169.23 33.1375 169.185 33.0896 169.131 33.0908Z" fill="#090E2B"/>
<path fill-rule="evenodd" clip-rule="evenodd" d="M166.581 33.632C166.581 33.1089 165.992 32.432 165.621 32.501C165.58 32.5087 165.662 32.4951 166.02 32.9189C166.279 33.225 166.354 33.7186 166.406 33.7726C166.497 33.869 166.581 33.8032 166.581 33.632Z" fill="white"/>
<path fill-rule="evenodd" clip-rule="evenodd" d="M162.505 33.2859C162.472 32.8953 162.243 32.5433 162.016 32.337C161.86 32.195 161.667 32.1394 161.667 32.1798C161.667 32.2016 161.763 32.1604 162.016 32.4999C162.258 32.8245 162.348 33.4723 162.398 33.5261C162.486 33.6219 162.519 33.4551 162.505 33.2859Z" fill="white"/>
</g>
<defs>
<clipPath id="clip0_478_2990">
<rect width="181" height="121.541" fill="white"/>
</clipPath>
</defs>
</svg>
