<svg width="91" height="91" viewBox="0 0 91 91" fill="none" xmlns="http://www.w3.org/2000/svg">
<path d="M83.6682 79.0225C83.6682 79.4468 83.4997 79.8536 83.1997 80.1536C82.8997 80.4536 82.4928 80.6221 82.0686 80.6221H11.9844C11.7649 80.6385 11.5444 80.6095 11.3366 80.5367C11.1289 80.464 10.9384 80.3492 10.7771 80.1994C10.6158 80.0497 10.4871 79.8683 10.3991 79.6666C10.311 79.4648 10.2656 79.2471 10.2656 79.027C10.2656 78.8069 10.311 78.5891 10.3991 78.3874C10.4871 78.1857 10.6158 78.0042 10.7771 77.8545C10.9384 77.7048 11.1289 77.59 11.3366 77.5172C11.5444 77.4445 11.7649 77.4154 11.9844 77.4318H82.0739C82.4957 77.4332 82.8999 77.6011 83.1984 77.8991C83.497 78.197 83.6659 78.6008 83.6682 79.0225Z" fill="#BFBFBF"/>
<path d="M83.6705 79.0226H10.3906C10.3906 78.5983 10.5592 78.1915 10.8591 77.8915C11.1591 77.5915 11.566 77.423 11.9902 77.423H82.0762C82.4995 77.4244 82.905 77.5935 83.2039 77.8934C83.5027 78.1932 83.6705 78.5993 83.6705 79.0226Z" fill="#606060"/>
<path d="M38.2096 40.4239C38.158 38.3111 38.3368 36.199 38.7428 34.125C37.9182 34.1315 37.1285 34.4585 36.5407 35.0368C36.2515 35.326 36.0222 35.6693 35.8658 36.0472C35.7093 36.425 35.6288 36.83 35.6289 37.2389V40.4221L38.2096 40.4239Z" fill="#FAC1AC"/>
<path d="M33.0645 40.4239C33.116 38.3111 32.9372 36.199 32.5312 34.125C33.3557 34.1319 34.1453 34.4588 34.7334 35.0368C35.0225 35.326 35.2519 35.6693 35.4083 36.0472C35.5647 36.425 35.6452 36.83 35.6452 37.2389V40.4221L33.0645 40.4239Z" fill="#F69167"/>
<path d="M45.1966 59.8165C42.8469 61.8355 39.5411 62.9944 35.6327 62.9944C28.0417 62.9944 21.8867 57.9449 21.8867 51.7153C21.8867 45.4857 35.6327 38.9042 35.6327 38.9042C35.6327 38.9042 49.3787 45.4804 49.3787 51.7153C49.3787 54.2569 48.3531 56.6012 46.6256 58.487" fill="#FAC1AC"/>
<path d="M41.8087 59.1322C40.2909 61.0873 38.1545 62.2052 35.6289 62.2052C30.7234 62.2052 26.7422 57.3211 26.7422 51.2977C26.7422 45.2742 35.6289 38.9042 35.6289 38.9042C35.6289 38.9042 44.5156 45.2725 44.5156 51.2977C44.5346 53.6025 43.9198 55.8681 42.7383 57.8472" fill="#EB5D29"/>
<path d="M41.1363 59.8163C39.7837 61.8354 37.8802 62.9942 35.6265 62.9942C31.2596 62.9942 27.7227 57.9412 27.7227 51.7205C27.7227 45.4998 35.6372 38.9094 35.6372 38.9094C35.6372 38.9094 43.541 45.4874 43.541 51.7205C43.541 54.2621 42.9509 56.6064 41.9556 58.4922" fill="#FB9D6E"/>
<path d="M38.0293 59.8163C37.4374 61.8354 36.6074 62.9942 35.6228 62.9942C33.7175 62.9942 32.1641 57.9412 32.1641 51.7205C32.1641 45.4998 35.6228 38.9094 35.6228 38.9094C35.6228 38.9094 39.0957 45.4874 39.0957 51.7205C39.1152 53.9964 38.8827 56.2675 38.4025 58.4922" fill="#FCFCFC"/>
<path d="M37.3814 59.8165C36.9495 61.8355 36.3434 62.9944 35.6254 62.9944C34.232 62.9944 33.1016 57.9449 33.1016 51.7153C33.1016 45.4857 35.6254 38.9042 35.6254 38.9042C35.6254 38.9042 38.1474 45.4804 38.1474 51.7153C38.1629 53.9825 37.994 56.2472 37.6427 58.487" fill="#FAC1AC"/>
<path d="M85.0167 51.1305C83.9361 51.9121 82.6392 52.3382 81.3056 52.3498L58.1788 53.9672C56.5018 54.2001 54.7952 53.8624 53.3333 53.0083C51.8715 52.1542 50.7393 50.8333 50.1188 49.258C49.4983 47.6827 49.4256 45.9445 49.9123 44.3229C50.399 42.7012 51.4169 41.2904 52.8024 40.3171C52.4422 39.1474 52.4047 37.902 52.6938 36.7127C52.9829 35.5234 53.5879 34.4342 54.4449 33.5603C55.3019 32.6864 56.379 32.0602 57.5624 31.7479C58.7459 31.4356 59.9917 31.4487 61.1683 31.7859C61.346 31.8339 61.5096 31.8925 61.6731 31.9547C62.1676 30.0166 63.365 28.3315 65.0328 27.2271C66.7005 26.1226 68.7193 25.6778 70.6968 25.9789C72.6742 26.2801 74.4691 27.3058 75.7324 28.8566C76.9957 30.4075 77.6373 32.3726 77.5323 34.3702C78.0543 33.6748 78.8131 33.1948 79.6651 33.0212C79.9575 32.9623 80.2559 32.9396 80.5538 32.9536C81.3487 32.99 82.1087 33.2905 82.7136 33.8075C83.3185 34.3245 83.7337 35.0285 83.8934 35.808C83.9148 35.9218 83.9325 36.0338 83.945 36.1475C83.9681 36.3792 83.9681 36.6126 83.945 36.8442C83.8964 37.3753 83.7298 37.8888 83.4573 38.3473C83.1849 38.8058 82.8135 39.1976 82.3702 39.4942C84.0291 39.7872 85.508 40.7164 86.4919 42.0838C86.5861 42.2154 86.6696 42.3487 86.7567 42.4837C86.8065 42.5637 86.8527 42.6419 86.8989 42.7237C87.6695 44.1122 87.9034 45.7354 87.5565 47.285C87.2095 48.8347 86.3058 50.2031 85.0167 51.1305Z" fill="#549080"/>
<path d="M85.1101 51.2674C84.0787 52.0135 82.8407 52.4203 81.5678 52.4315L59.5288 53.9725C57.9308 54.1941 56.3046 53.8721 54.9117 53.0582C53.5188 52.2443 52.4399 50.9857 51.8485 49.4848C51.257 47.9838 51.1873 46.3276 51.6506 44.7822C52.1139 43.2369 53.0832 41.8921 54.4029 40.9641C54.0577 39.8487 54.0206 38.6607 54.2955 37.5259C54.5704 36.3911 55.147 35.3517 55.9642 34.5179C56.7815 33.684 57.8091 33.0867 58.9382 32.7891C60.0672 32.4915 61.2557 32.5047 62.3778 32.8274C62.5413 32.8736 62.7013 32.9287 62.8577 32.9874C63.3358 31.1481 64.4787 29.5513 66.0656 28.5057C67.6524 27.46 69.5706 27.0396 71.4493 27.3259C73.328 27.6121 75.034 28.5846 76.2374 30.0554C77.4409 31.5262 78.0565 33.3908 77.9651 35.289C78.3604 34.7657 78.8984 34.3675 79.5145 34.1425C80.1305 33.9175 80.7985 33.8752 81.438 34.0207C82.0776 34.1662 82.6615 34.4933 83.1196 34.9626C83.5777 35.432 83.8906 36.0236 84.0205 36.6665C84.0419 36.7749 84.0596 36.8833 84.0703 36.9917C84.1338 37.609 84.0281 38.2319 83.7644 38.7936C83.5008 39.3554 83.0892 39.8347 82.5738 40.1803C84.1537 40.4603 85.5622 41.3453 86.4999 42.6473C86.5906 42.7734 86.6777 42.9014 86.7523 43.0294C86.8003 43.104 86.8447 43.1805 86.8874 43.2569C87.6233 44.5781 87.8488 46.1235 87.5212 47.5999C87.1936 49.0764 86.3357 50.3813 85.1101 51.2674Z" fill="#195240"/>
<path d="M72.606 48.877C72.3821 48.877 72.1673 48.788 72.009 48.6297C71.8507 48.4714 71.7617 48.2566 71.7617 48.0327C71.7617 47.8088 71.8507 47.5941 72.009 47.4357C72.1673 47.2774 72.3821 47.1885 72.606 47.1885C72.8299 47.1885 73.0446 47.2774 73.2029 47.4357C73.3613 47.5941 73.4502 47.8088 73.4502 48.0327C73.4504 48.1436 73.4288 48.2535 73.3864 48.3561C73.3441 48.4586 73.2819 48.5518 73.2034 48.6302C73.125 48.7086 73.0318 48.7708 72.9293 48.8132C72.8268 48.8555 72.7169 48.8772 72.606 48.877Z" fill="#549080"/>
<path d="M69.1606 40.5927C68.9367 40.5927 68.722 40.5038 68.5637 40.3454C68.4054 40.1871 68.3164 39.9724 68.3164 39.7485C68.3164 39.5246 68.4054 39.3098 68.5637 39.1515C68.722 38.9932 68.9367 38.9042 69.1606 38.9042C69.3846 38.9042 69.5993 38.9932 69.7576 39.1515C69.9159 39.3098 70.0049 39.5246 70.0049 39.7485C70.0049 39.9724 69.9159 40.1871 69.7576 40.3454C69.5993 40.5038 69.3846 40.5927 69.1606 40.5927Z" fill="#549080"/>
<path d="M82.8755 46.2534C82.6516 46.2534 82.4369 46.1645 82.2785 46.0061C82.1202 45.8478 82.0312 45.6331 82.0312 45.4092C82.0313 45.1853 82.1202 44.9705 82.2785 44.8122C82.4369 44.6539 82.6516 44.5649 82.8755 44.5649C83.0994 44.5649 83.3141 44.6539 83.4725 44.8122C83.6308 44.9705 83.7197 45.1853 83.7197 45.4092C83.7197 45.6331 83.6308 45.8478 83.4725 46.0061C83.3141 46.1645 83.0994 46.2534 82.8755 46.2534Z" fill="#549080"/>
<path d="M72.606 32.7583C72.3821 32.7583 72.1673 32.6694 72.009 32.511C71.8507 32.3527 71.7617 32.138 71.7617 31.9141C71.7617 31.6902 71.8507 31.4754 72.009 31.3171C72.1673 31.1588 72.3821 31.0698 72.606 31.0698C72.7169 31.0696 72.8268 31.0913 72.9293 31.1336C73.0318 31.176 73.125 31.2381 73.2034 31.3166C73.2819 31.395 73.3441 31.4882 73.3864 31.5907C73.4288 31.6932 73.4504 31.8031 73.4502 31.9141C73.4502 32.138 73.3613 32.3527 73.2029 32.511C73.0446 32.6694 72.8299 32.7583 72.606 32.7583Z" fill="#549080"/>
<path d="M57.7856 39.313C57.5617 39.313 57.347 39.2241 57.1887 39.0658C57.0304 38.9075 56.9414 38.6927 56.9414 38.4688C56.9414 38.2449 57.0304 38.0302 57.1887 37.8718C57.347 37.7135 57.5617 37.6246 57.7856 37.6246C58.0096 37.6246 58.2243 37.7135 58.3826 37.8718C58.5409 38.0302 58.6299 38.2449 58.6299 38.4688C58.6299 38.6927 58.5409 38.9075 58.3826 39.0658C58.2243 39.2241 58.0096 39.313 57.7856 39.313Z" fill="#549080"/>
<path d="M68.6473 50.6065C68.6381 51.2049 68.5655 51.8007 68.4304 52.3838H41.5499C41.2625 51.5951 41.1579 50.7515 41.2442 49.9165C41.3304 49.0815 41.6051 48.277 42.0476 47.5637C42.5209 46.7949 43.1739 46.1525 43.9503 45.6919C44.7268 45.2312 45.6035 44.966 46.5051 44.919C46.7927 44.9058 47.0808 44.9141 47.3671 44.9439C49.8823 45.1831 52.4162 44.759 54.7165 43.7139C55.175 43.5137 55.6247 43.2915 56.0655 43.0474C57.3451 42.3419 58.7853 41.9789 60.2465 41.9934C61.7077 42.0079 63.1404 42.3996 64.4058 43.1304C65.6711 43.8613 66.7263 44.9065 67.4691 46.1649C68.2119 47.4233 68.6171 48.8522 68.6455 50.3132C68.6491 50.4074 68.6491 50.5069 68.6473 50.6065Z" fill="#7DDBCB"/>
<path d="M68.6474 50.6064C68.6383 51.2049 68.5656 51.8007 68.4306 52.3838H41.55C41.3079 51.7212 41.1951 51.0183 41.2177 50.3132H68.6456C68.6492 50.4074 68.6492 50.5069 68.6474 50.6064Z" fill="#71BEA7"/>
<path d="M62.7469 56.6768C66.1558 55.2647 67.7746 51.3565 66.3626 47.9476C64.9506 44.5386 61.0424 42.9198 57.6334 44.3318C54.2245 45.7439 52.6056 49.6521 54.0177 53.061C55.4297 56.47 59.3379 58.0888 62.7469 56.6768Z" fill="#549080"/>
<path d="M65.4445 50.4763C65.4459 51.1286 65.3253 51.7754 65.089 52.3834H55.2852C55.048 51.7757 54.9275 51.1287 54.9297 50.4763C54.9297 49.0815 55.4838 47.7438 56.4701 46.7575C57.4564 45.7713 58.7941 45.2172 60.1889 45.2172C60.6697 45.2165 61.1483 45.2829 61.6108 45.4145C62.7141 45.7251 63.6857 46.3878 64.3778 47.3015C65.0698 48.2153 65.4444 49.3301 65.4445 50.4763Z" fill="#FAC1AC"/>
<path d="M65.441 50.4764C65.4423 51.1287 65.3218 51.7755 65.0855 52.3835H58.1325C57.8661 51.7001 57.7456 50.9685 57.7788 50.2358C57.8121 49.5031 57.9984 48.7854 58.3257 48.129C58.6529 47.4726 59.114 46.892 59.6792 46.4245C60.2443 45.957 60.9011 45.6129 61.6072 45.4145C62.7106 45.7252 63.6822 46.3878 64.3742 47.3015C65.0663 48.2153 65.4409 49.3301 65.441 50.4764Z" fill="#EB5D29"/>
<path d="M28.9647 32.1273C26.4942 35.163 24.0112 37.3882 22.8506 37.6975C22.7662 37.7312 22.675 37.7444 22.5845 37.736C22.494 37.7277 22.4067 37.698 22.3299 37.6495C21.6189 37.0701 23.4354 33.6611 26.3893 30.0318C29.3433 26.4025 32.315 23.932 33.0277 24.5114C33.0904 24.5769 33.1368 24.6562 33.1631 24.743C33.1893 24.8298 33.1947 24.9215 33.1788 25.0108C33.1041 26.2105 31.4263 29.0934 28.9647 32.1273Z" fill="#549080"/>
<path d="M21.5792 29.1236C21.2237 33.0213 21.4494 36.3485 22.0644 37.3793C22.1011 37.4628 22.1572 37.5363 22.2279 37.5938C22.2987 37.6513 22.3822 37.6911 22.4714 37.7099C23.3849 37.7917 24.4656 34.0824 24.885 29.4222C25.3045 24.762 24.9046 20.9176 23.9964 20.834C23.9055 20.8373 23.8167 20.8619 23.7371 20.9057C23.6574 20.9495 23.5892 21.0114 23.5378 21.0864C22.7469 21.9911 21.9293 25.2259 21.5792 29.1236Z" fill="#549080"/>
<path d="M27.1028 30.4635C25.6276 34.0893 23.9036 36.9437 22.8834 37.5729C22.8126 37.6299 22.7293 37.6693 22.6403 37.6879C22.5513 37.7064 22.4592 37.7036 22.3715 37.6795C21.5219 37.333 22.2631 33.5401 24.028 29.2069C25.7929 24.8738 27.9097 21.6408 28.7593 21.9856C28.8388 22.03 28.9067 22.0925 28.9574 22.1682C29.0081 22.2439 29.0401 22.3306 29.0507 22.421C29.3387 23.5923 28.578 26.8377 27.1028 30.4635Z" fill="#7DDBCB"/>
<path d="M27.1023 30.4642C28.8055 26.2803 29.6784 22.6818 29.052 22.4268C28.4256 22.1718 26.5371 25.3569 24.8339 29.5408C23.1307 33.7248 22.2578 37.3232 22.8842 37.5782C23.5106 37.8332 25.3991 34.6482 27.1023 30.4642Z" fill="#195240"/>
<path d="M26.6087 44.1155C26.1928 45.2442 24.6021 48.5785 22.5723 52.3784H12.0273L12.5765 49.4103L12.605 49.2325L12.6263 49.1241C12.6547 48.9766 12.6832 48.8326 12.7098 48.6904C12.7294 48.5962 12.7472 48.5038 12.7649 48.4132C12.9782 47.3468 13.1773 46.4083 13.3639 45.5801C13.4208 45.333 13.4759 45.0966 13.5292 44.8691C13.8029 43.7068 14.0482 42.7861 14.2686 42.0254C14.3432 41.7695 14.4143 41.5348 14.4836 41.3145C14.672 40.7155 14.8391 40.248 14.9902 39.8357C15.5171 38.4042 16.5542 37.2177 17.9025 36.5042C19.2507 35.7907 20.8151 35.6005 22.2951 35.97C22.5114 36.0227 22.7244 36.0879 22.9331 36.1655C23.6968 36.4457 24.3978 36.8736 24.996 37.425C25.5941 37.9763 26.0777 38.6401 26.4191 39.3785C26.7605 40.1169 26.953 40.9153 26.9855 41.7282C27.018 42.541 26.89 43.3523 26.6087 44.1155Z" fill="#FB9D6E"/>
<path d="M26.622 44.1153C26.2061 45.2439 24.6154 48.5782 22.5857 52.3781H15.0391L15.6185 49.2322C16.7133 43.5767 17.474 41.284 18.0054 39.8425C18.3527 38.8953 18.9268 38.0476 19.6776 37.3737C20.4284 36.6998 21.3329 36.2202 22.312 35.9768C22.5283 36.0295 22.7413 36.0948 22.95 36.1723C24.4901 36.7389 25.7421 37.894 26.4307 39.3835C27.1192 40.873 27.1881 42.575 26.622 44.1153Z" fill="#EB5D29"/>
<path d="M21.0213 41.6768C21.0213 41.771 20.9838 41.8614 20.9172 41.9281C20.8505 41.9948 20.7601 42.0322 20.6658 42.0322H14.2852C14.3598 41.7763 14.4309 41.5417 14.5002 41.3213H20.6658C20.7125 41.3213 20.7587 41.3305 20.8019 41.3483C20.845 41.3662 20.8842 41.3924 20.9172 41.4254C20.9502 41.4584 20.9764 41.4976 20.9942 41.5407C21.0121 41.5839 21.0213 41.6301 21.0213 41.6768Z" fill="#FAC1AC"/>
<path d="M19.3722 49.0547C19.3722 49.1489 19.3347 49.2394 19.2681 49.306C19.2014 49.3727 19.111 49.4101 19.0167 49.4101H12.5898L12.6183 49.2324L12.6396 49.124C12.668 48.9765 12.6965 48.8325 12.7231 48.6903H19.0167C19.0642 48.6903 19.1111 48.6998 19.1548 48.7182C19.1986 48.7366 19.2381 48.7636 19.2713 48.7975C19.3044 48.8315 19.3304 48.8717 19.3477 48.9159C19.3651 48.9601 19.3734 49.0072 19.3722 49.0547Z" fill="#FAC1AC"/>
<path d="M20.0962 45.2245C20.0962 45.3188 20.0588 45.4092 19.9921 45.4758C19.9254 45.5425 19.835 45.58 19.7407 45.58H13.3672C13.4241 45.3329 13.4792 45.0965 13.5325 44.869H19.7407C19.835 44.869 19.9254 44.9065 19.9921 44.9731C20.0588 45.0398 20.0962 45.1302 20.0962 45.2245Z" fill="#FAC1AC"/>
<path d="M82.0227 52.3782V53.3202C82.0227 53.8582 82.0049 54.3914 81.9694 54.9198C81.563 61.0232 78.8518 66.7439 74.3851 70.923C69.9183 75.102 64.0299 77.4268 57.913 77.4263H36.1441C30.0261 77.4278 24.1362 75.1035 19.6678 70.9246C15.1994 66.7456 12.4865 61.0243 12.0789 54.9198L12.0682 54.7545C12.041 54.2806 12.0273 53.8013 12.0273 53.3167V52.3782H82.0227Z" fill="#FCE48C"/>
<path d="M79.1892 53.3202V52.3782H18.8555V53.3202C18.8555 53.8013 18.8691 54.2806 18.8963 54.7581C19.2646 60.8919 21.9607 66.6538 26.434 70.8668C30.9073 75.0798 36.8202 77.4261 42.9651 77.4263H55.0795C61.4732 77.4263 67.605 74.8867 72.1264 70.366C76.6477 65.8454 79.1882 59.7139 79.1892 53.3202Z" fill="#FDC323"/>
<path d="M82.0032 54.0525C82.0032 53.8072 82.0156 53.5637 82.0156 53.3167V52.3782H12.0273V53.3202C12.0273 53.8534 12.0451 54.3866 12.0771 54.9198H63.7925C73.0347 54.9198 77.1777 66.6396 69.8959 72.3289C65.6629 75.6398 60.4415 77.4347 55.0675 77.4263H57.9113C64.0269 77.425 69.9135 75.0994 74.3788 70.9205C78.8441 66.7417 81.5543 61.022 81.9605 54.9198C81.9605 54.895 81.9605 54.8683 81.9605 54.8434C81.9729 54.6443 81.9836 54.4453 81.9907 54.2444C81.9978 54.1805 82.0014 54.1165 82.0032 54.0525Z" fill="#EA9807"/>
</svg>
