<svg width="313" height="313" viewBox="0 0 313 313" fill="none" xmlns="http://www.w3.org/2000/svg">
<path d="M231.932 297.049C209.691 297.049 191.661 298.869 191.661 301.118C191.661 303.367 209.685 305.174 231.932 305.174C254.178 305.174 272.201 303.356 272.201 301.113C272.201 298.87 254.164 297.049 231.932 297.049Z" fill="#ACEAC7"/>
<path d="M269.981 93.2607C269.857 93.3262 269.716 93.3508 269.577 93.3308C269.438 93.3108 269.31 93.2474 269.209 93.1496C265.742 89.9748 262.774 86.2934 260.408 82.2306C260.342 82.1242 260.309 82.0002 260.314 81.875C260.319 81.7497 260.362 81.6288 260.436 81.5279C260.017 81.3894 259.57 81.3614 259.137 81.4466C258.705 81.5319 258.301 81.7276 257.966 82.0147L254.663 84.8457C255.06 85.1948 255.345 85.6542 255.481 86.1656C255.618 86.6769 255.599 87.2172 255.427 87.7178C255.256 88.2184 254.939 88.6567 254.518 88.9771C254.097 89.2975 253.59 89.4855 253.062 89.5173C252.018 89.6471 250.958 89.5754 249.941 89.306C250.56 90.5133 250.908 91.8414 250.959 93.1971C251.011 94.5529 250.766 95.9036 250.24 97.1545C247.994 102.774 243.331 103.743 240.925 106.239C236.601 110.726 240.579 114.562 239.066 117.351C237.772 119.731 232.097 120.543 231.354 117.305C230.794 118.225 229.895 118.887 228.851 119.148C227.808 119.41 226.703 119.25 225.776 118.703C222.712 116.981 221.081 111.21 224.231 106.064C220.592 106.445 216.943 105.434 214.018 103.236C211.092 101.038 209.106 97.814 208.459 94.2123C203.822 92.2247 201.118 89.0947 202.105 80.9004L198.756 53.7664C198.694 53.2676 198.467 52.8039 198.11 52.4492C197.754 52.0944 197.29 51.8689 196.791 51.8086C196.798 51.9586 196.758 52.1073 196.677 52.2337C196.596 52.3602 196.478 52.4583 196.338 52.5144C192.346 54.145 188.078 54.995 183.765 55.0184C183.646 55.0233 183.528 54.9934 183.426 54.9322C183.323 54.8711 183.241 54.7814 183.189 54.6741C182.347 54.8228 181.604 54.937 181.017 54.9996C176.621 55.4691 189.025 106.175 189.025 106.175C189.025 106.175 173.638 134.905 188.243 175.882C202.293 175.882 226.857 168.486 229.18 167.777C228.859 164.215 226.76 137.819 233.928 128.312C240.47 119.633 262.683 100.962 269.178 95.5723C269.51 95.2965 269.76 94.9355 269.901 94.5282C270.043 94.1208 270.07 93.6826 269.981 93.2607Z" fill="#FEE992"/>
<path d="M262.344 207.289L234.712 231.62C234.712 231.62 239.877 206.021 241.396 192.62C241.616 190.681 241.441 188.717 240.882 186.846C240.322 184.976 239.391 183.238 238.143 181.737C234.59 177.463 229.674 171.012 229.379 167.723C218.992 170.934 199.519 175.887 188.246 175.887C188.246 175.887 191.063 187.19 188.246 195.354C185.429 203.519 167.051 249.046 177.884 260.194C188.717 271.341 198.921 260.35 205.045 253.129C205.045 253.129 214.935 264.119 233.146 256.425C246.522 250.779 263.374 234.647 272.394 224.085C272.391 224.088 270.507 212.156 262.344 207.289ZM210.04 197.049C207.83 201.237 202.469 219.545 201.902 231.083C201.404 238.199 202.57 245.333 205.309 251.92C205.666 252.727 204.473 253.43 204.113 252.618C202.469 248.853 201.377 244.87 200.872 240.793C198.871 225.362 206.148 201.459 208.843 196.347C209.262 195.564 210.456 196.264 210.04 197.049Z" fill="#7D4AB4"/>
<path d="M139.234 186.01L137.849 186.01C138.309 191.606 143.796 258.64 143.81 258.796L129.022 258.796L130.077 193.669L102.76 193.669L102.76 258.796C102.603 258.796 38.767 258.77 38.6042 258.776L41.7123 186.338L40.3288 186.338C40.1223 191.154 37.1988 259.443 37.1895 259.488C37.1915 259.671 37.265 259.846 37.3943 259.975C37.5236 260.104 37.6984 260.178 37.8812 260.18C38.0377 260.18 144.645 260.219 144.863 260.111C145.553 259.871 145.614 264.471 139.234 186.01Z" fill="#FF9F48"/>
<path d="M49.8908 193.613L47.0645 248.188L95.1053 248.188L95.1053 193.613L49.8908 193.613Z" fill="#9CF0F0"/>
<path d="M69.2287 161.055L66.9375 186.311L83.8802 186.311L84.6283 161.055L69.2287 161.055Z" fill="#FF8684"/>
<path d="M55.0564 161.055L50.6807 186.311L66.9379 186.311L69.229 161.055L55.0564 161.055ZM84.6286 161.055L83.8806 186.311L98.349 186.311L97.2472 161.055L84.6286 161.055Z" fill="#F55555"/>
<path d="M43.1794 161.055L31.6406 186.488L50.6804 186.311L55.0562 161.055L43.1794 161.055ZM97.247 161.055L98.3487 186.311L115.356 186.115L113.082 161.055L97.247 161.055Z" fill="#FF8684"/>
<path d="M127.256 161.055L113.083 161.055L115.357 186.115L131.575 186.115L127.256 161.055Z" fill="#F55555"/>
<path d="M147.738 186.115L139.025 161.055L127.255 161.055L131.574 186.115L147.738 186.115Z" fill="#FF8684"/>
<path d="M136.199 132.81C45.5857 132.799 46.7 132.677 46.4292 133.061C46.1741 133.333 46.2555 132.291 46.2555 148.338C46.258 148.521 46.3318 148.696 46.4614 148.825C46.5909 148.954 46.7658 149.028 46.9488 149.03L56.0743 149.06C54.6658 160.587 55.0179 157.041 54.9162 158.576C54.9162 158.76 54.9891 158.936 55.1188 159.066C55.2486 159.195 55.4245 159.268 55.608 159.268C55.7914 159.268 55.9674 159.195 56.0971 159.066C56.2268 158.936 56.2997 158.76 56.2997 158.576L57.4562 149.061L126.662 149.241C127.494 152.194 128.503 155.094 129.686 157.925C129.734 158.102 129.852 158.253 130.011 158.343C130.171 158.434 130.36 158.458 130.537 158.409C130.714 158.36 130.864 158.243 130.955 158.083C131.046 157.924 131.069 157.735 131.021 157.558C129.889 154.845 128.917 152.069 128.108 149.244L135.964 149.265C136.147 149.262 136.322 149.189 136.451 149.059C136.58 148.93 136.654 148.756 136.656 148.573L136.891 133.502C136.888 133.319 136.815 133.145 136.686 133.016C136.556 132.886 136.382 132.813 136.199 132.81ZM135.284 147.88C134.465 147.88 50.4466 147.521 47.6437 147.623L47.6437 134.194C60.8977 134.194 135.04 134.238 135.5 134.22C135.462 136.394 135.291 147.191 135.284 147.88Z" fill="#FF9F48"/>
<path d="M111.365 69.7424C112.468 70.8897 113.782 71.8147 115.234 72.467C113.749 73.9021 94.9686 103.175 55.2943 112.252C54.4257 112.451 54.7951 113.786 55.6621 113.587C80.1267 107.912 101.705 93.5607 116.398 73.1932C116.492 73.0602 116.018 72.8802 119.495 74.694C120.093 71.7727 120.734 68.8649 121.419 65.9707L111.365 69.7424Z" fill="#F55555"/>
<path d="M226.021 11.5438C225.039 18.3109 224.058 25.0784 223.079 31.8465C222.952 32.7167 224.284 33.0985 224.412 32.2143L227.356 11.9116C227.481 11.0399 226.149 10.6643 226.021 11.5438ZM251.236 8.29486L242.036 34.5869C241.74 35.4288 243.076 35.7903 243.369 34.9562L252.571 8.6642C252.865 7.82536 251.531 7.46384 251.236 8.29486ZM273.569 25.9528C267.854 32.1668 262.015 38.2625 256.052 44.2398C255.926 44.3702 255.856 44.545 255.857 44.7265C255.859 44.908 255.931 45.0817 256.06 45.21C256.188 45.3384 256.362 45.4111 256.543 45.4126C256.725 45.4141 256.9 45.3441 257.03 45.2179C262.993 39.2417 268.832 33.146 274.547 26.9309C275.148 26.2767 274.173 25.2955 273.569 25.9528ZM281.23 40.4838L264.033 51.4075C263.284 51.877 263.977 53.082 264.731 52.6031L281.928 41.6779C282.676 41.2021 281.982 40.0033 281.23 40.4838Z" fill="#FFD35C"/>
<path d="M132.087 93.9321C132.025 93.8294 131.937 93.7445 131.833 93.6856C131.728 93.6267 131.61 93.5957 131.49 93.5957C131.37 93.5957 131.252 93.6267 131.147 93.6856C131.043 93.7445 130.955 93.8294 130.893 93.9321C127.909 100.383 123.136 105.842 117.14 109.659C116.14 110.296 115.706 110.693 116.21 111.236C118.578 113.797 125.367 120.129 128.005 120.855C128.541 121.001 129.105 121.009 129.645 120.879C130.185 120.748 130.683 120.484 131.093 120.11C136.105 115.217 140.817 110.028 145.206 104.569C146.954 102.418 138.178 103.421 132.087 93.9321ZM134.278 114.923C130.55 118.836 130.015 119.523 129.048 119.6C126.78 119.783 119.345 112.535 117.78 110.875C117.8 110.869 117.821 110.861 117.841 110.853C123.719 107.116 128.471 101.851 131.588 95.6223C134.563 99.7316 138.759 102.798 143.577 104.386C140.612 108.008 137.512 111.52 134.278 114.923Z" fill="#6DD3A8"/>
<path d="M133.503 109.649C133.685 109.457 133.819 109.227 133.896 108.975C133.974 108.723 133.992 108.457 133.95 108.197C133.908 107.937 133.806 107.69 133.653 107.476C133.5 107.262 133.299 107.086 133.067 106.962C130.995 105.791 128.787 108.91 128.386 107.478C128.159 106.664 128.916 106.029 129.596 105.434C130.222 104.89 129.375 103.794 128.618 104.456C128.333 104.7 128.064 104.962 127.812 105.239C127.746 105.136 127.655 105.052 127.549 104.995C127.442 104.937 127.322 104.907 127.201 104.908C127.079 104.909 126.96 104.941 126.854 105.001C126.748 105.061 126.659 105.146 126.596 105.249C126.325 105.719 126.663 106.107 127.073 106.464C126.909 106.934 126.909 107.446 127.074 107.916C127.238 108.386 127.558 108.786 127.979 109.051C129.06 109.606 130.111 108.86 131.051 108.373C132.316 107.724 133.352 108.286 131.851 109.27C131.32 109.57 130.82 109.92 130.358 110.317C129.722 110.943 130.701 111.921 131.336 111.295C131.666 111.008 132.027 110.758 132.411 110.549C132.725 110.85 133.098 111.081 133.507 111.229C133.641 111.25 133.779 111.23 133.903 111.171C134.026 111.112 134.128 111.017 134.197 110.899C134.491 110.196 134.061 110.016 133.503 109.649ZM117.328 25.616C117.359 25.4842 117.352 25.3462 117.307 25.2184C117.261 25.0907 117.18 24.9787 117.073 24.896C116.966 24.8134 116.837 24.7635 116.702 24.7524C116.567 24.7413 116.431 24.7694 116.312 24.8335C109.907 27.7615 102.797 28.797 95.8229 27.818C94.6069 27.6458 93.9982 27.602 94.0263 28.3454C94.164 31.779 95.2157 41.0986 96.7338 43.3428C97.0304 43.7923 97.4334 44.1617 97.9071 44.4181C98.3808 44.6744 98.9105 44.8098 99.4491 44.8123C102.465 44.9312 114.446 43.2676 120.537 42.1393C122.98 41.6901 115.842 36.51 117.328 25.616ZM105.15 42.9703C99.4271 43.5556 98.9138 43.6088 98.2268 42.9906C96.5929 41.518 95.5913 31.7226 95.4567 29.1529C102.368 30.1391 109.418 29.2343 115.857 26.5347C115.458 31.5846 116.66 36.6317 119.29 40.9608C114.603 41.808 109.89 42.4778 105.15 42.9703Z" fill="#6DD3A8"/>
<path d="M107.227 34.4599C106.755 34.4162 106.295 34.2846 105.871 34.0718C105.369 33.7353 105.574 32.715 107.922 32.6915C108.099 32.683 108.267 32.6065 108.389 32.4779C108.512 32.3492 108.58 32.1783 108.58 32.0005C108.58 31.8228 108.512 31.6518 108.389 31.5232C108.267 31.3945 108.099 31.318 107.922 31.3096C107.528 31.3078 107.135 31.3319 106.745 31.3816C106.745 30.2235 105.18 30.1296 105.402 31.826C104.929 32.0883 104.574 32.5201 104.407 33.0343C104.241 33.5485 104.276 34.1067 104.505 34.5961C105.288 36.0046 107.565 35.5351 108.222 36.3896C108.657 36.9608 107.97 37.1173 108.222 37.0234C107.153 37.3755 104.76 36.1987 104.76 37.5805C104.761 37.7636 104.835 37.9389 104.964 38.0683C105.094 38.1978 105.269 38.271 105.452 38.2723C105.904 38.2602 106.356 38.2969 106.799 38.3818C106.799 38.5728 106.762 38.3818 107.048 39.3615C107.097 39.5385 107.214 39.6889 107.374 39.7796C107.533 39.8703 107.723 39.8939 107.9 39.8451C108.077 39.7963 108.227 39.6792 108.318 39.5196C108.408 39.3599 108.432 39.1708 108.383 38.9937C108.184 38.3161 108.173 38.4585 108.383 38.4194C110.252 38.0297 110.49 35.136 107.227 34.4599ZM35.0567 104.542C35.0226 104.427 34.9594 104.322 34.8732 104.239C34.7869 104.155 34.6805 104.095 34.5643 104.064C34.4481 104.033 34.3259 104.033 34.2096 104.064C34.0932 104.094 33.9867 104.154 33.9002 104.237C24.2582 115.702 14.2015 115.169 15.1984 117.078C16.8276 120.208 21.5241 127.732 23.8638 129.332C24.3156 129.647 24.8403 129.84 25.3881 129.895C25.9359 129.95 26.4887 129.864 26.9938 129.645C29.7999 128.499 39.927 121.86 44.9334 118.255C45.035 118.191 45.1188 118.103 45.1768 117.999C45.2349 117.894 45.2654 117.777 45.2654 117.657C45.2654 117.537 45.2349 117.42 45.1768 117.315C45.1188 117.21 45.035 117.122 44.9334 117.059C40.121 113.572 36.8627 110.267 35.0567 104.542ZM31.4728 125.494C26.5008 128.498 26.0376 128.817 25.0563 128.421C22.8043 127.504 16.6319 117.195 16.8683 117.13C23.5231 115.066 29.4915 111.231 34.1349 106.037C35.9214 110.786 39.1672 114.847 43.406 117.637C39.5289 120.403 35.5512 123.023 31.4728 125.494Z" fill="#6DD3A8"/>
<path d="M32.625 117.423C30.9865 115.627 27.9222 118.17 27.93 116.641C27.9378 115.112 30.6046 115.267 29.8878 114.041C29.4825 113.349 28.6452 113.9 27.9723 114.332C27.4511 113.334 25.9769 113.903 26.9425 115.329C26.6584 115.729 26.5191 116.214 26.5476 116.703C26.576 117.193 26.7705 117.658 27.099 118.023C27.9519 118.863 29.1914 118.442 30.1993 118.217C31.5968 117.904 32.5781 118.686 30.8378 119.264C30.234 119.42 29.6461 119.632 29.0819 119.897C28.2994 120.329 29.0005 121.523 29.7799 121.092C30.1733 120.904 30.5857 120.758 31.0099 120.658C32.0585 122.581 33.3856 121.225 32.6501 120.483L32.2995 120.088C32.5185 119.953 32.7043 119.769 32.8431 119.552C32.9819 119.335 33.0702 119.09 33.1014 118.834C33.1326 118.578 33.1061 118.318 33.0236 118.074C32.9412 117.83 32.8049 117.608 32.625 117.423ZM72.8393 69.999C72.8095 69.8979 72.7573 69.8049 72.6866 69.7268C72.6159 69.6487 72.5285 69.5875 72.4309 69.5478C72.3333 69.5081 72.2281 69.4909 72.1229 69.4975C72.0178 69.5041 71.9154 69.5343 71.8236 69.5858C67.2432 71.8437 62.4377 73.6125 57.4866 74.863C57.3412 74.9043 57.213 74.9915 57.1213 75.1117C57.0296 75.2319 56.9794 75.3785 56.978 75.5297C57.5821 91.7118 53.3879 97.194 55.5429 97.3208C61.0818 97.6393 66.6195 96.6753 71.725 94.5038C72.9358 94.1588 74.0381 93.5096 74.927 92.6179C75.4753 91.4015 75.6328 90.0449 75.3777 88.7352C75.1998 82.4173 74.3488 76.1364 72.8393 69.999ZM74.024 90.9966C73.9708 92.0608 73.3886 92.2627 71.6905 93.0311C64.9313 96.0641 56.1971 96.6102 56.4647 95.4819C57.931 89.1155 58.5727 82.5871 58.374 76.0571C62.9598 74.8577 67.4205 73.2226 71.6952 71.1743C73.2261 77.6711 74.0074 84.3219 74.024 90.9966Z" fill="#6DD3A8"/>
<path d="M69.2826 80.9799C68.8365 80.9189 68.8131 81.102 68.3905 81.102C67.8741 79.6653 66.6909 78.5495 65.417 79.1849C64.5563 79.6121 64.1353 80.9064 63.7941 81.9878C63.3356 83.4401 63.3418 84.4245 62.8989 84.5544C62.5859 84.6451 62.2729 84.2195 62.1634 83.9628C61.6939 82.7844 62.3105 81.0722 61.0194 81.4259C60.3261 81.6153 60.5499 82.343 60.6328 83.1271C59.5952 82.8235 59.3245 84.7703 60.9129 84.4996C61.0029 84.8515 61.193 85.1697 61.4601 85.4158C61.7273 85.6618 62.06 85.8252 62.4181 85.8859C62.7762 85.9467 63.1442 85.9024 63.4776 85.7583C63.811 85.6141 64.0954 85.3764 64.2965 85.074C64.8176 84.2508 65.1024 81.5402 65.8709 80.5699C66.5391 79.7295 67.4139 81.8454 67.4718 83.8126C67.4985 84.7015 68.8803 84.7046 68.8553 83.8126C68.8399 83.3606 68.7965 82.9101 68.7254 82.4635C70.2075 82.2679 69.8929 81.1192 69.2826 80.9799ZM154.09 82.7593C155.342 82.39 155.245 81.5652 157.452 73.1674C157.635 72.471 158.085 71.5132 157.608 70.845C157.154 70.2018 156.293 70.2847 155.6 70.2644C149.578 70.0959 143.588 69.3225 137.72 67.956C136.853 67.7557 136.484 69.089 137.352 69.2909C143.601 70.7644 149.99 71.5645 156.409 71.6776C156.487 71.7261 156.455 71.64 156.35 71.9217C156.06 72.6932 154.051 81.2288 153.725 81.4306C146.989 81.0507 140.325 79.8482 133.881 77.8499C134.863 76.1399 135.614 74.3075 136.116 72.4006C136.16 72.2251 136.134 72.0392 136.043 71.8827C135.953 71.7262 135.804 71.6116 135.629 71.5635C135.455 71.5154 135.268 71.5376 135.11 71.6253C134.952 71.713 134.834 71.8593 134.783 72.0328C134.24 74.1105 133.383 76.0933 132.243 77.9125C132.191 78.0045 132.16 78.1071 132.154 78.2125C132.147 78.3179 132.164 78.4235 132.204 78.5213C132.244 78.6191 132.305 78.7067 132.384 78.7774C132.462 78.8481 132.556 78.9002 132.657 78.9298C142.34 81.9111 152.996 83.0833 154.09 82.7593ZM159.414 119.545C158.736 118.977 157.754 119.95 158.436 120.523C162.318 123.784 166.683 126.423 171.374 128.348C171.499 128.576 168.075 136.972 167.954 137.104C167.874 137.193 167.862 137.234 167.867 137.251C167.811 137.238 167.754 137.234 167.698 137.24C167.425 137.191 167.161 137.102 166.915 136.976C159.125 134.251 151.315 128.969 151.228 128.517C151.182 128.285 150.944 128.761 156.29 120.798C156.788 120.056 155.589 119.363 155.095 120.1C150.163 127.456 150.273 127.122 149.99 127.83C149.842 128.214 149.834 128.638 149.969 129.026C150.103 129.415 150.37 129.744 150.724 129.955C157.11 134.861 167.269 139.126 168.444 138.58C169.227 138.217 169.479 137.015 169.785 136.282C175.568 122.468 173.343 131.216 159.414 119.545Z" fill="#6DD3A8"/>
<path d="M161.429 130.052C161.048 131.044 159.285 129.895 158.56 129.631C158.455 129.582 158.342 129.556 158.227 129.553C158.111 129.551 157.997 129.572 157.89 129.617C157.784 129.661 157.688 129.726 157.608 129.81C157.528 129.893 157.467 129.992 157.427 130.1C157.175 130.977 158.014 130.867 158.948 131.304C158.433 132.049 158.948 132.399 159.053 132.457C159.746 132.745 159.942 132.291 160.305 131.776C160.615 131.863 160.941 131.872 161.256 131.802C161.57 131.733 161.862 131.587 162.106 131.377C162.351 131.168 162.54 130.902 162.657 130.602C162.774 130.302 162.816 129.978 162.778 129.659C162.426 127.983 160.236 128.28 159.882 127.288C160.336 127.072 160.843 126.99 161.342 127.051C161.84 127.113 162.312 127.315 162.699 127.635C163.283 128.078 164.659 126.989 162.789 126.081C163.681 124.695 161.925 124.26 161.682 125.195C161.604 125.474 161.43 125.508 161.329 125.665C160.863 125.597 160.387 125.638 159.94 125.784C159.492 125.93 159.084 126.178 158.748 126.507C158.597 126.744 158.512 127.017 158.503 127.298C158.494 127.579 158.561 127.857 158.696 128.103C159.317 129.39 161.4 129.269 161.429 130.052ZM159.878 127.293C159.9 127.277 159.922 127.264 159.878 127.293V127.293ZM144.383 76.9481C142.492 77.4536 141.678 76.067 141.137 76.9903C141.048 77.1485 141.025 77.335 141.071 77.5102C141.118 77.6855 141.23 77.8358 141.386 77.9293C141.762 78.1122 142.161 78.2453 142.572 78.3253C142.624 79.8324 143.955 79.3957 143.955 78.6242C143.955 78.2815 143.869 78.4536 144.389 78.3613C145.32 78.1954 146.308 77.3957 145.862 76.3534C145.472 75.4425 144.56 75.4723 142.741 74.4003C143.35 73.2672 145.796 73.9448 145.375 73.8697C145.439 73.9908 145.538 74.0899 145.659 74.1544C145.78 74.2188 145.917 74.2456 146.054 74.2313C146.19 74.217 146.319 74.1622 146.424 74.0741C146.529 73.986 146.605 73.8685 146.643 73.7367C146.807 72.6913 145.921 72.5442 144.981 72.4127C145.42 70.4299 143.394 70.7867 143.646 71.8399C143.675 72.1701 143.556 72.2421 143.547 72.4064C142.984 72.4463 142.452 72.6803 142.043 73.0685C141.633 73.4566 141.371 73.9749 141.301 74.5348C141.32 76.0482 145.06 76.6304 144.383 76.9481Z" fill="#6DD3A8"/>
<path d="M205.081 184.456C203.666 181.325 202.5 178.087 201.594 174.772C201.538 174.604 201.419 174.463 201.262 174.38C201.106 174.296 200.923 174.276 200.752 174.323C200.581 174.37 200.434 174.481 200.342 174.633C200.251 174.785 200.221 174.967 200.259 175.14C201.204 178.568 202.417 181.917 203.885 185.156C204.253 185.965 205.445 185.262 205.081 184.456ZM232.98 178.679C228.311 178.522 220.274 176.342 218.236 172.686C217.43 171.235 214.01 174.267 223.915 178.196C226.808 179.333 229.874 179.964 232.98 180.062C233.872 180.092 233.87 178.708 232.98 178.679ZM193.013 178.038C192.541 180.248 191.919 182.423 191.15 184.547C190.969 184.555 190.798 184.631 190.67 184.759C190.542 184.888 190.466 185.059 190.459 185.241C190.459 186.144 191.867 186.311 192.503 184.815C193.312 182.741 193.929 180.597 194.346 178.409C194.395 178.233 194.372 178.043 194.282 177.884C194.192 177.724 194.042 177.606 193.865 177.557C193.688 177.508 193.499 177.531 193.339 177.621C193.179 177.712 193.062 177.862 193.013 178.038ZM296.893 60.7307C295.62 58.8007 294.022 57.1063 292.17 55.7227C289.769 53.7477 287.342 53.3846 283.817 56.3581C283.794 53.4206 281.878 51.7726 280.26 52.3814C276.573 53.768 277.243 64.2754 277.141 64.928C276.792 67.1472 263.48 77.4684 263.072 79.0616C262.777 80.2134 270.073 90.846 271.003 91.1887C271.292 91.2763 271.602 91.2686 271.886 91.1669C272.17 91.0652 272.414 90.8748 272.582 90.6238C294.204 66.8827 300.564 67.0392 296.893 60.7307ZM271.277 89.6566C270.739 88.9664 264.259 79.7251 264.515 79.2791C264.605 79.1226 276.507 68.2004 277.337 67.3428C279.841 64.7653 277.446 61.762 279.302 55.9778C279.521 55.2955 280.085 53.4065 281.133 53.6522C282.122 53.8838 282.576 55.9042 282.412 57.0248C282.383 57.2092 282.428 57.3974 282.537 57.5491C279.235 60.9467 280.31 64.518 284.752 63.1533C282.978 66.3913 284.149 68.4571 288.351 66.9234C286.598 70.1285 287.752 71.5433 289.506 71.6763C275.975 83.985 271.629 90.1105 271.277 89.6566ZM296.329 64.1643C295.813 66.9657 290.639 70.3508 289.647 70.3179C287.719 70.2553 289.72 66.9078 291.127 65.5744C291.241 65.454 291.307 65.2971 291.315 65.132C291.323 64.9669 291.272 64.8044 291.171 64.6736C291.07 64.5428 290.926 64.4522 290.764 64.4183C290.602 64.3843 290.434 64.4091 290.289 64.4883C283.149 68.418 284.968 63.7277 287.961 61.5289C288.667 61.0093 287.996 59.8152 287.262 60.3332C285.999 61.3071 284.491 61.9127 282.905 62.0829C279.551 62.2206 285.457 55.1124 289.032 55.5787C290.819 55.8103 296.924 60.931 296.329 64.1643ZM187.848 51.8149C188.415 51.6944 195.634 50.0824 196.39 49.6442C196.616 49.5039 196.799 49.3041 196.919 49.0667C197.039 48.8293 197.091 48.5634 197.069 48.2983C197.069 47.4063 195.783 31.0161 195.936 30.1287C196.073 29.5435 196.384 29.0139 196.83 28.6106C198.569 26.7905 203.541 21.8342 202.818 18.4679C202.365 16.3692 199.468 16.1454 197.32 18.3928C196.816 13.909 194.792 12.4238 191.686 12.2188C181.444 11.6179 179.992 14.6415 181.163 22.0549C181.081 22.1702 181.043 22.3115 181.058 22.4524C182.9 42.7442 181.613 50.8962 182.181 52.0043C182.801 53.2093 184.632 52.5051 187.848 51.8149ZM182.817 15.5883C184.59 12.6742 192.611 13.3269 193.938 14.1798C196.342 15.7182 196.373 21.4539 195.587 22.8906C195.254 23.4994 194.625 23.756 194.097 23.227C193.044 22.0158 192.351 20.5343 192.096 18.9499C191.917 18.0735 190.601 18.4491 190.761 19.3177C191.02 20.7357 190.84 22.1991 190.244 23.5119C189.481 25.0957 188.942 24.1504 188.074 22.4931C187.657 21.6611 187.313 20.7951 187.044 19.9045C186.815 19.194 185.635 19.2785 185.686 20.0877C185.757 21.1279 185.629 22.1722 185.308 23.1644C185.088 23.8311 184.671 25.2318 183.731 24.7294C182.948 24.3085 182.836 23.1644 182.671 22.3819C182.225 20.2442 181.696 17.4303 182.817 15.5883ZM183.426 51.2812C183.645 42.7485 183.407 34.2101 182.712 25.7029C182.986 25.9238 183.308 26.0795 183.651 26.1583C185.43 26.5777 186.326 24.7717 186.781 22.9923C187.479 24.3867 188.554 26.0597 189.953 25.6528C191.155 25.3007 191.698 23.8296 191.997 22.6136C192.592 23.6512 193.356 24.8202 194.521 24.9172C194.879 24.9346 195.237 24.87 195.566 24.7285C195.895 24.5869 196.188 24.3721 196.421 24.1003C197.217 22.9526 197.576 21.5581 197.432 20.169C197.522 20.1522 197.607 20.1178 197.682 20.0679C197.758 20.0179 197.823 19.9533 197.874 19.8779C199.254 17.8904 202.234 17.2394 201.329 20.1111C200.096 24.0236 196.215 27.0159 195.226 28.3822C194.002 30.0692 194.6 30.9096 195.67 48.0292C195.67 48.1199 195.736 48.3922 195.686 48.4642C195.512 48.7162 186.07 50.8117 183.776 51.2296C183.658 51.2387 183.541 51.256 183.426 51.2812ZM221.646 131.101C222.906 128.779 223.648 126.211 223.82 123.575C224.289 119.764 223.515 121.362 218.186 120.112C216.145 119.631 214.166 118.918 212.287 117.986C212.163 117.927 212.025 117.905 211.888 117.921C211.752 117.938 211.623 117.993 211.517 118.08C211.41 118.167 211.331 118.283 211.288 118.413C211.245 118.544 211.24 118.684 211.273 118.817C204.151 136.624 217.021 138.683 221.646 131.101ZM212.46 119.589C215.653 121.052 219.086 121.92 222.591 122.149C222.51 122.493 222.591 122.445 222.349 124.221C218.707 123.871 215.122 123.083 211.669 121.874C211.901 121.097 212.17 120.338 212.46 119.589ZM215.2 133.83C210.563 133.941 209.937 129.309 211.01 124.381C211.602 121.678 210.384 124.423 222.137 125.584C221.941 126.815 221.594 128.016 221.105 129.162C220.66 130.417 219.87 131.52 218.825 132.345C217.78 133.17 216.523 133.683 215.2 133.824V133.83ZM199.709 100.209C201.936 98.3382 204.312 96.6528 206.815 95.1701C206.969 95.0755 207.08 94.9242 207.124 94.7488C207.168 94.5734 207.141 94.3877 207.05 94.2316C206.958 94.0754 206.81 93.9613 206.635 93.9135C206.461 93.8657 206.275 93.8882 206.117 93.976C204.653 94.8477 196.137 100.299 196.605 101.943C196.816 102.688 197.653 102.882 198.301 103.056C202.203 104.117 206.189 104.839 210.215 105.214C211.103 105.3 211.096 103.917 210.215 103.832C208.129 103.632 206.055 103.338 203.994 102.95C196.728 101.576 197.905 101.724 199.709 100.209Z" fill="black"/>
<path d="M200.684 171.468C193.893 126.202 214.717 103.126 212.125 106.52C212.665 105.827 211.695 104.846 211.146 105.545C210.474 106.422 209.854 107.337 209.288 108.285C200.632 122.37 195.313 144.763 199.35 171.842C199.482 172.712 200.815 172.339 200.684 171.468ZM200.017 118.666C200.017 118.93 200.095 119.188 200.242 119.408C200.388 119.627 200.597 119.798 200.841 119.899C201.084 120 201.353 120.027 201.612 119.976C201.871 119.924 202.109 119.797 202.295 119.611C202.482 119.424 202.609 119.186 202.661 118.928C202.713 118.669 202.686 118.4 202.586 118.156C202.485 117.912 202.314 117.704 202.095 117.557C201.875 117.41 201.617 117.331 201.353 117.331C201.178 117.331 201.004 117.365 200.842 117.432C200.68 117.499 200.532 117.597 200.408 117.721C200.284 117.845 200.185 117.992 200.118 118.155C200.051 118.317 200.017 118.491 200.017 118.666ZM198.684 129.895C198.684 129.631 198.605 129.373 198.459 129.153C198.312 128.934 198.103 128.763 197.859 128.662C197.616 128.561 197.347 128.534 197.088 128.586C196.829 128.637 196.591 128.764 196.405 128.951C196.218 129.138 196.091 129.376 196.039 129.635C195.988 129.894 196.014 130.162 196.115 130.406C196.216 130.65 196.387 130.858 196.607 131.005C196.826 131.152 197.085 131.23 197.349 131.23C197.703 131.23 198.042 131.089 198.293 130.839C198.543 130.589 198.684 130.249 198.684 129.895Z" fill="black"/>
<path d="M193.816 143.706C193.816 144.06 193.957 144.4 194.207 144.65C194.458 144.9 194.797 145.041 195.151 145.041C195.505 145.041 195.845 144.9 196.095 144.65C196.346 144.4 196.486 144.06 196.486 143.706C196.486 143.352 196.346 143.012 196.095 142.762C195.845 142.512 195.505 142.371 195.151 142.371C194.797 142.371 194.458 142.512 194.207 142.762C193.957 143.012 193.816 143.352 193.816 143.706Z" fill="black"/>
<path d="M194.843 157.282C194.659 157.267 194.473 157.289 194.299 157.349C194.124 157.409 193.963 157.505 193.827 157.63C193.691 157.755 193.583 157.907 193.509 158.076C193.434 158.245 193.396 158.428 193.396 158.612C193.396 158.797 193.434 158.98 193.509 159.149C193.583 159.318 193.691 159.47 193.827 159.595C193.963 159.72 194.124 159.815 194.299 159.875C194.473 159.935 194.659 159.958 194.843 159.943C195.176 159.914 195.487 159.762 195.714 159.516C195.94 159.269 196.066 158.947 196.066 158.612C196.066 158.278 195.94 157.955 195.714 157.709C195.487 157.462 195.176 157.31 194.843 157.282ZM95.7971 193.434C95.7947 193.251 95.721 193.076 95.5918 192.947C95.4626 192.818 95.2881 192.744 95.1054 192.742L49.8909 193.096C49.7075 193.096 49.5315 193.168 49.4018 193.298C49.2721 193.428 49.1992 193.604 49.1992 193.787C49.1992 193.971 49.2721 194.147 49.4018 194.276C49.5315 194.406 49.7075 194.479 49.8909 194.479C55.4436 194.434 57.4327 194.404 94.4152 194.166L94.4528 214.434C94.4528 214.618 94.5256 214.794 94.6554 214.923C94.7851 215.053 94.961 215.126 95.1445 215.126C95.3279 215.126 95.5039 215.053 95.6336 214.923C95.7633 214.794 95.8362 214.618 95.8362 214.434L95.7971 193.434ZM50.6907 235.142C49.9895 235.842 50.8033 235.895 54.7487 241.415C54.8456 241.565 54.9966 241.672 55.1704 241.713C55.3441 241.755 55.5272 241.728 55.6814 241.637C55.8356 241.547 55.949 241.401 55.998 241.229C56.047 241.057 56.0278 240.873 55.9444 240.715C54.5818 238.81 53.1566 236.953 51.6688 235.142C51.5385 235.014 51.3628 234.942 51.1797 234.942C50.9967 234.942 50.821 235.014 50.6907 235.142ZM52.2463 227.654C56.3831 232.975 60.2899 238.463 63.9666 244.118C64.4501 244.861 65.6489 244.168 65.1607 243.418C61.4213 237.671 57.4426 232.09 53.2244 226.673C52.6798 225.973 51.7063 226.957 52.2463 227.654ZM64.1966 234.23L59.6581 229.197C59.5282 229.067 59.3521 228.994 59.1685 228.995C58.9849 228.995 58.8089 229.068 58.6792 229.198C58.5495 229.328 58.4767 229.504 58.4769 229.687C58.477 229.871 58.5501 230.047 58.68 230.177C60.1949 231.854 61.7077 233.531 63.2185 235.208C63.3489 235.334 63.5237 235.404 63.7052 235.403C63.8867 235.401 64.0604 235.329 64.1887 235.2C64.3171 235.072 64.3898 234.898 64.3913 234.717C64.3928 234.535 64.3229 234.36 64.1966 234.23Z" fill="black"/>
<path d="M85.411 247.649L47.8009 247.492L49.3659 223.219C49.4223 222.33 48.0388 222.333 47.9809 223.219C47.8009 226.023 46.4394 247.163 46.3721 248.181C46.3745 248.364 46.4484 248.539 46.5778 248.668C46.7073 248.798 46.8823 248.872 47.0654 248.874L85.4079 249.031C85.5855 249.023 85.7532 248.946 85.8761 248.818C85.9991 248.69 86.0679 248.519 86.0683 248.341C86.0687 248.163 86.0007 247.992 85.8783 247.863C85.7559 247.734 85.5886 247.658 85.411 247.649ZM160.312 256.125C153.412 258.303 150.789 255.906 150.382 257.33C150.334 257.506 150.358 257.695 150.448 257.854C150.539 258.013 150.688 258.13 150.864 258.18C154.148 258.7 157.507 258.453 160.68 257.46C161.526 257.192 161.165 255.856 160.312 256.125ZM30.4623 256.441L21.9847 256.441C21.8012 256.441 21.6253 256.514 21.4956 256.643C21.3658 256.773 21.293 256.949 21.293 257.133C21.293 257.316 21.3658 257.492 21.4956 257.622C21.6253 257.751 21.8012 257.824 21.9847 257.824L30.4623 257.824C30.6458 257.824 30.8217 257.751 30.9514 257.622C31.0812 257.492 31.154 257.316 31.154 257.133C31.154 256.949 31.0812 256.773 30.9514 256.643C30.8217 256.514 30.6458 256.441 30.4623 256.441ZM37.0556 262.092L26.6938 262.092C26.5103 262.092 26.3344 262.165 26.2047 262.295C26.0749 262.424 26.0021 262.6 26.0021 262.784C26.0021 262.967 26.0749 263.143 26.2047 263.273C26.3344 263.403 26.5103 263.476 26.6938 263.476L37.0556 263.476C37.2391 263.476 37.4151 263.403 37.5448 263.273C37.6745 263.143 37.7474 262.967 37.7474 262.784C37.7474 262.6 37.6745 262.424 37.5448 262.295C37.4151 262.165 37.2391 262.092 37.0556 262.092ZM113.83 267.823L96.8731 268.568C95.9842 268.607 95.981 269.991 96.8731 269.951L113.836 269.207C114.714 269.169 114.722 267.786 113.83 267.823ZM238.906 112.265C237.941 104.237 247.071 105.088 250.245 97.1473C250.77 95.8964 251.016 94.5458 250.964 93.19C250.912 91.8342 250.565 90.5061 249.946 89.2988C250.963 89.569 252.022 89.6407 253.066 89.5101C255.839 88.9968 256.608 86.0671 253.652 83.8761C252.351 83.1432 251.162 82.2295 250.118 81.1624C248.601 79.1483 249.14 76.3109 248.572 73.8523C247.035 67.1901 236.501 63.096 231.771 65.9209C231.901 65.3806 231.822 64.8115 231.55 64.327C231.278 63.8425 230.833 63.4784 230.305 63.3073C228.17 62.5107 223.97 64.4028 222.003 65.5515C221.562 65.9062 221.043 66.1504 220.489 66.2636C219.935 66.3769 219.362 66.356 218.818 66.2026C211.281 65.2151 203.313 70.9101 202.107 80.8901C201.124 89.0406 203.783 92.1941 208.461 94.202C209.109 97.8041 211.095 101.028 214.021 103.227C216.947 105.426 220.596 106.437 224.236 106.058C223.154 107.809 222.574 109.824 222.558 111.882C222.036 111.768 222.17 112.167 218.01 114.444C216.783 112.361 215.715 110.188 214.818 107.943C214.766 107.769 214.648 107.623 214.49 107.535C214.332 107.447 214.145 107.425 213.971 107.473C213.796 107.522 213.648 107.636 213.557 107.793C213.466 107.949 213.44 108.135 213.484 108.31C217.248 117.804 217.979 116.063 219.596 115.148C222.845 113.308 222.607 113.134 222.633 113.334C223.471 120.053 229.815 120.56 231.358 117.3C232.106 120.541 237.775 119.721 239.071 117.345C239.895 115.827 239.113 113.984 238.906 112.265ZM238.221 90.7809C230.922 114.462 203.842 104.919 210.65 85.2377C210.676 85.135 210.679 85.0278 210.658 84.924C210.637 84.8201 210.592 84.7225 210.528 84.6383C210.464 84.5541 210.381 84.4855 210.287 84.4378C210.192 84.3901 210.088 84.3645 209.982 84.3628C209.296 84.321 208.634 84.1006 208.06 83.7236C207.486 83.3465 207.021 82.8259 206.71 82.2135C206.399 81.601 206.254 80.9179 206.289 80.2321C206.324 79.5463 206.538 78.8815 206.909 78.3038C207.281 77.7261 207.796 77.2555 208.406 76.9388C209.015 76.6221 209.697 76.4703 210.383 76.4984C211.069 76.5265 211.736 76.7335 212.317 77.099C212.899 77.4644 213.374 77.9756 213.697 78.5817C213.752 78.6718 213.826 78.7484 213.914 78.8058C214.003 78.8632 214.103 78.9 214.207 78.9134C214.312 78.9267 214.418 78.9164 214.518 78.8831C214.618 78.8498 214.709 78.7944 214.785 78.721C222.438 71.3655 233.587 72.6848 237.502 78.4925C239.905 82.0498 239.484 86.6822 238.221 90.7809ZM247.583 247.653C244.753 249.826 241.791 251.82 238.712 253.622C241.18 258.097 249.528 272.872 252.458 273.538C255.911 274.321 256.854 265.219 254.656 259.253C252.901 255.05 250.516 251.138 247.583 247.653ZM208.846 196.351C206.545 200.708 195.019 232.082 204.116 252.616C204.476 253.428 205.669 252.726 205.312 251.918C202.573 245.331 201.407 238.197 201.905 231.082C202.468 219.501 207.886 201.127 210.043 197.048C210.456 196.262 209.262 195.562 208.846 196.351ZM270.699 203.741C267.183 205.306 274.826 222.124 274.826 222.124C274.826 222.124 280.617 240.789 283.956 241.354C287.296 241.919 287.471 223.41 284.166 212.558C280.861 201.707 274.216 202.179 270.699 203.741Z" fill="black"/>
<path d="M226.005 94.9769C225.535 94.0629 224.344 93.7249 223.49 93.3258C221.361 92.3258 220.89 90.2287 219.108 90.3789C216.917 90.5573 215.394 95.124 217.707 98.074C220.934 102.196 227.48 97.844 226.005 94.9769ZM224.753 96.1585C224.183 97.6421 220.997 99.6312 218.942 97.4105C217.122 95.4448 218.095 91.8923 219.203 91.7483C219.845 91.6638 220.976 93.6263 222.56 94.4088C224.264 95.2555 225.083 95.3102 224.757 96.1585H224.753ZM231.961 91.764C230.759 91.1489 228.072 91.0832 228.473 92.3195C228.823 93.4025 230.096 92.163 231.579 93.149C232.068 93.6042 232.377 94.2194 232.451 94.883C232.451 95.0665 232.524 95.2424 232.654 95.3721C232.783 95.5019 232.959 95.5747 233.143 95.5747C233.326 95.5747 233.502 95.5019 233.632 95.3721C233.762 95.2424 233.834 95.0665 233.834 94.883C233.802 94.2494 233.614 93.6335 233.287 93.0896C232.96 92.5457 232.505 92.0905 231.961 91.764ZM217.942 84.8733C218.562 84.7266 219.212 84.7691 219.807 84.9953C221.474 85.8107 220.66 87.695 221.76 87.6464C222.095 87.6308 222.504 87.3334 222.452 86.9547C221.826 82.2722 216.662 83.05 217.09 84.3912C217.142 84.5662 217.26 84.7143 217.419 84.8042C217.578 84.8941 217.765 84.9189 217.942 84.8733ZM234.053 85.3208C233.897 85.2336 233.713 85.2106 233.54 85.2566C233.367 85.3026 233.219 85.414 233.126 85.5673C233.034 85.7207 233.005 85.9039 233.045 86.0784C233.085 86.2529 233.191 86.4049 233.341 86.5024C233.947 86.9664 234.422 87.578 234.723 88.2787C235.285 89.7232 236.381 88.8468 236.158 88.1848C235.771 87.0348 235.035 86.0339 234.053 85.3208ZM221.114 80.1814C221.657 80.305 222.261 79.546 223.801 80.0922C224.751 80.4365 225.571 78.4036 222.61 78.5194C220.02 78.6227 220.444 80.0296 221.114 80.1814ZM270.186 92.1802C266.803 89.0877 263.909 85.4995 261.602 81.5382C261.505 81.3881 261.354 81.2812 261.181 81.2397C261.007 81.1983 260.824 81.2255 260.67 81.3157C260.515 81.4059 260.402 81.5522 260.353 81.724C260.304 81.8957 260.323 82.0798 260.407 82.2378C262.773 86.3005 265.74 89.9819 269.208 93.1568C269.864 93.7452 270.844 92.7749 270.186 92.1802ZM195.974 51.1772C192.1 52.7697 187.956 53.6038 183.767 53.6343C183.591 53.6461 183.427 53.7241 183.307 53.8525C183.187 53.981 183.12 54.1502 183.12 54.326C183.12 54.5018 183.187 54.6711 183.307 54.7995C183.427 54.9279 183.591 55.0059 183.767 55.0178C188.079 54.9936 192.347 54.1436 196.34 52.5138C197.141 52.1898 196.799 50.8455 195.974 51.1772ZM122.068 216.632L125.012 216.632L125.012 229.348L122.068 229.348L122.068 216.632Z" fill="black"/>
<path d="M130.767 193.787C130.764 193.605 130.69 193.431 130.561 193.302C130.432 193.173 130.258 193.099 130.075 193.096L102.758 192.859C102.575 192.861 102.4 192.935 102.271 193.065C102.141 193.194 102.068 193.37 102.066 193.553C102.592 254.392 102.489 246.118 102.536 247.149C102.523 247.333 102.584 247.514 102.705 247.652C102.826 247.791 102.997 247.875 103.181 247.888C103.364 247.9 103.545 247.839 103.684 247.719C103.822 247.598 103.907 247.427 103.919 247.243C103.45 192.565 103.494 194.381 103.491 194.251L129.371 194.473C129.371 194.662 128.324 259.107 128.322 259.137C128.322 259.321 128.395 259.497 128.525 259.626C128.655 259.756 128.831 259.829 129.014 259.829C129.198 259.829 129.374 259.756 129.503 259.626C129.633 259.497 129.706 259.321 129.706 259.137L130.767 193.787Z" fill="black"/>
</svg>
