<svg width="25" height="25" viewBox="0 0 25 25" fill="none" xmlns="http://www.w3.org/2000/svg">
<g clip-path="url(#clip0_75_7734)">
<path d="M25 18.75C25 19.4867 24.7073 20.1933 24.1864 20.7142C23.6655 21.2351 22.9589 21.5278 22.2222 21.5278H2.77778C2.04107 21.5278 1.33453 21.2351 0.813592 20.7142C0.292658 20.1933 0 19.4867 0 18.75V6.25001C0 5.51329 0.292658 4.80676 0.813592 4.28582C1.33453 3.76489 2.04107 3.47223 2.77778 3.47223H22.2222C22.9589 3.47223 23.6655 3.76489 24.1864 4.28582C24.7073 4.80676 25 5.51329 25 6.25001V18.75Z" fill="#D21C33"/>
<path d="M22.2222 3.47223H2.77778C2.04107 3.47223 1.33453 3.76489 0.813592 4.28582C0.292658 4.80676 0 5.51329 0 6.25001L0 12.5H25V6.25001C25 5.51329 24.7073 4.80676 24.1864 4.28582C23.6655 3.76489 22.9589 3.47223 22.2222 3.47223Z" fill="#00209F"/>
<path d="M8.33325 9.05624H16.6013V15.9722H8.33325V9.05624Z" fill="white"/>
<path d="M16.6013 15.0153C15.5603 14.4868 14.1506 14.1562 12.5034 14.1562C10.8576 14.1562 9.37422 14.4868 8.33325 15.0153V15.9722H16.6013V15.0153Z" fill="#006A16"/>
<path d="M10.7799 11.6111L11.5889 12.5215L11.4875 13.0924L11.3125 12.9931L11.1549 13.5889H11.1139L11.0396 13.9035L9.66528 13.7875L9.69862 12.8069L10.0299 12.9021L10.0701 11.9868L10.5514 12.3139L10.5757 11.7597L10.7799 11.6111Z" fill="#00209F"/>
<path d="M12.5034 13.3903V14.7806L11.4618 14.4743L11.1965 14.0854L11.0145 13.9528L11.1138 13.6014L11.2708 12.9931H11.5111L11.5701 12.4799L12.5034 13.3903ZM9.50829 12.7611C9.6326 12.6125 9.86454 12.7118 9.87218 12.7611C9.88052 12.8111 9.78121 12.8021 9.69024 12.8854C9.59927 12.9681 9.62427 13.2243 9.46663 13.1917C9.30968 13.1583 9.50829 12.7611 9.50829 12.7611ZM10.0701 11.9868C10.2305 11.8785 10.4264 12.0382 10.4201 12.0882C10.4139 12.1382 10.3208 12.1028 10.2111 12.157C10.1007 12.2111 10.0534 12.4646 9.91107 12.3889C9.76941 12.3132 10.0701 11.9868 10.0701 11.9868ZM10.7326 11.5132C10.9055 11.4264 11.0791 11.6104 11.0666 11.659C11.0541 11.7077 10.9326 11.6215 10.8166 11.6611C10.7 11.7007 10.6541 11.9847 10.5229 11.891C10.3916 11.7979 10.7326 11.5132 10.7326 11.5132Z" fill="#D21C33"/>
<path d="M10.3785 11.1271L10.9153 11.4542L10.8563 11.6111L12.3056 13.216V13.3403L10.7994 11.6521L10.6028 11.6194L10.3785 11.1271ZM9.6077 11.6111C9.6077 11.6111 10.1459 11.818 10.1459 11.843C10.1459 11.868 10.2445 12.0333 10.2445 12.0333L12.2056 13.6222L12.148 13.6972L10.2028 12.1083L9.92159 11.984L9.6077 11.6111ZM9.03687 12.4264C9.03687 12.4264 9.6577 12.5132 9.66603 12.5382C9.67437 12.5632 9.71603 12.7042 9.71603 12.7042L11.991 13.9451L11.8917 14.0035L9.67437 12.7778L9.41812 12.7611L9.03687 12.4264Z" fill="#F1B517"/>
<path d="M9.5749 13.6056L11.9131 13.891L11.6916 14.1576L11.345 14.1924L11.6041 14.5403L11.4791 14.6813L11.1312 14.3007C11.1312 14.3007 11.0235 14.8549 10.552 14.8549C10.0805 14.8549 9.93046 14.3833 9.93046 14.2257C9.93046 14.0681 9.97212 13.9861 9.97212 13.9861H9.5249L9.5749 13.6056Z" fill="#F1B517"/>
<path d="M14.1979 11.5611L13.3528 12.5632L13.3875 13.1417L13.6049 12.993L13.7618 13.5889H13.8035L13.8778 13.9035L15.2514 13.7875L15.2181 12.8069L14.8875 12.9021L14.8465 11.9868L14.366 12.3139L14.3403 11.7597L14.1979 11.5611Z" fill="#00209F"/>
<path d="M12.5034 13.3903V14.7806L13.5006 14.4743L13.743 14.0854L13.9138 13.9528L13.809 13.6014L13.6458 12.9931L13.4611 13.1306L13.3972 12.5632L12.5034 13.3903ZM15.4083 12.7611C15.2833 12.6125 15.0513 12.7118 15.0437 12.7611C15.0354 12.8111 15.1354 12.8021 15.2263 12.8854C15.3173 12.9681 15.293 13.2243 15.4499 13.1917C15.6069 13.1583 15.4083 12.7611 15.4083 12.7611ZM14.8465 11.9868C14.6861 11.8785 14.4909 12.0382 14.4965 12.0882C14.5027 12.1382 14.5958 12.1028 14.7062 12.157C14.8166 12.2111 14.8631 12.4646 15.0062 12.3889C15.1472 12.3132 14.8465 11.9868 14.8465 11.9868ZM14.1847 11.5132C14.0111 11.4264 13.8388 11.6104 13.8506 11.659C13.8631 11.7077 13.984 11.6215 14.0999 11.6611C14.2166 11.7007 14.2631 11.9847 14.3944 11.891C14.5256 11.7979 14.1847 11.5132 14.1847 11.5132Z" fill="#D21C33"/>
<path d="M14.5383 11.1271L14.0022 11.4542L14.1057 11.6111L12.7029 13.216V13.3403L14.1633 11.6521L14.3376 11.6194L14.5383 11.1271ZM15.3091 11.6111C15.3091 11.6111 14.7716 11.818 14.7716 11.843C14.7716 11.868 14.6723 12.0333 14.6723 12.0333L12.7112 13.6222L12.7695 13.6972L14.714 12.1083L14.9945 11.984L15.3091 11.6111ZM15.88 12.4264C15.88 12.4264 15.2591 12.5132 15.2515 12.5382C15.2425 12.5632 15.2022 12.7042 15.2022 12.7042L12.9265 13.9451L13.0258 14.0035L15.2432 12.7785L15.5001 12.7618L15.88 12.4264Z" fill="#F1B517"/>
<path d="M15.3424 13.6056L13.0049 13.891L13.2264 14.1576L13.5722 14.1924L13.3132 14.5403L13.4389 14.6813L13.7868 14.3007C13.7868 14.3007 13.8945 14.8549 14.366 14.8549C14.8382 14.8549 14.9868 14.3833 14.9868 14.2264C14.9868 14.0688 14.9459 13.9868 14.9459 13.9868H15.3924L15.3424 13.6056Z" fill="#F1B517"/>
<path d="M15.875 15.3764C15.875 15.3764 15.4652 15.391 15.0354 15.2979C14.6055 15.2042 14.5312 15.0361 14.3444 15.0736C14.1576 15.1111 13.7243 15.2715 13.3694 15.3174C13.0138 15.3618 12.5034 15.3771 12.5034 15.3771C12.5034 15.3771 12.034 15.3625 11.6784 15.3174C11.3229 15.2715 10.9305 15.1111 10.743 15.0736C10.5562 15.0361 10.4812 15.2049 10.0507 15.2979C9.62079 15.3917 9.20898 15.3764 9.20898 15.3764L9.32148 15.575L9.20898 15.6722C10.1819 15.6903 10.6312 15.3764 10.6312 15.3764C11.1173 15.6986 12.5034 15.7076 12.5034 15.7076C12.5034 15.7076 13.9312 15.6986 14.4173 15.3764C14.4173 15.3764 14.8868 15.6903 15.859 15.6722L15.7562 15.575L15.875 15.3764Z" fill="white"/>
<path d="M12.7027 12.4264C12.7027 13.4611 12.6124 14.3007 12.4999 14.3007C12.3881 14.3007 12.2971 13.4611 12.2971 12.4264C12.2971 11.391 12.3881 10.5521 12.4999 10.5521C12.6124 10.5521 12.7027 11.391 12.7027 12.4264Z" fill="#F1B517"/>
<path d="M12.1069 14.1847H12.9014V14.9799H12.1069V14.1847Z" fill="#D21C33"/>
<path d="M12.9507 14.1347C12.9507 14.2264 12.7604 14.3 12.5243 14.3C12.2889 14.3 12.0979 14.2257 12.0979 14.1347C12.0979 14.0438 12.2889 13.9695 12.5243 13.9695C12.7604 13.9695 12.9507 14.0438 12.9507 14.1347Z" fill="white"/>
<path d="M12.9507 14.9292C12.9507 15.0208 12.7604 15.0944 12.5243 15.0944C12.2889 15.0944 12.0979 15.0208 12.0979 14.9292C12.0979 14.8375 12.2889 14.7639 12.5243 14.7639C12.7604 14.7639 12.9507 14.8375 12.9507 14.9292Z" fill="#D21C33"/>
<path d="M14.2459 10.2042C14.0868 10.0139 13.6778 10.0222 13.4 10.0139C13.1229 10.0056 12.9827 10.1049 13.107 9.97292C13.2313 9.84097 13.4229 9.87431 13.625 9.86528C13.8278 9.85694 13.8632 9.83264 13.7389 9.76667C13.5455 9.66195 13.3193 9.63559 13.107 9.69306C12.8229 9.76597 12.6438 9.94306 12.4924 9.97361C12.341 9.94375 12.1514 9.76597 11.8674 9.69306C11.6533 9.63526 11.4252 9.6616 11.2299 9.76667C11.1056 9.83264 11.1389 9.85694 11.3417 9.86528C11.5445 9.87361 11.7341 9.84028 11.8584 9.97292C11.9827 10.1056 11.8417 10.0056 11.5646 10.0139C11.2875 10.0222 10.8778 10.0139 10.7188 10.2042C10.5597 10.3944 10.857 10.2701 11.0146 10.2451C11.1716 10.2201 11.4035 10.2125 11.4035 10.2125C11.4035 10.2125 11.0146 10.3278 10.907 10.4771C10.7993 10.6257 10.9396 10.7583 11.1389 10.6424C11.3375 10.5264 11.6438 10.3694 11.8091 10.3528C11.8091 10.3528 11.3785 10.5319 11.1882 10.6868C10.9979 10.8417 11.1972 10.825 11.3417 10.825C11.4861 10.825 11.6347 10.7674 11.7591 10.6757C11.8834 10.5847 11.6771 10.8576 11.6431 11.0319C11.6104 11.2056 11.8667 11.1646 11.9125 11.0319C11.9577 10.8993 12.1063 10.6347 12.1063 10.6347C12.1063 10.6347 12.041 11.0153 12.0493 11.2722C12.0577 11.5292 12.1424 11.5451 12.2084 11.4292C12.2743 11.3132 12.5035 11.4979 12.5035 11.4979C12.5035 11.4979 12.7118 11.3132 12.7778 11.4292C12.8445 11.5451 12.907 11.5285 12.9153 11.2722C12.9236 11.016 12.8577 10.6347 12.8577 10.6347C12.8577 10.6347 13.0063 10.8993 13.0521 11.0319C13.0972 11.1646 13.3542 11.2056 13.3209 11.0319C13.2882 10.8583 13.0813 10.5847 13.2056 10.6757C13.3299 10.7667 13.4785 10.825 13.6229 10.825C13.7681 10.825 13.9667 10.8417 13.7771 10.6868C13.5868 10.5319 13.1563 10.3528 13.1563 10.3528C13.3222 10.3694 13.6278 10.5264 13.8264 10.6424C14.025 10.7583 14.1653 10.6257 14.0577 10.4771C13.95 10.3278 13.5611 10.2125 13.5611 10.2125C13.5611 10.2125 13.7931 10.2208 13.9507 10.2451C14.1077 10.2708 14.4049 10.3944 14.2459 10.2042Z" fill="#006A16"/>
</g>
<defs>
<clipPath id="clip0_75_7734">
<rect width="25" height="25" fill="white"/>
</clipPath>
</defs>
</svg>
