<svg width="307" height="307" viewBox="0 0 307 307" fill="none" xmlns="http://www.w3.org/2000/svg">
<path d="M75.3671 122.147C95.4416 117.363 115.823 114.033 136.384 112.261C146.27 111.407 156.259 110.721 166.182 110.786C172.914 110.831 180.416 111.442 186.227 115.204C193.81 120.114 193.236 129.056 191.983 136.971C190.426 146.842 189.28 156.725 188.956 166.722C188.684 175.239 188.356 184.467 191.417 192.581C194.174 199.901 199.613 205.211 206.925 207.945C224.39 214.492 246.197 208.225 261.313 198.702C264.842 196.476 261.478 190.918 257.929 193.154C250.238 197.998 241.749 201.367 232.787 202.944C224.921 204.32 215.997 204.696 208.448 201.626C200.315 198.317 196.708 190.962 195.752 182.599C194.676 173.147 195.373 163.292 196.248 153.855C197.648 138.806 205.045 118.685 188.695 109.127C182.718 105.628 175.509 104.632 168.692 104.358C159.384 103.991 149.946 104.707 140.677 105.42C118.055 107.121 95.5771 110.669 73.5112 115.931C69.4484 116.896 71.2847 123.133 75.3575 122.167L75.3671 122.147Z" fill="#D5F457"/>
<path d="M48.195 133.555L103.498 135.887C107.682 136.059 107.541 129.561 103.377 129.388L52.9988 127.265C59.5686 115.36 75.1334 110.1 85.2738 101.96C88.5258 99.3492 83.8116 94.8661 80.5891 97.4465C67.9458 107.603 50.7389 112.774 44.9891 129.504C44.2584 131.628 46.2533 133.481 48.195 133.555Z" fill="#D5F457"/>
</svg>
