<svg width="25" height="25" viewBox="0 0 25 25" fill="none" xmlns="http://www.w3.org/2000/svg">
<g clip-path="url(#clip0_75_7689)">
<path d="M0 18.75C0 19.4867 0.292658 20.1932 0.813592 20.7142C1.33453 21.2351 2.04107 21.5278 2.77778 21.5278H22.2222C22.9589 21.5278 23.6655 21.2351 24.1864 20.7142C24.7073 20.1932 25 19.4867 25 18.75V15.2778H0V18.75Z" fill="#138808"/>
<path d="M25 9.72223V6.25001C25 5.51329 24.7073 4.80676 24.1864 4.28582C23.6655 3.76489 22.9589 3.47223 22.2222 3.47223H2.77778C2.04107 3.47223 1.33453 3.76489 0.813592 4.28582C0.292658 4.80676 0 5.51329 0 6.25001L0 9.72223H25Z" fill="#FF9933"/>
<path d="M0 9.49097H25V15.5097H0V9.49097Z" fill="#F7F7F7"/>
<path d="M12.4999 15.2778C14.0341 15.2778 15.2777 14.0341 15.2777 12.5C15.2777 10.9659 14.0341 9.72223 12.4999 9.72223C10.9658 9.72223 9.72217 10.9659 9.72217 12.5C9.72217 14.0341 10.9658 15.2778 12.4999 15.2778Z" fill="#000080"/>
<path d="M12.5 14.8438C13.7944 14.8438 14.8438 13.7944 14.8438 12.5C14.8438 11.2056 13.7944 10.1562 12.5 10.1562C11.2056 10.1562 10.1562 11.2056 10.1562 12.5C10.1562 13.7944 11.2056 14.8438 12.5 14.8438Z" fill="#F7F7F7"/>
<path d="M12.5695 11.6319L12.5001 12.0833L12.4306 11.6319L12.5001 10.2778L12.5695 11.6319ZM11.9251 10.3535L12.2084 11.6792L12.3924 12.0972L12.3424 11.6437L11.9251 10.3535ZM11.3889 10.5757L12.0056 11.7826L12.2917 12.1389L12.1264 11.7132L11.3889 10.5757ZM10.9285 10.9285L11.8369 11.9354L12.2056 12.2055L11.9355 11.8368L10.9285 10.9285ZM10.5757 11.3889L11.7132 12.1264L12.1389 12.2917L11.7827 12.0055L10.5757 11.3889ZM10.3535 11.925L11.6438 12.3424L12.0973 12.3924L11.6792 12.2083L10.3535 11.925ZM10.2778 12.5L11.632 12.5694L12.0834 12.5L11.632 12.4305L10.2778 12.5ZM10.3535 13.075L11.6792 12.7917L12.0973 12.6076L11.6438 12.6576L10.3535 13.075ZM10.5757 13.6111L11.7827 12.9944L12.1389 12.7083L11.7132 12.8736L10.5757 13.6111ZM10.9285 14.0715L11.9355 13.1632L12.2056 12.7944L11.8369 13.0646L10.9285 14.0715ZM11.3889 14.4243L12.1264 13.2868L12.2917 12.8611L12.0056 13.2174L11.3889 14.4243ZM11.9251 14.6465L12.3424 13.3562L12.3924 12.9028L12.2084 13.3208L11.9251 14.6465ZM12.5001 14.7222L12.5695 13.368L12.5001 12.9167L12.4306 13.368L12.5001 14.7222ZM13.0751 14.6465L12.7917 13.3208L12.6077 12.9028L12.6577 13.3562L13.0751 14.6465ZM13.6112 14.4243L12.9945 13.2174L12.7084 12.8611L12.8737 13.2868L13.6112 14.4243ZM14.0716 14.0715L13.1632 13.0646L12.7945 12.7944L13.0646 13.1632L14.0716 14.0715ZM14.4244 13.6111L13.2869 12.8736L12.8612 12.7083L13.2174 12.9944L14.4244 13.6111ZM14.6466 13.075L13.3563 12.6576L12.9028 12.6076L13.3209 12.7917L14.6466 13.075ZM14.7223 12.5L13.3681 12.4305L12.9167 12.5L13.3681 12.5694L14.7223 12.5ZM14.6466 11.925L13.3209 12.2083L12.9028 12.3924L13.3563 12.3424L14.6466 11.925ZM14.4244 11.3889L13.2174 12.0055L12.8612 12.2917L13.2869 12.1264L14.4244 11.3889ZM14.0716 10.9285L13.0646 11.8368L12.7945 12.2055L13.1632 11.9354L14.0716 10.9285ZM13.6112 10.5757L12.8737 11.7132L12.7084 12.1389L12.9945 11.7826L13.6112 10.5757ZM13.0751 10.3535L12.6577 11.6437L12.6077 12.0972L12.7917 11.6792L13.0751 10.3535Z" fill="#6666B3"/>
<path d="M12.1946 10.3188C12.2713 10.3188 12.3334 10.2566 12.3334 10.1799C12.3334 10.1032 12.2713 10.041 12.1946 10.041C12.1178 10.041 12.0557 10.1032 12.0557 10.1799C12.0557 10.2566 12.1178 10.3188 12.1946 10.3188Z" fill="#000080"/>
<path d="M11.6042 10.4771C11.6809 10.4771 11.7431 10.4149 11.7431 10.3382C11.7431 10.2615 11.6809 10.1993 11.6042 10.1993C11.5275 10.1993 11.4653 10.2615 11.4653 10.3382C11.4653 10.4149 11.5275 10.4771 11.6042 10.4771Z" fill="#000080"/>
<path d="M11.0749 10.782C11.1516 10.782 11.2138 10.7198 11.2138 10.6431C11.2138 10.5664 11.1516 10.5042 11.0749 10.5042C10.9982 10.5042 10.936 10.5664 10.936 10.6431C10.936 10.7198 10.9982 10.782 11.0749 10.782Z" fill="#000080"/>
<path d="M10.643 11.2139C10.7197 11.2139 10.7819 11.1517 10.7819 11.075C10.7819 10.9983 10.7197 10.9361 10.643 10.9361C10.5663 10.9361 10.5042 10.9983 10.5042 11.075C10.5042 11.1517 10.5663 11.2139 10.643 11.2139Z" fill="#000080"/>
<path d="M10.3384 11.7431C10.4151 11.7431 10.4772 11.6809 10.4772 11.6042C10.4772 11.5275 10.4151 11.4653 10.3384 11.4653C10.2616 11.4653 10.1995 11.5275 10.1995 11.6042C10.1995 11.6809 10.2616 11.7431 10.3384 11.7431Z" fill="#000080"/>
<path d="M10.1799 12.3334C10.2566 12.3334 10.3188 12.2712 10.3188 12.1945C10.3188 12.1178 10.2566 12.0556 10.1799 12.0556C10.1032 12.0556 10.041 12.1178 10.041 12.1945C10.041 12.2712 10.1032 12.3334 10.1799 12.3334Z" fill="#000080"/>
<path d="M10.1799 12.9445C10.2566 12.9445 10.3188 12.8823 10.3188 12.8056C10.3188 12.7289 10.2566 12.6667 10.1799 12.6667C10.1032 12.6667 10.041 12.7289 10.041 12.8056C10.041 12.8823 10.1032 12.9445 10.1799 12.9445Z" fill="#000080"/>
<path d="M10.3384 13.5347C10.4151 13.5347 10.4772 13.4726 10.4772 13.3958C10.4772 13.3191 10.4151 13.257 10.3384 13.257C10.2616 13.257 10.1995 13.3191 10.1995 13.3958C10.1995 13.4726 10.2616 13.5347 10.3384 13.5347Z" fill="#000080"/>
<path d="M10.643 14.0639C10.7197 14.0639 10.7819 14.0017 10.7819 13.925C10.7819 13.8483 10.7197 13.7861 10.643 13.7861C10.5663 13.7861 10.5042 13.8483 10.5042 13.925C10.5042 14.0017 10.5663 14.0639 10.643 14.0639Z" fill="#000080"/>
<path d="M11.0749 14.4959C11.1516 14.4959 11.2138 14.4337 11.2138 14.357C11.2138 14.2803 11.1516 14.2181 11.0749 14.2181C10.9982 14.2181 10.936 14.2803 10.936 14.357C10.936 14.4337 10.9982 14.4959 11.0749 14.4959Z" fill="#000080"/>
<path d="M11.6042 14.8007C11.6809 14.8007 11.7431 14.7385 11.7431 14.6618C11.7431 14.5851 11.6809 14.5229 11.6042 14.5229C11.5275 14.5229 11.4653 14.5851 11.4653 14.6618C11.4653 14.7385 11.5275 14.8007 11.6042 14.8007Z" fill="#000080"/>
<path d="M12.1946 14.9591C12.2713 14.9591 12.3334 14.8969 12.3334 14.8202C12.3334 14.7435 12.2713 14.6813 12.1946 14.6813C12.1178 14.6813 12.0557 14.7435 12.0557 14.8202C12.0557 14.8969 12.1178 14.9591 12.1946 14.9591Z" fill="#000080"/>
<path d="M12.8056 14.9591C12.8823 14.9591 12.9445 14.8969 12.9445 14.8202C12.9445 14.7435 12.8823 14.6813 12.8056 14.6813C12.7289 14.6813 12.6667 14.7435 12.6667 14.8202C12.6667 14.8969 12.7289 14.9591 12.8056 14.9591Z" fill="#000080"/>
<path d="M13.396 14.8007C13.4727 14.8007 13.5349 14.7385 13.5349 14.6618C13.5349 14.5851 13.4727 14.5229 13.396 14.5229C13.3193 14.5229 13.2571 14.5851 13.2571 14.6618C13.2571 14.7385 13.3193 14.8007 13.396 14.8007Z" fill="#000080"/>
<path d="M13.925 14.4959C14.0017 14.4959 14.0639 14.4337 14.0639 14.357C14.0639 14.2803 14.0017 14.2181 13.925 14.2181C13.8483 14.2181 13.7861 14.2803 13.7861 14.357C13.7861 14.4337 13.8483 14.4959 13.925 14.4959Z" fill="#000080"/>
<path d="M14.3569 14.0639C14.4336 14.0639 14.4958 14.0017 14.4958 13.925C14.4958 13.8483 14.4336 13.7861 14.3569 13.7861C14.2802 13.7861 14.218 13.8483 14.218 13.925C14.218 14.0017 14.2802 14.0639 14.3569 14.0639Z" fill="#000080"/>
<path d="M14.6618 13.5347C14.7385 13.5347 14.8007 13.4726 14.8007 13.3958C14.8007 13.3191 14.7385 13.257 14.6618 13.257C14.5851 13.257 14.5229 13.3191 14.5229 13.3958C14.5229 13.4726 14.5851 13.5347 14.6618 13.5347Z" fill="#000080"/>
<path d="M14.8203 12.9445C14.897 12.9445 14.9592 12.8823 14.9592 12.8056C14.9592 12.7289 14.897 12.6667 14.8203 12.6667C14.7436 12.6667 14.6814 12.7289 14.6814 12.8056C14.6814 12.8823 14.7436 12.9445 14.8203 12.9445Z" fill="#000080"/>
<path d="M14.8203 12.3334C14.897 12.3334 14.9592 12.2712 14.9592 12.1945C14.9592 12.1178 14.897 12.0556 14.8203 12.0556C14.7436 12.0556 14.6814 12.1178 14.6814 12.1945C14.6814 12.2712 14.7436 12.3334 14.8203 12.3334Z" fill="#000080"/>
<path d="M14.6618 11.7431C14.7385 11.7431 14.8007 11.6809 14.8007 11.6042C14.8007 11.5275 14.7385 11.4653 14.6618 11.4653C14.5851 11.4653 14.5229 11.5275 14.5229 11.6042C14.5229 11.6809 14.5851 11.7431 14.6618 11.7431Z" fill="#000080"/>
<path d="M14.3569 11.2139C14.4336 11.2139 14.4958 11.1517 14.4958 11.075C14.4958 10.9983 14.4336 10.9361 14.3569 10.9361C14.2802 10.9361 14.218 10.9983 14.218 11.075C14.218 11.1517 14.2802 11.2139 14.3569 11.2139Z" fill="#000080"/>
<path d="M13.925 10.782C14.0017 10.782 14.0639 10.7198 14.0639 10.6431C14.0639 10.5664 14.0017 10.5042 13.925 10.5042C13.8483 10.5042 13.7861 10.5664 13.7861 10.6431C13.7861 10.7198 13.8483 10.782 13.925 10.782Z" fill="#000080"/>
<path d="M13.396 10.4771C13.4727 10.4771 13.5349 10.4149 13.5349 10.3382C13.5349 10.2615 13.4727 10.1993 13.396 10.1993C13.3193 10.1993 13.2571 10.2615 13.2571 10.3382C13.2571 10.4149 13.3193 10.4771 13.396 10.4771Z" fill="#000080"/>
<path d="M12.8056 10.3188C12.8823 10.3188 12.9445 10.2566 12.9445 10.1799C12.9445 10.1032 12.8823 10.041 12.8056 10.041C12.7289 10.041 12.6667 10.1032 12.6667 10.1799C12.6667 10.2566 12.7289 10.3188 12.8056 10.3188Z" fill="#000080"/>
<path d="M12.5 13.125C12.8452 13.125 13.125 12.8452 13.125 12.5C13.125 12.1548 12.8452 11.875 12.5 11.875C12.1548 11.875 11.875 12.1548 11.875 12.5C11.875 12.8452 12.1548 13.125 12.5 13.125Z" fill="#000080"/>
</g>
<defs>
<clipPath id="clip0_75_7689">
<rect width="25" height="25" fill="white"/>
</clipPath>
</defs>
</svg>
