<svg width="25" height="25" viewBox="0 0 25 25" fill="none" xmlns="http://www.w3.org/2000/svg">
<g clip-path="url(#clip0_75_7753)">
<path d="M22.2222 3.47223H2.77778C2.04107 3.47223 1.33453 3.76489 0.813592 4.28582C0.292658 4.80676 0 5.51329 0 6.25001L0 18.75C0 19.4867 0.292658 20.1933 0.813592 20.7142C1.33453 21.2351 2.04107 21.5278 2.77778 21.5278H22.2222C22.9589 21.5278 23.6655 21.2351 24.1864 20.7142C24.7073 20.1933 25 19.4867 25 18.75V6.25001C25 5.51329 24.7073 4.80676 24.1864 4.28582C23.6655 3.76489 22.9589 3.47223 22.2222 3.47223Z" fill="#009B3A"/>
<path d="M24.8347 19.6951C24.9417 19.4 25 19.082 25 18.75V6.25001C25 5.91876 24.9417 5.6007 24.8354 5.30626L24.8347 5.30487L14.8722 12.5L24.8347 19.6951ZM10.1278 12.5L0.165279 5.30487C0.0556404 5.60767 -0.000291894 5.92797 1.14551e-06 6.25001V18.75C1.14551e-06 19.082 0.0583345 19.4 0.165279 19.6951L10.1278 12.5Z" fill="#141414"/>
<path d="M22.5937 3.49652L12.5 10.7868L2.40622 3.49652C1.90334 3.56476 1.42801 3.76927 1.033 4.08789C0.637999 4.40651 0.337678 4.82711 0.164551 5.30416L10.1277 12.5L0.165245 19.6951L0.16594 19.6972C0.339092 20.1735 0.639108 20.5935 1.03357 20.9117C1.42804 21.2299 1.90196 21.4343 2.40413 21.5028H2.40691L12.5 14.2132L22.593 21.5028C23.0958 21.4347 23.5703 21.2305 23.9653 20.9121C24.3603 20.5937 24.6607 20.1734 24.834 19.6965L24.8347 19.6944L14.8722 12.5L24.8347 5.30485C24.6618 4.82759 24.3616 4.40677 23.9665 4.088C23.5715 3.76923 23.0967 3.56468 22.5937 3.49652Z" fill="#FFD202"/>
</g>
<defs>
<clipPath id="clip0_75_7753">
<rect width="25" height="25" fill="white"/>
</clipPath>
</defs>
</svg>
