<svg width="25" height="25" viewBox="0 0 25 25" fill="none" xmlns="http://www.w3.org/2000/svg">
<g clip-path="url(#clip0_75_7677)">
<path d="M25 18.75C25 19.4867 24.7073 20.1933 24.1864 20.7142C23.6655 21.2351 22.9589 21.5278 22.2222 21.5278H2.77778C2.04107 21.5278 1.33453 21.2351 0.813592 20.7142C0.292658 20.1933 0 19.4867 0 18.75V6.25001C0 5.51329 0.292658 4.80676 0.813592 4.28582C1.33453 3.76489 2.04107 3.47223 2.77778 3.47223H22.2222C22.9589 3.47223 23.6655 3.76489 24.1864 4.28582C24.7073 4.80676 25 5.51329 25 6.25001V18.75Z" fill="#006600"/>
<path d="M0 9.02777H25V15.9722H0V9.02777Z" fill="#BB1600"/>
<path d="M22.2222 3.47223H2.77778C2.04107 3.47223 1.33453 3.76489 0.813592 4.28582C0.292658 4.80676 0 5.51329 0 6.25001L0 9.02778H25V6.25001C25 5.51329 24.7073 4.80676 24.1864 4.28582C23.6655 3.76489 22.9589 3.47223 22.2222 3.47223Z" fill="#141414"/>
<path d="M0 9.02777H25V9.72222H0V9.02777ZM0 15.2778H25V15.9722H0V15.2778Z" fill="#EEEEEE"/>
<path d="M16.0097 6.53054C15.9638 6.50346 15.8805 6.59235 15.4583 7.0611C15.3083 7.22777 15.1208 7.4354 14.9131 7.65832C14.4909 8.11179 14.0493 8.6729 14.3694 9.00207L9.32425 17.4819C9.31661 17.4944 9.31106 17.5146 9.32633 17.5423C9.35016 17.5757 9.38057 17.6038 9.41569 17.625C9.4508 17.6461 9.48988 17.6598 9.5305 17.6653H9.53258C9.56453 17.6653 9.57981 17.6507 9.58744 17.6382L14.6347 9.15554C15.0694 9.25832 15.3458 8.6111 15.5409 8.03332C15.6381 7.74374 15.7312 7.48054 15.8055 7.26943C16.0152 6.67499 16.0527 6.55624 16.0097 6.53054Z" fill="#141414"/>
<path d="M15.4895 7.08889C15.3395 7.25555 15.152 7.46319 14.9437 7.6868C14.3284 8.34791 14.1631 8.74791 14.4097 8.98403L14.4222 8.99514L9.35966 17.5035C9.35689 17.509 9.36036 17.5181 9.36314 17.5222C9.40406 17.5762 9.46428 17.6123 9.53119 17.6229H9.53258C9.53953 17.6229 9.54855 17.6222 9.55203 17.616L14.6069 9.12014L14.6152 9.10625L14.6305 9.11041C14.9486 9.20069 15.218 8.86389 15.5013 8.01875C15.5986 7.72916 15.6916 7.46597 15.7659 7.25416C15.8826 6.9243 15.984 6.6368 15.984 6.57083C15.927 6.60278 15.7236 6.82916 15.4895 7.08889Z" fill="white"/>
<path d="M10.6305 9.00208C10.9506 8.67291 10.5096 8.1118 10.0867 7.65833C9.87908 7.43472 9.69158 7.22778 9.54158 7.06111C9.11936 6.59305 9.03603 6.50347 8.99019 6.53055C8.94714 6.55694 8.98464 6.675 9.19367 7.26875C9.26797 7.47986 9.36103 7.74305 9.45825 8.03264C9.65269 8.61111 9.92908 9.25764 10.3645 9.15486L15.4117 17.6375C15.4194 17.65 15.4346 17.6646 15.4666 17.6646H15.4687C15.5093 17.6591 15.5484 17.6454 15.5835 17.6243C15.6186 17.6031 15.649 17.575 15.6728 17.5417C15.6874 17.5139 15.6826 17.4937 15.6749 17.4812L10.6305 9.00208Z" fill="#141414"/>
<path d="M10.5903 8.98403C10.8369 8.74792 10.6723 8.34792 10.0563 7.68681C9.84798 7.4632 9.66118 7.25556 9.51048 7.08889C9.27645 6.82917 9.07229 6.60278 9.01465 6.57153C9.01465 6.63751 9.11604 6.925 9.2327 7.25487C9.30701 7.46667 9.40076 7.72987 9.49729 8.01945C9.78131 8.86459 10.0501 9.20139 10.3681 9.11112L10.3834 9.10695L10.3917 9.12084L15.4466 17.6167C15.4501 17.6229 15.4598 17.6236 15.466 17.6236H15.4674C15.5344 17.6133 15.5948 17.5771 15.6355 17.5229C15.6383 17.5181 15.6417 17.509 15.639 17.5042L10.5765 8.99584L10.5903 8.98403Z" fill="white"/>
<path d="M12.5125 7.2625L12.5 7.25278L12.4875 7.2625C10.757 8.56111 9.91528 10.2701 9.91528 12.4868C9.91528 14.7035 10.7563 16.4125 12.4875 17.7118L12.5 17.7208L12.5125 17.7118C14.2431 16.4132 15.0847 14.7042 15.0847 12.4868C15.0847 10.2694 14.2431 8.55972 12.5125 7.2625Z" fill="#141414"/>
<path d="M14.4994 9.7632C14.0806 8.81668 13.4223 7.99932 12.4994 7.30487C11.5785 7.99862 10.9209 8.81459 10.5015 9.75834C10.866 10.5785 11.0445 11.4722 11.0445 12.4924C11.0445 13.5111 10.8667 14.4028 10.5035 15.2201C10.923 16.1618 11.5799 16.9764 12.4987 17.6695C13.4195 16.9757 14.0772 16.1597 14.4959 15.2153C14.1341 14.3972 13.957 13.5063 13.957 12.4924C13.9584 11.4771 14.1362 10.5847 14.4994 9.7632Z" fill="#BB1600"/>
<path d="M12.5 13.1437C12.7125 13.1437 12.8854 12.8493 12.8854 12.4868C12.8854 12.1243 12.7125 11.8292 12.5 11.8292C12.2875 11.8292 12.1153 12.1236 12.1153 12.4868C12.1146 12.8493 12.2875 13.1437 12.5 13.1437ZM12.3396 11.4097C11.991 10.8965 11.8215 10.2451 11.8215 9.45068C11.8215 8.65554 11.991 8.00415 12.3396 7.49026V11.4097ZM12.6604 11.4097C13.0083 10.8965 13.1771 10.2451 13.1771 9.45068C13.1771 8.65554 13.0083 8.00415 12.6604 7.49026V11.4097ZM12.3396 13.5625C11.991 14.075 11.8215 14.7271 11.8215 15.5215C11.8215 16.3173 11.991 16.9673 12.3396 17.4812V13.5625ZM12.6604 13.5625C13.0083 14.075 13.1771 14.7271 13.1771 15.5215C13.1771 16.3173 13.0083 16.9673 12.6604 17.4812V13.5625Z" fill="white"/>
</g>
<defs>
<clipPath id="clip0_75_7677">
<rect width="25" height="25" fill="white"/>
</clipPath>
</defs>
</svg>
