<svg width="18" height="25" viewBox="0 0 18 25" fill="none" xmlns="http://www.w3.org/2000/svg">
<path d="M15.75 2.03828C15.5126 1.07422 15.0643 0.78125 14.625 0.78125H3.375C2.93569 0.78125 2.48737 1.07422 2.25 2.03828L0.5625 8.59375C0.5625 11.4258 1.44169 11.7188 2.25 11.7188C3.11119 11.7188 3.9375 11.1656 3.9375 10.1562C3.9375 11.1656 4.76381 11.7188 5.625 11.7188C6.48619 11.7188 7.3125 11.1656 7.3125 10.1562C7.3125 11.1656 8.13881 11.7188 9 11.7188C9.86119 11.7188 10.6875 11.1656 10.6875 10.1562C10.6875 11.1656 11.5138 11.7188 12.375 11.7188C13.2362 11.7188 14.0625 11.1656 14.0625 10.1562C14.0625 11.1656 14.8888 11.7188 15.75 11.7188C16.5589 11.7188 17.4375 11.4258 17.4375 8.59375L15.75 2.03828ZM14.0625 12.7078C13.6018 13.0727 13.0236 13.2812 12.375 13.2812C11.7264 13.2812 11.1482 13.0727 10.6875 12.7078C10.2268 13.0727 9.64856 13.2812 9 13.2812C8.35144 13.2812 7.77319 13.0727 7.3125 12.7078C6.85181 13.0727 6.27356 13.2812 5.625 13.2812C4.97644 13.2812 4.39819 13.0727 3.9375 12.7078C3.47681 13.0727 2.89856 13.2812 2.25 13.2812C2.06606 13.2812 1.8765 13.2617 1.6875 13.2211V22.6562C1.6875 23.5156 2.19375 24.2188 2.8125 24.2188H3.9375V16.4062H7.3125V24.2188H15.1875C15.8063 24.2188 16.3125 23.5156 16.3125 22.6562V13.2211C16.1235 13.2617 15.9339 13.2812 15.75 13.2812C15.1014 13.2812 14.5232 13.0727 14.0625 12.7078ZM14.0625 21.0938H9.5625V16.4062H14.0625V21.0938Z" fill="#601124"/>
</svg>
