<svg width="25" height="25" viewBox="0 0 25 25" fill="none" xmlns="http://www.w3.org/2000/svg">
<g clip-path="url(#clip0_75_7787)">
<path d="M2.77778 3.47223C2.04107 3.47223 1.33453 3.76489 0.813592 4.28582C0.292658 4.80676 0 5.51329 0 6.25001L0 18.75C0 19.4867 0.292658 20.1933 0.813592 20.7142C1.33453 21.2351 2.04107 21.5278 2.77778 21.5278H8.33333V3.47223H2.77778Z" fill="#009A49"/>
<path d="M8.33325 3.47223H16.6666V21.5278H8.33325V3.47223Z" fill="#EEEEEE"/>
<path d="M22.2223 3.47223H16.6667V21.5278H22.2223C22.959 21.5278 23.6656 21.2351 24.1865 20.7142C24.7074 20.1933 25.0001 19.4867 25.0001 18.75V6.25001C25.0001 5.51329 24.7074 4.80676 24.1865 4.28582C23.6656 3.76489 22.959 3.47223 22.2223 3.47223Z" fill="#009A49"/>
</g>
<defs>
<clipPath id="clip0_75_7787">
<rect width="25" height="25" fill="white"/>
</clipPath>
</defs>
</svg>
