<svg width="30" height="28" viewBox="0 0 30 28" fill="none" xmlns="http://www.w3.org/2000/svg">
<mask id="mask0_2544_10541" style="mask-type:luminance" maskUnits="userSpaceOnUse" x="0" y="0" width="30" height="28">
<path d="M0 0H29.7779V28H0V0Z" fill="white"/>
</mask>
<g mask="url(#mask0_2544_10541)">
<path d="M14.6763 10.9778H0.188632C0.188632 10.9778 -0.628808 20.2717 9.15487 24.7633C9.15487 24.7633 7.58508 25.886 7.96179 27.8805H14.4821C12.9774 27.3832 11.5368 26.57 10.7844 25.3833L9.77808 23.8861L11.4717 24.5702C12.0362 24.7569 12.5367 24.9447 13.1012 25.0675V24.9447L13.0361 24.5061C12.971 23.4475 13.289 22.073 13.6647 21.0731C14.671 18.5173 16.7989 16.955 19.375 16.1428C22.0738 15.271 24.078 13.3352 25.4599 10.9661H14.6763V10.9778ZM17.0582 3.36901C17.0582 3.36901 11.7246 4.24087 12.7298 9.85517L14.1118 7.67391C14.1118 7.67391 14.0478 9.60973 13.5473 10.4805C13.5473 10.4805 18.4391 7.98338 17.0582 3.36901ZM5.20426 0C5.20426 0 13.0414 1.24644 11.6019 9.60973L9.59667 6.30475C9.59667 6.30475 9.6607 9.17646 10.4141 10.4869C10.4077 10.4805 3.13398 6.86074 5.20426 0ZM16.8693 10.4165H22.203L25.3372 4.98895C26.5303 4.98895 27.4715 4.05305 27.4715 2.86638C27.4715 1.67863 26.5303 0.74274 25.3372 0.74274C24.1431 0.74274 23.2018 1.67863 23.2018 2.86638C23.2018 3.11716 23.2018 3.36367 23.3256 3.61445L16.8693 10.4165ZM25.3372 1.31047C26.0895 1.31047 26.7181 1.80776 26.8419 2.49821C26.589 2.05854 26.0895 1.8131 25.525 1.8131C24.6489 1.8131 23.9552 2.49821 23.9552 3.37541C23.9552 3.49813 23.9552 3.62619 24.0193 3.74891C23.8314 3.49813 23.7663 3.18759 23.7663 2.87812C23.7663 1.99451 24.4611 1.31047 25.3372 1.31047ZM27.9709 6.73801C27.9709 6.73801 25.9658 14.6627 19.5682 16.6572C13.1716 18.7158 13.6711 25.0792 13.6711 25.0792C13.6711 25.0792 21.3204 26.1378 26.8419 18.0317C26.8419 18.0317 21.1326 28.9508 11.2251 25.0792C14.5472 30.1909 35.4325 30.9389 27.9709 6.73801ZM5.39208 20.897C2.19382 16.6572 2.50542 12.1015 2.50542 12.1015H1.31768C1.4404 13.4109 1.75842 14.7854 2.13512 15.844C2.82237 17.8386 3.95142 19.5225 5.39208 20.897Z" fill="#326417"/>
</g>
</svg>
