<svg width="56" height="34" viewBox="0 0 56 34" fill="none" xmlns="http://www.w3.org/2000/svg">
<path d="M54.6053 29.9233C55.6664 30.057 56.3628 31.2867 55.7991 32.1956C54.6716 34.0935 51.455 34.6549 50.0291 32.7302C49.4654 31.955 49.3991 30.9659 49.3991 30.057C49.3659 29.1481 49.3328 28.2392 49.3328 27.3303C49.3328 25.4324 49.167 23.5077 49.4323 21.6364C49.3991 21.6364 49.3659 21.6364 49.3328 21.6097C47.7411 21.2622 48.1058 19.3107 49.5649 19.0434C49.7307 19.0167 49.9297 18.99 50.0955 18.9632C50.3939 18.2949 50.825 17.7068 51.4882 17.4662C52.5162 17.092 53.312 17.8939 53.511 18.8028C54.2405 18.8296 54.9037 18.9632 55.368 19.4177C55.8985 19.7117 55.7327 20.6206 55.4011 20.8612C54.8374 21.2889 54.2074 21.6097 53.4447 21.6899C53.3452 22.5453 53.2789 23.4007 53.312 24.3096C53.3784 25.8333 53.4115 27.3571 53.4447 28.8808C53.4447 29.255 53.4447 29.6026 53.4447 29.9768C53.8426 29.8699 54.2405 29.8966 54.6053 29.9233Z" fill="#004449"/>
<path d="M48.715 23.3739C49.0466 23.7481 48.6487 24.3362 48.4498 24.4164C48.4498 24.4164 48.4498 24.4164 48.4498 24.4432C48.4166 24.4432 48.4166 24.4699 48.3834 24.4966C48.2176 24.657 46.8912 24.7105 45.4322 25.4323C44.8684 25.6996 44.6363 26.0738 44.3047 26.5015C44.3047 26.7689 44.1721 30.5381 44.2715 32.1687C44.371 34.0934 40.6239 34.5479 40.4912 32.5162C40.2923 31.6073 40.5244 25.6461 40.6902 24.7372C40.856 23.8551 40.9555 22.8927 41.9503 22.3581C42.4145 22.1175 43.2104 22.0106 43.6746 22.3581C44.2715 22.8393 44.4042 23.4274 44.4042 24.0155C45.9627 22.4115 48.0187 23.0531 48.1845 23.1066C48.1845 23.1333 48.2176 23.1333 48.2176 23.1333C48.4166 23.1868 48.715 23.3472 48.715 23.3472C48.715 23.3739 48.715 23.3472 48.715 23.3739Z" fill="#004449"/>
<path d="M39.5576 32.0344C40.0218 33.9591 35.6778 34.8412 35.1472 32.8631C34.9814 32.1413 34.8156 31.4195 34.6498 30.671C33.9203 31.6334 32.826 32.3819 31.6654 33.0235C29.8747 34.0125 27.7856 34.2264 26.2602 32.7829C25.0664 31.6334 25.0001 30.1097 25.1328 28.6929C25.4312 25.9929 27.255 23.3732 30.5379 22.4109C31.8975 22.0099 33.5555 22.0099 34.7825 22.7584C34.8488 22.8118 34.9151 22.8653 35.0146 22.9188C35.2467 22.6514 35.5783 22.4643 35.9762 22.3574C38.4301 21.7158 38.397 25.3246 38.5628 26.4474C38.7949 28.3186 39.1265 30.1631 39.5576 32.0344ZM30.0737 30.4572C32.7265 30.3503 34.1192 25.886 34.0861 25.8593C33.655 25.3514 33.5887 24.6029 32.7265 24.4158C31.9638 24.2554 31.4001 24.8435 31.0353 25.2712C30.0737 26.3405 29.5431 27.6771 29.4436 28.9869C29.4105 29.3612 29.4105 29.7889 29.5099 30.1364C29.5431 30.2433 30.0737 30.4572 30.0737 30.4572Z" fill="#004449"/>
<path d="M24.717 32.0077C24.9492 33.8789 21.8984 34.7343 21.2683 32.8096C21.1025 32.2215 20.9699 31.2859 20.2735 31.072C19.6103 30.8314 18.3502 32.0077 18.0518 32.3552C17.4881 32.8898 16.858 33.1304 15.8632 33.1037C14.8684 33.0769 14.1057 32.2482 14.0394 31.5265C13.9399 30.1364 15.4984 25.0841 14.7689 25.0039C13.9067 24.9237 11.9502 31.072 11.8176 31.4997C11.5855 32.4354 11.486 33.0235 10.6238 33.6116C9.23109 34.5472 7.27462 33.665 7.14198 32.3017C7.00934 30.7245 6.04768 24.2286 7.83835 22.7851C8.53472 22.2237 9.99378 21.6891 10.5907 22.6515C11.2207 23.6138 11.3202 24.5494 11.3534 25.6187C12.0497 24.2821 13.0777 23.1059 14.9347 22.5445C16.0953 22.197 17.3886 22.7049 17.5875 22.7851C18.9471 23.2663 19.4114 24.8969 19.544 25.993C19.5772 26.5276 19.1461 28.8265 19.0798 29.3879C19.9751 27.8909 20.7378 27.0088 22.2632 27.0088C23.5896 27.0088 23.9543 28.3454 24.2196 29.281C24.4518 30.1899 24.6176 31.0988 24.717 32.0077ZM14.9347 24.8969H14.9679H14.9347Z" fill="#004449"/>
<path d="M54.2876 15.2205C54.3207 15.7551 53.757 16.4234 53.1933 16.5303C52.2648 16.7175 51.1705 16.1026 50.4078 15.7016C49.612 15.2739 47.0254 13.9106 46.528 13.7502C46.4617 14.0977 46.3622 14.4452 46.2627 14.7928C45.9311 15.7284 45.0026 16.5303 43.7757 16.5303C42.7146 16.5036 41.5208 15.6214 41.5871 14.7126C41.5871 14.1245 42.4493 4.68807 42.6483 3.4584C42.8141 2.33565 42.8141 0.491146 44.4721 0.0901647C48.0203 -0.818722 46.727 5.40983 46.6275 6.82663C46.5944 7.84244 46.528 8.83152 46.5612 9.82061C46.8265 9.66022 47.0918 9.49982 47.3239 9.3127C47.8876 8.93845 49.1477 7.22761 49.3135 6.66623C49.413 6.37218 49.5125 6.07813 49.612 5.81081C49.7114 5.59695 49.8109 5.40983 50.0099 5.22271C50.043 5.19597 50.5073 4.87519 50.242 5.06231C50.6399 4.76826 51.1042 4.6346 51.6347 4.76826C53.757 5.32963 53.0938 8.02956 52.4638 9.28597C52.0327 10.1681 51.27 10.8097 50.3746 11.4513C50.2088 11.5582 50.043 11.6651 49.8441 11.772C50.4078 12.0394 50.9052 12.3067 51.4026 12.6542C51.9332 13.0552 52.5632 13.3492 53.0938 13.7769C53.6575 14.2581 54.2213 14.4987 54.2876 15.2205Z" fill="#004449"/>
<path d="M37.755 5.03564C38.8824 6.39897 38.9487 8.16328 38.9487 9.74047C38.9487 11.3711 38.6503 13.0552 38.5177 14.6859C38.4513 15.3275 37.6223 15.9423 36.926 16.1561C36.3291 16.3433 35.7322 16.3433 35.1353 16.1294C34.4058 15.8621 33.7757 15.274 33.8089 14.6057C33.8089 13.1087 34.5384 6.69302 34.5716 6.02472C34.6047 4.79505 36.727 3.8327 37.755 5.03564ZM35.7322 2.79015C35.1353 2.73669 34.6047 2.38917 34.4058 1.93473C34.3063 1.69414 34.3063 1.45355 34.3726 1.21296C34.4389 0.972376 34.5716 0.75852 34.7705 0.544664C35.0026 0.330809 35.2679 0.197147 35.5664 0.0902209C35.8648 0.0100243 36.1633 -0.0167073 36.4949 0.0100243C37.0918 0.0634876 37.6223 0.411004 37.8213 0.89218C38.0203 1.34662 37.8544 1.88126 37.4565 2.25551C37.0254 2.65649 36.3954 2.84362 35.7322 2.79015Z" fill="#004449"/>
<path d="M30.0225 5.30322C31.15 6.66655 31.2163 8.43086 31.2163 10.008C31.2163 11.6387 30.9179 13.3228 30.7852 14.9535C30.7189 15.595 29.8899 16.2099 29.1935 16.4237C28.5966 16.6108 27.9998 16.6108 27.4029 16.397C26.6733 16.1297 26.0433 15.5416 26.0764 14.8733C26.0764 13.3763 26.806 6.9606 26.8391 6.2923C26.8723 5.06263 28.9946 4.10028 30.0225 5.30322ZM27.9998 3.05773C27.4029 3.00427 26.8723 2.65675 26.6733 2.20231C26.5739 1.96172 26.5739 1.72113 26.6402 1.48054C26.7065 1.23995 26.8391 1.0261 27.0381 0.812242C27.2702 0.598387 27.5355 0.464726 27.834 0.357799C28.1324 0.277602 28.4308 0.250871 28.7624 0.277602C29.3593 0.331066 29.8899 0.678582 30.0889 1.15976C30.2878 1.6142 30.122 2.14884 29.7241 2.52309C29.293 2.92407 28.663 3.11119 27.9998 3.05773Z" fill="#004449"/>
<path d="M25.0581 6.02492C25.0913 6.69322 24.8923 12.8416 24.8591 14.2049C24.826 15.2475 24.3286 16.2365 23.1679 16.3435C21.8084 16.4504 21.3773 15.6484 21.1783 14.6326C21.1452 14.499 21.1452 14.392 21.112 14.2851C20.5814 15.1673 19.8187 15.9158 18.4923 16.3167C16.9669 16.7979 15.1099 16.5573 14.082 15.4613C13.2198 14.5792 13.1203 13.5099 13.2198 12.4406C13.3524 11.3178 13.4188 10.1951 13.4851 9.07236C13.5514 7.89616 13.5514 6.74668 14.082 5.65067C14.712 4.44773 17.0664 4.47446 17.597 5.6774C17.9617 6.50609 17.9286 7.36152 17.9286 8.21694C17.9617 9.09909 17.9286 9.95452 17.8954 10.8367C17.8954 11.2911 17.6301 12.601 18.1276 12.8416C19.056 13.3227 20.8799 8.3506 21.1783 7.70903C21.4104 7.17439 21.5762 6.55956 21.742 6.02492C22.1731 4.76851 24.9586 4.52793 25.0581 6.02492Z" fill="#004449"/>
<path d="M12.1723 5.35687C12.935 6.53308 12.4044 7.76275 12.0397 8.99242C11.7412 10.1152 11.4759 11.2379 11.277 12.3607C11.0449 13.5636 10.8127 14.7398 10.7133 15.9427C10.6138 16.8784 10.8127 17.7872 10.7464 18.7229C10.6801 19.9258 10.6138 20.4604 9.65212 20.9149C8.85627 21.2891 7.43036 21.2089 6.93296 20.4337C6.17027 19.1506 6.20343 17.814 6.30291 16.4239C6.30291 16.1299 6.33607 15.8358 6.33607 15.5418C6.13711 15.6487 5.90498 15.7289 5.70602 15.8091C4.3796 16.2903 2.75473 16.5041 1.5278 15.7289C0.267697 14.9804 -0.0307471 13.6438 0.00241341 12.4408C0.0687344 9.95477 1.12987 7.44196 3.38478 5.78458C5.10913 4.55491 7.36404 4.90243 9.25419 5.70439C9.55264 5.3836 9.95056 5.11628 10.448 4.95589C10.9785 4.76877 11.8739 4.90243 12.1723 5.35687ZM6.80032 12.0933C7.29772 11.1577 8.1599 7.49543 8.39202 6.96079C7.13192 5.91824 5.00965 7.25484 4.57856 7.9766C1.99204 12.2537 3.2853 13.4834 4.24696 13.5636C5.6397 13.7774 6.33607 12.3874 6.80032 12.0933Z" fill="#004449"/>
</svg>
