<svg width="36" height="21" viewBox="0 0 36 21" fill="none" xmlns="http://www.w3.org/2000/svg">
<path d="M34.3713 18.4828C35.0392 18.5654 35.4776 19.3249 35.1227 19.8863C34.413 21.0586 32.3883 21.4053 31.4907 20.2165C31.1358 19.7377 31.0941 19.1268 31.0941 18.5654C31.0732 18.004 31.0523 17.4426 31.0523 16.8812C31.0523 15.709 30.948 14.5201 31.115 13.3644C31.0941 13.3644 31.0732 13.3644 31.0523 13.3479C30.0504 13.1332 30.28 11.9279 31.1985 11.7628C31.3028 11.7463 31.4281 11.7298 31.5324 11.7133C31.7203 11.3005 31.9917 10.9372 32.4091 10.7886C33.0562 10.5575 33.5572 11.0528 33.6824 11.6142C34.1416 11.6307 34.5591 11.7133 34.8513 11.9939C35.1853 12.1756 35.081 12.7369 34.8722 12.8855C34.5174 13.1497 34.1208 13.3479 33.6407 13.3974C33.5781 13.9257 33.5363 14.4541 33.5572 15.0155C33.5989 15.9566 33.6198 16.8978 33.6407 17.8389C33.6407 18.07 33.6407 18.2847 33.6407 18.5158C33.8912 18.4498 34.1416 18.4663 34.3713 18.4828Z" fill="white"/>
<path d="M30.6663 14.4366C30.8751 14.6678 30.6246 15.031 30.4993 15.0806C30.4993 15.0806 30.4993 15.0806 30.4993 15.0971C30.4785 15.0971 30.4785 15.1136 30.4576 15.1301C30.3532 15.2292 29.5183 15.2622 28.5998 15.708C28.245 15.8731 28.0989 16.1043 27.8901 16.3684C27.8901 16.5335 27.8067 18.8616 27.8693 19.8688C27.9319 21.0576 25.5732 21.3383 25.4897 20.0834C25.3644 19.5221 25.5106 15.8401 25.6149 15.2787C25.7193 14.7338 25.7819 14.1394 26.4081 13.8092C26.7003 13.6606 27.2013 13.5946 27.4935 13.8092C27.8693 14.1064 27.9528 14.4696 27.9528 14.8329C28.9338 13.8422 30.228 14.2385 30.3324 14.2715C30.3324 14.288 30.3532 14.288 30.3532 14.288C30.4785 14.321 30.6663 14.4201 30.6663 14.4201C30.6663 14.4366 30.6663 14.4201 30.6663 14.4366Z" fill="white"/>
<path d="M24.8959 19.7868C25.1881 20.9757 22.4537 21.5205 22.1197 20.2987C22.0153 19.8529 21.911 19.4071 21.8066 18.9448C21.3474 19.5392 20.6585 20.0015 19.928 20.3978C18.8008 21.0087 17.4857 21.1408 16.5256 20.2492C15.7741 19.5392 15.7324 18.598 15.8159 17.723C16.0037 16.0553 17.1518 14.4372 19.2183 13.8428C20.0741 13.5952 21.1178 13.5952 21.8901 14.0575C21.9318 14.0905 21.9736 14.1235 22.0362 14.1565C22.1823 13.9914 22.391 13.8759 22.6415 13.8098C24.1862 13.4135 24.1653 15.6425 24.2697 16.336C24.4158 17.4918 24.6245 18.6311 24.8959 19.7868ZM18.926 18.8127C20.5959 18.7466 21.4726 15.9893 21.4517 15.9728C21.1804 15.6591 21.1386 15.1967 20.5959 15.0812C20.1158 14.9821 19.761 15.3453 19.5314 15.6095C18.926 16.27 18.592 17.0955 18.5294 17.9046C18.5086 18.1357 18.5086 18.3999 18.5712 18.6146C18.592 18.6806 18.926 18.8127 18.926 18.8127Z" fill="white"/>
<path d="M15.5538 19.7696C15.6999 20.9254 13.7796 21.4537 13.383 20.2649C13.2786 19.9017 13.1951 19.3238 12.7568 19.1917C12.3393 19.0431 11.5461 19.7696 11.3582 19.9842C11.0034 20.3144 10.6068 20.463 9.98057 20.4465C9.35436 20.43 8.87427 19.9182 8.83252 19.4724C8.7699 18.6138 9.75096 15.4932 9.29174 15.4436C8.74903 15.3941 7.51748 19.1917 7.43399 19.4559C7.28787 20.0337 7.22525 20.397 6.68254 20.7602C5.80585 21.3381 4.5743 20.7933 4.49081 19.9512C4.40732 18.977 3.80198 14.9648 4.92916 14.0732C5.3675 13.7265 6.28594 13.3963 6.66167 13.9907C7.05827 14.5851 7.12089 15.163 7.14176 15.8234C7.58011 14.9978 8.22719 14.2714 9.39611 13.9246C10.1267 13.71 10.9408 14.0237 11.066 14.0732C11.9218 14.3704 12.2141 15.3776 12.2975 16.0546C12.3184 16.3848 12.0471 17.8047 12.0053 18.1515C12.5689 17.2269 13.049 16.682 14.0092 16.682C14.8441 16.682 15.0737 17.5075 15.2407 18.0854C15.3868 18.6468 15.4912 19.2082 15.5538 19.7696ZM9.39611 15.3776H9.41698H9.39611Z" fill="white"/>
<path d="M34.1759 9.401C34.1968 9.73122 33.842 10.144 33.4871 10.21C32.9027 10.3256 32.2138 9.94587 31.7337 9.6982C31.2328 9.43402 29.6046 8.59195 29.2915 8.49289C29.2498 8.70753 29.1872 8.92218 29.1245 9.13682C28.9158 9.71471 28.3313 10.21 27.559 10.21C26.8911 10.1935 26.1396 9.64867 26.1814 9.08729C26.1814 8.72404 26.7241 2.89561 26.8493 2.1361C26.9537 1.44263 26.9537 0.303359 27.9974 0.0556907C30.2308 -0.505688 29.4168 3.34141 29.3541 4.2165C29.3333 4.84392 29.2915 5.45484 29.3124 6.06575C29.4794 5.96668 29.6464 5.86762 29.7925 5.75204C30.1473 5.52088 30.9405 4.46417 31.0449 4.11743C31.1075 3.93581 31.1701 3.75419 31.2328 3.58908C31.2954 3.45699 31.358 3.34141 31.4833 3.22583C31.5041 3.20932 31.7964 3.01119 31.6294 3.12677C31.8799 2.94514 32.1721 2.86259 32.5061 2.94514C33.842 3.29188 33.4245 4.9595 33.0279 5.73553C32.7565 6.28039 32.2764 6.67666 31.7129 7.07293C31.6085 7.13897 31.5041 7.20502 31.3789 7.27106C31.7337 7.43617 32.0468 7.60129 32.3599 7.81593C32.6939 8.0636 33.0905 8.24522 33.4245 8.5094C33.7793 8.8066 34.1342 8.9552 34.1759 9.401Z" fill="white"/>
<path d="M23.766 3.11029C24.4757 3.95236 24.5174 5.04209 24.5174 6.01625C24.5174 7.02343 24.3296 8.06363 24.2461 9.07081C24.2043 9.46708 23.6825 9.84684 23.2442 9.97893C22.8684 10.0945 22.4927 10.0945 22.117 9.96241C21.6578 9.7973 21.2612 9.43406 21.282 9.02128C21.282 8.09665 21.7413 4.13398 21.7621 3.7212C21.783 2.96169 23.1189 2.36729 23.766 3.11029ZM22.4927 1.72335C22.117 1.69033 21.783 1.47568 21.6578 1.19499C21.5951 1.04639 21.5951 0.897794 21.6369 0.749194C21.6786 0.600593 21.7621 0.468504 21.8874 0.336414C22.0335 0.204326 22.2005 0.121769 22.3883 0.0557254C22.5762 0.00619158 22.7641 -0.0103194 22.9728 0.00619159C23.3485 0.0392135 23.6825 0.253859 23.8077 0.551059C23.933 0.831749 23.8286 1.16197 23.5781 1.39313C23.3068 1.6408 22.9102 1.75637 22.4927 1.72335Z" fill="white"/>
<path d="M18.9027 3.2763C19.6124 4.11837 19.6542 5.20811 19.6542 6.18227C19.6542 7.18945 19.4663 8.22965 19.3828 9.23683C19.3411 9.6331 18.8192 10.0129 18.3809 10.1449C18.0052 10.2605 17.6294 10.2605 17.2537 10.1284C16.7945 9.96332 16.3979 9.60007 16.4188 9.18729C16.4188 8.26267 16.878 4.29999 16.8988 3.88722C16.9197 3.1277 18.2556 2.5333 18.9027 3.2763ZM17.6294 1.88937C17.2537 1.85634 16.9197 1.6417 16.7945 1.36101C16.7319 1.21241 16.7319 1.06381 16.7736 0.915209C16.8154 0.766609 16.8988 0.634519 17.0241 0.50243C17.1702 0.370341 17.3372 0.287785 17.5251 0.221741C17.7129 0.172207 17.9008 0.155696 18.1095 0.172207C18.4852 0.205229 18.8192 0.419874 18.9445 0.717075C19.0697 0.997765 18.9653 1.32799 18.7149 1.55914C18.4435 1.80681 18.0469 1.92239 17.6294 1.88937Z" fill="white"/>
<path d="M15.7685 3.72163C15.7893 4.13441 15.6641 7.93197 15.6432 8.77404C15.6224 9.41797 15.3093 10.0289 14.5787 10.0949C13.7229 10.161 13.4515 9.66564 13.3263 9.03822C13.3054 8.95566 13.3054 8.88962 13.2845 8.82357C12.9505 9.36844 12.4704 9.83075 11.6355 10.0784C10.6753 10.3756 9.50639 10.227 8.8593 9.55006C8.31659 9.00519 8.25397 8.34475 8.31659 7.6843C8.40008 6.99083 8.44183 6.29737 8.48358 5.6039C8.52533 4.87741 8.52533 4.16743 8.8593 3.49047C9.2559 2.74747 10.7379 2.76398 11.0719 3.50698C11.3015 4.01883 11.2806 4.54718 11.2806 5.07554C11.3015 5.62041 11.2806 6.14877 11.2598 6.69363C11.2598 6.97432 11.0928 7.78337 11.4059 7.93197C11.9903 8.22917 13.1384 5.1581 13.3263 4.76183C13.4724 4.43161 13.5767 4.05185 13.6811 3.72163C13.9525 2.9456 15.7059 2.797 15.7685 3.72163Z" fill="white"/>
<path d="M7.66214 3.30897C8.14223 4.03547 7.80825 4.79498 7.57864 5.55449C7.39078 6.24796 7.22379 6.94143 7.09855 7.6349C6.95243 8.3779 6.80632 9.10439 6.7437 9.84739C6.68108 10.4253 6.80632 10.9867 6.76457 11.5646C6.72283 12.3076 6.68108 12.6378 6.07574 12.9185C5.57478 13.1496 4.67721 13.1001 4.36411 12.6213C3.88401 11.8287 3.90489 11.0032 3.96751 10.1446C3.96751 9.96297 3.98838 9.78135 3.98838 9.59972C3.86314 9.66577 3.71702 9.7153 3.59178 9.76483C2.75684 10.062 1.73403 10.1941 0.961706 9.7153C0.168508 9.25299 -0.0193544 8.42743 0.00151918 7.68443C0.0432664 6.14889 0.711222 4.59684 2.13063 3.57315C3.21606 2.81364 4.63546 3.02829 5.82526 3.52362C6.01312 3.32549 6.26361 3.16037 6.57671 3.06131C6.91069 2.94573 7.47428 3.02829 7.66214 3.30897ZM4.28061 7.46978C4.59372 6.89189 5.13643 4.62987 5.28255 4.29964C4.48935 3.65571 3.15344 4.48127 2.88208 4.92707C1.25394 7.56885 2.06801 8.32836 2.67334 8.3779C3.55003 8.50999 3.98838 7.65141 4.28061 7.46978Z" fill="white"/>
</svg>
