<svg width="246" height="246" viewBox="0 0 246 246" fill="none" xmlns="http://www.w3.org/2000/svg">
<path d="M151.168 121.335C149.276 117.793 145.901 115.088 142.586 112.848C140.557 115.988 137.908 118.679 134.802 120.759C122.094 130.58 105.528 131.436 99.1448 116.877C98.4379 115.417 97.8377 113.909 97.349 112.363C96.5298 110.754 95.8361 105.981 95.5913 103.124C95.6405 102.299 94.8422 101.852 94.0612 101.596C93.6811 101.535 93.2801 101.62 92.8902 101.558C90.7156 101.402 91.1535 98.2373 93.3047 97.9125C92.5741 97.8178 92.135 98.0257 91.4745 97.578C91.2469 97.3758 91.1057 97.0938 91.0803 96.7904C91.0549 96.487 91.1471 96.1855 91.338 95.9482C86.033 91.9138 80.8227 87.8536 77.9002 83.8352C77.8652 83.8122 77.8359 83.7815 77.8146 83.7455C77.7933 83.7095 77.7805 83.6691 77.7772 83.6273C77.7641 83.5925 77.758 83.5555 77.7593 83.5183C77.7605 83.4812 77.7691 83.4447 77.7846 83.4108C77.9224 82.3038 78.0097 81.5265 78.1192 80.3813C77.7809 80.2583 77.3812 80.31 77.3246 80.0271C73.6149 78.3629 69.8831 76.743 66.1045 75.2461C59.5919 82.1321 53.576 89.4714 48.1022 97.209C43.6204 103.26 39.7293 109.726 36.4824 116.52C37.0974 117.542 37.7469 118.54 38.4332 119.52C44.3697 127.836 51.4601 135.263 59.4908 141.58C68.722 148.974 74.4242 151.761 79.3688 155.085C80.8596 156.089 100.743 172.459 111.65 173.363C117.387 173.141 123.739 167.64 127.846 163.628C131.463 160.157 134.804 156.41 137.841 152.421C141.128 148.305 144.196 144.019 147.031 139.58C148.478 137.298 149.724 134.894 150.756 132.397C152.233 128.726 153.051 124.809 151.168 121.335ZM49.9632 110.067C49.9907 109.679 50.1276 109.306 50.3582 108.993C50.5887 108.679 50.9034 108.437 51.2658 108.295C52.0419 108.049 52.6766 108.769 52.7984 109.476C53.1489 111.433 50.3962 112.285 49.9903 110.417C49.9665 110.302 49.9574 110.185 49.9632 110.067ZM52.4761 120.81C48.6919 117.225 45.3497 113.2 42.5205 108.821C42.2585 108.416 42.9055 108.042 43.1662 108.444C45.9625 112.768 49.266 116.742 53.0062 120.281C53.3543 120.613 52.8254 121.14 52.4761 120.81ZM67.9261 136.702C64.3885 133.824 61.1159 130.634 58.1476 127.172C57.8352 126.803 58.3617 126.278 58.6753 126.643C61.6444 130.105 64.9178 133.295 68.4563 136.173C68.829 136.477 68.2976 137.002 67.9261 136.702ZM69.8708 127.697C69.7409 127.845 69.5831 127.965 69.4065 128.052C69.2299 128.138 69.038 128.189 68.8418 128.202C68.6455 128.214 68.4487 128.188 68.2627 128.124C68.0766 128.06 67.905 127.96 67.7576 127.83C67.742 127.817 67.7272 127.804 67.7134 127.789C66.273 126.322 68.0922 123.927 69.701 125.062C69.8281 125.151 69.9405 125.26 70.0344 125.383C70.2882 125.725 70.4112 126.146 70.3812 126.57C70.3512 126.995 70.1701 127.395 69.8708 127.697ZM73.2693 79.3789C73.6051 79.0345 74.1303 79.5646 73.7969 79.9078C69.6555 84.1488 75.9359 92.8043 80.5017 96.979C83.9039 99.9887 87.536 102.728 91.365 105.172C91.7623 105.439 91.3872 106.086 90.9874 105.817C88.7562 104.316 86.5299 102.804 84.3872 101.178C77.3984 96.1856 67.7921 84.9852 73.2693 79.3789ZM91.4942 153.09C87.4285 151.103 83.6858 148.515 80.3922 145.411C80.0404 145.082 80.5705 144.55 80.9199 144.883C84.1698 147.94 87.8624 150.489 91.873 152.445C92.306 152.655 91.9259 153.299 91.4942 153.09ZM92.8078 144.079C92.781 144.473 92.5992 144.839 92.3025 145.099C92.0057 145.358 91.6181 145.489 91.2248 145.463C91.1774 145.46 91.1302 145.455 91.0834 145.447C90.632 145.428 90.202 145.25 89.8696 144.945C89.5371 144.639 89.3239 144.225 89.2679 143.777C89.259 143.72 89.2658 143.662 89.2876 143.608C89.4046 143.188 89.6509 142.814 89.9917 142.541C90.3325 142.268 90.7506 142.109 91.1867 142.087C92.2113 142.02 92.889 143.152 92.8078 144.079ZM111.269 163.39C107.241 162.478 103.531 160.502 100.526 157.67C100.176 157.339 100.704 156.809 101.055 157.141C103.968 159.882 107.564 161.791 111.467 162.668C111.938 162.769 111.738 163.491 111.269 163.385V163.39ZM112.099 156.662C111.629 156.616 111.195 156.392 110.886 156.035C110.576 155.678 110.415 155.216 110.436 154.745C110.537 154.28 110.816 153.874 111.213 153.613C111.61 153.352 112.093 153.258 112.559 153.35C114.794 153.849 114.11 157.272 112.099 156.657V156.662ZM123.511 166.331C122.56 166.132 118.414 164.927 118.935 164.104C118.986 164.024 119.065 163.967 119.157 163.944C119.248 163.921 119.345 163.934 119.427 163.981C120.758 164.751 122.203 165.303 123.708 165.617C124.18 165.705 123.985 166.426 123.511 166.326V166.331ZM138.577 124.104C135.849 125.174 132.983 125.853 130.065 126.12C129.585 126.164 129.59 125.418 130.065 125.372C136.472 124.768 145.754 121.719 144.566 115.591C144.475 115.12 145.196 114.921 145.287 115.392C146.052 119.628 142.572 122.517 138.577 124.099V124.104Z" fill="#FFD35C"/>
<path d="M78.4455 74.4337C79.5292 73.9343 78.4947 72.1988 77.6104 73.0364C77.1085 73.6022 77.6165 74.8814 78.4455 74.4337Z" fill="#DCBEFF"/>
<path d="M85.2118 69.7586C86.0962 69.7377 85.2598 66.4696 85.0323 65.8054C84.6633 64.8423 84.6239 65.0674 75.7617 65.2986C74.9844 65.3183 74.1935 65.2986 73.4186 65.3749C70.3313 65.477 71.1689 69.1215 71.1517 69.9628C71.1333 70.9062 71.5564 70.2186 85.2118 69.7586ZM73.3448 66.1314C73.7261 66.0846 83.0975 65.8534 82.9745 65.8558C84.5427 65.6221 84.3976 65.9887 84.6792 67.5336C84.771 68.0266 84.8212 68.5265 84.8293 69.028C74.5416 69.413 72.3497 69.8779 71.9463 69.552C71.9463 69.552 71.9168 68.568 71.9143 68.3048C71.8995 66.6492 72.4063 66.1486 73.3448 66.1314Z" fill="black"/>
<path d="M84.6793 67.5332C84.3977 65.9883 84.5428 65.6218 82.9745 65.8555C82.8786 65.8555 73.7213 66.0855 73.3461 66.131C72.4015 66.1482 71.8996 66.6489 71.9144 68.3044C71.9144 68.5677 71.9464 69.5529 71.9464 69.5529C72.3498 69.8776 74.5417 69.4127 84.8294 69.0277C84.8212 68.5262 84.771 68.0263 84.6793 67.5332ZM72.9279 70.3942C73.0312 72.2097 73.2182 75.201 73.3658 77.5393L77.4248 79.2613C77.5084 79.1383 78.2858 74.7275 82.6252 75.3068C82.9721 75.3179 83.8552 75.4212 85.0446 75.5774C84.8808 73.6448 84.7291 71.7112 84.5895 69.7767C78.0103 70.0117 74.645 70.2921 72.9279 70.3942Z" fill="#DCBEFF"/>
<path d="M76.933 74.5911C78.0044 76.3131 80.5997 74.425 79.3488 72.7805C79.233 72.5749 79.0672 72.4019 78.8667 72.2775C78.6661 72.1532 78.4374 72.0816 78.2018 72.0693C77.9662 72.057 77.7313 72.1045 77.5189 72.2073C77.3065 72.3102 77.1236 72.465 76.9871 72.6575C76.7873 72.9373 76.6754 73.2704 76.6657 73.6142C76.6561 73.9579 76.7491 74.2968 76.933 74.5874M78.81 73.3106C78.8643 73.407 78.8981 73.5135 78.9091 73.6235C78.9202 73.7336 78.9082 73.8447 78.8741 73.9499C78.84 74.0551 78.7845 74.1521 78.711 74.2347C78.6375 74.3173 78.5477 74.3838 78.4472 74.4299C77.6169 74.874 77.1089 73.5985 77.612 73.0327C78.0609 72.6071 78.516 72.8199 78.81 73.3106Z" fill="black"/>
<path d="M189.89 189.42C172.567 184.254 173.708 184.5 173.479 184.703C173.197 184.837 173.34 185.241 173.336 185.116C174.109 186.78 175.57 191.297 174.598 192.854C172.678 194.532 164.329 195.429 157.097 190.843C149.943 186.323 143.444 178.854 138.754 171.731C136.308 168.044 134.155 164.17 132.314 160.146C132.118 160.36 131.925 160.574 131.727 160.786C132.408 162.27 133.135 163.734 133.905 165.176C135.804 168.711 137.944 172.113 140.309 175.355C147.025 184.63 156.382 194.451 167.85 195.024C169.932 195.104 174.561 194.743 175.535 192.798C176.093 190.756 175.147 187.509 174.38 185.623L188.725 189.899C193.276 191.252 198.145 193.207 202.597 191.252C202.368 191.063 202.134 190.883 201.907 190.691C198.04 192.167 193.658 190.542 189.89 189.419M163.959 133.588C168.69 134.616 173.304 136.127 177.727 138.097C186.615 141.978 197.935 151.305 196.073 157.873C195.089 161.355 189.405 161.563 186.004 160.201C185.503 160.054 185.332 160.781 185.795 160.965C187.777 161.69 189.576 162.84 191.065 164.335C199.353 171.802 203.354 175.055 205.311 179.366C207.253 183.361 206.592 188.436 202.667 190.357C202.885 190.538 203.106 190.713 203.325 190.891C206.937 188.903 207.83 184.487 206.711 180.886C205.159 175.467 200.725 172.095 192.037 164.151C187.379 159.754 188.495 163.072 193.773 161.188C197.07 160.102 197.684 156.398 196.495 153.62C195.088 150.22 192.864 147.221 190.02 144.887C180.634 136.769 167.131 132.501 154.58 131.295C153.733 131.213 152.885 131.149 152.035 131.102C151.945 131.37 151.854 131.636 151.757 131.9C155.864 132.123 159.945 132.686 163.959 133.583" fill="#B26EE6"/>
<path d="M181.917 169.405C180.714 160.418 173.707 152.981 165.472 148.893C159.295 146.046 152.866 143.778 146.27 142.118C146.123 142.334 145.982 142.553 145.834 142.768C144.828 144.244 143.785 145.702 142.728 147.146C156.116 153.846 158.624 162.509 151.603 158.789C147.537 156.409 143.82 153.479 140.556 150.082C139.002 152.168 137.397 154.215 135.742 156.221C135.58 156.418 135.416 156.612 135.25 156.808C139.473 162.294 144.429 167.175 149.979 171.313C168.255 184.991 183.54 179.13 181.914 169.405" fill="#B26EE6"/>
<path d="M78.0152 80.3447L78.1086 80.3866L78.1086 80.3619L78.0127 80.3447" fill="black"/>
<path d="M99.8655 74.5825C98.8251 75.1516 97.8325 75.804 96.8975 76.5333L98.6896 77.5739C99.0996 77.6329 99.5096 77.6932 99.9196 77.7547C99.927 76.6981 99.8753 75.6379 99.8655 74.5825Z" fill="#FF9F48"/>
<path d="M121.343 68.0189C119.498 62.629 114.245 58.2822 108.45 58.7238C105.563 58.9927 102.827 60.1338 100.604 61.9956C98.461 60.3828 95.8989 59.4212 93.224 59.2256C90.0198 59.0301 87.812 62.1014 88.0395 63.3646C87.9842 64.0386 88.4885 63.2084 96.0185 67.0546C97.1514 67.6351 117.393 77.3017 117.833 76.8441C118.716 75.6141 120.662 70.7286 118.088 69.1456C117.14 68.6118 117.033 71.9623 115.952 71.95C114.807 71.9364 116.413 65.6671 114.177 65.7532C111.702 65.8529 110.651 69.8651 108.337 69.4432C107.913 65.95 110.517 65.2194 109.825 64.5614C109.758 64.4985 109.671 64.4618 109.579 64.458C106.199 64.3215 106.187 67.7791 104.413 67.2797C103.995 67.1087 104.023 66.5564 104.021 66.1813C104.009 65.0165 104.125 64.0804 105.18 63.8959C105.274 63.8697 105.354 63.807 105.402 63.7216C105.451 63.6363 105.463 63.5353 105.437 63.4408C105.41 63.3464 105.348 63.2663 105.262 63.218C105.177 63.1698 105.076 63.1575 104.982 63.1838V63.1752C104.411 63.2637 101.201 63.6942 100.964 63.1616C100.827 62.7926 101.015 62.629 101.004 62.4433C102.923 61.0129 105.144 60.0406 107.497 59.6008C116.048 58.0953 125.455 67.8418 119.252 81.6092C117.997 81.3617 116.755 81.053 115.53 80.6842C115.444 80.9191 115.354 81.1528 115.268 81.3865C116.62 81.7953 117.993 82.1328 119.381 82.3976C119.477 82.4178 119.576 82.4023 119.661 82.354C119.746 82.3057 119.81 82.228 119.841 82.1356C121.668 77.7544 122.94 72.6744 121.343 68.0189ZM101.482 64.1555C102.219 64.1879 102.956 64.1636 103.689 64.0829C103.082 65.1198 102.889 67.5761 104.208 68.0004C106.248 68.6597 106.565 65.7864 108.706 65.2871C108.232 65.9399 107.893 66.6811 107.71 67.467C107.527 68.2528 107.503 69.0674 107.64 69.8627C107.656 69.9252 107.689 69.9822 107.735 70.028C107.781 70.0737 107.838 70.1067 107.9 70.1234C110.91 71.1013 112.347 66.2415 114.287 66.5257C114.572 66.6093 114.656 67.7323 114.697 68.1456C114.9 70.2747 114.245 72.7753 116.005 72.6966C117.604 72.4727 117.521 70.811 117.99 70.0066C118.342 70.406 118.576 70.8958 118.665 71.4208C118.753 71.9458 118.694 72.4852 118.493 72.9783C118.34 73.6034 118.164 74.2226 117.964 74.8343C117.839 75.2832 117.661 75.7155 117.433 76.1221C106.811 71.6634 93.1428 64.4913 88.8427 63.1272C89.9374 58.4446 96.2855 59.6967 100.189 62.6167C100.134 62.8076 100.127 63.0091 100.168 63.2035C100.209 63.3979 100.297 63.5792 100.425 63.7313C100.553 63.8834 100.716 64.0017 100.9 64.0757C101.085 64.1497 101.285 64.1771 101.482 64.1555Z" fill="black"/>
<path d="M101.483 64.156C101.286 64.1776 101.086 64.1502 100.902 64.0762C100.717 64.0022 100.554 63.8839 100.426 63.7318C100.298 63.5797 100.21 63.3984 100.169 63.204C100.128 63.0096 100.135 62.8081 100.19 62.6173C96.2311 59.6566 89.9274 58.4918 88.8437 63.1277C92.888 64.4106 107.215 71.8336 117.434 76.1227C117.662 75.716 117.84 75.2837 117.965 74.8348C118.168 74.2198 118.334 73.6048 118.494 72.9788C118.695 72.4857 118.754 71.9463 118.665 71.4214C118.577 70.8964 118.343 70.4066 117.991 70.0071C117.525 70.8066 117.602 72.4732 116.006 72.6971C114.038 72.7857 115.131 69.9911 114.53 66.9284C114.492 66.7488 114.483 66.5815 114.294 66.5262C114.124 66.5011 113.95 66.5254 113.793 66.5963C111.948 67.2113 110.605 71.0009 107.908 70.1239C107.177 69.9222 107.472 66.9961 108.713 65.2876C106.582 65.7796 106.253 68.6578 104.215 68.001C102.896 67.5766 103.09 65.1203 103.696 64.0834C102.961 64.1644 102.222 64.1887 101.483 64.156Z" fill="#FF9F48"/>
<path d="M78.7901 81.0434C78.7126 81.8416 78.6179 82.6424 78.5195 83.4345C81.6068 87.5144 86.314 91.2192 91.8884 95.4491C92.7015 95.0817 93.5591 94.8221 94.4394 94.6767C99.3483 93.4258 104.214 93.9387 106.088 98.716C106.432 99.4811 106.721 100.269 107.048 101.042C107.773 95.6877 108.448 90.3286 109.131 84.9695C79.2784 82.0175 78.9599 79.3041 78.7901 81.0434ZM94.2881 91.9904C94.2828 92.0298 94.2698 92.0678 94.2498 92.1022C94.2298 92.1366 94.2032 92.1667 94.1716 92.1908C94.1399 92.2149 94.1039 92.2325 94.0654 92.2427C94.0269 92.2528 93.9868 92.2553 93.9474 92.2499C93.8782 92.2559 93.8087 92.2423 93.7469 92.2105C92.7803 91.7991 91.7318 91.6164 90.683 91.6767C89.1516 91.7997 89.5957 90.5894 89.8515 87.9867C89.8563 87.8904 89.8967 87.7993 89.9649 87.7311C90.0331 87.6629 90.1242 87.6225 90.2205 87.6177C91.3078 87.5341 94.2943 87.7727 94.7715 88.6817C94.8859 89.1023 94.8466 89.0433 94.2943 91.9928" fill="#E59E70"/>
<path d="M93.9134 89.9486C94.014 89.6658 94.0696 89.3691 94.0782 89.0691C94.0155 88.8391 93.6145 88.796 93.4079 88.7321C92.4887 88.4453 91.5277 88.3155 90.5654 88.3483C90.5272 88.7948 90.4916 89.2413 90.4608 89.6878C90.3686 91.0568 90.2443 90.908 90.7511 90.9313C91.7339 90.9169 92.7127 91.0602 93.6502 91.3557L93.9134 89.9486ZM78.1055 79.6043C88.6589 81.6178 99.4398 83.3004 110.009 84.3102C110.343 83.3314 110.392 82.278 110.152 81.2721C109.593 79.4579 108.393 79.7531 90.8163 77.1627L86.5765 76.5379C82.5433 75.7802 78.7045 75.4309 78.1055 79.6043Z" fill="#E59E70"/>
<path d="M94.7665 88.6742C94.2905 87.764 91.3225 87.5254 90.2155 87.6102C90.1189 87.6142 90.0273 87.6543 89.959 87.7227C89.8906 87.791 89.8504 87.8826 89.8465 87.9792C89.5857 90.6151 89.1749 91.7861 90.6768 91.6692C91.7256 91.6086 92.7742 91.7913 93.7407 92.203C93.8025 92.2348 93.872 92.2484 93.9412 92.2424C94.0212 92.2541 94.1026 92.2338 94.1677 92.1859C94.2329 92.138 94.2765 92.0664 94.2893 91.9866C94.5905 90.9047 94.7509 89.7885 94.7665 88.6656M90.7506 90.9226C90.2684 90.9005 90.3102 91.2535 90.5648 88.3396C91.7788 88.299 93.9732 88.6766 94.0765 89.0592C93.9866 89.8306 93.844 90.595 93.6497 91.347C92.7123 91.0509 91.7334 90.9076 90.7506 90.9226Z" fill="black"/>
<path d="M98.6896 77.5726L99.9196 77.7535C99.9196 76.6981 99.8753 75.6391 99.8655 74.5825C98.8248 75.1512 97.8322 75.8036 96.8975 76.5333L98.6896 77.5726Z" fill="#FF9F48"/>
<path d="M96.694 77.2782L96.0519 76.9092C96.027 76.8933 96.0035 76.8751 95.9818 76.8551C95.911 76.7843 95.8713 76.6883 95.8713 76.5882C95.8713 76.4881 95.911 76.3921 95.9818 76.3213C97.2853 75.2498 98.705 74.3281 100.214 73.5735C100.265 73.5715 100.315 73.5795 100.362 73.597C100.409 73.6145 100.453 73.6411 100.49 73.6754C100.526 73.7097 100.556 73.7509 100.577 73.7968C100.598 73.8426 100.61 73.8921 100.612 73.9425C100.594 75.2487 100.682 76.5611 100.668 77.8686C107.753 78.7296 110.643 78.8969 110.991 81.6078C111.122 82.6899 111.004 83.7874 110.646 84.8169C110.54 85.1785 110.198 85.0826 109.873 85.0494C109.22 90.2043 108.889 92.8168 108.56 95.3617C108.653 95.404 108.748 95.441 108.845 95.4724C108.917 95.4805 108.991 95.4678 109.056 95.4357C109.121 95.4037 109.176 95.3537 109.214 95.2916C112.252 89.3024 114.821 83.0866 116.898 76.7001C116.665 76.6017 116.433 76.5013 116.201 76.3988C102.653 70.5341 93.2106 65.4247 89.4776 64.1455C87.993 67.8355 85.993 72.7063 84.8232 75.5562C88.2131 75.9941 94.325 76.9203 96.694 77.2782Z" fill="#FF9F48"/>
<path d="M174.705 95.4888C170.582 88.9513 164.496 84.0498 158.443 79.3856C154.876 76.4939 152.115 74.5554 148.999 74.2086C147.499 74.2031 146.015 74.5189 144.646 75.1348C143.38 75.6595 142.18 76.3294 141.068 77.131C135.766 79.0425 133.008 84.7976 134.549 89.3154C131.857 93.1284 129.867 94.9833 130.421 96.9291C131.672 99.8885 138.643 106.443 143.422 101.577C143.937 101.057 144.417 100.504 144.859 99.9205C145.828 98.6708 146.697 97.3375 147.622 96.0509C147.827 95.9808 148.028 95.9021 148.226 95.8135C148.349 95.9365 148.732 96.2785 148.891 96.4285C151.917 99.1714 157.464 103.286 160.453 104.532C160.808 104.689 161.203 104.729 161.582 104.645C161.961 104.562 162.303 104.359 162.559 104.067C163.116 103.307 162.585 102.222 162.286 101.462C162.071 100.922 161.828 100.393 161.558 99.8787C163.772 101.09 165.564 103.106 168.145 103.587C169.141 103.773 171.19 103.855 171.492 102.556C171.672 100.549 169.711 97.3449 168.54 95.7262C169.919 96.6083 171.358 97.3937 172.845 98.0767C174.262 98.7372 176.08 97.7335 174.705 95.4888ZM133.932 99.9992C129.258 96.2157 130.935 95.5528 134.908 90.1014C136.74 93.3486 141.725 97.2625 146.493 96.3559C143.152 101.153 140.329 105.811 133.932 99.9992ZM151.612 94.8923C150.662 93.634 151.497 93.1825 150.759 92.8935C150.192 92.8443 149.448 95.1776 146.253 95.6512C141.153 96.4384 135.873 91.527 135.015 88.3843C133.751 82.5701 139.188 76.3168 145.986 77.4226C151.972 78.3979 155.301 84.0006 152.224 91.0227C152.126 91.2478 152.232 91.6229 152.547 91.5848C153.298 91.495 153.816 92.1776 153.96 92.8492C154.385 94.5122 152.601 95.9906 151.612 94.8923Z" fill="black"/>
<path d="M139.937 82.0213C139.985 81.8718 140.072 81.7375 140.188 81.6316C140.304 81.5257 140.446 81.4519 140.599 81.4174C140.695 81.391 140.776 81.3277 140.825 81.2414C140.873 81.1551 140.886 81.053 140.86 80.9574C140.833 80.8618 140.77 80.7806 140.684 80.7317C140.597 80.6828 140.495 80.6702 140.4 80.6966C140.123 80.768 139.869 80.909 139.662 81.1062C139.455 81.3034 139.301 81.5502 139.216 81.8233C139.061 82.2796 139.783 82.4752 139.937 82.0213ZM149.13 89.298C149.363 88.8578 149.672 88.4619 150.042 88.1283C150.397 87.8036 149.868 87.2759 149.513 87.5994C147.558 89.3743 148.882 89.7666 149.13 89.298ZM145.569 88.9758C145.344 88.7175 141.706 87.8515 140.077 85.2292C139.316 83.9992 137.315 88.4801 140.501 90.4112C143.275 91.8429 146.295 89.5502 145.588 88.9881L145.569 88.9758ZM141.374 79.2009C140.902 79.2883 141.102 80.0091 141.573 79.923C141.804 79.8869 142.039 79.9398 142.233 80.0708C142.426 80.2019 142.562 80.4014 142.614 80.629C142.628 80.6763 142.651 80.7203 142.682 80.7585C142.714 80.7966 142.752 80.8281 142.796 80.851C142.84 80.8739 142.888 80.8879 142.937 80.892C142.986 80.8961 143.035 80.8903 143.082 80.875C143.828 80.64 142.842 78.907 141.374 79.2009ZM149.739 85.8725C149.857 85.8554 149.977 85.8663 150.09 85.9043C150.203 85.9423 150.306 86.0062 150.39 86.0911C150.474 86.1759 150.536 86.2793 150.573 86.3928C150.609 86.5063 150.619 86.6268 150.6 86.7445C150.541 87.2205 151.289 87.2156 151.348 86.7445C151.379 86.3463 151.25 85.952 150.991 85.6485C150.731 85.3449 150.361 85.1569 149.963 85.1259C149.823 85.116 149.682 85.1247 149.545 85.1517C149.074 85.2476 149.273 85.9684 149.744 85.8725" fill="black"/>
<path d="M29.0536 92.2329C27.9073 99.6301 31.0487 108.576 34.5714 115.163C37.2934 120.239 34.1397 116.245 48.1014 97.2046C53.7502 89.2362 59.9611 81.6815 66.6867 74.5984C66.7592 74.5235 66.799 74.4229 66.7974 74.3187C66.7958 74.2144 66.7529 74.1151 66.6781 74.0425C66.6544 74.0196 66.628 73.9998 66.5994 73.9834C66.5717 73.9596 66.5411 73.9393 66.5084 73.9231C62.2726 72.1101 57.6598 71.3532 53.0668 71.7174C48.4737 72.0817 44.0379 73.5562 40.1409 76.0141C37.2662 77.7981 34.7953 80.1622 32.8863 82.9553C30.9772 85.7484 29.6718 88.9091 29.0536 92.2354M39.2799 77.5639C43.1455 74.8462 47.6331 73.1453 52.3289 72.6181C58.6745 71.858 61.2649 72.7633 65.7052 74.4816C61.5896 78.9821 57.4912 83.5061 53.7201 88.3006C51.8148 90.7237 49.9956 93.2206 48.1851 95.7114C46.3561 98.2226 44.5892 100.778 42.8862 103.377C40.2424 107.359 37.9052 111.536 35.8949 115.872C27.97 102.002 26.2529 86.923 39.2762 77.5639" fill="#B26EE6"/>
<path d="M142.949 112.218C142.833 112.433 142.703 112.642 142.58 112.854C145.892 115.089 149.267 117.794 151.16 121.335C153.049 124.817 152.224 128.736 150.752 132.398C146.149 143.533 124.237 172.865 111.646 173.364C101.305 172.503 82.8288 157.417 79.3651 155.086C72.1314 150.22 53.7565 140.994 38.4294 119.519C37.7447 118.54 37.0941 117.541 36.4774 116.522C36.3348 116.832 36.2733 117.149 35.9424 117.15C38.3765 120.888 41.0638 124.455 43.9854 127.826C54.0898 139.388 64.0823 146.455 75.6984 153.627C83.3244 158.333 103.865 175.755 113.442 173.889C124.881 170.691 137.082 154.862 142.724 147.146C156.068 128.919 156.701 121.457 142.949 112.218ZM66.0921 75.2517C69.8719 76.7486 73.6025 78.3685 77.3134 80.0327C77.3688 80.2689 77.755 80.3304 78.1117 80.3624C78.0084 81.3636 77.9752 81.7843 77.7735 83.4165C77.7428 83.4849 77.7401 83.5626 77.7661 83.6329C77.7691 83.6748 77.7817 83.7153 77.8031 83.7514C77.8244 83.7874 77.8539 83.8181 77.8891 83.8408C80.8411 87.8924 85.6245 91.607 91.3268 95.9539C91.136 96.1911 91.0437 96.4926 91.0691 96.796C91.0946 97.0994 91.2357 97.3814 91.4634 97.5836C92.1337 98.0362 92.5482 97.8185 93.2936 97.9194C93.003 97.9657 92.7248 98.0699 92.4753 98.2259C92.2259 98.3819 92.0103 98.5865 91.8415 98.8275C91.6727 99.0684 91.5541 99.3409 91.4927 99.6286C91.4314 99.9164 91.4285 100.214 91.4843 100.502C91.9689 101.885 93.5125 101.518 94.05 101.609C96.879 102.533 94.4867 103.648 97.3083 112.329C97.8483 113.949 100.618 107.766 108.145 104.432C111.794 109.133 117.997 111.698 124.424 107.707C124.466 107.682 124.503 107.649 124.533 107.609C124.562 107.57 124.584 107.526 124.596 107.478C124.609 107.43 124.612 107.381 124.605 107.332C124.598 107.284 124.582 107.237 124.557 107.194C124.532 107.152 124.499 107.115 124.46 107.085C124.421 107.055 124.376 107.034 124.329 107.021C124.281 107.009 124.231 107.006 124.183 107.013C124.134 107.02 124.087 107.036 124.045 107.061C122.165 108.314 119.954 108.977 117.696 108.966C115.898 108.811 114.155 108.27 112.584 107.382C111.014 106.493 109.653 105.277 108.594 103.816C108.56 103.693 108.225 103.35 107.632 102.249C108.354 97.051 109.119 90.9256 109.864 85.0524C110.189 85.0856 110.531 85.1815 110.637 84.8199C110.994 83.7904 111.113 82.6929 110.982 81.6108C110.634 78.9048 107.744 78.7388 100.659 77.8716C100.672 76.5641 100.585 75.2517 100.602 73.9455C100.601 73.8951 100.589 73.8456 100.568 73.7998C100.547 73.7539 100.517 73.7127 100.48 73.6784C100.443 73.6441 100.4 73.6175 100.353 73.6C100.306 73.5825 100.255 73.5745 100.205 73.5765C100.147 73.5788 100.091 73.5939 100.04 73.6207C98.5948 74.3804 97.2317 75.2872 95.9725 76.3267C95.9018 76.3976 95.862 76.4936 95.862 76.5937C95.862 76.6938 95.9018 76.7898 95.9725 76.8606C95.9943 76.8806 96.0177 76.8987 96.0426 76.9147L96.6847 77.2837C93.5667 76.8114 83.9653 75.3575 82.6135 75.3157C78.2753 74.7364 77.4967 79.1459 77.4131 79.2701C77.3073 79.2222 69.0343 75.7031 66.61 74.681L66.0921 75.2517ZM107.719 103.812C103.956 105.698 100.599 108.304 97.8397 111.483C95.403 103.534 97.5519 101.513 93.9898 100.848C93.4867 100.828 92.8926 100.964 92.4486 100.638C92.0046 100.312 92.1903 99.6377 92.4707 99.2601C93.2911 98.126 94.4523 99.0141 94.4523 98.249C94.296 96.8764 92.7057 97.2085 92.2383 97.1248C91.4437 96.9821 91.8053 95.9748 93.0796 95.8038C96.3477 94.9243 99.1644 94.2048 102.266 95.548C103.687 96.2762 104.795 97.4951 105.386 98.9784C105.987 100.669 106.769 102.29 107.719 103.812ZM109.13 84.9761C108.447 90.3352 107.777 95.6943 107.047 101.049C106.72 100.276 106.432 99.4876 106.088 98.7214C104.212 93.9477 99.3513 93.4324 94.44 94.6833C93.5603 94.8334 92.703 95.0929 91.8877 95.4557C86.5618 91.4225 81.6541 87.5837 78.5188 83.4411C78.7095 81.9085 78.7575 81.3833 78.8436 80.5038C97.1201 83.9478 108.054 84.847 109.135 84.9761L109.13 84.9761ZM99.8643 74.5888C99.8741 75.6453 99.9245 76.7044 99.9184 77.7597L98.6884 77.5789L96.8975 76.5395C97.8316 75.8078 98.8238 75.1533 99.8643 74.5826V74.5888ZM82.5483 76.0648C85.3232 76.2838 88.0841 76.6533 90.8188 77.1718C108.531 79.7092 109.613 79.5297 110.153 81.2824C110.394 82.2877 110.345 83.3407 110.012 84.3193C99.4596 83.3107 88.381 81.585 78.1068 79.6133C78.162 79.087 78.321 78.5769 78.5748 78.1125C78.8285 77.6481 79.1719 77.2386 79.585 76.9079C79.9981 76.5771 80.4728 76.3317 80.9814 76.1857C81.4901 76.0397 82.0227 75.9961 82.5483 76.0574V76.0648Z" fill="black"/>
<path d="M43.166 108.444C42.9052 108.042 42.2583 108.416 42.5203 108.822C45.3495 113.2 48.6917 117.225 52.4759 120.81C52.824 121.141 53.3541 120.614 53.0048 120.281C49.2646 116.742 45.9612 112.768 43.1648 108.444M58.6714 126.643C58.359 126.274 57.8313 126.808 58.1437 127.172C61.1121 130.634 64.3851 133.823 67.9234 136.701C68.2924 137.003 68.825 136.477 68.4523 136.173C64.9133 133.296 61.6398 130.106 58.6714 126.643ZM91.8728 152.445C87.8642 150.49 84.1736 147.941 80.9258 144.884C80.5752 144.553 80.0451 145.081 80.3969 145.412C83.6902 148.515 87.433 151.103 91.4989 153.089C91.9306 153.3 92.3094 152.655 91.8777 152.445M111.467 162.665C107.563 161.787 103.967 159.877 101.053 157.136C100.705 156.806 100.175 157.334 100.526 157.665C103.531 160.498 107.241 162.474 111.269 163.386C111.737 163.49 111.937 162.771 111.467 162.665ZM123.709 165.607C122.204 165.293 120.759 164.74 119.428 163.969C119.385 163.945 119.338 163.93 119.289 163.924C119.24 163.919 119.19 163.924 119.143 163.938C119.096 163.952 119.052 163.976 119.014 164.007C118.976 164.039 118.944 164.077 118.922 164.121C118.48 164.946 122.597 166.135 123.511 166.326C123.979 166.425 124.18 165.704 123.709 165.607ZM52.7981 109.476C52.6751 108.769 52.0417 108.054 51.2656 108.295C50.9033 108.438 50.5888 108.68 50.3583 108.993C50.1278 109.307 49.9908 109.679 49.963 110.068C49.9525 110.27 49.9888 110.473 50.0691 110.66C50.1494 110.846 50.2716 111.012 50.4262 111.144C50.5808 111.276 50.7636 111.37 50.9605 111.42C51.1575 111.47 51.3633 111.474 51.562 111.432C51.9729 111.316 52.3264 111.052 52.5536 110.691C52.7809 110.329 52.8658 109.896 52.792 109.476M70.0341 125.383C68.6122 123.526 66.0686 126.113 67.7119 127.789C67.8538 127.925 68.0213 128.032 68.2045 128.104C68.3878 128.175 68.5834 128.209 68.78 128.205C68.9766 128.201 69.1705 128.158 69.3504 128.078C69.5304 127.999 69.6929 127.885 69.8287 127.743C69.8433 127.728 69.8572 127.713 69.8705 127.697C70.1699 127.395 70.3509 126.995 70.381 126.571C70.411 126.146 70.2879 125.725 70.0341 125.383ZM91.1864 142.087C90.7505 142.11 90.3328 142.27 89.992 142.543C89.6512 142.815 89.4044 143.188 89.2861 143.608C89.2652 143.662 89.2589 143.72 89.2676 143.777C89.3239 144.225 89.5372 144.639 89.8696 144.944C90.2019 145.25 90.6319 145.428 91.0831 145.447C91.2761 145.479 91.4733 145.472 91.6636 145.427C91.8539 145.382 92.0335 145.3 92.1922 145.186C92.3508 145.072 92.4854 144.928 92.5883 144.761C92.6911 144.595 92.7602 144.41 92.7916 144.217C92.7988 144.17 92.8041 144.122 92.8076 144.075C92.8888 143.148 92.2098 142.017 91.1864 142.083M112.559 153.345C112.315 153.297 112.064 153.3 111.821 153.354C111.578 153.407 111.349 153.51 111.148 153.656C110.947 153.802 110.778 153.987 110.652 154.201C110.525 154.415 110.444 154.653 110.414 154.9C110.545 156.854 113.41 157.414 113.866 155.654C113.944 155.416 113.972 155.165 113.947 154.917C113.923 154.668 113.846 154.428 113.723 154.21C113.6 153.993 113.433 153.804 113.232 153.655C113.032 153.506 112.803 153.4 112.559 153.345ZM90.9872 105.817C91.3869 106.086 91.7621 105.439 91.3648 105.172C87.5353 102.728 83.9031 99.9887 80.5014 96.9778C76.0316 92.893 69.6282 84.1748 73.8004 79.9079C74.1374 79.5635 73.6085 79.0346 73.2715 79.379C67.8337 84.9509 77.2788 96.107 84.3907 101.178C86.5333 102.804 88.7596 104.316 90.9909 105.817M130.064 125.367C129.589 125.413 129.585 126.16 130.064 126.114C132.983 125.848 135.849 125.169 138.577 124.099C142.58 122.515 146.051 119.62 145.287 115.387C145.196 114.916 144.475 115.115 144.567 115.587C145.764 121.757 136.378 124.772 130.064 125.367Z" fill="black"/>
<path d="M52.6042 57.6406C51.0642 57.1646 49.5612 56.5828 48.0593 56.0022C47.5928 54.1006 47.0876 52.2093 46.544 50.3282C46.448 49.9986 45.8884 49.9469 45.8232 50.3282C45.667 51.2938 44.5932 56.0084 43.747 56.3245C43.5502 56.4217 43.3497 56.5151 43.1467 56.5988C41.8339 57.0833 40.4849 57.4638 39.1123 57.7365C39.0255 57.7615 38.9507 57.8169 38.9013 57.8926C38.852 57.9682 38.8315 58.059 38.8436 58.1485C38.8557 58.238 38.8995 58.3202 38.9671 58.38C39.0348 58.4399 39.1216 58.4734 39.2119 58.4745C40.8087 58.6423 42.3842 58.972 43.9142 59.4585C46.7518 64.7328 46.1049 67.8976 48.2586 59.7144C49.6426 59.1395 51.0756 58.6908 52.5402 58.3737C52.5951 58.3721 52.6486 58.356 52.6952 58.3269C52.7599 58.2989 52.8124 58.2486 52.8431 58.1852C52.8738 58.1218 52.8807 58.0494 52.8625 57.9813C52.8627 57.9039 52.8375 57.8286 52.7909 57.7668C52.7443 57.7051 52.6787 57.6615 52.6042 57.6406ZM20.7398 42.3295C19.1351 42.0684 17.5531 41.6831 16.008 41.177C15.7165 39.2189 15.2454 37.2915 14.9662 35.3308C14.9451 35.2613 14.9043 35.1993 14.8488 35.1524C14.7934 35.1054 14.7255 35.0755 14.6535 35.0661C14.5814 35.0568 14.5081 35.0684 14.4425 35.0997C14.3769 35.1309 14.3217 35.1804 14.2835 35.2423C13.3155 37.0744 12.5686 39.015 12.0585 41.0233C10.1872 41.5743 8.30655 42.0872 6.41645 42.562C6.02285 42.6592 6.1028 43.1524 6.41645 43.2816C8.10216 43.9182 9.85143 44.3718 11.6341 44.6346C11.9109 45.5755 13.4127 49.3861 14.0277 49.6025C14.0635 49.6287 14.1046 49.6465 14.1482 49.6549C14.1917 49.6632 14.2365 49.6618 14.2795 49.6508C14.3224 49.6397 14.3623 49.6193 14.3964 49.5909C14.4305 49.5626 14.4579 49.5271 14.4766 49.4869C14.4766 49.4783 14.4877 49.4746 14.4926 49.4648L14.5 49.4463C14.5211 49.414 14.5361 49.3782 14.5443 49.3405C15.2255 47.8793 15.7516 46.3507 16.1138 44.7797C17.5929 44.0473 19.143 43.4678 20.7398 43.0503C20.8172 43.027 20.8851 42.9794 20.9333 42.9144C20.9816 42.8495 21.0076 42.7708 21.0076 42.6899C21.0076 42.6091 20.9816 42.5303 20.9333 42.4654C20.8851 42.4005 20.8172 42.3529 20.7398 42.3295ZM35.4014 145.362C33.7532 144.87 32.0865 144.454 30.4015 144.113C29.843 141.871 29.2826 139.629 28.72 137.389C28.696 137.312 28.6481 137.245 28.5833 137.197C28.5185 137.15 28.4401 137.124 28.3597 137.124C28.2792 137.124 28.2008 137.15 28.136 137.197C28.0712 137.245 28.0233 137.312 27.9993 137.389C27.4015 139.429 26.7693 141.461 26.0718 143.47C25.071 143.928 24.0235 144.276 22.9477 144.508L19.3807 145.528C19.051 145.621 19.0006 146.186 19.3807 146.247C21.7177 146.632 23.9538 147.517 26.3203 147.694C26.9267 150.8 27.8295 156.311 28.6844 153.118C30.4802 148.143 30.0374 148.108 30.3916 147.984C35.228 145.991 35.8417 146.21 35.6462 145.606C35.6274 145.549 35.5954 145.497 35.5526 145.454C35.5099 145.411 35.4577 145.379 35.4002 145.36" fill="#B26EE6"/>
<path d="M20.0336 99.904C20.0717 100.381 20.8196 100.385 20.7802 99.904C20.4607 95.5306 21.2947 91.15 23.1989 87.2C25.1031 83.25 28.0108 79.869 31.6313 77.395C32.0286 77.1281 31.6546 76.4811 31.2537 76.7493C28.3493 78.7306 25.8784 81.2821 23.9913 84.2486C22.1043 87.2151 20.8406 90.5346 20.2771 94.0049C19.9587 95.956 19.8761 97.9382 20.0311 99.9089M23.7642 73.9424C24.0988 73.5956 23.5711 73.0667 23.2353 73.4135C18.0164 78.8108 13.7385 85.1157 13.5527 92.6507C13.5527 92.7499 13.5921 92.845 13.6623 92.9151C13.7324 92.9852 13.8275 93.0246 13.9267 93.0246C14.0258 93.0246 14.1209 92.9852 14.1911 92.9151C14.2612 92.845 14.3006 92.7499 14.3006 92.6507C14.4666 85.3937 18.6892 79.1908 23.7642 73.9424ZM54.3285 153.586C56.0283 155.072 57.7729 156.504 59.5621 157.883C59.9422 158.177 60.3149 157.527 59.9397 157.237C51.8904 151.014 44.7555 143.691 38.7444 135.483C38.4627 135.098 37.8133 135.471 38.0986 135.859C42.8439 142.346 48.2886 148.291 54.3346 153.586M76.2335 182.436C76.6567 182.666 77.0343 182.021 76.6111 181.791C70.4228 178.422 64.9104 173.938 60.3518 168.565C60.0406 168.196 59.5129 168.729 59.8229 169.094C64.4267 174.512 69.9899 179.035 76.2335 182.436ZM102.349 188.387C102.747 188.658 103.121 188.011 102.727 187.741C95.5012 182.79 88.723 177.217 82.4696 171.084C82.1252 170.748 81.5963 171.276 81.9407 171.613C86.8545 176.427 92.0895 180.901 97.6097 185.005C99.1677 186.161 100.747 187.289 102.349 188.387ZM126.244 208.967C126.174 208.897 126.079 208.857 125.98 208.857C125.88 208.857 125.785 208.897 125.715 208.967C125.645 209.037 125.606 209.132 125.606 209.231C125.606 209.331 125.645 209.426 125.715 209.496C130.499 214.305 136.203 218.1 142.487 220.654C142.933 220.836 143.126 220.114 142.686 219.934C136.525 217.417 130.934 213.688 126.244 208.967ZM150.988 206.65C145.488 204.733 140.516 201.551 136.474 197.358C136.139 197.011 135.613 197.54 135.946 197.886C140.083 202.17 145.17 205.419 150.796 207.37C151.251 207.529 151.447 206.807 150.994 206.65M199.268 187.435C198.91 187.115 198.38 187.641 198.739 187.963C202.64 191.44 206.753 194.671 211.054 197.637C211.451 197.91 211.825 197.268 211.43 196.993C207.187 194.055 203.125 190.863 199.268 187.435ZM210.322 216.641C199.976 211.485 197.979 206.695 197.145 207.587C197.081 207.656 197.045 207.747 197.045 207.842C197.045 207.937 197.081 208.028 197.145 208.097C200.894 211.823 205.215 214.925 209.944 217.285C210.374 217.499 210.754 216.856 210.322 216.641ZM221.506 206.984C223.636 208.848 225.973 210.46 228.472 211.787C228.896 212.012 229.274 211.368 228.849 211.142C226.405 209.847 224.119 208.275 222.035 206.455C221.674 206.14 221.144 206.667 221.506 206.984ZM208.265 165.834C212.509 168.86 217.097 171.37 221.933 173.312C222.38 173.491 222.573 172.768 222.132 172.591C217.359 170.666 212.83 168.182 208.642 165.19C208.249 164.91 207.877 165.559 208.265 165.834ZM239.661 191.179C237.678 190.159 235.83 188.896 234.161 187.417C233.801 187.099 233.273 187.625 233.632 187.945C235.347 189.469 237.245 190.772 239.284 191.824C239.712 192.045 240.089 191.4 239.661 191.179Z" fill="black"/>
<path d="M79.3731 31.1744C78.2033 30.504 76.9287 30.0357 75.6031 29.7894C75.2698 28.3737 74.7606 27.0059 74.4482 25.584C74.4189 25.4883 74.3529 25.408 74.2647 25.3608C74.1764 25.3135 74.073 25.3031 73.9771 25.3319C73.8889 25.3586 73.8136 25.4168 73.7655 25.4955C73.0892 26.9144 72.5138 28.3793 72.0435 29.8792C70.5749 30.2605 69.1702 30.8632 67.6967 31.2187C67.2539 31.3269 67.4052 31.905 67.7951 31.9567C69.1998 32.1289 70.5749 32.4081 71.9623 32.6725C72.1493 33.4216 73.383 37.4486 74.0669 37.3404C74.1454 37.346 74.2232 37.3222 74.2851 37.2735C74.347 37.2248 74.3885 37.1548 74.4014 37.0771C74.7114 35.6602 74.9869 34.2371 75.2932 32.8201C77.2772 32.1658 79.7974 32.2297 79.5391 31.3884C79.5131 31.3012 79.4557 31.2267 79.378 31.1793" fill="#B26EE6"/>
<path d="M173.479 112.485C176.591 115.063 179.796 117.523 183.094 119.865C183.488 120.144 183.86 119.496 183.47 119.219C180.227 116.919 177.072 114.5 174.008 111.962C173.639 111.657 173.109 112.183 173.479 112.49M212.696 147.285C213.104 147.545 213.479 146.899 213.074 146.641C208.226 143.542 203.872 139.732 200.159 135.337C199.848 134.968 199.321 135.501 199.63 135.865C203.389 140.306 207.796 144.156 212.701 147.285M179.915 129.553C179.582 129.205 179.054 129.734 179.386 130.082C182.262 133.077 185.358 135.853 188.646 138.387C189.026 138.68 189.399 138.032 189.024 137.742C185.788 135.242 182.743 132.505 179.915 129.553Z" fill="black"/>
<path d="M108.555 95.357C108.536 95.4973 108.072 99.1012 107.636 102.245C108.374 103.629 108.544 103.612 108.598 103.812C109.661 105.269 111.023 106.483 112.592 107.371C114.162 108.259 115.903 108.802 117.7 108.962C122.674 108.988 124.016 106.343 124.544 107.187C125.022 107.942 121.273 109.212 120.571 109.412C115.897 110.626 110.99 108.089 108.148 104.428C104.531 106.151 101.323 108.625 98.7383 111.685C99.1073 112.693 101.768 119.957 106.265 123.156C110.581 126.231 119.609 127.359 129.312 121.711C131.832 120.216 134.221 118.511 136.454 116.614C138.477 115.031 140.209 113.107 141.573 110.93C143.386 107.844 145.37 104.88 143.418 101.582C139.029 106.049 131.931 100.526 130.418 96.9339C130.327 96.367 130.361 95.787 130.517 95.2345C130.674 94.6821 130.949 94.1706 131.325 93.7359C124.135 91.8208 122.399 95.7137 117.88 93.6941C117.297 93.4342 116.787 93.0349 116.394 92.5315C116.002 92.0281 115.739 91.436 115.63 90.8073C115.261 88.3473 117.032 86.5822 118.939 82.3141C117.698 82.065 116.47 81.7563 115.26 81.3892C113.519 86.1375 111.5 90.7787 109.211 95.2882C109.02 95.6018 108.699 95.4161 108.555 95.357Z" fill="#ACEAC7"/>
</svg>
