<svg width="289" height="324" viewBox="0 0 289 324" fill="none" xmlns="http://www.w3.org/2000/svg">
<path d="M41.9287 269.93C76.0564 282.507 106.285 280.756 131.509 254.758C140.822 245.159 147.165 235.026 149.286 222.8C141.335 226.216 129.123 217.17 124.544 208.749C120.832 201.594 124.591 198.986 124.567 199.147C126.812 197.819 125.779 197.954 126.405 196.691C129.815 193.013 132.312 188.585 133.694 183.764C135.965 176.218 132.224 171.3 134.694 166.359C128.163 160.516 120.37 156.262 111.922 153.931C109.939 158.411 106.933 163.627 101.868 165.352C94.857 167.237 70.1231 162.03 72.4312 149.817C71.7243 149.855 73.327 146.855 72.6023 146.921C62.1529 152.874 49.2227 160.936 38.77 167.037C6.77614 201.762 9.78151 245.984 29.7539 263.396C33.4637 266.169 37.5674 268.371 41.9287 269.93Z" fill="#DFE4ED"/>
<path d="M221.451 154.792C217.141 150.655 213.815 145.602 211.718 140.008C209.62 134.413 208.806 128.419 209.334 122.467C209.862 116.516 211.72 110.759 214.77 105.621C217.819 100.483 221.984 96.0958 226.955 92.7819C228.979 91.1503 231.139 89.6956 233.411 88.4336C218.215 90.1655 167.372 96.9122 156.029 107.347C149.882 112.996 146.544 133.172 150.975 138.468C150.244 144.094 148.967 151.66 148.309 158.056C149.196 158.101 148.811 158.553 148.123 166.331C148.037 167.321 149.253 167.684 150.086 167.74C159.396 168.115 166.433 159.013 175.706 157.478C175.651 154.896 175.664 151.853 175.73 149.214C192.498 155.157 221.332 163.465 238.728 165.206C232.183 163.248 226.24 159.665 221.451 154.792Z" fill="#FFD35C"/>
<path d="M134.226 175C135.377 182.51 131.482 191.481 126.404 196.683C126.484 196.728 126.551 196.793 126.597 196.872C126.644 196.951 126.669 197.041 126.67 197.133C126.67 197.224 126.647 197.315 126.602 197.394C126.557 197.474 126.491 197.541 126.412 197.587C124.824 198.476 123.972 199.048 124.133 198.949C118.734 204.812 130.033 219.504 141.62 223.141C147.865 225.442 152.794 221.892 157.463 217.053C165.372 208.793 176.753 191.873 178.95 186.905C179.193 186.339 179.318 185.729 179.316 185.113C179.313 184.497 179.185 183.888 178.937 183.324C178.17 181.921 176.58 182.194 175.305 182.642C180.435 176.708 182.097 165.755 178.023 166.484C180.982 162.881 181.587 156.022 176.007 157.42C166.583 158.827 159.458 167.696 150.052 167.317C147.697 167.156 148.276 166.465 149.124 157.823C149.166 155.907 137.007 161.477 134.692 166.352C133.372 168.992 133.795 172.177 134.226 175ZM136.085 166.066C138.506 162.733 144.047 159.739 147.984 158.567C147.284 165.69 145.542 168.976 152.155 168.334C161.355 167.44 170.026 158.004 177.784 158.381C179.237 158.567 179.173 160.138 179.076 161.287C178.561 166.775 174.568 167.088 175.283 168.227C175.886 169.171 178.349 166.452 179.032 168.08C179.24 168.797 179.295 169.55 179.194 170.29C178.687 181.705 170.155 184.503 171.11 185.796C171.144 185.85 171.188 185.896 171.241 185.931C171.293 185.966 171.353 185.99 171.415 186.001C171.477 186.011 171.541 186.009 171.603 185.993C171.664 185.977 171.721 185.949 171.771 185.909C172.981 184.959 176.813 182.52 177.849 183.632C179.407 185.854 175.912 190.411 174.401 192.671C168.697 201.178 154.444 224.427 144.423 222.713C132.964 220.689 118.418 204.582 125.98 198.702C129.164 195.589 131.693 191.87 133.419 187.764C138.403 176.422 132.567 171.568 136.085 166.066Z" fill="black"/>
<path d="M162.395 193.232L165.983 191.689C166.614 191.418 166.068 190.495 165.442 190.764L161.854 192.307C161.215 192.578 161.759 193.502 162.395 193.232ZM157.156 184.36L160.781 182.484C161.394 182.161 160.852 181.243 160.24 181.558L156.615 183.433C156.001 183.756 156.544 184.676 157.156 184.36ZM162.316 176.128C169.004 176.699 171.81 171.25 174.534 169.66C175.114 169.296 174.791 167.315 171.822 170.424C169.555 173.061 166.03 175.571 162.6 175.095C161.927 175.001 161.635 176.033 162.316 176.128Z" fill="black"/>
<path d="M210.79 116.378C209.14 123.958 209.737 131.855 212.509 139.1C223.132 170.775 267.111 173.906 279.371 150.789C284.224 141.005 287.118 122.422 282.854 110.331C276.584 93.1821 258.482 83.0991 243.082 85.8833C235.382 87.4274 228.271 91.1054 222.561 96.4975C216.851 101.89 212.772 108.778 210.79 116.378Z" fill="#FFD35C"/>
<path d="M233.962 163.55C253.099 171.57 277.585 165.09 282.827 145.134C297.137 96.8054 256.952 71.3888 226.842 92.1536C200.107 110.518 204.139 151.054 233.962 163.55ZM243.37 86.3495C259.05 83.4442 276.218 93.8177 282.374 110.659C286.552 122.501 284.359 140.735 279.371 150.788C267.14 173.851 223.175 170.884 212.509 139.099C204.011 114.439 219.814 90.7139 243.37 86.3495ZM209.58 165.871C210.24 166.076 210.522 165.043 209.864 164.838C203.609 162.9 197.256 161.294 190.832 160.028C190.159 159.894 189.864 160.927 190.548 161.061C196.972 162.328 203.325 163.934 209.58 165.871Z" fill="black"/>
<path d="M219.926 121.904C218.236 134.344 222.297 143.421 231.817 152.797C232.301 153.281 233.066 152.526 232.574 152.042C225.549 145.121 220.38 137.297 220.562 127.461C221.574 86.4513 259.945 87.4908 273.987 111.45C277.454 117.312 277.054 123.413 275.937 130.852C275.183 136.805 273.882 142.934 270.511 148.003C263.732 158.193 249.659 160.449 237.915 156.952C237.779 156.918 237.636 156.939 237.515 157.01C237.395 157.081 237.307 157.195 237.27 157.33C237.233 157.465 237.25 157.608 237.317 157.731C237.385 157.853 237.497 157.944 237.631 157.985C247.999 161.06 260.823 160.004 268.722 151.914C273.08 147.458 275.188 141.423 276.308 135.419C279.251 119.638 278.463 110.294 265.467 100.376C250.345 88.5447 227.753 92.5153 221.939 112.158C221.017 115.35 220.344 118.608 219.926 121.904ZM146.425 108.055C145.365 100.77 141.512 94.1821 135.68 89.6875L134.389 90.1039C152.305 102.464 146.333 130.564 130.167 141.155C111.874 153.141 89.4148 136.858 83.9592 123.852C81.9723 117.943 83.4137 109.561 85.5233 103.677C86.0301 102.192 85.8461 102.238 84.7969 102.41C84.6775 102.35 75.3886 103.841 72.9368 99.827C70.8162 102.048 68.1624 103.689 65.2281 104.593C60.9573 105.594 48.7066 105.663 39.9277 117.829C36.6625 122.335 34.6013 127.713 30.6904 131.745C23.7016 138.947 10.9618 138.647 8.736 152.15C7.01058 163.981 19.3436 175.554 31.5136 170.92C31.6653 170.862 64.7358 152.831 72.175 148.646C72.0828 149.034 72.0203 149.429 71.9878 149.827C69.6716 162.08 95.3158 167.548 102.127 165.721C108.572 163.516 112.748 153.32 114.878 146.735C132.116 147.655 148.501 129.327 146.425 108.055ZM68.7161 115.674C70.0073 108.969 79.1187 110.538 81.9675 115.674C81.4688 123.952 84.1029 123.373 81.7561 124.472C80.572 125.036 79.3182 125.44 78.0276 125.673C73.9295 126.456 68.2189 120.322 68.7161 115.674ZM103.696 163.802C98.7553 166.82 87.4617 163.26 82.6293 161.331C73.6293 157.98 72.2621 153.277 73.4291 147.92C82.9133 142.593 85.5636 139.313 89.3357 133.64C89.8602 134.134 90.338 134.591 90.7141 134.981C96.8099 141.405 104.938 145.527 113.722 146.648C112.765 148.192 109.807 159.805 103.696 163.802Z" fill="black"/>
<path d="M127.868 100.392C128.478 100.618 128.751 99.7185 128.244 99.415C128.326 99.1696 128.493 98.9618 128.715 98.8291C130.162 98.051 131.771 97.6202 133.413 97.5709C135.056 97.5216 136.687 97.8551 138.178 98.5451C138.8 98.8356 139.344 97.914 138.719 97.6202C131.632 94.3065 124.57 99.1778 127.868 100.392ZM96.6889 117.268C96.5275 116.597 95.5009 116.881 95.6559 117.552C95.8572 118.48 96.3158 119.332 96.9791 120.011C97.6424 120.689 98.4836 121.168 99.4062 121.39C100.329 121.613 101.295 121.571 102.195 121.27C103.095 120.968 103.892 120.42 104.494 119.686C104.932 119.16 104.172 118.395 103.737 118.929C103.269 119.531 102.638 119.985 101.919 120.239C101.199 120.493 100.423 120.534 99.6804 120.359C98.9382 120.185 98.2618 119.8 97.7315 119.252C97.2012 118.704 96.8393 118.016 96.6889 117.268ZM131.33 121.842C130.473 119.96 129.816 124.72 123.697 127.062C119.662 128.812 114.211 129.483 110.123 127.49C110.01 127.43 109.881 127.412 109.756 127.439C109.632 127.466 109.521 127.536 109.444 127.637C109.367 127.738 109.327 127.863 109.333 127.99C109.34 128.117 109.39 128.238 109.477 128.331C117.037 138.328 126.967 135.917 129.964 128.161C130.905 126.19 131.373 124.026 131.33 121.842ZM79.5944 118.81C76.1032 119.294 74.962 117.881 74.7135 118.921C74.4375 120.094 78.3919 120.039 79.5944 119.881C80.2755 119.791 80.2836 118.718 79.5944 118.81Z" fill="black"/>
<path d="M101.771 94.9007C97.4123 96.3676 93.2883 98.4563 89.5267 101.102C107.715 96.9053 141.469 87.9812 158.374 80.1595C160.981 78.9537 159.181 77.5156 157.004 78.2226C146.543 80.8293 102.57 94.6101 101.771 94.9007ZM78.7076 99.5685C82.1714 100.13 84.473 98.9229 87.8755 98.0755C92.8177 90.9979 117.198 87.4146 128.852 83.1229C124.876 78.4598 121.343 76.7376 115.54 74.775C87.0588 64.3885 71.6138 93.314 74.7048 97.6946C75.7466 98.8132 77.1813 99.4848 78.7076 99.5685Z" fill="#B26EE6"/>
<path d="M136.04 109.801C136.1 110.512 135.973 111.225 135.673 111.872C135.372 112.518 134.909 113.075 134.328 113.488C133.823 113.784 133.221 113.869 132.654 113.723C132.086 113.578 131.6 113.213 131.3 112.71C131 112.09 130.075 112.633 130.375 113.251C132.151 116.317 137.101 115.002 137.112 109.801C137.112 109.659 137.056 109.523 136.955 109.423C136.855 109.322 136.718 109.266 136.576 109.266C136.434 109.266 136.298 109.322 136.197 109.423C136.097 109.523 136.04 109.659 136.04 109.801ZM269.031 118.353C248.905 130.978 240.93 122.825 250.986 127.821C257.731 131.423 257.414 138.99 257.456 139.153C257.497 139.49 257.153 139.584 257.348 139.528C265.08 135.557 267.715 126.739 269.817 118.956C269.842 118.854 269.837 118.747 269.803 118.648C269.768 118.548 269.705 118.461 269.621 118.397C269.538 118.333 269.438 118.295 269.333 118.287C269.228 118.279 269.123 118.302 269.031 118.353Z" fill="black"/>
<path d="M246.649 125.883C244.501 124.999 237.407 126.96 230.904 120.539C230.819 120.46 230.711 120.409 230.595 120.396C230.479 120.383 230.363 120.407 230.262 120.466C230.161 120.525 230.082 120.614 230.036 120.721C229.991 120.828 229.981 120.947 230.008 121.061C231.284 125.927 233.617 130.453 236.841 134.315C245.285 144.13 257.644 140.691 257.464 139.157C257.008 137.403 261.384 129.523 246.649 125.883Z" fill="#FF8684"/>
<path d="M90.0864 114.613C89.9609 113.148 90.1594 111.673 90.668 110.293C91.1765 108.913 91.9826 107.663 93.029 106.629C94.0754 105.596 95.3364 104.806 96.7225 104.315C98.1086 103.824 99.5858 103.645 101.049 103.789C101.737 103.848 101.732 102.777 101.049 102.717C99.4438 102.57 97.8257 102.775 96.3081 103.318C94.7905 103.862 93.4101 104.731 92.2636 105.864C91.1171 106.997 90.2323 108.368 89.6711 109.879C89.1098 111.39 88.8858 113.006 89.0147 114.613C89.068 115.295 90.1429 115.302 90.0864 114.613ZM126.403 196.684C124.723 195.495 107.518 211.15 98.6539 216.182C78.094 228.654 58.7414 215.69 69.8316 201.01C70.2254 200.442 69.299 199.906 68.9084 200.469C61.453 211.206 67.4767 220.761 79.2739 222.12C97.9211 224.269 112.096 205.591 126.404 197.595C126.486 197.55 126.554 197.484 126.601 197.403C126.648 197.323 126.673 197.232 126.672 197.139C126.672 197.046 126.647 196.955 126.6 196.875C126.552 196.795 126.484 196.729 126.403 196.684ZM167.176 234.589C167.439 233.953 166.404 233.675 166.143 234.303C161.683 245.025 156.752 256.293 146.017 261.436C145.394 261.731 145.936 262.656 146.558 262.36C157.554 257.126 162.719 245.311 167.176 234.589ZM153.395 269.152C161.973 257.56 170.326 246.165 173.969 232.207C173.997 232.073 173.973 231.933 173.902 231.816C173.83 231.7 173.717 231.615 173.585 231.578C173.453 231.542 173.313 231.558 173.192 231.621C173.071 231.685 172.979 231.793 172.935 231.922C169.406 245.606 160.829 257.328 152.471 268.612C152.066 269.167 152.99 269.701 153.395 269.152ZM44.3246 260.078C46.6347 261.328 49.3064 261.738 51.8849 261.239C52.5628 261.161 52.5693 260.091 51.8849 260.167C49.6677 260.611 47.3671 260.354 45.3028 259.431C44.4639 259.011 43.7844 258.33 43.3671 257.49C42.9499 256.65 42.8174 255.696 42.9898 254.774C43.0232 254.639 43.0023 254.496 42.9317 254.375C42.8611 254.255 42.7462 254.167 42.6116 254.13C42.477 254.093 42.3332 254.109 42.2109 254.177C42.0886 254.244 41.9974 254.357 41.9568 254.49C41.7438 255.552 41.8558 256.653 42.2782 257.65C42.7006 258.647 43.4138 259.493 44.3246 260.078ZM268.555 193.405C266.564 187.641 264.175 182.023 261.404 176.591C261.093 175.976 260.166 176.518 260.479 177.132C263.205 182.482 265.558 188.014 267.522 193.689C267.746 194.336 268.781 194.058 268.555 193.405ZM281.514 168.679C281.392 168.617 281.251 168.603 281.12 168.642C280.989 168.68 280.877 168.767 280.808 168.885C280.739 169.003 280.718 169.143 280.748 169.277C280.779 169.41 280.859 169.526 280.973 169.602C292.581 176.452 292.63 176.768 293.012 176.058C293.076 175.938 293.092 175.799 293.058 175.668C293.024 175.537 292.941 175.423 292.827 175.35C289.052 173.126 285.323 170.829 281.514 168.679ZM295.966 114.5C300.704 113.487 305.276 111.813 309.548 109.528C310.157 109.206 309.618 108.279 309.008 108.604C304.816 110.841 300.33 112.478 295.682 113.467C295.007 113.612 295.293 114.645 295.966 114.5ZM282.986 81.5858L292.78 71.1331C293.251 70.6295 292.494 69.8709 292.023 70.3745L282.229 80.8288C281.758 81.3324 282.515 82.0926 282.986 81.5858ZM121.436 120.449C122.107 120.243 122.721 119.885 123.231 119.404C123.741 118.922 124.134 118.33 124.379 117.672C124.623 117.015 124.714 116.31 124.643 115.612C124.572 114.914 124.341 114.242 123.969 113.647C123.573 113.089 122.645 113.623 123.044 114.188C123.335 114.641 123.517 115.154 123.578 115.688C123.638 116.223 123.574 116.764 123.391 117.27C123.208 117.776 122.911 118.232 122.522 118.605C122.134 118.977 121.665 119.255 121.152 119.416C121.019 119.457 120.906 119.548 120.839 119.67C120.771 119.792 120.754 119.936 120.792 120.071C120.829 120.205 120.917 120.32 121.037 120.391C121.158 120.462 121.301 120.482 121.436 120.449ZM253.654 65.2079L259.861 55.0506C260.223 54.4615 259.295 53.9208 258.936 54.5099L252.73 64.6672C252.369 65.258 253.294 65.7954 253.654 65.2079ZM235.975 197.12C236.146 192.362 236.316 187.603 236.485 182.844C236.509 182.155 235.439 182.156 235.413 182.844L234.903 197.12C234.879 197.809 235.949 197.808 235.975 197.12ZM291.071 197.553C291.529 197.039 290.771 196.278 290.314 196.794C288.163 199.204 285.456 201.053 282.428 202.178C279.4 203.303 276.143 203.671 272.94 203.25C272.264 203.155 271.972 204.186 272.654 204.282C276.04 204.757 279.492 204.392 282.703 203.218C285.915 202.045 288.789 200.099 291.071 197.553ZM267.481 214.542C266.863 214.237 266.324 215.156 266.941 215.467C279.951 222.065 299.06 211.027 307.776 198.992C308.181 198.432 307.253 197.898 306.851 198.45C298.042 210.531 279.989 220.718 267.481 214.542ZM314.255 211.072C309.643 219.761 302.163 226.583 293.089 230.379C284.014 234.175 273.904 234.71 264.479 231.893C264.346 231.865 264.206 231.889 264.09 231.96C263.973 232.031 263.888 232.144 263.852 232.275C263.815 232.407 263.831 232.548 263.894 232.668C263.958 232.789 264.066 232.881 264.195 232.925C273.848 235.8 284.199 235.249 293.491 231.363C302.784 227.477 310.447 220.497 315.18 211.606C315.503 211.004 314.579 210.462 314.255 211.072ZM217.136 73.8625C216.845 74.4839 217.771 75.0295 218.059 74.4032C219.071 72.245 220.7 70.4345 222.739 69.1995C224.778 67.9645 227.137 67.3602 229.519 67.4628C230.206 67.5015 230.205 66.4298 229.519 66.3926C226.948 66.2801 224.402 66.929 222.199 68.2579C219.996 69.5867 218.235 71.5365 217.136 73.8625ZM231.405 56.2047C220.341 57.7816 209.177 62.6609 207.403 73.6365C207.298 74.3096 208.328 74.605 208.434 73.9206C210.323 63.2678 221.009 58.6677 231.691 57.2409C232.371 57.1392 232.08 56.1079 231.405 56.2047ZM195.864 65.6825C199.255 59.019 204.827 53.7187 211.652 50.6643C218.476 47.6099 226.141 46.9859 233.37 48.8962C233.507 48.9341 233.653 48.916 233.777 48.846C233.9 48.7759 233.991 48.6596 234.029 48.5226C234.067 48.3856 234.049 48.2392 233.979 48.1155C233.909 47.9919 233.792 47.9011 233.655 47.8632C226.198 45.8823 218.288 46.5175 211.242 49.6629C204.197 52.8083 198.443 58.2739 194.939 65.1482C194.626 65.7551 195.551 66.299 195.864 65.6825Z" fill="black"/>
</svg>
