<svg width="129" height="129" viewBox="0 0 129 129" fill="none" xmlns="http://www.w3.org/2000/svg">
<path d="M68.0475 87.433C67.2198 86.8505 66.5585 86.0621 66.1286 85.1459C65.9554 84.6756 65.8949 84.1713 65.9519 83.6733C62.1683 84.1893 57.9874 86.2662 54.5354 89.2848C54.0852 89.8064 53.5817 90.2794 53.0331 90.6961C47.9164 95.9206 44.2889 104.641 46.9121 111.813C49.4573 118.769 57.1676 123.712 66.3943 123.085C65.5222 118.843 65.5929 114.462 66.6014 110.25C63.5402 109.729 61.1647 107.812 60.3842 104.805C60.3716 104.748 60.3813 104.689 60.4113 104.639C60.4412 104.589 60.4892 104.553 60.5452 104.537C60.6012 104.522 60.6609 104.529 60.7121 104.556C60.7633 104.584 60.802 104.63 60.8202 104.685C61.1565 105.983 61.8583 107.157 62.8423 108.069C65.1643 110.168 72.863 111.458 74.8548 108.778C75.0925 108.417 75.2601 108.014 75.3489 107.591C75.5362 106.616 76.0088 105.72 76.7066 105.014C77.4237 104.541 78.2346 104.227 79.084 104.095C79.64 102.783 79.8993 101.986 80.7662 101.08C81.3595 100.671 82.0348 100.396 82.7451 100.274C85.7727 99.4324 88.8642 98.8401 91.9886 98.5032C89.6356 97.8124 87.2452 96.7617 86.4525 95.8432C83.8138 92.7814 82.3974 87.0106 78.7177 85.6857C77.4567 89.1662 72.3954 90.9496 68.0475 87.433Z" fill="#ACEAC7"/>
<path d="M94.2404 58.492C92.8011 59.7294 91.1268 60.6636 89.3178 61.2384C83.5741 62.8341 75.7412 61.844 69.524 57.3039C69.2918 57.133 69.5169 56.7414 69.7517 56.9169C75.8953 61.439 84.0107 62.471 89.6706 60.6488C91.5593 59.9256 93.2951 58.8534 94.7874 57.4883C96.2447 55.6654 97.3008 53.5554 97.8866 51.2963C98.2745 48.9255 98.3536 46.5145 98.122 44.1233C98.1014 43.9801 98.1556 44.2929 97.8918 44.2987C94.7532 44.3987 91.621 43.9533 88.6347 42.9823C88.5942 42.9682 88.5583 42.9432 88.531 42.9101C88.5037 42.877 88.486 42.8371 88.4799 42.7946C88.4573 43.1816 89.0004 45.5681 86.9829 47.3006C85.6245 48.5564 84.4067 49.3375 80.1697 50.0334C78.8942 46.662 77.3139 43.4138 75.4483 40.3294C74.9033 39.3087 74.151 38.413 73.2399 37.6997C73.2347 37.8797 73.2244 38.0597 73.2057 38.2377C72.9212 43.199 64.0828 43.9137 62.1988 37.4263C61.7722 37.6642 61.371 37.9452 61.0016 38.2648C58.1185 40.8931 54.0085 47.4721 52.2451 55.0651C52.7097 55.28 53.1525 55.5392 53.5674 55.8391C56.0255 57.5561 56.088 60.7043 54.9148 63.2501C53.9331 65.029 55.3134 65.2213 56.2215 66.1049C56.6269 66.5746 56.8465 67.1764 56.8388 67.7967C56.9044 68.2287 56.8462 68.6704 56.6711 69.0706C56.1033 69.8214 55.2904 70.3495 54.3736 70.5631C57.3168 73.5553 61.9601 75.22 66.0688 76.0734C65.8529 75.679 65.7462 75.2342 65.7597 74.7849C65.7732 74.3355 65.9064 73.8979 66.1455 73.5172C64.5528 72.9185 63.0945 72.0103 61.8546 70.845C60.6147 69.6797 59.6178 68.2805 58.9215 66.728C58.8041 66.4635 59.1937 66.2345 59.3117 66.4996C59.9914 68.0314 60.9734 69.4102 62.1987 70.5533C63.4241 71.6964 64.8676 72.5804 66.4429 73.1522C66.7211 72.8526 67.0957 72.6602 67.5013 72.6084C66.7886 63.3933 79.6034 58.9293 84.9434 66.1249C86.1973 67.8664 86.7874 70.2529 85.0014 71.401C85.3774 73.1601 85.6146 74.946 85.7109 76.7422C91.0644 75.9541 96.0645 72.5917 100.014 68.8403C100.1 68.7365 99.879 68.9906 99.7126 68.7642C97.3252 65.6714 95.4753 62.1988 94.2404 58.492ZM80.3729 51.4299C81.0244 54.2249 81.8143 56.9833 82.7427 59.7052C82.8362 59.9819 82.4002 60.0987 82.3073 59.8252C81.3811 57.108 80.5914 54.3498 79.9382 51.5505C79.8743 51.2673 80.3097 51.1486 80.3755 51.4299H80.3729Z" fill="#DCBEFF"/>
<path d="M56.8149 82.7257C56.2518 76.9052 54.785 71.6627 50.9363 67.069C49.1786 64.9357 47.0161 63.1712 44.5734 61.8774C42.8598 61.1616 41.0112 60.8262 39.1554 60.8944C39.3081 61.472 39.3362 62.0755 39.238 62.6648C39.1398 63.2542 38.9175 63.8159 38.5859 64.3129C36.7599 66.6684 32.5229 66.0679 31.0394 64.2213C30.6726 63.6994 30.4054 63.1142 30.2512 62.4953C27.4086 64.1759 24.9129 66.3837 22.8982 69.0001C22.3511 69.8124 21.8793 70.6729 21.4888 71.5711C26.4031 71.9458 27.199 71.8794 28.2717 72.456C29.3824 73.0533 29.7158 74.2465 29.9487 75.3985L32.41 87.6599C32.5164 88.0721 31.8495 87.9302 31.2593 87.9025L18.8037 87.322C18.8854 89.737 19.783 92.0532 21.3502 93.8926C25.8407 98.7946 37.9673 99.6079 47.3682 92.6226C52.5411 92.7322 57.3115 87.8541 56.8149 82.7257ZM39.0129 88.4817C36.8947 88.3983 34.7769 88.3123 32.6596 88.2237C32.3694 88.2108 32.3687 87.7593 32.6596 87.7722C34.7769 87.8612 36.8947 87.9472 39.0129 88.0302C39.2999 88.0424 39.3005 88.4939 39.0103 88.4817H39.0129ZM48.6569 83.2217C47.9078 82.3389 47.236 81.3933 46.649 80.3953C44.3022 82.8189 41.3514 84.5725 38.1008 85.4753C43.473 93.8526 47.5914 91.4874 47.5178 92.4136C47.5136 92.4688 47.4891 92.5205 47.4491 92.5588C47.4092 92.5972 47.3564 92.6194 47.3011 92.6213C44.2309 92.6071 41.2807 90.5115 39.3979 88.0831C37.7236 85.9831 36.3285 83.675 35.2473 81.2164C35.1047 81.2866 34.9473 81.3216 34.7884 81.3184C34.6295 81.3153 34.4736 81.2741 34.3339 81.1983C34.1941 81.1225 34.0746 81.0143 33.9853 80.8828C33.896 80.7512 33.8395 80.6002 33.8206 80.4424C33.6361 78.8712 34.4604 78.3836 33.2401 79.8309C32.2939 81.2248 31.3503 79.8084 31.6508 78.3661C31.8532 77.476 32.2404 76.6383 32.7873 75.9074C34.2321 73.7718 36.4025 72.318 39.0477 72.6121C44.4128 73.5835 45.7596 79.0531 48.9749 82.9024C49.1639 83.1211 48.8439 83.4429 48.6543 83.2217H48.6569Z" fill="#FCAFB7"/>
<path d="M66.7638 85.4228C67.8815 87.0026 69.5106 88.1477 71.3755 88.6646C73.9162 89.3863 76.8928 88.3995 78.1029 86.0052C78.4582 85.288 78.6305 84.4927 79.0059 83.789C75.9228 83.7968 73.1854 82.7886 70.35 79.7855C69.7631 79.1021 69.3669 78.276 69.2012 77.3906C69.0129 77.4351 69.2541 77.083 67.7396 80.2809C67.0153 81.8134 65.7189 83.7703 66.7638 85.4228Z" fill="#FEE992"/>
<path d="M83.1608 74.0132C82.9486 74.2112 82.628 73.8926 82.8415 73.6939C83.0772 73.4027 83.3969 73.1912 83.7572 73.0882C84.1174 72.9853 84.5006 72.9959 84.8546 73.1186C84.7716 72.6215 84.6806 72.1257 84.5817 71.6312C83.8998 71.9033 83.1522 71.966 82.4345 71.8111C81.3202 71.509 80.2616 71.0299 79.2992 70.3921C77.2829 69.2576 74.7197 68.0456 72.3816 68.919C71.941 69.121 71.5452 69.409 71.2174 69.7659C70.8896 70.1229 70.6363 70.5417 70.4724 70.9978C70.1005 71.8815 69.8994 72.8276 69.8796 73.7861C69.8788 73.8256 69.8678 73.8641 69.8476 73.898C69.8275 73.9319 69.7989 73.9599 69.7646 73.9794C69.7303 73.9989 69.6916 74.0092 69.6522 74.0092C69.6127 74.0093 69.574 73.9991 69.5397 73.9796C69.5042 73.9571 69.4107 74.0158 69.2881 73.919C68.9964 73.6674 68.6734 73.4545 68.3271 73.2856C67.2486 72.5948 66.274 73.6417 66.2128 74.7478C66.107 76.3919 67.7827 77.3575 69.3088 76.8931C69.3666 76.8776 69.4282 76.8855 69.4802 76.9151C69.5322 76.9447 69.5705 76.9935 69.5868 77.0511C69.7379 78.0796 70.217 79.0317 70.9529 79.7659C71.2896 80.102 72.4906 81.143 73.1375 81.6184C76.2025 83.6604 80.1415 83.8146 82.5158 82.5175C83.3122 81.9644 83.972 81.2371 84.4452 80.3909C84.9184 79.5446 85.1925 78.6016 85.2467 77.6336C85.2881 76.3641 85.1965 75.0939 84.9732 73.8435C84.6237 73.1476 83.6562 73.4494 83.1608 74.0132ZM68.7992 75.4496C68.2817 75.5024 67.7605 75.3943 67.3067 75.14C67.0487 74.9994 67.2796 74.6092 67.535 74.753C67.9201 74.9658 68.3623 75.0525 68.7992 75.0007C69.0882 74.9678 69.0856 75.4199 68.7992 75.4496ZM74.7874 76.3945C74.9003 76.6596 74.5113 76.8892 74.4004 76.6228C74.2948 76.3872 74.2403 76.1319 74.2403 75.8737C74.2403 75.6155 74.2948 75.3602 74.4004 75.1245C74.5159 74.8581 74.9054 75.0877 74.7874 75.3528C74.7169 75.5174 74.6805 75.6946 74.6805 75.8737C74.6805 76.0527 74.7169 76.2299 74.7874 76.3945ZM75.4866 72.8315C74.9964 72.591 74.4391 72.5238 73.9058 72.641C73.3726 72.7581 72.8948 73.0527 72.5505 73.4765C72.3751 73.7036 71.9829 73.4765 72.1603 73.2482C72.5692 72.7249 73.1461 72.3587 73.7936 72.2111C74.4411 72.0635 75.1196 72.1437 75.7149 72.4381C75.9742 72.5735 75.7465 72.9605 75.4866 72.8315ZM82.1217 78.0638C81.9334 78.6451 81.5696 79.1538 81.0803 79.5198C80.591 79.8858 80.0003 80.0913 79.3895 80.1078C78.7795 80.0937 78.1929 79.8702 77.7283 79.4748C77.2636 79.0793 76.9492 78.536 76.8379 77.9361C76.8266 77.8884 76.831 77.8384 76.8504 77.7934C76.8698 77.7484 76.9032 77.7109 76.9455 77.6863C76.9879 77.6617 77.037 77.6514 77.0857 77.6569C77.1344 77.6624 77.18 77.6834 77.2158 77.7168C78.351 78.8249 80.5614 78.7249 81.7676 77.7845C82.1049 77.5949 82.1733 77.978 82.1546 77.9135C82.1618 77.9393 82.1626 77.9665 82.1569 77.9927C82.1511 78.0189 82.1391 78.0433 82.1217 78.0638ZM84.0567 76.0327C83.9248 76.1664 83.8277 76.3303 83.7737 76.5102C83.7198 76.6901 83.7106 76.8805 83.7471 77.0647C83.8045 77.3485 83.3685 77.4691 83.3117 77.1846C83.2553 76.9232 83.2646 76.6518 83.3388 76.3948C83.413 76.1379 83.5497 75.9033 83.7368 75.7121C83.9406 75.5038 84.2599 75.825 84.0567 76.0327Z" fill="#FEE992"/>
<path d="M74.3999 75.1242C74.2953 75.3601 74.2413 75.6153 74.2413 75.8734C74.2413 76.1314 74.2953 76.3866 74.3999 76.6225C74.5141 76.8896 74.903 76.6593 74.7869 76.3942C74.7165 76.2296 74.6803 76.0524 74.6803 75.8734C74.6803 75.6943 74.7165 75.5171 74.7869 75.3525C74.905 75.0881 74.5173 74.8585 74.3999 75.1242ZM83.7369 75.7131C83.5503 75.9045 83.4138 76.1391 83.3396 76.396C83.2655 76.6529 83.2559 76.9241 83.3119 77.1856C83.3693 77.4701 83.8047 77.3501 83.7473 77.0656C83.7102 76.8814 83.719 76.6909 83.773 76.5109C83.827 76.3309 83.9245 76.167 84.0569 76.0336C84.2587 75.8234 83.9408 75.5041 83.7369 75.7131ZM81.8323 77.75C81.8232 77.7539 81.7929 77.7719 81.7678 77.7842C80.5616 78.7252 78.3493 78.8239 77.216 77.7164C77.1718 77.6751 77.1131 77.653 77.0526 77.6549C76.9921 77.6568 76.9349 77.6827 76.8935 77.7268C76.6078 78.0338 77.4379 80.063 79.3896 80.1075C80.0005 80.091 80.5912 79.8857 81.0805 79.5196C81.5698 79.1535 81.9336 78.6448 82.1219 78.0635C82.1399 78.0429 82.1524 78.0181 82.1582 77.9913C82.1639 77.9645 82.1628 77.9368 82.1548 77.9106C82.1468 77.8772 82.1316 77.8459 82.1102 77.819C82.0888 77.7921 82.0618 77.7702 82.031 77.7549C82.0003 77.7396 81.9665 77.7312 81.9322 77.7304C81.8979 77.7295 81.8637 77.7362 81.8323 77.75ZM77.503 78.4872C78.1059 78.7943 78.7719 78.9572 79.4485 78.9632C80.1251 78.9691 80.7938 78.8179 81.402 78.5214C81.2064 78.868 80.9214 79.1559 80.5768 79.3551C80.2322 79.5543 79.8405 79.6575 79.4425 79.654C79.0444 79.6505 78.6546 79.5404 78.3135 79.3352C77.9725 79.1301 77.6926 78.8372 77.503 78.4872ZM75.7151 72.441C75.1201 72.145 74.4411 72.064 73.7932 72.2116C73.1453 72.3593 72.5684 72.7266 72.1605 73.2511C71.9825 73.4814 72.3753 73.7065 72.5507 73.4794C72.8963 73.0574 73.374 72.7642 73.9067 72.6472C74.4395 72.5302 74.9961 72.5961 75.4867 72.8344C75.746 72.9628 75.9757 72.5719 75.7151 72.441Z" fill="black"/>
<path d="M101.444 98.3018C101.325 98.1909 101.185 98.1061 101.032 98.0531C100.879 98.0001 100.716 97.98 100.555 97.9941C94.5441 97.9746 88.5567 98.742 82.7451 100.277C82.0347 100.398 81.3594 100.673 80.7663 101.082C79.8775 102.01 79.6214 102.828 79.0841 104.098C79.1409 104.081 79.1989 104.066 79.255 104.048C79.2935 104.038 79.3338 104.039 79.3721 104.049C79.4104 104.059 79.4453 104.08 79.4733 104.108C79.5014 104.136 79.5217 104.171 79.5321 104.209C79.5426 104.247 79.5429 104.288 79.533 104.326L78.2275 108.141C79.8402 107.932 81.3955 107.406 82.8038 106.593C83.5333 106.123 84.3025 105.718 85.1026 105.382C85.7 105.097 86.3514 104.943 87.0131 104.93C87.1428 104.929 87.2711 104.957 87.3889 105.012C87.5066 105.066 87.6109 105.146 87.6942 105.245C88.2102 106.271 86.6409 107.132 86.1056 107.68C85.8895 107.901 85.5689 108.37 85.9811 108.564C86.2747 108.665 86.595 108.659 86.8841 108.545C87.4768 108.352 88.2618 107.943 88.8191 108.453C89.4054 109.029 89.0223 109.937 88.3244 110.318C87.4644 110.738 86.6302 111.21 85.8263 111.729C85.6676 111.844 85.329 112.205 85.725 112.2C86.5351 112.139 87.7213 111.813 88.2115 111.924C88.7623 112.145 88.8004 113.552 87.2356 114.815C89.417 114.458 94.9859 113.505 97.0732 112.785C97.4701 112.62 97.8216 112.361 98.0981 112.032C97.7887 112.162 97.4711 112.271 97.1473 112.358C93.9223 113.197 93.6301 111.267 94.4828 110.643C95.053 110.292 96.1082 109.798 96.0431 109.831C95.5495 109.891 95.0508 109.895 94.5564 109.843C93.7688 109.718 93.7146 108.86 93.9959 108.262C94.6409 106.893 96.2733 106.697 97.5156 106.074C97.0177 106.128 96.5293 106.248 96.0631 106.431C95.8055 106.533 95.5214 106.549 95.2543 106.474C94.9872 106.4 94.752 106.24 94.5847 106.019C94.1719 105.159 94.6583 104.089 96.2147 103.805C96.4559 103.75 98.1497 103.415 100.611 102.919C100.908 102.378 101.086 101.781 101.133 101.166C101.208 100.65 101.284 100.126 101.317 99.6034C101.318 99.5591 101.332 99.5161 101.357 99.4797C101.382 99.4432 101.417 99.4148 101.458 99.398C101.499 99.3811 101.544 99.3765 101.588 99.3847C101.631 99.3929 101.672 99.4135 101.704 99.4441L101.72 99.4576C101.753 99.2563 101.746 99.0503 101.698 98.8518C101.651 98.6533 101.564 98.4663 101.444 98.3018ZM83.303 102.77C82.9347 103.419 82.5361 104.05 82.1524 104.689C82.1192 104.734 82.0706 104.765 82.016 104.776C81.9613 104.787 81.9045 104.778 81.8564 104.75C81.8083 104.721 81.7724 104.676 81.7556 104.623C81.7388 104.57 81.7423 104.512 81.7654 104.462L82.9154 102.541C82.9489 102.497 82.9975 102.466 83.052 102.456C83.1066 102.445 83.1632 102.454 83.2111 102.483C83.2591 102.511 83.2949 102.556 83.3119 102.609C83.3288 102.662 83.3257 102.719 83.303 102.77Z" fill="#FF8684"/>
<path d="M100.952 103.216C100.852 103.41 100.904 103.281 96.4929 104.206C94.7288 104.482 94.5817 105.739 95.2545 106.012C96.1001 106.334 96.9521 105.202 98.1989 105.81C98.2317 105.831 98.2587 105.86 98.2774 105.893C98.2962 105.927 98.306 105.965 98.306 106.004C98.306 106.043 98.2962 106.081 98.2774 106.115C98.2587 106.148 98.2317 106.177 98.1989 106.197C97.0495 106.975 94.5411 107.236 94.2857 108.837C94.2652 108.912 94.2642 108.991 94.2827 109.067C94.3012 109.142 94.3386 109.212 94.3914 109.269C94.4442 109.326 94.5106 109.368 94.5844 109.392C94.6582 109.417 94.737 109.422 94.8133 109.407C95.6105 109.427 96.4078 109.374 97.1953 109.248C97.4288 109.212 97.6158 109.536 97.3688 109.661C96.4565 110.069 95.5676 110.528 94.7062 111.034C94.3424 111.316 94.5559 111.781 94.9075 111.961C95.3239 112.119 95.7761 112.157 96.2129 112.071C97.8145 111.899 99.2444 111.013 100.555 110.136C101.885 109.246 103.212 108.352 103.958 106.886C104.584 105.655 104.922 104.006 104.219 102.743C103.555 101.703 102.711 100.79 101.726 100.047C101.681 100.489 101.623 100.931 101.559 101.369C101.514 102.026 101.306 102.661 100.952 103.216ZM99.9204 108.601H99.5018C99.4449 108.596 99.3917 108.571 99.3529 108.529C99.3141 108.487 99.2925 108.432 99.2925 108.375C99.2925 108.318 99.3141 108.263 99.3529 108.221C99.3917 108.179 99.4449 108.154 99.5018 108.149H99.9204C99.9773 108.154 100.03 108.18 100.069 108.222C100.108 108.264 100.129 108.319 100.129 108.376C100.129 108.433 100.107 108.488 100.068 108.53C100.029 108.571 99.9754 108.597 99.9185 108.601H99.9204ZM100.705 105.811C100.249 106.101 99.6089 105.832 99.8095 105.512C99.8401 105.463 99.888 105.428 99.9434 105.414C99.9988 105.4 100.058 105.407 100.108 105.434C100.164 105.469 100.229 105.487 100.295 105.484C100.36 105.482 100.424 105.46 100.477 105.421C100.721 105.264 100.947 105.656 100.703 105.811H100.705Z" fill="#FEE992"/>
<path d="M101.318 99.6026C101.295 100.126 101.21 100.648 101.135 101.165C101.088 101.78 100.91 102.377 100.613 102.918C95.8822 103.87 95.7622 103.821 95.1043 104.242C94.8147 104.423 94.6019 104.704 94.5067 105.031C94.4115 105.359 94.4405 105.71 94.5883 106.018C94.7557 106.239 94.9909 106.399 95.258 106.473C95.525 106.548 95.8091 106.532 96.0666 106.43C96.5328 106.247 97.0213 106.127 97.5192 106.073C96.2769 106.696 94.6444 106.892 93.9994 108.261C93.7188 108.859 93.7724 109.717 94.5599 109.843C95.0545 109.892 95.553 109.888 96.0466 109.83C95.5122 110.072 94.9913 110.343 94.4864 110.642C94.274 110.798 94.1322 111.032 94.0922 111.292C94.0521 111.553 94.1171 111.818 94.2729 112.031C94.6767 112.578 95.7564 112.663 96.4207 112.513C98.3977 112.194 100.205 110.969 101.874 109.785C103.353 108.871 104.425 107.423 104.868 105.741C105.12 104.953 105.139 104.109 104.924 103.31C104.708 102.511 104.266 101.792 103.651 101.238C103.039 100.601 102.389 100.002 101.705 99.4432C101.673 99.4127 101.633 99.392 101.589 99.3838C101.546 99.3756 101.501 99.3803 101.46 99.3971C101.419 99.414 101.384 99.4424 101.359 99.4788C101.333 99.5153 101.319 99.5583 101.318 99.6026ZM101.726 100.054C102.711 100.797 103.555 101.71 104.219 102.75C104.922 104.012 104.584 105.662 103.958 106.892C103.211 108.358 101.885 109.252 100.555 110.142C99.2452 111.019 97.8139 111.905 96.2124 112.077C95.7755 112.163 95.3233 112.125 94.9069 111.968C94.5554 111.789 94.3419 111.323 94.7057 111.041C95.5674 110.535 96.4562 110.076 97.3682 109.668C97.6153 109.543 97.4282 109.216 97.1947 109.255C96.4072 109.38 95.6099 109.433 94.8128 109.414C94.7365 109.428 94.6577 109.423 94.5839 109.399C94.5101 109.375 94.4436 109.332 94.3908 109.275C94.338 109.218 94.3006 109.149 94.2821 109.073C94.2636 108.998 94.2647 108.919 94.2851 108.844C94.5431 107.214 96.9941 107.019 98.1984 106.204C98.2311 106.184 98.2582 106.155 98.2769 106.121C98.2956 106.087 98.3055 106.049 98.3055 106.011C98.3055 105.972 98.2956 105.934 98.2769 105.9C98.2582 105.866 98.2311 105.838 98.1984 105.817C96.9387 105.202 96.1034 106.345 95.2539 106.018C94.6031 105.752 94.6792 104.496 96.4923 104.212C100.916 103.291 100.854 103.414 100.952 103.223C101.304 102.669 101.513 102.036 101.558 101.381C101.622 100.936 101.681 100.495 101.726 100.053V100.054Z" fill="black"/>
<path d="M88.0949 112.545C88.08 112.203 88.0258 112.333 85.9348 112.627C84.946 112.765 84.7738 111.936 85.6 111.337C87.2125 110.25 87.019 110.59 88.2284 109.839C88.5289 109.619 88.8979 109.049 88.4754 108.751C87.842 108.306 86.6552 109.525 85.6903 108.916C85.0711 108.524 85.3401 107.69 85.8838 107.263C86.3443 106.828 87.0448 106.48 87.2893 105.863C87.3415 105.734 87.4002 105.557 87.2776 105.456C86.881 105.344 86.4584 105.367 86.076 105.521C84.1017 106.081 83.2741 106.975 81.9835 107.554C80.6806 108.112 79.3039 108.477 77.8961 108.64C77.836 108.639 77.7784 108.615 77.7361 108.572C77.6938 108.53 77.6702 108.472 77.6704 108.412C77.6704 108.347 77.9613 107.527 78.9604 104.6C77.9284 104.875 77.1118 104.998 76.521 105.912C75.8373 106.995 75.9682 107.433 75.4716 108.621C74.0726 111.219 69.9336 110.939 67.0421 110.338C66.0603 114.435 65.9791 118.696 66.8041 122.827C73.9816 122.356 77.9806 119.067 83.545 116.358C84.4431 115.955 85.3199 115.506 86.1721 115.014C87.0842 114.449 88.1426 113.617 88.0949 112.545ZM81.8203 110.242C81.8875 110.301 81.973 110.334 82.0622 110.337C82.1514 110.34 82.2389 110.312 82.3099 110.258C82.553 110.097 82.7788 110.488 82.5375 110.645C82.3802 110.749 82.1924 110.797 82.0045 110.782C81.8165 110.766 81.6394 110.687 81.5017 110.558C81.283 110.368 81.6036 110.05 81.8203 110.242ZM82.8001 114.177C82.6798 114.264 82.5426 114.326 82.3972 114.357C82.2518 114.389 82.1014 114.389 81.9558 114.359C81.6694 114.311 81.7919 113.875 82.0764 113.923C82.1639 113.937 82.2533 113.931 82.3387 113.908C82.4241 113.884 82.5035 113.843 82.5717 113.786C82.8065 113.613 83.0323 114.006 82.8001 114.177Z" fill="#FEE992"/>
<path d="M88.8208 108.453C88.2725 107.932 87.4792 108.353 86.8858 108.544C86.5967 108.658 86.2763 108.665 85.9828 108.563C85.5706 108.369 85.8918 107.899 86.1072 107.679C86.6136 107.163 88.217 106.275 87.6959 105.244C87.6125 105.145 87.5082 105.065 87.3905 105.011C87.2728 104.956 87.1445 104.929 87.0148 104.93C84.2716 104.981 82.7578 107.552 78.2292 108.142L79.5347 104.327C79.5444 104.288 79.5439 104.248 79.5334 104.21C79.5228 104.171 79.5026 104.137 79.4746 104.109C79.4466 104.081 79.4118 104.06 79.3736 104.05C79.3354 104.039 79.2951 104.039 79.2567 104.049C78.4827 104.298 77.4275 104.398 76.7083 105.016C75.2067 106.533 75.6182 107.621 74.8565 108.78C72.877 111.438 65.2247 110.217 62.844 108.07C61.8726 107.148 61.1735 105.977 60.8232 104.684C60.8051 104.629 60.7664 104.583 60.7152 104.555C60.664 104.528 60.6042 104.521 60.5482 104.536C60.4922 104.552 60.4442 104.588 60.4143 104.638C60.3843 104.688 60.3746 104.747 60.3872 104.804C61.169 107.817 63.5516 109.73 66.6044 110.249C65.5995 114.461 65.5288 118.842 66.3973 123.084C66.4005 123.142 66.4257 123.197 66.4678 123.237C66.5099 123.277 66.5657 123.299 66.6237 123.299C73.6742 122.886 77.7093 119.827 83.0254 117.124C84.9778 116.131 87.9919 115.056 88.5008 113.044C88.6943 112.141 88.3828 111.679 87.4824 111.948C86.1034 112.15 86.213 112.165 85.7299 112.201C85.3339 112.205 85.6699 111.842 85.8312 111.73C87.7017 110.419 88.695 110.499 89.0626 109.453C89.1219 109.281 89.1306 109.095 89.0877 108.917C89.0449 108.74 88.9522 108.579 88.8208 108.453ZM88.228 109.841C87.1502 110.508 86.8516 110.464 85.5996 111.339C84.7805 111.911 84.9327 112.768 85.9344 112.629C87.9874 112.341 88.0758 112.2 88.0945 112.548C88.159 114.316 85.1862 115.625 83.5447 116.362C78.0022 119.062 73.9825 122.36 66.8056 122.834C65.9807 118.703 66.0619 114.442 67.0436 110.346C69.9023 110.94 74.0831 111.208 75.4731 108.629C75.9756 107.421 75.813 107.039 76.5225 105.92C77.114 105.002 77.9415 104.877 78.9619 104.607C78.593 105.682 77.7364 108.185 77.6764 108.361C77.6686 108.39 77.6666 108.42 77.6705 108.45C77.6743 108.479 77.684 108.508 77.6989 108.534C77.7138 108.56 77.7337 108.582 77.7574 108.6C77.7811 108.619 77.8082 108.632 77.837 108.64C79.2671 108.503 80.6662 108.139 81.9818 107.562C83.4008 106.923 83.8297 106.222 86.0743 105.528C86.4581 105.381 86.8786 105.358 87.276 105.464C87.3985 105.565 87.3405 105.74 87.2876 105.871C87.0438 106.487 86.342 106.838 85.8821 107.27C85.3371 107.701 85.0681 108.529 85.6886 108.923C86.6348 109.519 87.8558 108.324 88.4737 108.759C88.8975 109.052 88.5279 109.621 88.228 109.844V109.841ZM98.5983 88.9839C97.9219 90.6119 97.2464 92.2405 96.5717 93.8698C96.4601 94.1387 96.8974 94.2568 97.0071 93.9904L99.0343 89.1039C99.1453 88.8362 98.7086 88.7188 98.5983 88.9839ZM103.56 91.0189L100.153 94.1355C99.9386 94.3322 100.259 94.6515 100.476 94.458L103.883 91.3414C104.094 91.1388 103.775 90.8228 103.56 91.0189ZM107.306 95.1133L103.678 96.3975C103.405 96.4936 103.522 96.9303 103.798 96.8329C105.006 96.4029 106.216 95.975 107.426 95.5493C107.698 95.4526 107.581 95.0159 107.306 95.1133Z" fill="black"/>
<path d="M35.8181 54.6563C35.6548 56.1399 35.0147 57.5305 33.9938 58.6193C32.9729 59.7082 31.6263 60.4364 30.1562 60.6948C30.8096 62.326 30.7284 64.0288 32.5627 64.8363C34.4487 65.7361 37.0132 65.718 38.3374 63.8849C38.9927 62.9103 38.8586 61.7319 38.6522 60.6367C38.2524 58.5933 37.6976 56.5832 36.9926 54.624C36.6057 54.7005 36.2086 54.7114 35.8181 54.6563Z" fill="#A76C6C"/>
<path d="M117.022 75.7649C116.842 75.6411 105.645 75.8862 102.283 76.0171C102.224 76.0189 102.167 76.0432 102.125 76.0852C102.083 76.1272 102.059 76.1835 102.057 76.2429C101.681 79.7141 101.533 83.2064 101.616 86.697C101.621 87.0885 101.302 86.9124 115.698 86.281C115.747 86.2804 115.795 86.264 115.834 86.2341C115.873 86.2042 115.901 86.1625 115.915 86.1152C116.525 82.7558 116.929 79.3625 117.126 75.9539C117.131 75.9154 117.123 75.8766 117.104 75.8427C117.086 75.8089 117.057 75.7817 117.022 75.7649ZM115.505 85.8379C111.923 85.994 102.964 86.4216 102.066 86.4609C101.997 83.1229 102.138 79.7837 102.489 76.4634C107.117 76.2867 111.997 76.2235 116.659 76.1842C116.463 79.4218 116.078 82.6452 115.505 85.8379Z" fill="#FF8684"/>
<path d="M110.582 81.1226C109.842 80.1369 109.196 79.0837 108.653 77.9769C108.629 77.9395 108.596 77.9096 108.556 77.8907C108.517 77.8719 108.472 77.8649 108.429 77.8706C108.385 77.8763 108.344 77.8945 108.311 77.923C108.277 77.9514 108.252 77.989 108.24 78.0311C107.964 80.0099 107.821 82.0036 107.735 83.9992C107.737 84.0597 107.762 84.1171 107.806 84.1588C107.85 84.2005 107.908 84.2232 107.969 84.2218C108.117 84.2179 107.939 84.3585 110.582 81.4425C110.623 81.3992 110.646 81.342 110.646 81.2825C110.646 81.2231 110.623 81.1659 110.582 81.1226Z" fill="#FF8684"/>
<path d="M24.4336 52.349C24.6812 52.1942 24.9083 52.5857 24.6619 52.736C24.055 53.1156 23.5372 53.6216 23.1436 54.2195C23.221 57.6947 23.6905 58.9415 27.1071 59.9671C31.2809 61.3648 35.0406 58.2791 35.4044 54.3923C35.405 54.3621 35.4117 54.3323 35.4238 54.3046C35.436 54.2769 35.4536 54.2519 35.4754 54.231C35.4973 54.2101 35.5231 54.1937 35.5513 54.1828C35.5795 54.1718 35.6095 54.1665 35.6398 54.1672C36.4038 54.3181 37.1964 54.2013 37.8844 53.8363C39.1744 53.3313 39.0009 51.3686 37.438 51.6433C36.8013 51.7903 36.2237 52.1256 35.7804 52.6057C35.7481 52.6357 35.7079 52.6559 35.6645 52.6637C35.6211 52.6716 35.5763 52.6668 35.5355 52.6499C35.4948 52.6331 35.4597 52.6049 35.4345 52.5687C35.4093 52.5325 35.395 52.4898 35.3934 52.4457C35.3496 51.6894 35.1317 50.9535 34.7567 50.2953C34.3816 49.6371 33.8596 49.0744 33.2314 48.6512C30.9739 47.069 27.9424 46.4582 25.5778 47.9771C24.0459 49.0033 23.2764 51.6395 23.1661 53.4422C23.5296 53.0146 23.9572 52.6458 24.4336 52.349ZM24.2446 56.2299L24.0511 55.2321C23.9962 54.947 24.4316 54.8264 24.4871 55.1115L24.6806 56.11C24.7361 56.3944 24.3007 56.515 24.2446 56.2299ZM35.732 52.9404L37.2394 52.527C37.2961 52.5144 37.3555 52.5241 37.4052 52.554C37.455 52.584 37.4913 52.6319 37.5067 52.6879C37.5221 52.7439 37.5154 52.8037 37.488 52.8549C37.4606 52.9061 37.4145 52.9448 37.3594 52.963L35.852 53.3758C35.7941 53.3916 35.7323 53.3838 35.6801 53.354C35.628 53.3243 35.5898 53.275 35.574 53.2171C35.5582 53.1592 35.566 53.0974 35.5958 53.0453C35.6255 52.9931 35.6748 52.955 35.7327 52.9391L35.732 52.9404ZM32.8811 56.0893C32.8811 56.1492 32.8573 56.2066 32.815 56.2489C32.7727 56.2913 32.7152 56.3151 32.6554 56.3151C32.5955 56.3151 32.5381 56.2913 32.4957 56.2489C32.4534 56.2066 32.4296 56.1492 32.4296 56.0893V54.8329C32.4296 54.773 32.4534 54.7156 32.4957 54.6732C32.5381 54.6309 32.5955 54.6071 32.6554 54.6071C32.7152 54.6071 32.7727 54.6309 32.815 54.6732C32.8573 54.7156 32.8811 54.773 32.8811 54.8329V56.0893ZM30.73 51.5298C30.9341 51.2436 31.2147 51.0206 31.5397 50.8865C31.8646 50.7524 32.2208 50.7126 32.5673 50.7717C32.9139 50.8307 33.2367 50.9862 33.499 51.2204C33.7612 51.4545 33.9521 51.7578 34.0499 52.0955C34.1369 52.3741 33.7009 52.4921 33.6145 52.2154C33.5352 51.9674 33.3901 51.7456 33.1947 51.5736C32.9992 51.4017 32.7607 51.286 32.5046 51.239C32.2485 51.192 31.9845 51.2154 31.7407 51.3067C31.4969 51.398 31.2824 51.5538 31.1203 51.7575C30.9455 51.9871 30.5572 51.762 30.73 51.5285V51.5298ZM27.118 56.346C28.1584 57.1761 29.569 56.6318 30.4933 55.9132C30.5254 55.8826 30.5657 55.862 30.6093 55.8538C30.6529 55.8456 30.6979 55.8503 30.7389 55.8673C30.7799 55.8842 30.8151 55.9127 30.8402 55.9492C30.8653 55.9858 30.8792 56.0288 30.8803 56.0732C30.8455 57.2832 29.9354 58.3836 28.6783 58.1262C28.2471 57.965 27.8557 57.7126 27.5308 57.3864C27.2609 57.1748 27.0159 56.9331 26.8007 56.6659C26.6124 56.5318 26.811 56.1596 27.1206 56.3447L27.118 56.346Z" fill="#A76C6C"/>
<path d="M24.0499 55.2319L24.2434 56.2298C24.2995 56.5155 24.7349 56.3949 24.6794 56.1098L24.4859 55.1113C24.4304 54.8249 23.9938 54.9475 24.0499 55.2319ZM32.4297 54.8327V56.0879C32.4297 56.1477 32.4535 56.2051 32.4959 56.2475C32.5382 56.2898 32.5956 56.3136 32.6555 56.3136C32.7154 56.3136 32.7728 56.2898 32.8151 56.2475C32.8574 56.2051 32.8812 56.1477 32.8812 56.0879V54.8327C32.8812 54.7728 32.8574 54.7154 32.8151 54.6731C32.7728 54.6307 32.7154 54.6069 32.6555 54.6069C32.5956 54.6069 32.5382 54.6307 32.4959 54.6731C32.4535 54.7154 32.4297 54.7728 32.4297 54.8327Z" fill="black"/>
<path d="M32.6559 88.2232C34.7733 88.3118 36.891 88.3977 39.0092 88.4812C39.2994 88.4921 39.2988 88.0406 39.0092 88.0297C36.891 87.9471 34.7733 87.8611 32.6559 87.7717C32.365 87.7581 32.3657 88.2109 32.6559 88.2232ZM17.512 80.9566C17.9084 81.0671 18.3301 81.0449 18.7127 80.8934C19.0954 80.7419 19.418 80.4695 19.6314 80.1176C19.8448 79.7657 19.9374 79.3537 19.8949 78.9444C19.8524 78.535 19.6772 78.1508 19.396 77.8503C19.1126 77.6535 18.7924 77.516 18.4546 77.446C18.1168 77.3759 17.7683 77.3748 17.4301 77.4426C16.5722 77.5239 16.0511 78.4527 15.9756 79.2338C16.0065 79.65 16.1738 80.0443 16.4516 80.3558C16.7293 80.6673 17.102 80.8784 17.512 80.9566ZM18.1409 78.0941H18.6401C18.697 78.0984 18.7502 78.1241 18.789 78.1659C18.8278 78.2078 18.8494 78.2628 18.8494 78.3198C18.8494 78.3769 18.8278 78.4319 18.789 78.4738C18.7502 78.5156 18.697 78.5413 18.6401 78.5456H18.1383C18.0814 78.541 18.0283 78.515 17.9897 78.4729C17.9511 78.4309 17.9299 78.3757 17.9302 78.3187C17.9305 78.2616 17.9524 78.2067 17.9915 78.165C18.0305 78.1234 18.0839 78.0981 18.1409 78.0941ZM17.7751 78.6423L18.0899 79.0809C18.2602 79.3177 17.8674 79.5434 17.6997 79.3086L17.3849 78.8707C17.2146 78.634 17.6081 78.4089 17.7751 78.6423ZM16.7025 78.3992C16.8155 78.1657 17.0149 77.9853 17.2585 77.8961C17.5275 77.7845 17.6455 78.2186 17.3785 78.3321C17.2484 78.3893 17.1459 78.4951 17.0927 78.6269C16.967 78.89 16.5761 78.6604 16.7051 78.3992H16.7025Z" fill="#B26EE6"/>
<path d="M29.9463 75.4005C29.7147 74.2485 29.3813 73.0559 28.2693 72.458C27.1573 71.8601 25.7822 71.9007 24.5663 71.8085C10.9523 70.7694 10.6627 70.6856 8.95733 70.7713C10.4976 72.311 10.4602 73.8996 8.76383 73.5332C9.91064 74.5007 9.77197 76.1055 8.70643 76.092C8.34006 76.0839 7.97565 76.0361 7.6196 75.9494C8.17882 76.6034 8.59097 77.1227 8.54002 77.9425C8.52431 78.1511 8.44809 78.3507 8.32069 78.5167C8.1933 78.6827 8.02027 78.8079 7.82278 78.8771C7.26125 78.9895 6.67808 78.9014 6.1748 78.6281C9.54364 87.471 9.25081 86.8764 9.47527 86.8841C32.9217 87.8406 32.0845 87.9471 32.149 87.9445C32.3644 87.9361 32.4424 87.7994 32.407 87.6607L29.9463 75.4005ZM17.1282 81.3113C16.6444 81.1634 16.2256 80.8547 15.9413 80.4362C15.6569 80.0178 15.5241 79.5148 15.5647 79.0105C15.6054 78.5062 15.8171 78.031 16.1648 77.6635C16.5124 77.296 16.9752 77.0583 17.4765 76.9898C17.8672 76.9228 18.2674 76.9366 18.6526 77.0302C19.0377 77.1238 19.3996 77.2953 19.7159 77.5342C20.1097 77.9471 20.339 78.4898 20.3606 79.06C20.3822 79.6301 20.1947 80.1886 19.8333 80.6302C19.5055 81.0058 19.0707 81.2721 18.5872 81.3935C18.1036 81.5149 17.5945 81.4856 17.1282 81.3094V81.3113ZM17.1553 76.2119C17.0638 75.8544 16.9173 75.5132 16.7212 75.2006C16.567 74.9529 16.9586 74.7265 17.1121 74.9722C17.3277 75.3189 17.4891 75.6965 17.5907 76.092C17.5999 76.1471 17.5883 76.2038 17.5581 76.2509C17.5279 76.298 17.4813 76.3322 17.4273 76.3469C17.3733 76.3616 17.3158 76.3558 17.2659 76.3305C17.216 76.3052 17.1773 76.2622 17.1572 76.21L17.1553 76.2119Z" fill="#B26EE6"/>
<path d="M46.3754 79.9539C44.4888 76.8314 42.7802 73.8541 39.1443 73.0814C34.0991 72.3416 30.9116 79.0322 32.3963 79.9429C32.5092 79.9861 32.5776 79.9055 32.6479 79.8288C34.114 78.3453 33.9308 77.4177 34.3649 77.5551C34.6958 77.6596 34.3939 77.8892 34.2359 79.9797C34.2022 80.2416 34.2648 80.5067 34.412 80.7259C34.8744 81.1265 35.4794 80.6015 35.6742 80.1616C36.0762 79.4574 36.4334 78.7286 36.7436 77.9795C36.7626 77.9254 36.8015 77.8804 36.8524 77.8538C36.9033 77.8272 36.9624 77.821 37.0177 77.8363C37.0731 77.8516 37.1205 77.8874 37.1504 77.9364C37.1804 77.9854 37.1906 78.0439 37.179 78.1002C36.913 79.0416 36.9797 80.046 37.368 80.944C37.5196 81.1878 37.8124 81.4883 38.1317 81.3858C38.431 81.2897 38.6103 80.9259 38.7599 80.6763C39.2946 79.7791 39.6732 78.7976 39.8796 77.7738C39.939 77.4893 40.3743 77.61 40.3156 77.8938C40.1369 78.7503 39.8451 79.5792 39.4481 80.3589C39.1592 80.9272 38.7386 81.8773 37.9749 81.8547C36.9971 81.8263 36.5347 80.4821 36.583 79.4037C36.3723 79.9619 36.0602 80.4765 35.6626 80.9214C35.6482 80.9316 35.6323 80.9397 35.6155 80.9452C36.1902 82.3842 36.9245 83.7542 37.8047 85.0294C41.0766 84.1642 44.0438 82.407 46.3754 79.9539ZM36.0999 75.0848L35.2905 75.7066C35.0602 75.8839 34.839 75.4905 35.0628 75.3196L35.8716 74.6978C36.1019 74.5172 36.327 74.9093 36.0999 75.0848ZM39.8512 75.7485L39.2617 76.329C39.0547 76.5328 38.7354 76.2135 38.9392 76.0065L39.5287 75.426C39.7384 75.2241 40.0583 75.544 39.8512 75.7485Z" fill="#A76C6C"/>
<path d="M9.59191 66.3413C10.129 67.2881 10.7423 68.1895 11.4256 69.0368C11.6062 69.2645 11.9242 68.9433 11.7481 68.7143C9.95698 66.4568 10.0582 65.795 9.67253 66.0395C9.62251 66.0695 9.58613 66.1177 9.57108 66.1741C9.55603 66.2304 9.5635 66.2904 9.59191 66.3413ZM13.4922 64.854L14.054 68.5389C14.0979 68.8246 14.5333 68.7033 14.49 68.4189C14.303 67.1904 14.1155 65.9621 13.9276 64.734C13.8844 64.447 13.449 64.5695 13.4922 64.854ZM48.9724 82.9024C45.6551 78.9305 44.3671 73.575 39.0452 72.612C36.382 72.316 34.3515 73.7085 32.7848 75.9073C32.2471 76.6437 31.8608 77.4794 31.6483 78.3661C31.3484 79.8141 32.2804 81.2344 33.2376 79.8309C34.4528 78.3854 33.6291 78.8589 33.8181 80.4423C33.837 80.6002 33.8935 80.7512 33.9828 80.8827C34.0721 81.0142 34.1916 81.1224 34.3314 81.1982C34.4711 81.274 34.627 81.3152 34.7859 81.3184C34.9448 81.3215 35.1022 81.2865 35.2448 81.2163C36.3277 83.674 37.7227 85.9819 39.3954 88.083C41.8238 91.2164 45.0069 92.6535 47.2986 92.6212C47.3585 92.6212 47.4159 92.5974 47.4582 92.5551C47.5006 92.5128 47.5244 92.4553 47.5244 92.3955C47.5244 92.3356 47.5006 92.2782 47.4582 92.2358C47.4159 92.1935 47.3585 92.1697 47.2986 92.1697C43.2757 92.1517 40.272 88.8628 38.0996 85.4753C41.3502 84.5725 44.301 82.8188 46.6478 80.3952C47.2392 81.3903 47.9108 82.3356 48.6557 83.2216C48.8447 83.4409 49.1627 83.121 48.9724 82.9024ZM37.8049 85.0309C36.9273 83.76 36.195 82.3949 35.6215 80.9609C36.0401 80.5097 36.3668 79.9813 36.5832 79.4052C36.5348 80.483 37.0038 81.8265 37.9751 81.8562C38.7401 81.8787 39.1587 80.928 39.4483 80.3604C39.8452 79.5807 40.1369 78.7517 40.3158 77.8952C40.3745 77.6114 39.9398 77.4908 39.8798 77.7753C39.6736 78.7992 39.295 79.7806 38.7601 80.6778C38.6111 80.9287 38.4318 81.2918 38.1319 81.3873C37.8132 81.4892 37.5198 81.1892 37.3682 80.9454C36.9728 80.0492 36.9058 79.0423 37.1792 78.1016C37.1908 78.0454 37.1806 77.9868 37.1506 77.9379C37.1207 77.8889 37.0732 77.8531 37.0179 77.8378C36.9626 77.8224 36.9035 77.8287 36.8526 77.8553C36.8017 77.8819 36.7628 77.9268 36.7438 77.981C36.433 78.7298 36.0758 79.4586 35.6744 80.163C35.4854 80.5926 34.8895 81.1415 34.4122 80.7274C34.2648 80.5078 34.2022 80.2422 34.2361 79.9799C34.2811 79.2555 34.3742 78.535 34.5147 77.823C34.5226 77.7944 34.5248 77.7645 34.5211 77.7351C34.5174 77.7057 34.508 77.6773 34.4934 77.6515C34.4787 77.6257 34.4591 77.6031 34.4357 77.5848C34.4123 77.5666 34.3856 77.5532 34.357 77.5453C34.3284 77.5374 34.2986 77.5353 34.2691 77.5389C34.2397 77.5426 34.2113 77.552 34.1855 77.5667C34.1597 77.5813 34.1371 77.6009 34.1189 77.6243C34.1006 77.6477 34.0872 77.6744 34.0793 77.703C33.7318 78.4922 33.2463 79.213 32.6455 79.8315C32.5733 79.9076 32.5075 79.9889 32.3939 79.9457C30.9046 79.0233 34.089 72.3431 39.1419 73.0842C42.7262 73.8472 44.4916 76.8426 46.373 79.9566C44.0425 82.4099 41.0761 84.1674 37.8049 85.0328V85.0309Z" fill="black"/>
<path d="M66.1124 33.7556C65.0215 33.2589 64.0635 32.5115 63.3163 31.5742C62.8648 31.6387 62.4101 31.6974 61.9521 31.7264C62.0811 34.4748 62.2359 36.3311 62.9235 38.1526C64.7798 42.4825 70.6029 42.6031 72.3521 39.6528C73.1739 38.0571 72.7262 35.8648 72.2302 33.3383C70.3226 34.2668 68.1285 34.4164 66.1124 33.7556Z" fill="#FFCEB6"/>
<path d="M12.0914 39.1328C12.0914 39.6114 12.1101 40.842 12.1101 40.842L10.4035 40.9033C10.1132 40.9136 10.1126 41.3651 10.4035 41.3548L12.1153 41.2935L12.1411 43.5407C12.1454 43.5976 12.1711 43.6508 12.2129 43.6896C12.2548 43.7284 12.3098 43.75 12.3669 43.75C12.4239 43.75 12.4789 43.7284 12.5208 43.6896C12.5626 43.6508 12.5883 43.5976 12.5926 43.5407C12.5836 42.788 12.5623 42.0327 12.5468 41.2774L13.4975 41.2432C13.7871 41.2335 13.7884 40.7814 13.4975 40.7917L12.5417 40.8259C12.53 40.1986 12.53 39.5711 12.5417 38.9438C12.6062 36.6721 14.6444 37.359 14.4334 38.5174C14.3954 38.8045 14.8475 38.8025 14.8849 38.5174C15.1236 36.6843 11.9973 36.0742 12.0914 39.1328Z" fill="#B26EE6"/>
<path d="M18.2463 36.8129C17.5727 35.7722 16.6022 34.9576 15.4604 34.4746C14.3186 33.9916 13.0581 33.8625 11.8421 34.1039C10.2652 34.5865 8.79413 35.3639 7.50706 36.395C6.52386 37.3619 5.90134 38.6364 5.74304 40.0063C5.58474 41.3762 5.9002 42.759 6.63695 43.9247C7.53189 45.1531 8.76342 46.0961 10.1827 46.6397C11.602 47.1832 13.1484 47.3041 14.635 46.9878C18.7726 45.6152 20.4038 40.1566 18.2463 36.8129ZM11.1578 46.4686C5.94809 45.0786 5.03026 40.0573 7.35226 37.189C8.45503 36.1192 9.77483 35.299 11.2223 34.7838C13.3566 33.8595 15.9243 34.7431 17.4026 36.4375C21.0037 40.563 17.0227 48.4229 11.1578 46.4686Z" fill="#B26EE6"/>
<path d="M71.8525 21.5726C72.3623 21.2608 72.9351 21.0664 73.5295 21.0037C68.7371 16.7886 60.8359 21.29 61.9446 28.0026C61.9561 28.0502 61.9519 28.1003 61.9327 28.1454C61.9134 28.1905 61.8801 28.2282 61.8377 28.2529C61.7953 28.2775 61.7461 28.2878 61.6973 28.2822C61.6486 28.2766 61.603 28.2555 61.5673 28.2219C61.3711 28.0239 61.125 27.8827 60.8552 27.813C60.5853 27.7433 60.3017 27.7477 60.0341 27.8258C59.4852 28.0193 59.3498 28.6127 59.2343 29.1203C59.1483 29.4131 59.1224 29.7203 59.1582 30.0233C59.2976 30.3629 59.5279 30.6576 59.8237 30.875C60.1195 31.0925 60.4695 31.2242 60.8352 31.2559C61.6844 31.309 62.5369 31.2603 63.3746 31.1108C63.9744 31.1147 65.2335 34.6428 70.4876 33.4973C71.7906 33.1842 72.9793 32.5112 73.9183 31.5552C74.8573 30.5992 75.5088 29.3986 75.7986 28.0903C76.0084 26.9117 75.9521 25.7011 75.6338 24.5471C75.3155 23.393 74.7433 22.3248 73.959 21.4203C73.2944 21.4285 72.6442 21.6149 72.0763 21.9602C72.0258 21.9799 71.97 21.9809 71.919 21.9629C71.8679 21.945 71.8249 21.9094 71.7978 21.8625C71.7708 21.8156 71.7614 21.7606 71.7714 21.7074C71.7814 21.6542 71.8102 21.6064 71.8525 21.5726ZM62.3755 29.9208C61.8034 29.9279 61.2319 29.9156 60.6604 29.9272C60.6035 29.9229 60.5503 29.8973 60.5115 29.8554C60.4727 29.8136 60.4511 29.7586 60.4511 29.7015C60.4511 29.6444 60.4727 29.5894 60.5115 29.5476C60.5503 29.5057 60.6035 29.48 60.6604 29.4757C61.2319 29.4641 61.8036 29.4622 62.3755 29.4699C62.4332 29.473 62.4875 29.4981 62.5272 29.5401C62.567 29.582 62.5892 29.6376 62.5892 29.6954C62.5892 29.7531 62.567 29.8087 62.5272 29.8507C62.4875 29.8926 62.4332 29.9177 62.3755 29.9208ZM65.4992 25.0388C64.8812 25.5558 64.4093 26.2256 64.1305 26.9815C64.0312 27.2524 63.5952 27.1344 63.6951 26.8609C63.9937 26.0296 64.5053 25.2912 65.1786 24.7195C65.4025 24.5337 65.725 24.8517 65.4992 25.0388ZM66.8898 28.487L66.33 27.1325C66.2184 26.8641 66.6563 26.7455 66.7653 27.0125L67.3252 28.367C67.4368 28.6379 66.9995 28.752 66.8898 28.487ZM74.068 26.3804C73.942 27.4809 73.5518 28.5346 72.9309 29.4519C71.9518 30.6451 68.9887 28.7617 69.8929 28.4844C71.2979 27.9519 72.5876 27.1547 73.692 26.1359C73.7297 26.1006 73.7781 26.0789 73.8296 26.0743C73.881 26.0697 73.9326 26.0825 73.9759 26.1107C74.0192 26.1389 74.0518 26.1807 74.0685 26.2296C74.0852 26.2785 74.0851 26.3316 74.068 26.3804ZM73.8378 23.354C73.9507 23.7335 74.1358 24.0876 74.3828 24.397C74.5647 24.6208 74.2467 24.942 74.0635 24.7163C73.7625 24.3516 73.5371 23.9306 73.4005 23.4779C73.3924 23.4492 73.39 23.4191 73.3935 23.3895C73.397 23.3599 73.4064 23.3313 73.4209 23.3052C73.4355 23.2792 73.4551 23.2563 73.4785 23.2378C73.502 23.2194 73.5288 23.2057 73.5575 23.1976C73.5862 23.1895 73.6163 23.1872 73.6459 23.1907C73.6755 23.1942 73.7041 23.2035 73.7302 23.2181C73.7562 23.2327 73.7791 23.2523 73.7975 23.2757C73.816 23.2991 73.8297 23.3253 73.8378 23.354Z" fill="#FFCEB6"/>
<path d="M66.7649 27.0106C66.6559 26.7455 66.218 26.8622 66.3296 27.1305L66.8894 28.485C66.9991 28.7508 67.4364 28.634 67.3248 28.3651C67.1378 27.9149 66.9511 27.4634 66.7649 27.0106ZM74.0631 24.717C74.2469 24.9421 74.5643 24.6215 74.3824 24.3977C74.1338 24.0893 73.9486 23.7349 73.8374 23.3547C73.8192 23.2996 73.7805 23.2535 73.7293 23.2261C73.6781 23.1986 73.6183 23.1919 73.5623 23.2073C73.5063 23.2227 73.4584 23.2591 73.4284 23.3088C73.3984 23.3586 73.3888 23.418 73.4014 23.4747C73.5377 23.9284 73.7626 24.3507 74.0631 24.717ZM73.6916 26.1385C72.5872 27.1573 71.2975 27.9545 69.8926 28.487C68.9779 28.7605 71.9566 30.6374 72.9305 29.4545C73.5513 28.5371 73.9414 27.4834 74.0676 26.383C74.0847 26.3342 74.0848 26.2811 74.0681 26.2322C74.0514 26.1833 74.0188 26.1415 73.9755 26.1133C73.9322 26.0852 73.8806 26.0723 73.8292 26.0769C73.7777 26.0815 73.7293 26.1032 73.6916 26.1385ZM72.7357 28.9307C72.4087 29.737 71.0361 29.3403 70.3679 28.7824C71.5203 28.3064 72.5931 27.6569 73.5491 26.8564C73.392 27.5873 73.1173 28.2879 72.7357 28.9307Z" fill="black"/>
<path d="M117.492 40.48C115.745 39.7233 113.912 39.1819 112.035 38.8675C111.702 38.7915 111.357 38.7828 111.021 38.8419C110.684 38.9011 110.363 39.0269 110.076 39.2119C109.553 39.7086 109.812 39.4983 107.496 43.8766C107.549 43.9058 107.588 43.9543 107.605 44.012C107.622 44.0696 107.616 44.1316 107.588 44.1849L106.311 46.9777C107.36 47.4323 108.493 47.6631 109.637 47.6556C110.781 47.648 111.91 47.4022 112.954 46.9339C114.13 46.5056 115.999 45.7542 117.354 45.9238C118.108 44.6474 119.561 42.5827 118.865 41.4017C118.522 40.9508 118.039 40.6266 117.492 40.48ZM113.784 42.8968C113.606 42.4944 113.537 42.0526 113.583 41.6152C113.616 41.3288 114.068 41.3269 114.034 41.6152C113.987 41.9726 114.035 42.336 114.172 42.6691C114.287 42.9336 113.9 43.1626 113.784 42.8968Z" fill="#FFD35C"/>
<path d="M85.6926 76.2929C85.5706 74.6487 85.3403 73.0144 85.0031 71.4006C86.7839 70.2492 86.2118 67.8531 84.945 66.1245C79.7031 58.9572 66.7857 63.3284 67.5029 72.608C67.0992 72.6655 66.7264 72.857 66.4445 73.1517C64.8692 72.5802 63.4255 71.6963 62.2001 70.5532C60.9747 69.41 59.9928 68.0311 59.3134 66.4992C59.1954 66.2341 58.8058 66.4637 58.9232 66.7275C59.6191 68.2803 60.6158 69.6798 61.8558 70.8451C63.0957 72.0104 64.5542 72.9185 66.1472 73.5168C65.9004 73.9252 65.7705 74.3935 65.7717 74.8707C65.7729 75.3478 65.9051 75.8155 66.154 76.2227C66.4028 76.6298 66.7587 76.9608 67.1827 77.1795C67.6068 77.3982 68.0828 77.4963 68.5588 77.4629C68.195 78.244 67.8254 79.0522 67.4584 79.8307C66.6515 81.5419 65.4641 83.3311 66.133 85.1455C66.9876 86.9676 68.9903 88.2867 70.6067 88.8923C73.2867 89.9243 76.6097 89.1884 78.2474 86.6742C78.8543 85.6783 78.7537 85.21 79.5445 83.7717C83.7266 83.6336 85.9345 80.4022 85.6926 76.2929ZM78.1035 86.0047C76.9212 88.366 73.9471 89.3941 71.3762 88.664C69.5161 88.1371 67.89 86.9941 66.7644 85.4222C65.7195 83.7697 67.0153 81.8102 67.741 80.2803C69.2567 77.0811 69.0129 77.4352 69.2025 77.39C69.358 78.2788 69.7555 79.1074 70.3513 79.7849C71.4109 81.0477 72.736 82.0612 74.2322 82.7533C75.7283 83.4453 77.3587 83.7987 79.0072 83.7884C78.6389 84.487 78.4576 85.2958 78.1035 86.0047ZM85.2488 77.6351C85.1943 78.6031 84.92 79.546 84.4468 80.3922C83.9737 81.2384 83.314 81.9657 82.5179 82.5191C80.0972 83.8426 76.0099 83.6298 73.1396 81.6199C72.3793 81.0414 71.6501 80.423 70.955 79.7675C70.2188 79.0335 69.7396 78.0813 69.5889 77.0527C69.5728 76.995 69.5345 76.9461 69.4824 76.9165C69.4304 76.8869 69.3687 76.879 69.3109 76.8947C67.7835 77.3597 66.1065 76.4077 66.2149 74.7494C66.2749 73.6684 67.2359 72.5874 68.3292 73.2872C68.6738 73.459 68.9965 73.6717 69.2902 73.9206C69.396 74.009 69.507 73.9599 69.5418 73.9812C69.5761 74.0009 69.6149 74.0112 69.6544 74.0113C69.6939 74.0113 69.7327 74.0011 69.767 73.9815C69.8013 73.962 69.83 73.9338 69.8501 73.8999C69.8702 73.8659 69.8811 73.8272 69.8817 73.7877C69.9018 72.8292 70.1029 71.8832 70.4745 70.9994C70.6383 70.5432 70.8915 70.1244 71.2194 69.7674C71.5472 69.4104 71.9431 69.1225 72.3837 68.9205C74.7211 68.0479 77.2857 69.2592 79.3013 70.3937C80.2564 71.0447 81.3172 71.5248 82.4366 71.8127C83.1537 71.9768 83.9041 71.9139 84.5838 71.6328C84.6774 72.1036 84.7773 72.6486 84.8567 73.1201C84.5028 72.9964 84.1193 72.9853 83.7588 73.0883C83.3984 73.1913 83.0787 73.4034 82.8436 73.6955C82.6301 73.8941 82.9507 74.2115 83.1629 74.0148C83.6828 73.4272 84.7109 73.1588 84.9799 73.8554C85.1976 75.1029 85.2877 76.3694 85.2488 77.6351Z" fill="black"/>
<path d="M105.898 47.2867C105.847 47.2557 105.81 47.2061 105.795 47.1485C105.78 47.0908 105.788 47.0296 105.817 46.9777L107.072 44.2352C106.481 44.1073 105.866 44.1569 105.304 44.3778C104.742 44.5988 104.257 44.9811 103.912 45.4768C101.424 48.8443 99.9222 54.2849 94.6158 58.1833C95.8133 61.8232 97.6082 65.2384 99.9267 68.2892C103.436 64.9398 106.311 60.9831 108.412 56.6101C108.431 56.5759 108.459 56.5474 108.493 56.5277C108.527 56.5079 108.566 56.4977 108.605 56.4979C110.741 56.5663 112.104 55.6691 113.979 54.708C114.344 54.5769 114.657 54.3326 114.873 54.0108C114.922 53.8749 114.936 53.729 114.914 53.5863C114.892 53.4437 114.834 53.3088 114.747 53.194C114.659 53.0792 114.545 52.9881 114.413 52.929C114.281 52.8699 114.137 52.8447 113.993 52.8556C113.709 52.9078 113.586 52.4789 113.872 52.4196C114.659 52.257 115.718 52.061 116.154 51.2941C116.452 50.7703 116.364 49.8396 115.672 49.699C115.63 49.6863 115.592 49.6617 115.564 49.6282C115.535 49.5947 115.517 49.5537 115.511 49.5101C115.506 49.4665 115.513 49.4222 115.531 49.3824C115.55 49.3427 115.58 49.3093 115.618 49.2862C116.398 48.9297 117.083 48.3935 117.617 47.7214C117.814 47.4711 118.236 47.0035 117.99 46.6765C117.871 46.5631 117.73 46.4759 117.575 46.4203C117.42 46.3648 117.256 46.3422 117.092 46.354C113.549 46.4295 110.686 49.6403 105.898 47.2867ZM111.756 53.5109H111.069C111.012 53.5066 110.959 53.481 110.92 53.4391C110.881 53.3972 110.86 53.3423 110.86 53.2852C110.86 53.2281 110.881 53.1731 110.92 53.1312C110.959 53.0894 111.012 53.0637 111.069 53.0594H111.759C111.816 53.0641 111.869 53.0901 111.908 53.1323C111.946 53.1744 111.967 53.2296 111.967 53.2867C111.967 53.3438 111.945 53.3986 111.906 53.4402C111.866 53.4818 111.813 53.507 111.756 53.5109ZM112.317 50.8664C112.061 50.918 111.796 50.8662 111.579 50.7226C111.339 50.5607 111.566 50.1692 111.807 50.3324C111.861 50.3743 111.924 50.4046 111.99 50.4215C112.057 50.4383 112.126 50.4414 112.194 50.4304C112.481 50.3775 112.602 50.8077 112.317 50.8632V50.8664ZM93.0181 39.3577C91.3985 39.9163 89.9473 38.3586 91.3463 36.9015C90.7477 37.2589 89.9873 37.224 89.7383 36.5661C89.4338 35.8224 90.0169 35.0742 90.5503 34.4686C89.3545 35.6154 87.9781 34.6937 88.8353 33.1057C88.0613 32.5523 87.7749 31.9518 87.1047 31.4287C86.6152 31.0481 85.858 30.6547 85.2904 31.1481C84.2758 32.0247 85.5684 33.3779 86.0689 34.1532C87.6376 36.7159 88.605 39.6008 88.8985 42.5911C91.7222 43.5002 94.68 43.9225 97.6453 43.8398C97.4956 41.509 97.0312 39.2091 96.265 37.0028C95.7897 38.1586 94.0675 39.0055 93.0181 39.3577Z" fill="#FFCEB6"/>
<path d="M98.2106 18.1016C98.9385 19.7331 100.117 21.1232 101.607 22.1088C103.097 23.0944 104.837 23.6346 106.623 23.666C105.59 21.4566 104.363 19.3433 102.956 17.3508C100.727 14.4045 98.9749 11.7922 96.769 8.86133C96.4598 10.1125 96.4377 11.4175 96.7045 12.6784C96.9686 14.544 97.4749 16.3671 98.2106 18.1016ZM98.0777 15.29C98.6274 15.3194 99.1581 15.501 99.6104 15.8147C100.063 16.1284 100.419 16.5618 100.639 17.0663C100.859 17.5708 100.935 18.1266 100.857 18.6716C100.779 19.2165 100.551 19.7291 100.199 20.1521C100.017 20.3784 99.6986 20.0572 99.8766 19.8328C100.167 19.4737 100.352 19.0417 100.413 18.5841C100.474 18.1265 100.408 17.661 100.222 17.2385C100.036 16.816 99.7371 16.4529 99.3585 16.1889C98.9798 15.9248 98.5358 15.7701 98.0751 15.7415C97.7887 15.7222 97.7874 15.2726 98.0777 15.29Z" fill="#FFD35C"/>
<path d="M100.728 22.0511C98.4057 20.2625 97.3389 17.7709 96.6803 14.8239C96.423 13.7857 96.2314 12.7322 96.1069 11.6698C96.0075 10.7777 96.0618 9.8752 96.2675 9.00146C91.3371 13.9237 87.0599 19.4593 83.541 25.4722C84.7239 28.1734 86.9718 30.5948 89.1074 32.6788C90.2423 31.4394 91.7869 30.6521 93.4566 30.4619C93.5856 30.4084 93.6546 30.5 93.7146 30.5658C97.8033 28.1922 102.68 25.358 106.221 24.1035C104.228 23.974 102.317 23.2601 100.728 22.0511Z" fill="#FFD35C"/>
<path d="M104.667 10.7607C104.61 10.7481 104.551 10.7578 104.501 10.7877C104.451 10.8177 104.415 10.8656 104.4 10.9216C104.384 10.9776 104.391 11.0374 104.418 11.0886C104.446 11.1398 104.492 11.1785 104.547 11.1967C105.208 11.3826 105.819 11.714 106.335 12.1665C106.851 12.6191 107.259 13.1814 107.53 13.8122C107.641 14.0766 108.078 13.9605 107.966 13.6922C107.678 12.9831 107.231 12.3498 106.659 11.8414C106.086 11.333 105.405 10.9632 104.667 10.7607ZM111.886 11.0058C112.714 12.7473 112.167 13.4974 112.66 13.4794C112.717 13.4773 112.771 13.4537 112.812 13.4134C112.852 13.3731 112.876 13.319 112.878 13.262C112.813 10.1808 110.392 7.87303 107.765 6.64753C106.963 6.28102 106.138 5.96836 105.295 5.71163C105.017 5.62456 104.897 6.06058 105.175 6.14701C107.858 6.98422 110.617 8.34258 111.886 11.0058Z" fill="black"/>
<path d="M89.2722 34.4967C89.9869 34.7856 90.3229 33.5937 92.2018 33.1093C92.2541 33.0967 92.3092 33.1031 92.3572 33.1274C92.4053 33.1516 92.4431 33.1922 92.464 33.2418C92.4849 33.2913 92.4876 33.3467 92.4714 33.3981C92.4553 33.4494 92.4215 33.4934 92.3759 33.5221C91.5949 33.9936 89.8811 35.4455 90.13 36.3227C90.3468 37.0857 91.3556 36.4039 91.7651 36.1808C92.3514 35.8567 92.9121 35.4882 93.4421 35.0784C93.684 34.9075 93.8936 35.2958 93.6705 35.4687C93.1204 35.8565 92.6013 36.2865 92.1179 36.7548C91.72 37.1418 91.0743 37.7223 91.2536 38.348C91.3362 38.5482 91.4773 38.7189 91.6584 38.8376C91.8395 38.9564 92.0523 39.0177 92.2689 39.0136C92.8534 38.9749 93.4188 38.7897 93.913 38.475C94.8089 38.0158 95.8009 37.4546 95.977 36.3659C96.1537 35.2623 95.5416 34.1838 95.0256 33.2576C94.5704 32.4291 94.0342 31.6479 93.4247 30.9253C89.4102 31.6116 88.4976 34.1851 89.2722 34.4967Z" fill="#FFCEB6"/>
<path d="M96.4323 36.2608C96.4567 35.4248 96.2602 34.5972 95.8628 33.8614C95.2785 32.6594 94.5433 31.5368 93.6749 30.5209C93.6501 30.4885 93.6153 30.4653 93.5759 30.4546C93.5365 30.444 93.4947 30.4467 93.4569 30.4622C91.7679 30.6526 90.2074 31.4558 89.0709 32.7197C88.3872 32.2418 87.9622 31.5033 87.292 31.0111C86.5883 30.4951 85.635 30.1791 84.9236 30.8724C83.7826 31.9831 85.0416 33.3989 85.6763 34.3819C87.2374 36.9248 88.193 39.7926 88.4692 42.7637C88.4692 42.7753 88.4782 42.783 88.4801 42.794C88.4862 42.8364 88.5039 42.8764 88.5312 42.9095C88.5585 42.9426 88.5944 42.9676 88.6349 42.9817C91.6213 43.9523 94.7534 44.3977 97.892 44.2981C97.9513 44.2965 98.0078 44.2722 98.0498 44.2302C98.0918 44.1882 98.1161 44.1317 98.1177 44.0724C97.9558 41.7278 97.4276 38.3777 96.4323 36.2608ZM89.1006 33.6163C89.5798 32.1012 91.8651 31.193 93.4253 30.9247C94.0348 31.6473 94.571 32.4285 95.0262 33.257C95.5422 34.1832 96.1543 35.2623 95.9776 36.3653C95.8035 37.4547 94.8114 38.0152 93.9136 38.4744C93.4198 38.7898 92.8542 38.975 92.2695 39.013C92.053 39.0169 91.8403 38.9556 91.6592 38.8368C91.4781 38.7181 91.337 38.5475 91.2543 38.3473C91.075 37.7204 91.7206 37.1406 92.1186 36.7542C92.6024 36.2864 93.1215 35.8565 93.6711 35.4681C93.8962 35.2958 93.6846 34.9069 93.4427 35.0778C92.9127 35.4875 92.3521 35.8561 91.7658 36.1801C91.3588 36.4033 90.3467 37.0831 90.1307 36.322C89.8817 35.4455 91.5961 33.9923 92.3766 33.5215C92.4221 33.4928 92.4559 33.4488 92.4721 33.3975C92.4882 33.3461 92.4856 33.2907 92.4646 33.2412C92.4437 33.1916 92.4059 33.151 92.3578 33.1268C92.3098 33.1025 92.2547 33.0961 92.2024 33.1087C90.3319 33.5885 89.9868 34.7857 89.2728 34.496C88.9265 34.3574 89.0103 33.8956 89.1006 33.6163ZM88.8987 42.5921C88.6052 39.6018 87.6378 36.7169 86.0691 34.1542C85.5686 33.3802 84.276 32.0257 85.2906 31.1491C85.8588 30.6583 86.6154 31.0492 87.105 31.4297C87.75 31.9302 88.155 32.641 88.8355 33.1067C87.9796 34.6844 89.347 35.6222 90.5506 34.4696C90.0159 35.0759 89.4341 35.8241 89.7385 36.5671C89.9875 37.2276 90.7479 37.2586 91.3465 36.9025C89.9365 38.3686 91.411 39.9141 93.0183 39.3587C94.091 38.9994 95.7847 38.1526 96.2653 37.0025C97.0332 39.2084 97.4975 41.5085 97.6456 43.8395C94.6804 43.9228 91.7226 43.5012 88.8987 42.5927V42.5921ZM110.054 13.0498C110.288 11.7443 109.276 10.8162 108.316 10.1241C107.301 9.39201 106.152 8.67864 104.852 8.74894C104.563 8.76442 104.56 9.21592 104.852 9.20044C105.962 9.23629 107.027 9.64531 107.876 10.3614C108.704 10.9419 109.827 11.763 109.617 12.9279C109.568 13.2143 110.003 13.3362 110.054 13.0498ZM118.863 32.4127C118.295 33.82 117.607 35.176 116.807 36.4659C116.654 36.7136 117.045 36.9406 117.197 36.6936C118.015 35.3692 118.719 33.9771 119.299 32.5327C119.407 32.2631 118.971 32.1463 118.863 32.4127ZM124.051 34.9882C122.505 35.7052 121.005 36.5189 119.561 37.4244C119.314 37.5785 119.541 37.9694 119.788 37.8146C121.233 36.909 122.732 36.0953 124.279 35.3784C124.543 35.2565 124.313 34.8669 124.051 34.9882ZM125.559 39.251C124.271 39.3227 122.98 39.2031 121.727 38.8962C121.445 38.8266 121.324 39.262 121.607 39.3316C122.899 39.65 124.231 39.775 125.559 39.7025C125.848 39.687 125.851 39.2349 125.559 39.251ZM26.8026 56.6647C27.018 56.9317 27.263 57.1734 27.5328 57.3852C27.8576 57.7114 28.249 57.9637 28.6802 58.125C29.9406 58.383 30.8474 57.2781 30.8823 56.0719C30.8809 56.0277 30.8668 55.9849 30.8416 55.9485C30.8165 55.9121 30.7813 55.8838 30.7405 55.8669C30.6996 55.85 30.6547 55.8452 30.6112 55.8533C30.5677 55.8613 30.5275 55.8816 30.4953 55.912C29.569 56.6305 28.1604 57.1749 27.12 56.3448C26.8323 56.1506 26.6033 56.5247 26.8026 56.6647ZM30.3469 56.5576C30.3213 56.7465 30.2548 56.9275 30.1521 57.0881C30.0493 57.2486 29.9129 57.3849 29.7522 57.4873C29.5914 57.5898 29.4103 57.656 29.2214 57.6814C29.0325 57.7067 28.8404 57.6906 28.6583 57.6341C28.413 57.5109 28.1847 57.3563 27.9791 57.1742C28.8159 57.2487 29.6527 57.0308 30.3469 56.5576ZM65.1801 24.7198C64.5064 25.2912 63.9948 26.0297 63.6966 26.8612C63.5967 27.1347 64.0327 27.2533 64.132 26.9818C64.41 26.2254 64.882 25.5554 65.5007 25.0391C65.7219 24.8514 65.4033 24.5334 65.1801 24.7198Z" fill="black"/>
<path d="M74.5984 21.46C74.8435 21.4465 74.9344 21.0685 74.6667 21.0272C73.7637 20.8924 74.5235 21.1343 73.3458 20.2874C73.5625 19.5589 73.851 18.8537 74.2068 18.1821C74.9679 16.6031 73.8456 14.8681 71.9016 16.6044C72.0758 14.0502 72.3531 13.2156 71.5107 12.8118C69.8447 12.1726 66.2372 13.0099 64.5615 15.9078C64.0223 14.763 62.293 14.5417 60.805 16.4922C59.4243 18.1326 58.5199 20.1203 58.1901 22.2389C57.8603 24.3576 58.1178 26.5261 58.9345 28.5086C58.6681 29.3 58.5301 30.1681 59.0545 30.7848C59.3584 31.1254 59.7381 31.3897 60.1629 31.5566C60.5878 31.7234 61.0459 31.788 61.5003 31.7452C61.5771 33.3822 61.768 36.1853 62.2872 37.7437C62.5906 38.6636 63.098 39.503 63.7715 40.1992C64.445 40.8954 65.2672 41.4303 66.1766 41.764C68.0851 42.4418 70.6232 42.1935 72.1106 40.7261C72.4906 40.3217 72.7864 39.8456 72.9808 39.3257C73.1751 38.8058 73.2641 38.2525 73.2426 37.6979C73.1946 36.1532 72.9978 34.6168 72.655 33.11C76.8591 30.6654 77.4596 25.1449 74.5984 21.46ZM72.3512 39.6529C70.5794 42.6399 64.6537 42.447 62.9226 38.1526C62.2595 36.5066 62.0796 34.4497 61.9512 31.7265C62.4077 31.6931 62.8627 31.6423 63.3154 31.5742C64.0625 32.5115 65.0206 33.2589 66.1114 33.7556C68.1298 34.3976 70.3168 34.2484 72.2293 33.3383C72.684 35.6571 73.1884 38.0275 72.3512 39.6529ZM75.7993 28.0932C75.5094 29.4014 74.8578 30.6019 73.9189 31.5579C72.9799 32.5139 71.7913 33.1869 70.4884 33.5002C68.9772 33.8305 67.1047 33.8466 65.7606 33.0932C64.0481 32.1335 63.7578 31.1163 63.3741 31.1137C62.537 31.2684 61.6839 31.3172 60.8347 31.2588C60.469 31.2271 60.119 31.0954 59.8232 30.8779C59.5274 30.6605 59.2971 30.3658 59.1577 30.0262C59.0816 29.3767 59.3467 28.0712 60.0336 27.8261C60.3014 27.7506 60.5843 27.7475 60.8537 27.8171C61.123 27.8867 61.3691 28.0265 61.5668 28.2222C61.6025 28.2558 61.6481 28.277 61.6968 28.2825C61.7456 28.2881 61.7948 28.2778 61.8372 28.2532C61.8796 28.2285 61.9129 28.1909 61.9322 28.1458C61.9514 28.1007 61.9556 28.0505 61.9441 28.0029C60.8231 21.1736 68.8069 16.8676 73.5296 21.004C72.9354 21.0671 72.3626 21.2614 71.8526 21.5729C71.8275 21.5887 71.8057 21.6092 71.7885 21.6334C71.7713 21.6576 71.7591 21.685 71.7525 21.7139C71.7459 21.7429 71.7451 21.7728 71.7501 21.8021C71.7551 21.8313 71.7658 21.8593 71.7816 21.8844C72.0325 22.2824 72.4266 21.4445 73.963 21.4232C74.7461 22.3283 75.3173 23.3968 75.635 24.5507C75.9527 25.7046 76.0088 26.9148 75.7993 28.0932ZM56.8396 67.7987C56.848 67.1782 56.6283 66.5762 56.2223 66.1069C55.5838 65.4851 54.5743 65.1465 54.5672 64.3009C54.6173 63.9321 54.7354 63.5758 54.9155 63.2502C56.1443 60.5825 55.9895 57.5303 53.5681 55.8391C51.1229 54.0596 48.303 54.2518 46.0281 51.7273C44.1498 49.6433 44.3511 47.5264 43.8602 45.7243C42.7244 41.4737 36.0299 37.6701 26.9064 41.9458C21.8432 44.1988 17.2243 50.4843 20.1913 54.3369C20.707 54.8409 21.1174 55.4423 21.3988 56.1062C21.9386 58.0883 20.3448 60.1484 19.1413 62.0905C18.335 63.2421 17.8027 64.5627 17.5849 65.9515C17.363 68.209 18.8987 70.2988 20.7196 71.5101L21.4897 71.5694C22.4043 69.4363 23.8046 67.5463 25.579 66.0501C26.9855 64.6795 28.5541 63.4858 30.2501 62.4955C30.6087 63.7165 31.0563 64.6344 32.2999 65.2116C34.2917 66.1791 37.1658 66.2436 38.5841 64.3144C39.4671 63.1147 39.3188 62.0228 39.1537 60.8959C41.0095 60.8283 42.8579 61.1637 44.5717 61.8789C47.4361 63.2528 51.0965 66.4468 53.4965 70.8444C53.9887 70.7077 54.5737 70.4955 54.6388 70.4703C55.455 70.2491 56.1717 69.7569 56.6712 69.0745C56.8468 68.6737 56.9052 68.2314 56.8396 67.7987ZM27.1051 59.9697C24.1 59.0667 23.0938 57.9838 23.1415 54.2221C23.535 53.6241 24.0529 53.1181 24.6599 52.7386C24.9063 52.5858 24.6799 52.1943 24.4315 52.3516C23.9559 52.6503 23.5289 53.0201 23.1654 53.4481C23.2802 51.6318 24.0478 49.0073 25.5771 47.983C27.9687 46.446 30.9086 47.0968 33.2306 48.6571C33.8624 49.0767 34.387 49.6385 34.7625 50.2975C35.1379 50.9564 35.3538 51.6942 35.3927 52.4516C35.3941 52.4958 35.4082 52.5387 35.4333 52.5751C35.4585 52.6114 35.4936 52.6398 35.5345 52.6567C35.5753 52.6736 35.6202 52.6783 35.6637 52.6703C35.7072 52.6623 35.7475 52.6419 35.7797 52.6116C36.2229 52.1314 36.8006 51.796 37.4373 51.6492C39.0021 51.3751 39.1743 53.3385 37.8837 53.8422C37.2146 54.2075 36.4387 54.3271 35.6907 54.1802C35.6572 54.1721 35.6223 54.1716 35.5887 54.1787C35.555 54.1858 35.5233 54.2003 35.4959 54.2212C35.4685 54.2421 35.4462 54.2688 35.4304 54.2994C35.4147 54.3301 35.406 54.3638 35.4049 54.3982C35.3371 55.3597 35.0507 56.293 34.5676 57.1271C34.0845 57.9612 33.4174 58.674 32.6172 59.2113C31.817 59.7486 30.9047 60.0962 29.9498 60.2277C28.9949 60.3591 28.0226 60.2709 27.107 59.9697H27.1051ZM38.3377 63.8875C37.0806 65.6935 34.4787 65.7534 32.5631 64.8388C30.7448 64.0377 30.8358 62.4136 30.1566 60.6973C31.6267 60.4381 32.9731 59.7093 33.994 58.6201C35.0148 57.5309 35.6549 56.14 35.8184 54.6562C36.206 54.7116 36.6001 54.7021 36.9845 54.6278C37.6892 56.5874 38.2468 58.5967 38.6525 60.6392C38.8589 61.7338 39.0092 62.9232 38.3377 63.8875Z" fill="black"/>
<path d="M31.1209 51.7563C31.2829 51.5524 31.4974 51.3964 31.7412 51.305C31.9851 51.2135 32.2492 51.1901 32.5054 51.2371C32.7615 51.2841 33.0001 51.3999 33.1956 51.572C33.391 51.7441 33.536 51.9661 33.6151 52.2143C33.7022 52.4903 34.1382 52.373 34.0505 52.0943C33.9527 51.7566 33.7618 51.4534 33.4996 51.2192C33.2374 50.9851 32.9145 50.8296 32.5679 50.7705C32.2214 50.7115 31.8652 50.7513 31.5403 50.8854C31.2153 51.0195 30.9347 51.2424 30.7307 51.5286C30.5533 51.7589 30.9442 51.9827 31.1209 51.7563ZM62.3763 29.4696C61.8046 29.459 61.2328 29.4609 60.6612 29.4755C60.6043 29.4798 60.5511 29.5054 60.5123 29.5473C60.4735 29.5891 60.4519 29.6441 60.4519 29.7012C60.4519 29.7583 60.4735 29.8133 60.5123 29.8551C60.5511 29.897 60.6043 29.9226 60.6612 29.9269C61.2327 29.9149 61.8044 29.9128 62.3763 29.9205C62.434 29.9174 62.4883 29.8923 62.5281 29.8504C62.5678 29.8084 62.59 29.7529 62.59 29.6951C62.59 29.6373 62.5678 29.5817 62.5281 29.5398C62.4883 29.4978 62.434 29.4727 62.3763 29.4696ZM118.277 46.3209C117.951 46.0356 117.528 45.8858 117.096 45.9023C113.673 45.8888 110.788 49.0396 106.312 46.9782L107.59 44.1853C107.605 44.1551 107.614 44.1219 107.615 44.0879C107.617 44.054 107.611 44.0201 107.598 43.9886C107.585 43.9572 107.566 43.9288 107.541 43.9055C107.516 43.8823 107.487 43.8646 107.455 43.8538C106.933 43.7017 106.384 43.6691 105.848 43.7584C105.312 43.8477 104.803 44.0567 104.359 44.3698C101.941 46.3087 100.231 53.2669 94.7876 57.4839C93.4376 58.5508 92.1811 59.7459 89.6708 60.6444C84.0896 62.4433 75.9832 61.4984 69.7519 56.9125C69.5171 56.7402 69.292 57.1318 69.5242 57.2995C75.6814 61.797 83.5072 62.8465 89.318 61.234C91.1232 60.6505 92.7959 59.7173 94.2406 58.4876C95.4756 62.1892 97.3227 65.6576 99.705 68.7482C99.7217 68.7748 99.7436 68.7976 99.7695 68.8154C99.7953 68.8331 99.8245 68.8454 99.8552 68.8514C99.886 68.8575 99.9177 68.8572 99.9483 68.8505C99.9789 68.8438 100.008 68.831 100.033 68.8127C100.585 68.5083 105.767 63.2431 108.748 56.9492C110.129 56.9072 111.482 56.543 112.698 55.8856C113.424 55.4986 114.396 55.0233 114.671 54.8439C114.869 54.7448 115.037 54.5959 115.16 54.4119C115.283 54.2279 115.356 54.0151 115.372 53.7945C115.388 53.5738 115.346 53.3527 115.251 53.1531C115.155 52.9534 115.01 52.7819 114.828 52.6555C115.214 52.5874 115.578 52.4311 115.893 52.1988C116.208 51.9665 116.465 51.6645 116.644 51.3164C116.775 51.0039 116.805 50.6585 116.731 50.328C116.656 49.9975 116.481 49.6983 116.229 49.4717C117.068 49.0151 117.777 48.3547 118.293 47.5516C118.436 47.3775 118.513 47.1585 118.51 46.9333C118.507 46.7081 118.425 46.4912 118.277 46.3209ZM117.621 47.7244C117.087 48.3966 116.402 48.9328 115.621 49.2892C115.584 49.3123 115.554 49.3458 115.535 49.3855C115.516 49.4252 115.509 49.4695 115.515 49.5131C115.52 49.5567 115.539 49.5977 115.567 49.6312C115.596 49.6647 115.633 49.6893 115.675 49.702C116.367 49.8433 116.455 50.7734 116.158 51.2971C115.721 52.064 114.663 52.2601 113.876 52.4226C113.59 52.4826 113.713 52.9102 113.996 52.8586C114.14 52.8479 114.284 52.8732 114.416 52.9324C114.548 52.9915 114.662 53.0826 114.75 53.1974C114.837 53.3121 114.895 53.4469 114.917 53.5895C114.939 53.7321 114.925 53.8779 114.877 54.0138C114.66 54.3352 114.347 54.5793 113.982 54.7111C112.103 55.6786 110.742 56.5693 108.609 56.501C108.569 56.5007 108.531 56.511 108.497 56.5307C108.463 56.5505 108.434 56.5789 108.415 56.6132C106.314 60.9861 103.44 64.9429 99.9301 68.2922C97.6117 65.2414 95.8168 61.8262 94.6192 58.1863C99.8824 54.3163 101.533 48.71 103.915 45.4798C104.259 44.9825 104.743 44.5988 105.306 44.3777C105.869 44.1566 106.485 44.108 107.075 44.2382L105.821 46.9807C105.791 47.0326 105.783 47.0939 105.799 47.1516C105.814 47.2093 105.851 47.2588 105.902 47.2897C107.266 47.9603 108.79 48.2375 110.302 48.0901C112.8 47.8321 114.333 46.4777 117.099 46.3564C117.262 46.3465 117.426 46.37 117.581 46.4254C117.735 46.4809 117.877 46.5671 117.997 46.6789C118.239 47.0072 117.817 47.4722 117.621 47.7244Z" fill="black"/>
<path d="M82.3096 59.8252C82.4025 60.0987 82.8392 59.9813 82.745 59.7052C81.8192 56.9876 81.0293 54.2292 80.3752 51.4299C80.3107 51.1474 79.8741 51.2667 79.9405 51.5505C80.5928 54.3459 81.3825 57.1042 82.3096 59.8252ZM35.8522 53.3746L37.3596 52.9618C37.4147 52.9436 37.4608 52.9049 37.4882 52.8537C37.5156 52.8025 37.5224 52.7427 37.5069 52.6867C37.4915 52.6307 37.4552 52.5827 37.4054 52.5528C37.3557 52.5228 37.2963 52.5131 37.2396 52.5257L35.7322 52.9392C35.6745 52.9551 35.6254 52.9933 35.5959 53.0454C35.5663 53.0974 35.5586 53.1591 35.5745 53.2169C35.5904 53.2746 35.6286 53.3236 35.6807 53.3532C35.7328 53.3828 35.7945 53.3905 35.8522 53.3746ZM68.7994 74.9975C68.3626 75.0475 67.9209 74.961 67.5352 74.7499C67.2805 74.6092 67.0521 75.0001 67.3069 75.1369C67.7609 75.3908 68.2819 75.4989 68.7994 75.4465C69.0852 75.42 69.0884 74.9653 68.7994 74.9975Z" fill="black"/>
<path d="M7.63947 78.458C8.45733 78.1613 8.0613 77.1035 7.49305 76.5081C7.24507 76.1848 6.96524 75.8873 6.65778 75.62C6.48814 75.4787 6.66939 75.1607 6.87708 75.2426C7.35909 75.4393 7.86663 75.5663 8.38444 75.62C8.56698 75.6361 8.88174 75.707 9.00816 75.5393C9.11179 75.3554 9.14329 75.1395 9.09652 74.9337C8.95462 73.9513 8.0097 73.5147 7.1841 73.2019C6.91578 73.1012 7.02414 72.6742 7.30407 72.7665C7.87424 72.9619 8.46976 73.0736 9.07201 73.098C9.22423 73.1038 9.44611 73.1386 9.57447 73.0335C9.9318 72.6207 8.98107 71.412 8.58697 71.034C7.63882 70.1123 6.05083 69.5202 4.70472 70.1904C3.63531 70.8354 3.62692 73.345 3.714 74.5119C3.69101 75.2366 3.87588 75.9528 4.24677 76.5759C4.84625 77.3829 5.67462 77.9911 6.62424 78.3212C6.94236 78.4638 7.29495 78.5113 7.63947 78.458Z" fill="#A76C6C"/>
<path d="M7.82374 78.8749C8.77124 78.5433 8.71126 77.2927 8.08174 76.5361C7.39223 75.5905 7.38772 76.064 8.70481 76.0898C9.76777 76.104 9.9058 74.5056 8.76221 73.531C9.98771 73.7949 10.7004 72.9628 9.3769 71.2426C7.38449 68.751 4.17562 69.0277 3.5719 71.0078C3.17491 72.4352 3.09391 73.9319 3.33454 75.3938C3.54803 77.5346 6.45634 79.2316 7.82374 78.8749ZM4.2485 76.5754C3.87791 75.9523 3.69307 75.2362 3.71574 74.5115C3.62737 73.313 3.64349 70.8279 4.70645 70.1899C6.28864 69.4024 8.34619 70.3061 9.32143 71.9598C9.46784 72.2069 9.81679 72.7564 9.5762 73.0344C9.4472 73.1395 9.22597 73.1047 9.07375 73.0989C8.4715 73.0745 7.87599 72.9628 7.3058 72.7674C7.02587 72.6751 6.9188 73.1021 7.18583 73.2027C8.01144 73.5143 8.95636 73.9522 9.09826 74.9346C9.14502 75.1404 9.11353 75.3563 9.00989 75.5402C8.8809 75.7079 8.56807 75.637 8.38618 75.6208C7.86814 75.5673 7.36037 75.4403 6.87817 75.2435C6.67048 75.1616 6.49117 75.4796 6.65887 75.6208C6.96745 75.888 7.24837 76.1856 7.49737 76.509C8.07787 77.1166 8.45391 78.1647 7.64378 78.4588C7.29948 78.5121 6.94713 78.4646 6.6292 78.3221C5.67816 77.9923 4.84854 77.3836 4.2485 76.5754ZM17.1285 81.3091C17.5954 81.4846 18.1048 81.5131 18.5883 81.3908C19.0718 81.2685 19.5064 81.0012 19.8336 80.6248C20.1949 80.1831 20.3823 79.6247 20.3607 79.0545C20.3391 78.4844 20.1099 77.9418 19.7162 77.5288C19.3999 77.2899 19.038 77.1184 18.6529 77.0248C18.2677 76.9311 17.8675 76.9174 17.4768 76.9844C16.9736 77.0507 16.5084 77.2876 16.1587 77.6555C15.809 78.0234 15.596 78.5001 15.5553 79.006C15.5145 79.5119 15.6485 80.0165 15.9348 80.4357C16.2211 80.8548 16.6424 81.1631 17.1285 81.3091ZM17.431 77.4391C17.7693 77.3712 18.1178 77.3724 18.4556 77.4424C18.7934 77.5125 19.1136 77.65 19.397 77.8467C19.5875 78.0809 19.7204 78.3565 19.785 78.6514C19.8496 78.9463 19.8441 79.2522 19.769 79.5446C19.6938 79.837 19.5511 80.1076 19.3523 80.3348C19.1534 80.562 18.9041 80.7393 18.6243 80.8526C18.3444 80.9658 18.0419 81.0118 17.7411 80.9869C17.4402 80.9619 17.1494 80.8667 16.8921 80.7089C16.6347 80.5511 16.418 80.3351 16.2593 80.0783C16.1006 79.8215 16.0044 79.531 15.9785 79.2303C16.052 78.4524 16.5706 77.5236 17.431 77.4423V77.4391Z" fill="black"/>
<path d="M17.0916 78.6258C17.1445 78.4938 17.2471 78.388 17.3773 78.331C17.6418 78.2207 17.5263 77.7834 17.2574 77.895C17.014 77.9846 16.8148 78.1649 16.7014 78.3981C16.5756 78.6606 16.9665 78.8896 17.0916 78.6258ZM17.3844 78.8709L17.6992 79.3088C17.8669 79.5436 18.2597 79.3179 18.0894 79.0811L17.7747 78.6425C17.6076 78.4084 17.2141 78.6335 17.3844 78.8709ZM18.1404 78.5464H18.6396C18.6965 78.5421 18.7497 78.5165 18.7885 78.4746C18.8274 78.4327 18.8489 78.3778 18.8489 78.3207C18.8489 78.2636 18.8274 78.2086 18.7885 78.1667C18.7497 78.1249 18.6965 78.0992 18.6396 78.0949H18.1378C18.0809 78.0996 18.0278 78.1255 17.9892 78.1676C17.9506 78.2097 17.9294 78.2648 17.9297 78.3219C17.93 78.379 17.9519 78.4338 17.991 78.4755C18.0301 78.5171 18.0834 78.5425 18.1404 78.5464ZM17.1561 76.2102C17.172 76.268 17.2102 76.317 17.2623 76.3466C17.3143 76.3762 17.376 76.3839 17.4338 76.3679C17.4915 76.352 17.5406 76.3138 17.5701 76.2618C17.5997 76.2097 17.6074 76.148 17.5915 76.0903C17.4899 75.6948 17.3285 75.3172 17.1129 74.9706C16.9594 74.7248 16.5679 74.9512 16.722 75.1989C16.9181 75.5115 17.0646 75.8527 17.1561 76.2102ZM114.035 41.6157C114.071 41.3273 113.616 41.3299 113.584 41.6157C113.536 42.0531 113.605 42.4954 113.784 42.8973C113.898 43.1637 114.287 42.934 114.171 42.6696C114.036 42.3359 113.989 41.9728 114.035 41.6157ZM82.1515 104.69C82.5436 104.055 82.9184 103.41 83.3021 102.77C83.3241 102.719 83.3268 102.662 83.3098 102.61C83.2927 102.557 83.2571 102.513 83.2095 102.485C83.162 102.457 83.1058 102.447 83.0516 102.458C82.9974 102.468 82.9488 102.498 82.9151 102.542L81.7651 104.462C81.7427 104.512 81.7397 104.57 81.7567 104.622C81.7736 104.675 81.8093 104.72 81.857 104.748C81.9046 104.776 81.961 104.785 82.0153 104.775C82.0696 104.764 82.118 104.734 82.1515 104.69ZM112.196 50.4277C112.128 50.4388 112.058 50.4358 111.992 50.4189C111.925 50.4021 111.863 50.3717 111.809 50.3296C111.567 50.1664 111.34 50.5573 111.581 50.7198C111.688 50.7921 111.808 50.8421 111.935 50.8668C112.062 50.8915 112.192 50.8904 112.318 50.8637C112.603 50.814 112.481 50.3793 112.196 50.4277ZM111.755 53.0593H111.068C111.011 53.0636 110.958 53.0892 110.919 53.1311C110.88 53.1729 110.859 53.2279 110.859 53.285C110.859 53.3421 110.88 53.3971 110.919 53.4389C110.958 53.4808 111.011 53.5064 111.068 53.5108H111.758C111.815 53.5061 111.868 53.48 111.907 53.4379C111.945 53.3958 111.966 53.3406 111.966 53.2835C111.966 53.2264 111.944 53.1716 111.905 53.13C111.865 53.0884 111.812 53.0631 111.755 53.0593ZM82.5365 110.649C82.7778 110.489 82.5514 110.097 82.3088 110.262C82.2382 110.317 82.1506 110.345 82.0611 110.342C81.9717 110.339 81.8862 110.305 81.8193 110.246C81.6026 110.052 81.2814 110.375 81.5007 110.568C81.6391 110.696 81.8167 110.774 82.0046 110.788C82.1925 110.803 82.3799 110.754 82.5365 110.649ZM82.5707 113.787C82.5026 113.844 82.4232 113.886 82.3378 113.909C82.2524 113.933 82.1629 113.938 82.0754 113.924C81.7909 113.877 81.6684 114.311 81.9547 114.36C82.1004 114.39 82.2508 114.389 82.3961 114.358C82.5415 114.326 82.6787 114.265 82.799 114.178C83.0306 114.007 82.8055 113.614 82.5707 113.787ZM100.474 105.421C100.421 105.46 100.357 105.482 100.292 105.484C100.226 105.487 100.161 105.469 100.105 105.434C100.079 105.42 100.05 105.411 100.021 105.408C99.9912 105.405 99.9613 105.408 99.9328 105.416C99.9044 105.425 99.8779 105.439 99.8548 105.457C99.8318 105.476 99.8127 105.499 99.7987 105.525C99.629 105.841 100.257 106.098 100.702 105.811C100.947 105.657 100.72 105.264 100.474 105.421ZM99.9173 108.149H99.4987C99.4418 108.153 99.3886 108.179 99.3498 108.221C99.311 108.262 99.2894 108.317 99.2894 108.374C99.2894 108.432 99.311 108.487 99.3498 108.528C99.3886 108.57 99.4418 108.596 99.4987 108.6H99.9173C99.9743 108.596 100.027 108.57 100.066 108.528C100.105 108.487 100.127 108.432 100.127 108.374C100.127 108.317 100.105 108.262 100.066 108.221C100.027 108.179 99.9743 108.153 99.9173 108.149ZM35.8708 74.6945L35.0619 75.3163C34.8349 75.4911 35.0619 75.8832 35.2896 75.7033L36.0991 75.0815C36.3255 74.9099 36.101 74.5165 35.8708 74.6945ZM39.5312 75.4291L38.9416 76.0096C38.7346 76.2141 39.0539 76.5334 39.2641 76.3321C39.4611 76.1374 39.6576 75.9439 39.8537 75.7516C39.8964 75.7089 39.9204 75.6509 39.9204 75.5904C39.9204 75.5299 39.8964 75.4719 39.8537 75.4291C39.8109 75.3864 39.7529 75.3624 39.6924 75.3624C39.6319 75.3624 39.5739 75.3864 39.5312 75.4291Z" fill="black"/>
</svg>
