<svg width="25" height="25" viewBox="0 0 25 25" fill="none" xmlns="http://www.w3.org/2000/svg">
<path d="M25 16.7969C25 19.1699 23.6824 21.0938 21.0938 21.0938H3.90625C1.31758 21.0938 0 19.1699 0 16.7969V8.20312C0 5.83008 1.31758 3.90625 3.90625 3.90625H21.0938C23.6824 3.90625 25 5.83008 25 8.20312V16.7969Z" fill="#E6E7E8"/>
<path d="M13.4864 11.1898C13.9173 11.0004 14.3595 10.991 14.8142 11.1609C15.2911 11.3402 15.6185 11.6238 15.7954 12.0133C15.9732 12.4035 15.9943 12.8855 15.8599 13.4601C16.1751 12.4535 16.1388 11.5234 15.7501 10.6707C15.3626 9.81913 14.7032 9.21757 13.7716 8.86952C12.8634 8.52812 11.9583 8.55976 11.0571 8.95976C10.1556 9.36054 9.53722 10.0098 9.20128 10.9047C9.02003 11.391 9.02628 11.8594 9.22394 12.3098C9.42081 12.7605 9.75441 13.0734 10.2243 13.2496C10.6794 13.4195 11.122 13.4105 11.554 13.2242C11.9864 13.0367 12.2997 12.718 12.495 12.2644L12.5431 12.1508C12.7411 11.6996 13.056 11.3789 13.4864 11.1898Z" fill="#EC1C24"/>
<path d="M11.5745 13.1754C11.1432 13.3652 10.7007 13.3746 10.2475 13.2051C9.7702 13.0262 9.44246 12.7418 9.26551 12.352C9.08855 11.9625 9.06707 11.4805 9.20027 10.9062C8.88582 11.9121 8.92293 12.8418 9.31082 13.6941C9.6991 14.5473 10.3581 15.1473 11.2889 15.4961C12.1975 15.8363 13.1026 15.8051 14.0046 15.4062C14.905 15.0051 15.5241 14.3566 15.8589 13.4613C16.0417 12.975 16.0354 12.5062 15.8378 12.0566C15.6401 11.6059 15.3065 11.2926 14.8358 11.1164C14.3823 10.9461 13.9397 10.9551 13.5077 11.1418C13.0757 11.3289 12.762 11.6488 12.5667 12.1008L12.5182 12.2148C12.3206 12.6648 12.005 12.9859 11.5745 13.1754Z" fill="#1B75BB"/>
<path d="M9.39069 6.03554C9.41569 6.06097 9.4297 6.0952 9.4297 6.13086C9.4297 6.16651 9.41569 6.20074 9.39069 6.22617L7.00865 8.60742C6.99621 8.61991 6.98144 8.62983 6.96516 8.63661C6.94889 8.64339 6.93144 8.6469 6.91381 8.64693C6.89618 8.64697 6.87872 8.64353 6.86242 8.63682C6.84612 8.63011 6.8313 8.62025 6.81881 8.60781C6.80632 8.59537 6.7964 8.58059 6.78962 8.56432C6.78284 8.54804 6.77933 8.5306 6.7793 8.51297C6.77926 8.49534 6.7827 8.47788 6.78941 8.46158C6.79612 8.44527 6.80598 8.43046 6.81842 8.41796L9.20006 6.03593C9.21252 6.02334 9.22735 6.01334 9.2437 6.0065C9.26004 5.99966 9.27757 5.99612 9.29529 5.99608C9.31301 5.99605 9.33056 5.99952 9.34693 6.00629C9.3633 6.01306 9.37817 6.023 9.39069 6.03554ZM9.82037 6.46484C9.83293 6.47729 9.84289 6.49211 9.84969 6.50844C9.85649 6.52476 9.85999 6.54227 9.85999 6.55996C9.85999 6.57764 9.85649 6.59515 9.84969 6.61148C9.84289 6.6278 9.83293 6.64262 9.82037 6.65507L7.4399 9.03672C7.41458 9.0619 7.38031 9.07604 7.34459 9.07604C7.30887 9.07604 7.2746 9.0619 7.24928 9.03672C7.23657 9.02431 7.22647 9.00948 7.21958 8.99311C7.21268 8.97675 7.20913 8.95916 7.20913 8.9414C7.20913 8.92364 7.21268 8.90606 7.21958 8.88969C7.22647 8.87332 7.23657 8.8585 7.24928 8.84609L9.63092 6.46484C9.65605 6.43972 9.69012 6.42561 9.72565 6.42561C9.76117 6.42561 9.79525 6.43972 9.82037 6.46484ZM10.2657 6.91054C10.2784 6.92295 10.2885 6.93777 10.2954 6.95414C10.3023 6.97051 10.3058 6.98809 10.3058 7.00586C10.3058 7.02362 10.3023 7.0412 10.2954 7.05757C10.2885 7.07394 10.2784 7.08876 10.2657 7.10117L7.88365 9.4832C7.87127 9.49573 7.85651 9.50568 7.84025 9.51247C7.82399 9.51926 7.80655 9.52275 7.78893 9.52275C7.77131 9.52275 7.75386 9.51926 7.7376 9.51247C7.72134 9.50568 7.70659 9.49573 7.6942 9.4832C7.66889 9.45786 7.65468 9.42351 7.65468 9.38769C7.65468 9.35188 7.66889 9.31753 7.6942 9.29218L10.0755 6.91054C10.0879 6.89799 10.1027 6.88802 10.119 6.88122C10.1354 6.87442 10.1529 6.87092 10.1706 6.87092C10.1883 6.87092 10.2058 6.87442 10.2221 6.88122C10.2384 6.88802 10.2532 6.89799 10.2657 6.91054ZM16.8008 7.28359C16.8571 7.23945 16.9102 7.1914 16.9641 7.14375L15.8563 6.03554C15.831 6.01026 15.7967 5.99606 15.761 5.99606C15.7252 5.99606 15.691 6.01026 15.6657 6.03554C15.6404 6.06082 15.6262 6.09511 15.6262 6.13086C15.6262 6.1666 15.6404 6.20089 15.6657 6.22617L16.7653 7.32539C16.7743 7.30925 16.7864 7.29505 16.8008 7.28359ZM18.2383 8.41757L17.163 7.34179C17.0962 7.40156 17.0282 7.46132 16.9575 7.51679L18.0477 8.60703C18.0734 8.62924 18.1066 8.64093 18.1405 8.63975C18.1745 8.63856 18.2067 8.6246 18.2308 8.60065C18.2549 8.5767 18.2691 8.54453 18.2705 8.51058C18.2719 8.47664 18.2604 8.44342 18.2383 8.41757ZM17.809 9.03515C17.7838 9.06032 17.7496 9.07445 17.7139 9.07445C17.6783 9.07445 17.6441 9.06032 17.6188 9.03515L15.2368 6.65351C15.2234 6.64119 15.2127 6.6263 15.2053 6.60974C15.1978 6.59317 15.1938 6.57527 15.1935 6.55712C15.1931 6.53896 15.1965 6.52092 15.2032 6.50408C15.21 6.48724 15.2202 6.47195 15.233 6.45913C15.2459 6.4463 15.2612 6.4362 15.278 6.42944C15.2949 6.42268 15.3129 6.41939 15.3311 6.41978C15.3493 6.42017 15.3671 6.42422 15.3837 6.4317C15.4002 6.43917 15.4151 6.44991 15.4274 6.46328L17.809 8.84453C17.8216 8.85704 17.8315 8.8719 17.8383 8.88825C17.845 8.90461 17.8485 8.92214 17.8485 8.93984C17.8485 8.95754 17.845 8.97507 17.8383 8.99142C17.8315 9.00778 17.8216 9.02264 17.809 9.03515ZM15.8755 8.17343C15.945 8.11953 16.0032 8.05468 16.0571 7.98476L14.9825 6.91054C14.9702 6.8972 14.9553 6.88649 14.9387 6.87905C14.9221 6.87161 14.9042 6.8676 14.8861 6.86724C14.8679 6.86689 14.8499 6.87022 14.8331 6.87701C14.8162 6.88381 14.8009 6.89394 14.7881 6.90679C14.7753 6.91964 14.7652 6.93496 14.7584 6.95181C14.7516 6.96866 14.7484 6.98671 14.7488 7.00486C14.7491 7.02302 14.7532 7.04091 14.7607 7.05746C14.7681 7.07401 14.7789 7.08887 14.7922 7.10117L15.8715 8.17968C15.8712 8.17929 15.8731 8.17656 15.8755 8.17343ZM17.3633 9.29218L16.2563 8.18515C16.1993 8.25547 16.1356 8.31914 16.0676 8.37656L17.1731 9.48281C17.1855 9.49551 17.2003 9.5056 17.2166 9.51249C17.2329 9.51938 17.2505 9.52293 17.2682 9.52293C17.286 9.52293 17.3035 9.51938 17.3198 9.51249C17.3362 9.5056 17.351 9.49551 17.3633 9.48281C17.3759 9.47029 17.3858 9.45543 17.3926 9.43908C17.3993 9.42273 17.4028 9.4052 17.4028 9.3875C17.4028 9.36979 17.3993 9.35227 17.3926 9.33591C17.3858 9.31956 17.3759 9.3047 17.3633 9.29218ZM16.7805 17.0617L15.7118 18.1312C15.6866 18.1565 15.6725 18.1907 15.6725 18.2264C15.6725 18.262 15.6866 18.2962 15.7118 18.3215C15.7242 18.334 15.7391 18.344 15.7554 18.3508C15.7717 18.3576 15.7892 18.3611 15.8069 18.3611C15.8246 18.3611 15.8421 18.3576 15.8584 18.3508C15.8747 18.344 15.8896 18.334 15.902 18.3215L16.9633 17.2594C16.9028 17.193 16.8422 17.1273 16.7805 17.0617ZM18.284 15.75C18.2585 15.7249 18.2241 15.711 18.1883 15.7112C18.1525 15.7114 18.1183 15.7258 18.093 15.7512L16.9801 16.8633C17.0415 16.9301 17.1024 16.9953 17.1633 17.0609L18.284 15.941C18.3089 15.9154 18.3228 15.8812 18.3228 15.8455C18.3228 15.8098 18.3089 15.7756 18.284 15.75ZM16.363 16.6223L15.2821 17.702C15.2571 17.7274 15.2431 17.7616 15.2431 17.7973C15.2431 17.8329 15.2571 17.8672 15.2821 17.8926C15.3075 17.9179 15.3419 17.9321 15.3778 17.9321C15.4137 17.9321 15.4481 17.9179 15.4735 17.8926L16.5485 16.8168C16.486 16.7512 16.4255 16.6855 16.363 16.6223ZM17.854 15.3203C17.8416 15.3078 17.8269 15.2978 17.8107 15.2911C17.7944 15.2843 17.777 15.2808 17.7594 15.2808C17.7418 15.2808 17.7244 15.2843 17.7082 15.2911C17.692 15.2978 17.6773 15.3078 17.6649 15.3203L16.5626 16.4219C16.6258 16.4859 16.686 16.5512 16.7489 16.6164L17.8544 15.5105C17.867 15.4981 17.8771 15.4833 17.8839 15.467C17.8908 15.4506 17.8943 15.4331 17.8943 15.4153C17.8942 15.3976 17.8907 15.3801 17.8837 15.3637C17.8768 15.3474 17.8667 15.3327 17.854 15.3203ZM15.8985 16.1949L14.836 17.2562C14.8112 17.2818 14.7973 17.316 14.7973 17.3516C14.7973 17.3872 14.8112 17.4214 14.836 17.4469C14.8614 17.4722 14.8958 17.4864 14.9317 17.4864C14.9676 17.4864 15.002 17.4722 15.0274 17.4469L16.0969 16.3758C16.0313 16.3156 15.968 16.2516 15.8985 16.1949ZM16.2985 16.1758L17.4083 15.0644C17.421 15.0521 17.4312 15.0373 17.4381 15.0209C17.445 15.0045 17.4486 14.9869 17.4486 14.9691C17.4486 14.9514 17.445 14.9338 17.4381 14.9174C17.4312 14.901 17.421 14.8862 17.4083 14.8738C17.3959 14.8613 17.3811 14.8513 17.3649 14.8446C17.3486 14.8378 17.3312 14.8343 17.3135 14.8343C17.2959 14.8343 17.2785 14.8378 17.2622 14.8446C17.2459 14.8513 17.2312 14.8613 17.2188 14.8738L16.0989 15.9937C16.1688 16.0519 16.2321 16.1148 16.2985 16.1758ZM8.30006 17.0734C8.24381 17.1172 8.19108 17.1656 8.13639 17.2133L9.24498 18.3215C9.2574 18.334 9.27219 18.344 9.28848 18.3508C9.30477 18.3576 9.32225 18.3611 9.3399 18.3611C9.35756 18.3611 9.37503 18.3576 9.39133 18.3508C9.40762 18.344 9.4224 18.334 9.43483 18.3215C9.44743 18.3091 9.45743 18.2942 9.46426 18.2779C9.47109 18.2616 9.47461 18.2441 9.47461 18.2264C9.47461 18.2087 9.47109 18.1911 9.46426 18.1748C9.45743 18.1585 9.44743 18.1437 9.43483 18.1312L8.336 17.0312C8.3266 17.0473 8.31443 17.0616 8.30006 17.0734ZM6.86373 15.9394L7.93873 17.0152C8.00592 16.9559 8.07272 16.8957 8.14381 16.8406L7.05358 15.75C7.02796 15.7274 6.9947 15.7154 6.96056 15.7165C6.92642 15.7175 6.89396 15.7315 6.86978 15.7557C6.84561 15.7798 6.83153 15.8122 6.8304 15.8464C6.82928 15.8805 6.84119 15.9138 6.86373 15.9394ZM9.86334 17.7031L8.77779 16.6176C8.71803 16.6727 8.65904 16.7293 8.59654 16.7809C8.58834 16.7879 8.58014 16.7906 8.57272 16.7949L9.67233 17.8937C9.68484 17.9063 9.69971 17.9162 9.71607 17.923C9.73243 17.9298 9.74998 17.9333 9.7677 17.9334C9.78541 17.9334 9.80296 17.9299 9.81934 17.9231C9.83572 17.9164 9.8506 17.9065 9.86315 17.8939C9.87569 17.8814 9.88564 17.8666 9.89244 17.8502C9.89924 17.8338 9.90275 17.8163 9.90276 17.7986C9.90278 17.7809 9.89931 17.7633 9.89255 17.7469C9.88578 17.7305 9.87586 17.7157 9.86334 17.7031ZM8.39108 16.5871C8.45592 16.532 8.51686 16.4742 8.57936 16.4164L7.48248 15.3203C7.47019 15.3069 7.45532 15.2962 7.43877 15.2887C7.42222 15.2813 7.40433 15.2772 7.38618 15.2768C7.36802 15.2764 7.34998 15.2797 7.33312 15.2865C7.31627 15.2932 7.30096 15.3033 7.2881 15.3162C7.27525 15.329 7.26512 15.3443 7.25833 15.3611C7.25153 15.378 7.24821 15.396 7.24856 15.4141C7.24891 15.4323 7.25292 15.4502 7.26037 15.4668C7.26781 15.4833 7.27852 15.4982 7.29186 15.5105L8.38092 16.5996C8.38561 16.5953 8.38678 16.5918 8.39108 16.5871ZM7.73912 14.875C7.75146 14.8623 7.76622 14.8522 7.78252 14.8453C7.79883 14.8385 7.81635 14.8349 7.83404 14.8349C7.85174 14.8349 7.86926 14.8385 7.88556 14.8453C7.90187 14.8522 7.91663 14.8623 7.92897 14.875L10.311 17.2562C10.3362 17.2816 10.3503 17.3158 10.3503 17.3516C10.3503 17.3873 10.3362 17.4215 10.311 17.4469C10.2985 17.4595 10.2837 17.4695 10.2673 17.4763C10.251 17.4832 10.2334 17.4867 10.2157 17.4867C10.198 17.4867 10.1804 17.4832 10.164 17.4763C10.1477 17.4695 10.1328 17.4595 10.1204 17.4469L7.73912 15.0648C7.72644 15.0525 7.71635 15.0377 7.70947 15.0214C7.70258 15.0051 7.69903 14.9876 7.69903 14.9699C7.69903 14.9522 7.70258 14.9347 7.70947 14.9184C7.71635 14.9021 7.72644 14.8873 7.73912 14.875Z" fill="#231F20"/>
<path d="M6.85793 15.7461C6.87045 15.7336 6.88531 15.7236 6.90166 15.7169C6.91801 15.7101 6.93554 15.7066 6.95324 15.7066C6.97095 15.7066 6.98848 15.7101 7.00483 15.7169C7.02118 15.7236 7.03604 15.7336 7.04856 15.7461L9.42942 18.1273C9.44193 18.1398 9.45186 18.1547 9.45864 18.1711C9.46541 18.1874 9.4689 18.2049 9.4689 18.2226C9.4689 18.2403 9.46541 18.2579 9.45864 18.2742C9.45186 18.2906 9.44193 18.3054 9.42942 18.318C9.4169 18.3305 9.40204 18.3404 9.38569 18.3472C9.36933 18.354 9.35181 18.3574 9.3341 18.3574C9.3164 18.3574 9.29888 18.354 9.28252 18.3472C9.26617 18.3404 9.25131 18.3305 9.23879 18.318L6.85793 15.9367C6.84532 15.9242 6.8353 15.9094 6.82847 15.893C6.82163 15.8767 6.81812 15.8591 6.81812 15.8414C6.81812 15.8237 6.82163 15.8061 6.82847 15.7897C6.8353 15.7734 6.84532 15.7585 6.85793 15.7461ZM9.22668 16.1836C9.15814 16.2384 9.09707 16.302 9.04504 16.3726L10.1193 17.4469C10.1445 17.4721 10.1788 17.4863 10.2146 17.4863C10.2503 17.4863 10.2846 17.4721 10.3099 17.4469C10.3352 17.4216 10.3494 17.3873 10.3494 17.3516C10.3494 17.3158 10.3352 17.2815 10.3099 17.2562L9.23059 16.1777L9.22668 16.1836ZM7.73918 15.0648L8.84504 16.1719C8.90246 16.1016 8.96535 16.0383 9.0345 15.9805L7.92903 14.875C7.91669 14.8623 7.90193 14.8522 7.88562 14.8453C7.86932 14.8384 7.8518 14.8349 7.8341 14.8349C7.81641 14.8349 7.79889 14.8384 7.78258 14.8453C7.76628 14.8522 7.75152 14.8623 7.73918 14.875C7.7265 14.8873 7.71641 14.9021 7.70953 14.9184C7.70264 14.9347 7.69909 14.9522 7.69909 14.9699C7.69909 14.9876 7.70264 15.0051 7.70953 15.0214C7.71641 15.0377 7.7265 15.0525 7.73918 15.0648Z" fill="#231F20"/>
</svg>
