<svg width="25" height="25" viewBox="0 0 25 25" fill="none" xmlns="http://www.w3.org/2000/svg">
<g clip-path="url(#clip0_75_7766)">
<path d="M22.2222 3.47223H4.51392L13.1945 9.37501H25V6.25001C25 5.51329 24.7074 4.80676 24.1864 4.28582C23.6655 3.76489 22.959 3.47223 22.2222 3.47223Z" fill="#DE3830"/>
<path d="M4.51392 21.5278H22.2222C22.959 21.5278 23.6655 21.2351 24.1864 20.7142C24.7074 20.1933 25 19.4867 25 18.75V15.625H13.1945L4.51392 21.5278Z" fill="#002395"/>
<path d="M0 7.63889V17.3611L7.29167 12.5L0 7.63889Z" fill="#141414"/>
<path d="M0 6.25V7.63889L7.29167 12.5L0 17.3611V18.75L9.375 12.5L0 6.25Z" fill="#FFB611"/>
<path d="M2.45903 3.49167C1.7822 3.56985 1.15771 3.89406 0.704321 4.40263C0.250932 4.91121 0.000268723 5.56867 0 6.25L9.375 12.5L0 18.75C0.000268723 19.4313 0.250932 20.0888 0.704321 20.5974C1.15771 21.1059 1.7822 21.4302 2.45903 21.5083L12.8472 14.2361H25V10.7639H12.8472L2.45903 3.49167Z" fill="#007A4D"/>
<path d="M4.51385 3.47223H2.77773C2.6694 3.47223 2.56385 3.47987 2.45898 3.49167L12.8472 10.7639H25V9.37501H13.1944L4.51385 3.47223ZM2.45898 21.5083C2.56385 21.5201 2.6694 21.5278 2.77773 21.5278H4.51385L13.1944 15.625H25V14.2361H12.8472L2.45898 21.5083Z" fill="#EEEEEE"/>
</g>
<defs>
<clipPath id="clip0_75_7766">
<rect width="25" height="25" fill="white"/>
</clipPath>
</defs>
</svg>
