<svg width="147" height="147" viewBox="0 0 147 147" fill="none" xmlns="http://www.w3.org/2000/svg">
<rect x="0.0732988" y="0.0732988" width="146.451" height="146.451" stroke="#DFDDEA" stroke-width="0.146598"/>
<path d="M29.8288 15.8896C29.8083 22.0643 26.0027 27.0633 21.3086 27.0633C26.0144 27.0633 29.8288 32.0872 29.8288 38.2839C29.8288 32.1033 33.6243 27.0897 38.3125 27.0633C33.6345 27.0355 29.8479 22.0482 29.8288 15.8896Z" fill="#75DDF9"/>
<path d="M55.8282 8.42871C55.8179 11.6641 53.8227 14.2838 51.3643 14.2838C53.8286 14.2838 55.8282 16.9226 55.8282 20.1624C55.8282 16.924 57.816 14.2985 60.273 14.2838C57.8234 14.2692 55.8384 11.6568 55.8282 8.42871Z" fill="#75DDF9"/>
<path d="M48.9526 47.9805C48.9364 52.9487 45.874 56.9698 42.0977 56.9698C45.8828 56.9698 48.9526 61.0115 48.9526 65.9973C48.9526 61.0247 52.0062 56.9904 55.7781 56.9698C52.015 56.9478 48.9658 52.9355 48.9526 47.9805Z" fill="#75DDF9"/>
<path d="M29.2416 16.659C29.6814 19.1907 30.152 21.8324 31.64 23.9889C32.2414 24.8869 33.0134 25.6579 33.9122 26.2582C34.9956 26.9619 36.2211 27.214 37.4804 27.406V26.481C35.1877 27.0838 33.1849 28.484 31.8313 30.4302C30.4778 32.3765 29.8621 34.7414 30.0948 37.1005C30.1564 37.7089 31.121 37.7163 31.0536 37.1005C30.824 34.9537 31.372 32.7956 32.5981 31.0184C33.8242 29.2411 35.647 27.9626 37.7355 27.4148C38.1636 27.302 38.2193 26.5646 37.7355 26.4898C36.5627 26.311 35.4105 26.0984 34.396 25.4387C33.5132 24.8397 32.7717 24.0552 32.2234 23.1401C30.9686 21.1185 30.5669 18.7172 30.1711 16.4112C30.0655 15.8043 29.1449 16.0609 29.246 16.6663L29.2416 16.659Z" fill="#004449"/>
<path d="M91.6985 47.9879C91.6985 47.9879 88.8633 30.4812 86.8608 28.5681C84.8582 26.655 69.1635 21.7337 67.0232 21.077C64.8828 20.4202 63.7086 21.0697 63.4696 22.6632C63.2307 24.2567 65.0602 25.277 65.0602 25.277C65.0602 25.277 62.096 23.7421 60.8573 25.6919C59.6185 27.6416 62.8187 29.9593 62.8187 29.9593C62.8187 29.9593 61.1079 29.1574 60.1301 30.9122C59.1523 32.667 61.8747 34.7062 61.8747 34.7062C61.8747 34.7062 60.0261 33.9732 59.1773 35.5066C58.3285 37.04 63.9387 40.916 66.903 42.4509C66.9499 44.6587 70.1281 57.1679 70.1281 57.1679C70.1281 57.1679 85.5956 51.6499 91.6985 47.9879Z" fill="#FC92C3"/>
<path d="M62.4348 30.2336C63.3554 31.2011 64.6689 31.896 65.7787 32.6261C67.0062 33.4343 68.2488 34.2162 69.5066 34.9716C70.0358 35.2927 70.5182 34.4629 69.9904 34.1434C68.8118 33.4289 67.6458 32.696 66.4926 31.9444C65.3784 31.2114 64.0327 30.5165 63.1135 29.5505C62.6869 29.1019 62.0096 29.7806 62.4348 30.2292V30.2336Z" fill="#004449"/>
<path d="M61.4463 34.9942C63.2734 35.9475 65.024 37.0405 66.6828 38.2634C67.1797 38.6313 67.6591 37.7986 67.1665 37.4351C65.5082 36.2108 63.7574 35.1169 61.9301 34.163C61.3833 33.8698 60.9039 34.7054 61.4463 34.9913V34.9942Z" fill="#004449"/>
<path d="M70.57 35.8809C69.1696 37.263 68.0203 38.8782 67.1734 40.6541C66.9095 41.2097 67.7363 41.6964 68.0016 41.1394C68.8081 39.4351 69.9065 37.8852 71.2473 36.5597C71.6871 36.1199 71.0098 35.4455 70.57 35.8809Z" fill="#004449"/>
<path d="M64.7463 25.6339C65.6595 26.3267 66.6185 26.957 67.6167 27.5206C68.1547 27.8241 68.6428 26.9958 68.1004 26.6924C67.105 26.1281 66.1485 25.4978 65.2374 24.8056C64.7448 24.4333 64.2669 25.266 64.7521 25.6339H64.7463Z" fill="#004449"/>
<path d="M70.6429 44.9813C69.0816 46.3623 41.5711 42.4672 40.7941 41.117C40.0172 39.7669 42.0989 25.7052 43.0649 23.581C44.031 21.4568 72.339 24.5383 72.9137 27.4453C73.4883 30.3524 72.2056 43.6004 70.6429 44.9813Z" fill="#F9CE46"/>
<path d="M83.1491 31.1039C82.831 30.9573 70.7586 26.036 67.6097 27.5152C64.4608 28.9944 70.4918 34.1048 73.0485 35.1544C71.2615 39.309 69.3909 44.456 71.3392 48.9141C73.2875 53.3721 94.6643 36.6512 83.1491 31.1039Z" fill="#FC92C3"/>
<path d="M81.1742 29.8734C79.9486 29.287 78.6117 28.9352 77.3187 28.5291C75.9128 28.0893 74.5011 27.6583 73.0761 27.2816C71.0472 26.7435 67.9995 25.6778 66.4279 27.7082C64.8564 29.7385 67.2855 31.829 68.8248 32.9036C69.8935 33.6498 71.0238 34.2875 72.1086 35.0058C72.4018 35.1964 72.4326 35.2052 72.3241 35.5306C72.2156 35.8561 72.0089 36.1566 71.8726 36.4586C71.6072 37.045 71.3683 37.6445 71.1601 38.2529C70.187 41.1514 69.9038 44.2371 70.3333 47.2643C70.4168 47.8727 71.3419 47.6132 71.2583 47.0092C70.9106 44.4518 71.1003 41.8499 71.8154 39.37C72.1655 38.2157 72.6128 37.0932 73.1524 36.0144C73.4807 35.3327 73.4778 34.8137 72.8386 34.3432C71.037 33.015 68.6503 32.1603 67.331 30.2531C66.5555 29.1228 66.9953 27.9178 68.3366 27.5616C69.5959 27.2332 71.0501 27.7463 72.2684 28.0571C73.6523 28.4089 75.02 28.812 76.3834 29.2298C77.8142 29.6696 79.3358 30.0435 80.6904 30.6958C81.2445 30.9612 81.7312 30.1329 81.1742 29.8675V29.8734Z" fill="#004449"/>
<path d="M69.3016 29.2908C69.7571 29.7289 70.3676 29.9687 70.9996 29.9577C71.6315 29.9467 72.2333 29.6858 72.6733 29.2321C73.1131 28.7923 72.4329 28.1165 71.9946 28.5534C71.8669 28.6907 71.7132 28.8013 71.5424 28.8787C71.3716 28.956 71.1872 28.9987 70.9997 29.0042C70.8123 29.0096 70.6257 28.9778 70.4507 28.9104C70.2757 28.8431 70.1158 28.7417 69.9803 28.612C69.5259 28.1972 68.8457 28.873 69.303 29.2908H69.3016Z" fill="white"/>
<path d="M91.7076 48.0049C91.7076 48.0049 99.5066 75.9962 94.3068 109.363C88.2406 110.75 67.5292 109.363 67.5292 109.363C67.5292 109.363 65.71 80.6756 69.781 55.6309C75.1553 53.7251 91.7076 48.0049 91.7076 48.0049Z" fill="#FCBC04"/>
<path d="M43.5054 25.0948C46.8493 28.7011 49.4793 32.8645 52.1137 36.9942C52.7675 38.0203 53.4228 39.0465 54.0913 40.0625C54.5809 40.8072 55.1086 41.8128 56.0527 42.043C57.0232 42.279 58.1051 41.4566 58.9041 41.0168C59.9449 40.4304 60.9564 39.7766 61.9298 39.0861C64.1203 37.508 66.1946 35.7747 68.1368 33.8995C68.5854 33.4729 67.9066 32.7956 67.458 33.2207C65.851 34.77 64.1555 36.2248 62.3799 37.5776C61.49 38.2432 60.5738 38.8765 59.6312 39.4658C59.1963 39.7375 58.7565 39.9994 58.3118 40.2516C57.8119 40.5316 57.139 41.0315 56.5629 41.0989C55.591 41.2147 54.8037 39.4028 54.3551 38.7108C53.7394 37.7638 53.1325 36.8051 52.5256 35.8566C51.3352 33.9874 50.1405 32.1213 48.8709 30.3064C47.4466 28.2401 45.8822 26.274 44.1886 24.4219C43.7679 23.969 43.0906 24.6477 43.5098 25.1007L43.5054 25.0948Z" fill="#549080"/>
<path d="M42.1413 40.3177C44.2787 38.8039 46.3902 37.2548 48.4758 35.6706C48.9611 35.3026 48.4831 34.4685 47.9906 34.8423C45.904 36.4256 43.793 37.9746 41.6576 39.4894C41.1577 39.8442 41.637 40.6769 42.1413 40.3177Z" fill="#549080"/>
<path d="M66.5812 38.8501L68.9136 41.8187C69.2948 42.3039 69.9691 41.6208 69.5909 41.1399L67.2585 38.1713C66.8774 37.6861 66.203 38.3692 66.5812 38.8501Z" fill="#549080"/>
<path d="M56.5027 36.0396C55.8518 36.4588 55.7492 37.463 56.3444 37.9849C56.9865 38.5464 57.9027 38.155 58.1988 37.4308C58.2718 37.2647 58.3036 37.0834 58.2913 36.9025C58.279 36.7215 58.2232 36.5461 58.1285 36.3914C57.9991 36.1895 57.8042 36.0383 57.5765 35.963C57.3489 35.8877 57.1022 35.893 56.878 35.978C56.3928 36.1847 56.277 36.8107 56.491 37.2549C56.7461 37.7885 57.3808 37.8061 57.6916 37.3164C58.0244 36.7931 57.1932 36.3122 56.8633 36.8327L56.9088 36.7858L57.1507 36.7213C57.5905 36.6802 57.287 36.8972 57.3515 36.7564C57.2049 36.8341 57.1712 36.8708 57.2621 36.8664C57.2987 36.8664 57.3105 36.8752 57.3017 36.8854C57.2929 36.8957 57.3559 36.9514 57.3266 36.9118C57.3413 36.9324 57.3354 36.9397 57.3354 36.9558C57.329 37.0231 57.3067 37.0878 57.2702 37.1447C57.2338 37.2016 57.1842 37.2489 57.1258 37.2827C57.1095 37.2931 57.0909 37.2992 57.0717 37.3005C57.0525 37.3018 57.0333 37.2982 57.0158 37.2901C56.9938 37.2796 56.9742 37.2644 56.9585 37.2457C56.9429 37.227 56.9314 37.2051 56.9249 37.1816C56.9037 37.1289 56.8983 37.0713 56.9092 37.0156C56.9201 36.9599 56.947 36.9086 56.9865 36.8679C57.504 36.5351 57.0231 35.7039 56.5027 36.0396Z" fill="#004449"/>
<path d="M132.873 134.44C132.873 134.44 114.856 133.267 106.222 133.16C97.9051 138.598 94.0686 137.532 94.0686 137.532L91.402 134.44H55.5824L53.5564 138.171L45.9875 134.44H16.3514C16.3514 134.44 13.1526 123.542 16.3514 119.495C19.5501 115.447 129.671 116.847 132.873 119.495C136.075 122.142 132.873 134.44 132.873 134.44Z" fill="#549080"/>
<path d="M132.752 134.17C127.768 134.146 91.7049 119.243 90.2594 116.327C88.8139 113.412 92.8307 104.651 95.7231 103.315C98.6155 101.98 137.364 118.41 138.216 121.158C139.068 123.905 137.741 134.192 132.752 134.17Z" fill="#549080"/>
<path d="M138.763 111.654C137.363 114.369 118.598 126.236 116.495 125.491C114.391 124.747 110.367 117.949 110.389 115.669C110.411 113.39 130.813 100.851 132.657 101.832C134.501 102.813 140.163 108.94 138.763 111.654Z" fill="#549080"/>
<path d="M95.9644 103.726C95.8295 103.785 96.111 103.726 96.0289 103.726C96.1652 103.726 96.2986 103.717 96.435 103.726C96.7578 103.751 97.0783 103.8 97.3937 103.873C98.4544 104.097 99.503 104.376 100.535 104.707C103.601 105.649 106.61 106.774 109.599 107.932C116.636 110.657 123.605 113.62 130.378 116.949C132.561 118.022 134.81 119.098 136.815 120.49C137.072 120.655 137.312 120.844 137.534 121.054C137.582 121.101 137.776 121.327 137.698 121.221C137.83 121.401 137.732 121.184 137.792 121.442C138.151 122.955 137.982 124.646 137.743 126.163C137.314 128.884 136.015 134.092 132.329 133.672C131.198 133.543 130.047 133.179 128.958 132.852C127.198 132.326 125.458 131.729 123.729 131.112C114.842 127.932 106.049 124.316 97.574 120.185C96.759 119.786 95.9483 119.378 95.142 118.961C94.5952 118.676 94.1158 119.504 94.6582 119.79C98.6999 121.892 102.876 123.748 107.062 125.534C111.691 127.514 116.363 129.406 121.085 131.157C124.434 132.399 127.864 133.754 131.377 134.465C132.621 134.717 133.831 134.72 134.939 133.993C136.48 132.981 137.352 131.185 137.924 129.492C138.559 127.585 138.897 125.592 138.928 123.583C138.944 122.634 139.035 121.272 138.353 120.504C137.862 119.956 137.18 119.548 136.562 119.163C135.521 118.515 134.44 117.933 133.354 117.366C126.638 113.86 119.624 110.883 112.587 108.07C109.227 106.727 105.844 105.431 102.41 104.289C101.188 103.884 99.9577 103.496 98.7087 103.179C97.9215 102.98 97.0844 102.76 96.2664 102.756C95.9966 102.748 95.7282 102.798 95.4792 102.902C94.9148 103.148 95.4029 103.975 95.9644 103.73V103.726Z" fill="#004449"/>
<path d="M111.596 106.797C108.833 110.715 77.2044 124.368 74.1053 122.604C71.0062 120.841 66.2917 108.959 66.8282 105.344C67.3648 101.729 101.682 87.4721 104.319 89.5362C106.956 91.6003 114.36 102.878 111.596 106.797Z" fill="#549080"/>
<path d="M79.4922 132.002C74.6999 132.175 44.6826 115.272 44.2106 111.738C43.7385 108.203 50.3383 97.257 53.5386 95.4949C56.7388 93.7328 88.8686 112.411 88.8202 115.759C88.7719 119.107 84.283 131.829 79.4922 132.002Z" fill="#549080"/>
<path d="M49.8946 117.943C47.4933 121.495 19.4638 134.266 16.6623 132.749C13.8609 131.232 9.43361 120.687 9.84848 117.446C10.2634 114.204 40.6853 100.847 43.0792 102.639C45.4732 104.432 52.2944 114.391 49.8946 117.943Z" fill="#549080"/>
<path d="M26.9269 133.029C24.7573 134.77 5.94882 135.562 4.7042 133.737C3.45959 131.911 3.34084 123.491 4.31132 121.402C5.2818 119.313 25.5826 118.795 26.5355 120.694C27.4884 122.592 29.0951 131.288 26.9269 133.029Z" fill="#549080"/>
<path d="M20.8953 132.795C20.8704 133.052 20.9276 133.7 20.7883 133.902C20.6491 134.104 20.4101 134.01 20.1389 133.993C19.4514 133.95 18.7624 134.056 18.0777 134.107C16.4241 134.232 14.7632 134.279 13.1051 134.296C11.5087 134.312 9.90932 134.296 8.31727 134.159C7.45381 134.084 5.7694 134.2 5.1317 133.508C4.74762 133.093 4.64793 132.298 4.54531 131.773C4.37908 130.881 4.27037 129.978 4.21986 129.072C4.07315 127.171 4.11144 125.262 4.33421 123.369C4.40311 122.834 4.43683 121.869 4.87369 121.494C5.26511 121.157 5.97317 121.054 6.45841 120.932C7.27496 120.739 8.10617 120.613 8.93738 120.501C9.54576 120.419 9.28628 119.494 8.6823 119.576C7.32627 119.758 5.69757 119.892 4.4896 120.603C3.84604 120.982 3.67745 121.636 3.53672 122.328C3.10426 124.464 3.12038 126.726 3.25085 128.897C3.30279 129.948 3.42622 130.993 3.62028 132.027C3.75515 132.707 3.91347 133.521 4.36646 134.079C5.07893 134.959 6.46427 134.943 7.49192 135.04C9.3115 135.208 11.1386 135.281 12.9659 135.259C15.1546 135.24 17.3213 135.069 19.5041 134.955C20.048 134.925 20.7869 135.15 21.2912 134.894C21.9391 134.568 21.7984 133.39 21.8556 132.798C21.9142 132.184 20.9555 132.188 20.8968 132.798L20.8953 132.795Z" fill="#004449"/>
<path d="M49.4788 117.699C48.7751 118.715 47.1728 119.589 46.0528 120.269C43.9301 121.562 41.7238 122.72 39.5013 123.833C34.432 126.375 29.2278 128.713 23.896 130.645C22.065 131.307 20.1812 131.988 18.2549 132.305C17.8005 132.38 17.2434 132.452 16.9106 132.333C16.9561 132.349 16.7553 132.243 16.6512 132.169C16.4524 132.019 16.2674 131.853 16.0985 131.67C15.6761 131.216 15.2949 130.726 14.9594 130.204C13.2003 127.565 11.9058 124.535 11.0013 121.508C10.6495 120.335 10.2874 119.08 10.3094 117.843C10.3255 116.915 11.4587 116.25 12.1404 115.773C13.1665 115.056 14.244 114.416 15.3289 113.798C19.8617 111.22 24.6613 109.052 29.477 107.055C31.8856 106.058 34.3147 105.102 36.7893 104.283C38.4385 103.737 40.3296 102.873 42.0903 102.902C43.2 102.921 43.6647 103.754 44.254 104.594C44.6059 105.095 45.4371 104.616 45.0823 104.108C44.5692 103.375 44.0385 102.453 43.1634 102.122C42.382 101.829 41.4863 101.94 40.6873 102.1C38.5543 102.528 36.4184 103.365 34.3836 104.105C29.2067 106.016 24.1394 108.212 19.2049 110.682C16.7655 111.89 14.3408 113.159 12.07 114.666C11.2446 115.215 10.2214 115.852 9.65699 116.689C9.30663 117.211 9.30956 117.827 9.3638 118.431C9.62034 121.57 10.9837 124.735 12.3471 127.535C13.0375 128.951 13.813 130.352 14.7762 131.6C15.2761 132.245 15.9372 133.091 16.7758 133.297C17.3622 133.444 18.0307 133.321 18.617 133.217C19.5349 133.042 20.4411 132.811 21.3306 132.525C26.8588 130.832 32.211 128.42 37.4182 125.928C40.0012 124.692 42.5623 123.399 45.0501 121.982C46.6626 121.059 48.4086 120.108 49.7661 118.814C49.9679 118.626 50.1492 118.418 50.3071 118.192C50.6604 117.683 49.8292 117.204 49.4788 117.708V117.699Z" fill="#004449"/>
<path d="M87.0685 121.051C86.2872 123.272 85.3387 125.449 84.1029 127.459C83.1793 128.961 81.879 130.92 80.0685 131.425C78.6568 131.82 76.88 130.939 75.5562 130.415C70.2377 128.315 65.1478 125.519 60.1957 122.688C57.5467 121.174 54.9285 119.61 52.3689 117.943C50.3927 116.662 48.4107 115.342 46.6091 113.821C46.0432 113.344 45.4568 112.841 44.9965 112.252C44.649 111.799 44.608 111.496 44.6945 110.807C44.8675 109.437 45.4348 108.089 46.0007 106.848C46.7394 105.243 47.5822 103.687 48.5236 102.191C49.3984 100.744 50.3784 99.3641 51.4556 98.0613C52.042 97.365 52.9729 96.1013 53.8935 95.8741C54.3494 95.7627 54.9329 95.9444 55.3712 96.0544C56.1824 96.2708 56.9798 96.5356 57.7593 96.8475C60.0183 97.7271 62.207 98.7855 64.365 99.882C65.6355 100.527 66.8938 101.19 68.1399 101.871C68.6823 102.165 69.166 101.338 68.6236 101.043C66.0963 99.6695 63.5396 98.3442 60.9199 97.1553C59.1373 96.3446 57.2887 95.5002 55.3697 95.0663C54.197 94.8024 53.4288 94.8831 52.4949 95.6439C51.35 96.5777 50.4133 97.7798 49.5395 98.9629C47.4197 101.835 45.5272 105.047 44.3353 108.421C43.9718 109.448 43.4983 110.799 43.7489 111.912C43.875 112.457 44.2869 112.923 44.6593 113.321C46.0813 114.848 47.8845 116.066 49.5909 117.245C52.1387 119.004 54.776 120.631 57.4426 122.203C62.8242 125.375 68.3554 128.423 74.1152 130.852C75.7028 131.522 77.4869 132.383 79.2461 132.465C80.7209 132.541 82.0226 131.562 82.9829 130.543C84.5734 128.854 85.7096 126.731 86.6566 124.634C87.1501 123.54 87.5948 122.427 87.9906 121.294C88.1959 120.708 87.2694 120.46 87.0656 121.039L87.0685 121.051Z" fill="#004449"/>
<path d="M111.181 106.555C110.642 107.301 109.466 108.021 108.604 108.562C106.992 109.588 105.303 110.487 103.605 111.359C99.2176 113.615 94.7024 115.635 90.1374 117.5C86.191 119.112 82.1727 120.696 78.0358 121.751C76.9744 122.024 75.7166 122.414 74.6039 122.258C74.6142 122.258 74.3107 122.17 74.3474 122.187C74.0192 121.993 73.7263 121.745 73.481 121.454C72.7216 120.643 72.1279 119.677 71.5825 118.717C70.2035 116.252 69.0919 113.648 68.2665 110.947C67.8851 109.779 67.5911 108.583 67.3869 107.371C67.2887 106.744 67.123 105.916 67.3341 105.296C67.3033 105.388 67.5056 105.035 67.491 105.054C67.625 104.888 67.7721 104.734 67.9308 104.592C68.3558 104.211 68.8086 103.862 69.2853 103.548C70.7159 102.601 72.1989 101.735 73.7272 100.955C77.832 98.7926 82.098 96.9029 86.3962 95.1467C90.4159 93.5033 94.4972 91.9406 98.6752 90.7488C100.011 90.3661 101.387 89.9703 102.78 89.8384C103.16 89.8032 103.648 89.7856 103.887 89.853C104.05 89.9 103.976 89.8531 104.129 89.9894C104.429 90.2563 104.714 90.5397 104.983 90.8382C106.613 92.6384 107.956 94.7406 109.123 96.8648C110.319 99.0462 111.541 101.532 111.709 104.058C111.768 104.928 111.684 105.809 111.184 106.551C110.837 107.064 111.667 107.543 112.013 107.034C113.232 105.234 112.599 102.696 111.954 100.807C111.038 98.1402 109.638 95.6246 108.063 93.2952C107.409 92.3116 106.697 91.3678 105.93 90.4688C105.507 89.9777 105.017 89.3429 104.429 89.0394C103.588 88.5996 102.337 88.9119 101.469 89.0761C97.5215 89.8237 93.6689 91.3044 89.9292 92.741C85.2572 94.5251 80.6437 96.4895 76.149 98.6782C74.2858 99.5857 72.4372 100.53 70.6502 101.579C69.4525 102.283 68.2049 103.025 67.1949 103.989C66.2097 104.929 66.2332 105.947 66.4106 107.26C66.7712 109.94 67.7109 112.565 68.7488 115.049C69.7427 117.428 70.8818 119.907 72.575 121.882C73.4546 122.908 74.2506 123.348 75.5788 123.201C77.1254 123.054 78.6456 122.615 80.1233 122.162C82.2666 121.517 84.3746 120.762 86.4681 119.963C91.3546 118.111 96.1533 116.049 100.864 113.778C102.916 112.794 104.945 111.771 106.929 110.658C108.337 109.868 109.757 109.046 111.017 108.031C111.392 107.743 111.726 107.406 112.011 107.028C112.37 106.537 111.539 106.058 111.181 106.555Z" fill="#004449"/>
<path d="M132.424 102.283C134.765 104.19 136.582 106.662 137.702 109.467C138.029 110.302 138.392 111.243 137.768 112.029C137.275 112.648 136.547 113.145 135.921 113.618C134.641 114.581 133.287 115.441 131.873 116.192C131.328 116.486 131.812 117.312 132.357 117.021C133.997 116.146 135.557 115.126 137.016 113.974C137.637 113.483 138.356 112.979 138.763 112.283C139.191 111.55 139.125 110.713 138.883 109.927C137.887 106.683 135.701 103.739 133.103 101.599C132.63 101.209 131.948 101.884 132.424 102.277V102.283Z" fill="#004449"/>
<path d="M131.302 103.405C131.302 105.744 131.155 108.14 130.66 110.43C130.513 111.096 130.179 111.163 129.585 111.254C129.019 111.341 128.454 111.423 127.888 111.508L124.353 112.038C123.745 112.129 124.003 113.054 124.608 112.964L128.851 112.327C129.785 112.181 130.965 112.211 131.424 111.223C131.668 110.694 131.707 110.039 131.793 109.464C131.891 108.862 131.971 108.257 132.034 107.649C132.185 106.237 132.261 104.818 132.261 103.398C132.261 102.781 131.302 102.779 131.302 103.398V103.405Z" fill="white"/>
<path d="M128.457 108.405C128.279 108.419 128.109 108.488 127.971 108.602C127.833 108.716 127.735 108.87 127.688 109.043C127.642 109.216 127.651 109.399 127.713 109.567C127.776 109.735 127.888 109.879 128.036 109.98C128.201 110.072 128.392 110.104 128.577 110.07C128.763 110.036 128.93 109.938 129.051 109.794C129.189 109.638 129.271 109.44 129.285 109.232C129.29 109.026 129.217 108.826 129.079 108.672C128.923 108.473 128.561 108.498 128.4 108.672C128.314 108.764 128.266 108.885 128.266 109.011C128.266 109.137 128.314 109.259 128.4 109.351C128.353 109.304 128.327 109.24 128.327 109.173C128.327 109.273 128.362 109.066 128.327 109.163C128.291 109.26 128.356 109.091 128.334 109.147C128.299 109.247 128.334 109.128 128.347 109.138C128.252 109.213 128.36 109.149 128.347 109.138C128.272 109.193 128.441 109.115 128.347 109.138L128.417 109.128C128.491 109.143 128.508 109.146 128.472 109.137C128.435 109.128 128.451 109.137 128.517 109.157C128.573 109.205 128.588 109.217 128.561 109.193C128.523 109.151 128.618 109.289 128.582 109.219C128.64 109.336 128.602 109.276 128.595 109.235C128.605 109.294 128.595 109.332 128.605 109.254C128.605 109.288 128.589 109.365 128.605 109.286C128.621 109.207 128.605 109.275 128.59 109.311C128.607 109.272 128.661 109.229 128.574 109.322C128.636 109.257 128.481 109.373 128.558 109.332L128.491 109.36C128.541 109.348 128.525 109.349 128.444 109.36C128.567 109.353 128.682 109.299 128.767 109.21C128.851 109.121 128.898 109.002 128.898 108.88C128.898 108.757 128.851 108.638 128.767 108.549C128.682 108.46 128.567 108.406 128.444 108.399L128.457 108.405Z" fill="#004449"/>
<path d="M110.18 111.063C112.715 115.337 114.961 119.778 116.901 124.353C117.203 125.063 117.534 125.891 118.287 126.23C119.2 126.642 120.239 125.964 121.087 125.662C123.407 124.837 125.803 124.328 128.233 123.954C131.111 123.515 133.997 123.122 136.882 122.71C137.491 122.622 137.231 121.697 136.627 121.783C133.603 122.223 130.571 122.616 127.554 123.095C126.068 123.32 124.595 123.626 123.142 124.012C122.45 124.207 121.766 124.42 121.089 124.649C120.481 124.859 119.879 125.167 119.258 125.334C118.512 125.533 118.213 124.95 117.939 124.36C117.646 123.714 117.382 123.05 117.095 122.399C116.499 121.046 115.875 119.706 115.224 118.378C113.923 115.723 112.517 113.124 111.006 110.579C110.691 110.048 109.862 110.53 110.178 111.063H110.18Z" fill="white"/>
<path d="M119.683 120.573C119.483 120.698 119.328 120.882 119.238 121.1C119.149 121.318 119.13 121.559 119.185 121.788C119.247 122.001 119.38 122.186 119.561 122.314C119.743 122.442 119.962 122.504 120.183 122.492C120.297 122.489 120.409 122.464 120.514 122.417C120.618 122.371 120.712 122.305 120.791 122.222C120.869 122.139 120.931 122.042 120.972 121.936C121.012 121.829 121.032 121.716 121.029 121.602C121.026 121.37 120.932 121.148 120.768 120.984C120.603 120.819 120.382 120.726 120.15 120.722C120.022 120.722 119.9 120.773 119.811 120.863C119.721 120.953 119.67 121.075 119.67 121.202C119.67 121.329 119.721 121.451 119.811 121.541C119.9 121.631 120.022 121.681 120.15 121.681C120.24 121.681 120.116 121.665 120.091 121.658L120.054 121.625C120.086 121.659 120.091 121.662 120.069 121.634C120.047 121.606 120.05 121.611 120.076 121.65L120.059 121.608C120.07 121.655 120.073 121.659 120.069 121.621C120.064 121.583 120.069 121.587 120.069 121.634L120.078 121.584C120.066 121.628 120.064 121.634 120.078 121.599C120.096 121.569 120.119 121.543 120.147 121.521C120.104 121.543 120.1 121.548 120.132 121.533C120.164 121.518 120.158 121.52 120.113 121.533H120.16C120.11 121.533 120.104 121.533 120.141 121.533L120.082 121.517C120.161 121.543 120.067 121.493 120.1 121.517C120.132 121.54 120.054 121.463 120.111 121.53C120.123 121.571 120.125 121.574 120.111 121.542C120.098 121.51 120.101 121.514 120.111 121.559C120.111 121.546 120.111 121.43 120.111 121.488C120.111 121.545 120.13 121.43 120.135 121.419C120.094 121.514 120.189 121.354 120.128 121.432C120.142 121.414 120.237 121.342 120.17 121.388C120.278 121.322 120.355 121.217 120.387 121.095C120.419 120.973 120.403 120.843 120.342 120.733C120.277 120.624 120.172 120.544 120.049 120.512C119.927 120.48 119.796 120.497 119.686 120.56L119.683 120.573Z" fill="#004449"/>
<path d="M66.8979 105.591C73.5816 107.74 80.3856 109.495 87.275 110.846C88.9853 111.181 90.7009 111.49 92.422 111.774C93.0348 111.876 93.7883 112.116 94.3908 111.858C94.9933 111.6 95.3437 110.923 95.6647 110.392C97.377 107.592 98.5043 104.381 99.7695 101.359C101.3 97.7201 102.766 94.0449 104.005 90.292C104.198 89.7056 103.272 89.452 103.078 90.0369C102.052 93.1638 100.86 96.238 99.6082 99.2828C98.3665 102.301 97.1644 105.377 95.7175 108.303C95.4112 108.931 95.0721 109.543 94.7016 110.135C94.445 110.539 94.2823 110.883 93.7956 110.967C93.3558 111.043 92.8325 110.876 92.4015 110.802C90.7273 110.524 89.0586 110.221 87.3952 109.894C84.2052 109.266 81.0338 108.552 77.881 107.752C74.2727 106.836 70.6967 105.81 67.153 104.673C66.5666 104.484 66.3115 105.406 66.8979 105.598V105.591Z" fill="white"/>
<path d="M91.1853 104.786C90.4612 105.384 90.1313 106.674 91.1546 107.173C91.3432 107.275 91.5582 107.317 91.7715 107.295C91.9847 107.272 92.1861 107.186 92.3493 107.047C92.7188 106.706 92.7789 106.048 92.6161 105.598C92.4417 105.117 91.9271 104.773 91.4126 104.943C90.898 105.113 90.7587 105.648 90.8995 106.116C91.0402 106.583 91.5753 107.095 92.0532 106.684C92.4813 106.315 92.449 105.569 92.2687 105.085C92.0561 104.512 91.1282 104.76 91.3437 105.34C91.3994 105.487 91.5269 105.887 91.3745 106.006L91.5856 105.883L91.5181 105.893L91.8875 105.941C91.8875 105.941 91.7996 105.759 91.8025 105.761C91.8055 105.762 91.697 105.868 91.6984 105.864C91.6896 105.886 91.7146 105.893 91.7087 105.918C91.6867 106.017 91.7585 106.154 91.7204 106.27C91.6955 106.346 91.7571 106.352 91.6559 106.347C91.6034 106.341 91.5546 106.317 91.5175 106.279C91.4805 106.241 91.4574 106.192 91.4522 106.139C91.417 105.868 91.6779 105.622 91.8641 105.469C91.9528 105.378 92.0025 105.257 92.0025 105.13C92.0025 105.003 91.9528 104.881 91.8641 104.79C91.7727 104.703 91.6512 104.654 91.5247 104.654C91.3983 104.654 91.2767 104.703 91.1853 104.79V104.786Z" fill="#004449"/>
<path d="M99.5696 104.697C103.203 105.719 106.932 106.367 110.698 106.629C111.314 106.671 111.311 105.713 110.698 105.669C107.018 105.411 103.374 104.774 99.8246 103.77C99.2295 103.603 98.9759 104.528 99.5696 104.697Z" fill="white"/>
<path d="M77.5366 119.999C79.5699 117.421 81.0139 114.417 83.2158 111.969C83.6278 111.51 82.952 110.83 82.5385 111.29C80.3308 113.743 78.8927 116.74 76.8579 119.321C76.4797 119.801 77.1511 120.485 77.5366 119.999Z" fill="white"/>
<path d="M86.7029 126.739C87.8977 129.111 89.1834 131.43 90.4705 133.758C91.2284 135.126 91.9673 136.76 93.3057 137.666C94.7057 138.613 96.3974 138.228 97.8619 137.666C100.201 136.76 102.482 135.711 104.692 134.523C107.112 133.223 109.553 131.815 111.522 129.874C111.962 129.435 111.284 128.762 110.845 129.196C109.247 130.77 107.326 131.946 105.387 133.044C103.337 134.206 101.219 135.247 99.0465 136.159C97.5951 136.767 95.5853 137.863 94.027 136.992C92.7765 136.292 92.0977 134.721 91.4336 133.523C90.1011 131.119 88.7685 128.715 87.5312 126.259C87.2527 125.708 86.4244 126.193 86.7029 126.745V126.739Z" fill="#004449"/>
<path d="M90.0734 126.767L94.7367 129.068L97.0691 130.218C97.8241 130.59 98.5996 131.097 99.4014 131.351C100.766 131.791 100.939 129.814 101.235 128.929C101.775 127.316 102.379 125.724 103.034 124.153C103.272 123.584 102.344 123.336 102.109 123.898C101.577 125.168 101.082 126.456 100.623 127.761C100.379 128.455 100.148 129.154 99.9277 129.855C99.7811 130.336 99.8544 130.454 99.3663 130.284C99.0555 130.153 98.753 130.004 98.4603 129.836L90.5572 125.938C90.0045 125.666 89.5178 126.494 90.0734 126.767Z" fill="white"/>
<path d="M97.5955 126.592C97.5312 126.694 97.4884 126.807 97.4697 126.926C97.451 127.045 97.4568 127.166 97.4867 127.282C97.5167 127.399 97.5701 127.508 97.6438 127.603C97.7175 127.697 97.8098 127.776 97.9151 127.834C98.3901 128.076 99.0454 127.787 99.1451 127.248C99.1748 127.126 99.1565 126.997 99.0941 126.888C99.0316 126.779 98.9297 126.698 98.8094 126.661C98.5748 126.607 98.2684 126.733 98.223 126.997C98.2197 127.018 98.2147 127.039 98.2083 127.06C98.2362 126.997 98.2376 126.987 98.2083 127.032C98.2508 126.979 98.2538 126.971 98.2171 127.007C98.2714 126.968 98.2758 126.96 98.2318 126.988C98.2919 126.966 98.3051 126.959 98.2699 126.971C98.2347 126.982 98.2494 126.979 98.3168 126.971C98.264 126.971 98.2743 126.971 98.3476 126.982C98.2977 126.968 98.3051 126.974 98.371 126.998C98.3271 126.971 98.3359 126.977 98.393 127.018C98.3593 126.979 98.3652 126.987 98.4106 127.041C98.3564 126.968 98.4429 127.132 98.4106 127.041C98.4004 126.988 98.4018 127 98.4106 127.075C98.4106 127.022 98.4106 127.032 98.4033 127.108C98.418 127.059 98.4121 127.069 98.3857 127.136C98.3952 127.118 98.4065 127.1 98.4194 127.084C98.4835 126.974 98.5015 126.843 98.4693 126.72C98.4372 126.597 98.3576 126.491 98.2479 126.427C98.1371 126.366 98.0072 126.35 97.8851 126.383C97.7629 126.415 97.6578 126.492 97.5911 126.6L97.5955 126.592Z" fill="#004449"/>
<path d="M110.974 94.2029L115.831 93.5183L116.973 93.357C117.109 93.338 117.464 93.2222 117.584 93.275C117.757 93.3497 117.801 93.6224 117.86 93.7778C118.113 94.4414 118.379 95.1001 118.657 95.7539C119.843 98.5433 121.249 101.234 122.863 103.799C123.192 104.321 124.021 103.84 123.692 103.315C121.835 100.371 120.257 97.26 118.978 94.0226C118.783 93.5242 118.65 92.734 118.143 92.4379C117.636 92.1417 116.823 92.4174 116.29 92.4921L110.719 93.2779C110.109 93.3629 110.369 94.2879 110.974 94.2029Z" fill="#004449"/>
<path d="M137.223 114.858C137.893 115.069 138.576 115.051 139.275 115.116C140.358 115.216 140.813 115.76 141.006 116.8C141.369 118.752 141.584 120.742 141.81 122.713C142.029 124.618 142.21 126.528 142.355 128.44C142.412 129.195 142.774 130.655 141.967 131.11C141.37 131.447 140.534 131.287 139.901 131.157C139.299 131.034 139.041 131.957 139.646 132.082C141.081 132.375 143.088 132.388 143.378 130.547C143.557 129.418 143.296 128.14 143.198 127.007C143.093 125.764 142.971 124.524 142.833 123.284C142.701 122.097 142.554 120.912 142.393 119.729C142.236 118.557 142.141 117.352 141.86 116.211C141.659 115.397 141.21 114.694 140.407 114.38C139.472 114.017 138.432 114.233 137.475 113.94C136.888 113.756 136.632 114.681 137.22 114.865L137.223 114.858Z" fill="#004449"/>
<path d="M57.5197 92.2407L61.1846 89.275C61.5702 88.9627 61.859 88.6446 62.3574 88.9437C62.6506 89.1211 62.9233 89.4245 63.171 89.6635C63.7299 90.2067 64.2377 90.8 64.6883 91.4358C65.0446 91.9343 65.8772 91.4549 65.5166 90.9506C64.9476 90.1403 64.2946 89.3924 63.5683 88.7194C63.0582 88.2547 62.3955 87.5627 61.6318 87.8002C61.3239 87.897 61.0864 88.1286 60.8387 88.3265C60.3989 88.6842 59.9503 89.0463 59.5061 89.4055L56.838 91.5634C56.3586 91.9519 57.0418 92.6262 57.5168 92.2407H57.5197Z" fill="#004449"/>
<path d="M53.7915 98.5829C55.8447 103.497 57.593 108.534 59.0265 113.663C59.3739 114.911 59.6788 116.17 60.0219 117.419C60.2623 118.299 60.5335 119.694 61.3163 120.273C62.1637 120.901 63.4567 120.111 64.2996 119.819L68.3516 118.418C68.9306 118.217 68.6814 117.29 68.0965 117.493L64.5855 118.708L62.8263 119.315C62.5536 119.41 62.1388 119.653 61.847 119.477C61.6682 119.369 61.4981 118.843 61.4424 118.705C60.5716 116.55 60.1773 114.16 59.5249 111.926C58.1753 107.307 56.569 102.768 54.7136 98.3278C54.479 97.7663 53.5511 98.0126 53.7885 98.5829H53.7915Z" fill="white"/>
<path d="M63.0385 114.8C62.7995 115.434 63.556 115.972 64.1292 115.808C64.827 115.613 64.9149 114.801 64.7727 114.204C64.7437 114.104 64.6829 114.015 64.5995 113.952C64.516 113.888 64.4143 113.853 64.3095 113.853H63.6747C63.5908 113.852 63.5082 113.874 63.4353 113.915C63.3625 113.957 63.3019 114.017 63.2598 114.09C63.0136 114.624 63.1704 115.307 63.7275 115.579C63.8381 115.641 63.9679 115.657 64.0901 115.625C64.2124 115.593 64.3177 115.515 64.3842 115.408C64.4475 115.298 64.4647 115.167 64.4324 115.044C64.4 114.921 64.3206 114.816 64.2113 114.751C64.1828 114.738 64.1554 114.723 64.1292 114.706C64.1658 114.734 64.1629 114.728 64.1204 114.69C64.1658 114.786 64.0617 114.593 64.0998 114.646C64.113 114.673 64.1101 114.663 64.0998 114.615C64.0998 114.665 64.0998 114.66 64.0998 114.603C64.0998 114.546 64.0998 114.54 64.0998 114.591C64.116 114.537 64.116 114.531 64.0998 114.574L63.6864 114.811H64.3212L63.8594 114.458C63.8967 114.574 63.9068 114.697 63.8887 114.817C63.8975 114.751 63.8624 114.895 63.8624 114.895C63.8756 114.858 63.8697 114.866 63.8418 114.917C63.8448 114.909 63.8499 114.901 63.8566 114.896C63.8633 114.89 63.8713 114.886 63.8799 114.885C63.9357 114.867 63.9386 114.866 63.8799 114.885C63.943 114.885 63.9459 114.876 63.8887 114.885H63.9371C63.8843 114.868 63.8843 114.871 63.9371 114.893C63.8374 114.848 63.8961 114.851 63.9371 114.923C63.9543 114.958 63.9623 114.997 63.9606 115.036C63.9474 115.104 63.9503 115.11 63.9679 115.056C63.9995 114.934 63.9821 114.804 63.9194 114.695C63.8567 114.585 63.7536 114.504 63.6322 114.47C63.5101 114.44 63.3812 114.458 63.2721 114.521C63.163 114.583 63.082 114.685 63.0458 114.805L63.0385 114.8Z" fill="#004449"/>
<path d="M12.2287 117.842C18.1584 118.998 23.9792 120.656 29.6284 122.798C30.3174 123.059 31.0039 123.328 31.688 123.604C32.314 123.857 32.9429 124.172 33.6187 124.254C34.7417 124.389 35.5436 123.751 36.0215 122.788C36.6548 121.505 37.1151 120.111 37.634 118.778C38.2048 117.312 38.7653 115.841 39.3155 114.363C40.5499 111.054 41.7295 107.725 42.8544 104.377C43.0523 103.79 42.1214 103.54 41.9294 104.122C40.0725 109.64 38.069 115.107 35.9189 120.521C35.4791 121.621 35.0759 123.618 33.5059 123.267C32.229 122.983 30.9727 122.291 29.75 121.828C27.1201 120.834 24.4535 119.945 21.7502 119.161C18.6951 118.276 15.6048 117.529 12.4794 116.921C11.8754 116.804 11.6174 117.727 12.2243 117.846L12.2287 117.842Z" fill="white"/>
<path d="M32.4227 118.126L32.1295 118.144C32.0251 118.146 31.9243 118.182 31.8412 118.245C31.7581 118.308 31.6969 118.396 31.6662 118.495C31.5416 118.894 31.5006 119.341 31.7234 119.715C31.8204 119.872 31.9592 119.998 32.1243 120.08C32.2893 120.162 32.4739 120.196 32.6572 120.178C32.8549 120.157 33.0382 120.065 33.173 119.919C33.3078 119.773 33.385 119.583 33.3902 119.384C33.399 118.992 33.1776 118.651 32.9343 118.368C32.8439 118.279 32.7223 118.23 32.5957 118.23C32.469 118.23 32.3474 118.279 32.257 118.368C32.1693 118.459 32.1203 118.581 32.1203 118.707C32.1203 118.834 32.1693 118.955 32.257 119.047C32.3332 119.137 32.3728 119.272 32.4315 119.35C32.4315 119.313 32.4315 119.324 32.4315 119.384C32.4286 119.365 32.4301 119.345 32.4359 119.326C32.4418 119.308 32.4518 119.291 32.4652 119.277C32.4974 119.24 32.5297 119.246 32.5678 119.231C32.6059 119.217 32.5898 119.231 32.5385 119.218C32.5781 119.233 32.5722 119.227 32.5209 119.199C32.5707 119.252 32.5385 119.22 32.5326 119.176C32.5204 119.031 32.5425 118.885 32.5971 118.75L32.1339 119.102L32.4271 119.085C32.5534 119.082 32.6738 119.031 32.7631 118.941C32.8525 118.852 32.9038 118.732 32.9064 118.605C32.9053 118.479 32.8544 118.357 32.7648 118.268C32.6751 118.178 32.5539 118.127 32.4271 118.126H32.4227Z" fill="#004449"/>
<path d="M4.85589 122.703C6.28815 124.919 7.67204 127.178 9.17173 129.347C9.83875 130.313 10.5688 131.342 11.5276 132.042C12.3544 132.644 12.9935 131.914 13.6884 131.426C14.1898 131.073 13.7104 130.241 13.2046 130.598L12.608 131.021C12.3397 131.209 12.3148 131.325 12.0069 131.205C11.6771 131.071 11.3179 130.552 11.0892 130.288C10.3694 129.459 9.76985 128.529 9.17466 127.61C8.01165 125.815 6.85011 124.018 5.69003 122.221C5.35579 121.704 4.51725 122.184 4.86176 122.705L4.85589 122.703Z" fill="#004449"/>
<path d="M60.027 124.386C57.8573 128.963 55.5606 133.477 53.1369 137.928L53.6793 137.708C47.7196 135.249 42.1472 131.941 37.1357 127.886C36.6593 127.5 35.9761 128.179 36.457 128.564C41.5964 132.722 47.3116 136.112 53.4242 138.628C53.526 138.657 53.6343 138.65 53.7322 138.611C53.83 138.571 53.912 138.5 53.9651 138.408C56.384 133.958 58.6783 129.444 60.8479 124.867C61.1118 124.312 60.2835 123.825 60.0196 124.382L60.027 124.386Z" fill="#004449"/>
<path d="M42.6517 124.747C42.8189 126.572 43.0168 128.658 43.738 130.36C43.9638 130.892 44.3889 131.239 44.99 131.163C45.4694 131.097 45.959 130.822 46.4046 130.641C46.8738 130.451 47.3424 130.258 47.8105 130.062C51.5458 128.498 55.199 126.757 58.7702 124.837C59.314 124.544 58.8303 123.716 58.2849 124.009C55.2826 125.623 52.2187 127.113 49.0932 128.48C48.286 128.832 47.4753 129.174 46.6612 129.507C46.2786 129.663 45.893 129.819 45.5089 129.971C45.1248 130.124 44.817 130.347 44.5971 129.936C44.2306 129.256 44.1441 128.24 43.9975 127.486C43.8222 126.58 43.6935 125.665 43.612 124.745C43.5563 124.135 42.596 124.129 42.6517 124.745V124.747Z" fill="#004449"/>
<path d="M46.0012 125.591C45.8889 125.626 45.7875 125.69 45.7071 125.775C45.6266 125.861 45.5699 125.966 45.5424 126.081C45.5157 126.203 45.5188 126.329 45.5515 126.449C45.5841 126.569 45.6454 126.68 45.73 126.771C46.0995 127.161 46.6814 127.004 47.0216 126.664C47.0825 126.605 47.1261 126.53 47.1478 126.448C47.1695 126.366 47.1684 126.28 47.1447 126.198L46.9688 125.751C46.9326 125.631 46.8516 125.529 46.7425 125.466C46.6334 125.404 46.5045 125.386 46.3824 125.415C46.1566 125.489 45.9426 125.755 46.0467 126.002L46.2226 126.449L46.3457 125.983C46.3135 126.015 46.2636 126.047 46.3296 126.005C46.3 126.027 46.2674 126.046 46.2329 126.06C46.29 126.037 46.2944 126.032 46.2431 126.049L46.3003 126.04H46.3223C46.3548 126.048 46.3846 126.065 46.4088 126.088C46.4425 126.117 46.4454 126.119 46.419 126.088C46.463 126.151 46.4762 126.166 46.4572 126.134C46.4381 126.101 46.4484 126.119 46.4821 126.189C46.4733 126.153 46.4733 126.157 46.4821 126.204C46.4909 126.251 46.4821 126.255 46.4821 126.217C46.466 126.301 46.4645 126.323 46.4747 126.286C46.4544 126.335 46.4245 126.379 46.3867 126.416C46.3489 126.453 46.3041 126.482 46.2548 126.502C46.3775 126.468 46.4817 126.387 46.5445 126.276C46.6074 126.165 46.6236 126.034 46.5898 125.912C46.556 125.789 46.4748 125.685 46.3642 125.622C46.2535 125.559 46.1224 125.543 45.9998 125.577L46.0012 125.591Z" fill="#004449"/>
<path d="M7.62357 113.562C7.22096 110.907 7.22591 108.207 7.63823 105.553C7.71886 105.046 7.7643 104.347 8.14839 103.967C8.56033 103.561 9.37834 103.46 9.90756 103.31C11.1429 102.959 12.3807 102.617 13.6209 102.284C18.6257 100.916 23.6589 99.6561 28.7204 98.5049C29.408 98.3465 30.1014 98.1486 30.8007 98.0489C31.6509 97.9273 31.9998 98.3671 32.3458 99.0473C32.9863 100.333 33.3238 101.748 33.3324 103.184C33.3412 103.801 34.2999 103.803 34.2912 103.184C34.2807 101.876 34.0257 100.58 33.5391 99.3654C33.1521 98.414 32.6507 97.2529 31.5102 97.0814C30.9561 96.9978 30.3961 97.143 29.858 97.2632C29.0679 97.4391 28.2792 97.6209 27.492 97.8027C25.9615 98.1574 24.4334 98.5215 22.9078 98.8948C19.9505 99.618 17 100.375 14.0563 101.167C12.5903 101.564 11.1243 101.97 9.65834 102.385C8.53541 102.703 7.40807 102.922 6.97121 104.144C6.46691 105.555 6.4332 107.31 6.38482 108.79C6.34038 110.474 6.44685 112.158 6.70294 113.823C6.79383 114.431 7.71886 114.173 7.62797 113.568L7.62357 113.562Z" fill="#004449"/>
<path d="M73.5531 54.9948C77.3099 53.9472 81.0452 52.8232 84.759 51.6231C86.6589 51.0074 88.5525 50.3721 90.4397 49.7173C90.8062 49.5913 91.2782 49.301 91.6608 49.4065C92.0435 49.5121 92.1006 49.9328 92.2179 50.2861C92.5111 51.2639 92.7515 52.2608 92.9509 53.2621C93.7337 57.1146 94.1237 61.064 94.499 64.9752C94.8743 68.8864 95.1411 72.8152 95.3536 76.7426C95.5926 81.1523 95.7612 85.5634 95.9298 89.976C95.9532 90.5917 96.9134 90.5946 96.89 89.976C96.5689 81.5862 96.2479 73.1905 95.4445 64.8315C95.056 60.7942 94.6558 56.7071 93.8202 52.7328C93.6242 51.7293 93.3697 50.7381 93.0579 49.7642C92.8791 49.2336 92.6269 48.6501 92.0596 48.4449C91.3647 48.1898 90.5555 48.6604 89.9134 48.8847C88.8383 49.2599 87.7569 49.6279 86.6692 49.9885C82.2517 51.4555 77.7951 52.8159 73.2995 54.0698C72.7058 54.2355 72.9579 55.162 73.5546 54.9948H73.5531Z" fill="#004449"/>
<path d="M73.1735 61.6737C72.5929 73.4015 72.5881 85.1342 73.1588 96.8718C73.1896 97.4875 74.1483 97.4904 74.119 96.8718C73.5473 85.144 73.5517 73.4113 74.1322 61.6737C74.163 61.0565 73.2028 61.0595 73.1735 61.6737Z" fill="#4081F4"/>
<path d="M81.5087 57.164C83.4614 68.8684 81.9895 80.7897 83.1784 92.5571C83.24 93.1655 84.2046 93.1713 84.1372 92.5571C82.9395 80.7017 84.4011 68.7042 82.4337 56.9089C82.3326 56.3005 81.4075 56.5586 81.5087 57.164Z" fill="#4081F4"/>
<path d="M88.6168 54.6252C91.4152 65.9501 92.4443 77.6399 91.6675 89.2795C91.6265 89.8952 92.5867 89.8937 92.6278 89.2795C93.404 77.555 92.3631 65.781 89.5419 54.3746C89.3953 53.775 88.4673 54.0286 88.6168 54.6296V54.6252Z" fill="#4081F4"/>
<path d="M55.6497 9.88524C56.3256 11.9849 57.6465 13.8178 59.4245 15.1232L59.5389 14.2436C57.2622 15.0499 56.1276 17.2415 55.2025 19.3188C54.9533 19.8773 55.7801 20.367 56.0308 19.8026C56.8342 18.0023 57.79 15.8767 59.794 15.1686C59.8836 15.1416 59.9636 15.0892 60.0242 15.0178C60.0849 14.9464 60.1236 14.8591 60.1358 14.7662C60.1481 14.6734 60.1333 14.5789 60.0932 14.4943C60.0531 14.4097 59.9894 14.3384 59.9098 14.289C58.3385 13.1203 57.1723 11.4892 56.5747 9.62429C56.3856 9.0379 55.4591 9.29005 55.6497 9.87937V9.88524Z" fill="#004449"/>
<path d="M48.3892 49.303C48.7254 51.0153 49.4838 52.6166 50.5956 53.9616C51.7074 55.3066 53.1374 56.3528 54.7559 57.0052L54.6415 56.1256C51.0191 57.8291 48.6897 61.7374 48.8935 65.7322C48.9257 66.3464 49.8845 66.3508 49.8537 65.7322C49.7728 63.9123 50.2303 62.1091 51.169 60.548C52.1077 58.9869 53.4859 57.7372 55.1312 56.9553C55.5475 56.7589 55.3555 56.2224 55.0154 56.0758C52.0556 54.8766 49.9094 52.1689 49.3186 49.0391C49.2042 48.4336 48.2792 48.6902 48.3936 49.2942L48.3892 49.303Z" fill="#004449"/>
<path d="M96.9713 24.2032C99.0387 22.7737 101.218 21.5138 103.489 20.4357C104.048 20.1703 103.561 19.3421 103.005 19.6074C100.735 20.6855 98.5549 21.9455 96.4875 23.375C95.9832 23.7239 96.4626 24.5478 96.9713 24.2032Z" fill="#004449"/>
<path d="M99.0366 35.1231L104.735 37.2722C105.312 37.4907 105.563 36.5627 104.99 36.3472L99.2916 34.1981C98.7126 33.9797 98.4634 34.9076 99.0366 35.1231Z" fill="#004449"/>
<path d="M89.1808 18.804C89.6 17.2795 89.9212 15.7298 90.1425 14.1642C90.2275 13.5602 89.3039 13.2993 89.2175 13.9091C88.9945 15.4746 88.6723 17.0243 88.2528 18.549C88.0887 19.1456 89.0137 19.3992 89.1779 18.804H89.1808Z" fill="#004449"/>
</svg>
